<svg id="Layer_1" data-name="Layer 1" xmlns="http://www.w3.org/2000/svg" xmlns:xlink="http://www.w3.org/1999/xlink" viewBox="0 0 1920 800"><defs><style>.cls-1{fill:none;}.cls-2{fill:#efe0bd;}.cls-3{fill:#f2eee8;}.cls-4{fill:#feecd4;}.cls-5{fill:#3faa9f;}.cls-6{fill:#fff;}.cls-7{fill:#ed7e69;}.cls-8{opacity:0.1;isolation:isolate;}.cls-9{fill:#4bd1c6;}.cls-10{clip-path:url(#clip-path);}.cls-11{fill:#f79a9f;}.cls-12{clip-path:url(#clip-path-2);}.cls-13{fill:#fcc;}.cls-14{fill:#bce6d8;}.cls-15{fill:#f7e484;}</style><clipPath id="clip-path"><polygon class="cls-1" points="677.42 479.35 677.42 485.38 529.58 511.66 526.44 504.66 677.42 479.35"/></clipPath><clipPath id="clip-path-2"><path class="cls-1" d="M677.42,479.38c-34.62-6.8-53-27.46-60.82-35.48-23.19-23.8-29.14-30.41-45-71.59-2.76-7.18-20.91-81.09-20.91-81.09l-117.84,7.6c-3,19.72-1.68,43.74,4.44,72.86,18.18,86.57,66.12,124.85,84.89,136.84Z"/></clipPath></defs><g id="green"><path class="cls-2" d="M1914.52,284.38a502.76,502.76,0,0,1-147.46,97.32c-29.44,12.65-111.78,44.76-378.62,47.81-61.94.71-115.89-.35-197.29-3.42-280.52-10.54-311.44-23.18-463.31-26.45-212-4.59-378.74,15.14-459.33,26.45a2682.29,2682.29,0,0,0-338.77,70V817.33l2074.46-19L1966,284.38Z"/><path class="cls-3" d="M1911.89,361.31a1004,1004,0,0,1-175.36,69.16c-179.16,51.93-305.11,34.87-639.68,11.95-444.33-30.45-557-23.29-642.66-13.66-160.58,18.05-289.64,51.95-321.83,60.61a2076.83,2076.83,0,0,0-233.15,77.69l-10.77,193c246.56,43.3,432.68,25.2,558.36,0,118.43-23.84,142.2-45.74,313.28-88,177.3-43.77,309.53-59.19,511.14-82,170.37-19.25,395.26-39,663.59-47h67.75l-20.92-187.83Z"/><path class="cls-4" d="M806.46,513a52.81,52.81,0,0,0,1.41-13.6A22.27,22.27,0,0,0,794.3,494c-.71,1.15-1.42,2.3-2.14,3.45a50.66,50.66,0,0,1,6.35,22.08,31.23,31.23,0,0,1-2.69,14c-.22.62-1.12,2.43-.07.93A52.18,52.18,0,0,0,806.46,513Z"/><polygon class="cls-5" points="695.79 474.28 696.42 486.32 541.84 503.42 542.48 497.09 695.79 474.28"/><polygon class="cls-6" points="677.42 479.35 677.42 485.38 529.58 511.66 526.44 504.66 677.42 479.35"/><polygon class="cls-5" points="601.3 377.49 606.85 386.18 549.68 498.99 539.37 499.1 601.3 377.49"/><path class="cls-6" d="M677.42,479.38c-34.62-6.8-53-27.46-60.82-35.48-23.19-23.8-29.14-30.41-45-71.59-2.76-7.18-20.91-81.09-20.91-81.09l-117.84,7.6c-3,19.72-1.68,43.74,4.44,72.86,18.18,86.57,66.12,124.85,84.89,136.84Z"/><path class="cls-7" d="M789.5,488.65c-6.7-16-19-30.5-35.53-36.67-3.82-1.06-7.9-3.24-11.86-1.81a52.42,52.42,0,0,0-37.73,62.4c11.68-12.51,27.76-20.19,44.26-24.09,12.3-2.36,25.21-.47,36.72,4.28Z"/><path class="cls-8" d="M398.34,520.85c13.9-23.47,96.3-24.08,171.69-5.07,73.76,18.6,134.75,43.41,126.71,67.15S581.9,608.59,509.85,584.2,385.53,542.38,398.34,520.85Z"/><polygon class="cls-9" points="702.2 569.81 691.37 575.44 545.92 290.01 556.75 284.38 702.2 569.81"/><g class="cls-10"><polygon class="cls-11" points="573.11 495.5 576.56 509.28 607.74 503.42 599.49 485.05 576.05 488.85 573.11 495.5"/><polygon class="cls-11" points="617.87 486.95 621.67 500.26 661.58 490.75 645.11 478.08 617.87 486.95"/></g><rect class="cls-9" x="557.33" y="575.86" width="138.26" height="6.93" transform="translate(-123.82 172.95) rotate(-14.32)"/><rect class="cls-5" x="429.98" y="495.39" width="138.26" height="6.93" transform="translate(-107.88 138.95) rotate(-14.32)"/><polygon class="cls-9" points="467.08 390.65 474.05 398.26 437.31 519.26 427.17 521.16 467.08 390.65"/><g class="cls-12"><path class="cls-13" d="M612.16,500.26c-7-5.74-45.61-33.58-64.62-60.82-14.2-20.36-19.78-37.2-31-72.23-2.43-7.56-16.47-80.46-16.47-80.46l-23.44.64c3.59,20.06,10.16,52,17.17,81.29,20.83,87.05,80.45,126.69,86,138.22Z"/><path class="cls-13" d="M558.78,505.48c-7-5.74-43.4-42.13-55.59-63.13-12.46-21.47-24.13-55.16-29.3-79.6-1.65-7.77-5.85-28.37-12.45-56.26-.92-3.89-1.69-7.08-2.21-9.22l-1.4-5.58-19.66,1.18c3.6,20.07,9.27,48.91,16.27,78.19,20.84,87.05,73.49,128.61,79,140.14Z"/><path class="cls-13" d="M666.65,492c-7-5.74-45-20.95-70.32-50-16.29-18.74-33.48-56.65-38.65-81.09-1.65-7.77-6.7-25.29-13.3-53.22-.93-3.89-2-9.9-2.54-12l-2.53-14.57-23.44-4.43c3.59,20.06,13.57,76.09,23.44,104.53C571.62,474.28,629.46,491.9,635,503.38Z"/></g><rect class="cls-9" x="490.82" y="279.32" width="11.18" height="344.4" transform="translate(-141.36 242.84) rotate(-24.17)"/><polygon class="cls-9" points="577.32 497.09 577.95 509.13 423.37 526.23 424 519.89 577.32 497.09"/><path class="cls-8" d="M713.69,522.65c8.68-14.92,48.71-17.81,83.74-8.34,34.27,9.27,61.83,22.78,56,37.71s-57.84,19.35-90.81,6.45S705.71,536.38,713.69,522.65Z"/><path class="cls-14" d="M801.4,526.13c1.64-15.53-7.56-30.82-7.56-30.82l-7,2.49s-1.74,16.88-33,33.21c-13.7,7.16-23.21,10.17-32.05,10a52.45,52.45,0,0,0,79.6-14.9Z"/><path class="cls-4" d="M787.24,498.83l-.79-7.5s-20-16.63-65.11-3.4a94.29,94.29,0,0,0-18,8.13,52.42,52.42,0,0,0,24.47,48.58c18.38-2.61,49-14.3,59.45-45.81Z"/><path class="cls-15" d="M807.89,502a52.54,52.54,0,0,0-25-45.8c7.5,13.81,7.91,27.55,6.47,34.28l3.44,4L807.9,502Z"/><path class="cls-4" d="M790.69,486.79s6.69-14.86-5.45-29.09h0a52.41,52.41,0,0,0-48.37-5.84l.13.06c19.2-.37,40.79,16.19,48.41,32.63l5.29,2.24Z"/><path class="cls-6" d="M791.12,503.22c-5.5,1.4-11-2.57-12.18-8.89s2.24-12.58,7.74-14,11,2.58,12.19,8.89S796.63,501.8,791.12,503.22Z"/></g></svg>
