<svg id="Layer_2" data-name="Layer 2" xmlns="http://www.w3.org/2000/svg" viewBox="0 0 1920 800"><defs><style>.cls-1{fill:#ff501a;}.cls-2{fill:#b2aead;}.cls-3{fill:#9a9290;}.cls-4{fill:#5e5d5c;}.cls-5{fill:#48484a;}.cls-6{fill:#252726;}.cls-15,.cls-16,.cls-17,.cls-7{fill:none;stroke-miterlimit:10;}.cls-7{stroke:#3d3d3d;stroke-width:4px;}.cls-8{fill:#fff;}.cls-9{fill:#e8e8de;}.cls-10{fill:#bce6d8;}.cls-11{fill:#fffcf3;}.cls-12{fill:#97ddc4;}.cls-13{fill:#878787;}.cls-14{fill:#f9f0d9;}.cls-15{stroke:#97ddc4;}.cls-16{stroke:#f9f0d9;}.cls-17{stroke:#d8d8d2;}</style></defs><ellipse class="cls-1" cx="1292.52" cy="316.33" rx="94" ry="90.87"/><path class="cls-2" d="M1713,471l368,236L1601.66,517Z"/><path class="cls-2" d="M1653.92,522c-44.62-38-79-69.75-102.59-92.18-21.1-20-43.65-35-64.85-54.7-18.93-17.63-32.83-32.15-52.14-30-9.73,1.1-12.9,5.56-30.9,15.75-11,6.19-25.53,11.87-54.69,23.23-62.59,24.41-55.79,17.37-74.19,27.73-21.6,12.18-29,20.79-45.38,20.23-9.16-.32-13.35-3.24-39-18-24.52-14.09-49.19-27.35-73.76-41.21-35.73-20.16-29.07-15.56-37.73-21-49.6-31.15-57-50.52-89.87-62.2-7.47-2.65-13.65-3.94-22-11.24-17.1-14.77-17.39-31.77-32.23-41.22-6.7-4.28-7-1-28.82-4.5-16.42-2.62-22.61-5.47-29.67-6.74-15.57-2.78-23.36,4.33-57.23,22.48-18.35,9.85-47.59,25.39-80.54,36.72-15.08,5.19-25.7,7.69-33.92,9.75-77.69,19.4-117.85,42.72-211.53,68.92-15.91,4.46-41.24,11.2-72.9,18V620.72H1655.48Z"/><path class="cls-3" d="M1933.28,537.27c-365-23.92-502.48-60.06-549-93.54-37.57-27-81.64-46.54-113.59-80-19-19.92-39.18-46.66-64.32-43.33-12,1.6-15.89,8-38.18,22.76-13.53,8.93-31.51,17.15-67.51,33.57-77.23,35.28-68.84,25.1-91.53,40.08-26.65,17.61-35.82,30.05-56,29.25-11.3-.46-16.47-4.69-48.12-26-30.26-20.37-60.7-39.53-91-59.57-44-29.14-35.88-22.48-46.55-30.34-61.17-45-70.2-73-110.85-89.91-9.22-3.83-16.88-5.75-27.2-16.25-21.09-21.38-21.48-45.92-39.71-59.57-8.28-6.19-8.62-1.47-35.57-6.5-20.28-3.79-27.88-7.88-36.61-9.75-19.2-4-28.79,6.25-70.6,32.49-22.68,14.25-58.72,36.7-99.39,53.08a394.59,394.59,0,0,1-41.84,14.08c-95.86,28.06-145.44,61.75-261,99.66-19.64,6.44-50.89,16.19-90,26v345.2l2002.34,19.4Z"/><path class="cls-4" d="M10.85,575H1968V813.21H-28V576.16Z"/><path class="cls-5" d="M268.76,413.22,266.61,416l-10.89,26.2-3.08,29.65,19.42-1.34a156.88,156.88,0,0,1,4.07-41.2,7.58,7.58,0,0,1,1.27-2.54,8.47,8.47,0,0,1,1.27-1.27c1.38-1.08,17.14-1.35,38.74-.63a7.93,7.93,0,0,1,5.71,3.17,7.43,7.43,0,0,1,1.27,3.81c-.78,18.25-1.23,31.69-1.27,35.56a3.46,3.46,0,0,0,.64,2.22c1.8,2.3,6.94,1.08,9.52.32V429.31a4.49,4.49,0,0,1,3.81-3.81h50.8a4.48,4.48,0,0,1,3.81,3.81v39.37h12.7v-38.6a4.41,4.41,0,0,1,3.81-4.58h47a4.57,4.57,0,0,1,2.54,1.27,4.81,4.81,0,0,1,1.27,3.81q.32,21.32.64,42.61h11.13V431a5.19,5.19,0,0,1,2.2-4.18,4.7,4.7,0,0,1,3.17-.63h58.42s1.27,47.88,1.91,47.43,12.12,0,12.12,0v-44c0-.2-.11-2.84,1.85-4.15a3.9,3.9,0,0,1,1.9-.63H605.7v45.2l16.51.52V428.35a4.18,4.18,0,0,1,.64-1.58,4.68,4.68,0,0,1,3.17-1.9l56.52-.64a8.27,8.27,0,0,1,6.35,3.81l17.73,41,4.43-2.14-17-36.78a3.77,3.77,0,0,1,0-3.31,3.37,3.37,0,0,1,1.27-1.27l9.52-.63a7.14,7.14,0,0,1,1.91.63,7.48,7.48,0,0,1,3.17,3.18l22.86,41.91,8.89-1.27-27.94-44.45A2.73,2.73,0,0,1,713,423a3,3,0,0,1,2.54-2.54l19-4.06-9.43-8L664.8,405Z"/><path class="cls-6" d="M276.72,591.26c-2,1.14-3.08,3.42-3.76,19-.64,14.53.18,16,1.27,16.5,2.71,1.2,7.91-2.94,10.16-7.61,1.33-2.76.72-3.83,1.27-11.43.67-9.46,2.59-12.38,0-15.24A7.78,7.78,0,0,0,276.72,591.26Z"/><path class="cls-6" d="M608.23,587.43c3,1.84,6.23.86,11.43,0,3.61-.6,13.41-.4,33,0,29.59.6,35.54,6.2,55.88,2.54,9.4-1.7,14.15-2.62,16.51-6.35,8-12.58-11.5-49.37-41.91-59.69-30.76-10.45-68.31,7.68-77.47,31.75C601.75,566.05,601,583,608.23,587.43Z"/><path class="cls-6" d="M275.5,592.51c3.29,2.46,7.81,3,15.24,3.81a78.89,78.89,0,0,0,17.78,0c20.56-2.4,27.77,1.25,57.15-1.27,22.38-1.93,33.57-2.89,39.37-8.89,11-11.36,11.44-34.18,1.27-47-11.2-14.11-32.13-12.12-66-8.89-32.1,3.05-55.69,5.29-66,22.86C266.63,566,266.84,586,275.5,592.51Z"/><circle class="cls-6" cx="340.09" cy="591.3" r="41.66"/><ellipse class="cls-7" cx="340.09" cy="591.3" rx="32.09" ry="32.65"/><circle class="cls-8" cx="340.09" cy="591.3" r="22.52"/><ellipse class="cls-9" cx="340.13" cy="591.27" rx="17.39" ry="17.46" transform="translate(-21.64 12.99) rotate(-2.12)"/><circle class="cls-6" cx="667.42" cy="591.3" r="41.66"/><ellipse class="cls-7" cx="667.42" cy="591.3" rx="32.09" ry="32.65"/><circle class="cls-8" cx="667.42" cy="591.3" r="22.52"/><ellipse class="cls-9" cx="667.46" cy="591.26" rx="17.39" ry="17.46" transform="translate(-21.42 25.1) rotate(-2.12)"/><path class="cls-10" d="M248.83,476.94c-.48,4.79-1.33,6.29-1.91,9.52-3,16.85-4.42,35.06-2.54,91.44.13,3.89.34,9.84.64,17.15l22.86,1.27a8.66,8.66,0,0,0,4.44-.64,8.91,8.91,0,0,0,4.45-4.44l14-26.67a9.45,9.45,0,0,1,3.17-3.18,9.79,9.79,0,0,1,6.35-1.27l78.74.64a11.5,11.5,0,0,1,7.62,1.9,10.94,10.94,0,0,1,2.54,2.54l15.24,25.4H615.22c.81-5.59,4.4-25.45,21.59-38.1a50.68,50.68,0,0,1,15.24-7.62h28A51.2,51.2,0,0,1,699,555a52.34,52.34,0,0,1,16.51,26.67,15.52,15.52,0,0,0,6.35,10.16A15.3,15.3,0,0,0,732,594.37l54.61-1.27c3.15-12.65,8.86-43.09-3.81-77.47a129.49,129.49,0,0,0-26-42.54l-472.43-3.81a74.64,74.64,0,0,1-15.24,0,57.37,57.37,0,0,0-12.7,0c-2.62.29-4.95.74-6.35,2.54C249,473.22,249.06,474.64,248.83,476.94Z"/><path class="cls-9" d="M258.35,433.12A114.53,114.53,0,0,0,254.27,449a107.11,107.11,0,0,0-1.63,16.47h1.27c2.32-15.18,2.54-16.51,2.54-16.51,1.2-7.44,3.83-18.35,10.16-33l-1.27-1.27S261.32,423.9,258.35,433.12Z"/><path class="cls-11" d="M765.08,464.87a226.3,226.3,0,0,0-29.85-46.35c1.24,0,4.68,0,5.72-1.91,1.25-2.27-1.15-7-7-10.79a75.75,75.75,0,0,0-15.87-8.26c-7.54-2.84-13.66-3.75-22.86-5.08a205,205,0,0,0-21-1.9c-70.51-1.91-128-2.76-169.54-3.18-82.09-.82-47.68.61-74.93,0,0,0-60-1.33-119.38,5.08a83.83,83.83,0,0,0-33,10.16A78.7,78.7,0,0,0,264,412.17l.63,4.44c-.13.29-.25.59-.38.88h13.22a6.35,6.35,0,0,1,6.35,6.35h0v33a6.35,6.35,0,0,1-6.35,6.35H252.17c-.06.55-.12,1.12-.17,1.66a6.36,6.36,0,0,0-5.08,3.81,6.51,6.51,0,0,0,2.54,7.62q201.31-1.75,402.59,1.27,36.83.56,73.66,1.27a74.86,74.86,0,0,1,25.4,8.89c21.78,12.48,30.76,32.58,33.65,40A227,227,0,0,0,765.08,464.87Zm-406.77-7.62A6.35,6.35,0,0,1,352,463.6H302.8a6.35,6.35,0,0,1-6.35-6.35h0v-33a6.37,6.37,0,0,1,6.35-6.35H352a6.35,6.35,0,0,1,6.35,6.35h0Zm75.3.8a4.28,4.28,0,0,1-4.28,4.28H379.47a4.28,4.28,0,0,1-4.28-4.28V423.44a4.29,4.29,0,0,1,4.28-4.29h49.86a4.29,4.29,0,0,1,4.28,4.29Zm81.28,0a4.28,4.28,0,0,1-4.28,4.28H460.75a4.28,4.28,0,0,1-4.28-4.28V423.44a4.29,4.29,0,0,1,4.28-4.29h49.86a4.29,4.29,0,0,1,4.28,4.29Zm80,0a4.28,4.28,0,0,1-4.28,4.28H540.76a4.28,4.28,0,0,1-4.28-4.28h0V423.44a4.29,4.29,0,0,1,4.28-4.29h49.86a4.29,4.29,0,0,1,4.28,4.29Zm58.42,4.28H619V422.64a4.76,4.76,0,0,1,4.75-4.76h29.54Zm4.55,0V417.88H690.3l20.75,44.45Zm57.23,0L694,416.61h6.35c9.34,0,10.94,0,12.7,1.27a17.94,17.94,0,0,1,2.54,2.54,41,41,0,0,1,3.81,5.08c2,3.12,9.41,17.27,19,36.83Zm32.2,0q-14-23.81-27.94-47.62h8.41a5.64,5.64,0,0,1,2.1,1.29,6.22,6.22,0,0,1,1,1.28l27.81,45.05Z"/><path class="cls-11" d="M233.59,562c-.18-1.63-.39-3.27.63-4.45a4.67,4.67,0,0,1,5.72-.63c1.1.76,1.39,2,1.9,4.44,1.58,7.61,1.25,7.61,1.91,9.53,2.11,6.15,6,7.57,6.35,7.62a5.4,5.4,0,0,0,1.27,0c8.81-1.15,17.78,0,26.67,0a5.49,5.49,0,0,1,2.54,2.54c2.81,6.37-10.14,19-10.16,19H236.13s-3.52-1.39-5.08-3.81a7.44,7.44,0,0,1,0-7.62,16.19,16.19,0,0,1,3.17-3.18h0s.12-4.87,0-8.89C233.89,564.81,233.59,562,233.59,562Z"/><path class="cls-12" d="M403.77,579.59A3.61,3.61,0,0,0,400,583a2.29,2.29,0,0,0,0,.37,3.56,3.56,0,0,0,3.81,2.76H612a3.57,3.57,0,0,0,3.89-2.76,3.62,3.62,0,0,0-3.5-3.74H612Z"/><path class="cls-13" d="M774.6,515a5.4,5.4,0,0,0-2.54-2.54,5.12,5.12,0,0,0-3.81,0c-2.09.85-3,3-3.81,5.08a19.41,19.41,0,0,0-1.27,5.08,29.88,29.88,0,0,0,0,10.16c.59,3,1.82,9.46,6.35,11.43.25.1,3.29,1.38,5.08,0a3.89,3.89,0,0,0,1.27-2.54C776.24,539.4,778.81,522.67,774.6,515Z"/><path class="cls-8" d="M770.16,516.94a4.05,4.05,0,0,0-1.27,1.27,14,14,0,0,0-2.54,6.35,19.85,19.85,0,0,0,2.54,12.7c1.13,1.85,1.91,2.33,2.54,2.54,2.83,1,6.06-2.25,6.35-2.54,4.28-4.35,4.46-13.44,0-17.78C776,517.74,772.38,515.73,770.16,516.94Z"/><path class="cls-12" d="M330.08,535.73H295.93a1.17,1.17,0,0,1-1.17-1.17v-.36h36.49v.36A1.17,1.17,0,0,1,330.08,535.73Z"/><path class="cls-12" d="M330.08,530.75H295.93a1.17,1.17,0,0,1-1.17-1.17v-.36h36.49v.36A1.17,1.17,0,0,1,330.08,530.75Z"/><path class="cls-12" d="M330.08,525.77H295.93a1.17,1.17,0,0,1-1.17-1.17v-.36h36.49v.36A1.17,1.17,0,0,1,330.08,525.77Z"/><path class="cls-12" d="M330.08,521.17H295.93a1.17,1.17,0,0,1-1.17-1.17v-.36h36.49V520A1.17,1.17,0,0,1,330.08,521.17Z"/><path class="cls-12" d="M330.08,515.81H295.93a1.17,1.17,0,0,1-1.17-1.17v-.36h36.49v.36A1.17,1.17,0,0,1,330.08,515.81Z"/><path class="cls-12" d="M330.08,511.21H295.93a1.17,1.17,0,0,1-1.17-1.17h0v-.36h36.49V510a1.17,1.17,0,0,1-1.13,1.21Z"/><path class="cls-12" d="M330.08,506.62H295.93a1.17,1.17,0,0,1-1.17-1.17h0v-.37h36.49v.37A1.17,1.17,0,0,1,330.08,506.62Z"/><path class="cls-12" d="M330.08,501.64H295.93a1.17,1.17,0,0,1-1.17-1.17h0v-.36h36.49v.36A1.17,1.17,0,0,1,330.08,501.64Z"/><path class="cls-12" d="M330.08,496.66H295.93a1.17,1.17,0,0,1-1.17-1.17h0v-.36h36.49v.36A1.17,1.17,0,0,1,330.08,496.66Z"/><path class="cls-12" d="M330.08,491.29H295.93a1.16,1.16,0,0,1-1.17-1.15h0v-.37h36.49v.37a1.16,1.16,0,0,1-1.16,1.16Z"/><path class="cls-14" d="M263.94,412.29c0,.57,11.54.23,22.86,0,29.48-.59,92.33-1.11,96.49-1.26h0c13.29-.54-5.83.41,141-1.27,105.51.34,146.91.24,160,0,.73,0,4.2-.07,8.89,0,10.35.18,23.06.45,38.1,3.81,6.51,1.46,10.09,2.74,10.16,2.54.12-.38-12.41-6.15-27.94-8.89-7.51-1.32-12-1.28-35.56-1.27-2.63,0,1-.43-27.94,0-32.81.49-60.49-.2-120.65,0-82,.28-66.06,1.69-114.3,1.27-35.56-.3-71.12,1.6-106.68,1.27,0,0-13.91-.12-36.83,2.54C266.37,411.63,263.93,412,263.94,412.29Z"/><path class="cls-13" d="M534.45,492.3c-3.87-.63-4.63-.49-5.08,0-1.22,1.34,0,5.08,0,5.08h0s6.56-.77,14-.93c3.32-.08,5,0,5-.34.08-.54-3.72-1.52-7.62-2.54C540.8,493.57,538.36,492.94,534.45,492.3Z"/><path class="cls-12" d="M537,493.57c.11.14,2-2.14,5.08-2.54.5-.06,3.24-.41,5.08,1.27,2.38,2.17,1.56,6.17,1.27,7.62-1,5.08-4.95,7.88-6.35,8.89-2.09,1.5-4.79,3.44-7.62,2.54a6.26,6.26,0,0,1-3.81-3.81c-1.68-4.65,3-9.9,2.54-10.16s-3.22,2.39-3.81,6.35c-.12.82-.63,4.21,1.27,6.35,3.24,3.67,11.84,1.83,16.51-2.54a13.45,13.45,0,0,0,3.81-6.35c.4-1.59,1.44-5.76-1.27-8.89a8.07,8.07,0,0,0-7.62-2.54C538.75,490.49,536.87,493.43,537,493.57Z"/><path class="cls-12" d="M625.89,492.3c.42.44,2.6-2.16,6.35-2.54,1.1-.11,3.42-.34,5.08,1.27a5.15,5.15,0,0,1,1.27,5.08c-.91,2.85-4.34,3.64-5.08,3.81,0,0-2.93.68-8.89-1.27h0a14.49,14.49,0,0,0,6.35,3.81,9.06,9.06,0,0,0,3.81,0c1.18-.21,4.7-.87,6.35-3.81s.75-6.58-1.27-8.89c-3-3.46-8.45-3.35-11.43-1.27C626.56,489.8,625.54,492,625.89,492.3Z"/><path class="cls-15" d="M441,475.71c-.63,26.56-.44,53.88.72,81.9q.51,12.55,1.27,24.86"/><path class="cls-16" d="M444.28,409.75q-2.43,32.13-3.26,66"/><path class="cls-15" d="M525.16,475.79l-.24,16q-.66,46-1.27,91.91"/><path class="cls-16" d="M526.19,409.12q-.53,33.33-1,66.67"/><path class="cls-15" d="M605.15,475.79q-.14,8-.22,16c-.3,31.88.18,62.55,1.27,91.91"/><path class="cls-16" d="M607.47,409.12q-1.66,32.29-2.32,66.67"/><path class="cls-15" d="M612.55,477v60.37c52.69,2.18,73.27,2.21,77.47,1.27a13.12,13.12,0,0,1,6.35,0,13.68,13.68,0,0,1,8.89,7.62c3.6,7.65,4.47,14,7.62,20.32A44.72,44.72,0,0,0,718,574.2c10.45,12.6,36.1,9.49,40.64,8.89"/><path class="cls-17" d="M615.09,463.73a7.36,7.36,0,0,0-2.54,3.81,24,24,0,0,0,0,5.08V477"/><path class="cls-15" d="M749.71,484.05c1.1,4.36,2.51,10.44,3.81,17.78a274.17,274.17,0,0,1,3.81,36.83c.52,10.43.77,23.78,0,39.37"/><path class="cls-15" d="M284.9,475.16c-.73,21.44-.8,43.91,0,67.31q.47,13.57,1.27,26.67"/><path class="cls-15" d="M245.53,559a18.79,18.79,0,0,1,6.35,3.81c5.6,5.12,6.24,12.08,6.35,14"/><path class="cls-13" d="M250.14,471.86H250c-2.07-.08-4.83,1.07-5,2.55s2.23,3.4,2.53,3.77h0c78,0,432.6.24,465.09,1.27l1.7.06a85.62,85.62,0,0,1,32.29,7.56,78,78,0,0,1,29.21,24.13c6.47,8.83,10.3,18.26,11.43,17.78.77-.33-.44-5-1.27-7.62C781.5,507,771.15,498,765.71,493.45c-2.79-2.36-15.62-13.19-29.34-15.88a204,204,0,0,0-23-2.54h0C703,473.89,265.08,472.63,250.14,471.86Z"/><path class="cls-11" d="M793.65,554.41c-.42,1.27-.85,2.54-1.27,3.81-1.72,0-4.37.07-7.62,0-4.62-.1-5.79-.31-7.62,0-2.24.37-5.38,1.51-8.89,5.08,0,0-2.76,3.85-2.54,14l-47-1.27a15.65,15.65,0,0,0-2.54,2.54c-1.63,2.5.82,6.82,1.27,7.62a15.13,15.13,0,0,0,7.62,6.35,18.37,18.37,0,0,0,7.62,1.27c6.77-.27,26.48-.16,54.61,0a11.91,11.91,0,0,0,6.35,2.54,12.67,12.67,0,0,0,1.49-.13,22.46,22.46,0,0,0,4.86-1.14V554.41Zm-10.16,22.86H772.06s-1.44-4.76,0-8.89a7.63,7.63,0,0,1,2.54-3.81c1.67-1.25,3.4-1.21,6.35-1.27,8.7-.18,9.57-.86,10.16,0,2.09,3.07-7.62,14-7.62,14Z"/><ellipse class="cls-13" cx="754.02" cy="505.21" rx="5.63" ry="8.53" transform="translate(-112.2 234.2) rotate(-16.45)"/><ellipse class="cls-8" cx="754.55" cy="505.36" rx="3.88" ry="5.87" transform="translate(-112.22 234.36) rotate(-16.45)"/><path class="cls-13" d="M623.34,492c-4.57-.74-5.48-.58-6,0-1.45,1.58,0,6,0,6h0s7.75-.91,16.59-1.11c3.93-.08,5.87,0,5.94-.39.09-.64-4.4-1.81-9-3C630.84,493.54,628,492.79,623.34,492Z"/></svg>
