<svg id="Layer_2" data-name="Layer 2" xmlns="http://www.w3.org/2000/svg" viewBox="0 0 1920 800"><defs><style>.cls-1{fill:#b2aead;}.cls-2{fill:#9a9290;}.cls-3{fill:#5e5d5c;}.cls-4{fill:#48484a;}.cls-5{fill:#252726;}.cls-14,.cls-15,.cls-16,.cls-6{fill:none;stroke-miterlimit:10;}.cls-6{stroke:#3d3d3d;stroke-width:4px;}.cls-7{fill:#fff;}.cls-8{fill:#e8e8de;}.cls-9{fill:#bce6d8;}.cls-10{fill:#fffcf3;}.cls-11{fill:#97ddc4;}.cls-12{fill:#878787;}.cls-13{fill:#f9f0d9;}.cls-14{stroke:#97ddc4;}.cls-15{stroke:#f9f0d9;}.cls-16{stroke:#d8d8d2;}</style></defs><path class="cls-1" d="M1692.18,550.09l368,236-479.34-190Z"/><path class="cls-2" d="M1933.28,617.42c-365-23.41-502.48-58.78-549-91.55-37.57-26.43-81.64-45.56-113.59-78.31-19-19.49-39.18-45.67-64.32-42.41-12,1.57-15.89,7.83-38.18,22.28-13.53,8.74-31.51,16.79-67.51,32.86-77.23,34.53-68.84,24.57-91.53,39.23-26.65,17.23-35.82,29.41-56,28.63-11.3-.45-16.47-4.59-48.12-25.45-30.26-19.94-60.7-38.69-91-58.31-44-28.52-35.88-22-46.55-29.69-61.17-44.05-70.2-71.45-110.85-88-9.22-3.75-16.88-5.63-27.2-15.91-21.09-20.93-21.48-44.94-39.71-58.31-8.28-6-8.62-1.43-35.57-6.36-20.28-3.71-27.88-7.71-36.61-9.54-19.2-3.92-28.79,6.12-70.6,31.8-22.68,13.95-58.72,35.92-99.39,51.95a397.49,397.49,0,0,1-41.84,13.78c-95.86,27.47-145.44,60.44-261,97.55-19.64,6.3-50.89,15.85-90,25.45V795l2002.34,19Z"/><path class="cls-3" d="M10.85,589.67H1968V827.88H-28V590.8Z"/><path class="cls-4" d="M268.65,418.47l-2.15,2.78-10.89,26.2-3.08,29.65L272,475.8a157.31,157.31,0,0,1,4.07-41.2,7.58,7.58,0,0,1,1.27-2.54,9,9,0,0,1,1.27-1.27c1.38-1.08,17.14-1.35,38.74-.63a7.9,7.9,0,0,1,5.71,3.17,7.34,7.34,0,0,1,1.27,3.81c-.78,18.25-1.23,31.69-1.27,35.56a3.52,3.52,0,0,0,.64,2.22c1.8,2.3,6.94,1.08,9.52.32V434.56A4.49,4.49,0,0,1,337,430.8h50.8a4.47,4.47,0,0,1,3.81,3.81V474h12.7v-38.6a4.42,4.42,0,0,1,3.79-4.58h47a4.57,4.57,0,0,1,2.54,1.27,4.77,4.77,0,0,1,1.27,3.81q.33,21.31.64,42.61h11.13V436.25a5.19,5.19,0,0,1,2.2-4.18,4.7,4.7,0,0,1,3.17-.63h58.42s1.27,47.88,1.91,47.43,12.12,0,12.12,0v-44c0-.2-.11-2.84,1.85-4.15a3.9,3.9,0,0,1,1.9-.63h53.34v45.16l16.51.52V433.6a4.28,4.28,0,0,1,.64-1.58,4.68,4.68,0,0,1,3.17-1.9l56.52-.64a8.27,8.27,0,0,1,6.35,3.81l17.73,41,4.43-2.14-17-36.78a3.77,3.77,0,0,1,0-3.31,3.37,3.37,0,0,1,1.27-1.27l9.52-.63a7.14,7.14,0,0,1,1.91.63,7.43,7.43,0,0,1,3.17,3.18l22.86,41.91,8.89-1.27-27.94-44.45a2.75,2.75,0,0,1-.73-1.91,3,3,0,0,1,2.54-2.54l19-4.06-9.43-8-60.31-3.4Z"/><path class="cls-5" d="M276.61,596.51c-2,1.14-3.08,3.42-3.76,19-.64,14.53.18,16,1.27,16.5,2.71,1.2,7.91-2.94,10.16-7.61,1.33-2.76.72-3.83,1.27-11.43.67-9.46,2.59-12.38,0-15.24A7.78,7.78,0,0,0,276.61,596.51Z"/><path class="cls-5" d="M608.12,592.68c3,1.84,6.23.86,11.43,0,3.61-.6,13.41-.4,33,0,29.59.6,35.54,6.2,55.88,2.54,9.4-1.7,14.15-2.62,16.51-6.35,8-12.58-11.5-49.37-41.91-59.69-30.76-10.45-68.31,7.68-77.47,31.75C601.64,571.3,600.89,588.25,608.12,592.68Z"/><path class="cls-5" d="M275.39,597.8c3.29,2.46,7.81,3,15.24,3.81a78.89,78.89,0,0,0,17.78,0c20.56-2.4,27.77,1.25,57.15-1.27,22.38-1.93,33.57-2.89,39.37-8.89,11-11.36,11.44-34.18,1.27-47-11.2-14.11-32.13-12.12-66-8.89-32.1,3-55.69,5.29-66,22.86C266.52,571.25,266.73,591.25,275.39,597.8Z"/><circle class="cls-5" cx="339.98" cy="596.55" r="41.66"/><ellipse class="cls-6" cx="339.98" cy="596.55" rx="32.09" ry="32.65"/><circle class="cls-7" cx="339.98" cy="596.55" r="22.52"/><ellipse class="cls-8" cx="342.03" cy="595.9" rx="17.4" ry="17.47" transform="translate(-23.54 14.14) rotate(-2.29)"/><circle class="cls-5" cx="667.31" cy="596.55" r="41.66"/><ellipse class="cls-6" cx="667.31" cy="596.55" rx="32.09" ry="32.65"/><circle class="cls-7" cx="667.31" cy="596.55" r="22.52"/><ellipse class="cls-8" cx="667.35" cy="596.51" rx="17.39" ry="17.46" transform="translate(-21.61 25.1) rotate(-2.12)"/><path class="cls-9" d="M248.72,482.19c-.48,4.79-1.33,6.29-1.91,9.52-3,16.85-4.42,35.06-2.54,91.44.13,3.89.34,9.84.64,17.15l22.86,1.27a8.66,8.66,0,0,0,4.44-.64,8.87,8.87,0,0,0,4.45-4.44l14-26.67a9.54,9.54,0,0,1,3.17-3.18,9.79,9.79,0,0,1,6.35-1.27l78.74.64a11.5,11.5,0,0,1,7.62,1.9,10.94,10.94,0,0,1,2.54,2.54l15.24,25.4H615.11c.81-5.59,4.4-25.45,21.59-38.1a50.68,50.68,0,0,1,15.24-7.62h28a51.07,51.07,0,0,1,18.95,10.12,52.21,52.21,0,0,1,16.51,26.67,15.56,15.56,0,0,0,6.35,10.16,15.31,15.31,0,0,0,10.14,2.54l54.61-1.27c3.15-12.65,8.86-43.09-3.81-77.47a129.06,129.06,0,0,0-26-42.54l-472.43-3.81a74.64,74.64,0,0,1-15.24,0,57.37,57.37,0,0,0-12.7,0c-2.62.29-5,.74-6.35,2.54C248.89,478.47,249,479.89,248.72,482.19Z"/><path class="cls-8" d="M258.24,438.37a116,116,0,0,0-4.08,15.88,108.24,108.24,0,0,0-1.63,16.47h1.27c2.32-15.18,2.54-16.51,2.54-16.51,1.2-7.44,3.83-18.35,10.16-33l-1.27-1.27S261.21,429.15,258.24,438.37Z"/><path class="cls-10" d="M765,470.12a225.53,225.53,0,0,0-29.88-46.32c1.24,0,4.68,0,5.72-1.91,1.25-2.27-1.15-7-7-10.79A75.68,75.68,0,0,0,718,402.8c-7.54-2.84-13.66-3.75-22.86-5.08a205,205,0,0,0-21-1.9c-70.51-1.91-128-2.76-169.54-3.18-82.09-.82-47.68.61-74.93,0,0,0-60-1.33-119.38,5.08a83.83,83.83,0,0,0-33,10.16,78.61,78.61,0,0,0-13.37,9.53l.63,4.44c-.13.29-.25.59-.38.88h13.22a6.35,6.35,0,0,1,6.35,6.35h0v33a6.35,6.35,0,0,1-6.35,6.35h-25.3c-.06.55-.12,1.12-.17,1.66a6.34,6.34,0,0,0-5.08,3.81,6.54,6.54,0,0,0,2.54,7.62q201.28-1.72,402.56,1.28,36.84.56,73.66,1.27A74.65,74.65,0,0,1,751,493c21.78,12.48,30.76,32.58,33.65,40A226.93,226.93,0,0,0,765,470.12ZM358.2,462.5a6.34,6.34,0,0,1-6.31,6.35h-49.2a6.35,6.35,0,0,1-6.35-6.35h0v-33a6.38,6.38,0,0,1,6.35-6.35h49.2a6.35,6.35,0,0,1,6.35,6.35h0Zm75.3.8a4.28,4.28,0,0,1-4.28,4.28H379.36a4.28,4.28,0,0,1-4.28-4.28V428.69a4.28,4.28,0,0,1,4.28-4.29h49.86a4.28,4.28,0,0,1,4.28,4.28h0Zm81.28,0a4.28,4.28,0,0,1-4.28,4.28H460.64a4.28,4.28,0,0,1-4.28-4.28V428.69a4.28,4.28,0,0,1,4.28-4.29H510.5a4.28,4.28,0,0,1,4.28,4.28h0Zm80,0a4.28,4.28,0,0,1-4.28,4.28H540.65a4.28,4.28,0,0,1-4.28-4.28h0V428.69a4.28,4.28,0,0,1,4.28-4.29h49.86a4.28,4.28,0,0,1,4.28,4.28h0Zm58.42,4.28H618.89V427.89a4.76,4.76,0,0,1,4.75-4.76h29.54Zm4.55,0V423.13h32.44l20.75,44.45Zm57.23,0-21.09-45.72h6.35c9.34,0,10.94,0,12.7,1.27a17.94,17.94,0,0,1,2.54,2.54,40.07,40.07,0,0,1,3.81,5.08c2,3.12,9.41,17.27,19,36.83Zm32.2,0q-14-23.81-27.94-47.62h8.41a5.56,5.56,0,0,1,2.1,1.29,5.89,5.89,0,0,1,1,1.28l27.81,45Z"/><path class="cls-10" d="M233.48,567.25c-.18-1.63-.39-3.27.63-4.45a4.67,4.67,0,0,1,5.72-.63c1.1.76,1.39,2,1.9,4.44,1.58,7.61,1.25,7.61,1.91,9.53,2.11,6.15,6,7.57,6.35,7.62a5.4,5.4,0,0,0,1.27,0c8.81-1.15,17.78,0,26.67,0a5.4,5.4,0,0,1,2.54,2.54c2.81,6.37-10.14,19-10.16,19H236s-3.52-1.39-5.08-3.81a7.48,7.48,0,0,1,0-7.62,16.75,16.75,0,0,1,3.17-3.18h0s.12-4.87,0-8.89C233.78,570.06,233.48,567.25,233.48,567.25Z"/><path class="cls-11" d="M403.66,584.8a3.61,3.61,0,0,0-3.77,3.41,2.29,2.29,0,0,0,0,.37,3.56,3.56,0,0,0,3.81,2.76H611.89a3.57,3.57,0,0,0,3.89-2.76,3.61,3.61,0,0,0-3.48-3.74h-.41Z"/><path class="cls-12" d="M774.49,520.25a5.35,5.35,0,0,0-2.54-2.54,5.12,5.12,0,0,0-3.81,0c-2.09.85-3,3-3.81,5.08a19.82,19.82,0,0,0-1.27,5.08,29.88,29.88,0,0,0,0,10.16c.59,3,1.82,9.46,6.35,11.43.25.1,3.29,1.38,5.08,0a3.85,3.85,0,0,0,1.27-2.54C776.13,544.65,778.7,527.92,774.49,520.25Z"/><path class="cls-7" d="M770.05,522.19a4.16,4.16,0,0,0-1.27,1.27,14,14,0,0,0-2.54,6.35,19.91,19.91,0,0,0,2.54,12.7c1.13,1.85,1.91,2.33,2.54,2.54,2.83,1,6.06-2.25,6.35-2.54,4.28-4.35,4.46-13.44,0-17.78C775.89,523,772.27,521,770.05,522.19Z"/><path class="cls-11" d="M330,541H295.82a1.19,1.19,0,0,1-1.17-1.17v-.36h36.49v.35A1.17,1.17,0,0,1,330,541Z"/><path class="cls-11" d="M330,536H295.82a1.17,1.17,0,0,1-1.17-1.17v-.36h36.49v.33A1.17,1.17,0,0,1,330,536Z"/><path class="cls-11" d="M330,531H295.82a1.17,1.17,0,0,1-1.17-1.17v-.36h36.49v.36A1.18,1.18,0,0,1,330,531Z"/><path class="cls-11" d="M330,526.42H295.82a1.19,1.19,0,0,1-1.17-1.17v-.36h36.49v.36A1.18,1.18,0,0,1,330,526.42Z"/><path class="cls-11" d="M330,521.06H295.82a1.17,1.17,0,0,1-1.17-1.17v-.36h36.49v.36A1.18,1.18,0,0,1,330,521.06Z"/><path class="cls-11" d="M330,516.46H295.82a1.17,1.17,0,0,1-1.17-1.17h0v-.36h36.49v.32a1.16,1.16,0,0,1-1.11,1.21h0Z"/><path class="cls-11" d="M330,511.87H295.82a1.17,1.17,0,0,1-1.17-1.17h0v-.37h36.49v.37A1.18,1.18,0,0,1,330,511.87Z"/><path class="cls-11" d="M330,506.89H295.82a1.17,1.17,0,0,1-1.17-1.17h0v-.36h36.49v.36A1.18,1.18,0,0,1,330,506.89Z"/><path class="cls-11" d="M330,501.91H295.82a1.17,1.17,0,0,1-1.17-1.17h0v-.36h36.49v.36A1.18,1.18,0,0,1,330,501.91Z"/><path class="cls-11" d="M330,496.54H295.82a1.17,1.17,0,0,1-1.17-1.15h0V495h36.49v.37a1.15,1.15,0,0,1-1.14,1.16h0Z"/><path class="cls-13" d="M263.83,417.54c0,.57,11.54.23,22.86,0,29.48-.59,92.33-1.11,96.49-1.26h0c13.29-.54-5.83.41,141-1.27,105.51.34,146.91.24,160,0,.73,0,4.2-.07,8.89,0,10.35.18,23.06.45,38.1,3.81,6.51,1.46,10.09,2.74,10.16,2.54.12-.38-12.41-6.15-27.94-8.89-7.51-1.32-12-1.28-35.56-1.27-2.63,0,1-.43-27.94,0-32.81.49-60.49-.2-120.65,0-82,.28-66.06,1.69-114.3,1.27-35.56-.3-71.12,1.6-106.68,1.27,0,0-13.91-.12-36.83,2.54C266.26,416.88,263.82,417.25,263.83,417.54Z"/><path class="cls-12" d="M534.34,497.55c-3.87-.63-4.63-.49-5.08,0-1.22,1.34,0,5.08,0,5.08h0s6.56-.77,14-.93c3.32-.08,5,0,5-.34.08-.54-3.72-1.52-7.62-2.54A61.62,61.62,0,0,0,534.34,497.55Z"/><path class="cls-11" d="M536.89,498.8c.11.14,2-2.14,5.08-2.54.5-.06,3.24-.41,5.08,1.27,2.38,2.17,1.56,6.17,1.27,7.62-1,5.08-5,7.88-6.35,8.89-2.09,1.5-4.79,3.44-7.62,2.54a6.33,6.33,0,0,1-3.81-3.81c-1.68-4.65,3-9.9,2.54-10.16s-3.22,2.39-3.81,6.35c-.12.82-.63,4.21,1.27,6.35,3.24,3.67,11.84,1.83,16.51-2.54a13.45,13.45,0,0,0,3.81-6.35c.4-1.59,1.44-5.76-1.27-8.89A8,8,0,0,0,542,495C538.64,495.74,536.76,498.68,536.89,498.8Z"/><path class="cls-11" d="M625.78,497.55c.42.44,2.6-2.16,6.35-2.54,1.1-.11,3.42-.34,5.08,1.27a5.12,5.12,0,0,1,1.27,5.08c-.91,2.85-4.34,3.64-5.08,3.81,0,0-2.93.68-8.89-1.27h0a14.58,14.58,0,0,0,6.35,3.81,9.06,9.06,0,0,0,3.81,0c1.18-.21,4.7-.87,6.35-3.81s.75-6.58-1.27-8.89c-3-3.46-8.45-3.35-11.43-1.27C626.45,495.05,625.43,497.25,625.78,497.55Z"/><path class="cls-14" d="M440.89,481c-.63,26.56-.44,53.88.72,81.9q.51,12.55,1.27,24.86"/><path class="cls-15" d="M444.17,415q-2.43,32.13-3.26,66"/><path class="cls-14" d="M525.05,481l-.24,16q-.66,46-1.27,91.91"/><path class="cls-15" d="M526.08,414.37q-.52,33.33-1,66.67"/><path class="cls-14" d="M605,481q-.13,8-.22,16c-.3,31.88.18,62.55,1.27,91.91"/><path class="cls-15" d="M607.36,414.37Q605.71,446.67,605,481"/><path class="cls-14" d="M612.44,482.25v60.37c52.69,2.18,73.27,2.21,77.47,1.27a13.12,13.12,0,0,1,6.35,0,13.62,13.62,0,0,1,8.89,7.62c3.6,7.65,4.47,14,7.62,20.32a46,46,0,0,0,5.12,7.62c10.45,12.6,36.1,9.49,40.64,8.89"/><path class="cls-16" d="M615,469a7.36,7.36,0,0,0-2.54,3.81,25.36,25.36,0,0,0,0,5.08v4.38"/><path class="cls-14" d="M749.6,489.3c1.1,4.36,2.51,10.44,3.81,17.78a272.39,272.39,0,0,1,3.81,36.83c.52,10.43.77,23.78,0,39.37"/><path class="cls-14" d="M284.79,480.41c-.73,21.44-.8,43.91,0,67.31q.48,13.57,1.27,26.67"/><path class="cls-14" d="M245.42,564.25a18.63,18.63,0,0,1,6.35,3.81c5.6,5.12,6.24,12.08,6.35,14"/><path class="cls-12" d="M250,477.11h-.14c-2.07-.08-4.83,1.07-5,2.55s2.23,3.4,2.53,3.77h0c78,0,432.6.24,465.09,1.27l1.7.06a85.62,85.62,0,0,1,32.29,7.56,77.89,77.89,0,0,1,29.21,24.13c6.47,8.83,10.3,18.26,11.43,17.78.77-.33-.44-5-1.27-7.62-4.48-14.36-14.83-23.36-20.27-27.91-2.79-2.36-15.62-13.19-29.34-15.88a204,204,0,0,0-23-2.54h0C702.89,479.14,265,477.88,250,477.11Z"/><path class="cls-10" d="M793.54,559.66c-.42,1.27-.85,2.54-1.27,3.81-1.72,0-4.37.07-7.62,0-4.62-.1-5.79-.31-7.62,0-2.24.37-5.38,1.51-8.89,5.08,0,0-2.76,3.85-2.54,14l-47-1.27a16.06,16.06,0,0,0-2.54,2.54c-1.63,2.5.82,6.82,1.27,7.62A15.21,15.21,0,0,0,725,597.8a18.37,18.37,0,0,0,7.62,1.27c6.77-.27,26.48-.16,54.61,0a12,12,0,0,0,6.35,2.54,12.31,12.31,0,0,0,1.49-.13,22.46,22.46,0,0,0,4.86-1.14V559.66Zm-10.16,22.86H772s-1.44-4.76,0-8.89a7.7,7.7,0,0,1,2.54-3.81c1.67-1.25,3.4-1.21,6.35-1.27,8.7-.18,9.57-.86,10.16,0,2.09,3.07-7.62,14-7.62,14Z"/><ellipse class="cls-12" cx="753.92" cy="510.46" rx="5.63" ry="8.53" transform="translate(-113.69 234.39) rotate(-16.45)"/><ellipse class="cls-7" cx="754.45" cy="510.6" rx="3.88" ry="5.87" transform="translate(-113.71 234.54) rotate(-16.45)"/><path class="cls-12" d="M623.23,497.25c-4.57-.74-5.48-.58-6,0-1.45,1.58,0,6,0,6h0s7.75-.91,16.59-1.11c3.93-.08,5.87,0,5.94-.39.09-.64-4.4-1.81-9-3C630.73,498.8,627.89,498,623.23,497.25Z"/></svg>
