<svg id="Layer_2" data-name="Layer 2" xmlns="http://www.w3.org/2000/svg" viewBox="0 0 1920 800"><defs><style>.cls-1{fill:#ff501a;}.cls-2{fill:#b2aead;}</style></defs><ellipse class="cls-1" cx="1292.52" cy="437.28" rx="94" ry="90.87"/><path class="cls-2" d="M1713,592l368,236L1601.66,638Z"/><path class="cls-2" d="M1653.92,643c-44.62-38-79-69.75-102.59-92.18-21.1-20-43.65-35-64.85-54.7-18.93-17.63-32.83-32.15-52.14-30-9.73,1.1-12.9,5.56-30.9,15.75-11,6.19-25.53,11.87-54.69,23.23-62.59,24.41-55.79,17.37-74.19,27.73-21.6,12.18-29,20.79-45.38,20.23-9.16-.32-13.35-3.24-39-18-24.52-14.09-49.19-27.35-73.76-41.21-35.73-20.16-29.07-15.56-37.73-21-49.6-31.15-57-50.52-89.87-62.2-7.47-2.65-13.65-3.94-22-11.24-17.1-14.77-17.39-31.77-32.23-41.22-6.7-4.28-7-1-28.82-4.5-16.42-2.62-22.61-5.47-29.67-6.74-15.57-2.78-23.36,4.33-57.23,22.48-18.35,9.85-47.59,25.39-80.54,36.72-15.08,5.19-25.7,7.69-33.92,9.75-77.69,19.4-117.85,42.72-211.53,68.92-15.91,4.46-41.24,11.2-72.9,18v238.9h1235.5Z"/><rect class="cls-2" x="-54.55" y="688.89" width="1710.03" height="346.12"/><rect class="cls-2" x="-132.63" y="504.12" width="697.45" height="357.83"/><rect class="cls-2" x="1236.24" y="742.03" width="697.45" height="299.05"/><rect class="cls-2" x="1628.34" y="659.18" width="133.59" height="299.05"/><rect class="cls-2" x="1645.69" y="697.56" width="216.87" height="290.37"/></svg>
