<svg id="sand" xmlns="http://www.w3.org/2000/svg" xmlns:xlink="http://www.w3.org/1999/xlink" viewBox="0 0 1920 800"><defs><style>.cls-1{fill:#dee2af;}.cls-2{clip-path:url(#clip-path);}.cls-3{fill:#c4c693;}</style><clipPath id="clip-path"><path class="cls-1" d="M-217,389.57c47-37.92,97.22-81.1,182.18-106.67,66.72-20.09,120.9-19.6,187.6-17.3,167.8,5.79,244.81,37.3,398,60.54,108.59,16.48,187,18.41,298.22,21.15,193.63,4.76,337.55-11.25,516.17-31.72,308.08-35.29,399.86-68.78,559.56-27.87,66.87,17.14,124.61,30.29,177.84,71.12,165.93,127.28,158.24,414,84.58,567-232.37,482.57-1581.63,589.43-2353.16,147-27.9-16-442.92-258.15-388.22-431.5C-532.68,572.83-459.82,585.39-217,389.57Z"/></clipPath></defs><path class="cls-1" d="M-217,389.57c47-37.92,97.22-81.1,182.18-106.67,66.72-20.09,120.9-19.6,187.6-17.3,167.8,5.79,244.81,37.3,398,60.54,108.59,16.48,187,18.41,298.22,21.15,193.63,4.76,337.55-11.25,516.17-31.72,308.08-35.29,399.86-68.78,559.56-27.87,66.87,17.14,124.61,30.29,177.84,71.12,165.93,127.28,158.24,414,84.58,567-232.37,482.57-1581.63,589.43-2353.16,147-27.9-16-442.92-258.15-388.22-431.5C-532.68,572.83-459.82,585.39-217,389.57Z"/><g class="cls-2"><path class="cls-3" d="M-5.24,286.11c51-13.44,77.37,1.7,184,26,77.65,17.7,230.77,31.13,537,58,199,17.46,298.55,26.2,354,27,299,4.35,556-36,556-36,198.82-31.2,289.73-66.14,362-9,62,49.05,83.74,142.32,75,191-14.16,78.91-130.62,193.75-817,259-586.92,55.8-1392.88,132.41-1484-129C-283.76,542.5-151.8,324.77-5.24,286.11Z"/></g></svg>
