<svg xmlns="http://www.w3.org/2000/svg" xmlns:xlink="http://www.w3.org/1999/xlink" viewBox="0 0 1920 800"><defs><style>.cls-1{fill:#fff;}.cls-2{fill:#b3cbcf;}.cls-3{fill:#efe0bd;}.cls-4{fill:#f2eee8;}.cls-5{opacity:0.1;}.cls-6{fill:#3faa9f;}.cls-7{fill:#4bd1c6;}.cls-8{clip-path:url(#clip-path);}.cls-9{fill:#f79a9f;}.cls-10{clip-path:url(#clip-path-2);}.cls-11{fill:#fcc;}.cls-12,.cls-16,.cls-23{fill:#c9a27b;stroke:#c9a27b;}.cls-12,.cls-13,.cls-14{stroke-width:1.04px;}.cls-12,.cls-13,.cls-14,.cls-15,.cls-16,.cls-17,.cls-18,.cls-19,.cls-20,.cls-21,.cls-22,.cls-23,.cls-24,.cls-25,.cls-26,.cls-27,.cls-28,.cls-29{fill-rule:evenodd;}.cls-13,.cls-20,.cls-27{fill:#a7c83e;stroke:#a7c83e;}.cls-14,.cls-19,.cls-26{fill:#bad040;stroke:#bad040;}.cls-15{fill:#76b25d;}.cls-16,.cls-17,.cls-18,.cls-19,.cls-20,.cls-21,.cls-22{stroke-width:1.19px;}.cls-17,.cls-24{fill:#c3d444;stroke:#c3d444;}.cls-18,.cls-25{fill:#c2d344;stroke:#c2d344;}.cls-21,.cls-28{fill:#a3c63b;stroke:#a3c63b;}.cls-22,.cls-29{fill:#bbd041;stroke:#bbd041;}.cls-23,.cls-25,.cls-26,.cls-27,.cls-28,.cls-29{stroke-width:0.97px;}.cls-24{stroke-width:0.96px;}.cls-30{fill:none;}.cls-31{fill:#ed7e69;}.cls-32{fill:#bce6d8;}.cls-33{fill:#feecd4;}.cls-34{fill:#f7e484;}.cls-35{clip-path:url(#clip-path-3);}.cls-36{fill:#98adaf;}.cls-37{opacity:0.5;isolation:isolate;}.cls-38{fill:#d38d5f;}.cls-39{fill:#deaa87;}.cls-40{fill:#ffe6d5;}</style><clipPath id="clip-path"><polygon class="cls-1" points="769.18 513.97 769.18 520 621.34 546.28 618.2 539.28 769.18 513.97"/></clipPath><clipPath id="clip-path-2"><path class="cls-1" d="M769.18,514c-34.62-6.8-53-27.46-60.82-35.48-23.19-23.8-29.14-30.41-45-71.59-2.76-7.18-20.91-81.09-20.91-81.09l-117.84,7.6c-3,19.72-1.68,43.74,4.44,72.86,18.18,86.57,66.12,124.85,84.89,136.84Z"/></clipPath><clipPath id="clip-path-3"><path class="cls-2" d="M363.93,635c5-9.57-7.27-25.35-11.06-30.24-12.73-16.36-20.81-13.44-33.19-28.76-11.75-14.54-7.79-21.3-18.43-31-3.17-2.88-11-9.1-37.61-12.54-23.4-3-43-5.56-67.84,2.22-11.09,3.47-40,13-60.47,42-10.76,15.27-22.27,31.61-17.7,46.46,5.06,16.47,27.21,22.29,222.7,19.91C346.35,643,359.89,642.7,363.93,635Z"/></clipPath></defs><g id="green"><path class="cls-3" d="M1914.52,321a507.33,507.33,0,0,1-147.46,90.64c-29.44,11.78-111.78,41.68-378.62,44.52-61.94.66-115.89-.33-197.29-3.18-280.52-9.82-311.44-21.59-463.31-24.64-212-4.27-378.74,14.1-459.33,24.64a2855,2855,0,0,0-338.77,65.2V817.33l2074.46-17.7L1966,321Z"/><path class="cls-4" d="M1911.89,392.65a1048.77,1048.77,0,0,1-175.36,64.4c-179.16,48.37-305.11,32.48-639.68,11.13-444.33-28.35-557-21.69-642.66-12.72-160.58,16.81-289.64,48.38-321.83,56.45a2184.33,2184.33,0,0,0-233.15,72.35L-111.56,764C135,804.32,321.12,787.46,446.8,764,565.23,741.79,589,721.4,760.08,682.06c177.3-40.76,309.53-55.12,511.14-76.33,170.37-17.92,395.26-36.29,663.59-43.73h67.75l-20.92-174.92Z"/><path class="cls-5" d="M490.1,555.47C504,532,586.4,531.39,661.79,550.4,735.55,569,796.54,593.81,788.5,617.55s-114.84,25.66-186.89,1.27S477.29,577,490.1,555.47Z"/><polygon class="cls-6" points="787.55 508.9 788.18 520.94 633.6 538.04 634.24 531.71 787.55 508.9"/><polygon class="cls-7" points="793.96 604.43 783.13 610.06 637.68 324.63 648.51 319 793.96 604.43"/><polygon class="cls-1" points="769.18 513.97 769.18 520 621.34 546.28 618.2 539.28 769.18 513.97"/><g class="cls-8"><polygon class="cls-9" points="664.87 530.12 668.32 543.9 699.5 538.04 691.25 519.67 667.81 523.47 664.87 530.12"/><polygon class="cls-9" points="709.63 521.57 713.43 534.88 753.34 525.37 736.87 512.7 709.63 521.57"/></g><rect class="cls-7" x="714.69" y="544.78" width="6.93" height="138.26" transform="translate(301.01 1461.63) rotate(-104.32)"/><rect class="cls-6" x="587.35" y="464.32" width="6.93" height="138.26" transform="translate(220.13 1237.88) rotate(-104.32)"/><polygon class="cls-7" points="558.84 425.27 565.81 432.88 529.07 553.88 518.93 555.78 558.84 425.27"/><polygon class="cls-6" points="693.06 412.11 698.61 420.8 641.44 533.61 631.13 533.72 693.06 412.11"/><path class="cls-1" d="M769.18,514c-34.62-6.8-53-27.46-60.82-35.48-23.19-23.8-29.14-30.41-45-71.59-2.76-7.18-20.91-81.09-20.91-81.09l-117.84,7.6c-3,19.72-1.68,43.74,4.44,72.86,18.18,86.57,66.12,124.85,84.89,136.84Z"/><g class="cls-10"><path class="cls-11" d="M703.92,534.88c-7-5.74-45.61-33.58-64.62-60.82-14.2-20.36-19.78-37.2-31-72.23-2.43-7.56-16.47-80.46-16.47-80.46l-23.44.64c3.59,20.06,10.16,52,17.17,81.29,20.83,87.05,80.45,126.69,86,138.22Z"/><path class="cls-11" d="M650.54,540.1c-7-5.74-43.4-42.13-55.59-63.13-12.46-21.47-24.13-55.16-29.3-79.6C564,389.6,559.8,369,553.2,341.11c-.92-3.89-1.69-7.08-2.21-9.22l-1.4-5.58-19.66,1.18c3.6,20.07,9.27,48.91,16.27,78.19,20.84,87.05,73.49,128.61,79,140.14Z"/><path class="cls-11" d="M758.41,526.64c-7-5.74-45-20.95-70.32-50.05-16.29-18.74-33.48-56.65-38.65-81.09-1.65-7.77-6.7-25.29-13.3-53.22-.93-3.89-2-9.9-2.54-12l-2.53-14.57-23.44-4.43c3.59,20.06,13.57,76.09,23.44,104.53C663.38,508.9,721.22,526.52,726.73,538Z"/></g><rect class="cls-7" x="582.6" y="313.89" width="11.18" height="344.4" transform="translate(-147.48 283.5) rotate(-24.17)"/><polygon class="cls-7" points="669.08 531.71 669.71 543.75 515.13 560.85 515.76 554.51 669.08 531.71"/><path class="cls-5" d="M805.45,557.27c8.68-14.92,48.71-17.81,83.74-8.34,34.27,9.27,61.83,22.78,56,37.71s-57.84,19.35-90.81,6.45S797.47,571,805.45,557.27Z"/><path class="cls-12" d="M1718.7,258.92h-1l-6.29,3-6.28,3.05h1l0,2.08-1.07,2.07-1,1v1l-12.81,26.93a485,485,0,0,0-20.34,48.7q-7.55,21.78-8.58,21.77a3,3,0,0,0-1.06,2.07l0,4.16q0,4.17-4.31,12.44-4.27,9.33-5.33,10.35c-1.4,1.38-2.45,1.71-3.13,1h-1v1c-.7,0-1.06,1-1.08,3.11l0,3.12-1,1v1l2.09-1q2.1-1,3.12,0,1.05,0-2.28,17.68l-4.38,18.69,0,4.16-4.52,31.19a494.79,494.79,0,0,0-4.9,63.45,430.82,430.82,0,0,0,2.49,55.21q2.85,24,2.83,25l0,2.09,15.62.18,0-3.13q-1-3.13-2.87-21.89-1.86-19.81-2.48-56.26-.63-35.4,1.67-54.12t4.52-31.18l2.24-13.51,0-3.13q0-4.16,3.32-17.66l3.28-13.5,0-2.08a9.15,9.15,0,0,1,1.09-4.15l1-1c0-.69.71-1.38,2.11-2.06l1-1c-.69-.7-.32-2.08,1.09-4.15l1.07-3.11h-1l-1-1.06,1,0,.09-8.33,1.07-2.07,2.1-2.06,1.07-2.07.11-9.37q0-3.12,3.24-10.37l3.21-7.26,0-3.12,1.06-1,1.06-2.07,0-2.08q0-1,8.58-21.77a348.16,348.16,0,0,1,19.2-39.34l8.54-18.64,1.06-1a3,3,0,0,0,1.06-2.07.92.92,0,0,1,1.05-1,3,3,0,0,0,1.07-2.07l1-1-3.14,2Q1719.74,258.94,1718.7,258.92Z"/><path class="cls-13" d="M1761.44,163.62q-4.11-4.22-11.33-10.54a163.36,163.36,0,0,0-19.63-12.72q-12.45-4.31-29.06-8.67T1653.58,127l-30.19-.35,0,2.08,4.16,0,1,1.05,2.07,1.07,16.6,5.4q15.55,5.39,16.58,6.43a3,3,0,0,0,2.07,1.07h1l1,1.05,1,1.06h1l1,1.05,1,1.06h1l-1,1-1,1-5.21-.06-25.07,7q-24,7-34.49,11.06-9.4,4-10.45,4l-1.06,1-1,1-2.08,0-1.06,1-35.79,14.5,64.69,7.7q29.08,6.57,41.57,6.72a109.25,109.25,0,0,0,18.72,2.3l7.28.08v1l-1,1,0,2.09-1,0v1.05l-1,0v1l-15.89,23.77q-15.9,24.81-21.18,31-6.32,5.13-7.36,6.16l-1.06,1h-1v1h-1v1l-2.08,0,0,1h-1v1l6.25.07,25-4.92q26.08-4.91,29.21-4.87,3.15-2,4.19-2h1l1-1,2.1-1,3.12,0,6.28-3.05,6.29-3h1a7.93,7.93,0,0,0,3.13-1l2.1-1,1-1v-1h2.08l2.11-2.06,3.14-1v-1h1l0-2.08,0-2.09.09-8.32a46.06,46.06,0,0,1,4.26-8.28q2.13-4.14,3.27-12.46a57.63,57.63,0,0,1,4.33-14.53,15.93,15.93,0,0,1,10.51-8.21q7.3-2,8.37-4.07c.72-2.07,1.08-2.76,1.07-2.07a.92.92,0,0,0,1,1.06h1v-1l0-2.08a3,3,0,0,1,1.06-2.07,1.85,1.85,0,0,0,2.11-2.06q-1-3.14-3-8.37l-2-4.18-1-1.06v-1A30.83,30.83,0,0,1,1761.44,163.62Z"/><path class="cls-13" d="M1780.82,199.25h1l10.4,1.16q10.4,1.16,11.43,1.17l1,1,1,1.06,3.13,0,12.43,5.35a130,130,0,0,1,21.74,10.67,94.43,94.43,0,0,0,11.37,7.41,41.09,41.09,0,0,1,5.13,6.31c.68,1.4,1.37,2.1,2.06,2.11v1l-2.08,0c-2.09,0-3.48.31-4.18,1q-1.06,2.07-3.12,0-3.13,0-6.31,5.13-2.15,5.19-3.18,5.17c-.7,0-1.06,1.73-1.1,5.2l-.06,5.2h-1l0,1h-1v-1h-1l0-1-1,0,0-2.08h-1v-1h-1V253l-8.24-7.38-6.15-8.4h-1l0-1h-1l0-1-1,0v-1h-1v-1h-1v-1l-1,0,0-2.08,0,4.17h1l0,1h1l0,2.08,1,0v1h1l8.15,15.71q10.24,14.7,14.26,27.24a69.16,69.16,0,0,1,2.81,27.1,127.59,127.59,0,0,1-5.54,29.09,155.4,155.4,0,0,1-13.81,23.79q-7.4,9.28-16.88,19.58-9.47,8.23-15.77,13.36-7.35,5.12-8.39,5.11h-1l-1.06,1-1,1-2.08,0-1,1-2.1,1,.05-4.17h1v-1l1,0,0-1.05q0-2.07,5.36-13.47l5.33-11.39,0-4.17,1.07-2.07q1.05-1,3.41-24.95,4.44-23.89,4.81-56.16l.36-31.24-1-2.09a17.31,17.31,0,0,1-1-5.22l0-2.08h-1.05a.91.91,0,0,1-1,1l0-4.17q.06-5.21-4-12.54T1782.68,218q-3.09-3.16-3.07-4.2v-1l-1-1.06v-1l1.05-1,2.09,0h1l1-1,1.05-1h1l-1-1c-.7,0-1.38-.71-2.06-2.11l-1-3.13-2.08,0v-1l1,0Zm29.86,28.45h1a.91.91,0,0,1-1,1Z"/><path class="cls-14" d="M1770.79,165.81a6.05,6.05,0,0,1-4.19,2l-2.08,0,0,2.08a.93.93,0,0,0,1,1.06c.7,0,1.71,2.45,3,7.32q2,6.27-.07,6.25l-2.11,2.05,0,2.09h1v1l1,1.05c.69.7,1,2.44,1,5.22a47.62,47.62,0,0,1-1.15,9.36l-.06,5.2h1l1.06-1,2.08,0,1.05-1,1-1h1l3.13,0,3.12,0,0,2.08h1l1-1,1.05-1h1l0-3.12-2.08,0a3,3,0,0,1-2.07-1.07l0-2.08-2.08,0v-1l1,0,0-1h1l10.4,1.16q10.4,1.16,11.43,1.17l1.06-1,0-3.12q0-2.08-2-5.23c0-2.08-1.69-4.18-5.13-6.31s-6.55-3.89-9.31-5.31q-3.1-2.11-5.12-7.35-1-5.22-3-7.32l-2.06-2.11-2.08,0A7.08,7.08,0,0,0,1770.79,165.81Z"/><path class="cls-15" d="M1855.34,237.59q-1.06,2.07-3.12,0-3.13,0-6.31,5.13-2.15,5.19-3.18,5.17c-.7,0-1.06,1.73-1.1,5.2l-.06,5.2h-1l0,1,12.27,19.93a272.77,272.77,0,0,1,21.43,37.73q8.11,17.79,10.12,25.1a68.63,68.63,0,0,0,3,9.41l1,2.09,0,3.12,1,2.1v1l2.08,0,.08-6.24q1.11-6.24.33-29.15a360.43,360.43,0,0,0-2.7-36.48A128,128,0,0,0,1879,261.81,112.29,112.29,0,0,0,1867.76,244l-6.16-7.36-2.08,0C1857.43,236.57,1856,236.9,1855.34,237.59Z"/><path class="cls-15" d="M1774.94,257.48q-2.2,10.39-4.38,18.7l-.12,10.41v1l-1.06,1,0,2.08,2.08,0v1l1,1.06v1h1v-1h1v-1h1l0-1h1v-1h1v-1h1l5.33-10.35a81.26,81.26,0,0,0,7.54-21.77l2.21-11.43,0-4.17q.06-5.21-4-12.54T1782.68,218q-3.09-3.16-3.07-4.2v-1l-1-1.06v-1l1.05-1,2.09,0,0-2.08-4.16-.05-.24,20.82Q1777.12,248.15,1774.94,257.48Z"/><path class="cls-13" d="M1764.25,190.72q-1.07,2.09-8.37,4.07a15.93,15.93,0,0,0-10.51,8.21,57.63,57.63,0,0,0-4.33,14.53q-1.14,8.31-3.27,12.46a46.06,46.06,0,0,0-4.26,8.28l-.09,8.32c0,2.09-.39,3.47-1.09,4.16v1l2.08,0q1,0-7.71,36.35-10.82,35.28-13,41.5c-2.83,4.13-4.24,6.55-4.25,7.24l0,2.08h-1v1h-1l0,2.08,7.28.09v1h1v1l2.08,0,1.06-1,1-1h1l1.05-1,1.06-1h1v-1h1v-1h-1a.93.93,0,0,1-1-1.05h-1l-1,1-1,0,0-2.08h1l1.06-1,1-1,1,0,1.05-1,1.06-1h1q1,0,15.73-10.23a233.91,233.91,0,0,0,23.13-19.52l9.49-10.3h-1a3,3,0,0,1-2.09,1,.92.92,0,0,1-1-1.06v-1l-2.08,0,0-2.08,1.06-1v-1l.12-10.41q2.18-8.31,4.38-18.7,2.19-9.35,2.42-29.12l.24-20.82,3.12,0-2.08,0-3.13,0h-1l-1,1-1.05,1-2.08,0-1.06,1h-1l.06-5.2a47.62,47.62,0,0,0,1.15-9.36c0-2.78-.29-4.52-1-5.22l-1-1.05-1-1.05-1,0C1765.33,188,1765,188.65,1764.25,190.72Z"/><path class="cls-16" d="M1455.68,185.64l1.18-.19,7.62,2.4,7.62,2.41-1.18.19.37,2.35,1.56,2.16,1.36,1,.19,1.18,19,28.33a552,552,0,0,1,31.16,51.72q12.17,23.4,13.35,23.21a3.45,3.45,0,0,1,1.55,2.16l.75,4.71q.75,4.69,7,13.36,6.39,9.84,7.76,10.83,2.71,2,3.71.61l1.18-.19.19,1.18c.78-.12,1.36,1,1.73,3.34l.57,3.53,1.36,1,.19,1.18-2.54-.81c-1.7-.53-2.87-.34-3.53.57q-1.18.18,5.54,19.62,8.07,20.41,8.08,20.42l.75,4.71,10.32,34.53a567.65,567.65,0,0,1,16.14,71q5.63,35.28,6.4,62.9t1,28.79l.38,2.35L1588.69,589l-.56-3.53q.61-3.72-.41-25.27-1.2-22.73-6.59-64.08-5.19-40.17-10.92-61t-10.33-34.54l-4.78-14.92-.57-3.53q-.75-4.7-6.71-19.43l-6-14.73-.37-2.35a10.49,10.49,0,0,0-1.93-4.52l-1.36-1c-.13-.78-1-1.44-2.73-2l-1.36-1q1-1.37-1.93-4.51l-1.74-3.35,1.18-.18,1-1.37-1.18.19-1.5-9.41-1.55-2.16-2.72-2-1.56-2.17-1.68-10.58q-.57-3.54-5.41-11.2l-4.84-7.67-.56-3.53-1.36-1-1.55-2.17-.38-2.35q-.18-1.17-13.34-23.2a396.88,396.88,0,0,0-28.3-41.33l-12.78-19.67-1.36-1a3.47,3.47,0,0,1-1.56-2.16,1,1,0,0,0-1.36-1,3.44,3.44,0,0,1-1.55-2.17l-1.36-1,3.9,1.79C1453.2,185.23,1454.9,185.76,1455.68,185.64Z"/><path class="cls-17" d="M1391.39,84.92q4-5.46,11.06-13.83a189.18,189.18,0,0,1,20.1-17.67q13.37-7,31.44-14.66t53.36-13.33L1541.46,20l.37,2.35-4.7.75-1,1.37L1534,26l-17.88,8.88Q1499.38,43.58,1498.4,45a3.43,3.43,0,0,1-2.17,1.55l-1.18.19-1,1.36-1,1.37-1.18.19-1,1.36-1,1.36-1.17.19,1.36,1,1.36,1,5.88-.94,29.55,3.74q28.36,3.91,40.87,6.75,11.34,3,12.52,2.83l1.36,1,1.36,1,2.36-.37,25.82,10.11-21.65,8.52-31.81,12.3q-31.82,12.31-45.93,14.56A124.37,124.37,0,0,1,1491,119.7l-8.24,1.31.19,1.18,1.36,1,.38,2.35,1.18-.19.18,1.18,1.18-.19.19,1.18,22,24.24q22.14,25.42,29.15,31.54,8,4.76,9.36,5.75l1.36,1,1.18-.19.18,1.18,1.18-.19L1552,192l2.35-.37.19,1.18,1.17-.19.19,1.17-7.06,1.13-29.16-1.38q-30.35-1.2-33.88-.64c-2.6-1.19-4.29-1.73-5.08-1.6l-1.17.19-1.37-1-2.54-.8-3.52.56-7.62-2.41-7.62-2.4-1.18.19A9.2,9.2,0,0,1,1452,185l-2.54-.8-1.36-1-.19-1.17-1.17.18-1.18.19-2.73-2-3.71-.61-.19-1.18-1.18.19-.37-2.35-.38-2.35-1.5-9.41a53,53,0,0,0-6.2-8.67q-3.1-4.32-5.78-13.55a66,66,0,0,0-7.33-15.72,18.17,18.17,0,0,0-13.26-7.53c-5.74-.7-9.12-1.76-10.16-3.21-1.16-2.23-1.67-3-1.55-2.16a1,1,0,0,1-1,1.36l-1.17.19-.19-1.18-.38-2.35a3.43,3.43,0,0,0-1.55-2.17,2.09,2.09,0,0,1-2.72-2c.4-2.48,1.08-5.8,2-10l1.61-5.08,1-1.36-.19-1.18A35.47,35.47,0,0,0,1391.39,84.92Z"/><path class="cls-18" d="M1375.6,129.65l1.17-.19.19,1.18-2.35.37-.61,3.72c-.54,1.69-1.2,2.6-2,2.72l-1,1.37,1.18-.19,1.36,1,1.36,1,1.18-.19,2.35-.37,1.37,1,.18,1.18-1,1.36.19,1.18c.13.79-.8,2.54-2.78,5.27s-4.1,7.08-6.36,13.07S1367,174,1367.62,178l.75,4.7a1.05,1.05,0,0,1-1.37-1l-1.17.19.37,2.35a19.58,19.58,0,0,1-.24,6.07l-.8,2.54,5.62,35.29q5.82,36.46,14.83,62.77,6.66,26.67,8,27.67l1.55,2.16.75,4.71,8,12q7.93,12,8.31,14.35l.19,1.18,1.18-.19.19,1.18,1.17-.19.75,4.7-2.54-.8-1.36-1-2.35.38-1.37-1-1.36-1-1.18.19q-1.17.18-10.34-4.38-8-4.75-20.09-12.48-12.45-10.08-22.38-19.35a178.37,178.37,0,0,1-19.6-24.62,146.4,146.4,0,0,1-11.13-32,79.21,79.21,0,0,1-1.34-31.14q2.46-14.86,11.6-33.21l6.59-19.14,1.18-.19-.19-1.18,1.18-.18-.38-2.36,1.18-.18-.19-1.18,1.18-.19-.75-4.7.37,2.35-1.17.19.19,1.17-1.18.19.19,1.18-1.18.18.19,1.18-1.18.19.19,1.17-1.18.19.19,1.18-1.18.18-5.55,10.54-8.1,9.73.19,1.18-1.18.19.19,1.17-1.18.19.37,2.35-1.17.19.19,1.18-1.18.18.19,1.18-1.18.19-.19-1.18-1.17.19-.94-5.88c-.62-3.92-1.33-5.82-2.11-5.7s-2.28-1.65-4.47-5.32q-4.47-5.31-8-4.75c-1.32,1.82-2.5,2-3.53.56q-1.37-1-4.89-.43l-2.36.38-.18-1.18c.78-.12,1.44-1,2-2.73a47.8,47.8,0,0,1,4.76-8,107.42,107.42,0,0,0,11.63-10.3,148.42,148.42,0,0,1,22.82-15.69l13.18-8.13,3.53-.57,1-1.36,1-1.36q1.17-.19,12.75-3.24l11.58-3.05,1.17-.19Zm-29,37.19a1.05,1.05,0,0,1-1.37-1l1.18-.19Z"/><path class="cls-19" d="M1381.18,89a6.85,6.85,0,0,0,5.08,1.6l2.35-.38.37,2.36a1,1,0,0,1-1,1.36q-1.18.19-2.22,8.8-1.23,7.42,1.12,7l2.73,2,.37,2.35-1.17.19.19,1.18-1,1.36q-1,1.36-.24,6.07a55.14,55.14,0,0,0,2.86,10.4l.94,5.88-1.18.19-1.36-1-2.35.37-1.37-1-1.36-1-1.18.18-3.53.57-3.53.56.38,2.35-1.18.19-1.36-1-1.36-1-1.18.19-.56-3.53,2.35-.38a3.39,3.39,0,0,0,2.16-1.55l-.37-2.35,2.35-.37-.19-1.18-1.17.19-.19-1.18-1.17.19-11.58,3.05q-11.58,3-12.75,3.24l-1.37-1-.56-3.53c-.25-1.57.22-3.65,1.42-6.26q-.57-3.53,4.75-8t9.65-7.57q3.17-2.91,4.57-9.17.24-6.07,2.22-8.8l2-2.72,2.35-.38A8.11,8.11,0,0,1,1381.18,89Z"/><path class="cls-20" d="M1297.47,184.31c1,1.44,2.21,1.26,3.53-.56q3.52-.57,8,4.75c2.19,3.67,3.68,5.45,4.47,5.32s1.49,1.78,2.11,5.7l.94,5.88,1.17-.19.19,1.18L1307.32,231a312.23,312.23,0,0,0-18,46.29q-6.22,21.5-7.26,30.1a78.7,78.7,0,0,1-1.85,11.15l-.8,2.54.57,3.53-.81,2.54.19,1.17-2.35.38-1.13-7.06q-2.3-6.87-5.24-32.93t-3-41.74a145.33,145.33,0,0,1,7.07-31.28q5-14.05,9.76-22l5.74-9.36,2.36-.38Q1296.11,183.33,1297.47,184.31Z"/><path class="cls-21" d="M1391.79,193.4q4.23,11.4,8.08,20.43l1.87,11.76.19,1.18,1.36,1,.38,2.36-2.36.37.19,1.18-1,1.36.19,1.18-1.18.19-.18-1.18-1.18.19-.19-1.18-1.17.19-.19-1.18-1.18.19-.19-1.18-1.17.19-.19-1.18-1.18.19L1385,218.62a92.83,92.83,0,0,1-12.17-23.39l-4.41-12.57-.75-4.7q-.94-5.88,2.45-14.87t6.36-13.07c2-2.73,2.91-4.48,2.78-5.27l-.19-1.18,1-1.36-.18-1.18-1.37-1-2.35.37-.38-2.35,4.71-.75,3.75,23.52Q1387.75,183.19,1391.79,193.4Z"/><path class="cls-22" d="M1392.73,116.06c1,1.45,4.42,2.51,10.16,3.21a18.17,18.17,0,0,1,13.26,7.53,66,66,0,0,1,7.33,15.72q2.68,9.22,5.78,13.55a53,53,0,0,1,6.2,8.67l1.5,9.41q.57,3.53,1.93,4.51l.19,1.18-2.36.37q-1.17.19,14.8,39.86,18.13,38.12,21.61,44.8,5.82,6.31,6,7.49l.37,2.35,1.18-.19.18,1.18,1.18-.19.37,2.35-8.23,1.31.19,1.18-1.18.19.19,1.17-2.35.38-1.37-1-1.36-1-1.18.19-1.36-1-1.36-1-1.18.19-.19-1.18-1.17.19-.19-1.18,1.18-.18a1.05,1.05,0,0,0,1-1.37l1.18-.18,1.36,1,1.18-.18-.37-2.36-1.18.19-1.36-1-1.37-1-1.17.19-1.37-1-1.36-1-1.18.19q-1.17.19-19.52-9a269.37,269.37,0,0,1-29.43-18.23l-12.46-10.07,1.17-.19a3.41,3.41,0,0,0,2.54.8,1,1,0,0,0,1-1.36l-.19-1.18,2.36-.37-.38-2.36-1.36-1-.19-1.18-1.87-11.76q-3.86-9-8.08-20.43-4.05-10.2-7.6-32.56l-3.75-23.52-3.53.56,2.35-.37,3.53-.57,1.18-.18,1.36,1,1.37,1,2.35-.37,1.36,1,1.18-.19-.94-5.88a55.14,55.14,0,0,1-2.86-10.4q-.75-4.71.24-6.07l1-1.36,1-1.37,1.18-.18C1391.06,113.11,1391.57,113.83,1392.73,116.06Z"/><path class="cls-23" d="M418.66,250.5l2.93-1.62-1,.89a3,3,0,0,1-1.13,1.92c-.6-.11-.94.19-1,.88a3,3,0,0,1-1.13,1.92l-1,.88L407,272.8a350.63,350.63,0,0,0-20.64,36.63q-9.54,19.5-9.66,20.54l-.24,2.07L375.3,334l-1,.88-.35,3.11-3.52,6.8q-3.53,6.79-3.88,9.91L365.47,364l-1.14,1.92-2,1.76-1.13,1.92-.95,8.29-.9-.15.78,1.19.9.15-1.25,3c-1.44,1.87-1.89,3.2-1.37,4l-1,.89c-1.27.48-1.95,1.07-2,1.76l-1,.89a10,10,0,0,0-1.38,4l-.23,2.07-4.23,13q-4.23,13-4.71,17.16l-.35,3.11-3.34,13.17q-3.21,12.14-7.14,30.48t-7.06,53.76q-3.25,36.43-3.71,56.44-.33,19,.2,22.23L322,608.1l-13.45-2.31.24-2.07q.12-1,.15-25.34A501.77,501.77,0,0,1,312.55,523a564.92,564.92,0,0,1,10.82-62.62l7.14-30.48.47-4.15s1.91-6,5.72-18q4.71-17.18,3.81-17.32c-.52-.79-1.41-.95-2.69-.46l-1.91.73.12-1,1-.88.36-3.11c.24-2.08.65-3.06,1.25-3l.12-1,.9.16c.52.79,1.45.6,2.81-.58q1-.89,5.66-9.59,4.55-7.68,5-11.83l.48-4.15a3,3,0,0,1,1.13-1.92q.9.17,9.66-20.54a502.31,502.31,0,0,1,22.6-45.8l13.84-25.11.12-1,1-.89,1.13-1.92.24-2.07-.9-.15,5.74-2.19,5.73-2.19.9.15C415.43,252.06,416.71,251.57,418.66,250.5Z"/><path class="cls-24" d="M466.69,164.8l-.08,1,.8,1.16,1.43,4.4q1.35,5.43,2,8.67c-.11,1.39-.75,2-1.92,1.85a3,3,0,0,0-1,2l-.16,2.08-.08,1-.88-.12c-.59-.08-.85-.46-.8-1.16s-.29,0-1,2c-.69,1.3-3.14,2.38-7.35,3.21a13.17,13.17,0,0,0-9.43,7.14,63.45,63.45,0,0,0-4.64,14.1q-1.53,8.21-3.61,12.13a47.07,47.07,0,0,0-4.16,7.85l-.64,8.32-.16,2.08-.17,2.08-.87-.12-.09,1-2.71.69-1.92,1.84-.88-.12-.88-.11-.08,1-1,.92-1.83.8a5.76,5.76,0,0,1-2.72.69l-.88-.12-5.51,2.41L409.91,256l-2.64-.36-1.84.81-.95.92-.88-.12c-.59-.08-1.81.46-3.68,1.61q-2.64-.36-25,1.89l-21.48,2.37-5.27-.71.08-1,.88.12.08-1,1.75.24.09-1,.87.12.08-1.05.88.12,1-.92q1-.91,6.64-5.41,4.88-5.66,20-28.85l15-22.16.08-1,.88.12.08-1,.88.12.16-2.08,1-.92.08-1-6.15-.83a80.88,80.88,0,0,1-15.65-4.21q-10.54-1.41-34.65-11l-51.61-11.07,28.71-14.08,1-.92,1.76.23,1-.92,1-.92q.87.12,9.1-3,9.11-3,29.88-7.55l21.64-4.45,4.4.59,1-.92.95-.92-.87-.12-.8-1.16-.8-1.16-.88-.12L386.7,132l-.8-1.16-.88-.12a2.6,2.6,0,0,1-1.68-1.28q-.79-1.15-13.57-8.13l-13.65-7.09-1.67-1.27-.8-1.16-3.51-.47.16-2.09,25.47,3.43q26.36,3.54,40.08,9.59t23.95,11.63a149.18,149.18,0,0,1,15.72,14.72q5.67,7.08,8.86,11.71A34.14,34.14,0,0,0,466.69,164.8Z"/><path class="cls-25" d="M474.61,200.9l.89.15,8.85,2.57q8.85,2.58,9.74,2.73l.78,1.19.78,1.19,2.69.46,10.16,7a115.15,115.15,0,0,1,17.64,13.6,88.55,88.55,0,0,0,9,9,45,45,0,0,1,3.77,7c.44,1.49,1,2.28,1.55,2.39l-.11,1-1.8-.31c-1.79-.3-3-.16-3.7.43-.76,1.28-1.65,1.12-2.69-.47-1.79-.3-3.79,1.12-6,4.27q-2.38,4.87-3.29,4.72c-.59-.1-1.09,1.57-1.48,5l-.6,5.18-.89-.15-.12,1-.9-.15.12-1-.9-.15.12-1-.89-.15.23-2.07-.89-.16.11-1L516,263l.12-1-6.35-8.49-4.43-9.22-.89-.15.11-1-.89-.15.12-1-.9-.15.12-1-.9-.15.12-1-.9-.15.12-1-.89-.15.23-2.08-.47,4.15.9.15-.12,1,.89.15-.23,2.08.89.15-.12,1,.9.15,5.4,16.78q7.3,16,9.47,29.11a80.39,80.39,0,0,1-.4,27.41,141.15,141.15,0,0,1-7.8,28.26,151.8,151.8,0,0,1-14.38,21.85q-7.33,8.25-16.59,17.23-9,6.92-15,11.17-6.87,4.11-7.77,4l-.89-.16-1,.89-1,.88-1.8-.31-1,.88-1.91.73.47-4.14.9.15.12-1,.89.16.12-1q.24-2.07,6-12.71L463,374.37l.47-4.15,1.14-1.92q1-.89,5.53-24.42,6.32-23.22,10-55.36l3.55-31.1-.66-2.23a19.91,19.91,0,0,1-.3-5.34l.24-2.07-.9-.15c-.08.69-.42,1-1,.88l.47-4.15q.59-5.18-2.16-13.05a57,57,0,0,0-5.09-11.45q-2.34-3.57-2.22-4.6l.12-1-.78-1.19.12-1,1-.88,1.8.31.89.15,1-.88,1-.88.9.15-.78-1.19c-.6-.1-1.11-.9-1.55-2.38l-.54-3.27-1.8-.3.12-1,.9.15Zm22.79,32.45.9.15c-.08.69-.42,1-1,.88Z"/><path class="cls-26" d="M474.15,164.88l1.8.31,1.55,2.38q1.56,2.38,1.86,7.72,1.2,5.49,3.65,8c2.24,1.8,4.73,4,7.48,6.57s4,4.92,3.77,7a11.59,11.59,0,0,1,1.2,5.49l-.35,3.11-1,.88q-.9-.15-9.74-2.73l-8.85-2.57-.89-.15-.12,1-.9-.15-.12,1,1.8.3L475,205.2a2.67,2.67,0,0,0,1.67,1.34l1.8.31-.36,3.11-.9-.15-1,.88-1,.88-.89-.15.23-2.08-2.69-.46-2.69-.46-.89-.15-1,.88-1,.88-1.79-.3-1,.88-.9-.15.6-5.19a55,55,0,0,0,2-9.17c.32-2.77.21-4.55-.3-5.34l-.78-1.19.12-1-.9-.15.24-2.08,2-1.76q1.78.3.71-6.22c-.64-5-1.26-7.62-1.86-7.72s-.86-.5-.78-1.19l.24-2.07,1.79.3a4.68,4.68,0,0,0,3.82-1.45A5.45,5.45,0,0,1,474.15,164.88Z"/><path class="cls-27" d="M538.59,248.86l1.8.31,4.55,8.18a124,124,0,0,1,7.84,19.32,145.64,145.64,0,0,1,6,27.45q.26,13.78-1.45,36.74t-3.32,29l-.71,6.22-1.8-.31.12-1-.66-2.23.36-3.11-.66-2.23a79.45,79.45,0,0,1-1.62-9.79q-1-7.56-6.13-26.42a304.27,304.27,0,0,0-14.56-40.54l-8.5-21.55.12-1,.89.15.6-5.18c.39-3.46.89-5.13,1.48-5s1.7-1.47,3.29-4.72c2.18-3.15,4.18-4.57,6-4.27,1,1.59,1.93,1.75,2.69.47C535.56,248.7,536.8,248.56,538.59,248.86Z"/><path class="cls-28" d="M468.6,229.46,471,208.73l3.58.61-.23,2.08-1.8-.31-1,.88-.12,1,.78,1.19-.12,1q-.12,1,2.22,4.6a57,57,0,0,1,5.09,11.45q2.75,7.88,2.16,13.05l-.47,4.15-3.1,11.1a86.21,86.21,0,0,1-8.77,20.69l-5.66,9.6-.9-.16-.12,1-.9-.15-.11,1-.9-.15-.12,1-.9-.16-.11,1-.9-.15-.12,1-.9-.15.12-1-.77-1.19.11-1-1.79-.3.24-2.08,1-.88.12-1,1.19-10.36q2.73-8,5.72-18.05Q466.34,249.16,468.6,229.46Z"/><path class="cls-29" d="M462.34,188.22l.9.16.78,1.19.78,1.19c.51.79.62,2.57.3,5.34a55,55,0,0,1-2,9.17l-.6,5.19.9.15,1-.88,1.79.3,1-.88,1-.88.89.15,2.69.46,1.8.31-2.69-.46-2.37,20.73q-2.25,19.69-5.11,28.72-3,10.06-5.72,18.05l-1.19,10.36-.12,1-1,.88-.24,2.08,1.79.3-.11,1c-.08.69.18,1.09.77,1.19a2.34,2.34,0,0,0,1.91-.73l.9.16-9.25,9a198.52,198.52,0,0,1-22,16.31q-13.74,8.22-14.63,8.06l-.9-.15-1,.88-1,.89-.89-.16-1,.89-1,.88-.9-.15-.24,2.07.9.15,1-.88.9.15c-.08.69.18,1.09.78,1.19l.9.16-.12,1-.9-.15-.12,1-.89-.16-1,.89-1,.88-.9-.15-1,.88-1,.88-1.79-.31.11-1-.89-.16.12-1-6.28-1.08.24-2.07.89.15.12-1,.9.16.24-2.08q.12-1,4.41-6.64,2.51-5.91,15.5-39.62Q430,247.15,429.11,247l-1.79-.3.12-1c.68-.59,1.13-1.92,1.37-4l.95-8.3a46.62,46.62,0,0,1,4.53-7.68q2.26-3.84,4.11-12a62.19,62.19,0,0,1,5.25-13.9,13.38,13.38,0,0,1,9.91-6.76c4.35-.66,6.89-1.64,7.65-2.92C462,188.17,462.42,187.53,462.34,188.22Z"/><path class="cls-30" d="M834.83,587.57a53.55,53.55,0,1,1,64.49-39.69,53.55,53.55,0,0,1-64.49,39.69Z"/><path class="cls-31" d="M881.26,523.27c-6.7-16-19-30.5-35.53-36.67-3.82-1.06-7.9-3.24-11.86-1.81a52.43,52.43,0,0,0-37.73,62.4C807.82,534.68,823.9,527,840.4,523.1c12.3-2.36,25.21-.47,36.72,4.28l4.14-4.11Z"/><path class="cls-32" d="M893.16,560.75c1.64-15.53-7.56-30.82-7.56-30.82l-7,2.49s-1.74,16.88-33,33.21c-13.7,7.16-23.21,10.17-32.05,10a52.42,52.42,0,0,0,79.6-14.9Z"/><path class="cls-33" d="M879,533.45l-.79-7.5s-20-16.63-65.11-3.4a94.84,94.84,0,0,0-18,8.13,52.43,52.43,0,0,0,24.47,48.58c18.38-2.61,49-14.3,59.45-45.81Z"/><path class="cls-34" d="M899.65,536.58a52.53,52.53,0,0,0-25-45.8c7.5,13.81,7.91,27.55,6.47,34.28l3.44,4,15.1,7.55Z"/><path class="cls-33" d="M898.22,547.62a52.28,52.28,0,0,0,1.41-13.6,22.29,22.29,0,0,0-13.57-5.44c-.71,1.15-1.42,2.3-2.14,3.45a50.68,50.68,0,0,1,6.35,22.08,31.11,31.11,0,0,1-2.69,14c-.22.62-1.12,2.43-.07.93a52.06,52.06,0,0,0,10.71-21.4Z"/><path class="cls-33" d="M882.45,521.41s6.69-14.86-5.45-29.09h0a52.45,52.45,0,0,0-48.37-5.84l.13.06c19.2-.37,40.79,16.19,48.41,32.63l5.29,2.24Z"/><path class="cls-1" d="M882.88,537.84c-5.5,1.4-11-2.57-12.18-8.89s2.24-12.58,7.74-14,11,2.58,12.19,8.89-2.24,12.58-7.75,14Z"/><path class="cls-2" d="M363.93,635c5-9.57-7.27-25.35-11.06-30.24-12.73-16.36-20.81-13.44-33.19-28.76-11.75-14.54-7.79-21.3-18.43-31-3.17-2.88-11-9.1-37.61-12.54-23.4-3-43-5.56-67.84,2.22-11.09,3.47-40,13-60.47,42-10.76,15.27-22.27,31.61-17.7,46.46,5.06,16.47,27.21,22.29,222.7,19.91C346.35,643,359.89,642.7,363.93,635Z"/><g class="cls-35"><path class="cls-36" d="M390.48,618.75c-42.77,1.48-62.35,8.8-97.34,0-58.54-14.7-36-11.75-99.89-28.7-62.37-16.53-77.13-21.13-89.23-11.8C88.82,590,84.39,618.57,93,639.46c27.87,68,198.79,67.43,284.65,22.86,9.16-4.76,41.83-21.72,39.08-33.92C416,625.13,420.09,617.73,390.48,618.75Z"/></g><path class="cls-37" d="M1498.16,558.52a22.58,22.58,0,0,0-2.6.2c-3.3.46-6.27,2.09-9.38,3.34a24.31,24.31,0,0,1-3.23,1,21.41,21.41,0,0,1-4.27.52c-1.49,0-3.09.07-4.58.1a19.25,19.25,0,0,0-6.36.94,9.36,9.36,0,0,0-1.87.94v.1a5,5,0,0,0-2.08,3.44,6.42,6.42,0,0,0,1.56,4.58c1.74,2.16,7.51,1.41,7.19,4.28-.26,2.34-8.83,6.63-12.09,11-.27.37-.59.83-.93,1.25l-.94.73a8,8,0,0,0-.63,1.56v.1a2.22,2.22,0,0,0,0,.63,1.93,1.93,0,0,0,.11.62l.1.11a2.39,2.39,0,0,0,.42.52s.08,0,.1,0a2.54,2.54,0,0,0,.52.41,5.51,5.51,0,0,0,1.77.32,30.09,30.09,0,0,0,3.34-.21h.1a20.29,20.29,0,0,0,5.83-1.46h.11a45.26,45.26,0,0,1,5.93-1.87,70.44,70.44,0,0,1,12.82-1.88c1.25,0,2.49-.08,3.75,0a17,17,0,0,1,1.87.21,13.79,13.79,0,0,1,1.88.52,15.16,15.16,0,0,1,2.5,1c.33.18.61.43.93.63.49.3,1,.61,1.46.93,0,0,.08,0,.1,0l2.3,1.57.1.1a25.59,25.59,0,0,0,2.4,1.46c2.63,1.35,5.25,3.28,8,4.27a11.29,11.29,0,0,0,1.14.31l.32.11a8.87,8.87,0,0,0,1.56.2c1.76.08,4-.24,5.21-1.45.19-.2.38-.28.52-.52a2.94,2.94,0,0,0-.11-2.5c-.17-.49-.31-1-.52-1.46-.13-.31-.31-.64-.41-.94v-.1a7.11,7.11,0,0,0-.42-.94l-.1-.11a34.78,34.78,0,0,0-2.09-2.91c-.26-.37-.52-.67-.73-1a5.06,5.06,0,0,1-.41-.94,2.71,2.71,0,0,1,0-2v-.11c.05-.15.19-.21.31-.31a1.89,1.89,0,0,1,.52-.31v-.1a9.89,9.89,0,0,1,1.25-.21c7.4-1.36,15.15,2.12,22.61,1.14,2.4-.31,5-.76,6.87-2.29,1-.78,2.65-2.16,1.88-3.12-5.26-6.58-14.33-7.84-22.19-10.52-1.06-.51-2.08-1.06-3.13-1.57-1.35-.65-2.79-1.26-4.16-1.87l-.21-.11s-.06-.08-.1-.1a15.66,15.66,0,0,1-1.25-1c-1-.83.28-3-.73-3.75-1.65-1.23-4.12,1-6.15.73s-3.77-1.66-5.62-2.61l-.21-.1a9.63,9.63,0,0,0-2-.73,31,31,0,0,0-3.86-.62,27.51,27.51,0,0,0-4-.21Z"/><path class="cls-38" d="M1459.26,587.91c3.26-4.4,11.89-8.72,12.15-11.07.32-2.87-5.43-2.06-7.17-4.22a6.66,6.66,0,0,1-1.56-4.66,5,5,0,0,1,2-3.44c4.79-3.22,11.53-1.17,17.13-2.56,4.31-1.07,8.17-3.81,12.57-4.42a29,29,0,0,1,10.54.68c2.76.67,5,3,7.81,3.4,2,.31,4.48-1.9,6.12-.68,1,.76-.28,2.91.68,3.74,8.4,7.26,23.62,5.8,31.08,15.14.77,1-.89,2.43-1.86,3.21-1.89,1.53-4.52,1.91-6.93,2.22-7.46,1-15.14-2.48-22.53-1.12-.77.14-1.86.21-2.14.94-1,2.77,2.8,5.26,3.74,8.07.52,1.57,1.83,3.41,1,4.84-1,1.78-3.74,2.13-5.78,2-4-.16-7.41-3.08-11-4.91-3.39-1.75-6.23-4.62-9.86-5.78a22.55,22.55,0,0,0-7.47-.68,70.41,70.41,0,0,0-12.82,1.86c-4,.86-7.77,3.18-11.89,3.4-2.1.1-5.25.76-6.22-1.11C1456.12,591.2,1458.19,589.36,1459.26,587.91Z"/><path class="cls-39" d="M1500,560.54c-7.88-.41-42.5,29.34-42.5,29.34l0,0c-.5,1.07-1,2.11-.39,3,1.16,1.75,4.11,1.19,6.21,1.08,4.12-.21,7.87-2.53,11.9-3.4a71.09,71.09,0,0,1,12.79-1.86,22.59,22.59,0,0,1,7.48.69c3.63,1.16,6.47,4,9.85,5.77,3.57,1.83,7,4.76,11,4.92,2,.09,4.76-.26,5.77-2,.8-1.44-.51-3.27-1-4.83-.93-2.82-4.8-5.31-3.75-8.08a1.19,1.19,0,0,1,.81-.66c-6.33-10.6-14-22.42-17.45-23.79l-.66-.15Z"/><path class="cls-39" d="M1500.33,560.8c5.85,4.27,12.62,5.6,18.75,8.77,4.09,2.12,7.76,5.07,12,6.85a16.63,16.63,0,0,0,3.84,1.08,41.62,41.62,0,0,0,5.41.12,12.33,12.33,0,0,0-1.56-2c-3.89-3.43-8.79-5.56-13.46-7.81a114.06,114.06,0,0,0-18.14-7.09c-1.68-.48-3.45-1.3-5.17-1-.65.13-2.22.69-1.68,1.08Z"/><path class="cls-39" d="M1497.06,557.34a26,26,0,0,0-2.65.21c-4.4.61-8.24,3.35-12.55,4.42-5.59,1.39-12.33-.67-17.12,2.52l0,.15s.64,3.25,1.92,4c4.65,2.58,10.75-.22,15.86-1.68,1.76-.51,3.25-1.67,4.93-2.41a29.35,29.35,0,0,1,6.12-2.4,15.93,15.93,0,0,1,3,0h8.89l1.59-3.06a9.93,9.93,0,0,0-2.13-.84,30,30,0,0,0-7.9-.88Z"/><path class="cls-40" d="M1509.56,577a1,1,0,1,1-1-1A1,1,0,0,1,1509.56,577Z"/><path class="cls-40" d="M1503.4,569.64a1,1,0,0,1-2,0,1,1,0,1,1,2,0Z"/><path class="cls-40" d="M1492.92,572.72a1,1,0,1,1-1-1A1,1,0,0,1,1492.92,572.72Z"/><path class="cls-40" d="M1482.45,581.35a1,1,0,1,1-1-1A1,1,0,0,1,1482.45,581.35Z"/><path class="cls-40" d="M1486.76,574.57a1,1,0,0,1-2,0,1,1,0,1,1,2,0Z"/><path class="cls-40" d="M1496.62,582a1,1,0,1,1-1-1A1,1,0,0,1,1496.62,582Z"/><path class="cls-37" d="M1418.13,571.05c-.54,0-1.06.06-1.6.13a24.77,24.77,0,0,0-5.74,2.05,15.69,15.69,0,0,1-2,.63,12.52,12.52,0,0,1-2.62.32c-.91,0-1.89.05-2.81.07a11.53,11.53,0,0,0-3.89.57,5.91,5.91,0,0,0-1.15.58v.06a3.07,3.07,0,0,0-1.28,2.11,4,4,0,0,0,1,2.8c1.07,1.33,4.6.87,4.41,2.62-.16,1.44-5.41,4.07-7.41,6.77-.17.23-.36.51-.57.77l-.58.44a4.66,4.66,0,0,0-.38,1V592a1.27,1.27,0,0,0,0,.39,1.26,1.26,0,0,0,.06.38l.07.06a1.31,1.31,0,0,0,.25.32h.06a1.92,1.92,0,0,0,.32.26,3.41,3.41,0,0,0,1.09.19,16.79,16.79,0,0,0,2-.13h.06a12.14,12.14,0,0,0,3.58-.89h.06a26.92,26.92,0,0,1,3.64-1.15,42.73,42.73,0,0,1,7.85-1.15c.77,0,1.53,0,2.3,0a10.93,10.93,0,0,1,1.15.13,7.53,7.53,0,0,1,1.15.32,8.24,8.24,0,0,1,1.53.64c.2.11.38.26.58.38s.6.37.89.57c0,0,0,0,.06,0l1.41,1,.06.06a14.83,14.83,0,0,0,1.47.9,43.84,43.84,0,0,0,4.92,2.62c.23.08.46.13.7.19l.19.06a6.16,6.16,0,0,0,1,.13,4.48,4.48,0,0,0,3.19-.9,1.39,1.39,0,0,0,.32-.32,1.8,1.8,0,0,0-.07-1.53c-.1-.29-.19-.6-.31-.89a4.92,4.92,0,0,1-.26-.58V593a3.18,3.18,0,0,0-.25-.57l-.07-.07a17.7,17.7,0,0,0-1.28-1.78,7.36,7.36,0,0,1-.44-.64,3,3,0,0,1-.26-.58,1.68,1.68,0,0,1,0-1.21V588c0-.1.12-.13.19-.2a1.42,1.42,0,0,1,.32-.19v-.06a5.63,5.63,0,0,1,.77-.13c4.53-.83,9.28,1.3,13.85.7a8.35,8.35,0,0,0,4.22-1.4c.59-.48,1.62-1.32,1.15-1.92-3.22-4-8.79-4.8-13.6-6.44-.65-.32-1.27-.65-1.92-1-.83-.4-1.71-.78-2.55-1.15l-.13-.06s0-.06-.06-.07a9.33,9.33,0,0,1-.77-.64c-.59-.5.18-1.83-.44-2.29-1-.76-2.53.63-3.77.44a12.5,12.5,0,0,1-3.45-1.59l-.13-.07a5.84,5.84,0,0,0-1.21-.44,20.37,20.37,0,0,0-2.36-.39,19.68,19.68,0,0,0-2.43-.13Z"/><path class="cls-38" d="M1394.29,589.07c2-2.7,7.28-5.35,7.44-6.79.2-1.75-3.32-1.26-4.39-2.58a4.12,4.12,0,0,1-1-2.86,3,3,0,0,1,1.25-2.1c2.94-2,7.07-.72,10.5-1.57,2.65-.66,5-2.34,7.71-2.71a17.52,17.52,0,0,1,6.45.42c1.7.4,3.07,1.82,4.79,2.08,1.25.19,2.75-1.17,3.75-.42.63.47-.17,1.78.42,2.29,5.15,4.45,14.48,3.56,19,9.28.47.59-.55,1.49-1.14,2a8.45,8.45,0,0,1-4.25,1.36c-4.57.6-9.28-1.52-13.81-.69-.47.09-1.14.13-1.31.58-.64,1.7,1.72,3.22,2.29,4.95.32,1,1.12,2.08.63,3-.62,1.09-2.29,1.3-3.54,1.25-2.46-.1-4.54-1.89-6.73-3s-3.82-2.83-6-3.54a13.81,13.81,0,0,0-4.58-.42,43.46,43.46,0,0,0-7.85,1.14c-2.47.53-4.77,2-7.29,2.08-1.29.07-3.22.47-3.81-.67S1393.63,590,1394.29,589.07Z"/><path class="cls-39" d="M1419.22,572.29c-4.82-.25-26,18-26,18l0,0c-.31.65-.59,1.29-.24,1.82.72,1.07,2.52.73,3.81.66,2.52-.13,4.82-1.55,7.29-2.08a43.48,43.48,0,0,1,7.84-1.14,13.84,13.84,0,0,1,4.59.42c2.22.72,4,2.47,6,3.54s4.29,2.91,6.74,3c1.25.05,2.92-.17,3.53-1.26.5-.88-.3-2-.62-3-.57-1.72-3-3.25-2.3-5a.75.75,0,0,1,.5-.41c-3.88-6.49-8.58-13.73-10.7-14.58l-.4-.09Z"/><path class="cls-39" d="M1419.46,572.45c3.58,2.62,7.73,3.43,11.49,5.38,2.51,1.3,4.75,3.1,7.36,4.19a9.65,9.65,0,0,0,2.36.67,25.08,25.08,0,0,0,3.31.07,7.49,7.49,0,0,0-1-1.25c-2.38-2.1-5.38-3.41-8.24-4.79a71,71,0,0,0-11.12-4.34,7,7,0,0,0-3.17-.59c-.4.08-1.36.42-1,.66Z"/><path class="cls-39" d="M1417.45,570.34a14.71,14.71,0,0,0-1.62.12c-2.69.38-5,2.06-7.69,2.71-3.43.85-7.56-.41-10.49,1.55v.09s.4,2,1.18,2.43c2.85,1.58,6.59-.13,9.72-1a24.75,24.75,0,0,0,3-1.47,17.5,17.5,0,0,1,3.76-1.48,10.28,10.28,0,0,1,1.84,0h5.45l1-1.87a5.68,5.68,0,0,0-1.31-.52,18.29,18.29,0,0,0-4.84-.53Z"/><path class="cls-40" d="M1425.12,582.4a.62.62,0,0,1-.62.62.62.62,0,0,1,0-1.24A.62.62,0,0,1,1425.12,582.4Z"/><path class="cls-40" d="M1421.34,577.87a.62.62,0,1,1-.62-.62A.62.62,0,0,1,1421.34,577.87Z"/><path class="cls-40" d="M1414.92,579.76a.62.62,0,1,1-.62-.62A.62.62,0,0,1,1414.92,579.76Z"/><path class="cls-40" d="M1408.5,585.05a.62.62,0,0,1-.62.62.62.62,0,0,1-.62-.62.61.61,0,0,1,.62-.62A.62.62,0,0,1,1408.5,585.05Z"/><path class="cls-40" d="M1411.14,580.89a.62.62,0,1,1-.62-.62A.62.62,0,0,1,1411.14,580.89Z"/><path class="cls-40" d="M1417.19,585.42a.63.63,0,1,1-.63-.62A.63.63,0,0,1,1417.19,585.42Z"/></g></svg>
