<svg id="Layer_1" data-name="Layer 1" xmlns="http://www.w3.org/2000/svg" xmlns:xlink="http://www.w3.org/1999/xlink" viewBox="0 0 1920 800"><defs><style>.cls-1{fill:#b3cbcf;}.cls-2{fill:none;}.cls-3{fill:#76b25d;}.cls-10,.cls-11,.cls-12,.cls-13,.cls-14,.cls-15,.cls-18,.cls-19,.cls-20,.cls-21,.cls-22,.cls-23,.cls-24,.cls-3,.cls-6,.cls-7,.cls-8,.cls-9{fill-rule:evenodd;}.cls-4{fill:#deaa87;}.cls-5{fill:#ffe6d5;}.cls-18,.cls-6,.cls-9{fill:#c9a27b;stroke:#c9a27b;}.cls-6,.cls-7,.cls-8{stroke-width:1.04px;}.cls-13,.cls-22,.cls-7{fill:#a7c83e;stroke:#a7c83e;}.cls-12,.cls-21,.cls-8{fill:#bad040;stroke:#bad040;}.cls-10,.cls-11,.cls-12,.cls-13,.cls-14,.cls-15,.cls-9{stroke-width:1.19px;}.cls-10,.cls-19{fill:#c3d444;stroke:#c3d444;}.cls-11,.cls-20{fill:#c2d344;stroke:#c2d344;}.cls-14,.cls-23{fill:#a3c63b;stroke:#a3c63b;}.cls-15,.cls-24{fill:#bbd041;stroke:#bbd041;}.cls-16{opacity:0.5;isolation:isolate;}.cls-17{fill:#d38d5f;}.cls-18,.cls-20,.cls-21,.cls-22,.cls-23,.cls-24{stroke-width:0.97px;}.cls-19{stroke-width:0.96px;}.cls-25{clip-path:url(#clip-path);}.cls-26{clip-path:url(#clip-path-2);}.cls-27{fill:#98adaf;}</style><clipPath id="clip-path"><path class="cls-1" d="M400.83,597.24c5-9.57-7.27-25.35-11.06-30.24C377,550.64,369,553.56,356.58,538.24c-11.75-14.54-7.79-21.3-18.43-31-3.17-2.88-11-9.1-37.61-12.54-23.4-3-43-5.56-67.84,2.22-11.09,3.47-40,13-60.47,42-10.76,15.27-22.27,31.61-17.7,46.46,5.06,16.47,27.21,22.29,222.7,19.91C383.25,605.24,396.79,604.94,400.83,597.24Z"/></clipPath><clipPath id="clip-path-2"><path class="cls-2" d="M400.83,602c5-9.57-7.27-25.35-11.06-30.24C377,555.43,369,558.35,356.58,543c-11.75-14.54-7.79-21.3-18.43-31-3.17-2.88-11-9.1-37.61-12.54-23.4-3-43-5.56-67.84,2.22-11.09,3.47-40,13-60.47,42C161.47,559,150,575.32,154.53,590.17c5.06,16.47,27.21,22.29,222.7,19.91C383.25,610,396.79,609.73,400.83,602Z"/></clipPath></defs><g id="green"><path class="cls-3" d="M1855.34,237.59q-1.06,2.07-3.12,0-3.13,0-6.31,5.13-2.15,5.19-3.18,5.17c-.7,0-1.06,1.73-1.1,5.2l-.06,5.2h-1v1l12.27,19.93A273.05,273.05,0,0,1,1874.27,317q8.12,17.79,10.12,25.1a69.09,69.09,0,0,0,3,9.41l1,2.09v3.12l1,2.1v1h2.08l.08-6.24q1.11-6.24.33-29.15a359,359,0,0,0-2.7-36.48A128,128,0,0,0,1879,261.81,111.74,111.74,0,0,0,1867.76,244l-6.16-7.36h-2.08C1857.43,236.57,1856,236.9,1855.34,237.59Z"/><path class="cls-4" d="M1500,560.54c-7.88-.41-42.5,29.34-42.5,29.34h0c-.5,1.07-1,2.11-.39,3,1.16,1.75,4.11,1.19,6.21,1.08,4.12-.21,7.87-2.53,11.9-3.4A70.84,70.84,0,0,1,1488,588.7a22.47,22.47,0,0,1,7.48.69c3.63,1.16,6.47,4,9.85,5.77,3.57,1.83,7,4.76,11,4.92,2,.09,4.76-.26,5.77-2,.8-1.44-.51-3.27-1-4.83-.93-2.82-4.8-5.31-3.75-8.08a1.18,1.18,0,0,1,.81-.66c-6.33-10.6-14-22.42-17.45-23.79l-.66-.15Z"/><path class="cls-5" d="M1509.56,577a1,1,0,1,1-1-1A1,1,0,0,1,1509.56,577Z"/><path class="cls-4" d="M1419.22,572.29c-4.82-.25-26,18-26,18h0c-.31.65-.59,1.29-.24,1.82.72,1.07,2.52.73,3.81.66,2.52-.13,4.82-1.55,7.29-2.08a43.22,43.22,0,0,1,7.84-1.14,13.68,13.68,0,0,1,4.59.42c2.22.72,4,2.47,6,3.54s4.29,2.91,6.74,3c1.25,0,2.92-.17,3.53-1.26.5-.88-.3-2-.62-3-.57-1.72-3-3.25-2.3-5a.73.73,0,0,1,.5-.41c-3.88-6.49-8.58-13.73-10.7-14.58l-.4-.09Z"/><path class="cls-6" d="M1718.7,258.92h-1l-6.29,3-6.28,3.05h1v2.08l-1.07,2.07-1,1v1l-12.81,26.93a484.32,484.32,0,0,0-20.34,48.7q-7.54,21.78-8.58,21.77a3,3,0,0,0-1.06,2.07v4.16q0,4.17-4.31,12.44-4.28,9.33-5.33,10.35c-1.4,1.38-2.45,1.71-3.13,1h-1v1c-.7,0-1.06,1-1.08,3.11v3.12l-1,1v1l2.09-1q2.1-1,3.12,0,1,0-2.28,17.68L1644,443.14v4.16l-4.52,31.19a495.35,495.35,0,0,0-4.9,63.45,431.38,431.38,0,0,0,2.49,55.21q2.85,24,2.83,25v2.09l15.62.18v-3.13q-1-3.13-2.87-21.89-1.86-19.81-2.48-56.26-.63-35.4,1.67-54.12t4.52-31.18l2.24-13.51V441.2q0-4.15,3.32-17.66l3.28-13.5V408a9.13,9.13,0,0,1,1.09-4.15l1-1c0-.69.71-1.38,2.11-2.06l1-1c-.69-.7-.32-2.08,1.09-4.15l1.07-3.11h-1l-1-1.06h1l.09-8.33,1.07-2.07,2.1-2.06,1.07-2.07.11-9.37q0-3.12,3.24-10.37l3.21-7.26v-3.12l1.06-1,1.06-2.07v-2.08q0-1,8.58-21.77a348.69,348.69,0,0,1,19.2-39.34l8.54-18.64,1.06-1a3,3,0,0,0,1.06-2.07.92.92,0,0,1,.83-1h.22a3,3,0,0,0,1.07-2.07l1-1-3.14,2C1720.81,258.21,1719.39,258.93,1718.7,258.92Z"/><path class="cls-7" d="M1761.44,163.62q-4.11-4.22-11.33-10.54a164.19,164.19,0,0,0-19.63-12.72q-12.45-4.31-29.06-8.67T1653.58,127l-30.19-.35v2.08h4.16l1,1.05,2.07,1.07,16.6,5.4q15.55,5.38,16.58,6.43a3,3,0,0,0,2.07,1.07h1l1,1.05,1,1.06h1l1,1,1,1.06h1l-1,1-1,1-5.21-.06-25.07,7q-24,7-34.49,11.06-9.4,4-10.45,4l-1.06,1-1,1h-2.08l-1.06,1-35.79,14.5,64.69,7.7q29.09,6.57,41.57,6.72a110.21,110.21,0,0,0,18.72,2.3l7.28.08v1l-1,1v2.09h-1v1h-1v1L1668,236.18q-15.9,24.81-21.18,31-6.31,5.13-7.36,6.16l-1.06,1h-1v1h-1v1h-2.08v1h-1v1l6.25.07,25-4.92q26.09-4.9,29.21-4.87,3.15-2,4.19-2h1l1-1,2.1-1h3.12l6.28-3.05,6.29-3h1a7.88,7.88,0,0,0,3.13-1l2.1-1,1-1v-1h2.08l2.11-2.06,3.14-1v-1h1v-4.17l.09-8.32a46,46,0,0,1,4.26-8.28q2.13-4.14,3.27-12.46a57.64,57.64,0,0,1,4.33-14.53,15.92,15.92,0,0,1,10.51-8.21q7.31-2,8.37-4.07c.72-2.07,1.08-2.76,1.07-2.07a.92.92,0,0,0,.76,1,.65.65,0,0,0,.24,0h1v-3.08a3,3,0,0,1,1.06-2.07,1.84,1.84,0,0,0,2.1-1.56,1.67,1.67,0,0,0,0-.5q-1-3.13-3-8.37l-2-4.18-1-1.06v-1A30.74,30.74,0,0,1,1761.44,163.62Z"/><path class="cls-7" d="M1780.82,199.25h1l10.4,1.16q10.4,1.16,11.43,1.17l1,1,1,1.06h3.13l12.43,5.35A129.61,129.61,0,0,1,1843,219.66a94.3,94.3,0,0,0,11.37,7.41,41.49,41.49,0,0,1,5.13,6.31c.68,1.4,1.37,2.1,2.06,2.11v1h-2.08c-2.09,0-3.48.31-4.18,1q-1.07,2.07-3.12,0-3.14,0-6.31,5.13-2.14,5.19-3.18,5.17c-.7,0-1.06,1.73-1.1,5.2l-.06,5.2h-1v1h-1v-1h-1v-1h-1v-2.08h-1v-1h-1V253l-8.24-7.38-6.15-8.4h-1v-1h-1v-1h-1v-1h-1v-1h-1v-1h-1v2.09h1v1h1v2.08h1v1h1l8.15,15.71q10.24,14.7,14.26,27.24a69.24,69.24,0,0,1,2.81,27.1,127.49,127.49,0,0,1-5.54,29.09A155.42,155.42,0,0,1,1825,361.32q-7.39,9.29-16.88,19.58-9.46,8.24-15.77,13.36-7.35,5.12-8.39,5.11h-1l-1.06,1-1,1h-2.08l-1,1-2.1,1,0-4.17h1v-1h1v-1.05q0-2.07,5.36-13.47l5.33-11.39v-4.17l1.07-2.07q1-1,3.41-24.95,4.44-23.89,4.81-56.16l.36-31.24-1-2.09a17.25,17.25,0,0,1-1-5.22v-2.08h-1a.91.91,0,0,1-.81,1H1794v-4.17q.06-5.2-4-12.54t-7.34-10.6q-3.09-3.17-3.07-4.2v-1l-1-1.06v-1l1.05-1h3.09l1-1,1-1h1l-1-1c-.7,0-1.38-.71-2.06-2.11l-1-3.13h-2.08v-1h1Zm29.86,28.45h1a.91.91,0,0,1-.81,1,.61.61,0,0,1-.19,0Z"/><path class="cls-8" d="M1770.79,165.81a6,6,0,0,1-4.19,2h-2.08v2.08a.93.93,0,0,0,.79,1.05.74.74,0,0,0,.21,0c.7,0,1.71,2.45,3,7.32q2,6.27-.07,6.25l-2.11,2v2.09h1v1l1,1.05c.69.7,1,2.44,1,5.22a47.54,47.54,0,0,1-1.15,9.36l-.06,5.2h1l1.06-1h2.08l1-1,1-1h7.25v2.08h1l1-1,1-1h1v-3.12h-2.08a3,3,0,0,1-2.07-1.07V201.3h-2.08v-1h1v-1h1l10.4,1.16q10.39,1.15,11.43,1.17l1.06-1v-3.12a10.52,10.52,0,0,0-2-5.23c0-2.08-1.69-4.18-5.13-6.31s-6.55-3.89-9.31-5.31q-3.1-2.11-5.12-7.35-1-5.22-3-7.32l-2.06-2.11h-2.08A7.12,7.12,0,0,0,1770.79,165.81Z"/><path class="cls-3" d="M1774.94,257.48q-2.2,10.39-4.38,18.7l-.12,10.41v1l-1.06,1v2.08h2.08v1l1,1.06v1h1v-1h1v-1h1v-1h1v-1h1v-1h1l5.33-10.35a81.49,81.49,0,0,0,7.54-21.77l2.21-11.43V241q.06-5.2-4-12.54a61.17,61.17,0,0,0-6.86-10.47q-3.09-3.17-3.07-4.2v-1l-1-1.06v-1l1.05-1h2.09v-2.08l-4.16,0-.24,20.82Q1777.13,248.16,1774.94,257.48Z"/><path class="cls-7" d="M1764.25,190.72q-1.07,2.09-8.37,4.07a15.92,15.92,0,0,0-10.51,8.21,57.64,57.64,0,0,0-4.33,14.53q-1.14,8.31-3.27,12.46a46,46,0,0,0-4.26,8.28l-.09,8.32c0,2.09-.39,3.47-1.09,4.16v1h2.08q1,0-7.71,36.35-10.82,35.28-13,41.5c-2.83,4.13-4.24,6.55-4.25,7.24v2.08h-1v1h-1V342l7.28.09v1h1v1h2.08l1.06-1,1-1h1l1.05-1,1.06-1h1v-1h1v-1h-1a.93.93,0,0,1-1-.85.67.67,0,0,1,0-.2h-1l-1,1h-1V336h1l1.06-1,1-1h1l1-1,1.06-1h1q1,0,15.73-10.23A234,234,0,0,0,1766,302.21l9.49-10.3h-1a3,3,0,0,1-2.09,1,.92.92,0,0,1-1-.82,1.93,1.93,0,0,1,0-.24v-1h-2.08v-2.08l1.06-1v-1l.12-10.41q2.17-8.31,4.38-18.7,2.19-9.35,2.42-29.12l.24-20.82h-3.09l-1,1-1,1h-2.08l-1.06,1h-1l.06-5.2a47.54,47.54,0,0,0,1.15-9.36c0-2.78-.29-4.52-1-5.22l-1-1.05-1-1h-1C1765.33,188,1765,188.65,1764.25,190.72Z"/><path class="cls-9" d="M1455.68,185.64l1.18-.19,7.62,2.4,7.62,2.41-1.18.19.37,2.35,1.56,2.16,1.36,1,.19,1.18,19,28.33a553.17,553.17,0,0,1,31.16,51.72q12.17,23.4,13.35,23.21a3.46,3.46,0,0,1,1.55,2.16l.75,4.71q.75,4.69,7,13.36,6.39,9.84,7.76,10.83c1.81,1.33,3,1.54,3.71.61l1.18-.19.19,1.18c.78-.12,1.36,1,1.73,3.34l.57,3.53,1.36,1,.19,1.18-2.54-.81c-1.7-.53-2.87-.34-3.53.57q-1.18.18,5.54,19.62,8.07,20.42,8.08,20.42l.75,4.71,10.32,34.53a569.25,569.25,0,0,1,16.14,71q5.63,35.28,6.4,62.9t1,28.79l.38,2.35L1588.69,589l-.56-3.53q.61-3.72-.41-25.27-1.2-22.73-6.59-64.08-5.19-40.17-10.92-61t-10.33-34.54l-4.78-14.92-.57-3.53q-.75-4.69-6.71-19.43l-6-14.73-.37-2.35a10.54,10.54,0,0,0-1.93-4.52l-1.36-1c-.13-.78-1-1.44-2.73-2l-1.36-1c.67-.91,0-2.42-1.93-4.51l-1.74-3.35,1.18-.18,1-1.37-1.18.19-1.5-9.41-1.55-2.16-2.72-2-1.56-2.17-1.68-10.58q-.57-3.54-5.41-11.2l-4.84-7.67-.56-3.53-1.36-1-1.55-2.17-.38-2.35q-.18-1.17-13.34-23.2a397.15,397.15,0,0,0-28.3-41.33l-12.78-19.67-1.36-1a3.44,3.44,0,0,1-1.56-2.16,1,1,0,0,0-.93-1.07,1.05,1.05,0,0,0-.43.07,3.43,3.43,0,0,1-1.55-2.17l-1.36-1,3.9,1.79C1453.2,185.23,1454.9,185.76,1455.68,185.64Z"/><path class="cls-10" d="M1391.39,84.92q4-5.46,11.06-13.83a188.51,188.51,0,0,1,20.1-17.67q13.37-7,31.44-14.66t53.36-13.33L1541.46,20l.37,2.35-4.7.75-1,1.37L1534,26l-17.88,8.88q-16.74,8.7-17.72,10.12a3.41,3.41,0,0,1-2.17,1.55l-1.18.19-1,1.36-1,1.37-1.18.19-1,1.36-1,1.36-1.17.19,1.36,1,1.36,1,5.88-.94,29.55,3.74q28.37,3.91,40.87,6.75,11.34,3,12.52,2.83l1.36,1,1.36,1,2.36-.37,25.82,10.11-21.65,8.52-31.81,12.3q-31.82,12.31-45.93,14.56A124,124,0,0,1,1491,119.7l-8.24,1.31.19,1.18,1.36,1,.38,2.35,1.18-.19.18,1.18,1.18-.19.19,1.18,22,24.24q22.14,25.43,29.15,31.54,8,4.75,9.36,5.75l1.36,1,1.18-.19.18,1.18,1.18-.19L1552,192l2.35-.37.19,1.18,1.17-.19.19,1.17-7.06,1.13-29.16-1.38q-30.35-1.2-33.88-.64c-2.6-1.19-4.29-1.73-5.08-1.6l-1.17.19-1.37-1-2.54-.8-3.52.56-7.62-2.41-7.62-2.4-1.18.19a9.19,9.19,0,0,1-3.7-.63l-2.54-.8-1.36-1-.19-1.17-1.17.18-1.18.19-2.73-2-3.71-.61-.19-1.18-1.18.19-.37-2.35-.38-2.35-1.5-9.41a53,53,0,0,0-6.2-8.67q-3.1-4.32-5.78-13.55a66,66,0,0,0-7.33-15.72,18.16,18.16,0,0,0-13.26-7.53c-5.74-.7-9.12-1.76-10.16-3.21-1.16-2.23-1.67-3-1.55-2.16a1,1,0,0,1-.57,1.29.91.91,0,0,1-.43.07l-1.17.19-.19-1.18-.38-2.35a3.41,3.41,0,0,0-1.55-2.17,2.09,2.09,0,0,1-2.62-1.36,2,2,0,0,1-.1-.64c.4-2.48,1.08-5.8,2-10l1.61-5.08,1-1.36-.19-1.18A36,36,0,0,0,1391.39,84.92Z"/><path class="cls-11" d="M1375.6,129.65l1.17-.19.19,1.18-2.35.37-.61,3.72c-.54,1.69-1.2,2.6-2,2.72l-1,1.37,1.18-.19,1.36,1,1.36,1,1.18-.19,2.35-.37,1.37,1,.18,1.18-1,1.36.19,1.18c.13.79-.8,2.54-2.78,5.27s-4.1,7.08-6.36,13.07-3,10.87-2.41,14.87l.75,4.7a1.05,1.05,0,0,1-1.32-.68,1.13,1.13,0,0,1,0-.32l-1.17.19.37,2.35a19.33,19.33,0,0,1-.24,6.07l-.8,2.54,5.62,35.29q5.82,36.47,14.83,62.77,6.66,26.67,8,27.67l1.55,2.16.75,4.71,8,12q7.93,12,8.31,14.35l.19,1.18,1.18-.19.19,1.18,1.17-.19.75,4.7-2.54-.8-1.36-1-2.35.38-1.37-1-1.36-1-1.18.19q-1.17.18-10.34-4.38-8-4.75-20.09-12.48-12.45-10.08-22.38-19.35a178.12,178.12,0,0,1-19.6-24.62,146.26,146.26,0,0,1-11.13-32,79.3,79.3,0,0,1-1.34-31.14q2.46-14.86,11.6-33.21l6.59-19.14,1.18-.19-.19-1.18,1.18-.18-.38-2.36,1.18-.18-.19-1.18,1.18-.19-.75-4.7.37,2.35-1.17.19.19,1.17-1.18.19.19,1.18-1.18.18.19,1.18-1.18.19.19,1.17-1.18.19.19,1.18-1.18.18-5.55,10.54-8.1,9.73.19,1.18-1.18.19.19,1.17-1.18.19.37,2.35-1.17.19.19,1.18-1.18.18.19,1.18-1.18.19-.19-1.18-1.17.19-.94-5.88c-.62-3.92-1.33-5.82-2.11-5.7s-2.28-1.65-4.47-5.32q-4.47-5.31-8-4.75c-1.32,1.82-2.5,2-3.53.56q-1.37-1-4.89-.43l-2.36.38-.18-1.18c.78-.12,1.44-1,2-2.73a47.83,47.83,0,0,1,4.76-8,107.3,107.3,0,0,0,11.63-10.3,148.49,148.49,0,0,1,22.82-15.69l13.18-8.13,3.53-.57,1-1.36,1-1.36q1.17-.19,12.75-3.24l11.58-3,1.17-.19Zm-29,37.19a1.05,1.05,0,0,1-1.32-.68,1.13,1.13,0,0,1,0-.32l1.18-.19Z"/><path class="cls-12" d="M1381.18,89a6.85,6.85,0,0,0,5.08,1.6l2.35-.38.37,2.36a1,1,0,0,1-.57,1.29.91.91,0,0,1-.43.07q-1.18.19-2.22,8.8-1.23,7.42,1.12,7l2.73,2,.37,2.35-1.17.19.19,1.18-1,1.36q-1,1.37-.24,6.07a55.06,55.06,0,0,0,2.86,10.4l.94,5.88-1.18.19-1.36-1-2.35.37-1.37-1-1.36-1-1.18.18-3.53.57-3.53.56.38,2.35-1.18.19-1.36-1-1.36-1-1.18.19-.56-3.53,2.35-.38a3.39,3.39,0,0,0,2.16-1.55l-.37-2.35,2.35-.37-.19-1.18-1.17.19-.19-1.18-1.17.19-11.58,3q-11.58,3-12.75,3.24l-1.37-1-.56-3.53c-.25-1.57.22-3.65,1.42-6.26q-.57-3.52,4.75-8t9.65-7.57q3.17-2.91,4.57-9.17.24-6.08,2.22-8.8l2-2.72,2.35-.38A8.09,8.09,0,0,1,1381.18,89Z"/><path class="cls-13" d="M1297.47,184.31c1,1.44,2.21,1.26,3.53-.56q3.52-.57,8,4.75c2.19,3.67,3.68,5.45,4.47,5.32s1.49,1.78,2.11,5.7l.94,5.88,1.17-.19.19,1.18L1307.32,231a312.3,312.3,0,0,0-18,46.29q-6.22,21.49-7.26,30.1a79.31,79.31,0,0,1-1.85,11.15l-.8,2.54.57,3.53-.81,2.54.19,1.17-2.35.38-1.13-7.06q-2.3-6.87-5.24-32.93t-3-41.74a145.68,145.68,0,0,1,7.07-31.28q5-14.06,9.76-22l5.74-9.36,2.36-.38Q1296.11,183.33,1297.47,184.31Z"/><path class="cls-14" d="M1391.79,193.4q4.23,11.4,8.08,20.43l1.87,11.76.19,1.18,1.36,1,.38,2.36-2.36.37.19,1.18-1,1.36.19,1.18-1.18.19-.18-1.18-1.18.19-.19-1.18-1.17.19-.19-1.18-1.18.19-.19-1.18-1.17.19-.19-1.18-1.18.19L1385,218.62a92.66,92.66,0,0,1-12.17-23.39l-4.41-12.57-.75-4.7q-.95-5.88,2.45-14.87t6.36-13.07c2-2.73,2.91-4.48,2.78-5.27l-.19-1.18,1-1.36-.18-1.18-1.37-1-2.35.37-.38-2.35,4.71-.75,3.75,23.52Q1387.75,183.19,1391.79,193.4Z"/><path class="cls-15" d="M1392.73,116.06c1,1.45,4.42,2.51,10.16,3.21a18.16,18.16,0,0,1,13.26,7.53,66,66,0,0,1,7.33,15.72q2.68,9.22,5.78,13.55a53,53,0,0,1,6.2,8.67l1.5,9.41c.38,2.35,1,3.86,1.93,4.51l.19,1.18-2.36.37q-1.17.19,14.8,39.86,18.13,38.12,21.61,44.8,5.82,6.31,6,7.49l.37,2.35,1.18-.19.18,1.18,1.18-.19.37,2.35-8.23,1.31.19,1.18-1.18.19.19,1.17-2.35.38-1.37-1-1.36-1-1.18.19-1.36-1-1.36-1-1.18.19-.19-1.18-1.17.19-.19-1.18,1.18-.18a1,1,0,0,0,1.05-1.05,1.13,1.13,0,0,0-.05-.32l1.18-.18,1.36,1,1.18-.18-.37-2.36-1.18.19-1.36-1-1.37-1-1.17.19-1.37-1-1.36-1-1.18.19q-1.17.19-19.52-9a269.86,269.86,0,0,1-29.43-18.23L1396.8,232.3l1.17-.19a3.4,3.4,0,0,0,2.54.8,1,1,0,0,0,1.07-.93,1.05,1.05,0,0,0-.07-.43l-.19-1.18,2.36-.37-.38-2.36-1.36-1-.19-1.18-1.87-11.76q-3.86-9-8.08-20.43-4-10.2-7.6-32.56l-3.75-23.52-3.53.56,2.35-.37,3.53-.57,1.18-.18,1.36,1,1.37,1,2.35-.37,1.36,1,1.18-.19-.94-5.88a55.06,55.06,0,0,1-2.86-10.4q-.75-4.71.24-6.07l1-1.36,1-1.37,1.18-.18C1391.06,113.11,1391.57,113.83,1392.73,116.06Z"/><path class="cls-16" d="M1498.16,558.52a22.58,22.58,0,0,0-2.6.2c-3.3.46-6.27,2.09-9.38,3.34a24.14,24.14,0,0,1-3.23,1,21.13,21.13,0,0,1-4.27.52c-1.49,0-3.09.07-4.58.1a19.05,19.05,0,0,0-6.36.94,9.36,9.36,0,0,0-1.87.94v.1a5,5,0,0,0-2.08,3.44,6.39,6.39,0,0,0,1.56,4.58c1.74,2.16,7.51,1.41,7.19,4.28-.26,2.34-8.83,6.63-12.09,11-.27.37-.59.83-.93,1.25l-.94.73a8.09,8.09,0,0,0-.63,1.56v.1a2.22,2.22,0,0,0,0,.63,1.88,1.88,0,0,0,.11.62l.1.11a2.66,2.66,0,0,0,.42.52h.1a2.29,2.29,0,0,0,.52.41,5.64,5.64,0,0,0,1.77.32,31,31,0,0,0,3.34-.21h.1a20.21,20.21,0,0,0,5.83-1.46h.11a45.34,45.34,0,0,1,5.93-1.87,70.31,70.31,0,0,1,12.82-1.88c1.25,0,2.49-.08,3.75,0,.63,0,1.25.11,1.87.21a13.4,13.4,0,0,1,1.88.52,15,15,0,0,1,2.5,1c.33.18.61.43.93.63.49.3,1,.61,1.46.93h.1l2.3,1.57.1.1a24.36,24.36,0,0,0,2.4,1.46c2.63,1.35,5.25,3.28,8,4.27a11.29,11.29,0,0,0,1.14.31l.32.11a9.12,9.12,0,0,0,1.56.2c1.76.08,4-.24,5.21-1.45.19-.2.38-.28.52-.52a2.92,2.92,0,0,0-.11-2.5c-.17-.49-.31-1-.52-1.46-.13-.31-.31-.64-.41-.94v-.1a7.92,7.92,0,0,0-.42-.94l-.1-.11a33.48,33.48,0,0,0-2.09-2.91c-.26-.37-.52-.67-.73-1a4.62,4.62,0,0,1-.41-.94,2.76,2.76,0,0,1,0-2v-.11c.05-.15.19-.21.31-.31a1.84,1.84,0,0,1,.52-.31v-.1a8.82,8.82,0,0,1,1.25-.21c7.4-1.36,15.15,2.12,22.61,1.14,2.4-.31,5-.76,6.87-2.29,1-.78,2.65-2.16,1.88-3.12-5.26-6.58-14.33-7.84-22.19-10.52-1.06-.51-2.08-1.06-3.13-1.57-1.35-.65-2.79-1.26-4.16-1.87l-.21-.11a.45.45,0,0,0-.1-.1c-.43-.31-.85-.65-1.25-1-1-.83.28-3-.73-3.75-1.65-1.23-4.12,1-6.15.73s-3.77-1.66-5.62-2.61l-.21-.1a9.59,9.59,0,0,0-2-.73,31.34,31.34,0,0,0-3.86-.62,26.74,26.74,0,0,0-4-.21Z"/><path class="cls-17" d="M1459.26,587.91c3.26-4.4,11.89-8.72,12.15-11.07.32-2.87-5.43-2.06-7.17-4.22a6.69,6.69,0,0,1-1.56-4.66,5,5,0,0,1,2-3.44c4.79-3.22,11.53-1.17,17.13-2.56,4.31-1.07,8.17-3.81,12.57-4.42a29,29,0,0,1,10.54.68c2.76.67,5,3,7.81,3.4,2,.31,4.48-1.9,6.12-.68,1,.76-.28,2.91.68,3.74,8.4,7.26,23.62,5.8,31.08,15.14.77,1-.89,2.43-1.86,3.21-1.89,1.53-4.52,1.91-6.93,2.22-7.46,1-15.14-2.48-22.53-1.12-.77.14-1.86.21-2.14.94-1,2.77,2.8,5.26,3.74,8.07.52,1.57,1.83,3.41,1,4.84-1,1.78-3.74,2.13-5.78,2-4-.16-7.41-3.08-11-4.91-3.39-1.75-6.23-4.62-9.86-5.78a22.65,22.65,0,0,0-7.47-.68,70.28,70.28,0,0,0-12.82,1.86c-4,.86-7.77,3.18-11.89,3.4-2.1.1-5.25.76-6.22-1.11C1456.12,591.2,1458.19,589.36,1459.26,587.91Z"/><path class="cls-4" d="M1500.33,560.8c5.85,4.27,12.62,5.6,18.75,8.77,4.09,2.12,7.76,5.07,12,6.85a16.49,16.49,0,0,0,3.84,1.08,40.73,40.73,0,0,0,5.41.12,12.08,12.08,0,0,0-1.56-2c-3.89-3.43-8.79-5.56-13.46-7.81a113.32,113.32,0,0,0-18.14-7.09c-1.68-.48-3.45-1.3-5.17-1-.65.13-2.22.69-1.68,1.08Z"/><path class="cls-4" d="M1497.06,557.34a23.46,23.46,0,0,0-2.65.21c-4.4.61-8.24,3.35-12.55,4.42-5.59,1.39-12.33-.67-17.12,2.52v.15s.64,3.25,1.92,4c4.65,2.58,10.75-.22,15.86-1.68,1.76-.51,3.25-1.67,4.93-2.41a29.25,29.25,0,0,1,6.12-2.4,16.7,16.7,0,0,1,3,0h8.89l1.59-3.06a10.26,10.26,0,0,0-2.13-.84,30,30,0,0,0-7.9-.88Z"/><path class="cls-5" d="M1503.4,569.64a1,1,0,1,1-1-1A1,1,0,0,1,1503.4,569.64Z"/><path class="cls-5" d="M1492.92,572.72a1,1,0,1,1-1-1A1,1,0,0,1,1492.92,572.72Z"/><path class="cls-5" d="M1482.45,581.35a1,1,0,1,1-1-1A1,1,0,0,1,1482.45,581.35Z"/><path class="cls-5" d="M1486.76,574.57a1,1,0,1,1-1-1A1,1,0,0,1,1486.76,574.57Z"/><path class="cls-5" d="M1496.62,582a1,1,0,1,1-1-1A1,1,0,0,1,1496.62,582Z"/><path class="cls-16" d="M1418.13,571.05a12.32,12.32,0,0,0-1.6.13,24.41,24.41,0,0,0-5.74,2.05,17.19,17.19,0,0,1-2,.63,12.19,12.19,0,0,1-2.62.32c-.91,0-1.89.05-2.81.07a11.65,11.65,0,0,0-3.89.57,6.2,6.2,0,0,0-1.15.58v.06a3.07,3.07,0,0,0-1.28,2.11,4,4,0,0,0,1,2.8c1.07,1.33,4.6.87,4.41,2.62-.16,1.44-5.41,4.07-7.41,6.77-.17.23-.36.51-.57.77l-.58.44a5,5,0,0,0-.38,1v0a1.28,1.28,0,0,0,0,.39,1.21,1.21,0,0,0,.06.38l.07.06a1.31,1.31,0,0,0,.25.32h.06a1.59,1.59,0,0,0,.32.26,3.38,3.38,0,0,0,1.09.19,16.65,16.65,0,0,0,2-.13h.06a12,12,0,0,0,3.58-.89h.06a27,27,0,0,1,3.64-1.15,42.48,42.48,0,0,1,7.85-1.15h2.3a10.93,10.93,0,0,1,1.15.13,7.53,7.53,0,0,1,1.15.32,8.53,8.53,0,0,1,1.53.64c.2.11.38.26.58.38s.6.37.89.57h.06l1.41,1,.06.06a13.76,13.76,0,0,0,1.47.9,43.73,43.73,0,0,0,4.92,2.62c.23.08.46.13.7.19l.19.06a6.67,6.67,0,0,0,1,.13,4.46,4.46,0,0,0,3.19-.9,1.62,1.62,0,0,0,.32-.32,1.78,1.78,0,0,0-.07-1.53c-.1-.29-.19-.6-.31-.89a4.29,4.29,0,0,1-.26-.58V593a2.9,2.9,0,0,0-.25-.57l-.07-.07a18.64,18.64,0,0,0-1.28-1.78c-.16-.21-.3-.42-.44-.64a3,3,0,0,1-.26-.58,1.68,1.68,0,0,1,0-1.21V588c0-.1.12-.13.19-.2a1.5,1.5,0,0,1,.32-.19v-.06a6.51,6.51,0,0,1,.77-.13c4.53-.83,9.28,1.3,13.85.7a8.35,8.35,0,0,0,4.22-1.4c.59-.48,1.62-1.32,1.15-1.92-3.22-4-8.79-4.8-13.6-6.44-.65-.32-1.27-.65-1.92-1-.83-.4-1.71-.78-2.55-1.15l-.13-.06a.07.07,0,0,0-.06-.07,7.92,7.92,0,0,1-.77-.64c-.59-.5.18-1.83-.44-2.29-1-.76-2.53.63-3.77.44a12.57,12.57,0,0,1-3.45-1.59l-.13-.07a5.84,5.84,0,0,0-1.21-.44,19,19,0,0,0-2.36-.39,19.79,19.79,0,0,0-2.43-.13Z"/><path class="cls-17" d="M1394.29,589.07c2-2.7,7.28-5.35,7.44-6.79.2-1.75-3.32-1.26-4.39-2.58a4.14,4.14,0,0,1-1-2.86,3,3,0,0,1,1.25-2.1c2.94-2,7.07-.72,10.5-1.57,2.65-.66,5-2.34,7.71-2.71a17.52,17.52,0,0,1,6.45.42c1.7.4,3.07,1.82,4.79,2.08,1.25.19,2.75-1.17,3.75-.42.63.47-.17,1.78.42,2.29,5.15,4.45,14.48,3.56,19,9.28.47.59-.55,1.49-1.14,2a8.38,8.38,0,0,1-4.25,1.36c-4.57.6-9.28-1.52-13.81-.69-.47.09-1.14.13-1.31.58-.64,1.7,1.72,3.22,2.29,4.95.32,1,1.12,2.08.63,3-.62,1.09-2.29,1.3-3.54,1.25-2.46-.1-4.54-1.89-6.73-3s-3.82-2.83-6-3.54a13.86,13.86,0,0,0-4.58-.42,43.33,43.33,0,0,0-7.85,1.14c-2.47.53-4.77,2-7.29,2.08-1.29.07-3.22.47-3.81-.67S1393.63,590,1394.29,589.07Z"/><path class="cls-4" d="M1419.46,572.45c3.58,2.62,7.73,3.43,11.49,5.38,2.51,1.3,4.75,3.1,7.36,4.19a9.65,9.65,0,0,0,2.36.67,24.39,24.39,0,0,0,3.31.07,7.51,7.51,0,0,0-1-1.25c-2.38-2.1-5.38-3.41-8.24-4.79a70.58,70.58,0,0,0-11.12-4.34,7,7,0,0,0-3.17-.59c-.4.08-1.36.42-1,.66Z"/><path class="cls-4" d="M1417.45,570.34a14.71,14.71,0,0,0-1.62.12c-2.69.38-5,2.06-7.69,2.71-3.43.85-7.56-.41-10.49,1.55v.09s.4,2,1.18,2.43c2.85,1.58,6.59-.13,9.72-1a24.48,24.48,0,0,0,3-1.47,17.4,17.4,0,0,1,3.76-1.48,11.3,11.3,0,0,1,1.84,0h5.45l1-1.87a5.51,5.51,0,0,0-1.31-.52,18.34,18.34,0,0,0-4.84-.53Z"/><path class="cls-5" d="M1425.12,582.4a.62.62,0,1,1-.62-.62A.62.62,0,0,1,1425.12,582.4Z"/><path class="cls-5" d="M1421.34,577.87a.62.62,0,1,1-.62-.62h0A.62.62,0,0,1,1421.34,577.87Z"/><path class="cls-5" d="M1414.92,579.76a.62.62,0,1,1-.62-.62h0A.62.62,0,0,1,1414.92,579.76Z"/><path class="cls-5" d="M1408.5,585.05a.62.62,0,0,1-1.24,0,.61.61,0,0,1,.6-.62h0A.62.62,0,0,1,1408.5,585.05Z"/><path class="cls-5" d="M1411.14,580.89a.62.62,0,1,1-.62-.62h0A.62.62,0,0,1,1411.14,580.89Z"/><path class="cls-5" d="M1417.19,585.42a.63.63,0,1,1-.64-.62h0A.64.64,0,0,1,1417.19,585.42Z"/><path class="cls-18" d="M379.7,212.84l2.93-1.62-1,.89A3.08,3.08,0,0,1,380.5,214c-.6-.11-.94.19-1,.88a3.08,3.08,0,0,1-1.13,1.92l-1,.88L368,235.13a349.52,349.52,0,0,0-20.64,36.64q-9.54,19.5-9.66,20.54l-.24,2.07-1.16,2-1,.88-.35,3.11-3.52,6.79q-3.54,6.79-3.88,9.91l-1.08,9.31-1.14,1.92-2,1.76-1.13,1.92-.95,8.29-.9-.15.78,1.19.9.15-1.25,3c-1.44,1.87-1.89,3.2-1.37,4l-1,.89c-1.27.48-1.95,1.07-2,1.76l-1,.89a9.94,9.94,0,0,0-1.38,4l-.23,2.07-4.23,13q-4.23,13-4.71,17.16l-.35,3.11-3.34,13.17Q298,416.61,294.07,435T287,488.71q-3.25,36.42-3.71,56.44-.33,19,.2,22.23l-.46,3-13.45-2.31.24-2.07q.12-1,.15-25.34a499.85,499.85,0,0,1,3.61-55.37,562.42,562.42,0,0,1,10.82-62.62l7.14-30.48.47-4.15s1.91-6,5.72-18q4.71-17.19,3.81-17.32c-.52-.8-1.41-1-2.69-.46L297,353l.12-1,1-.88.36-3.11c.24-2.08.65-3.06,1.25-3l.12-1,.9.16c.52.79,1.45.6,2.81-.58q1-.9,5.66-9.59,4.54-7.68,5-11.83l.48-4.15a3,3,0,0,1,1.13-1.92q.9.17,9.66-20.54A500.11,500.11,0,0,1,348,249.8l13.84-25.11.12-1,1-.89,1.13-1.92.24-2.07-.9-.15,5.74-2.19,5.73-2.19.9.15A11.69,11.69,0,0,0,379.7,212.84Z"/><path class="cls-19" d="M427.73,127.14l-.08,1,.8,1.16,1.43,4.4c.9,3.62,1.56,6.51,2,8.67-.11,1.39-.75,2-1.92,1.85a3,3,0,0,0-1,2l-.16,2.08-.08,1-.88-.12c-.59-.08-.85-.46-.8-1.16s-.29,0-1,2c-.69,1.3-3.14,2.38-7.35,3.21a13.13,13.13,0,0,0-9.43,7.14,63,63,0,0,0-4.64,14.1q-1.53,8.21-3.61,12.13a45.33,45.33,0,0,0-4.16,7.85l-.64,8.32-.16,2.08-.17,2.08-.87-.12-.09,1-2.71.69-1.92,1.84-.88-.12-.88-.11-.08,1-1,.92-1.83.8a5.87,5.87,0,0,1-2.72.69l-.88-.12-5.51,2.41L371,218.34l-2.64-.36-1.84.81-1,.92-.88-.12c-.59-.08-1.81.46-3.68,1.61q-2.64-.36-25,1.89l-21.48,2.37-5.27-.71.08-1,.88.12.08-1,1.75.24.09-1,.87.12.08-1,.88.12,1-.92q1-.91,6.64-5.41,4.88-5.67,20-28.85l15-22.16.08-1,.88.12.08-1,.88.11.16-2.08,1-.92.08-1-6.15-.83a79.87,79.87,0,0,1-15.65-4.21q-10.55-1.41-34.65-11l-51.61-11.07L280.37,117l1-.92,1.76.23,1-.92,1-.92q.87.12,9.1-3,9.11-3,29.88-7.55l21.64-4.45,4.4.59,1-.92,1-.92-.87-.12-.8-1.16-.8-1.16-.88-.12-1-1.32-.8-1.16-.88-.12a2.6,2.6,0,0,1-1.68-1.28q-.79-1.16-13.57-8.13l-13.65-7.09-1.67-1.27-.8-1.16-3.51-.47.16-2.09L336.81,75q26.35,3.54,40.08,9.59t23.95,11.63a149.82,149.82,0,0,1,15.72,14.72q5.67,7.08,8.86,11.71A33.4,33.4,0,0,0,427.73,127.14Z"/><path class="cls-20" d="M435.65,163.24l.89.14,8.85,2.58q8.85,2.58,9.74,2.73l.78,1.19.78,1.19,2.69.46,10.16,7a115,115,0,0,1,17.64,13.6,88.91,88.91,0,0,0,9,9,44.92,44.92,0,0,1,3.77,7c.44,1.49,1,2.28,1.55,2.39l-.11,1-1.8-.31c-1.79-.3-3-.16-3.7.43-.76,1.28-1.65,1.12-2.69-.47q-2.68-.45-6,4.27c-1.59,3.24-2.69,4.82-3.29,4.72s-1.09,1.57-1.48,5l-.6,5.18-.89-.15-.12,1-.9-.15.12-1-.9-.15.12-1-.89-.15.23-2.07-.89-.16.11-1-.78-.17.12-1-6.35-8.49-4.43-9.22-.89-.15.11-1-.89-.15.12-1-.9-.15.12-1-.9-.15.12-1-.9-.15.12-1-.89-.15.23-2.08-.47,4.15.9.15-.12,1,.89.15-.23,2.08.89.15-.12,1,.9.15,5.4,16.78q7.29,16,9.47,29.11a80.61,80.61,0,0,1-.4,27.41,142.15,142.15,0,0,1-7.8,28.26,152.84,152.84,0,0,1-14.38,21.85q-7.33,8.25-16.59,17.23-9,6.92-15,11.17-6.87,4.11-7.77,4l-.89-.16-1,.89-1,.88-1.8-.31-1,.88-1.91.73.47-4.14.9.15.12-1,.89.16.12-1q.24-2.07,6-12.71l5.74-11,.47-4.15,1.14-1.93q1-.88,5.53-24.42,6.31-23.2,10-55.36l3.55-31.1-.66-2.23a19.89,19.89,0,0,1-.3-5.34l.24-2.07-.9-.15c-.08.69-.42,1-1,.88l.47-4.15q.59-5.17-2.16-13.05a57.76,57.76,0,0,0-5.09-11.45q-2.34-3.57-2.22-4.6l.12-1-.78-1.19.12-1,1-.88,1.8.31.89.15,1-.88,1-.88.9.15-.78-1.19c-.6-.1-1.11-.9-1.55-2.38l-.54-3.27-1.8-.3.12-1,.9.15Zm22.79,32.45.9.14c-.08.69-.42,1-1,.89Z"/><path class="cls-21" d="M435.19,127.22l1.8.31,1.55,2.38c1,1.58,1.66,4.16,1.86,7.72.8,3.66,2,6.32,3.65,8,2.24,1.8,4.73,4,7.48,6.57s4,4.92,3.77,7a11.68,11.68,0,0,1,1.2,5.49l-.35,3.11-1,.88q-.9-.15-9.74-2.73l-8.85-2.57-.89-.15-.12,1-.9-.15-.12,1,1.8.3-.29,2.16a2.67,2.67,0,0,0,1.67,1.34l1.8.31-.36,3.11-.9-.15-1,.88-1,.88-.89-.15.23-2.08-2.69-.46-2.69-.46-.89-.15-1,.88-1,.88-1.79-.3-1,.88-.9-.15.6-5.19a56.61,56.61,0,0,0,2-9.17c.32-2.77.21-4.55-.3-5.34l-.78-1.19.12-1-.9-.15.24-2.08,2-1.76c1.18.2,1.42-1.88.71-6.22-.64-5-1.26-7.62-1.86-7.72s-.86-.5-.78-1.19l.24-2.07,1.79.3a4.73,4.73,0,0,0,3.82-1.45A5.41,5.41,0,0,1,435.19,127.22Z"/><path class="cls-22" d="M499.63,211.2l1.8.31,4.55,8.18A124.08,124.08,0,0,1,513.82,239a145.37,145.37,0,0,1,6,27.45q.25,13.77-1.45,36.74t-3.32,29l-.71,6.22-1.8-.31.12-1-.66-2.23.36-3.11-.66-2.23a77.46,77.46,0,0,1-1.62-9.79q-1-7.56-6.13-26.42a305.07,305.07,0,0,0-14.56-40.55l-8.5-21.54.12-1,.89.14.6-5.17c.39-3.46.89-5.13,1.48-5s1.7-1.47,3.29-4.72c2.18-3.15,4.18-4.58,6-4.27,1,1.58,1.93,1.75,2.69.47C496.6,211,497.84,210.9,499.63,211.2Z"/><path class="cls-23" d="M429.64,191.8l2.4-20.73,3.58.61-.23,2.08-1.8-.31-1,.88-.12,1,.78,1.19-.12,1c-.08.66.66,2.2,2.22,4.6a57.25,57.25,0,0,1,5.09,11.45q2.74,7.88,2.16,13.05l-.47,4.15-3.1,11.1a86.69,86.69,0,0,1-8.77,20.69l-5.66,9.6-.9-.16-.12,1-.9-.15-.11,1-.9-.15-.12,1-.9-.16-.11,1-.9-.15-.12,1-.9-.15.12-1-.77-1.19.11-1-1.79-.3.24-2.08,1-.88.12-1,1.19-10.36q2.73-8,5.72-18.05Q427.38,211.5,429.64,191.8Z"/><path class="cls-24" d="M423.38,150.56l.9.16.78,1.19.78,1.19c.51.79.62,2.57.3,5.34a56.61,56.61,0,0,1-2,9.17l-.6,5.19.9.15,1-.88,1.79.3,1-.88,1-.89.89.15,2.69.47,1.8.3-2.69-.46-2.37,20.73q-2.25,19.69-5.11,28.72-3,10.06-5.72,18.05l-1.19,10.36-.12,1-1,.88-.24,2.08,1.79.3-.11,1c-.08.69.18,1.09.77,1.19a2.31,2.31,0,0,0,1.91-.73l.9.16-9.25,9a197.71,197.71,0,0,1-22,16.31q-13.74,8.22-14.63,8.06l-.9-.15-1,.88-1,.89-.89-.16-1,.89-1,.88-.9-.15-.24,2.07.9.15,1-.88.9.15c-.08.69.18,1.09.78,1.19l.9.16-.12,1-.9-.15-.12,1-.89-.16-1,.89-1,.88-.9-.15-1,.88-1,.88-1.79-.31.11-1-.89-.16.12-1-6.28-1.07.24-2.07.89.14.12-1,.9.16.24-2.07c.08-.67,1.55-2.88,4.41-6.65q2.5-5.91,15.5-39.61,11.29-35,10.41-35.18l-1.79-.3.12-1c.68-.59,1.13-1.92,1.37-4l.95-8.3a45.56,45.56,0,0,1,4.53-7.68q2.25-3.85,4.11-12a61.57,61.57,0,0,1,5.25-13.9,13.34,13.34,0,0,1,9.91-6.76c4.35-.66,6.89-1.64,7.65-2.92C423,150.51,423.46,149.87,423.38,150.56Z"/><path class="cls-1" d="M400.83,597.24c5-9.57-7.27-25.35-11.06-30.24C377,550.64,369,553.56,356.58,538.24c-11.75-14.54-7.79-21.3-18.43-31-3.17-2.88-11-9.1-37.61-12.54-23.4-3-43-5.56-67.84,2.22-11.09,3.47-40,13-60.47,42-10.76,15.27-22.27,31.61-17.7,46.46,5.06,16.47,27.21,22.29,222.7,19.91C383.25,605.24,396.79,604.94,400.83,597.24Z"/><g class="cls-25"><g class="cls-26"><path class="cls-27" d="M427.38,585.78c-42.77,1.48-62.35,8.8-97.34,0-58.54-14.7-36-11.75-99.89-28.7C167.78,540.55,153,536,140.92,545.28c-15.2,11.75-19.63,40.32-11,61.21,27.87,68,198.79,67.43,284.65,22.86,9.16-4.76,41.83-21.72,39.08-33.92C452.9,592.16,457,584.76,427.38,585.78Z"/></g></g></g></svg>
