<svg xmlns="http://www.w3.org/2000/svg" xmlns:xlink="http://www.w3.org/1999/xlink" viewBox="0 0 1920 800"><defs><style>.cls-1{fill:#fff;}.cls-2{fill:#e4c781;}.cls-3{fill:#efe0bd;}.cls-4{fill:#daca98;}.cls-5{fill:#8c3d2b;}.cls-6{fill:#a86244;}.cls-7{clip-path:url(#clip-path);}.cls-8{fill:#f79a9f;}.cls-9{clip-path:url(#clip-path-2);}.cls-10{fill:#febcbd;}.cls-11,.cls-15,.cls-22{fill:#c9a27b;stroke:#c9a27b;}.cls-11,.cls-12,.cls-13{stroke-width:1.04px;}.cls-11,.cls-12,.cls-13,.cls-14,.cls-15,.cls-16,.cls-17,.cls-18,.cls-19,.cls-20,.cls-21,.cls-22,.cls-23,.cls-24,.cls-25,.cls-26,.cls-27,.cls-28{fill-rule:evenodd;}.cls-12,.cls-19,.cls-26{fill:#a7c83e;stroke:#a7c83e;}.cls-13,.cls-18,.cls-25{fill:#bad040;stroke:#bad040;}.cls-14{fill:#76b25d;}.cls-15,.cls-16,.cls-17,.cls-18,.cls-19,.cls-20,.cls-21{stroke-width:1.48px;}.cls-16,.cls-23{fill:#c3d444;stroke:#c3d444;}.cls-17,.cls-24{fill:#c2d344;stroke:#c2d344;}.cls-20,.cls-27{fill:#a3c63b;stroke:#a3c63b;}.cls-21,.cls-28{fill:#bbd041;stroke:#bbd041;}.cls-22,.cls-24,.cls-25,.cls-26,.cls-27,.cls-28{stroke-width:1.3px;}.cls-23{stroke-width:1.28px;}.cls-29{fill:#6f9662;}.cls-30{fill:#516d47;}.cls-31{fill:none;}.cls-32{fill:#ed7e69;}.cls-33{fill:#7ad7f4;}.cls-34{fill:#feecd4;}.cls-35{fill:#f7e484;}</style><clipPath id="clip-path"><polygon class="cls-1" points="550.1 588.44 550.1 596 364.56 628.99 360.62 620.2 550.1 588.44"/></clipPath><clipPath id="clip-path-2"><path class="cls-1" d="M550.1,588.44c-43.44-8.53-66.52-34.46-76.32-44.53-29.1-29.87-36.58-38.16-56.46-89.84-3.46-9-26.23-101.77-26.23-101.77L243.2,361.84c-3.75,24.75-2.11,54.89,5.57,91.43C271.58,561.92,331.75,610,355.31,625Z"/></clipPath></defs><g id="green"><path class="cls-2" d="M1915.52,402a507.33,507.33,0,0,1-147.46,90.64c-29.44,11.78-111.78,41.68-378.62,44.52-61.94.66-115.89-.33-197.29-3.18-280.52-9.82-311.44-21.59-463.31-24.64-212-4.27-378.74,14.1-459.33,24.64a2855,2855,0,0,0-338.77,65.2V898.33l2074.46-17.7L1967,402Z"/><path class="cls-3" d="M1904.89,462.81a1048.77,1048.77,0,0,1-175.36,64.4c-179.16,48.38-305.11,32.49-639.68,11.14-444.33-28.36-557-21.69-642.66-12.73C286.61,542.44,157.55,574,125.36,582.08a2182,2182,0,0,0-233.15,72.35l-10.77,179.69c246.53,40.37,432.68,23.51,558.36,0C558.23,812,582,791.56,753.08,752.22c177.3-40.76,309.53-55.12,511.14-76.33,170.37-17.92,395.26-36.28,663.59-43.72h67.75l-20.92-174.92Z"/><path class="cls-4" d="M199.87,640.51c17.49-29.41,120.85-30.21,215.47-6.36,92.56,23.34,169.1,54.49,159,84.28S430.23,750.63,339.8,720,183.79,667.55,199.87,640.51Z"/><polygon class="cls-5" points="573.16 582.08 573.96 597.18 379.95 618.65 380.75 610.7 573.16 582.08"/><polygon class="cls-6" points="581.2 701.96 567.62 709.02 385.08 350.82 398.66 343.75 581.2 701.96"/><polygon class="cls-1" points="550.1 588.44 550.1 596 364.56 628.99 360.62 620.2 550.1 588.44"/><g class="cls-7"><polygon class="cls-8" points="419.19 608.71 423.53 626 462.66 618.65 452.31 595.59 422.89 600.36 419.19 608.71"/><polygon class="cls-8" points="475.37 597.98 480.14 614.67 530.23 602.75 509.55 586.85 475.37 597.98"/></g><rect class="cls-6" x="481.73" y="627.1" width="8.69" height="173.51" transform="translate(-85.33 1361.44) rotate(-104.32)"/><rect class="cls-5" x="321.92" y="526.13" width="8.69" height="173.51" transform="translate(-186.85 1080.64) rotate(-104.32)"/><polygon class="cls-6" points="286.14 477.13 294.88 486.67 248.77 638.53 236.05 640.91 286.14 477.13"/><polygon class="cls-5" points="454.57 460.6 461.54 471.51 389.8 613.08 376.86 613.23 454.57 460.6"/><path class="cls-1" d="M550.1,588.44c-43.44-8.53-66.52-34.46-76.32-44.53-29.1-29.87-36.58-38.16-56.46-89.84-3.46-9-26.23-101.77-26.23-101.77L243.2,361.84c-3.75,24.75-2.11,54.89,5.57,91.43C271.58,561.92,331.75,610,355.31,625Z"/><g class="cls-9"><path class="cls-10" d="M468.21,614.67c-8.77-7.2-57.25-42.14-81.1-76.32-17.82-25.55-24.83-46.68-39-90.64-3-9.49-20.67-101-20.67-101l-29.42.8c4.52,25.18,12.75,65.27,21.55,102,26.15,109.24,101,159,107.88,173.46Z"/><path class="cls-10" d="M401.21,621.23c-8.77-7.2-54.47-52.87-69.76-79.22-15.64-27-30.28-69.23-36.78-99.91-2.06-9.75-7.33-35.54-15.62-70.59-1.15-4.89-2.12-8.9-2.77-11.58l-1.76-7-24.67,1.48c4.52,25.18,11.63,61.38,20.43,98.13,26.14,109.24,92.22,161.4,99.13,175.87Z"/><path class="cls-10" d="M536.59,604.34c-8.78-7.2-56.52-26.29-88.26-62.81-20.43-23.52-42-71.09-48.5-101.77C397.77,430,391.43,408,383.14,373c-1.16-4.88-2.54-12.43-3.18-15.11l-3.18-18.28L347.36,334c4.51,25.18,17,95.49,29.42,131.19,40.54,116.88,113.14,139,120.05,153.45Z"/></g><rect class="cls-6" x="315.95" y="337.34" width="14.03" height="432.22" transform="translate(-198.32 180.79) rotate(-24.17)"/><polygon class="cls-6" points="424.48 610.7 425.27 625.8 231.28 647.27 232.07 639.32 424.48 610.7"/><path class="cls-4" d="M595.62,642.78c10.9-18.73,61.13-22.36,105.09-10.47,43,11.64,77.6,28.59,70.27,47.32s-72.59,24.29-114,8.1S585.61,660,595.62,642.78Z"/><path class="cls-11" d="M1711.38,343.58l1-.32,6.91,1,6.91,1-1,.32.64,2,1.64,1.66,1.32.66.32,1,20.3,21.84a482.55,482.55,0,0,1,34,40.35q13.72,18.51,14.72,18.18a3.06,3.06,0,0,1,1.64,1.66l1.29,4q1.31,4,7.85,10.57,6.87,7.62,8.18,8.28c1.75.89,2.85.89,3.3,0l1-.33.32,1c.66-.21,1.31.67,2,2.65l1,3,1.32.66.32,1-2.3-.34c-1.54-.23-2.53.09-3,1q-1,.33,7.48,16.17L1838.3,497l1.3,4,13.67,28.38A495.33,495.33,0,0,1,1877,588.43a429.73,429.73,0,0,1,14.2,53.42q4.49,23.71,4.81,24.71l.65,2-14.84,4.86-1-3q0-3.28-3.83-21.75-4.17-19.44-14.52-54.4-10-34-17.84-51.13T1831,514.77l-6.19-12.22-1-3q-1.29-3.94-8.47-15.85l-7.18-11.89-.65-2a9.13,9.13,0,0,0-2.29-3.64l-1.31-.66c-.21-.66-1.09-1.11-2.63-1.34l-1.31-.66q.66-1.32-2.28-3.63l-2-2.65,1-.32.67-1.32-1,.33-2.59-7.92-1.64-1.65-2.63-1.33-1.63-1.66-2.92-8.9q-1-3-6.21-8.93l-5.23-5.95-1-3-1.32-.66-1.63-1.66-.65-2q-.33-1-14.72-18.19a346.87,346.87,0,0,0-30.12-31.76l-13.75-15.22-1.31-.67a3,3,0,0,1-1.64-1.65.92.92,0,0,0-1.31-.67,3,3,0,0,1-1.64-1.65l-1.31-.67,3.61,1C1709.18,343.57,1710.72,343.8,1711.38,343.58Z"/><path class="cls-12" d="M1642,265.51q2.65-5.25,7.64-13.46a164.94,164.94,0,0,1,14.92-18q10.57-7.85,25.11-17t44.22-18.86l28.69-9.39.65,2-4,1.3-.66,1.31L1757,195l-14.21,10.13q-13.23,9.81-13.89,11.12a3,3,0,0,1-1.65,1.64l-1,.32-.67,1.32-.66,1.31-1,.32-.67,1.32-.66,1.31-1,.32,1.31.67,1.31.66,5-1.62,26-.84q25-.53,36.21.19,10.2,1,11.19.72l1.31.66,1.32.67,2-.65,1.31.67,38.5,3.09-59.4,26.76q-25.77,15-37.64,18.89a108.26,108.26,0,0,1-17.16,7.81l-6.92,2.27.32,1,1.31.66.65,2,1-.32.32,1,1-.33.33,1,22.29,17.9q22.62,18.88,29.51,23.21,7.54,3,8.87,3.66l1.31.67,1-.32.32,1,1-.33.33,1,2-.65.32,1,1-.32.32,1-5.93,1.94-25.37,2.83q-26.36,3.15-29.32,4.12c-2.41-.67-3.95-.9-4.61-.68l-1,.32-1.31-.66-2.31-.34-3,1-6.91-1-6.91-1-1,.32a7.88,7.88,0,0,1-3.29,0l-2.31-.34-1.31-.66-.32-1-1,.32-1,.33-2.63-1.34h-3.29l-.32-1-1,.32-.65-2-.65-2-2.59-7.91a46.08,46.08,0,0,0-6.55-6.62q-3.27-3.31-6.86-10.9a57.64,57.64,0,0,0-8.49-12.56,15.92,15.92,0,0,0-12.49-4.68c-5,.2-8.12-.26-9.21-1.36-1.3-1.76-1.85-2.32-1.63-1.66a.93.93,0,0,1-.67,1.32l-1,.32-.32-1-.65-2a3,3,0,0,0-1.64-1.65,1.83,1.83,0,0,1-2.62-1.33q0-3.3.37-8.89l.69-4.61.66-1.31-.32-1A31.54,31.54,0,0,0,1642,265.51Z"/><path class="cls-12" d="M1634.54,306.3l1-.33.32,1-2,.65,0,3.29c-.22,1.54-.67,2.41-1.33,2.63l-.66,1.31,1-.32,1.31.66,1.31.67,1-.32,2-.65,1.32.66.32,1-.67,1.32.33,1c.21.65-.34,2.3-1.67,4.92s-2.56,6.69-3.69,12.17-1.15,9.87-.07,13.17l1.29,3.95a.91.91,0,0,1-1.31-.66l-1,.32.65,2a17.26,17.26,0,0,1,.63,5.27l-.34,2.31L1644,392q10,30.68,21.45,52.13,9.42,22.11,10.74,22.78l1.64,1.65,1.29,4,8.51,9.26q8.52,9.27,9.16,11.25l.33,1,1-.33.32,1,1-.32,1.3,4-2.31-.35-1.31-.66-2,.65-1.31-.67-1.32-.66-1,.32q-1,.33-9.53-2.36-7.56-3-19-8-12.15-7-22-13.62a153.92,153.92,0,0,1-20.31-18.54,127.61,127.61,0,0,1-14-26.09,69.38,69.38,0,0,1-5.46-26.69q.08-13.17,5.43-30.26l3.06-17.44,1-.32-.32-1,1-.32-.65-2,1-.33-.33-1,1-.32-1.29-4,.64,2-1,.32.33,1-1,.33.32,1-1,.32.33,1-1,.32.32,1-1,.33.33,1-1,.32-3.35,9.86q-5.64,9.52-5.65,9.52l.33,1-1,.32.32,1-1,.32.65,2-1,.33.33,1-1,.32.32,1-1,.32-.32-1-1,.33-1.62-4.95q-1.62-5-2.61-4.62c-.66.21-2.19-1.11-4.59-4q-4.59-4-7.56-3-1.32,2.63-3,1c-.88-.44-2.31-.34-4.29.31l-2,.65-.33-1c.66-.22,1.1-1.1,1.33-2.63a40.82,40.82,0,0,1,3-7.56,94.68,94.68,0,0,0,8.61-10.49,130.59,130.59,0,0,1,17.54-16.69l10.25-8.84,3-1,.67-1.31.66-1.32q1-.32,10.56-4.55l9.57-4.23,1-.32Zm-20,36.11a.92.92,0,0,1-1.31-.67l1-.32Z"/><path class="cls-13" d="M1633.74,270.41a6,6,0,0,0,4.61.68l2-.65.64,2a.91.91,0,0,1-.66,1.31q-1,.33-.7,7.9,0,6.58,1.94,5.94l2.63,1.33.65,2-1,.32.32,1-.66,1.31q-.68,1.32.63,5.28a48.4,48.4,0,0,0,3.9,8.58l1.62,4.94-1,.33-1.31-.67-2,.65-1.31-.67-1.32-.66-1,.32-3,1-3,1,.64,2-1,.32-1.31-.67-1.31-.66-1,.32-1-3,2-.64a3,3,0,0,0,1.65-1.64l-.65-2,2-.65-.32-1-1,.33-.33-1-1,.32-9.57,4.23q-9.57,4.23-10.56,4.55l-1.31-.66-1-3a10.17,10.17,0,0,1,.36-5.6q-1-3,3-7.55t7.29-7.87c1.54-2,2.44-4.81,2.68-8.54q-.63-5.28.7-7.9l1.33-2.63,2-.64A7,7,0,0,1,1633.74,270.41Z"/><path class="cls-14" d="M1574.64,364.25q1.63,1.65,3-1,3-1,7.56,3c2.4,2.87,3.93,4.19,4.59,4s1.53,1.32,2.61,4.62l1.62,4.95,1-.33.32,1-5.72,22.69a272.3,272.3,0,0,0-9.11,42.42q-2.42,19.42-2.12,27a68.6,68.6,0,0,1-.06,9.88l-.34,2.3,1,3-.34,2.3.33,1-2,.65-2-5.94q-2.92-5.61-9.07-27.7a359.35,359.35,0,0,1-8.37-35.61,127.64,127.64,0,0,1,1.8-28,111.39,111.39,0,0,1,5.38-20.38l3.67-8.87,2-.65C1572.33,363.91,1573.76,363.81,1574.64,364.25Z"/><path class="cls-14" d="M1657.3,359.1q5.22,9.24,9.79,16.51l3.24,9.89.32,1,1.32.67.65,2-2,.65.32,1-.67,1.31.33,1-1,.32-.32-1-1,.33-.33-1-1,.32-.32-1-1,.33-.32-1-1,.32-.33-1-1,.33-8.18-8.28a81,81,0,0,1-13.73-18.51l-5.55-10.24-1.29-3.95q-1.62-5,.07-13.17c1.13-5.48,2.35-9.54,3.69-12.17s1.88-4.27,1.67-4.92l-.33-1,.67-1.32-.32-1-1.32-.66-2,.65-.64-2,4-1.3,6.48,19.79Q1652.42,350.84,1657.3,359.1Z"/><path class="cls-12" d="M1647.45,292.21c1.09,1.1,4.17,1.56,9.21,1.36a15.92,15.92,0,0,1,12.49,4.68,57.64,57.64,0,0,1,8.49,12.56q3.58,7.59,6.86,10.9a46.08,46.08,0,0,1,6.55,6.62l2.59,7.91c.65,2,1.41,3.19,2.29,3.64l.32,1-2,.65q-1,.32,18.26,32.36,20.91,30.4,24.84,35.69c3.93,3.09,6,5,6.22,5.63l.65,2,1-.33.32,1,1-.32.65,2-6.93,2.27.33,1-1,.32.32,1-2,.65-1.31-.67-1.31-.66-1,.32L1733,423l-1.31-.66-1,.32-.32-1-1,.33-.33-1,1-.33a.92.92,0,0,0,.67-1.31l1-.32,1.31.66,1-.32-.65-2-1,.32-1.31-.66-1.31-.67-1,.33-1.32-.67-1.31-.67-1,.33q-1,.32-18.08-5a236.37,236.37,0,0,1-27.92-11.67l-12.15-7,1-.32a3,3,0,0,0,2.3.34.92.92,0,0,0,.67-1.31l-.32-1,2-.65-.65-2-1.32-.67-.32-1-3.24-9.89q-4.58-7.26-9.79-16.51-4.89-8.27-11-27.06l-6.48-19.79-3,1,2-.65,3-1,1-.32,1.32.66,1.31.67,2-.65,1.31.67,1-.33-1.62-4.94a48.4,48.4,0,0,1-3.9-8.58q-1.31-4-.63-5.28l.66-1.31.67-1.31,1-.33C1645.6,289.89,1646.15,290.45,1647.45,292.21Z"/><path class="cls-15" d="M1589.51,263.32l1.46-.23,9.48,3,9.48,3-1.47.24.47,2.92,1.93,2.69,1.69,1.23.24,1.47,23.61,35.24q23.63,35.24,38.75,64.33t16.6,28.85a4.25,4.25,0,0,1,1.93,2.7l.93,5.85q.95,5.85,8.65,16.62,8,12.24,9.65,13.47,3.39,2.46,4.62.76l1.46-.23.24,1.46c1-.16,1.69,1.23,2.16,4.15l.7,4.39,1.69,1.23.24,1.47-3.16-1c-2.11-.67-3.57-.43-4.39.7q-1.47.22,6.89,24.4,10,25.41,10,25.4l.94,5.86,12.84,43a705,705,0,0,1,20.07,88.31q7,43.89,8,78.23t1.2,35.81l.47,2.93-22,3.5-.7-4.39q.77-4.62-.5-31.42-1.5-28.28-8.2-79.7-6.46-50-13.58-75.84t-12.85-43l-5.95-18.55-.7-4.39q-.93-5.85-8.35-24.17l-7.42-18.32-.47-2.93a13.15,13.15,0,0,0-2.39-5.61l-1.7-1.23q-.24-1.47-3.39-2.46l-1.7-1.23c.82-1.13,0-3-2.39-5.62l-2.17-4.16,1.47-.23,1.23-1.7-1.47.24-1.86-11.71-1.93-2.69-3.39-2.46-1.93-2.69-2.1-13.17q-.69-4.39-6.72-13.93l-6-9.54-.7-4.39-1.69-1.23-1.93-2.69-.47-2.93q-.23-1.45-16.6-28.86a492.09,492.09,0,0,0-35.19-51.39l-15.9-24.47-1.69-1.23a4.26,4.26,0,0,1-1.93-2.69A1.31,1.31,0,0,0,1582,263a4.29,4.29,0,0,1-1.93-2.7l-1.69-1.23,4.85,2.23C1586.43,262.82,1588.53,263.48,1589.51,263.32Z"/><path class="cls-16" d="M1509.55,138.06q4.92-6.8,13.76-17.2a233.08,233.08,0,0,1,25-22q16.62-8.66,39.1-18.23t66.36-16.57l42.43-6.76.46,2.92-5.85.94-1.23,1.69-2.69,1.93-22.24,11q-20.79,10.81-22,12.51a4.25,4.25,0,0,1-2.7,1.93l-1.46.23-1.23,1.7-1.23,1.7-1.46.23-1.23,1.69-1.23,1.7-1.46.23,1.69,1.23,1.7,1.23,7.31-1.16,36.74,4.64q35.28,4.89,50.85,8.41,14.08,3.75,15.56,3.52l1.69,1.23,1.7,1.23,2.93-.47,32.12,12.58L1756,140.79l-39.57,15.31q-39.56,15.3-57.12,18.1-15.61,5.49-25.86,7.12L1623.21,183l.23,1.46,1.7,1.23.46,2.93,1.47-.23.23,1.46,1.46-.23L1629,191l27.31,30.15q27.54,31.62,36.25,39.23,9.95,5.91,11.64,7.14l1.7,1.23,1.46-.23.23,1.46,1.46-.23.24,1.46,2.92-.46.24,1.46,1.46-.23.23,1.46-8.77,1.4-36.28-1.72q-37.74-1.48-42.13-.79c-3.24-1.48-5.34-2.15-6.32-2l-1.46.23-1.7-1.23-3.15-1-4.39.7-9.48-3-9.48-3-1.46.23a11.14,11.14,0,0,1-4.62-.76l-3.16-1-1.7-1.23-.23-1.46-1.46.23-1.47.24-3.39-2.46-4.62-.77-.23-1.46-1.47.23-.46-2.92-.47-2.93-1.86-11.7a65.28,65.28,0,0,0-7.72-10.77q-3.86-5.38-7.19-16.86a82,82,0,0,0-9.11-19.55q-5.79-8.07-16.49-9.37t-12.64-4q-2.16-4.15-1.93-2.69a1.31,1.31,0,0,1-1.23,1.7l-1.46.23-.24-1.46-.46-2.93A4.3,4.3,0,0,0,1504,169a2.62,2.62,0,0,1-3.39-2.46q.76-4.62,2.52-12.4l2-6.32,1.23-1.7-.23-1.46A44.9,44.9,0,0,0,1509.55,138.06Z"/><path class="cls-17" d="M1489.91,193.69l1.46-.23.24,1.46-2.93.46-.76,4.63q-1,3.15-2.46,3.39l-1.23,1.69,1.46-.23,1.7,1.23,1.69,1.23,1.46-.23,2.93-.47,1.7,1.23.23,1.47-1.23,1.69.23,1.46c.16,1-1,3.16-3.45,6.56s-5.1,8.81-7.91,16.26-3.83,13.61-3.06,18.48l.93,5.86a1.31,1.31,0,0,1-1.69-1.23l-1.46.23.46,2.92a24.39,24.39,0,0,1-.3,7.55l-1,3.16,7,43.89q7.23,45.35,18.44,78.07,8.28,33.18,10,34.41l1.93,2.69.93,5.85,9.88,14.93Q1535,467,1535.43,470l.23,1.47,1.46-.24.23,1.47,1.47-.24.93,5.85-3.16-1L1534.9,476l-2.93.46-1.7-1.23-1.69-1.23-1.47.24q-1.45.23-12.86-5.45-9.95-5.93-25-15.53-15.49-12.53-27.83-24.06a219.7,219.7,0,0,1-24.38-30.62,181,181,0,0,1-13.84-39.8,98.47,98.47,0,0,1-1.68-38.73q3.06-18.49,14.42-41.3l8.21-23.81,1.47-.23-.24-1.47,1.46-.23-.46-2.93,1.46-.23-.23-1.46,1.46-.24-.93-5.85.47,2.93-1.47.23.24,1.47-1.47.23.24,1.46-1.47.23.24,1.47-1.47.23.24,1.46-1.47.24.24,1.46L1441,254l-6.91,13.1L1424,279.19l.23,1.46-1.46.24.23,1.46-1.46.23.46,2.93-1.46.23.23,1.46-1.46.24.23,1.46-1.46.23-.23-1.46-1.46.23-1.17-7.31c-.78-4.88-1.65-7.24-2.63-7.08s-2.82-2.05-5.55-6.62q-5.55-6.61-10-5.92c-1.63,2.27-3.1,2.5-4.38.7-1.13-.82-3.16-1-6.09-.53l-2.92.47-.24-1.46c1-.16,1.8-1.29,2.46-3.4a59.41,59.41,0,0,1,5.92-9.94,133.66,133.66,0,0,0,14.46-12.8q10.53-9.18,28.39-19.53l16.39-10.11,4.39-.7,1.23-1.69,1.23-1.7q1.45-.24,15.86-4l14.39-3.79,1.47-.23ZM1453.78,240a1.32,1.32,0,0,1-1.7-1.23l1.46-.24Z"/><path class="cls-18" d="M1496.85,143.08c2.26,1.64,4.37,2.31,6.32,2l2.92-.46.47,2.92a1.32,1.32,0,0,1-1.23,1.7q-1.47.24-2.76,10.94-1.53,9.24,1.4,8.78l3.39,2.46.47,2.92-1.47.24.24,1.46-1.23,1.7q-1.23,1.7-.3,7.54a68.76,68.76,0,0,0,3.56,12.94l1.17,7.31-1.47.23-1.69-1.23-2.93.47-1.69-1.23-1.7-1.23-1.46.23-4.39.7-4.39.7.46,2.93-1.46.23-1.69-1.23-1.7-1.23-1.46.23-.7-4.38,2.92-.47a4.29,4.29,0,0,0,2.7-1.93l-.47-2.93,2.93-.46-.24-1.46-1.46.23-.23-1.46-1.47.23-14.39,3.79q-14.4,3.8-15.86,4l-1.7-1.23-.7-4.39q-.46-2.92,1.76-7.78-.69-4.4,5.92-9.94t12-9.42q3.93-3.61,5.68-11.4.3-7.55,2.76-10.94l2.46-3.39,2.93-.47A10,10,0,0,1,1496.85,143.08Z"/><path class="cls-19" d="M1392.74,261.67c1.28,1.8,2.75,1.57,4.38-.7q4.39-.69,10,5.92,4.1,6.86,5.55,6.62c1-.16,1.85,2.2,2.63,7.08l1.17,7.31,1.46-.23.23,1.46L1405,319.73a388.59,388.59,0,0,0-22.34,57.56q-7.74,26.73-9,37.44t-2.29,13.86l-1,3.16.7,4.39-1,3.16.24,1.46-2.93.47-1.4-8.78q-2.87-8.54-6.52-41t-3.77-51.9a180.83,180.83,0,0,1,8.8-38.91q6.21-17.49,12.13-27.43l7.15-11.64,2.92-.47C1389.58,260.68,1391.61,260.85,1392.74,261.67Z"/><path class="cls-20" d="M1510,273q5.26,14.16,10,25.4l2.33,14.63.24,1.46,1.69,1.23.47,2.92-2.93.47.24,1.46-1.23,1.7.23,1.46-1.46.24-.24-1.47-1.46.24-.23-1.47-1.47.24L1516,320l-1.46.24-.24-1.47-1.46.24-.23-1.47-1.46.24-9.65-13.47a115.24,115.24,0,0,1-15.14-29.09l-5.49-15.62-.93-5.86q-1.15-7.31,3.06-18.48T1491,219c2.46-3.4,3.61-5.58,3.45-6.56l-.23-1.46,1.23-1.69-.23-1.47-1.7-1.23-2.93.47-.46-2.93,5.85-.93,4.66,29.26Q1505,260.29,1510,273Z"/><path class="cls-21" d="M1511.22,176.79q1.93,2.7,12.64,4t16.49,9.37a82,82,0,0,1,9.11,19.55q3.33,11.48,7.19,16.86a65.28,65.28,0,0,1,7.72,10.77l1.86,11.7q.7,4.4,2.4,5.62l.23,1.46-2.93.47q-1.46.24,18.4,49.57,22.56,47.42,26.88,55.72,7.24,7.85,7.48,9.31l.47,2.93,1.46-.24.24,1.47,1.46-.24.47,2.93-10.24,1.63.23,1.46-1.46.24.23,1.46-2.93.47-1.69-1.23-1.7-1.23-1.46.23-1.7-1.23-1.69-1.23-1.47.23-.23-1.46-1.46.23-.24-1.46,1.47-.23a1.32,1.32,0,0,0,1.23-1.7l1.46-.23,1.7,1.23,1.46-.24-.47-2.92-1.46.23-1.7-1.23-1.69-1.23-1.47.24-1.69-1.23-1.7-1.23-1.46.23q-1.47.23-24.28-11.13A337.45,337.45,0,0,1,1531.77,334l-15.5-12.53,1.47-.24a4.29,4.29,0,0,0,3.16,1,1.32,1.32,0,0,0,1.23-1.7l-.24-1.46,2.93-.47-.47-2.92-1.69-1.23-.24-1.46-2.33-14.63q-4.78-11.25-10-25.4-5-12.71-9.45-40.5l-4.66-29.26-4.39.7,2.93-.47,4.39-.7,1.46-.23,1.7,1.23,1.69,1.23,2.93-.47,1.69,1.23,1.47-.23-1.17-7.31a68.76,68.76,0,0,1-3.56-12.94q-.93-5.85.3-7.54l1.23-1.7,1.23-1.7,1.46-.23Q1509.07,172.63,1511.22,176.79Z"/><path class="cls-22" d="M326.71,212.8l3.84-2.26-1.32,1.22a4,4,0,0,1-1.44,2.6c-.8-.12-1.24.29-1.32,1.21a4,4,0,0,1-1.44,2.61l-1.32,1.21L312,243a465.82,465.82,0,0,0-26.14,49.62q-12,26.37-12.1,27.75l-.24,2.78-1.44,2.6L270.73,327l-.36,4.16-4.43,9.19q-4.44,9.19-4.79,13.36l-1.07,12.48-1.44,2.6L256,371.18l-1.44,2.61-.95,11.09-1.2-.17,1.08,1.56,1.2.17-1.56,4c-1.84,2.54-2.39,4.34-1.67,5.37L250.14,397q-2.52,1.05-2.64,2.43l-1.32,1.22A13.35,13.35,0,0,0,244.5,406l-.24,2.78-5.14,17.51q-5.16,17.52-5.63,23.07l-.35,4.16-3.95,17.68q-3.83,16.31-8.37,40.92t-7.38,72q-3,48.71-2.81,75.4.27,25.31,1.11,29.64l-.35,4.16-18-2.57.24-2.77q.12-1.4-.76-33.8t2.69-74a756.35,756.35,0,0,1,12.05-83.92L216,455.32l.48-5.55s2.31-8.09,6.94-24.27q5.63-23.07,4.42-23.24-1.08-1.56-3.6-.51l-2.52,1,.12-1.38,1.32-1.22.35-4.16q.36-4.15,1.56-4l.12-1.39,1.2.18q1.08,1.55,3.72-.88,1.32-1.21,7.2-13,5.74-10.41,6.23-16l.47-5.55a4,4,0,0,1,1.44-2.6q1.2.17,12.1-27.75a667.79,667.79,0,0,1,28.41-61.94l17.5-34,.12-1.39,1.32-1.21,1.44-2.61.24-2.77-1.2-.17,7.56-3.14,7.57-3.13,1.2.17C322.47,215,324.15,214.31,326.71,212.8Z"/><path class="cls-23" d="M387.51,96.71l-.07,1.39,1.11,1.52,2.07,5.81q2,7.2,3,11.49c-.1,1.85-.93,2.7-2.49,2.53a4.12,4.12,0,0,0-1.32,2.66l-.13,2.78-.07,1.39-1.18-.13c-.78-.08-1.15-.58-1.1-1.51s-.4,0-1.32,2.66q-1.31,2.65-9.67,4.56A17.58,17.58,0,0,0,364,141.74a85.07,85.07,0,0,0-5.66,19q-1.73,11-4.34,16.31a62.1,62.1,0,0,0-5.25,10.63l-.55,11.12-.14,2.78-.13,2.78-1.18-.13-.07,1.39-3.59,1-2.49,2.53-1.18-.12-1.17-.12-.07,1.39L337,211.55l-2.42,1.14a7.58,7.58,0,0,1-3.6,1l-1.18-.12L322.51,217l-7.26,3.43-3.53-.37-2.42,1.14-1.25,1.27-1.17-.13c-.78-.08-2.4.68-4.84,2.29q-3.53-.37-33.26,3.47l-28.56,4-7.06-.74.07-1.39,1.18.12.07-1.39,2.35.25.07-1.39,1.17.12.07-1.39,1.18.13,1.24-1.27q1.24-1.26,8.64-7.47,6.28-7.72,25.56-39.23L294,148.32l.07-1.39,1.17.13.07-1.39,1.18.12.13-2.78,1.25-1.27.07-1.39-8.23-.87q-8.24-.87-21-5Q254.54,133,222,121.16l-69.24-12.81,37.75-19.86,1.25-1.26,2.35.24,1.24-1.26,1.25-1.27q1.17.12,12-4.32,12-4.32,39.55-11.19l28.69-6.76,5.88.63L284,62l1.24-1.27-1.17-.12L283,59.12l-1.11-1.51-1.17-.12L279.6,56l-1.11-1.51-1.18-.13A3.47,3.47,0,0,1,275,52.69q-1.11-1.5-18.4-10.32l-18.47-8.94-2.28-1.64-1.11-1.51-4.7-.5L230.2,27l34.1,3.6q35.26,3.72,53.81,11.27t32.37,14.6a199.67,199.67,0,0,1,21.52,19q7.83,9.21,12.25,15.27A44.65,44.65,0,0,0,387.51,96.71Z"/><path class="cls-24" d="M399.43,144.55l1.2.17,11.9,3.09q11.89,3.1,13.09,3.27l1.08,1.56,1.09,1.56,3.6.51,13.82,9q15,9.15,24,17.46a118.64,118.64,0,0,0,12.38,11.59,58.7,58.7,0,0,1,5.3,9.17c.64,2,1.36,3,2.16,3.12l-.12,1.39-2.4-.35q-3.6-.51-4.92.71-1.44,2.6-3.61-.52-3.6-.51-7.8,5.91c-2,4.4-3.39,6.54-4.2,6.42s-1.39,2.14-1.79,6.76l-.59,6.94-1.21-.17-.11,1.38-1.21-.17.12-1.38-1.2-.17.12-1.39-1.2-.17.24-2.78-1.2-.17.11-1.38-1.2-.17.12-1.39-8.78-11.08L442,201.14,440.8,201l.12-1.39-1.2-.17.12-1.38-1.2-.18.12-1.38-1.2-.17.12-1.39-1.21-.17.12-1.39-1.2-.17.24-2.77-.48,5.54,1.21.18-.12,1.38,1.2.17-.24,2.78,1.2.17-.12,1.39,1.2.17,7.83,22.17q10.35,21.12,13.73,38.45a107.19,107.19,0,0,1,.52,36.57,189.49,189.49,0,0,1-9.33,38A203.68,203.68,0,0,1,433.88,367q-9.48,11.28-21.48,23.61-11.76,9.56-19.56,15.47-9,5.73-10.21,5.56l-1.2-.17-1.32,1.22-1.32,1.21-2.4-.34-1.32,1.22-2.52,1,.47-5.55,1.21.18.11-1.39,1.21.17.11-1.39q.24-2.78,7.55-17.17l7.32-14.4.47-5.55,1.44-2.6q1.32-1.22,6.46-32.77,7.53-31.22,11.21-74.21l3.57-41.6-1-2.95a26.6,26.6,0,0,1-.6-7.1l.23-2.78-1.2-.17c-.08.93-.52,1.33-1.32,1.22l.48-5.55q.58-6.93-3.38-17.32t-7.22-15.07q-3.26-4.68-3.13-6.06l.12-1.39-1.09-1.55.12-1.39,1.32-1.22,2.41.34,1.2.18,1.32-1.22,1.32-1.22,1.2.17-1.08-1.55c-.81-.12-1.53-1.16-2.17-3.12l-.84-4.33-2.41-.34.12-1.39,1.2.17ZM431.06,187l1.2.17c-.08.93-.52,1.33-1.32,1.22Z"/><path class="cls-25" d="M397.46,96.54l2.41.34L402,100q2.16,3.1,2.77,10.22,1.81,7.27,5.18,10.56,4.56,3.45,10.22,8.47t5.29,9.18c1.36,3,2,5.43,1.81,7.28l-.36,4.16-1.32,1.21q-1.2-.17-13.09-3.27l-11.9-3.09-1.2-.17-.12,1.38-1.2-.17-.12,1.39,2.41.34-.24,2.77a3.55,3.55,0,0,0,2.28,1.73l2.4.34-.35,4.16-1.2-.17L402,157.54l-1.32,1.22-1.2-.18.23-2.77-3.6-.51-3.6-.52-1.21-.17L390,155.83l-1.32,1.22-2.4-.35-1.32,1.22-1.2-.17.59-6.94a71.61,71.61,0,0,0,2.27-12.31c.32-3.7.12-6.06-.6-7.1l-1.09-1.56.12-1.39-1.2-.17.24-2.77,2.64-2.43q2.4.33.71-8.32-1.58-10-2.77-10.23c-.8-.11-1.16-.63-1.08-1.55l.23-2.78,2.41.35c1.6.22,3.28-.47,5-2.09A7.25,7.25,0,0,1,397.46,96.54Z"/><path class="cls-26" d="M486.57,206.08l2.4.35,6.38,10.73q5.29,9.18,11.2,25.46a196,196,0,0,1,9,36.38q.85,18.38-.55,49.05t-3.33,38.83L511,375.2l-2.4-.34.11-1.39-1-2.94.36-4.16-1-2.95a107.68,107.68,0,0,1-2.53-13q-1.58-10.05-9.16-35a408.49,408.49,0,0,0-21-53.52l-12.15-28.41.11-1.38,1.21.17.59-6.94c.4-4.62,1-6.87,1.79-6.76s2.2-2,4.2-6.42q4.2-6.42,7.8-5.91,2.18,3.12,3.61.52Q483,205.58,486.57,206.08Z"/><path class="cls-27" d="M392.5,182.86l2.38-27.73,4.8.68-.23,2.77-2.41-.34-1.32,1.22-.12,1.39,1.09,1.55-.12,1.39q-.12,1.38,3.13,6.06t7.22,15.07q4,10.38,3.38,17.32l-.48,5.55-3.71,14.91a114.47,114.47,0,0,1-10.9,27.93l-7.19,13-1.21-.17-.11,1.39-1.21-.17-.11,1.38-1.21-.17-.11,1.39-1.21-.17-.11,1.39-1.21-.18-.11,1.39-1.21-.17.12-1.39-1.08-1.55.12-1.39-2.4-.34.23-2.78,1.32-1.21.12-1.39,1.19-13.87q3.36-10.75,6.94-24.28Q390.25,209.21,392.5,182.86Z"/><path class="cls-28" d="M382.6,128.11l1.2.17,1.08,1.56L386,131.4c.72,1,.92,3.4.6,7.1a71.61,71.61,0,0,1-2.27,12.31l-.59,6.94,1.2.17,1.32-1.22,2.4.35,1.32-1.22,1.32-1.22,1.21.17,3.6.52,2.4.34-3.6-.51-2.38,27.73q-2.25,26.35-5.73,38.49-3.58,13.53-6.94,24.28l-1.19,13.87-.12,1.39-1.32,1.21-.23,2.78,2.4.34-.12,1.39c-.08.92.28,1.44,1.08,1.55a3.11,3.11,0,0,0,2.52-1l1.21.17-12,12.33a268.43,268.43,0,0,1-28.69,22.59q-18,11.46-19.2,11.3l-1.21-.17-1.32,1.21-1.32,1.22-1.2-.17-1.32,1.21L316.48,318l-1.2-.17-.24,2.77,1.2.17,1.32-1.21,1.21.17q-.12,1.38,1.08,1.56l1.2.17-.12,1.38-1.2-.17-.12,1.39-1.2-.17-1.32,1.21-1.32,1.22-1.2-.17-1.32,1.22-1.32,1.21-2.4-.34.11-1.39-1.2-.17.12-1.39-8.41-1.19.24-2.78,1.2.17.12-1.38,1.2.17.24-2.78q.12-1.38,5.64-9,3.1-8,19.16-53.42,13.77-47.18,12.57-47.34l-2.4-.34.11-1.39q1.32-1.22,1.68-5.38l.95-11.09a61.47,61.47,0,0,1,5.76-10.41q2.86-5.2,5-16.13a82.71,82.71,0,0,1,6.46-18.73,17.82,17.82,0,0,1,13-9.39q8.64-1.57,10.08-4.18C382.2,128.05,382.68,127.19,382.6,128.11Z"/><path class="cls-29" d="M1901.91,843.91A613.15,613.15,0,0,0,1835,733.13c-35.66-46.71-71.71-78.89-100.39-100.5a533.48,533.48,0,0,1,24.82,48.73c27,60.41,48.42,195.51,54.94,242.49l102.8-37Z"/><path class="cls-30" d="M1742.2,931.38l47.93-33.13a5.19,5.19,0,0,0,1.48-1.58l25.54-42.79a5.2,5.2,0,0,0-.76-6.26L1795.55,826a5.14,5.14,0,0,1,.8-7.9L1834.57,793a5.16,5.16,0,0,0,.38-8.31l-25.71-21.46a5.41,5.41,0,0,0-2.87-1.23l-42.59-4.63a5.25,5.25,0,0,1-3.25-8.92l18.71-18.13a5.2,5.2,0,0,0-1.15-8.25L1747,704.33a5.29,5.29,0,0,0-4.47-.39l-22,8a5.32,5.32,0,0,1-6.69-7.14l14.81-31.76a5.23,5.23,0,0,0-2.13-6.7L1710.89,657a5.27,5.27,0,0,0-6,.36l-19.37,15.37c-4.28,3.4-10.39-1.31-8.15-6.28l8.17-18.15a5.26,5.26,0,0,0-3-7.05l-29.16-10.91a5.26,5.26,0,0,0-4.71.49l-4.16,2.7a5.33,5.33,0,0,1-7.94-6.08h0a5.3,5.3,0,0,0-4-6.78l-35.53-7.85a5.15,5.15,0,0,0-6.22,4l-5.93,31.9a5.33,5.33,0,0,0,5.48,6.24l3.57-.14a5.27,5.27,0,0,1,4.3,8.67l-13.57,15.33a5,5,0,0,0-1.22,2.63l-3.5,24a5.34,5.34,0,0,0,5.12,6l16.61.58c5.5.19,7.2,7.55,2.28,9.89l-14.64,7a5.11,5.11,0,0,0-2.4,6.81l9.61,20.45a5.39,5.39,0,0,0,5.59,3l36.12-5a5.31,5.31,0,0,1,5.46,7.71l-17.82,32.37a5.21,5.21,0,0,0,1,6.27l14.64,14a5.33,5.33,0,0,0,5.79,1.07l22-9.5a5.34,5.34,0,0,1,7.38,5.66l-7.68,50a5.33,5.33,0,0,0,3.91,5.9l73.49,19.77a5.28,5.28,0,0,1,3.4,7.47l-15.41,29.66C1731.94,929.46,1737.72,934.48,1742.2,931.38Z"/><path class="cls-31" d="M632.49,680.8A67.2,67.2,0,1,1,713.43,631a67.2,67.2,0,0,1-80.94,49.8Z"/><path class="cls-32" d="M690.77,600.1c-8.42-20.06-23.82-38.27-44.6-46-4.79-1.33-9.91-4.07-14.89-2.27C609,557.51,590.51,575.71,584.64,598a65.58,65.58,0,0,0-.7,32.16c14.66-15.69,34.84-25.36,55.55-30.22,15.43-3,31.63-.6,46.07,5.36l5.21-5.16Z"/><path class="cls-33" d="M705.7,647.15c2-19.49-9.49-38.68-9.49-38.68l-8.76,3.13s-2.19,21.18-41.42,41.67c-17.2,9-29.13,12.77-40.23,12.57a65.79,65.79,0,0,0,99.9-18.69Z"/><path class="cls-34" d="M687.87,612.89l-1-9.42s-25.11-20.87-81.72-4.26a118.6,118.6,0,0,0-22.62,10.2,65.78,65.78,0,0,0,30.7,61c23.08-3.27,61.54-17.94,74.62-57.48Z"/><path class="cls-35" d="M713.84,616.81a65.9,65.9,0,0,0-31.39-57.47c9.42,17.33,9.93,34.57,8.13,43l4.31,5,19,9.47Z"/><path class="cls-34" d="M712.05,630.67a65.84,65.84,0,0,0,1.77-17.07,28.06,28.06,0,0,0-17-6.83l-2.67,4.34a63.57,63.57,0,0,1,8,27.71,39,39,0,0,1-3.38,17.53c-.28.79-1.4,3.06-.08,1.18a65.52,65.52,0,0,0,13.44-26.86Z"/><path class="cls-34" d="M692.25,597.77s8.41-18.64-6.83-36.5h0a65.88,65.88,0,0,0-60.7-7.33l.17.08c24.09-.47,51.19,20.33,60.74,41l6.64,2.81Z"/><path class="cls-1" d="M692.8,618.39c-6.91,1.77-13.75-3.23-15.29-11.15s2.81-15.79,9.72-17.55,13.75,3.22,15.29,11.15-2.81,15.78-9.72,17.55Z"/><path class="cls-29" d="M38.45,754.07l41.37,31.76a4.56,4.56,0,0,0,1.75.83l43.54,10.45a4.64,4.64,0,0,0,5.14-2.26l12.86-23.12a4.65,4.65,0,0,1,7-1.35l31.85,25.67a4.64,4.64,0,0,0,7.2-1.83l11.37-27.16a4.64,4.64,0,0,0,.26-2.73l-7.62-37a4.64,4.64,0,0,1,6.75-5l20.59,11.05a4.65,4.65,0,0,0,6.74-3.1L234,699.55a4.69,4.69,0,0,0-.88-3.86L220.2,679.25a4.65,4.65,0,0,1,4.28-7.47l31.2,4.26a4.64,4.64,0,0,0,5.15-3.52L264.56,657a4.64,4.64,0,0,0-1.93-5l-18.42-12.32a4.65,4.65,0,0,1,3.16-8.47l17.74,2.18a4.65,4.65,0,0,0,5.21-4.37l1.4-27.34a4.66,4.66,0,0,0-1.7-3.84l-3.44-2.8a4.65,4.65,0,0,1,3-8.25h0a4.64,4.64,0,0,0,4.72-5.07l-2.95-31.91a4.65,4.65,0,0,0-5.15-4.19l-28.89,3.24a4.65,4.65,0,0,0-3.84,6.22l1.09,3a4.65,4.65,0,0,1-6.25,5.85l-16.8-7.46a4.57,4.57,0,0,0-2.58-.34l-21.43,3.23a4.65,4.65,0,0,0-3.78,5.87l4,14.12a4.65,4.65,0,0,1-7.84,4.47l-10-10.51a4.65,4.65,0,0,0-6.47-.26l-14.88,13.36a4.65,4.65,0,0,0-1.08,5.48L161.61,621a4.64,4.64,0,0,1-5.11,6.57L124,620.92a4.64,4.64,0,0,0-5.08,2.47l-8,15.92a4.62,4.62,0,0,0,.66,5.14l14.11,16.07a4.64,4.64,0,0,1-2.84,7.66L78,674.61a4.65,4.65,0,0,0-4,4.81l3.08,66.9a4.65,4.65,0,0,1-5.47,4.79l-29.55-5.3A4.65,4.65,0,0,0,38.45,754.07Z"/><path class="cls-30" d="M84.56,781.89l41.37,31.77a4.63,4.63,0,0,0,1.75.83l11,29.32c2,.49,36.66-19.31,37.67-21.13l12.86-23.12a4.64,4.64,0,0,1,7-1.36l31.85,25.67a4.64,4.64,0,0,0,7.2-1.82l11.37-27.16a4.64,4.64,0,0,0,.27-2.73l-7.62-37a4.65,4.65,0,0,1,6.75-5l20.59,11.06a4.65,4.65,0,0,0,6.74-3.1l6.71-30.69a4.62,4.62,0,0,0-.88-3.86l-12.87-16.44a4.65,4.65,0,0,1,4.29-7.47l31.2,4.26a4.64,4.64,0,0,0,5.14-3.52l3.74-15.57a4.64,4.64,0,0,0-1.94-4.94l-18.41-12.32a4.65,4.65,0,0,1,3.15-8.48l17.75,2.19a4.65,4.65,0,0,0,5.21-4.37l1.4-27.34a4.66,4.66,0,0,0-1.71-3.84l-3.43-2.8a4.65,4.65,0,0,1,3-8.25h0a4.65,4.65,0,0,0,4.73-5.07l-3-31.91a4.65,4.65,0,0,0-5.14-4.19l-28.89,3.24a4.65,4.65,0,0,0-3.85,6.22l1.09,3a4.64,4.64,0,0,1-6.24,5.85l-16.81-7.46a4.66,4.66,0,0,0-2.58-.35l-21.43,3.24a4.66,4.66,0,0,0-3.78,5.87l4,14.12a4.65,4.65,0,0,1-7.84,4.47l-10-10.51a4.65,4.65,0,0,0-6.48-.26l-14.87,13.36a4.65,4.65,0,0,0-1.08,5.48l14.06,29.1a4.64,4.64,0,0,1-5.11,6.57l-32.53-6.62a4.64,4.64,0,0,0-5.08,2.47l-8,15.91a4.66,4.66,0,0,0,.66,5.15l14.11,16.06A4.65,4.65,0,0,1,169,696l-44.82,6.43a4.64,4.64,0,0,0-4,4.81l3.07,66.9a4.65,4.65,0,0,1-5.46,4.79l-29.56-5.31A4.65,4.65,0,0,0,84.56,781.89Z"/><path class="cls-29" d="M182.43,837.75A509.24,509.24,0,0,1,366.09,679.53a422.18,422.18,0,0,0-28.62,37.36c-31.73,46.56-62.13,132.74-72.36,169.86l-117.67,3.18Z"/><path class="cls-29" d="M313.29,816.55a579.13,579.13,0,0,1,85.11-87.78c42.74-35.42,82.76-57.39,113.75-71.2A504.63,504.63,0,0,0,479,697.16C441.28,747,426.59,844.89,410.61,886.75H273.86Z"/></g></svg>
