<?xml version="1.0" encoding="utf-8"?>
<!-- Generator: Adobe Illustrator 25.2.3, SVG Export Plug-In . SVG Version: 6.00 Build 0)  -->
<svg version="1.1" id="Layer_1" xmlns="http://www.w3.org/2000/svg" xmlns:xlink="http://www.w3.org/1999/xlink" x="0px" y="0px"
	 viewBox="0 0 1920 800" style="enable-background:new 0 0 1920 800;" xml:space="preserve">
<style type="text/css">
	.st0{fill:#A2D6D9;}
	.st1{fill:#F2EEE8;}
	.st2{opacity:0.1;enable-background:new    ;}
	.st3{fill:#FFCCCC;}
	.st4{fill:#FAFBFF;}
	.st5{fill:#BCE6D8;}
	.st6{fill:#4BD1C6;}
	.st7{fill:#FFFEFA;}
</style>
<path class="st0" d="M676,467c689.1-14.5,960.8-13,1045.6-6c97.9,8.1,131.2,8.7,197.8,10c57.8,1.1,86.7,1.7,109.3,0
	c41.7-3.1,52.4-7.5,65-2c36.1,15.8,37.3,91.4-8.3,129c-52.4,43.2-156,27.7-279.4,16c-253.3-23.9-64.6,18.3-782.8-18
	c-79.9-4-193.5-10.2-330.6-19"/>
<path class="st1" d="M1681.2,483c-7.1,5.4-19.1,14.4-33.7,25.7c-88.8,68.4-112.6,95.3-166.1,129.2c-25.2,16-80.3,49.2-81.7,50.1
	l-31.3-52.6c0,0,72.2-82.9,161.5-157.4c-10.9,1.2-22.4,2.5-34.8,3.8c-30.5,27.3-82.6,71.4-148.5,113.6
	c-25.2,16.1-80.1,49.6-81.4,50.4l-30.3-51.1c0,0,43.9-50,105.5-107.3c-61.8-9.2-111.2-8.7-145.2-6.5c-42.9,2.7-79.8,9.4-135.4,0
	c-28.3-4.8-19.5-6.6-56.8-14c0,0-68.6-14.4-166-11.5c-25.6,0.8-16.4,2.3-56.5,4.8c-45.9,2.8-108.7,3.9-203-2
	c-99.5-6.2-91.4,3.3-348.3,3C-5.3,461.1-26.4,452.2-65.5,479c-100.7,69.1-144.3,254.6-76.7,348c68.2,94.3,198.7,24.4,558.2,37
	c401.1,14,529.9,111.1,860.7,56.3c78.2-13,99.1-23,208.3-38.8c290.1-42,372.6-10.2,445-81.5c82.2-81,91.7-241.2,34.8-291
	c-18.3-16.1-54.3-18.9-125.5-24C1786.8,481.2,1733.9,480.6,1681.2,483z"/>
<path class="st1" d="M1368.3,635.4l31.3,52.6c1.3-0.8,56.4-34.1,81.7-50.1c48.3-30.6,81.4-63.7,166.1-129.2
	c15-11.6,27.2-20.8,33.7-25.7c-28.6-2.5-58.8-4.3-90.6-5c-20.9-0.5-41.2-0.4-60.7,0.1c-20.7,16.6-42.1,34.8-63.8,54.9
	C1431.4,565.1,1398.8,599.3,1368.3,635.4z"/>
<path class="st2" d="M1368.3,635.4l31.3,52.6c1.3-0.8,56.4-34.1,81.7-50.1c48.3-30.6,81.4-63.7,166.1-129.2
	c15-11.6,27.2-20.8,33.7-25.7l-2.2-0.4c0,0-9.9-1.7-20.7-2.6c-8.4-0.7-59-1.9-128.4-1.9c-19.7,17-39.6,35-59.8,53.9
	C1432.9,567,1399.1,601.7,1368.3,635.4z"/>
<path class="st1" d="M1234.9,594.8l30.3,51.1c1.3-0.8,56.2-34.3,81.4-50.4c65.9-42.1,118-86.3,148.5-113.6
	c-17.7,1.9-37,3.6-58.7,4.6c-39.1,1.8-68.6,2.4-95.9,1.1C1278.8,544.8,1234.9,594.8,1234.9,594.8z"/>
<path class="st2" d="M1234.9,594.8l30.3,51.1c1.3-0.8,56.2-34.3,81.4-50.4c65.9-42.1,118-86.3,148.5-113.6
	c-17.7,1.9-37,3.6-58.7,4.6c-39.1,1.8-68.6,2.4-95.9,1.1C1278.8,544.8,1234.9,594.8,1234.9,594.8z"/>
<path class="st3" d="M1216.1,630.6L1216.1,630.6c0,0-28.2-129.4-14.7-247.4c4.1-35.5,14-88.3,42-151.6l3.1-5.6l21.2-38.6
	c8.8,12.8,16.5,26.3,22.8,40.5c5.8,13.1,10.5,26.6,14,40.5c12.9,48.9,15.9,99.1,16.2,104.5c1.6,28.5,5,97.4-11.8,179.6
	c-5.2,25.5-18.1,80.4-18.4,81.7l0,0L1216.1,630.6z"/>
<path class="st4" d="M1253,632.2l10.7-437.5l4-7.2l4.6,6.3l-10.4,438.4"/>
<path class="st5" d="M1334.1,683.6c0,0-34.6-158.5-18-302.9c5-43.5,17.2-108.2,51.4-185.7c1.3-2.3,2.5-4.5,3.7-6.8
	c8.7-15.8,17.3-31.5,26-47.3c10.9,15.6,20.2,32.2,28,49.6c7.1,16,12.8,32.6,17.1,49.6c15.8,59.9,19.5,121.3,19.8,128
	c2,34.8,6.1,119.3-14.4,219.9c-6.4,31.2-22.2,98.4-22.5,100L1334.1,683.6z"/>
<polyline class="st6" points="1379.3,685.5 1392.4,152.9 1397.3,141 1403.3,152.8 1390.2,685.4 "/>
<polygon class="st4" points="1373.5,184.1 1358.8,685.5 1366.2,685.5 1380.7,171 "/>
<polygon class="st4" points="1415.5,171 1399.4,688.1 1407.4,688.1 1422,183.8 "/>
<path class="st1" d="M1186,660.2c4.7-8,13.7-20.7,28.7-30c20-12.5,38.9-11.5,49.1-10.8c12.9,0.9,24,1.6,34.8,10.8
	c13.5,11.5,17.3,28.6,18.4,34.7"/>
<path class="st1" d="M1302.9,713.1c4.4-12,14.8-34.2,37.6-46c18.2-9.5,35.3-7.6,69.5-3.8c23.7,2.6,35.8,4.1,47.9,13.1
	c17.9,13.4,23.5,33.5,25.3,42.2"/>
<path class="st0" d="M113.4,427.1c52.9-7,76.5,17.5,122.9,0.7c30.8-11.2,53.8-32.1,61.8-39.5c20.8-19,18.5-25,39.5-48.9
	s56.5-64.5,105.6-67.6c25-1.6,50.6,4.9,50.8,10.2c0.1,2.5-5.5,3.2-15.5,10.4c-4.9,3.5-13.7,10-19.9,20.7c-2.4,4.1-8,14-7.4,27.4
	c0.7,17,11,28.3,14.5,32.1c12,13.1,26.7,16.8,34.8,18.8c10.5,2.6,21.4,3.1,32.1,1.6c13.2-2,22-6.9,63.7-35.2
	c26.8-18.2,26.5-18.4,30.9-20.3c29.4-12.8,56.5-7.6,65.7-5.5c21.3,5,45.4,17.8,44.2,27.4c-0.6,4.5-6.2,4.5-16,15.6
	c-4.6,5.1-8.5,10.9-11.4,17.2c-3.3,7.5-6.2,14.1-4.3,21.9c3,12.5,15.6,17.9,16.8,18.4c11.1,4.6,21.6,0.6,26.2-1.2
	c10.7-4.1,19.7-12.6,25.4-18c4.7-4.4,4.6-5.1,6.7-5.9c8.4-3.2,15.8,6.1,35.2,17.6c11,6.5,22.7,11.9,34.8,16
	c12.1,4.3,18.1,6.4,23.8,6.6c4.1,0.2,9-0.2,15.2,2.4c5.4,2.2,9.9,5.8,9.4,7s-4.2-1-9,0.8c-3.8,1.4-4,3.5-7.8,5.1
	c-3.2,1.3-5.9,1-8.6,0.8c-12.8-1-23.5-1.9-26.6,2.7c-1.1,1.6-1.5,4.4-0.4,6.3c0.9,1.2,2.1,2,3.5,2.4c2.6,0.8,4.5,0,4.7,0.4
	c0.3,0.8-6.5,3-6.2,5.1c0,0.5,0.6,1.5,9,3.5c5.5,1.3,9.4,1.9,9.4,2.4c0,0.8-14.7-1-16.4,3.5c-0.7,1.9,1.5,3.6,0.8,5.5
	c-1.5,3.9-13.2,2.8-14.1,2.7c-35.2-3.2-70.3,8.1-105.6,10.2c-68.3,4.1-60.5,5.3-75.1,4.7c-22-0.9-31.3-3.4-75.9-5.9
	c-23.4-1.3-32.8-1.3-42.6-0.8c-17.9,1-20.9,2.8-50.8,7c-43.8,6.1-59.2,5.2-66.6,4c-0.5-0.1-1-0.2-2.6-0.5c0,0-18.7-3.5-35-5.6
	c-3.2-0.4-12.6-1.6-38.6-3c-31.6-1.7-42.9-1.2-56.9-2.5c-6.1-0.5-9.8-1.1-12.3-1.4c-38.2-4.6-71.2,4.2-107,6
	c-10.6,0.5-3.8-0.4-81.1-6.9c-66.5-5.6-76.7-5.3-78.6-11.2C4.2,477.5,53.8,435,113.4,427.1z"/>
<path class="st7" d="M336.8,338.7c-1.3-2,3.6-6.9,10.1-14.8c10-12.2,7.8-12.3,13.3-17.2c4.5-4,9-6.6,14.1-11.6c2.1-2,4-4.1,5.8-6.4
	c4-4.8,4-5.8,7-9.8c11-14.1,25.9-20.8,39.1-26.6c9.7-4.3,14.6-6.8,21.9-7.8c0,0,2.3-0.3,18-1.2c4.2-1.9,8.7-3,13.3-3.5
	c6-0.6,11.4-1.2,16,2c3.3,2.2,6.9,6.9,7,7c3.6,0.5,5.4,1.9,6.2,3.1c2.2,3.1,1.5,8.7,1.6,9c5.1-0.1,9.3,3.9,9.4,9c0,0,0,0,0,0
	c0,1.6-0.4,3.1-0.8,3.1s-0.4-2-2-3.9c-0.9-1.2-2.3-2.2-2.7-2s0,1.1,1.2,3.9c1.8,4.3,2.6,5.3,3.1,6.6c2.2,5.8-1.8,12.6-2.3,12.5
	c-0.3-0.1,0.4-2.2-0.4-5.5c-0.3-1.5-1-4.1-2.3-4.3s-3,1.6-3.5,3.5c-0.8,2.8,1.4,4.1,1.6,7.4c0.2,4.7-3.8,8.5-4.3,8.2s1.6-3.9,0-5.9
	c-0.5-0.6-1.4-1.1-2-0.8c-1,0.5-0.4,2.9-0.4,4.7c0,7-8.7,12.4-9,12.1s2-2,2-4.7c0-1-0.4-2.6-1.2-2.7c-1-0.2-1.6,1.9-3.9,4.3
	c-0.7,0.7-4.6,4.9-7,3.9c-1.3-0.6-2-2.1-1.6-3.5c0.4-0.9,1.5-0.7,3.5-1.6c1.1-0.5,4.3-1.9,4.7-4.3c0.2-1.2-0.2-2.7-1.2-3.1
	c-1.7-0.8-4.5,2.2-4.7,2s2.7-1.9,3.1-4.7c0.2-1.4-0.2-2.8-1.2-3.9c-1.2-1.3-3.4-2-4.7-1.2s-0.7,2.5-2.4,4.3c-1,1.2-2.6,2-3.1,1.6
	s0.3-1.7,0.8-5.1c0.3-2,0.1-2.3,0-2.4c-0.7-0.3-2.7,3.9-4.3,3.5c-0.9-0.2-0.8-1.7-2.3-3.5c-1-1.1-2.9-2.8-3.9-2.3
	c-1.4,0.7,0.8,5.1-1.6,8.2c-1.2,1.6-3.1,2.3-3.5,2s1.9-2.5,2-5.9c0-0.8,0.1-2.6-1.2-3.5c-0.7-0.5-1.8-0.9-2.4-0.4
	c-0.9,0.7,0.7,2.6,0,5.1c-0.5,1.6-1.9,3-2.4,2.7c-0.7-0.3,1.3-3.8,0-7.8c-0.2-0.8-1.2-3.8-3.9-4.7c-2-0.7-4.7,0-5.5,1.6
	c-0.2,0.5-0.2,0.9,0.4,3.9c0.7,3.4,1,4.6,0.8,4.7s-1.2-1.9-3.5-4.3c-2.1-2.2-3.1-2.3-3.5-2.3c-1.3-0.1-2.5,0.5-3.1,1.6
	c-0.7,1.6,1.5,2.9,2,6.3c0.3,2.6-0.7,5.1-1.2,5.1s-0.3-1.9-1.6-4.7c-0.5-1.4-1.3-2.6-2.4-3.5c-1.1-0.9-3.4-2.1-4.7-1.2
	c-0.8,0.8-1.1,2-0.8,3.1c0.4,1.6,1.5,1.8,2,3.5c0.3,1.2,0.1,2.6-0.4,2.7s-1-1.9-2.7-2.7s-4-0.2-4.3,0.8s1.8,2.5,3.1,3.1
	c2.8,1.4,4.1,0.3,6.6,1.6c1.9,0.9,3.9,2.8,3.9,5.1c0,1.3-0.5,2.7-1.2,2.7s-1-2-3.1-3.9c-1-1-2.6-2-3.1-1.6s0.4,2.2,0.8,3.1
	c1.3,2.8,2.2,2.8,2.7,4.3c0.9,2.6-0.9,5.8-2.7,7.4c-1.4,1.2-3.2,1.9-3.5,1.6s2.2-2,2.7-5.1c0.3-1.6,0.1-4.1-1.6-5.1
	c-0.8-0.5-2.1-0.6-2.7,0c-0.9,1,0.9,2.7,0.4,5.1c-0.5,2.5-3.3,4.3-3.9,3.9c-0.4-0.2,0.3-1.3,0.8-4.3c0.3-1.7,0.6-4,0-4.3
	s-1.7,1-2.4,2c-2,2.8-0.8,4.9-2.4,6.6c-1.7,2-5.2,1.8-5.5,1.2s3.6-2,3.5-4.3c0-1.2-0.9-2.1-2-2.4c-1.2,0-2,2.1-2.3,2s1-2.5,0.8-5.5
	c0-0.9-0.2-3.3-2-4.7c-0.3-0.2-1.7-1.4-3.1-0.8c-0.9,0.4-1.6,1.3-1.6,2.3c0.1,1.7,2.3,1.9,2.7,3.9c0.3,1.6-0.7,3.2-1.2,3.1
	s-0.1-1.7-1.2-3.1c-0.8-1.1-2.4-2-3.1-1.6c-1.2,0.8,1.8,4.9,0,9c-0.7,1.7-2.1,3-2.7,2.7c-1-0.4,0.4-5-0.8-5.5
	c-0.8-0.4-2.2,1.5-2.7,1.2s0.7-1.7,0.4-3.5c-0.2-1.5-1.3-2.7-2.7-3.1c-1.9-0.3-3.6,2.2-3.9,2s1.5-2,1.6-4.3c0-1.7-0.9-3.4-2.4-4.3
	c-2.5-1.2-6.1,1.7-7.4,2.7c-12.7,10.1-11.5,33.6-22.7,37.1c-1.9,0.6-4.7,0.8-5.5-0.4c-1-1.5,2.2-4.1,5.5-10.6
	c1.9-3.8,3.2-7.9,3.9-12.1c0.5-3.2,1.1-7-0.4-7.8c-1.9-1-6.1,3.5-9.4,7c-7.4,8-11.1,12-13.7,16.4c-0.6,1-2,3.7-4.3,3.9
	C338.4,339.8,337.4,339.4,336.8,338.7z"/>
<path class="st7" d="M392.8,362.5c0.2-0.2,1-1.4-0.8-5.1c-3.3-6.6-9.7-10-11.7-11c-2.9-1.4-5.4-2.6-9-2.7c-5.6-0.2-9.6,2.5-14.1,5.5
	c-3.5,2.4-8.4,5.6-11,11.7c-0.2,0.4-0.2,0.4-1.6,6.3c-3.2,13.1-3.5,13.9-4.3,15.2c-2.6,4-5.5,5.1-5.1,7.4c0.4,2,2.7,2.1,3.9,4.3
	c1.6,2.9-0.2,7.1-2.4,10.6c-6.9,11.4-18.8,19.3-21.5,21.1c-15.6,10.2-26.5,13-26.2,13.7c0.4,1,20.8-0.8,37.7-14.3
	c5.3-4.2,10.4-9.6,11.7-8.6c1.8,1.4-4.6,12.9-3.9,13.3s6-11,9-10.2c2.2,0.6,2.4,7.2,2,11.3c-0.8,7.3-4.3,12.6-6.6,16
	c-2,3-4.3,5.8-7,8.2c-13.7,11.9-39.4,8.1-57.5,14.1c-1.6,0.5-3.6,1.3-3.5,2c0.2,1.5,10,1.8,16.4,1.6c12.8-0.4,28.5-1,41.1-9.8
	c5.4-3.7,11.3-6.6,17.6-8.6c0,0,4.8-1.5,5.1-0.8s-4.7,2.3-8.6,7.4c-1.9,2.5-1.6,3.3-3.5,5.1c-3.1,2.9-6.2,2.9-6.2,4.3
	s2.7,3.2,5.5,3.1c1.9,0,4-1.9,8.2-5.5c4-3.4,6-5.2,6.3-5.5c3.9-4.8,2.7-7.8,5.9-9.8c2.7-1.6,5.9-0.9,8.2-0.4c0.5,0.1,8.5,2,9,5.9
	c0.4,3-4.3,6-13.7,11.7s-14.3,7.5-14.9,11.7c-0.3,2.2,0.6,4.7,2,5.1c2,0.5,3.4-4.1,8.6-9c1.5-1.5,5.6-3.7,13.7-8.2
	c6.2-3.5,7.8-4.2,8.6-3.5c1.3,1.1,0,5.2-2,8.2c-2.9,4.4-6.2,4.2-12.5,9.8c-2.2,2-5.2,4.6-4.7,5.5c0.8,1.3,9.6-0.5,15.6-6.3
	c2.7-2.7,5.2-5.5,7.4-8.6c2.3-3,3.9-5.7,5.9-5.5c1.6,0.1,1.7,1.9,3.9,2.4c1.5,0.3,1.9-0.3,5.1-0.8c2.5-0.4,3.8-0.5,4.3,0
	c0.8,0.8,0.2,2.6-3.5,10.5c-3,6.4-3.8,8-5.5,8.2s-2.1-0.9-5.1-1.6c-1.9-0.4-3.9-0.4-5.9,0c-4.2,0.7-7,2.7-11.7,6.3
	c-2.7,2-7.6,5.7-7,6.6s4.7,0.3,7.8-2c2.5-1.8,2.3-3.3,5.1-5.1c2.5-1.7,5.6-2.4,6.2-1.6s-1.8,2.6-1.2,4.3s3.3,2,5.1,2
	c3.8-0.1,6.5-2.6,11-7c11-11.1,16.6-16.6,17.2-17.6c1.1-1.7,2.8-4.3,5.9-5.1c2.5-0.6,5,0,7,1.6c0.4,0.3,3.7,3,3.1,5.9
	c-0.7,3.8-7.2,3.8-8.2,8.2c-0.3,1.3-0.1,3.1,0.8,3.5c1.5,0.8,3.5-2.8,10.2-7.4c3.9-2.7,4.5-2.4,7-4.7c1.6-1.5,3.1-3.1,3.9-2.7
	s-0.1,1.9,0.8,3.1c1.3,2,5.4,1.2,5.9,1.2c3.7-0.7,4.1-2.8,8.2-3.9c1.6-0.4,4.3-1.2,5.5,0c1.8,1.9-0.8,7.7-3.1,11.3
	c-4.7,7.4-9.5,8-13.7,16c-0.4,0.8-2.5,4.7-1.6,5.5c1.1,0.9,5.5-2.9,6.3-3.5c4.1-3.4,4.5-5.5,7.8-7c2-0.9,2.8-0.6,4.7-1.2
	c5-1.4,6.1-5.5,10.6-10.2c1.2-1.3,7.7-4.6,20.7-11.3c1.8-0.9,4.7-2.4,6.6-1.2s1.5,4.1,3.5,4.7c1.3,0.3,2.6-0.2,3.5-1.2
	c1-1.1,0.5-2.1,1.2-4.3c0.2-0.6,1.2-4.2,3.9-5.5c1.8-0.9,2.5,0.2,4.7-0.4c2.9-0.8,2.8-3.1,5.9-5.1c4-2.6,9-1.6,9.4-1.6
	c4,0.9,6.1,3.5,7,2.7c0.8-0.6-0.7-2.4,0-5.1c0.4-1.6,1.4-3,2.7-3.9c2.4-1.5,5.1-0.7,6.3-0.4s3.6,1,4.7,3.1c1.5,2.9-0.6,6.4,0,6.6
	s1.6-2.1,4.3-5.1c2-2.1,2.7-2.3,3.1-2.4c1.8-0.1,4,2.2,3.9,4.3c-0.1,2.6-3.9,3.6-3.5,5.5c0.2,1.2,1.8,2,3.1,2c2.2-0.2,4-3.3,4.3-5.9
	c0.5-3.5-1.6-5.3-0.4-7c0.8-1.1,2.2-1.6,3.5-1.2c2,0.9,1.2,5.4,2,5.5s3.1-4.3,1.6-7.4c-1.5-2.8-5.1-2.4-6.3-5.5
	c-0.5-1.3-0.4-3.1,0.4-3.5c1.1-0.7,3.1,1.7,3.9,1.2s0.3-3.6-1.6-5.1s-3.5,0-7.4-1.2c-1.3-0.4-4.1-1.2-4.3-2.7
	c-0.1-1.3,1.5-2.9,3.1-3.1c2.5-0.4,4.3,2.3,5.5,1.6c0.7-0.4,0.8-1.8,0.4-2.7c-0.8-2.1-3.5-1.7-4.3-3.5c-0.7-1.5,0.3-3.6,1.6-4.7
	c2.3-1.9,6.1-0.6,8.2,0.8c2.2,1.5,3.1,3.7,3.5,3.5s-0.4-1.7-0.8-4.7c-0.3-2-0.4-3,0-3.9c1-1.9,3-3,5.1-2.7c1.9,0.1,3.6,1.3,4.3,3.1
	c0.8,2.6-2,4.9-1.2,5.9c0.5,0.6,2.2,0.3,3.1-0.4c1.6-1.2,1.6-3.5,1.6-4.7c0-2.4-0.9-3.1-0.4-3.9c0.9-1.4,4.6-0.7,7,0.4
	c2.4,1.1,4.4,2.9,5.9,5.1c1.5,2.3,1.6,3.9,2.3,3.9c0.9,0,2.2-2.8,1.6-5.1c-0.5-1.9-2-2.1-6.2-5.9c-2.8-2.4-3.1-3.2-3.1-3.9
	c-0.1-2.1,2.5-3.7,3.5-4.3c1.7-1,5-2.4,6.2-1.2s-0.4,3.8,0.8,4.7c0.5,0.4,1.7,0.1,3.9-0.4c2.9-0.7,3.2-1.1,3.9-0.8
	c1.5,0.6,2.1,3.5,1.6,5.9c-0.7,3-3.1,4.1-2.7,4.7c0.5,0.9,5.9,0.2,7.8-3.1c1.7-3-0.8-5.6,1.2-8.6c1.2-1.8,3.6-3,4.7-2.3
	c0.8,0.5,0.8,2,0.8,4.3c0,2.9-0.6,5-0.4,5.1s0.8-3.3,3.5-5.5c0.4-0.4,2.3-1.8,3.5-1.2s1.2,2.5,1.2,3.1c0.1,3.2-2,5-1.6,5.5
	s5.2-1.2,6.3-4.7c0.9-3-1.4-5.3,0-7c0.9-1,2.3-1.4,3.5-0.8c1.5,1.1-0.4,4.7,1.2,5.9c1,0.6,2.3,0.5,3.1-0.4c1.2-1.6-2.4-4.6-1.2-7
	c0.6-1.1,1.9-1.8,3.1-1.6c1.2,0.5,0.9,2.4,2.3,6.3c0.7,1.8,1.5,4,2.3,3.9s1.8-3.1,2-5.5c0.2-3.1-0.6-5.2,0-5.5s2.3,2.3,3.1,2
	s0.6-2.7,0-4.7c-1-3.3-2.8-3.7-2.7-5.9c0-1.7,1.3-3.6,2.7-3.9c2.3-0.4,4.4,3.6,5.1,3.1s0-3.8-2.3-5.9c-1.5-1.3-2.5-1.1-3.1-2.3
	c-0.8-1.6,0-4.4,1.6-5.1c2.3-1,5.4,2.9,6.7,2c0.9-0.7,0.2-3.5-0.4-5.1c-0.8-2-1.9-2.7-1.6-3.5c0.5-1.3,3.5-1.2,3.9-1.2
	c3.3,0.1,5.1,2,5.5,1.6s-1.3-4.7-4.7-5.9c-2.8-1-4.7,0.7-13.3,4.3c-3.9,1.7-8,3-12.1,3.9c-5.4,1.2-7.2,0.9-8.6,0
	c-2-1.3-1.8-3-4.3-4.3s-4.8-0.7-5.1-1.6s1.9-2.4,3.5-3.5c8.2-5.8,7.3-8.7,11.7-10.2c5.8-1.9,11.4,1.6,12.1,0
	c0.5-1.1-2.6-2.6-2.3-5.1c0.3-2.9,5.1-5.9,7.8-4.7c3,1.3,2.3,7.1,4.3,7.4s2.6-5.2,6.7-6.6s9.6,1.5,10.2,4.7c0.6,3.4-4.5,6.6-3.9,7.4
	c0.5,0.6,4.3-0.5,6.7-3.5s1.6-5.8,3.9-7c1.5-0.8,3.8-0.7,4.7,0.4c1.4,1.7-1.3,5.1,0,6.3c0.9,0.8,2.3-0.5,4.3,0
	c2.7,0.7,5.4,4.3,4.3,7c-0.9,1.8-2.7,2.8-4.7,2.7c-2.3-0.2-3.4-2.5-4.7-2c-0.9,0.3-1.3,1.7-1.2,2.7c0.3,2.1,3,3.7,5.5,3.9
	c3.5,0.3,5-2.5,7.4-1.6c1.3,0.5,2.2,1.7,2.3,3.1c-0.1,2-3,3.5-5.1,3.9c-3.5,0.8-5.9-1-6.2-0.4c-0.5,0.8,2.9,5.2,6.7,5.1
	c3.5-0.1,5.1-3.9,7.4-3.1c1.3,0.5,2.1,1.8,2,3.1c-0.6,2.6-7,2-7.4,4.3c-0.2,1.2,1.3,3,2.7,3.1c1.7,0.2,2.3-1.9,5.9-4.3
	c1.7-1.1,3.9-2.7,5.1-2c1.8,1.1-0.1,6.7,0.8,7s2.2-4.1,3.9-3.9s2,4.4,2.7,4.3s1.3-3.9,0.4-8.2s-2.8-6-2-7c1-1.2,5.3-0.5,6.7,2
	s-0.7,5.9,0,6.3c0.9,0.5,4-5.6,5.9-5.1s0.6,8.5,1.6,8.6c0.7,0.1,2-4.3,2.3-5.5c1.4-4.7,1-5.9,2.3-7c1.9-1.6,5.5-1.6,7,0
	s0.7,3.9,2,4.3c0.7,0.2,1.2-0.6,3.5-1.6c1.7-0.7,2.7-1.2,3.5-0.8c1.5,0.8,1,3.8,1.6,3.9s1.8-2.6,2-5.9c0.2-4.1-1.6-7.2-1.2-7.4
	s2.2,4.5,3.9,4.3c1.4-0.2,2.7-3.7,2-6.6c-0.9-3.3-4.1-5.2-3.9-5.5s4.2,3.2,5.5,2.4c1-0.7,0.6-4.5-1.6-7c-2.5-3-5.1-1.8-8.6-5.1
	c-1.9-1.8-1.1-2.1-3.5-4.7c-1.8-1.9-2.8-2.3-5.9-5.1c-1.4-1.3-3.8-3.5-3.5-3.9s4.7,2.6,5.9,1.6c0.8-0.8-0.2-4-2.3-5.9
	c-2.5-2.2-5.9-2.1-8.2-2c-4.7,0.3-5.1,1.9-11.7,3.1c-4.7,0.9-6.9,0.6-8.6,0c-1.5-0.5-3.8-1.3-4.7-3.5c-0.7-1.8-0.3-4.4,1.2-5.5
	c2.7-1.9,7.6,1.8,8.2,0.8c0.5-0.7-1.5-3.4-4.3-4.7c-2.8-1.1-5.8-1.1-8.6,0c-1.9,1.1-3.7,2.2-5.5,3.5l0,0c-2.5-1.4-5.1-2.5-7.8-3.5
	c-6.7-2.1-13.5,0.7-16.4,2c-3.4,1.6-6.6,3.5-9.8,5.5l0,0c0,0-9,0.5-12.1,0.8c-8.7,0.9-15.2,4.9-21.1,8.6c-8.2,5.1-8.2,7.1-22.7,20.3
	c-11.9,10.8-24.6,21.1-24.6,21.1l0,0c0,0-13.6,1.8-21.9,3.9c-14.4,3.8-24.2,11.8-29.3,16c-12.5,10.4-10.4,14.7-23.1,23.9
	c-9.2,6.7-18.9,10.6-18.4,11.7c0.1,0.2,0.5,0.4,7-0.8c7.7-1.4,11.2-2.4,11.3-2s-4.8,1.7-9.8,5.1c-8.9,6-7.7,12.2-16.4,18.8
	c-4.2,3.1-3.7,1.2-12.5,6.2c-10.1,5.8-10.6,8.3-17.2,10.6c-5,1.7-10.4,2.3-15.6,1.6c-5-0.6-11.4-1.3-14.5-5.9
	c-1.3-1.9-1.2-3.2-2.7-3.9c-2.4-1.1-4.2,1.3-9.8,2c-2,0.2-3.9,0.2-5.9,0c-4.4-0.4-4.3-1.3-6.6-1.2c-3.7,0.2-4.2,2.4-9,3.1
	c-1.7,0.4-3.4,0.4-5.1,0c-4.5-1.5-3.6-6.3-7.8-8.6c-3.9-2.1-6.2,1.3-12.5-0.8c-1.9-0.6-4.9-1.6-6.6-4.3c-2.4-3.8-0.5-8.4-2-9
	s-2.9,3.4-6.6,3.9c-1.7,0.2-3.3-0.2-4.7-1.2c-2.9-2.3-2-7.8-0.4-16c3.2-16.8,5.3-24.1,3.5-25c-1.3-0.6-4.4,2-5.9,3.5
	c-1.8,1.9-2.1,3.3-3.5,3.5c-1.6,0.3-3.4-1.3-4.3-2.7c-0.8-1.3-1.7-4,3.1-14.5c3.3-7.2,6.4-13.7,9.4-13.3c2.8,0.4,3.7,6.2,5.1,5.9
	c0.9-0.2,1.6-3.1,0.8-5.5c-0.7-2.1-2.2-2.6-2-3.9c0.5-1.5,2-2.5,3.5-2.4c2.7,0.2,3.8,4.6,5.1,4.3c1.1-0.2,0.3-3.1,2-4.7
	c2.4-2.2,8.9-1,10.6,2.4c1.2,2.4-0.6,4.9,1.2,6.6c0.6,0.6,1.8,1.2,2.4,0.8c1.4-0.9-1.6-6.2,0-7.4c1-0.8,3.3,0.5,3.9,0.8
	c2.3,1.3,2.9,3,3.5,2.7c0.8-0.3,1.2-3.4,0-6.2c-1.4-3.4-4.4-4.8-3.9-5.9S391.9,363.6,392.8,362.5z"/>
<path class="st7" d="M774,414.5c-6.6,10.7-21.9,24.2-21.9,24.2c-11.5,10.2-17.6,14.9-23.5,17.6s-11,2.7-11,3.9
	c0.1,1.5,7.8,3.7,15.1,1.8c5-1.3,9.8-6.2,19.2-16c4.8-5,9.9-9.7,15.2-14.1c3.1-2.5,5.8-4.6,6.7-3.9c1.2,0.9-1.8,6.3-2,6.6
	c-3.6,6.6-9.1,10.4-9,10.6s5.5-5.6,13.3-6.6c1.3-0.2,4.7-0.6,5.5,0.8c0.4,0.8,0.1,2.6-7.8,10.2c-6.6,6.3-13.1,11.5-12.9,11.7
	s9.9-8.2,13.3-5.9c1.7,1.2,1.7,5,0.4,7.8c-2.3,4.9-7.8,4.5-16,9c-8.4,4.6-13.3,10.9-12.9,11.3s6.2-4.1,16.4-8.2
	c8.8-3.5,10.4-2.5,11-2c1.1,1.1,0.1,2.9-1.2,10.6c-1,6.2-0.6,6.1-1.2,7.4c-2.3,5.5-10.2,6.6-18.4,8.6c-13.2,3.2-27.6,8.7-27.4,10.2
	c0.4,2,29.3,0.9,41.5-7c2.4-1.6,8.8-6.4,14.9-8.2c1.7-0.4,3.2-1.1,4.7-2c3.1-2,3-3.7,5.5-4.7c2.8-1.1,4.7,0.5,5.9-0.8s-0.5-3,0-6.3
	c0.5-3.2,2.5-6,5.5-7.4c1.6-0.6,3.3-0.8,5-0.5c5.5,0.8,10.1,6,9.5,6.8c-0.8,1.1-13.2-3.3-16-11.7c-1.1-3.4-0.9-7.9,1.2-9
	c3.7-1.9,10.3,9.1,16.8,7c1.8-0.6,3.6-2.1,3.5-3.5c-0.3-3.1-10.6-1.7-16.4-8.6c-2.6-3.1-4.4-7.8-2.7-9.8c0.3-0.4,1.6-1.7,7.4-0.4
	c11,2.5,17.5,9.9,18,9.4s-3.6-7.6-11.7-12.9c-5.7-3.7-11.6-5.3-11.3-7.8c0.3-1.5,1.3-2.6,2.7-3.1c0.3-0.1,0.7-0.1,1-0.1
	c3.6,0.1,7.2,4.8,7.2,4.8c2.8,3.3,6.1,6.1,9.8,8.3c2.5,1.5,6.6,3.2,7,2.6c0.4-0.7-5.7-4.7-15.2-12.9c-4.7-4-10.5-9.3-10.2-9.8
	c0.6-0.8,16.5,14.7,41.1,21.1c6.5,1.7,14.5,3.1,14.9,2s-8.4-5.2-21.1-11c-10-4.5-12.3-5.2-18.4-8.6c-3.4-1.9-7.2-4.8-14.9-10.6
	c-3.3-2.5-5.7-4.5-6.6-7.8c-0.7-2.5-0.7-6.5,1.6-8.2c1.3-0.9,2.9-1.4,4.4-1.3c0.4,0,0.7,0.3,1,0.1c1-0.5,1.1-3.5,0-4.3
	c-1.9-1.2-5.9,4.8-9.8,3.5c-1.4-0.4-2.5-1.6-2.7-3.1c-0.1-1.9,2.7-2.9,2.3-3.9s-3.4-1.4-5.5,0c-1.7,1.2-2.1,3.3-2.3,4.7
	c-0.7,4.1,1.2,5.6,0,7.8c-1.2,1.8-3.3,2.8-5.5,2.3c-1.4-0.3-3.2-1.5-3.1-2.7c0-1.9,4.1-2.5,3.9-3.9c-0.1-0.9-1.9-1.6-3.5-1.6
	c-3.4,0.2-5.6,4.2-5.9,4.7c-1.7,3.2-0.5,4.9-2.3,9.4C775.4,412.3,774.7,413.4,774,414.5z"/>
<path class="st0" d="M-590.6,413.6c-0.4-2.5,18.7-7.1,27.6-9.7c34-9.9,56.3-30.4,76.4-48.8c25.7-23.6,22.9-30.9,48.8-60.5
	s69.9-79.8,130.6-83.6c30.9-1.9,62.6,6.1,62.9,12.6c0.1,3.1-6.8,3.9-19.1,12.8c-6,4.3-17,12.4-24.7,25.6c-3,5.1-9.9,17.3-9.2,33.9
	c0.9,21,13.6,35,17.9,39.6c14.8,16.2,33,20.7,43,23.2c13,3.2,26.4,3.9,39.6,1.9c16.4-2.5,27.2-8.5,78.8-43.5
	c33.2-22.5,32.8-22.8,38.2-25.1c36.3-15.8,69.9-9.5,81.2-6.8c26.4,6.2,56.1,22.1,54.6,33.9c-0.7,5.5-7.6,5.5-19.8,19.3
	c-5.7,6.3-10.4,13.5-14,21.3c-4.1,9.3-7.6,17.4-5.3,27.1c3.7,15.4,19.3,22.1,20.8,22.7c13.8,5.7,26.8,0.7,32.4-1.5
	c13.2-5,24.4-15.6,31.4-22.2c5.8-5.4,5.7-6.3,8.2-7.2c10.4-4,19.6,7.6,43.5,21.8c13.6,8,28,14.7,43,19.8c14.9,5.3,22.4,7.9,29.5,8.2
	c5.1,0.2,11.2-0.2,18.9,2.9c6.7,2.7,12.2,7.2,11.6,8.7c-0.5,1.3-5.2-1.2-11.1,1c-4.6,1.7-5,4.4-9.7,6.3c-3.9,1.6-7.3,1.2-10.6,1
	c-15.8-1.3-29.1-2.3-32.9,3.4c-1.4,2-1.9,5.5-0.5,7.7c1.1,1.4,2.6,2.5,4.4,2.9c3.2,1,5.6-0.1,5.8,0.5c0.4,1-8,3.7-7.7,6.3
	c0.1,0.6,0.7,1.8,11.1,4.4c6.8,1.6,11.6,2.4,11.6,2.9c-0.1,1-18.2-1.2-20.3,4.4c-0.9,2.4,1.9,4.4,1,6.8c-1.8,4.9-16.3,3.5-17.4,3.4
	c-43.5-4-86.9,10-130.6,12.6c-84.5,5-74.8,6.5-92.8,5.8c-27.2-1.1-38.7-4.1-93.8-7.2c-29-1.6-40.6-1.6-52.7-1
	c-22.2,1.2-25.9,3.5-62.9,8.7c-61.4,8.6-77.7,6-85.6,4.4c-14.6-3-24-17.4-44.5-17.9c-6.2-0.1-12.4,0.7-18.4,2.4
	c-40.5,10.1-84.1,4.1-113.6,0c-20.5-2.8-44.7-7.8-44.5-11.6c0.2-2.7,12.9-4.9,26.6-7.2c13.9-2.4,23.3-2.9,23.7-5.8
	c0.2-1.9-3.4-3.8-4.4-4.4c-5.5-3-11.5-1.8-13.5-1.5c-15.6,2.6-32.6-5.3-32.4-7.2c0.1-1.2,6.6,0.1,16-3.9c4.9-2.3,9.4-5.6,13-9.7
	c1.8-2,3.5-3.9,2.9-4.8c-0.8-1.5-6,0.5-16.9,1.5c-5.7,0.5-8.4,0.3-10.2-1.5s-0.9-3.5-2.4-5.3c-2.5-3-7.2-0.8-15.5-1
	c-7.7-0.2-15.2-2.3-21.8-6.3c-0.7-0.4-5.7-3.2-5.3-4.4s5,0.7,10.6,0c7.5-0.9,14.5-5.8,14-8.2C-575.6,414-590.2,415.7-590.6,413.6z"
	/>
<path class="st7" d="M-369.6,323.2c0.2-0.3,1.3-1.8-1-6.3c-4.1-8.2-12-12.3-14.5-13.5c-3.6-1.7-6.7-3.2-11.1-3.4
	c-6.9-0.2-11.9,3.1-17.4,6.8c-4.4,2.9-10.4,7-13.5,14.5c-0.2,0.5-0.2,0.5-1.9,7.7c-3.9,16.2-4.3,17.2-5.3,18.9
	c-3.2,5-6.9,6.3-6.3,9.2c0.5,2.5,3.4,2.6,4.8,5.3c2,3.6-0.3,8.7-2.9,13.1c-8.5,14.1-23.2,23.9-26.6,26.1
	c-19.3,12.6-32.7,16-32.4,16.9c0.4,1.2,25.7-1,46.7-17.6c6.5-5.2,12.8-11.9,14.5-10.6c2.2,1.7-5.7,16-4.8,16.4s7.4-13.5,11.1-12.6
	c2.7,0.7,3,8.9,2.4,14c-1,9-5.3,15.6-8.2,19.8c-2.5,3.7-5.4,7.1-8.7,10.1c-17,14.7-48.8,10-71.1,17.4c-2,0.7-4.4,1.6-4.3,2.4
	c0.2,1.8,12.4,2.2,20.3,1.9c15.9-0.5,35.3-1.2,50.8-12.1c6.7-4.6,14-8.2,21.8-10.7c0,0,5.9-1.9,6.3-1s-5.8,2.9-10.6,9.2
	c-2.3,3.1-2,4.1-4.4,6.3c-3.9,3.6-7.7,3.6-7.7,5.3s3.4,4,6.8,3.9c2.3-0.1,5-2.3,10.2-6.8c5-4.3,7.4-6.4,7.7-6.8
	c4.8-6,3.3-9.7,7.2-12.1c3.4-2,7.3-1.1,10.1-0.5c0.6,0.1,10.6,2.5,11.1,7.2c0.5,3.8-5.3,7.4-16.9,14.5c-11.7,7.2-17.7,9.3-18.4,14.5
	c-0.4,2.7,0.8,5.9,2.4,6.3c2.4,0.6,4.2-5.1,10.6-11.1c1.9-1.8,6.9-4.6,16.9-10.2c7.7-4.3,9.6-5.2,10.6-4.4c1.6,1.3,0.1,6.5-2.4,10.2
	c-3.6,5.4-7.7,5.2-15.5,12.1c-2.7,2.4-6.4,5.7-5.8,6.8c0.9,1.6,11.8-0.6,19.3-7.7c3.3-3.3,6.4-6.9,9.2-10.6c2.8-3.8,4.8-7,7.2-6.8
	c2,0.2,2.1,2.3,4.8,2.9c1.8,0.4,2.4-0.4,6.3-1c3.1-0.4,4.7-0.7,5.3,0c1,1,0.2,3.2-4.4,13c-3.7,7.9-4.8,9.8-6.8,10.2
	s-2.6-1.2-6.3-1.9c-2.4-0.5-4.9-0.5-7.2,0c-5.2,0.8-8.7,3.3-14.5,7.7c-3.4,2.5-9.4,7-8.7,8.2s5.8,0.4,9.7-2.4c3.1-2.2,2.9-4,6.3-6.3
	c3.1-2,7-3,7.7-1.9s-2.2,3.3-1.5,5.3c0.7,1.9,4.1,2.5,6.3,2.4c4.7-0.1,8.1-3.2,13.5-8.7c13.6-13.7,20.5-20.6,21.3-21.8
	c1.4-2.1,3.5-5.3,7.2-6.3c3-0.7,6.2,0,8.7,1.9c0.4,0.4,4.5,3.7,3.9,7.3c-0.9,4.7-9,4.7-10.1,10.1c-0.4,1.6-0.1,3.8,1,4.4
	c1.8,0.9,4.4-3.5,12.6-9.2c4.8-3.4,5.5-2.9,8.7-5.8c2-1.8,3.9-3.9,4.8-3.4s-0.1,2.4,1,3.9c1.7,2.4,6.7,1.5,7.2,1.5
	c4.6-0.8,5-3.4,10.2-4.8c2-0.5,5.3-1.5,6.8,0c2.3,2.3-1,9.5-3.9,14c-5.8,9.1-11.7,9.9-16.9,19.8c-0.5,1-3.1,5.9-1.9,6.8
	c1.3,1.1,6.9-3.6,7.7-4.4c5-4.2,5.5-6.8,9.7-8.7c2.5-1.2,3.4-0.8,5.8-1.5c6.2-1.8,7.6-6.7,13.1-12.6c1.5-1.6,9.5-5.7,25.6-14
	c2.2-1.1,5.8-2.9,8.2-1.5s1.9,5,4.4,5.8c1.6,0.3,3.3-0.2,4.4-1.5c1.3-1.4,0.7-2.6,1.4-5.3c0.2-0.7,1.5-5.2,4.8-6.8
	c2.2-1.1,3.1,0.3,5.8-0.5c3.6-1,3.5-3.9,7.2-6.3c5-3.2,11.1-2,11.6-1.9c4.9,1,7.6,4.4,8.7,3.4c0.9-0.8-0.9-2.9,0-6.3
	c0.5-2,1.7-3.7,3.4-4.8c2.9-1.9,6.3-0.9,7.7-0.5s4.5,1.3,5.8,3.9c1.9,3.5-0.7,8,0,8.2s2-2.6,5.3-6.3c2.4-2.7,3.3-2.9,3.9-2.9
	c2.3-0.1,5,2.8,4.8,5.3c-0.2,3.2-4.8,4.4-4.4,6.8c0.3,1.4,2.3,2.5,3.9,2.4c2.8-0.2,4.9-4,5.3-7.2c0.6-4.3-2-6.5-0.5-8.7
	c1-1.4,2.7-2,4.4-1.5c2.5,1.1,1.5,6.7,2.4,6.8s3.9-5.4,1.9-9.2c-1.8-3.5-6.4-2.9-7.7-6.8c-0.6-1.7-0.5-3.8,0.5-4.4
	c1.4-0.8,3.9,2.1,4.8,1.5s0.4-4.5-1.9-6.3s-4.3-0.1-9.2-1.5c-1.6-0.5-5.1-1.5-5.3-3.4c-0.2-1.6,1.8-3.5,3.9-3.9
	c3.1-0.5,5.3,2.9,6.8,1.9c0.8-0.5,0.9-2.2,0.5-3.4c-1-2.5-4.3-2.1-5.3-4.4c-0.8-1.8,0.3-4.5,1.9-5.8c2.9-2.3,7.6-0.8,10.2,1
	c2.8,1.9,3.9,4.6,4.4,4.4s-0.5-2.1-1-5.8c-0.3-2.5-0.5-3.7,0-4.8c1.2-2.3,3.7-3.6,6.3-3.4c2.3,0.2,4.7,1.8,5.3,3.9
	c0.9,3.2-2.5,6-1.4,7.2c0.7,0.8,2.7,0.4,3.9-0.5c2-1.5,1.9-4.4,1.9-5.8c0-3-1.1-3.9-0.5-4.8c1.1-1.7,5.7-0.9,8.7,0.5
	c2.9,1.4,5.4,3.6,7.2,6.3c1.9,2.8,2,4.9,2.9,4.8c1.1,0,2.8-3.4,1.9-6.3c-0.7-2.3-2.5-2.6-7.7-7.3c-3.4-3-3.8-3.9-3.9-4.8
	c-0.1-2.6,3.1-4.5,4.3-5.3c2.1-1.3,6.2-3,7.7-1.5s-0.5,4.6,1,5.8c0.7,0.5,2,0.2,4.8-0.5c3.6-0.9,4-1.3,4.8-1
	c1.9,0.8,2.6,4.4,1.9,7.2c-0.9,3.7-3.8,5-3.4,5.8c0.6,1.1,7.3,0.2,9.7-3.9c2.1-3.7-1-7,1.4-10.6c1.5-2.2,4.4-3.7,5.8-2.9
	c1,0.6,1,2.5,1,5.3c-0.1,3.6-0.8,6.2-0.5,6.3s1-4.1,4.4-6.8c0.5-0.4,2.8-2.2,4.3-1.5c1.4,0.7,1.4,3.1,1.5,3.9c0.1,4-2.5,6.2-1.9,6.8
	c0.7,0.8,6.4-1.5,7.7-5.8c1.1-3.7-1.7-6.6,0-8.7c1-1.3,3.3-1.8,4.3-1c1.9,1.4-0.5,5.8,1.5,7.2c1.2,0.8,2.9,0.6,3.9-0.5
	c1.5-2-3-5.7-1.5-8.7c0.7-1.4,2.7-2.4,3.9-1.9c1.5,0.6,1.1,3,2.9,7.7c0.8,2.2,1.8,4.9,2.9,4.8c1.2-0.1,2.2-3.8,2.4-6.8
	c0.3-3.8-0.8-6.4,0-6.8s2.8,2.9,3.9,2.4c0.9-0.4,0.8-3.3,0-5.8c-1.2-4-3.5-4.6-3.4-7.2c0.1-2.1,1.6-4.5,3.4-4.8
	c2.9-0.5,5.4,4.4,6.3,3.9s0-4.7-2.9-7.2c-1.8-1.6-3.1-1.4-3.9-2.9c-1-2,0-5.4,1.9-6.3c2.9-1.3,6.6,3.6,8.2,2.4
	c1.1-0.9,0.3-4.3-0.5-6.3c-1-2.5-2.3-3.3-1.9-4.4c0.6-1.6,4.4-1.5,4.8-1.5c4.1,0.1,6.3,2.5,6.8,1.9s-1.6-5.8-5.8-7.2
	c-3.5-1.2-5.8,0.9-16.4,5.3c-4.8,2.1-9.9,3.7-15,4.8c-6.7,1.5-8.9,1.1-10.6,0c-2.5-1.6-2.3-3.7-5.3-5.3s-5.9-0.8-6.3-1.9
	s2.3-2.9,4.3-4.4c10.1-7.2,9-10.7,14.5-12.6c7.2-2.4,14.1,1.9,15,0c0.7-1.4-3.2-3.3-2.9-6.3c0.3-3.6,6.3-7.2,9.7-5.8
	c3.7,1.6,2.9,8.8,5.3,9.2s3.3-6.4,8.2-8.2c4.8-1.7,11.8,1.8,12.6,5.8c0.8,4.2-5.6,8.2-4.8,9.2c0.6,0.8,5.3-0.7,8.2-4.4
	s2-7.1,4.8-8.7c1.9-1,4.7-0.9,5.8,0.5c1.7,2.1-1.6,6.3,0,7.7c1.1,1,2.8-0.7,5.3,0c3.3,0.9,6.7,5.4,5.3,8.7c-1,2.3-3.4,3.7-5.9,3.5
	c-2.9-0.2-4.2-3-5.8-2.4c-1.1,0.4-1.6,2.1-1.4,3.4c0.3,2.5,3.7,4.6,6.8,4.8c4.3,0.3,6.2-3.1,9.2-1.9c1.6,0.6,2.8,2.1,2.9,3.9
	c-0.1,2.5-3.7,4.3-6.3,4.8c-4.3,0.9-7.3-1.3-7.7-0.5c-0.6,1,3.6,6.4,8.2,6.3c4.3-0.1,6.3-4.9,9.2-3.9c1.6,0.6,2.6,2.2,2.4,3.9
	c-0.7,3.2-8.6,2.4-9.2,5.3c-0.3,1.5,1.6,3.7,3.4,3.9c2.1,0.2,2.9-2.3,7.3-5.3c2-1.4,4.8-3.3,6.3-2.4c2.2,1.4-0.2,8.3,1,8.7
	s2.8-5,4.8-4.8s2.5,5.4,3.4,5.3s1.6-4.9,0.5-10.2s-3.4-7.5-2.4-8.7c1.2-1.5,6.5-0.6,8.2,2.4s-0.9,7.3,0,7.7c1.1,0.6,5-6.9,7.3-6.3
	s0.8,10.5,1.9,10.6c0.9,0.1,2.5-5.4,2.9-6.8c1.7-5.8,1.3-7.3,2.9-8.7c2.3-2,6.8-2,8.7,0s0.9,4.8,2.4,5.3c0.9,0.3,1.5-0.7,4.3-1.9
	c2.1-0.9,3.4-1.5,4.3-1c1.8,0.9,1.2,4.8,1.9,4.8s2.3-3.2,2.4-7.3c0.2-5.1-1.9-9-1.4-9.2s2.8,5.6,4.8,5.3c1.7-0.2,3.4-4.5,2.4-8.2
	c-1-4.1-5.1-6.4-4.8-6.8s5.2,4,6.8,2.9c1.3-0.9,0.7-5.6-1.9-8.7c-3.1-3.7-6.3-2.2-10.6-6.3c-2.3-2.2-1.3-2.6-4.4-5.8
	c-2.2-2.4-3.4-2.8-7.2-6.3c-1.8-1.6-4.7-4.3-4.3-4.8c0.5-0.7,5.9,3.3,7.2,1.9c1.1-1-0.3-4.9-2.9-7.3c-3.1-2.7-7.3-2.6-10.2-2.4
	c-5.8,0.3-6.3,2.3-14.5,3.9c-5.7,1.1-8.5,0.7-10.6,0c-1.9-0.6-4.7-1.6-5.8-4.4c-0.9-2.3-0.4-5.4,1.5-6.8c3.3-2.4,9.4,2.2,10.2,1
	c0.6-0.9-1.9-4.2-5.3-5.8c-4.9-2.3-9.9-0.3-10.6,0c-2.3,1.3-4.6,2.8-6.8,4.4l0,0c-3.1-1.7-6.3-3.1-9.7-4.4
	c-8.3-2.6-16.8,0.9-20.3,2.4c0,0-2.9,1.2-12.1,6.8l0,0c0,0-11.1,0.6-15,1c-10.7,1.1-18.8,6-26.1,10.6c-10.1,6.4-10.1,8.8-28,25.1
	c-14.7,13.4-30.5,26.1-30.5,26.1l0,0c0,0-16.9,2.2-27.1,4.8c-17.7,4.6-29.9,14.5-36.3,19.8c-15.5,12.9-12.8,18.1-28.5,29.5
	c-11.4,8.2-23.3,13.1-22.7,14.5c0.1,0.3,0.7,0.5,8.7-1c9.5-1.7,13.8-2.9,14-2.4s-5.9,2.1-12.1,6.3c-11,7.5-9.5,15.1-20.3,23.2
	c-5.1,3.9-4.5,1.5-15.5,7.7c-12.4,7.1-13.1,10.2-21.3,13c-6.2,2.1-12.8,2.8-19.3,1.9c-6.2-0.7-14.1-1.6-17.9-7.3
	c-1.6-2.3-1.5-4-3.4-4.8c-2.9-1.4-5.2,1.6-12.1,2.4c-2.4,0.3-4.8,0.3-7.3,0c-5.4-0.5-5.3-1.6-8.2-1.5c-4.6,0.2-5.2,2.9-11.1,3.9
	c-2.4,0.4-4.2,0.7-6.3,0c-5.5-1.8-4.5-7.8-9.7-10.6c-4.8-2.6-7.6,1.5-15.5-1c-2.4-0.8-6.1-2-8.2-5.3c-3-4.8-0.6-10.4-2.4-11.1
	c-1.7-0.6-3.6,4.2-8.2,4.8c-2,0.3-4.1-0.2-5.8-1.5c-3.5-2.8-2.5-9.6-0.5-19.8c4-20.8,6.5-29.9,4.4-31c-1.6-0.8-5.5,2.5-7.2,4.4
	c-2.2,2.3-2.7,4.1-4.4,4.4c-2,0.3-4.2-1.6-5.3-3.4c-1-1.6-2.1-5,3.9-17.9c4.1-8.9,7.9-16.9,11.6-16.4c3.4,0.4,4.6,7.6,6.3,7.2
	c1.2-0.3,2-3.8,1-6.8c-0.9-2.6-2.7-3.2-2.4-4.8s2.5-3.1,4.4-2.9c3.3,0.3,4.7,5.7,6.3,5.3c1.3-0.3,0.4-3.9,2.4-5.8
	c2.9-2.8,11-1.2,13,2.9c1.5,2.9-0.7,6.1,1.5,8.2c0.8,0.8,2.2,1.4,2.9,1c1.7-1.1-2-7.6,0-9.2c1.2-1,4.1,0.6,4.8,1
	c2.9,1.6,3.5,3.6,4.4,3.4c1-0.3,1.5-4.2,0-7.7c-1.8-4.2-5.4-5.9-4.8-7.2C-373.2,323.8-370.7,324.6-369.6,323.2z"/>
<path class="st7" d="M101.9,387.5c-8.1,13.2-27.1,30-27.1,30c-14.2,12.6-21.8,18.4-29,21.8c-7.1,3.3-13.6,3.4-13.5,4.8
	c0.1,1.8,9.6,4.6,18.6,2.2c6.2-1.6,12.1-7.7,23.7-19.8c5.9-6.2,12.2-12,18.8-17.4c3.8-3.1,7.2-5.7,8.2-4.8c1.4,1.1-2.2,7.8-2.4,8.2
	c-4.4,8.1-11.3,12.9-11.1,13s6.9-7,16.4-8.2c1.6-0.2,5.9-0.8,6.8,1c0.5,1,0.2,3.2-9.7,12.6c-8.2,7.8-16.2,14.2-16,14.5
	s12.2-10.2,16.4-7.3c2.1,1.5,2.1,6.3,0.5,9.7c-2.9,6-9.7,5.5-19.8,11.1c-10.4,5.7-16.4,13.5-16,14s7.7-5.1,20.3-10.2
	c10.9-4.4,12.9-3.1,13.5-2.4c1.3,1.4,0.2,3.6-1.4,13c-1.3,7.6-0.8,7.6-1.4,9.2c-2.8,6.8-12.6,8.2-22.7,10.6
	c-16.4,3.9-34.2,10.8-33.8,12.6c0.5,2.5,36.2,1.1,51.3-8.7c3-2,10.9-8,18.4-10.2c2.1-0.5,4-1.3,5.8-2.4c3.8-2.5,3.7-4.6,6.8-5.8
	c3.5-1.4,5.8,0.6,7.2-1s-0.6-3.7,0-7.7c0.6-4,3.1-7.4,6.8-9.2c1.9-0.8,4.1-1,6.1-0.6c6.8,1,12.4,7.4,11.8,8.4
	c-0.9,1.4-16.3-4-19.8-14.5c-1.4-4.2-1.1-9.8,1.4-11.1c4.6-2.4,12.8,11.2,20.8,8.7c2.2-0.7,4.5-2.7,4.4-4.4
	c-0.4-3.9-13.1-2.1-20.3-10.6c-3.2-3.8-5.4-9.6-3.4-12.1c0.4-0.4,2-2.1,9.2-0.5c13.6,3.1,21.6,12.3,22.2,11.6s-4.4-9.4-14.5-16
	c-7.1-4.6-14.3-6.6-14-9.7c0.4-1.8,1.7-3.3,3.4-3.9c0.4-0.1,0.8-0.2,1.3-0.1c4.4,0.2,8.9,6,8.9,6c3.5,4.1,7.6,7.6,12.2,10.3
	c3,1.8,8.2,4,8.6,3.3c0.5-0.9-7-5.8-18.9-16c-5.8-4.9-13-11.5-12.6-12.1c0.8-1,20.4,18.2,50.8,26.1c8.1,2.1,17.9,3.8,18.4,2.4
	s-10.4-6.4-26.1-13.5c-12.3-5.6-15.2-6.5-22.7-10.6c-4.2-2.3-8.9-5.9-18.4-13.1c-4.1-3.1-7.1-5.5-8.2-9.7c-0.8-3-0.9-8,1.9-10.1
	c1.6-1.1,3.5-1.7,5.5-1.6c0.5,0,0.9,0.3,1.3,0.1c1.2-0.6,1.4-4.4,0-5.3c-2.3-1.5-7.3,5.9-12.1,4.4c-1.7-0.6-3.3-2.2-3.4-3.9
	c-0.1-2.4,3.3-3.6,2.9-4.8s-4.2-1.7-6.8,0c-2.1,1.5-2.6,4.1-2.9,5.8c-0.9,5.1,1.5,7,0,9.7c-1.4,2.3-4.1,3.4-6.8,2.9
	c-1.8-0.4-3.9-1.8-3.9-3.4c0.1-2.3,5-3.1,4.8-4.8c-0.1-1.1-2.4-2-4.3-1.9c-4.2,0.2-6.9,5.2-7.2,5.8c-2.1,4-0.6,6-2.9,11.6
	C103.4,384.8,102.7,386.2,101.9,387.5z"/>
</svg>
