<svg xmlns="http://www.w3.org/2000/svg" viewBox="0 0 1920 800"><defs><style>.cls-1{fill:#f4d7cf;}.cls-2{fill:#f0c8c0;}.cls-3{fill:#a99f9d;}.cls-4{fill:#00372c;}.cls-5{fill:#f9f0d9;}.cls-6{fill:#efcb84;}.cls-7{opacity:0.15;}.cls-8{fill:#48484a;}.cls-9{fill:#252726;}.cls-10,.cls-17,.cls-18,.cls-19{fill:none;stroke-miterlimit:10;}.cls-10{stroke:#3d3d3d;stroke-width:4px;}.cls-11{fill:#fff;}.cls-12{fill:#e8e8de;}.cls-13{fill:#bce6d8;}.cls-14{fill:#fffcf3;}.cls-15{fill:#97ddc4;}.cls-16{fill:#878787;}.cls-17{stroke:#97ddc4;}.cls-18{stroke:#f9f0d9;}.cls-19{stroke:#d8d8d2;}</style></defs><g id="Layer_2" data-name="Layer 2"><polygon class="cls-1" points="1467.69 407.6 1778.32 467.95 1794.58 586.32 1318 554.84 1467.69 407.6"/><path class="cls-1" d="M153.43,319.79a241.61,241.61,0,0,1,36.77-19.67c33.1-14.17,43.83-9.83,70.7-23.25,23.73-11.86,19-17.07,46.38-31.6,25.31-13.43,31.5-10.12,57.7-23.25,7.69-3.85,21.63-13.55,49.21-32.78,61.94-43.22,53.49-39.5,65-45.9,15.76-8.74,26-12.62,36.77-25.64,8.56-10.36,10.77-18.46,16.4-18.48,8.22,0,10.68,17.19,23.19,37.56,10,16.23,21.92,25.92,45.82,45.3,24.35,19.75,36.79,29.6,49.77,28,15.79-1.91,17-16.17,30-14.9,13.82,1.34,18.1,14.39,52,51.27,20.18,21.92,26.77,26.11,30,28,11.55,6.86,18.22,7.23,32.8,17.29,13.23,9.12,12.14,11.84,18.1,13.12,13.84,2.95,19.19-11.82,43-17.89,13.27-3.38,13.59.7,26.59-3.58,10.2-3.35,13.68-7.08,28.84-12.51,9-3.22,13.45-4.83,17-4.77,11.82.18,16.93,9.43,35.07,25.63,16,14.31,26.65,23.8,42.42,28a51.16,51.16,0,0,0,7.87,1.37,56.57,56.57,0,0,0,11.17.06c15.14-1.18,55,35,79.17,44a25.66,25.66,0,0,0,5.87,1.62c6.62.83,11-1.9,19-4.88,10.7-4,9.81-1.74,16.3-4.83,7.91-3.78,7.87-6.52,17.7-12.17,6.91-4,10.36-5.95,15-5.78,8.64.33,14.88,7.38,17,9.78,3.65,4.13,3.55,6.13,8,13a85.64,85.64,0,0,0,10,12.63l34.51,27.42,220.2,38.77s-.25,223.53-10.39,230.38-1389.71-8-1389.71-8l-176.91,8L-42,358A166.31,166.31,0,0,1,0,344c44.23-8.36,67.18,6.49,107-3C118,338.38,134.52,332.89,153.43,319.79Z"/><path class="cls-2" d="M508.93,151.38c2.77,3.45-14,25.76-27.72,40.54-10.07,10.82-14.58,13.36-18.1,22.06-5.6,13.86.41,20.9-1.13,35.17-1.77,16.38-15.91,30.22-44.12,57.23-10.51,10.06-34.62,33.14-39,29.21-1.83-1.64.66-8.84,5.65-23.25,5.26-15.18,8.4-20.65,6.79-22.06-2.26-2-9.78,7.66-25.45,16.1a109.75,109.75,0,0,1-31.11,10.73c-17.43,3.63-19.26.21-33.38,3.57-21.64,5.17-30.91,16.45-33.37,13.71-3.35-3.74,9.95-29.15,32.24-44.11,11.58-7.77,25.61-12.74,36.77-16.69,13.58-4.81,14.8-3.91,20.93-6.56,20.1-8.68,23.27-25.46,39-44.71,5.13-6.27,6.43-6.49,65-44.11C496.79,155.87,507.06,149.06,508.93,151.38Z"/><path class="cls-2" d="M674.66,224.71C680,229.46,670,248.29,656,274.78c-2.75,5.2-7.06,12.93-13,13.12-4.65.14-5.66-4.46-11.31-6-6.13-1.63-10.48,2.32-25.45,10.73-12.68,7.13-19.05,10.65-20.93,8.95-3.25-2.95,2.45-17.76,10.75-29.21,6-8.22,12.4-13.55,46.94-33.39C669.33,223.88,672.65,222.93,674.66,224.71Z"/><path class="cls-2" d="M920.7,296.24c3.18,9.54-26.74,29.25-38.46,37-22,14.52-27.75,13.05-47.51,28-14.13,10.7-24.67,21.63-26,20.27-1.82-1.84,16.81-22.1,13.58-26.23-1.86-2.38-10.16,1.58-31.11,13.11-35.7,19.66-47,27.69-48.65,25.64-2.16-2.77,14.85-22,30-36.37,6.44-6.1,21.38-19.7,46.38-35.77,25.79-16.56,43.14-27.45,67.88-30.4C890.19,291.06,917.89,287.76,920.7,296.24Z"/><path class="cls-1" d="M1793.91,462.81c-20.78-17.38-36.77-31.86-47.77-42.1-9.83-9.16-20.34-16-30.21-25-8.82-8.06-15.3-14.69-24.28-13.69-4.53.5-6,2.53-14.41,7.18-5.11,2.83-11.9,5.42-25.47,10.62-29.15,11.14-26,7.93-34.55,12.66-10.06,5.56-13.52,9.5-21.13,9.24-4.26-.14-6.21-1.48-18.16-8.21-11.42-6.44-22.91-12.49-34.35-18.83-16.62-9.2-13.54-7.1-17.57-9.58-23.1-14.23-26.52-23.08-41.86-28.41-3.48-1.21-6.35-1.82-10.26-5.14-8-6.76-8.11-14.51-15-18.82-3.12-2-3.25-.47-13.42-2.06-7.66-1.2-10.53-2.5-13.82-3.08-7.25-1.27-10.88,2-26.65,10.27-8.56,4.5-22.17,11.6-37.51,16.77-7,2.37-12,3.51-15.8,4.45-11.57,2.84-66.93,33.14-98.51,31.49-14.11-.73-34-8.42-57.17-41.58q11.61,79.44,23.21,158.88h575.43Z"/><path class="cls-2" d="M1428.59,339.42c-1.4-.93-3.43-.41-29.91,16.55-9.85,6.31-18.6,12-31.18,12.73-2.46.13-2-.09-5.09,0-8.38.24-17.67,2.07-38.82,12.09-13.14,6.22-21.64,10.3-21,12.73.44,1.63,4.83,1.77,10.18,1.9,17.06.43,23.23-4.31,28.64-.63,5.71,3.88,2.37,11.55,7,14,6.27,3.31,14.65-9.56,33.73-20.37,20.38-11.54,29-7.15,38.82-18.45C1430.57,358.88,1432.94,342.34,1428.59,339.42Z"/><path class="cls-1" d="M1219.21,507.88l-11.54,168.36,747.63,12L1963,465c-21.2.22-38.64-.38-51-1-31-1.55-33.38-3.41-52-3-27.74.61-33,5-49,2-17.75-3.29-30.92-12.28-39-19Z"/><path class="cls-3" d="M4.22,511H1980V809.21H-35V512.45Z"/><path class="cls-4" d="M1494.81,709.52s6.16-.19,6.19-1c0-.54-3.64-1.1-3.58-1.63s2.61-.09,2.93-1-1.4-2.44-3.26-3.26c-2.07-.91-3.87-.61-3.91-1s1.46-.57,3.59-1.63c1-.52,3.06-1.52,2.93-2.28s-2.61-.54-2.93-1.63c-.22-.69.72-1.11,1.3-2.6.66-1.71.49-3.87-.33-4.24s-1.59,1-2.6.66c-.53-.2-.48-.63-1.31-1.63-.44-.54-1.53-1.87-2.28-1.63-.6.19-1,1.37-.65,1.63.51.44,3.43-1.24,3.26-2.61s-2.78-1.84-3.26-2c-1.46-.34-2.58-.15-2.6-.33s2-.31,3.9-1.63c1.12-.77,2.66-2.3,2.29-3.26-.46-1.15-3.55-1-3.91-1-1.7.08-2.78.62-2.94.32s2.1-1.4,2.28-3.25a2.77,2.77,0,0,0-1.3-2.61c-1.36-.74-3.25.39-4.23,1-1.25.74-1.75,1.45-2,1.3s.47-2.2,1.63-3.91,2.06-2.1,2-2.93c-.17-1.24-2.21-2-2.94-2.28-1.47-.55-2.6-.49-2.6-.65s2.42-.12,5.21-1c1.72-.53,4.34-1.65,4.23-2.61s-3-1.19-2.93-2,2-.52,2.93-1.95a2.78,2.78,0,0,0,0-2.94c-.34-.47-1-.83-3.25-1-3.31-.21-5.44.32-5.54,0s2.1-.75,3.91-2.61,2.61-4.26,2-4.88-3.28,1.09-3.58.65,2-1.71,2.61-4.24c.26-1.12.29-3-.66-3.58-1.22-.78-2.62,1.46-5.21,1.3s-2.77-2.45-5.86-3.26-6.07.71-6.19.33,1.89-.74,3.26-2.61c.11-.15,1.63-2.26,1-3.25-1.08-1.65-7.35,1-7.81,0-.24-.54,1.41-1.24,2-3.26.36-1.32.22-3.14-.65-3.58-1.08-.55-2.38,1.5-3.91,1-.93-.32-.86-1.22-2-2.28a6.26,6.26,0,0,0-4.24-1.63c-3.58.1-5.65,4.71-6.51,4.24-.6-.33.51-2.48.65-5.54.21-4.72-2-9.21-3.26-9.12s-1.55,4.28-2.6,4.24c-.82,0-.63-2.5-2-3.26-2.81-1.6-9.78,5.84-10.42,5.21-.43-.42,2.62-3.75,2-4.56s-5.47,2.42-6.51,1.3,1.82-4.39,1-5.21-4.6,2.82-6.84,1.63c-1.79-.95-1-4.18-2.28-4.56-2.17-.66-6.32,8.25-8.47,7.49-.69-.24-.81-1.36-1.3-1.3-.91.11-.73,4-2,4.23-.76.17-1.35-1.17-2-1-1,.33-.17,4.64-1,4.88-.54.17-1.4-1.67-2.28-2.93-3.36-4.85-10.62-6.64-11.72-5.21-1.23,1.58,5,7.28,3.58,9.12-.58.73-2.25.68-3.26,0-1.84-1.24-1.35-4.51-2-4.56-.76-.06-1.51,5.23-2.61,5.21-.6,0-.56-1.58-2-2.61-1.24-.91-3.24-1.11-3.91-.32-1,1.17,1.23,4.13.65,4.56s-2.88-3.43-6.51-3.91a9,9,0,0,0-6.52,2.28c.07.15,5.31-1,6.19-3.91.59-1.95-.77-4.64-2.28-4.88-2.09-.35-3.87,4.14-5.86,3.58-.68-.19-.67-.76-1.31-1.3-2.83-2.45-10.67,2.33-11.07,1.62-.28-.49,3.78-2.44,3.58-4.88a3.21,3.21,0,0,0-2.28-2.61c-3-.81-6.66,4-7.16,3.59s1.79-2.37,1.62-5.22c0-.23-.17-2.57-1.3-2.93-1.7-.55-3.65,4-5.86,3.58-1.39-.28-1.26-2.21-2.61-2.6-2.71-.8-6,6.23-8.14,5.54-1.28-.42-.55-3.13-2.28-7.17-1.48-3.46-4.21-6.64-5.54-6.19s-.83,5-2,5.21c-.75.12-1-1.89-2.28-2.28-2.92-.9-7.9,8-8.8,7.49-.61-.34,1.58-4.53.65-5.21-1.2-.87-6.4,5-7.49,4.24s2.12-6,1.3-6.52-5.2,5.84-7.81,4.89c-1.84-.66-1.63-4.51-2.61-4.56-1.59-.08-2.66,10-5.21,10.1-1.15.05-2-1.92-2.61-1.63-.77.39,1,4-.32,5.21-.95.88-2.68-.15-3.26.65-.73,1,1.47,3.39,1,3.91s-2.52-1.21-4.89-2.28c-4.66-2.1-10.28-1.72-10.75-.33-.58,1.73,6.86,4.75,6.19,6.84-.32,1-2.45,1.6-3.91,1-2.07-.87-2.43-4-2.93-3.91s.44,4.46-1,5.21c-1.23.66-3.08-2-4.56-1.3-1,.51-1.47,2.52-1,3.91.36,1,1.11,1.45,1,1.63-.24.35-2.68-1.78-5.86-2-2.35-.13-5.06.8-5.21,2-.2,1.53,4.22,2.25,4.88,5.54a2.79,2.79,0,0,1-.32,2.28c-.84,1-2.82.84-5.21.65-1.84-.15-2.69-.41-2.94,0-.42.69,1.69,2,1.31,3.26s-3.52.93-3.91,2.28c-.26.88,1,1.38,1.3,3.25.18,1.08,0,2.64-.65,2.94s-1.7-1.51-3.91-2.61c-2-1-5.14-1.42-6.51,0-2,2,.4,7.22,1,8.47,1.1,2.4,2.51,4,2.28,4.23s-1.76-2-4.56-3.25-6.27-1.47-6.84-.33c-.82,1.64,4.79,5.77,4.24,6.52s-4.48-2.58-6.19-1.31c-1.06.79-.92,3-.33,4.56,1,2.55,3.47,3.48,3.26,3.91s-3.29-.95-7.82-1.3c-2.36-.19-4.72-.34-5.54,1-.68,1.09,0,2.74.33,3.58.14.35.8,2,1.63,1.95.53,0,.85-.72,1-.65s-.7,1.62-1,2.93c-.7,3.27,2.12,6.41,1.95,6.52s-4.34-7.43-6.19-6.84c-1,.32-1.54,3.17-.65,5.21.66,1.5,1.85,2,1.63,2.61-.39,1-4.15-.27-4.89,1-.51.88.63,2.72,2,3.91,3.74,3.38,9.73,2.31,9.77,2.93s-5.79.38-8.14,3.91c-.66,1-1.25,2.58-.65,3.26,1.36,1.55,8.25-2.38,8.47-1.95s-4.29,2-5.54,5.86c-.2.6-.72,2.21,0,2.93,1.74,1.73,9.23-3.29,9.44-2.93s-6.21,3.44-5.86,5.21c.66,3.39,25.91,1.05,26.71,1C1298.78,705.5,1457.06,710.68,1494.81,709.52Z"/><path class="cls-5" d="M1284.29,654.27c.25-1.84-3-3-2.55-4.25.28-.83,2.11-1.25,3.4-.85.74.23.79.58,1.7.85a4.37,4.37,0,0,0,2.55,0c.44-.15.54-.27,2.54-1.7,1.07-.75,1.37-1,1.7-.85.59.19.76,1.18.85,1.7.33,1.89-.52,2.68,0,3.4s1.32.13,2.55.85c1,.58,2,1.8,1.7,2.55-.41,1.12-3.33.21-4.25,1.7-.52.84.23,1.43,0,3.39-.17,1.48-.85,3.35-1.7,3.4-.49,0-.91-.57-1.7-1.7-.93-1.34-.89-1.86-1.69-2.54a3.51,3.51,0,0,0-1.7-.85c-1.1-.18-1.49.42-3.4.85-1.2.26-2.07.46-2.55,0-.7-.68-.09-2.32,0-2.55C1282.51,655.59,1284.12,655.54,1284.29,654.27Z"/><path class="cls-6" d="M1289.39,653.42c-.82.25-1.56-.25-1.7,0s1,1.08.85,1.7-1.71.63-1.7.85,1.65-.07,2.55.85c.68.69.52,1.67.84,1.7s.45-1.59,1.7-2.55c.82-.63,1.72-.64,1.7-.85s-1.9.06-2.55-.85.23-2.46,0-2.55S1290.49,653.08,1289.39,653.42Z"/><path class="cls-5" d="M1418.49,639c-1.38-.81-3.39,1.34-4.22.61-.56-.51-.29-2.09.46-3,.44-.51.73-.44,1.24-1.06a3.83,3.83,0,0,0,.85-2,10,10,0,0,0-.5-2.59c-.24-1.09-.3-1.4-.1-1.63.34-.4,1.19-.21,1.63-.11,1.6.37,2,1.31,2.69,1.14s.54-1,1.52-1.74c.79-.59,2.09-1,2.59-.5.75.71-.94,2.72-.07,3.94.49.69,1.21.29,2.69,1.13,1.11.63,2.36,1.79,2.13,2.48-.14.4-.76.53-1.91.78-1.38.29-1.78.08-2.59.49a3,3,0,0,0-1.24,1.07c-.51.81-.16,1.32-.46,3-.19,1-.32,1.8-.85,2-.77.33-1.86-.7-2-.85C1418.94,640.82,1419.43,639.53,1418.49,639Z"/><path class="cls-6" d="M1419.51,634.65c-.07.73-.71,1.15-.56,1.35s1.2-.47,1.63-.11-.07,1.56.1,1.63.5-1.33,1.53-1.74c.78-.31,1.49.14,1.63-.1s-1.11-.89-1.46-2.2c-.22-.86.07-1.58-.1-1.63s-.59,1.53-1.53,1.74-1.87-1-2-.85S1419.61,633.66,1419.51,634.65Z"/><path class="cls-5" d="M1391.76,679.69c-.53-1.78-4-1.54-4.07-2.82-.08-.88,1.41-2,2.75-2.18.77-.09,1,.2,1.9.08a4.44,4.44,0,0,0,2.32-1c.34-.32.38-.47,1.62-2.6.66-1.13.85-1.44,1.2-1.48.61-.07,1.18.77,1.47,1.2,1.08,1.59.63,2.66,1.4,3.1s1.26-.42,2.67-.28c1.15.12,2.55.83,2.6,1.63.09,1.19-2.95,1.56-3.17,3.29-.12,1,.8,1.22,1.4,3.1.45,1.41.6,3.4-.15,3.8-.44.23-1.07-.15-2.25-.85-1.4-.84-1.58-1.34-2.59-1.62a3.55,3.55,0,0,0-1.9-.08c-1.08.29-1.18,1-2.75,2.18-1,.73-1.7,1.27-2.32,1-.91-.33-1-2.08-1.05-2.33C1390.69,681.62,1392.13,680.91,1391.76,679.69Z"/><path class="cls-6" d="M1396.06,676.81c-.64.56-1.52.42-1.55.7s1.39.56,1.47,1.2-1.29,1.28-1.2,1.48,1.48-.74,2.68-.28c.91.35,1.16,1.31,1.47,1.2s-.24-1.63.5-3c.49-.91,1.3-1.29,1.2-1.48s-1.71.84-2.67.28-.81-2.34-1-2.32S1396.92,676.05,1396.06,676.81Z"/><path class="cls-5" d="M1245.56,680.55c-.51-1.22-2.92-.79-3.11-1.7-.13-.61.85-1.53,1.79-1.75.54-.13.7.07,1.36-.09a3.15,3.15,0,0,0,1.57-.92,9.26,9.26,0,0,0,.95-2c.39-.86.5-1.09.74-1.14.44-.1.9.45,1.14.74.89,1,.65,1.84,1.23,2.09s.86-.39,1.88-.4c.82,0,1.87.4,2,1,.16.85-2,1.34-2,2.59,0,.7.66.8,1.23,2.09.43,1,.68,2.37.18,2.71-.29.2-.77,0-1.66-.43-1.06-.49-1.23-.83-2-1a2.59,2.59,0,0,0-1.36.1c-.74.28-.76.8-1.79,1.75-.64.6-1.11,1-1.57.92-.67-.16-.89-1.39-.92-1.57C1244.94,682,1245.91,681.39,1245.56,680.55Z"/><path class="cls-6" d="M1248.4,678.18c-.41.45-1.05.41-1.05.62s1,.29,1.14.74-.83,1-.74,1.14,1-.64,1.88-.4c.67.18.92.84,1.14.74s-.3-1.14.12-2.19c.28-.68.83-1,.74-1.14s-1.15.73-1.88.4-.75-1.6-.92-1.57S1249,677.58,1248.4,678.18Z"/><path class="cls-5" d="M1450.76,662c.32-2.55-3.83-4.19-3.29-5.88.36-1.15,2.72-1.73,4.39-1.18,1,.33,1,.81,2.19,1.18a5.32,5.32,0,0,0,3.3,0c.57-.2.7-.38,3.29-2.35,1.38-1.05,1.77-1.33,2.2-1.18.76.26,1,1.64,1.1,2.35.42,2.61-.68,3.72,0,4.71s1.7.18,3.29,1.17c1.28.8,2.55,2.5,2.2,3.53-.54,1.56-4.31.3-5.49,2.36-.67,1.16.29,2,0,4.7-.23,2-1.11,4.63-2.2,4.71-.64,0-1.19-.8-2.2-2.36-1.2-1.85-1.15-2.58-2.19-3.52a4.42,4.42,0,0,0-2.2-1.18c-1.42-.25-1.92.59-4.39,1.18-1.55.36-2.68.63-3.29,0-.9-.94-.12-3.21,0-3.53C1448.47,663.78,1450.54,663.71,1450.76,662Z"/><path class="cls-6" d="M1457.35,660.77c-1,.35-2-.34-2.2,0s1.34,1.5,1.1,2.36-2.21.87-2.2,1.17,2.14-.08,3.3,1.18c.88,1,.67,2.31,1.1,2.35s.57-2.2,2.19-3.53c1.06-.86,2.22-.88,2.2-1.17s-2.46.09-3.3-1.18.3-3.4,0-3.53S1458.77,660.31,1457.35,660.77Z"/><path class="cls-5" d="M1346.2,639.79c-.77,2.38,3.2,4.72,2.36,6.23-.58,1-3.09,1.16-4.7.31-.94-.48-.92-1-2-1.53a5.92,5.92,0,0,0-3.38-.61c-.62.09-.78.23-3.78,1.64-1.59.75-2,.94-2.45.72-.73-.39-.72-1.74-.72-2.45,0-2.57,1.33-3.43.81-4.5s-1.71-.49-3.17-1.73c-1.18-1-2.18-2.86-1.64-3.79.82-1.39,4.46.52,6-1.23.89-1,0-2,.81-4.5.59-1.91,1.94-4.22,3.07-4.1.66.08,1.08,1,1.84,2.66.91,2,.74,2.69,1.64,3.78a4.67,4.67,0,0,0,2.05,1.53c1.41.5,2.07-.2,4.7-.31,1.65-.06,2.86-.11,3.38.61.76,1.06-.44,3.09-.61,3.38C1348.87,638.47,1346.73,638.15,1346.2,639.79Z"/><path class="cls-6" d="M1339.25,639.69c1.13-.13,2,.7,2.25.41s-1.12-1.68-.72-2.45,2.41-.43,2.45-.72-2.2-.31-3.17-1.74c-.74-1.08-.29-2.33-.72-2.45s-1,2-2.86,3c-1.23.63-2.43.43-2.45.72s2.53.37,3.17,1.73-.89,3.2-.61,3.38S1337.71,639.88,1339.25,639.69Z"/><path class="cls-5" d="M1329.36,680.15c.17-1.3-2.09-2.13-1.8-3,.2-.59,1.49-.89,2.4-.6.52.16.56.41,1.2.6a3.16,3.16,0,0,0,1.79,0c.32-.11.38-.19,1.8-1.2.75-.53,1-.67,1.2-.6.41.13.53.83.6,1.2.23,1.33-.37,1.89,0,2.39s.92.1,1.79.6c.7.41,1.4,1.27,1.2,1.8-.29.79-2.35.15-3,1.2-.37.59.16,1,0,2.39-.12,1-.61,2.36-1.2,2.4-.35,0-.65-.4-1.2-1.2s-.63-1.31-1.2-1.79a2.43,2.43,0,0,0-1.19-.6c-.78-.13-1,.3-2.4.6-.85.18-1.46.32-1.8,0-.49-.48-.06-1.64,0-1.8C1328.11,681.08,1329.24,681.05,1329.36,680.15Z"/><path class="cls-6" d="M1333,679.55c-.57.18-1.09-.17-1.19,0s.73.77.59,1.2-1.2.45-1.19.6,1.16,0,1.79.6c.49.49.37,1.18.6,1.2s.32-1.12,1.2-1.8c.58-.44,1.21-.45,1.2-.6s-1.34,0-1.8-.6.16-1.73,0-1.79S1333.73,679.32,1333,679.55Z"/><path class="cls-7" d="M429.12,558.63c-18.93,3.43-47.89,8.69-47.17,13.69,1.28,8.92,96.33,11.3,161.9,12.94,30.84.77,54.8,1.37,88.6.76,47.95-.87,165.9-5.07,167-15.6.82-7.88-64-16.58-95.61-19.78-12.4-1.26-28.53-2.56-150.43-1.14C507.64,550,473.08,550.64,429.12,558.63Z"/><path class="cls-8" d="M404,405.9,402.34,408,394,428.1l-2.36,22.71,14.88-1a120,120,0,0,1,3.12-31.55,5.69,5.69,0,0,1,1-2,5.85,5.85,0,0,1,1-1c1.06-.83,13.13-1,29.67-.49a6.07,6.07,0,0,1,4.38,2.43,5.63,5.63,0,0,1,1,2.92c-.6,14-.94,24.27-1,27.24a2.67,2.67,0,0,0,.49,1.7c1.37,1.76,5.32.83,7.29.25V418.23a3.48,3.48,0,0,1,1-2,3.4,3.4,0,0,1,1.94-1h38.91a3.42,3.42,0,0,1,2.92,2.92v30.15h9.73V418.82a3.51,3.51,0,0,1,1-2.54,3.41,3.41,0,0,1,1.95-1h36a3.5,3.5,0,0,1,2,1,3.65,3.65,0,0,1,1,2.92q.24,16.32.49,32.64h8.53V419.48a4,4,0,0,1,1.68-3.2,3.71,3.71,0,0,1,2.44-.49H607.6s1,36.68,1.46,36.34,9.29,0,9.29,0V418.48a3.76,3.76,0,0,1,1.41-3.17,3.09,3.09,0,0,1,1.46-.49h40.86v34.63l12.65.39V417.49a3.39,3.39,0,0,1,.48-1.21,3.64,3.64,0,0,1,2.44-1.46l43.29-.49a6.52,6.52,0,0,1,2.92,1,6.44,6.44,0,0,1,1.94,1.94l13.59,31.35,3.39-1.63-13.09-28.15a2.92,2.92,0,0,1,0-2.54,2.52,2.52,0,0,1,1-1l7.29-.49a5.56,5.56,0,0,1,1.46.49,5.65,5.65,0,0,1,2.43,2.43l17.51,32.1,6.81-1-21.4-34.05a2.14,2.14,0,0,1-.49-1.46,2.32,2.32,0,0,1,2-1.94l14.52-3.12-7.22-6.13-46.17-2.56Z"/><path class="cls-9" d="M410.09,542.28c-1.5.87-2.36,2.61-2.89,14.57-.48,11.14.15,12.28,1,12.65,2.08.91,6.06-2.26,7.78-5.84,1-2.11.56-2.93,1-8.75.52-7.25,2-9.48,0-11.68A6,6,0,0,0,410.09,542.28Z"/><path class="cls-9" d="M664,539.34c2.29,1.42,4.77.66,8.75,0,2.76-.46,10.28-.3,25.3,0,22.66.46,27.22,4.75,42.8,1.95,7.2-1.3,10.84-2,12.65-4.87,6.1-9.63-8.82-37.81-32.11-45.72-23.56-8-52.32,5.88-59.34,24.32C659.06,523,658.49,535.92,664,539.34Z"/><path class="cls-9" d="M409.15,543.23c2.52,1.89,6,2.28,11.67,2.92a59.92,59.92,0,0,0,13.62,0c15.75-1.83,21.28,1,43.78-1,17.14-1.48,25.72-2.21,30.16-6.81,8.4-8.7,8.76-26.18,1-36-8.58-10.8-24.61-9.27-50.59-6.81-24.58,2.34-42.66,4.06-50.58,17.51C402.36,523,402.52,538.27,409.15,543.23Z"/><circle class="cls-9" cx="458.63" cy="542.33" r="31.91"/><ellipse class="cls-10" cx="458.63" cy="542.33" rx="24.58" ry="25.01"/><circle class="cls-11" cx="458.63" cy="542.33" r="17.25"/><ellipse class="cls-12" cx="458.63" cy="542.33" rx="13.32" ry="13.37" transform="matrix(1, -0.04, 0.04, 1, -19.71, 17.3)"/><path class="cls-13" d="M388.72,454.71c-.37,3.67-1,4.81-1.46,7.29-2.31,12.9-3.39,26.86-1.94,70,.1,3,.26,7.54.48,13.14l17.51,1a6.59,6.59,0,0,0,3.41-.49,6.79,6.79,0,0,0,3.4-3.4q5.36-10.21,10.7-20.43a7.26,7.26,0,0,1,2.44-2.43,7.42,7.42,0,0,1,4.86-1l60.31.48a8.86,8.86,0,0,1,5.84,1.46,8.31,8.31,0,0,1,2,2l11.67,19.45H669.38c.62-4.28,3.37-19.49,16.54-29.18a38.82,38.82,0,0,1,11.67-5.84H719a39.13,39.13,0,0,1,14.59,7.78A40.11,40.11,0,0,1,746.23,535a12,12,0,0,0,4.86,7.79,11.76,11.76,0,0,0,7.79,1.94l41.83-1c2.41-9.69,6.79-33-2.92-59.34a98.94,98.94,0,0,0-19.94-32.59L416,448.87a57.22,57.22,0,0,1-11.67,0,45.06,45.06,0,0,0-9.73,0c-2,.22-3.79.57-4.87,1.94C388.88,451.86,388.9,453,388.72,454.71Z"/><path class="cls-12" d="M396,421.14a88.07,88.07,0,0,0-3.13,12.2A81.43,81.43,0,0,0,391.64,446h1c1.78-11.63,1.95-12.65,1.95-12.65A106.6,106.6,0,0,1,402.34,408l-1-1S398.29,414.08,396,421.14Z"/><path class="cls-14" d="M784.17,445.46A173.12,173.12,0,0,0,761.31,410c1,0,3.58,0,4.38-1.46,1-1.74-.88-5.35-5.35-8.27a57.82,57.82,0,0,0-12.16-6.32c-5.78-2.18-10.46-2.88-17.51-3.9a158.65,158.65,0,0,0-16.06-1.46c-54-1.45-98-2.11-129.87-2.43-62.88-.63-36.52.47-57.39,0,0,0-46-1-91.45,3.89a64,64,0,0,0-25.29,7.79,59.37,59.37,0,0,0-10.21,7.29l.48,3.41c-.1.22-.19.45-.29.67h10.13a4.87,4.87,0,0,1,4.86,4.86v25.3a4.87,4.87,0,0,1-4.86,4.86H391.28c0,.43-.09.86-.13,1.27a4.89,4.89,0,0,0-3.89,2.92,5,5,0,0,0,1.95,5.84q154.2-1.35,308.38,1,28.21.44,56.42,1A57,57,0,0,1,773.47,463c16.69,9.55,23.57,24.95,25.78,30.64A173.69,173.69,0,0,0,784.17,445.46Zm-311.59-5.83a4.86,4.86,0,0,1-4.86,4.86H430.07a4.87,4.87,0,0,1-4.87-4.86v-25.3a4.87,4.87,0,0,1,4.87-4.86h37.65a4.86,4.86,0,0,1,4.86,4.86Zm57.69.61a3.28,3.28,0,0,1-3.28,3.28H488.8a3.28,3.28,0,0,1-3.28-3.28V413.72a3.28,3.28,0,0,1,3.28-3.28H527a3.28,3.28,0,0,1,3.28,3.28Zm62.26,0a3.28,3.28,0,0,1-3.28,3.28H551.06a3.28,3.28,0,0,1-3.28-3.28V413.72a3.28,3.28,0,0,1,3.28-3.28h38.19a3.28,3.28,0,0,1,3.28,3.28Zm61.28,0a3.28,3.28,0,0,1-3.28,3.28H612.34a3.28,3.28,0,0,1-3.28-3.28V413.72a3.28,3.28,0,0,1,3.28-3.28h38.19a3.28,3.28,0,0,1,3.28,3.28Zm44.75,3.28H672.3V413.11a3.64,3.64,0,0,1,3.64-3.64h22.62Zm3.49,0v-34h24.84l15.89,34Zm43.84,0-16.2-35h4.87c7.15,0,8.38,0,9.72,1a12.71,12.71,0,0,1,2,1.95,31.74,31.74,0,0,1,2.92,3.89c1.5,2.38,7.21,13.22,14.59,28.21Zm24.66,0L749.15,407h6.44a4.3,4.3,0,0,1,1.61,1,5.12,5.12,0,0,1,.81,1l21.3,34.51Z"/><path class="cls-14" d="M377.05,519.88c-.14-1.24-.3-2.49.48-3.4a3.58,3.58,0,0,1,4.38-.49c.85.59,1.07,1.5,1.46,3.41,1.21,5.83,1,5.83,1.46,7.29,1.62,4.72,4.6,5.8,4.86,5.84a3.34,3.34,0,0,0,1,0c6.75-.87,13.62,0,20.43,0a4.25,4.25,0,0,1,1.94,2c2.15,4.88-7.76,14.57-7.78,14.59H379a9.34,9.34,0,0,1-3.89-2.92,5.74,5.74,0,0,1,0-5.84,12.76,12.76,0,0,1,2.43-2.43h0s.09-3.73,0-6.81C377.28,522,377.05,519.88,377.05,519.88Z"/><path class="cls-15" d="M507.4,533.34a2.76,2.76,0,0,0-2.91,2.92,2.73,2.73,0,0,0,2.91,2.11H666.88a2.73,2.73,0,0,0,3-2.11,2.77,2.77,0,0,0-3-2.86Z"/><path class="cls-16" d="M791.47,483.89a4.23,4.23,0,0,0-2-1.95,4,4,0,0,0-2.92,0c-1.6.66-2.26,2.28-2.92,3.9a15.4,15.4,0,0,0-1,3.89,22.92,22.92,0,0,0,0,7.78c.45,2.34,1.39,7.25,4.86,8.76.19.08,2.53,1.06,3.9,0a3,3,0,0,0,1-1.95C792.73,502.56,794.69,489.74,791.47,483.89Z"/><path class="cls-11" d="M788.06,485.35a3.12,3.12,0,0,0-1,1,10.76,10.76,0,0,0-2,4.87,15.32,15.32,0,0,0,2,9.72c.87,1.42,1.46,1.79,1.94,1.95,2.17.73,4.65-1.73,4.87-1.95,3.28-3.33,3.42-10.29,0-13.61C792.52,486,789.77,484.42,788.06,485.35Z"/><path class="cls-15" d="M450.69,499.74H425.07a1.16,1.16,0,0,1-1.16-1.17h27.95A1.17,1.17,0,0,1,450.69,499.74Z"/><path class="cls-15" d="M450.69,495.93H425.07a1.17,1.17,0,0,1-1.16-1.17h27.95A1.18,1.18,0,0,1,450.69,495.93Z"/><path class="cls-15" d="M450.69,492.11H425.07a1.16,1.16,0,0,1-1.16-1.17h27.95A1.17,1.17,0,0,1,450.69,492.11Z"/><path class="cls-15" d="M450.69,488.59H425.07a1.16,1.16,0,0,1-1.16-1.17h27.95A1.17,1.17,0,0,1,450.69,488.59Z"/><path class="cls-15" d="M450.69,484.48H425.07a1.16,1.16,0,0,1-1.16-1.17h27.95A1.17,1.17,0,0,1,450.69,484.48Z"/><path class="cls-15" d="M450.69,481H425.07a1.16,1.16,0,0,1-1.16-1.17h27.95A1.17,1.17,0,0,1,450.69,481Z"/><path class="cls-15" d="M450.69,477.44H425.07a1.16,1.16,0,0,1-1.16-1.17h27.95A1.17,1.17,0,0,1,450.69,477.44Z"/><path class="cls-15" d="M450.69,473.63H425.07a1.17,1.17,0,0,1-1.16-1.17h27.95A1.18,1.18,0,0,1,450.69,473.63Z"/><path class="cls-15" d="M450.69,469.81H425.07a1.16,1.16,0,0,1-1.16-1.17h27.95A1.17,1.17,0,0,1,450.69,469.81Z"/><path class="cls-15" d="M450.69,465.7H425.07a1.16,1.16,0,0,1-1.16-1.16h27.95A1.17,1.17,0,0,1,450.69,465.7Z"/><path class="cls-5" d="M400.3,405.19c0,.43,8.84.17,17.51,0,22.58-.45,70.72-.85,73.91-1h0c10.18-.42-4.46.31,108-1,80.82.26,112.53.18,122.57,0,.56,0,3.22-.06,6.81,0,7.93.13,17.67.34,29.18,2.92,5,1.12,7.74,2.1,7.79,1.95s-9.5-4.72-21.41-6.81c-5.75-1-9.21-1-27.23-1-2,0,.79-.33-21.41,0-25.12.37-46.33-.16-92.41,0-62.8.21-50.6,1.29-87.56,1-27.24-.24-54.47,1.22-81.71,1a249.54,249.54,0,0,0-28.21,2C402.15,404.68,400.29,405,400.3,405.19Z"/><path class="cls-16" d="M607.51,466.48c-3-.49-3.55-.38-3.89,0-.94,1,0,3.89,0,3.89h0s5-.59,10.74-.72c2.55,0,3.81,0,3.85-.26s-2.85-1.16-5.84-1.94C612.37,467.45,610.5,467,607.51,466.48Z"/><path class="cls-15" d="M609.45,467.45a8.22,8.22,0,0,1,3.89-1.95,5,5,0,0,1,3.9,1c1.82,1.66,1.2,4.72,1,5.83a11.3,11.3,0,0,1-4.87,6.81c-1.6,1.15-3.66,2.64-5.83,1.95a4.8,4.8,0,0,1-2.92-2.92c-1.29-3.57,2.27-7.58,1.95-7.78s-2.47,1.83-2.92,4.86c-.1.63-.48,3.22,1,4.87,2.48,2.81,9.07,1.4,12.65-2a10.28,10.28,0,0,0,2.91-4.86c.31-1.22,1.11-4.42-1-6.81a6.16,6.16,0,0,0-5.84-2A5.9,5.9,0,0,0,609.45,467.45Z"/><path class="cls-15" d="M677.55,466.48c.33.33,2-1.66,4.86-2a4.74,4.74,0,0,1,3.9,1,3.93,3.93,0,0,1,1,3.89c-.69,2.18-3.32,2.79-3.89,2.92,0,0-2.25.52-6.81-1h0a11.18,11.18,0,0,0,4.86,2.92,7.12,7.12,0,0,0,2.92,0c.9-.17,3.6-.67,4.86-2.92a6.16,6.16,0,0,0-1-6.81,6.9,6.9,0,0,0-8.75-1C678.06,464.56,677.29,466.2,677.55,466.48Z"/><path class="cls-17" d="M535.94,453.77q-.72,30.51.55,62.73.4,9.62,1,19"/><path class="cls-18" d="M538.44,403.24q-1.86,24.61-2.5,50.53"/><path class="cls-17" d="M600.39,453.83l-.18,12.29q-.51,35.2-1,70.4"/><path class="cls-18" d="M601.18,402.76q-.4,25.53-.79,51.07"/><path class="cls-17" d="M661.67,453.83q-.1,6.1-.17,12.29c-.24,24.42.13,47.91,1,70.4"/><path class="cls-18" d="M663.44,402.76q-1.28,24.74-1.77,51.07"/><path class="cls-17" d="M667.34,454.77V501c40.36,1.67,56.12,1.7,59.34,1a10.37,10.37,0,0,1,4.86,0,10.56,10.56,0,0,1,4.87,2.92,10.84,10.84,0,0,1,1.94,2.92c2.76,5.86,3.43,10.74,5.84,15.57a34.32,34.32,0,0,0,3.89,5.83c8,9.66,27.65,7.28,31.13,6.81"/><path class="cls-19" d="M669.28,444.59a5.59,5.59,0,0,0-1.94,2.92,17.43,17.43,0,0,0,0,3.89v3.37"/><path class="cls-17" d="M772.4,460.15c.84,3.34,1.92,8,2.92,13.62A212.1,212.1,0,0,1,778.24,502c.4,8,.59,18.22,0,30.16"/><path class="cls-17" d="M416.35,453.34c-.56,16.43-.61,33.64,0,51.56q.36,10.39,1,20.43"/><path class="cls-17" d="M386.19,517.55a14.41,14.41,0,0,1,4.87,2.92,15.91,15.91,0,0,1,4.86,10.7"/><path class="cls-16" d="M389.73,450.81h-.1c-1.59-.06-3.71.82-3.83,1.95s1.71,2.61,1.94,2.89c0,0,0,0,0,0h0c59.78,0,331.37.19,356.26,1l1.3.05a65.65,65.65,0,0,1,24.73,5.79A59.7,59.7,0,0,1,792.44,481c5,6.77,7.89,14,8.75,13.62.59-.25-.33-3.81-1-5.84-3.47-11-11.39-17.88-15.56-21.4-2.14-1.8-12-10.1-22.48-12.16a156.71,156.71,0,0,0-17.63-1.94h0C736.6,452.37,401.17,451.41,389.73,450.81Z"/><path class="cls-14" d="M806.06,514.05c-.33,1-.65,1.94-1,2.92-1.32,0-3.35,0-5.84,0-3.54-.08-4.44-.24-5.84,0a12.4,12.4,0,0,0-6.81,3.89s-2.11,2.95-1.94,10.7l-36-1a11.91,11.91,0,0,0-1.94,1.94c-1.25,1.92.62,5.23,1,5.84a11.5,11.5,0,0,0,5.84,4.86,13.8,13.8,0,0,0,5.83,1c5.18-.2,20.29-.12,41.83,0a9,9,0,0,0,4.87,1.95l1.14-.09a17.25,17.25,0,0,0,3.72-.88V514.05Zm-7.78,17.51h-8.76a12.49,12.49,0,0,1,0-6.81,5.86,5.86,0,0,1,2-2.92c1.27-1,2.6-.93,4.86-1,6.66-.14,7.33-.66,7.78,0C805.72,523.21,798.28,531.56,798.28,531.56Z"/><ellipse class="cls-16" cx="775.69" cy="476.41" rx="4.31" ry="6.54" transform="translate(-103.14 239.1) rotate(-16.45)"/><ellipse class="cls-11" cx="776.09" cy="476.52" rx="2.97" ry="4.5" transform="translate(-103.16 239.22) rotate(-16.45)"/><path class="cls-16" d="M675.6,466.28c-3.5-.57-4.19-.45-4.6,0-1.11,1.21,0,4.6,0,4.6h0s5.94-.7,12.7-.85c3-.07,4.5,0,4.55-.3.07-.49-3.37-1.39-6.9-2.3C681.35,467.43,679.14,466.85,675.6,466.28Z"/><circle class="cls-9" cx="707.88" cy="542.33" r="31.91"/><ellipse class="cls-10" cx="707.88" cy="542.33" rx="24.58" ry="25.01"/><circle class="cls-11" cx="707.88" cy="542.33" r="17.25"/><ellipse class="cls-12" cx="707.88" cy="542.33" rx="13.32" ry="13.37" transform="translate(-19.54 26.51) rotate(-2.12)"/></g></svg>
