<svg xmlns="http://www.w3.org/2000/svg" viewBox="0 0 1920 800"><defs><style>.cls-1{fill:#f0c8c0;}.cls-2{fill:#e9a8a4;}.cls-3{fill:#faeceb;}</style></defs><g id="Layer_2" data-name="Layer 2"><path class="cls-1" d="M581,320.49a221.74,221.74,0,0,1,32.64-16c29.38-11.5,38.9-8,62.75-18.87C697.49,276,693.31,271.81,717.6,260c22.47-10.9,28-8.21,51.21-18.86,6.82-3.13,19.2-11,43.68-26.61,55-35.06,47.47-32.05,57.73-37.25,14-7.08,23.09-10.23,32.63-20.8,7.6-8.41,9.57-15,14.56-15,7.3,0,9.49,13.94,20.59,30.47,8.84,13.17,19.45,21,40.66,36.77,21.62,16,32.66,24,44.18,22.73,14-1.55,15.09-13.12,26.61-12.09,12.26,1.09,16.06,11.68,46.19,41.6,17.92,17.8,23.76,21.19,26.61,22.74,10.25,5.56,16.17,5.86,29.12,14,11.74,7.4,10.77,9.61,16.06,10.64,12.28,2.39,17-9.59,38.16-14.51,11.77-2.75,12.06.56,23.59-2.91,9.06-2.72,12.15-5.74,25.61-10.15,8-2.61,11.93-3.92,15.06-3.87,10.49.14,15,7.65,31.13,20.8,14.22,11.61,23.65,19.31,37.65,22.73,11.27,2.76,11.58-.66,25.6,1.94a104.64,104.64,0,0,1,38.16,16c16.91,11.41,17.39,19,28.62,20.32,10.55,1.22,22.75-4,24.6-4.84,6.72-2.9,8.27-5.13,14.56-6.77,8.11-2.12,15-.87,19.57,0,16.42,3.14,27.67,12.95,32.64,17.9L1553,387.25,1962,620q11,125,22,250L-83,883l12-502Z"/><path class="cls-1" d="M896.58,183.84c2.46,2.79-12.4,20.9-24.6,32.89-8.94,8.78-12.94,10.84-16.07,17.9-5,11.25.37,17-1,28.54-1.57,13.29-14.12,24.52-39.16,46.44-9.33,8.17-30.73,26.9-34.64,23.7-1.62-1.33.59-7.17,5-18.86,4.67-12.32,7.45-16.76,6-17.9-2-1.62-8.67,6.21-22.59,13.06A103.73,103.73,0,0,1,742,318.32c-15.47,2.94-17.09.17-29.62,2.9-19.22,4.19-27.44,13.35-29.62,11.12-3-3,8.83-23.66,28.62-35.79,10.27-6.3,22.72-10.34,32.63-13.55,12-3.9,13.14-3.17,18.57-5.32,17.84-7.05,20.66-20.66,34.64-36.28,4.56-5.09,5.72-5.27,57.74-35.8C885.8,187.48,894.92,182,896.58,183.84Z"/><path class="cls-1" d="M1043.68,243.34c4.76,3.85-4.1,19.13-16.57,40.63-2.44,4.22-6.26,10.49-11.55,10.64-4.12.12-5-3.62-10-4.84-5.44-1.32-9.3,1.88-22.59,8.71-11.25,5.78-16.91,8.64-18.57,7.26-2.89-2.4,2.17-14.41,9.53-23.71,5.29-6.66,11-11,41.67-27.08C1039,242.67,1041.89,241.89,1043.68,243.34Z"/><path class="cls-1" d="M1262.07,301.38c2.81,7.75-23.74,23.74-34.14,30-19.57,11.78-24.63,10.59-42.17,22.73-12.54,8.68-21.9,17.56-23.1,16.45-1.61-1.49,14.92-17.93,12-21.29-1.65-1.92-9,1.28-27.61,10.65-31.68,15.95-41.75,22.46-43.18,20.8-1.92-2.25,13.18-17.87,26.61-29.51,5.72-5,19-16,41.17-29,22.89-13.45,38.29-22.28,60.25-24.68C1235,297.18,1259.57,294.5,1262.07,301.38Z"/><ellipse class="cls-2" cx="1300.65" cy="184.22" rx="57.35" ry="55.45"/><path class="cls-3" d="M1327.79,206.26c-.38-.33.3-1.93,1.22-3a5.91,5.91,0,0,1,4.27-2.44,5.77,5.77,0,0,1,4.27,1.83c.67.75.89,1.48,1.83,1.83a2.8,2.8,0,0,0,1.83,0,4,4,0,0,0,1.83-1.83c1.69-2.32,6.16-1.89,6.71-1.83.25,0,5.48.67,7.32,4.88.53,1.19,1,2.75.61,3s-1.22-.7-3.35-2.14-3.25-2.19-4.88-2.44a8,8,0,0,0-4.27.61,3.52,3.52,0,0,0-1.84,1.22c-.68,1.08.06,2-.61,3.05a2.44,2.44,0,0,1-2.44,1.22c-.34-.1-.64-.36-1.83-3.05-.79-1.79-.81-2-1.22-2.44a4.59,4.59,0,0,0-3-1.22c-.88,0-2,.62-4.27,1.83C1328.45,206.14,1328,206.44,1327.79,206.26Z"/><path class="cls-3" d="M1243.73,152.46c-.51-.43.42-2.59,1.64-4.1.58-.71,2.58-3.18,5.75-3.28a7.73,7.73,0,0,1,5.74,2.46c.91,1,1.2,2,2.46,2.46a3.78,3.78,0,0,0,2.47,0,5.38,5.38,0,0,0,2.46-2.46c2.28-3.12,8.29-2.54,9-2.46.34,0,7.36.9,9.85,6.56.7,1.61,1.4,3.71.82,4.11s-1.65-.93-4.52-2.87-4.37-3-6.56-3.29a10.65,10.65,0,0,0-5.75.82,4.68,4.68,0,0,0-2.46,1.64c-.92,1.46.07,2.64-.82,4.11-.68,1.11-2.19,2-3.28,1.64-.46-.14-.86-.49-2.47-4.1-1.07-2.42-1.1-2.73-1.64-3.29a6.12,6.12,0,0,0-4.1-1.64c-1.18,0-2.72.84-5.75,2.46C1244.62,152.3,1244,152.71,1243.73,152.46Z"/><path class="cls-3" d="M1181.34,206.29c-.51-.43.42-2.59,1.64-4.1.58-.71,2.58-3.19,5.75-3.29a7.76,7.76,0,0,1,5.74,2.47c.91,1,1.2,2,2.47,2.46a3.75,3.75,0,0,0,2.46,0,5.43,5.43,0,0,0,2.46-2.46c2.28-3.12,8.29-2.54,9-2.47.34,0,7.36.91,9.85,6.57.7,1.61,1.4,3.71.82,4.1s-1.65-.93-4.52-2.87-4.36-2.95-6.56-3.28a10.67,10.67,0,0,0-5.75.82,4.68,4.68,0,0,0-2.46,1.64c-.92,1.45.07,2.64-.82,4.1-.68,1.12-2.19,2-3.28,1.65-.46-.14-.86-.49-2.47-4.11-1.07-2.41-1.1-2.72-1.64-3.28a6.12,6.12,0,0,0-4.1-1.64c-1.18,0-2.72.83-5.75,2.46C1182.23,206.13,1181.63,206.54,1181.34,206.29Z"/></g></svg>
