<svg xmlns="http://www.w3.org/2000/svg" xmlns:xlink="http://www.w3.org/1999/xlink" viewBox="0 0 500 500"><defs><style>.cls-1{fill:none;stroke:#fff;stroke-miterlimit:10;stroke-width:5px;}.cls-2{clip-path:url(#clip-path);}</style><clipPath id="clip-path"><path class="cls-1" d="M250,401,17.52,165l5.34-6.29C161.62,16.26,333.51,8.89,471.79,152.37L482.48,165Z"/></clipPath></defs><g id="japan"><g class="cls-2"><rect class="cls-1" x="204.57" y="-18.55" width="85.51" height="85.51" transform="translate(55.33 181.98) rotate(-45)"/><rect class="cls-1" x="199.5" y="6.6" width="95.66" height="95.66" transform="translate(33.95 190.83) rotate(-45)"/><rect class="cls-1" x="178.71" y="-6.17" width="137.23" height="137.23" transform="translate(28.28 193.18) rotate(-45)"/><rect class="cls-1" x="144.7" y="-56.21" width="205.25" height="205.25" transform="translate(39.62 188.48) rotate(-45)"/><rect class="cls-1" x="144.7" y="-13.46" width="205.25" height="205.25" transform="translate(9.39 201) rotate(-45)"/><rect class="cls-1" x="127.7" y="-17.1" width="239.27" height="239.27" transform="translate(-0.06 204.92) rotate(-45)"/><rect class="cls-1" x="114.47" y="-16.97" width="265.72" height="265.72" transform="translate(-9.51 208.83) rotate(-45)"/><polyline class="cls-1" points="247.33 398.31 220.94 310.62 3.32 102.53 247.33 -141.47 491.33 91.84 274.66 308.52 252.67 398.31"/><line class="cls-1" x1="247.33" y1="303.78" x2="250" y2="403.65"/><polyline class="cls-1" points="258.02 392.96 295.43 323.49 487.82 137.69"/><polyline class="cls-1" points="244.66 398.31 207.9 328.83 18.86 143.03"/></g><path class="cls-1" d="M250,401,17.52,165l5.34-6.29C161.62,16.26,333.51,8.89,471.79,152.37L482.48,165Z"/><path class="cls-1" d="M225.11,405.67h49.4a0,0,0,0,1,0,0v49.4a0,0,0,0,1,0,0h0a49.4,49.4,0,0,1-49.4-49.4v0A0,0,0,0,1,225.11,405.67Z" transform="translate(-231.15 302.7) rotate(-45)"/><line class="cls-1" x1="250" y1="387.62" x2="250" y2="444.84"/><line class="cls-1" x1="248.32" y1="399.27" x2="231.29" y2="441.06"/><line class="cls-1" x1="247.33" y1="392.96" x2="272.57" y2="439.29"/></g></svg>
