<svg id="scandinavia" xmlns="http://www.w3.org/2000/svg" viewBox="0 0 500 500"><defs><style>.cls-1{fill:none;stroke:#fff;stroke-miterlimit:10;stroke-width:5px;}</style></defs><circle class="cls-1" cx="252.13" cy="250" r="32.04"/><path class="cls-1" d="M252.39,473.7h0c-50.67-50.77-53-119.33-5.84-171.89l5.84-6.51,10,12.28c40.68,49.88,38.63,112.51-5.27,160.89Z"/><path class="cls-1" d="M252.39,204.7h0c-50.67-50.77-53-119.33-5.84-171.89l5.84-6.51,10,12.28c40.68,49.88,38.63,112.51-5.27,160.89Z"/><path class="cls-1" d="M208.7,236.43h0c-70.47,13.3-128.46-23.36-145.36-91.92L61.24,136,77,134.65c64.13-5.55,114.74,31.4,130,94.91Z"/><path class="cls-1" d="M297.24,236.43h0c70.48,13.3,128.46-23.36,145.37-91.92L444.7,136l-15.78-1.37c-64.13-5.55-114.74,31.4-130,94.91Z"/><path class="cls-1" d="M445.53,369.52h0c-70.48,13.3-128.46-23.36-145.37-91.92l-2.09-8.49,15.78-1.37c64.13-5.55,114.74,31.4,130,94.92Z"/><path class="cls-1" d="M215.7,275.5h0c-24.19,67.52-85.16,99-152.84,78.85l-8.39-2.49,6.81-14.31C89,279.44,146.43,254.49,209,273.45Z"/></svg>
