<svg id="scandinavia" xmlns="http://www.w3.org/2000/svg" viewBox="0 0 500 500"><defs><style>.cls-1{fill:none;stroke:#fff;stroke-miterlimit:10;stroke-width:5px;}</style></defs><circle class="cls-1" cx="249.88" cy="249.81" r="32.04"/><path class="cls-1" d="M250.14,479.2h0c-50.67-50.77-53-119.33-5.85-171.89l5.85-6.51,10,12.28C300.83,363,298.78,425.59,254.88,474Z"/><path class="cls-1" d="M250.14,199.2h0c-50.67-50.77-53-119.33-5.85-171.89l5.85-6.51,10,12.28C300.83,83,298.78,145.59,254.88,194Z"/><path class="cls-1" d="M298.18,229h0c70.48,13.31,128.46-23.35,145.36-91.91l2.1-8.49-15.78-1.37c-64.13-5.55-114.74,31.4-130,94.91Z"/><path class="cls-1" d="M298.18,270.62h0c70.48-13.31,128.46,23.36,145.36,91.91l2.1,8.49-15.78,1.37c-64.13,5.55-114.74-31.39-130-94.91Z"/><path class="cls-1" d="M201.82,229h0C131.34,242.3,73.36,205.64,56.46,137.08l-2.1-8.49,15.78-1.37c64.13-5.55,114.74,31.4,130,94.91Z"/><path class="cls-1" d="M201.82,270.62h0C131.34,257.31,73.36,294,56.46,362.53L54.36,371l15.78,1.37c64.13,5.55,114.74-31.39,130-94.91Z"/></svg>
