<svg id="Layer_1" data-name="Layer 1" xmlns="http://www.w3.org/2000/svg" viewBox="0 0 52.8 94.69"><defs><style>.cls-1{fill:none;stroke:#000;stroke-linecap:round;stroke-miterlimit:10;stroke-width:2.78px;}</style></defs><path d="M63.39,54.52A11.56,11.56,0,0,1,74.94,66.07v67.86a11.56,11.56,0,0,1-11.55,11.55h-26a11.56,11.56,0,0,1-11.56-11.55V66.07A11.56,11.56,0,0,1,37.42,54.52h26m0-1.86h-26A13.41,13.41,0,0,0,24,66.07v67.86a13.41,13.41,0,0,0,13.42,13.41h26A13.41,13.41,0,0,0,76.8,133.93V66.07A13.41,13.41,0,0,0,63.39,52.66Z" transform="translate(-24 -52.66)"/><line class="cls-1" x1="26.4" y1="8.84" x2="26.4" y2="17.97"/></svg>
