<svg id="Layer_2" data-name="Layer 2" xmlns="http://www.w3.org/2000/svg" viewBox="0 0 1920 700"><defs><style>.cls-1{fill:#fff;}.cls-2{fill:#f4f4f2;}</style></defs><g id="beach"><g id="beach-2"><path class="cls-1" d="M-23,510.5c157.15-12,310.34-26.88,310-40-.15-5.61-28.38-9.51-28-17,.47-9.29,44.45-14.1,53-15,118.11-12.41,509.62-28.54,510-34,.24-3.49-159-13.23-159-26,0-5.47,29.11-10.35,71-15,198.78-22.07,295.93,4.33,423-13a801.43,801.43,0,0,1,96-8c26.72-.61,37.65.91,90,3,23.53.94,63,2.52,106,3,60.84.69,92.65,1,136-2,56.52-4,111-12.2,113-4,.85,3.57-9.06,7-8,11,2.19,8.33,48.38,8.73,80.38,1.2,1.1-.26,11.11-2.63,11.62-1.2.73,2.06-19.54,8.42-19,13,1.16,9.75,95.75,3.24,97,13,.63,4.95-23.36,9.54-23,14,.46,5.77,41.54,9.31,166,7V290c-10.57-.11-26.63-.19-46.17,0-55.71.53-97.1,2.87-109.83,3.55-63.16,3.4-111.42,3.28-213,6-234.25,6.27-247.12,14.09-429,17-105.17,1.69-97.73-1-261,1-131.14,1.59-196.71,2.38-241,4-124.14,4.53-149.64,9.44-217,3-95.05-9.08-140-16-140-16-54.88-8.45-76.51-14.44-115-10-30.46,3.51-39,9.81-72,10-26.2.15-48.19-3.66-79-9-44.22-7.66-50.4-12.26-70-11-27.78,1.79-49.54,13.22-63,22l-3.57,200Z"/><path class="cls-2" d="M-50,503.5c157.15-12,310.34-26.88,310-40-.15-5.61-28.38-9.51-28-17,.47-9.29,44.45-14.1,53-15,118.11-12.41,509.62-28.54,510-34,.24-3.49-159-13.23-159-26,0-5.47,29.11-10.35,71-15,198.78-22.07,295.93,4.33,423-13a801.43,801.43,0,0,1,96-8c26.72-.61,37.65.91,90,3,23.53.94,63,2.52,106,3,60.84.69,92.65,1,136-2,56.52-4,111-12.2,113-4,.85,3.57-9.06,7-8,11,2.19,8.33,48.38,8.73,80.38,1.2,1.1-.26,11.11-2.63,11.62-1.2.73,2.06-19.54,8.42-19,13,1.16,9.75,95.75,3.24,97,13,.63,4.95-23.36,9.54-23,14,.46,5.77,41.54,9.31,166,7V283c-10.57-.11-26.63-.19-46.17,0-55.71.53-97.1,2.87-109.83,3.55-63.16,3.4-111.42,3.28-213,6-234.25,6.27-247.12,14.09-429,17-105.17,1.69-97.73-1-261,1-131.14,1.59-196.71,2.38-241,4-124.14,4.53-149.64,9.44-217,3-95.05-9.08-140-16-140-16-54.88-8.45-76.51-14.44-115-10-30.46,3.51-39,9.81-72,10-26.2.15-48.19-3.66-79-9-44.22-7.66-50.4-12.26-70-11-27.78,1.79-49.54,13.22-63,22l-3.57,200Z"/></g></g></svg>
