<svg id="Layer_2" data-name="Layer 2" xmlns="http://www.w3.org/2000/svg" viewBox="0 0 1920 700"><defs><style>.cls-1{fill:none;stroke:#3993fa;stroke-miterlimit:10;}</style></defs><g id="clouds"><path class="cls-1" d="M691.84,236.92c-2-3.94,3.32-7.29,7.41-6.4,2.56-.44,5.87,4.51,5.34,3.24-.48-5.29,5.18-11.58,11.55-9.82,4.7,1.42,5,6.24,5.45,9.92,0,4.7,5.81,3.67,9,5.54,2.52,2.16,4.35,7.16,9,5.44,4.82-1,9.94-.5,14.82,0,4.07-.63,9.74,6.46,3,5.79-26,1.25-52.19,3.63-78.2.85,0-.14,11.69.65,7.14-2.57-3.66-2.16-2.35-6.67,1.15-8.33,1.58-1.08,3.37-2.07,4.34-3.68Z"/><path class="cls-1" d="M989.75,126.6c-6.58-6.33,2-17.19,9.68-13.82,5,1.23,4.79,11.48,9.45,5.4,7.55.77,10.78,12.25,19.09,5,8.16-1.24,13.64,7.46,13.56,14,6.79,1.19,15.36,9,8.32,15.69-7,6.5-14.87-.86-22.17-2-7.13-.7-13.36,3.75-20.52,3.71-9.2,1.23-20.75,1.63-26.92-6.91-5.25-2.93-9,7.84-15.92,6.19-8.12.7-17.47-2-22.51-8.88-3.11-7.71,4.94-13.26,6.14-20.3,2.53-8.81,14.35-6.31,18.75-.41,4.13,5,11.58-6.24,18.28-1.44a8.45,8.45,0,0,1,4.77,3.81Z"/><path class="cls-1" d="M657.56,149.54c-2.94-1.54-.36-4.93,1.77-4.81,1.3-3.06,7-3,8.56-.18.92.77.59,3.65.92,1.22,1.28-3.07,7.78-2.21,7.08,1.22-.76,2,.23,4.18,3,3,3.89.27,5.2,3.73,4.73,6.51.56,1.91-1.67,5-2.23,5.38,4.27-1.23,8.94-.24,12.84,1.41,1.75,2.26,5.19,3.95,7.87,1.79,3.23-.51,7,1.86,6.48,4.75-2.66,2.34-6.44-1.26-9.78-.29a65.25,65.25,0,0,0-16.64.48c-8.9.71-17.86.89-26.8,1-4,0-8-.18-12-.38-2.3.61-6.2.34-6.64-2.08.44-2.83,4.52-3.69,7.39-3.18,2,0,5.85,2.29,6.08-.59-.58-2.57.16-5.9,3.69-6.6,2.28-.35,7.68-.33,4.44-3.1-1.69-1.52-1.26-3.75-.78-5.59Z"/><path class="cls-1" d="M350.85,139.29c.64-10.56-10.58-16.49-19.81-15.55-10.43-1-21.82,1.24-29.17,9.23-3.3,3.88-3.25,13-10.24,7.79-9.95.28-10.09,13.67-7.09,20.53,3.26,9.93,15.87,18.21,25.68,13.22-4.93,1.92-8.72,14.41-3,19.69,6.37,4.83,15.3,4.19,22.85,3.87,9-1.63,15.26-9.92,15.82-18.88,3.1,8.81,14.35,10.43,22.37,9.25,10.84-1.08,14.08-13.56,12.12-22.72.67-6.16-8.33-10.8-9.75-12.56,8.77-1.46,6.57-14.84-1.56-15.72-6.34-3.33-16.49,9.73-18.22,1.85Z"/><path class="cls-1" d="M1518.65,196.88c-6.54-1.48-4.17-13.55,2.57-11.79,6.47,1,11.83-6,18.32-3.39,4.34-.21,5.06,9.71,8,7.7.21-5.75,9.44-5.21,9.24-10.85-1.89-4.43-5.52-11.15-.38-14.74,6-2.83,12.89-.79,19.12.1,6.67,1,12,6,19,5.75,7,.09,7.52,7.53,9.13,12.61a76.35,76.35,0,0,1,5.64,14.78c3.55,4.83,12,3.88,13.84,10.34,2.93,4.73,2.91,13.15-3.35,15.1-6.41,2-13.07-.34-18.84-3-6.89-.87-9.64,8-16.26,8.21-6.39,1-12.2-2.84-18.44-3.1-5.47.51-10.49,5.55-16.13,3.08-2.48-4.56-7.78-8.9-12.53-4.93-5.34.26-12.78-3.29-16.32,2.48-4.27,4.72-13,3.69-15.71-2.24-4-7,6.18-9.86,6.55-15.7.43-4.41,2-9,6.57-10.37Z"/></g></svg>
