<svg id="Layer_2" data-name="Layer 2" xmlns="http://www.w3.org/2000/svg" viewBox="0 0 1920 700"><defs><style>.cls-1{fill:#bce6d8;}</style></defs><path class="cls-1" d="M-38,589.5c46.6,27.16,116,57.74,200,56,73.38-1.52,83.5-26.16,171-35,101.67-10.27,114.05,20.38,254,23,111,2.08,103.94-17.18,189-9,117,11.25,134.78,48.12,218,38,73.8-9,75.32-39.9,158-50,74.21-9.07,79.18,15.11,169,16,111.89,1.11,126.29-36.2,239-32,64.39,2.4,70,15,139,19,72.91,4.27,104.38-13.14,199-22a1200.11,1200.11,0,0,1,137-5V330l-364-16.5L1018.64,330,384,364.5l-578,45,52,192Z"/></svg>
