<svg id="Layer_2" data-name="Layer 2" xmlns="http://www.w3.org/2000/svg" viewBox="0 0 1920 700"><defs><style>.cls-1{fill:#9a9290;}</style></defs><path class="cls-1" d="M711.42,318.39c-133.83-8.58-184.23-21.55-201.29-33.56-13.77-9.69-29.93-16.71-41.64-28.71-7-7.15-14.37-16.75-23.58-15.55-4.4.57-5.83,2.87-14,8.17-5,3.2-11.56,6.15-24.75,12-28.32,12.66-25.24,9-33.56,14.39-9.77,6.31-13.14,10.78-20.53,10.49-4.15-.16-6-1.68-17.65-9.33C323.33,269,312.17,262.15,301.06,255c-16.13-10.45-13.16-8.06-17.07-10.88-22.43-16.15-25.74-26.2-40.64-32.27-3.38-1.37-6.19-2.06-10-5.83-7.73-7.67-7.88-16.48-14.56-21.38-3-2.2-3.16-.52-13-2.33-7.44-1.36-10.22-2.83-13.43-3.5-7-1.43-10.55,2.25-25.88,11.66-8.32,5.12-21.53,13.17-36.44,19.05a147.92,147.92,0,0,1-15.34,5.05C79.54,224.59,61.37,236.68,19,250.29c-7.2,2.31-18.66,5.81-33,9.33V383.5l734.13,7Z"/></svg>
