<svg id="Layer_2" data-name="Layer 2" xmlns="http://www.w3.org/2000/svg" viewBox="0 0 1920 700"><defs><style>.cls-1,.cls-15,.cls-22,.cls-29,.cls-36,.cls-8{fill:#c9a27b;stroke:#c9a27b;}.cls-1,.cls-3,.cls-4,.cls-5,.cls-6,.cls-7{stroke-width:0.36px;}.cls-1,.cls-10,.cls-11,.cls-12,.cls-13,.cls-14,.cls-15,.cls-16,.cls-17,.cls-18,.cls-19,.cls-2,.cls-20,.cls-21,.cls-22,.cls-23,.cls-24,.cls-25,.cls-26,.cls-27,.cls-28,.cls-29,.cls-3,.cls-30,.cls-31,.cls-32,.cls-33,.cls-34,.cls-35,.cls-36,.cls-37,.cls-38,.cls-39,.cls-4,.cls-40,.cls-41,.cls-42,.cls-5,.cls-6,.cls-7,.cls-8,.cls-9{fill-rule:evenodd;}.cls-16,.cls-2,.cls-23,.cls-30,.cls-37,.cls-9{fill:#c3d444;stroke:#c3d444;}.cls-2{stroke-width:0.36px;}.cls-10,.cls-17,.cls-24,.cls-3,.cls-31,.cls-38{fill:#c2d344;stroke:#c2d344;}.cls-11,.cls-18,.cls-25,.cls-32,.cls-39,.cls-4{fill:#bad040;stroke:#bad040;}.cls-12,.cls-19,.cls-26,.cls-33,.cls-40,.cls-5{fill:#a7c83e;stroke:#a7c83e;}.cls-13,.cls-20,.cls-27,.cls-34,.cls-41,.cls-6{fill:#a3c63b;stroke:#a3c63b;}.cls-14,.cls-21,.cls-28,.cls-35,.cls-42,.cls-7{fill:#bbd041;stroke:#bbd041;}.cls-10,.cls-11,.cls-12,.cls-13,.cls-14,.cls-8{stroke-width:0.25px;}.cls-9{stroke-width:0.25px;}.cls-15,.cls-17,.cls-18,.cls-19,.cls-20,.cls-21{stroke-width:0.19px;}.cls-16{stroke-width:0.18px;}.cls-22,.cls-24,.cls-25,.cls-26,.cls-27,.cls-28{stroke-width:0.22px;}.cls-23{stroke-width:0.22px;}.cls-29,.cls-31,.cls-32,.cls-33,.cls-34,.cls-35{stroke-width:0.25px;}.cls-30{stroke-width:0.25px;}.cls-36,.cls-38,.cls-39,.cls-40,.cls-41,.cls-42{stroke-width:0.18px;}.cls-37{stroke-width:0.17px;}</style></defs><path class="cls-1" d="M69.48,238.83l-1.09-.6.38.33a1.12,1.12,0,0,0,.42.71c.22,0,.35.07.38.33a1.12,1.12,0,0,0,.42.71l.38.33,3.45,6.46a131.77,131.77,0,0,1,7.65,13.59c2.36,4.83,3.56,7.36,3.59,7.62l.09.77.42.71.37.33.13,1.15,1.31,2.52a12.77,12.77,0,0,1,1.44,3.68l.39,3.46.42.71.76.66.42.71.35,3.08.33-.06-.29.44-.33.06.46,1.09c.54.7.71,1.19.51,1.49l.38.32q.7.27.75.66l.38.33a3.68,3.68,0,0,1,.51,1.48l.09.77,1.56,4.82a42.72,42.72,0,0,1,1.75,6.37l.13,1.15,1.24,4.89q1.19,4.5,2.65,11.31a178.4,178.4,0,0,1,2.62,19.94q1.2,13.52,1.37,20.94a78.39,78.39,0,0,1-.07,8.24l.13,1.16,5-.86-.09-.77q0-.39-.06-9.4a185.48,185.48,0,0,0-1.33-20.55,210.71,210.71,0,0,0-4-23.23l-2.65-11.31-.18-1.54-2.12-6.69q-1.74-6.37-1.41-6.43c.19-.29.52-.35,1-.17l.71.27-.05-.38-.37-.33L99.62,289c-.08-.77-.24-1.14-.46-1.1l0-.38-.34,0c-.19.3-.54.23-1-.21a23.67,23.67,0,0,1-2.1-3.56,12.69,12.69,0,0,1-1.86-4.39l-.17-1.54a1.11,1.11,0,0,0-.43-.71q-.33.06-3.58-7.62a186.68,186.68,0,0,0-8.38-17l-5.14-9.31,0-.39-.38-.32-.42-.72-.09-.77.34-.05-2.13-.81-2.13-.82-.33.06A3,3,0,0,1,69.48,238.83Z"/><path class="cls-2" d="M51.66,207l0,.39-.29.43-.53,1.63c-.34,1.34-.58,2.42-.74,3.22,0,.51.28.74.71.68a1.13,1.13,0,0,1,.39.73l.06.77,0,.39.32-.05c.22,0,.32-.17.3-.43s.11,0,.38.73c.26.49,1.17.88,2.73,1.19a4.9,4.9,0,0,1,3.5,2.65,23.9,23.9,0,0,1,1.72,5.23,16.5,16.5,0,0,0,1.34,4.5A17.22,17.22,0,0,1,63.15,232l.24,3.09.06.77.06.77.33,0,0,.39,1,.25.72.68.32,0,.33,0,0,.38.35.34.68.3a2.16,2.16,0,0,0,1,.26l.33-.05,2,.9,2,.89,1-.13.69.3.35.34.33,0a2.93,2.93,0,0,1,1.36.6,86.56,86.56,0,0,1,9.27.7l8,.88,2-.27,0-.38-.33,0,0-.38-.65.08,0-.38-.32,0,0-.38-.33,0-.36-.34q-.34-.35-2.46-2-1.8-2.1-7.41-10.7l-5.58-8.22,0-.39-.32.05,0-.39-.33,0-.06-.77-.36-.34,0-.39,2.29-.3A31,31,0,0,0,85,216.6q3.91-.53,12.85-4.07L117,208.42l-10.65-5.22-.36-.34-.65.09-.35-.35-.36-.34a18.56,18.56,0,0,1-3.38-1.1q-3.37-1.11-11.08-2.8l-8-1.65-1.63.22-.36-.35-.35-.34.32,0,.3-.43.3-.43.32-.05.3-.43.29-.42.33-.05a1,1,0,0,0,.62-.47,33.42,33.42,0,0,1,5-3l5.07-2.63.62-.47.3-.43,1.3-.18-.06-.77-9.45,1.27q-9.78,1.32-14.87,3.56c-3.39,1.5-6.36,2.93-8.88,4.31A55.13,55.13,0,0,0,55.81,201q-2.1,2.61-3.29,4.34A11.65,11.65,0,0,1,51.66,207Z"/><path class="cls-3" d="M48.77,220.82l.33-.06,0,.38-.67.12-.2,1.21c-.16.55-.35.84-.58.88l-.28.44.33,0,.37.32.38.33.33-.06.67-.11.38.33,0,.38-.29.44,0,.39a4.18,4.18,0,0,1-.83,1.71A21.77,21.77,0,0,0,47,231.71a11.45,11.45,0,0,0-.8,4.85l.18,1.53c-.22,0-.35-.07-.38-.32l-.33,0,.09.77a7.16,7.16,0,0,1-.12,2l-.24.83,1.32,11.53a140.18,140.18,0,0,0,3.7,20.54c1.12,5.82,1.8,8.84,2.06,9.06l.42.71.17,1.54,2.15,4a23.88,23.88,0,0,1,2.23,4.71l.05.39.33-.06,0,.38.34,0,.17,1.53-.71-.27-.37-.32-.67.11-.38-.33-.37-.32-.33.05a10.51,10.51,0,0,1-2.88-1.46c-1.48-1.06-3.34-2.44-5.56-4.15q-3.43-3.33-6.16-6.39a56.71,56.71,0,0,1-5.34-8.11A52.9,52.9,0,0,1,32.68,264a30.05,30.05,0,0,1-.15-10.17A43.92,43.92,0,0,1,36.05,243l2-6.22.33-.06,0-.38.33-.06-.09-.77.33-.05,0-.39.33-.06L39,233.47l.09.76-.34.06,0,.39-.34,0,0,.39-.33.06,0,.38-.33.06,0,.38-.33.06,0,.38-.33.06-1.64,3.42-2.36,3.15,0,.38-.34.06.05.38-.33.06.08.77-.33.06,0,.38-.34.06.05.38-.34.06,0-.39-.33.06-.22-1.92c-.15-1.28-.33-1.91-.55-1.87s-.63-.54-1.22-1.75c-.81-1.17-1.55-1.69-2.22-1.58-.38.59-.71.65-1,.17a1.66,1.66,0,0,0-1.37-.15l-.66.11,0-.39c.22,0,.42-.33.58-.88a15.78,15.78,0,0,1,1.4-2.59,33.33,33.33,0,0,0,3.35-3.32,42.73,42.73,0,0,1,6.54-5l3.77-2.61,1-.17.29-.44.29-.44c.22,0,1.42-.38,3.61-1l3.28-.95.34-.06Zm-8.46,12c-.22,0-.34-.07-.37-.32l.33-.06Z"/><path class="cls-4" d="M48.89,207.07l-.66.12-.58.88a6.16,6.16,0,0,0-.69,2.86,6.13,6.13,0,0,1-1.35,3c-.83.66-1.76,1.48-2.78,2.43a3.33,3.33,0,0,0-1.39,2.6,4.23,4.23,0,0,0-.45,2l.13,1.16.38.33c.22,0,1.42-.38,3.61-1l3.28-.95.34-.06,0,.39.33-.06,0,.38-.67.12.09.77a1,1,0,0,1-.62.5l-.67.11.14,1.15.33,0,.37.32.38.33.33-.06-.08-.76,1-.18,1-.17.33-.05.38.32.38.33.66-.11.38.32.33-.05L53,222.05a20.1,20.1,0,0,1-.73-3.4,3.53,3.53,0,0,1,.12-2l.28-.44,0-.39.33-.05-.08-.77-.76-.66c-.44.08-.53-.69-.26-2.3.24-1.87.47-2.83.69-2.87s.32-.18.29-.44l-.09-.77-.67.12a1.77,1.77,0,0,1-1.41-.54A2,2,0,0,0,48.89,207.07Z"/><path class="cls-5" d="M25,238.23l-.66.11-1.69,3a45.66,45.66,0,0,0-2.91,7.17,54.44,54.44,0,0,0-2.23,10.18q-.09,5.11.54,13.63a80.93,80.93,0,0,0,1.23,10.77l.27,2.31.66-.12,0-.38.24-.83L20.27,283l.24-.83a28,28,0,0,0,.61-3.63,83.75,83.75,0,0,1,2.27-9.8,112.22,112.22,0,0,1,5.4-15l3.15-8,0-.39-.33.06-.22-1.92c-.15-1.28-.33-1.91-.55-1.87s-.63-.54-1.22-1.75c-.81-1.17-1.55-1.69-2.22-1.58-.38.59-.71.65-1,.17A1.66,1.66,0,0,0,25,238.23Z"/><path class="cls-6" d="M51,231l-.88-7.69-1.33.23.08.76.67-.11.38.33,0,.38-.29.44,0,.39a4.18,4.18,0,0,1-.83,1.71A21.77,21.77,0,0,0,47,231.71a11.45,11.45,0,0,0-.8,4.85l.18,1.53,1.15,4.12a31.9,31.9,0,0,0,3.25,7.68l2.1,3.56.33-.06,0,.38.33-.05,0,.38.34-.06,0,.39.33-.06.05.39.33-.06,0,.38.34-.05-.05-.39.29-.44,0-.38.66-.12-.09-.77-.37-.32-.05-.39L55,248.38q-1-3-2.12-6.7A61.14,61.14,0,0,1,51,231Z"/><path class="cls-7" d="M53.28,215.73l-.34.06-.29.44-.28.44a3.53,3.53,0,0,0-.12,2,20.1,20.1,0,0,0,.73,3.4L53.2,224l-.33.05-.38-.32-.66.11-.38-.33-.38-.32-.33.05-1,.17-.66.12,1-.17L51,231a61.14,61.14,0,0,0,1.89,10.65q1.11,3.73,2.12,6.7l.44,3.84.05.39.37.32.09.77-.66.12,0,.38c0,.26-.07.4-.29.44a.86.86,0,0,1-.71-.27l-.33.06,3.43,3.33a74.15,74.15,0,0,0,8.15,6.05c3.4,2,5.21,3,5.43,3l.34-.05.37.32.38.33.33-.06.38.33.37.33.34-.06.08.77-.33.06-.37-.33-.34.06c0,.25-.06.4-.29.44l-.33.06,0,.38.33-.06,0,.39.33-.06L73,270l.38.33.33-.06.38.33.37.33.67-.12,0-.38.34-.06,0-.38,2.33-.4-.09-.77-.33.05,0-.38-.34.06-.08-.77a10.8,10.8,0,0,0-1.64-2.47q-.93-2.19-5.75-14.69-4.2-13-3.87-13.07l.67-.11,0-.38a2.44,2.44,0,0,1-.51-1.48l-.35-3.08a17,17,0,0,0-1.68-2.85,16.11,16.11,0,0,1-1.52-4.44A23.14,23.14,0,0,0,60.21,220a5,5,0,0,0-3.68-2.51c-1.61-.24-2.55-.6-2.83-1.08C53.39,215.71,53.25,215.47,53.28,215.73Z"/><path class="cls-8" d="M148.35,289.74l.75-.41-.26.23a.75.75,0,0,1-.29.49c-.15,0-.24.05-.26.23a.8.8,0,0,1-.29.49l-.26.23-2.39,4.47a89.78,89.78,0,0,0-5.29,9.39q-2.44,5-2.48,5.27l-.06.53-.29.5-.26.22-.09.8-.91,1.74a8.7,8.7,0,0,0-1,2.55l-.27,2.39-.3.49-.52.46-.29.49-.24,2.13-.23,0,.2.3.23,0-.32.76c-.37.48-.49.82-.35,1l-.26.23c-.33.12-.5.28-.52.45l-.27.23a2.64,2.64,0,0,0-.35,1l-.06.54-1.08,3.33a28.84,28.84,0,0,0-1.21,4.41l-.09.8-.86,3.37q-.82,3.12-1.83,7.82a124.09,124.09,0,0,0-1.81,13.79q-.84,9.36-1,14.48a54.86,54.86,0,0,0,.05,5.71l-.09.8-3.45-.6.06-.53c0-.18,0-2.34,0-6.5a128.62,128.62,0,0,1,.92-14.21,143.4,143.4,0,0,1,2.78-16.07l1.83-7.82.12-1.06,1.47-4.63c.8-2.94,1.13-4.42,1-4.44q-.2-.31-.69-.12l-.49.18,0-.26.26-.23.1-.8c.06-.53.16-.78.32-.75l0-.27.23,0q.19.3.72-.15a15.85,15.85,0,0,0,1.45-2.46,8.68,8.68,0,0,0,1.29-3l.12-1.07a.73.73,0,0,1,.29-.49q.22,0,2.48-5.27a127.33,127.33,0,0,1,5.8-11.75l3.55-6.44,0-.27.26-.22.29-.5.06-.53-.23,0,1.47-.56,1.47-.56.23,0A2.08,2.08,0,0,0,148.35,289.74Z"/><path class="cls-9" d="M160.67,267.76l0,.27.21.29.36,1.13c.24.93.41,1.67.52,2.23,0,.35-.2.51-.5.47a.79.79,0,0,0-.26.5l0,.54,0,.27-.22,0c-.15,0-.22-.12-.21-.3s-.07,0-.26.5c-.18.34-.81.61-1.89.83a3.36,3.36,0,0,0-2.42,1.83,16.78,16.78,0,0,0-1.19,3.61,11.81,11.81,0,0,1-.92,3.12,11.3,11.3,0,0,0-1.07,2l-.17,2.13,0,.54,0,.53-.22,0,0,.27-.69.17-.49.48-.23,0-.22,0,0,.26-.24.24-.47.21a1.59,1.59,0,0,1-.7.17l-.23,0-1.41.62-1.41.62-.68-.09-.47.21-.25.23-.22,0a2.13,2.13,0,0,0-1,.41,64.12,64.12,0,0,0-6.41.49l-5.51.61-1.35-.18,0-.27.22,0,0-.27.46.06,0-.26.22,0,0-.27.23,0,.24-.24c.17-.15.73-.62,1.71-1.38q1.24-1.45,5.12-7.41l3.86-5.68,0-.27.23,0,0-.26.22,0,0-.54.25-.23,0-.27-1.58-.21a20.54,20.54,0,0,1-4-1.08,44.33,44.33,0,0,1-8.89-2.81l-13.24-2.84,7.36-3.62.25-.23.45.06.25-.24.24-.23a13,13,0,0,0,2.34-.77c1.56-.51,4.11-1.15,7.66-1.94l5.56-1.14,1.12.15.25-.23.25-.24-.23,0-.2-.3-.21-.29-.22,0-.21-.3-.2-.3-.23,0a.67.67,0,0,1-.43-.33,23.38,23.38,0,0,0-3.48-2.08l-3.5-1.82-.43-.33-.21-.3-.9-.12,0-.53,6.54.88a39.4,39.4,0,0,1,10.28,2.46c2.35,1,4.4,2,6.15,3a38.49,38.49,0,0,1,4,3.78c1,1.21,1.72,2.21,2.27,3A9.5,9.5,0,0,0,160.67,267.76Z"/><path class="cls-10" d="M162.7,277l.23,0,2.27.66c1.52.44,2.35.67,2.5.7l.2.31.2.3.69.12,2.61,1.8a30,30,0,0,1,4.53,3.49,23,23,0,0,0,2.31,2.3,10.55,10.55,0,0,1,1,1.79c.11.38.25.58.4.61l0,.27-.46-.08a1.18,1.18,0,0,0-1,.1c-.19.33-.42.29-.69-.11-.46-.08-1,.28-1.53,1.09-.41.83-.69,1.24-.84,1.21s-.29.4-.39,1.29l-.15,1.33-.23,0,0,.27-.23,0,0-.27-.23,0,0-.26-.23,0,.06-.53-.23,0,0-.27-.23,0,0-.27-1.62-2.17-1.14-2.37-.23,0,0-.26-.23,0,0-.27-.23,0,0-.26-.23,0,0-.27-.23,0,0-.26-.23,0,.06-.54-.12,1.07.23,0,0,.26.23,0-.06.54.23,0,0,.27.23,0,1.38,4.3a30.39,30.39,0,0,1,2.43,7.47,20.56,20.56,0,0,1-.1,7,36.19,36.19,0,0,1-2,7.25,38.4,38.4,0,0,1-3.69,5.61q-1.87,2.11-4.26,4.42-2.31,1.77-3.84,2.87a7.45,7.45,0,0,1-2,1l-.23,0-.26.23-.26.22-.46-.07-.26.22-.5.19.13-1.07.23,0,0-.26.23,0,0-.27a16.36,16.36,0,0,1,1.54-3.26l1.49-2.73.12-1.06.29-.49c.17-.15.65-2.24,1.42-6.27a96.75,96.75,0,0,0,2.56-14.2l.91-8-.17-.57a5.22,5.22,0,0,1-.07-1.37l.06-.53-.23,0c0,.18-.11.25-.26.23l.12-1.07a7.88,7.88,0,0,0-.56-3.35,14.41,14.41,0,0,0-1.3-2.93,2.74,2.74,0,0,1-.57-1.19l0-.26-.2-.31,0-.26.26-.23.46.08.23,0,.26-.23.26-.22.23,0-.2-.31c-.15,0-.28-.23-.4-.61l-.14-.84-.46-.08,0-.26.23,0Zm5.85,8.32.23,0c0,.18-.1.26-.26.23Z"/><path class="cls-11" d="M162.59,267.78l.46.08.4.61a4.27,4.27,0,0,1,.47,2,4.26,4.26,0,0,0,.94,2.06q.85.69,1.92,1.68a2.33,2.33,0,0,1,1,1.8,3.05,3.05,0,0,1,.31,1.41l-.1.79-.26.23c-.15,0-1-.26-2.5-.7l-2.27-.66-.23,0,0,.27-.23,0,0,.26.46.08-.06.53a.72.72,0,0,0,.43.35l.46.08-.09.8-.23,0-.26.22-.26.23-.23,0,.06-.53-.69-.12-.69-.12-.23,0-.26.23-.26.22-.46-.07-.26.22-.23,0,.15-1.33a14.33,14.33,0,0,0,.51-2.35,2.48,2.48,0,0,0-.08-1.37l-.2-.31,0-.26-.23,0,.06-.53.52-.46c.31.06.37-.48.18-1.59-.16-1.3-.32-2-.47-2s-.22-.13-.2-.31l.06-.53.46.08a1.22,1.22,0,0,0,1-.37A1.37,1.37,0,0,1,162.59,267.78Z"/><path class="cls-12" d="M179.12,289.33l.46.08,1.17,2.09a32.93,32.93,0,0,1,2,5,37.33,37.33,0,0,1,1.54,7q.06,3.54-.37,9.43a54.8,54.8,0,0,1-.86,7.44l-.18,1.6-.46-.08,0-.26-.17-.58.09-.79-.16-.57a18.38,18.38,0,0,1-.42-2.52,60,60,0,0,0-1.57-6.77A77.65,77.65,0,0,0,176.49,300l-2.18-5.52,0-.27.23,0,.15-1.33q.15-1.34.39-1.29c.15,0,.43-.38.84-1.21.56-.81,1.07-1.17,1.53-1.09.27.4.5.44.69.11A1.18,1.18,0,0,1,179.12,289.33Z"/><path class="cls-13" d="M161.16,284.35l.61-5.32.92.16-.06.53-.46-.08-.26.23,0,.26.2.31,0,.26a2.74,2.74,0,0,0,.57,1.19,14.41,14.41,0,0,1,1.3,2.93,7.88,7.88,0,0,1,.56,3.35l-.12,1.07-.8,2.84a22,22,0,0,1-2.25,5.31l-1.45,2.46-.23,0,0,.27-.23,0,0,.27-.23,0,0,.26-.23,0,0,.27-.23,0,0,.27-.23,0,0-.27-.2-.31,0-.26-.46-.08.06-.53.26-.23,0-.26.3-2.66q.7-2.06,1.47-4.63A42.47,42.47,0,0,0,161.16,284.35Z"/><path class="cls-14" d="M159.56,273.77l.23,0,.2.3.2.31a2.48,2.48,0,0,1,.08,1.37,14.33,14.33,0,0,1-.51,2.35l-.15,1.33.23,0,.26-.22.46.07.26-.22.26-.23.23,0,.69.12.46.08-.69-.12-.61,5.32a42.47,42.47,0,0,1-1.31,7.37q-.76,2.58-1.47,4.63l-.3,2.66,0,.26-.26.23-.06.53.46.08,0,.26c0,.18,0,.28.2.31a.61.61,0,0,0,.49-.19l.23,0-2.38,2.31a51.21,51.21,0,0,1-5.63,4.18,23.74,23.74,0,0,1-3.76,2.07l-.23,0-.26.23-.26.22-.23,0-.26.23-.26.23-.23,0-.06.53.23,0,.26-.23.23,0c0,.18,0,.28.2.31l.23,0,0,.26-.23,0,0,.27-.23,0-.26.23-.26.22-.23,0-.26.23-.26.23-.46-.08,0-.27-.23,0,0-.26-1.61-.28.06-.53.23,0,0-.27.23,0,.06-.53a7.24,7.24,0,0,1,1.13-1.7c.43-1,1.76-4.4,4-10.17,1.94-6,2.83-9,2.67-9l-.46-.08,0-.27a1.6,1.6,0,0,0,.36-1l.24-2.13a12.06,12.06,0,0,1,1.16-2,11.21,11.21,0,0,0,1.06-3.07,15.8,15.8,0,0,1,1.34-3.57,3.43,3.43,0,0,1,2.55-1.73c1.11-.17,1.76-.42,2-.75C159.48,273.76,159.58,273.59,159.56,273.77Z"/><path class="cls-15" d="M332.14,284.68l.56-.31-.2.17a.51.51,0,0,1-.22.37c-.11,0-.18,0-.19.17a.61.61,0,0,1-.22.37l-.19.17L329.89,289a68,68,0,0,0-4,7c-1.22,2.5-1.84,3.82-1.85,4l-.05.4-.22.37-.19.17-.07.6-.68,1.31a6.29,6.29,0,0,0-.74,1.9l-.21,1.8-.22.37-.39.34-.22.37-.18,1.59-.17,0,.15.23.17,0-.24.57c-.28.36-.36.62-.26.77l-.2.17c-.24.09-.37.2-.39.34l-.19.17a1.82,1.82,0,0,0-.27.77l0,.39-.82,2.51a22.21,22.21,0,0,0-.9,3.3l-.07.6-.64,2.53c-.42,1.56-.87,3.51-1.38,5.87a94.47,94.47,0,0,0-1.36,10.34q-.61,7-.71,10.86a41.57,41.57,0,0,0,0,4.28l-.07.6L311,353l.05-.4c0-.13,0-1.76,0-4.87a94.12,94.12,0,0,1,.69-10.66,109.71,109.71,0,0,1,2.08-12.05l1.38-5.87.09-.79,1.1-3.48a12.85,12.85,0,0,0,.73-3.33c-.1-.15-.27-.18-.52-.09l-.37.14,0-.2.19-.17.07-.59q.08-.6.24-.57l0-.2.18,0c.1.15.28.11.54-.11a12.78,12.78,0,0,0,1.09-1.85,6.45,6.45,0,0,0,1-2.28l.09-.79a.58.58,0,0,1,.22-.37,20.87,20.87,0,0,0,1.86-4,93.38,93.38,0,0,1,4.35-8.82l2.66-4.83,0-.2.2-.17.22-.37,0-.4-.17,0,1.1-.43,1.11-.42.17,0A1.6,1.6,0,0,0,332.14,284.68Z"/><path class="cls-16" d="M341.38,268.19l0,.2.15.23.28.84c.17.7.3,1.26.38,1.67s-.14.39-.37.36a.59.59,0,0,0-.2.38l0,.4v.2l-.17,0c-.12,0-.17-.09-.16-.22s-.05,0-.2.38-.6.46-1.41.62a2.53,2.53,0,0,0-1.81,1.37,12,12,0,0,0-.9,2.71,8.49,8.49,0,0,1-.69,2.34,8.87,8.87,0,0,0-.8,1.51l-.13,1.6,0,.4,0,.4-.17,0v.2l-.53.13-.36.35-.17,0-.17,0,0,.2-.18.17-.36.16a1.07,1.07,0,0,1-.52.13l-.17,0-1.06.46-1.06.47-.51-.07-.35.15-.18.18-.17,0c-.12,0-.35.09-.71.31a43.56,43.56,0,0,0-4.81.36l-4.13.46-1-.14,0-.2.17,0v-.2l.34.05,0-.2.17,0v-.2l.17,0,.18-.17c.13-.12.55-.47,1.28-1q.94-1.1,3.85-5.55l2.89-4.27v-.2l.17,0,0-.2.17,0,0-.4.18-.18,0-.2L327.1,274a16,16,0,0,1-3-.81,32.62,32.62,0,0,1-6.67-2.11l-9.93-2.13L313,266.2l.19-.17.34,0,.18-.18.18-.17a10,10,0,0,0,1.76-.58c1.16-.38,3.08-.86,5.74-1.45l4.17-.86.84.12.19-.18.18-.18-.17,0-.15-.22-.15-.23-.17,0-.15-.22-.16-.22-.17,0a.47.47,0,0,1-.32-.24,16.89,16.89,0,0,0-2.61-1.57l-2.63-1.36-.32-.25-.15-.22-.68-.09,0-.4,4.9.66A30.19,30.19,0,0,1,331.6,260q2.64,1.17,4.6,2.24a29.26,29.26,0,0,1,3,2.83c.72.91,1.29,1.66,1.7,2.26A5.45,5.45,0,0,0,341.38,268.19Z"/><path class="cls-17" d="M342.9,275.14l.17,0,1.7.49c1.14.33,1.76.51,1.88.53l.15.23.15.23.52.09,1.95,1.35a22.74,22.74,0,0,1,3.4,2.61,16.18,16.18,0,0,0,1.73,1.73,8.46,8.46,0,0,1,.73,1.34c.08.29.18.44.3.46l0,.2-.35-.06a.89.89,0,0,0-.71.08c-.15.25-.32.22-.52-.09-.35-.06-.73.22-1.15.82s-.52.93-.63.91-.21.3-.29,1l-.11,1-.17,0,0,.2-.17,0,0-.19-.17,0,0-.2-.17,0,.05-.4-.18,0,0-.2-.17,0,0-.2-1.22-1.63-.85-1.78-.18,0,0-.2-.18,0,0-.2-.18,0,0-.2-.18,0,0-.2-.18,0,0-.2-.18,0,.05-.4-.09.8.17,0,0,.2.17,0,0,.4.17,0,0,.2.18,0,1,3.23a23.2,23.2,0,0,1,1.82,5.6,15.66,15.66,0,0,1-.08,5.28,26.92,26.92,0,0,1-1.5,5.43,29.25,29.25,0,0,1-2.77,4.21q-1.41,1.59-3.19,3.31c-1.16.89-2.12,1.61-2.88,2.15a5.35,5.35,0,0,1-1.5.76l-.17,0-.19.17-.2.17-.34-.06-.2.17-.37.14.09-.79.18,0,0-.2.17,0,0-.2a12.52,12.52,0,0,1,1.16-2.45l1.12-2,.09-.8.22-.37a30.47,30.47,0,0,0,1.06-4.7A72.42,72.42,0,0,0,344,292l.69-6-.13-.42a3.88,3.88,0,0,1-.06-1l.05-.4-.18,0c0,.13-.08.19-.19.17l.09-.8a5.72,5.72,0,0,0-.42-2.51,10.6,10.6,0,0,0-1-2.2c-.3-.46-.44-.75-.42-.89l0-.2-.15-.23,0-.2.2-.17.34.06.18,0,.19-.17.2-.17.17,0-.15-.23q-.18,0-.3-.45l-.1-.63-.35-.06,0-.2.18,0Zm4.39,6.24.17,0c0,.14-.08.19-.2.17Z"/><path class="cls-18" d="M342.81,268.21l.35.06.3.46a3,3,0,0,1,.35,1.48,3.2,3.2,0,0,0,.71,1.55q.64.51,1.44,1.26c.52.5.77,1,.72,1.34a2.2,2.2,0,0,1,.23,1.06l-.07.6-.19.17c-.12,0-.74-.2-1.88-.53l-1.7-.49-.17,0,0,.2-.18,0,0,.2.35.06,0,.4a.54.54,0,0,0,.32.26l.35,0-.07.6-.17,0-.2.17-.19.17-.18,0,.05-.4-.52-.08-.52-.09-.17,0-.19.17-.2.17-.34-.06-.2.17-.17,0,.11-1a10.39,10.39,0,0,0,.38-1.76,1.84,1.84,0,0,0-.06-1l-.15-.23,0-.2-.17,0,.05-.4.39-.34c.23,0,.27-.36.14-1.19s-.25-1.47-.36-1.49-.17-.1-.15-.23l0-.4.35.06a.88.88,0,0,0,.73-.28A1,1,0,0,1,342.81,268.21Z"/><path class="cls-19" d="M355.21,284.37l.35.06.87,1.57a24.25,24.25,0,0,1,1.51,3.72A28.59,28.59,0,0,1,359.1,295c0,1.77-.07,4.12-.29,7.07a43.15,43.15,0,0,1-.63,5.58l-.14,1.2-.35-.06,0-.2-.13-.43.07-.59-.13-.43a16.12,16.12,0,0,1-.31-1.89,43.62,43.62,0,0,0-1.18-5.08,57.75,57.75,0,0,0-2.8-7.8l-1.64-4.15,0-.2.17,0,.11-1c.08-.67.17-1,.29-1s.32-.28.63-.91.8-.88,1.15-.82c.2.31.37.34.52.09A.89.89,0,0,1,355.21,284.37Z"/><path class="cls-20" d="M341.74,280.64l.46-4,.69.11-.05.4-.34-.06-.2.17,0,.2.15.23,0,.2c0,.14.12.43.42.89a10.6,10.6,0,0,1,1,2.2,5.72,5.72,0,0,1,.42,2.51l-.09.8-.6,2.14a16.53,16.53,0,0,1-1.68,4l-1.09,1.84-.18,0,0,.2-.17,0,0,.2-.17,0,0,.2-.17,0,0,.2-.17,0,0,.2-.17,0,0-.2-.15-.23,0-.19-.34-.06,0-.4.2-.17,0-.2.23-2c.35-1,.72-2.18,1.1-3.47A32.13,32.13,0,0,0,341.74,280.64Z"/><path class="cls-21" d="M340.54,272.7l.17,0,.15.23.15.23a1.84,1.84,0,0,1,.06,1,10.39,10.39,0,0,1-.38,1.76l-.11,1,.17,0,.2-.17.34.06.2-.17.19-.17.17,0,.52.09.35.06-.52-.09-.46,4a32.13,32.13,0,0,1-1,5.52c-.38,1.29-.75,2.45-1.1,3.47l-.23,2,0,.2-.2.17,0,.4.34.06,0,.19c0,.14,0,.21.15.23a.44.44,0,0,0,.37-.14l.17,0-1.78,1.73a37.53,37.53,0,0,1-4.23,3.14,19.41,19.41,0,0,1-2.81,1.55l-.18,0-.19.17-.2.17-.17,0-.2.17-.19.17-.17,0-.05.4.17,0,.2-.17.17,0c0,.13,0,.21.15.23l.17,0,0,.2-.17,0,0,.2-.18,0-.19.17-.2.17-.17,0-.19.17-.2.17-.35-.06,0-.2-.17,0,0-.2-1.21-.21,0-.4.17,0,0-.2.17,0,.05-.39a5.24,5.24,0,0,1,.85-1.28q.48-1.14,3-7.63a55.76,55.76,0,0,0,2-6.77l-.35-.06,0-.2a1.26,1.26,0,0,0,.27-.77l.18-1.59a9.5,9.5,0,0,1,.87-1.48,8.22,8.22,0,0,0,.79-2.3,12.27,12.27,0,0,1,1-2.68,2.59,2.59,0,0,1,1.91-1.3c.84-.13,1.33-.31,1.47-.56S340.55,272.57,340.54,272.7Z"/><path class="cls-22" d="M271.51,260.78l-.67-.37.23.2a.71.71,0,0,0,.26.44c.14,0,.22.05.24.2a.65.65,0,0,0,.25.44l.24.2,2.12,4a78.65,78.65,0,0,1,4.72,8.36c1.45,3,2.19,4.54,2.21,4.7l.05.47.26.44.23.2.08.71.81,1.56a7.61,7.61,0,0,1,.88,2.26l.25,2.13.25.44.47.4.26.44.21,1.9.21,0-.18.27-.2,0,.28.67c.33.43.43.73.32.92l.23.2c.29.11.44.24.46.4l.23.2a2.26,2.26,0,0,1,.32.91l.05.48,1,3a26.32,26.32,0,0,1,1.07,3.92l.08.71.76,3q.74,2.77,1.64,7a111.7,111.7,0,0,1,1.61,12.28q.74,8.32.85,12.9a49.2,49.2,0,0,1-.05,5.08l.08.71,3.08-.53-.06-.47q0-.24,0-5.79a113.3,113.3,0,0,0-.83-12.66,127.55,127.55,0,0,0-2.47-14.31l-1.63-7-.11-.94-1.3-4.13c-.72-2.61-1-3.93-.87-3.95.12-.19.32-.22.61-.11l.44.17,0-.24-.23-.2-.08-.71c-.06-.48-.15-.7-.29-.68l0-.23-.2,0c-.12.18-.33.14-.64-.13a14.31,14.31,0,0,1-1.3-2.19,7.67,7.67,0,0,1-1.14-2.71l-.11-.94a.66.66,0,0,0-.26-.44q-.19,0-2.21-4.69a112.22,112.22,0,0,0-5.16-10.47l-3.16-5.74,0-.23-.23-.2-.26-.44-.05-.48.2,0-1.31-.5-1.31-.5-.21,0A1.78,1.78,0,0,1,271.51,260.78Z"/><path class="cls-23" d="M260.54,241.2l0,.24-.19.26-.32,1c-.21.83-.36,1.49-.46,2,0,.32.17.46.44.42a.67.67,0,0,1,.24.45l0,.47v.24l.2,0c.14,0,.2-.11.19-.27s.06,0,.23.45c.16.3.72.54,1.68.73a3.05,3.05,0,0,1,2.16,1.64,14.13,14.13,0,0,1,1.06,3.22,10.44,10.44,0,0,0,.82,2.77,10.25,10.25,0,0,1,.95,1.79l.15,1.9,0,.48,0,.47.21,0v.23l.62.16.44.42.2,0,.2,0,0,.24.22.21.42.18a1.5,1.5,0,0,0,.62.16l.2,0,1.26.55,1.26.55.6-.08.42.18.22.22.2,0a1.7,1.7,0,0,1,.84.37,53.15,53.15,0,0,1,5.71.43l4.91.54,1.21-.16,0-.24-.2,0,0-.24-.4.05,0-.23-.2,0,0-.23-.2,0-.22-.21c-.14-.14-.65-.55-1.51-1.24a77.58,77.58,0,0,1-4.57-6.59l-3.44-5.06,0-.24-.2,0v-.24l-.21,0,0-.48-.22-.21,0-.23,1.41-.19a19.39,19.39,0,0,0,3.57-1,39.39,39.39,0,0,0,7.92-2.51l11.79-2.53-6.56-3.22-.22-.21-.4.06-.22-.21-.22-.21a12.23,12.23,0,0,1-2.08-.68c-1.39-.46-3.66-1-6.83-1.73l-4.94-1-1,.14-.22-.21-.22-.21.2,0,.18-.26.18-.27.2,0,.18-.27.19-.26.2,0a.62.62,0,0,0,.38-.29,19.83,19.83,0,0,1,3.1-1.86l3.12-1.62.38-.29.18-.27.81-.1,0-.48-5.82.78a35.66,35.66,0,0,0-9.16,2.19c-2.09.93-3.91,1.81-5.47,2.66a34,34,0,0,0-3.59,3.37c-.86,1.07-1.54,2-2,2.67A8,8,0,0,1,260.54,241.2Z"/><path class="cls-24" d="M258.76,249.68l.2,0,0,.24-.41.07-.13.74c-.1.34-.21.52-.35.55l-.18.27.21,0,.23.2.23.21.21,0,.4-.07.24.2,0,.24-.17.27,0,.24a2.4,2.4,0,0,1-.5,1.05,12.75,12.75,0,0,0-1.17,2.62,6.92,6.92,0,0,0-.49,3l.11.95c-.14,0-.22-.05-.23-.21l-.21,0,.06.47a4.93,4.93,0,0,1-.07,1.22l-.16.51.82,7.11a86.64,86.64,0,0,0,2.28,12.65A37.49,37.49,0,0,0,261,287.7l.26.44.11.94,1.32,2.43a15,15,0,0,1,1.38,2.91l0,.23.2,0,0,.23.2,0,.11.95-.44-.17-.23-.2-.41.07-.23-.2-.23-.2-.21,0a7.1,7.1,0,0,1-1.77-.9c-.91-.65-2.05-1.5-3.42-2.56-1.41-1.36-2.68-2.68-3.8-3.93a35.36,35.36,0,0,1-3.28-5,32.09,32.09,0,0,1-1.78-6.46,18.35,18.35,0,0,1-.09-6.26,27.2,27.2,0,0,1,2.16-6.66l1.23-3.83.21,0,0-.24.2,0-.05-.47.21,0,0-.24.2,0-.11-.94.06.47-.21,0,0,.24-.2,0,0,.23-.2,0,0,.24-.21,0,0,.24-.21,0,0,.24-.2,0-1,2.11-1.45,1.94,0,.24-.2,0,0,.24-.2,0,0,.48-.2,0,0,.24-.2,0,0,.24-.21,0,0-.24-.2,0L248,263.6c-.09-.79-.2-1.17-.34-1.15s-.38-.34-.75-1.08-1-1-1.36-1c-.24.36-.44.4-.61.1a1.08,1.08,0,0,0-.85-.09l-.41.07,0-.24q.21,0,.36-.54a9.67,9.67,0,0,1,.86-1.6,19.88,19.88,0,0,0,2.06-2,26.66,26.66,0,0,1,4-3.11l2.33-1.61.61-.1.18-.27.18-.28c.13,0,.88-.23,2.22-.62l2-.59.21,0Zm-5.21,7.42c-.14,0-.22-.05-.23-.2l.2,0Z"/><path class="cls-25" d="M258.83,241.22l-.41.07-.35.54a3.76,3.76,0,0,0-.43,1.77,3.81,3.81,0,0,1-.83,1.83q-.76.62-1.71,1.5c-.63.59-.92,1.12-.86,1.6a2.74,2.74,0,0,0-.28,1.25l.08.71.24.2c.13,0,.88-.23,2.22-.62l2-.59.21,0,0,.23.2,0,0,.24-.41.07.05.47a.64.64,0,0,1-.38.31l-.41.07.08.71.21,0,.23.2.23.21.21,0-.06-.47.62-.11.61-.1.2,0,.24.2.23.21.41-.07.23.2.2,0-.13-1.18a12.08,12.08,0,0,1-.45-2.1,2.19,2.19,0,0,1,.07-1.22l.18-.27,0-.24.21,0-.06-.48-.46-.4c-.28,0-.33-.43-.16-1.42.14-1.15.28-1.74.42-1.76s.2-.12.18-.28l-.06-.47-.41.07a1.05,1.05,0,0,1-.87-.33A1.25,1.25,0,0,0,258.83,241.22Z"/><path class="cls-26" d="M244.11,260.41l-.41.07-1,1.87a28.43,28.43,0,0,0-1.79,4.41A33.35,33.35,0,0,0,239.5,273q-.06,3.15.33,8.4a48.24,48.24,0,0,0,.76,6.63l.16,1.42.41-.07,0-.24.15-.51-.08-.71.15-.5a17.27,17.27,0,0,0,.37-2.24,54.16,54.16,0,0,1,1.4-6,70.6,70.6,0,0,1,3.33-9.26l1.94-4.92,0-.24-.2,0L248,263.6c-.09-.79-.2-1.17-.34-1.15s-.38-.34-.75-1.08-1-1-1.36-1c-.24.36-.44.4-.61.1A1.08,1.08,0,0,0,244.11,260.41Z"/><path class="cls-27" d="M260.1,256l-.54-4.73-.82.14.06.47.4-.07.24.2,0,.24-.17.27,0,.24a2.4,2.4,0,0,1-.5,1.05,12.75,12.75,0,0,0-1.17,2.62,6.92,6.92,0,0,0-.49,3l.11.95.71,2.53a19.28,19.28,0,0,0,2,4.73l1.29,2.19.21,0,0,.23.21,0,0,.24.2,0,0,.24.2,0,0,.24.21,0,0,.24.21,0,0-.24.18-.27,0-.24.41-.07-.05-.47-.24-.21,0-.23-.27-2.37c-.42-1.22-.86-2.59-1.31-4.12A37.67,37.67,0,0,1,260.1,256Z"/><path class="cls-28" d="M261.53,246.55l-.2,0-.18.27-.18.27a2.19,2.19,0,0,0-.07,1.22,12.08,12.08,0,0,0,.45,2.1l.13,1.18-.2,0-.23-.2-.41.07-.23-.21-.24-.2-.2,0-.61.1-.41.07.61-.1.54,4.73a37.67,37.67,0,0,0,1.17,6.57c.45,1.53.89,2.9,1.31,4.12l.27,2.37,0,.23.24.21.05.47-.41.07,0,.24q0,.24-.18.27a.54.54,0,0,1-.44-.17l-.2,0,2.11,2.05a46.82,46.82,0,0,0,5,3.73,22.77,22.77,0,0,0,3.35,1.84l.2,0,.23.21.24.2.2,0,.23.2.23.21.21,0,0,.47-.2,0-.23-.2-.21,0c0,.16,0,.25-.18.28l-.2,0,0,.24.2,0,0,.24.2,0,.23.21.24.2.2,0,.23.2.24.21.41-.07,0-.24.2,0,0-.23,1.43-.25-.05-.47-.21,0,0-.23-.2,0-.06-.47a6.1,6.1,0,0,0-1-1.52q-.58-1.35-3.55-9.05-2.58-8-2.38-8l.41-.07,0-.24a1.44,1.44,0,0,1-.32-.91l-.21-1.89a11.2,11.2,0,0,0-1-1.76,9.7,9.7,0,0,1-.94-2.73,13.82,13.82,0,0,0-1.2-3.18,3,3,0,0,0-2.26-1.54c-1-.15-1.58-.38-1.75-.67C261.6,246.54,261.51,246.39,261.53,246.55Z"/><path class="cls-29" d="M1815.11,248l-.76-.43.26.24a.79.79,0,0,0,.3.5c.16,0,.24.05.26.23a.81.81,0,0,0,.3.5l.27.23,2.43,4.55a92.36,92.36,0,0,1,5.39,9.58c1.66,3.39,2.51,5.18,2.53,5.36l.06.54.29.51.27.23.09.81.92,1.78a8.81,8.81,0,0,1,1,2.58l.28,2.44.3.5.53.47.3.5.24,2.16.24,0-.21.31-.23,0,.33.78c.37.49.49.83.36,1l.26.23c.33.13.51.28.53.46l.27.23a2.77,2.77,0,0,1,.35,1.05l.07.54,1.1,3.4a29.56,29.56,0,0,1,1.23,4.48l.09.82.88,3.44c.56,2.11,1.18,4.77,1.86,8a124.19,124.19,0,0,1,1.85,14.05q.84,9.53,1,14.75a52.43,52.43,0,0,1-.06,5.81l.1.81,3.51-.6-.06-.54c0-.18,0-2.39,0-6.62a131.44,131.44,0,0,0-.94-14.48,146.46,146.46,0,0,0-2.83-16.37l-1.86-8-.13-1.09-1.49-4.71c-.82-3-1.15-4.5-1-4.53.14-.2.37-.24.71-.12l.5.19,0-.27-.26-.23-.09-.81c-.07-.54-.17-.8-.33-.77l0-.27-.24,0c-.13.2-.38.15-.73-.15a16.33,16.33,0,0,1-1.48-2.51,8.88,8.88,0,0,1-1.31-3.09l-.12-1.09a.79.79,0,0,0-.3-.5q-.24,0-2.52-5.36a130.86,130.86,0,0,0-5.91-12l-3.62-6.56,0-.28-.26-.23-.3-.5-.06-.54.23,0-1.5-.57-1.49-.57-.24,0A2.29,2.29,0,0,1,1815.11,248Z"/><path class="cls-30" d="M1802.56,225.6l0,.27-.2.31-.38,1.15c-.24.94-.41,1.7-.52,2.26,0,.37.2.53.5.49a.76.76,0,0,1,.27.51l0,.54,0,.27.23,0q.23,0,.21-.3t.27.51q.27.53,1.92.84a3.42,3.42,0,0,1,2.46,1.87,16.9,16.9,0,0,1,1.22,3.68,11.22,11.22,0,0,0,.94,3.17,11.82,11.82,0,0,1,1.08,2.05l.17,2.18,0,.54.05.55.23,0,0,.28.71.18.5.48.23,0,.23,0,0,.27.25.24.48.21a1.53,1.53,0,0,0,.71.18l.23,0,1.44.63,1.44.63.69-.09.48.21.25.24.23,0a2.14,2.14,0,0,1,1,.42,59.72,59.72,0,0,1,6.53.49l5.62.62,1.37-.18,0-.28-.23,0,0-.27-.46.06,0-.27-.23,0,0-.27-.23,0-.25-.24c-.17-.16-.74-.63-1.73-1.41Q1829,247,1825.09,241l-3.93-5.79,0-.27-.23,0,0-.27-.23,0,0-.55-.25-.24,0-.27,1.61-.22a21.59,21.59,0,0,0,4.09-1.09,45.85,45.85,0,0,0,9-2.87l13.49-2.89-7.51-3.68-.25-.24-.46.06-.25-.24-.25-.24a13.25,13.25,0,0,1-2.38-.78c-1.58-.52-4.19-1.18-7.8-2l-5.66-1.17-1.15.16-.25-.24-.25-.24.23,0,.21-.3.21-.3.23,0,.21-.3.2-.31.23,0a.67.67,0,0,0,.44-.33,23.51,23.51,0,0,1,3.55-2.13l3.56-1.85.44-.33.21-.3.92-.13,0-.54-6.66.89a40.85,40.85,0,0,0-10.47,2.51c-2.4,1.05-4.48,2.07-6.26,3a38,38,0,0,0-4.11,3.85c-1,1.23-1.76,2.25-2.31,3A8.77,8.77,0,0,1,1802.56,225.6Z"/><path class="cls-31" d="M1800.52,235.31l.24,0,0,.27-.47.08-.14.85c-.11.39-.25.6-.41.62l-.2.31.23,0,.27.23.26.23.24,0,.47-.08.26.23,0,.28-.2.31,0,.27a2.75,2.75,0,0,1-.58,1.2,15,15,0,0,0-1.33,3,7.85,7.85,0,0,0-.56,3.41l.12,1.09c-.16,0-.24,0-.26-.23l-.24,0,.06.54a5,5,0,0,1-.08,1.39l-.17.58.93,8.13a98.61,98.61,0,0,0,2.61,14.47q1.18,6.15,1.45,6.38l.29.5.13,1.09,1.51,2.77a16.64,16.64,0,0,1,1.57,3.32l0,.28.24,0,0,.27.23,0,.13,1.08-.5-.19-.27-.23-.47.08-.26-.23-.27-.23-.23,0a7.83,7.83,0,0,1-2-1q-1.56-1.11-3.92-2.91-2.41-2.35-4.33-4.51a39.24,39.24,0,0,1-3.76-5.71,37.5,37.5,0,0,1-2-7.38,20.82,20.82,0,0,1-.1-7.16,30.65,30.65,0,0,1,2.47-7.61l1.41-4.39.24,0,0-.27.24,0-.06-.54.23,0,0-.27.23,0-.12-1.08.06.54-.23,0,0,.27-.23,0,0,.27-.24,0,0,.27-.23,0,0,.27-.23,0,0,.27-.24,0-1.16,2.41-1.65,2.22,0,.27-.24,0,0,.27-.23,0,.06.54-.23,0,0,.28-.24,0,0,.27-.24,0,0-.27-.23,0-.16-1.36c-.1-.9-.23-1.34-.39-1.31s-.44-.39-.86-1.24-1.09-1.19-1.56-1.11c-.27.41-.5.45-.7.12a1.22,1.22,0,0,0-1-.11l-.47.08,0-.27c.16,0,.3-.23.41-.62a11,11,0,0,1,1-1.83,23.66,23.66,0,0,0,2.36-2.34,30.23,30.23,0,0,1,4.61-3.55l2.65-1.84.71-.12.2-.31.2-.31c.16,0,1-.26,2.55-.71l2.31-.67.23,0Zm-6,8.48c-.16,0-.25,0-.27-.24l.24,0Z"/><path class="cls-32" d="M1800.61,225.62l-.47.08-.4.63a4.19,4.19,0,0,0-.49,2,4.37,4.37,0,0,1-1,2.1c-.59.47-1.24,1-2,1.72a2.33,2.33,0,0,0-1,1.82,3.11,3.11,0,0,0-.32,1.44l.1.81.26.23c.16,0,1-.26,2.55-.71l2.31-.67.23,0,0,.27.24,0,0,.27-.47.08.06.54a.69.69,0,0,1-.43.35l-.47.08.09.81.23,0,.27.23.26.23.24,0-.06-.54.7-.12.7-.12.24,0,.26.23.27.23.47-.08.26.23.24,0-.16-1.35a14,14,0,0,1-.51-2.4,2.45,2.45,0,0,1,.08-1.39l.2-.31,0-.28.23,0-.06-.54-.53-.46q-.46.08-.18-1.62c.16-1.32.33-2,.48-2s.23-.13.2-.31l-.06-.54-.47.08a1.24,1.24,0,0,1-1-.38A1.44,1.44,0,0,0,1800.61,225.62Z"/><path class="cls-33" d="M1783.77,247.57l-.47.08-1.18,2.14a32,32,0,0,0-2,5,37.86,37.86,0,0,0-1.57,7.18q-.07,3.6.38,9.6a56.76,56.76,0,0,0,.87,7.59l.18,1.62.47-.08,0-.27.17-.58-.09-.82.17-.58a18.78,18.78,0,0,0,.42-2.56,62.63,62.63,0,0,1,1.6-6.9,79.52,79.52,0,0,1,3.81-10.59l2.22-5.63,0-.27-.23,0-.16-1.36c-.1-.9-.23-1.34-.39-1.31s-.44-.39-.86-1.24-1.09-1.19-1.56-1.11c-.27.41-.5.45-.7.12A1.22,1.22,0,0,0,1783.77,247.57Z"/><path class="cls-34" d="M1802.06,242.5l-.62-5.42-.93.16.06.54.47-.08.26.23,0,.28-.2.31,0,.27a2.75,2.75,0,0,1-.58,1.2,15,15,0,0,0-1.33,3,7.85,7.85,0,0,0-.56,3.41l.12,1.09.81,2.9a22.33,22.33,0,0,0,2.29,5.4l1.48,2.51.24,0,0,.27.23,0,0,.27.24,0,0,.27.23,0,0,.27.24,0,0,.28.23,0,0-.28.2-.31,0-.27.47-.08-.06-.54-.27-.23,0-.27-.31-2.71q-.71-2.08-1.49-4.72A44.1,44.1,0,0,1,1802.06,242.5Z"/><path class="cls-35" d="M1803.7,231.72l-.24,0-.2.32-.2.31a2.45,2.45,0,0,0-.08,1.39,14,14,0,0,0,.51,2.4l.16,1.35-.24,0-.26-.23-.47.08-.27-.23-.26-.23-.24,0-.7.12-.47.08.7-.12.62,5.42a44.1,44.1,0,0,0,1.34,7.5q.78,2.64,1.49,4.72l.31,2.71,0,.27.27.23.06.54-.47.08,0,.27c0,.18,0,.29-.2.31a.58.58,0,0,1-.5-.19l-.23,0,2.42,2.35a50.1,50.1,0,0,0,5.74,4.26,24.12,24.12,0,0,0,3.82,2.11l.24,0,.26.23.27.23.23,0,.27.23.26.23.23,0,.07.55-.24,0-.26-.24-.24,0c0,.19,0,.29-.2.32l-.23,0,0,.27.23,0,0,.27.24,0,.26.23.27.23.23,0,.27.23.26.23.47-.08,0-.27.23,0,0-.27,1.64-.28-.06-.55-.23,0,0-.28-.23,0-.06-.54a7.46,7.46,0,0,0-1.16-1.73q-.64-1.54-4.05-10.36-3-9.15-2.72-9.2l.47-.08,0-.27a1.64,1.64,0,0,1-.36-1l-.25-2.17a11.59,11.59,0,0,0-1.18-2,11.32,11.32,0,0,1-1.08-3.13,16,16,0,0,0-1.37-3.64A3.47,3.47,0,0,0,1806,233c-1.13-.18-1.8-.43-2-.76C1803.78,231.71,1803.68,231.54,1803.7,231.72Z"/><path class="cls-36" d="M1870.67,283.86l.53-.29-.18.16a.62.62,0,0,1-.21.35c-.11,0-.17,0-.18.16a.53.53,0,0,1-.21.34l-.18.16-1.68,3.15a63.56,63.56,0,0,0-3.73,6.62c-1.15,2.35-1.73,3.59-1.75,3.71l0,.38-.2.34-.19.16-.06.57-.64,1.22a6.21,6.21,0,0,0-.7,1.79l-.19,1.69-.21.35-.36.32-.21.34-.17,1.5-.16,0,.14.22.16,0-.22.53c-.26.34-.35.58-.25.72l-.19.16c-.23.09-.35.2-.36.32l-.19.16a1.76,1.76,0,0,0-.24.72l0,.38-.76,2.35a21.19,21.19,0,0,0-.85,3.1l-.07.56-.6,2.38q-.59,2.19-1.29,5.51a85.47,85.47,0,0,0-1.27,9.72c-.4,4.39-.62,7.79-.68,10.2a39.5,39.5,0,0,0,0,4l-.06.57-2.43-.42,0-.38c0-.12,0-1.65,0-4.58a89.07,89.07,0,0,1,.65-10,101,101,0,0,1,2-11.31l1.29-5.51.09-.75,1-3.26a11.56,11.56,0,0,0,.69-3.13c-.09-.15-.26-.17-.49-.09l-.34.14,0-.19.18-.16.07-.56c0-.38.12-.56.22-.54l0-.19.17,0c.09.15.26.11.5-.1a10.73,10.73,0,0,0,1-1.74,6,6,0,0,0,.9-2.13l.09-.75a.53.53,0,0,1,.2-.35,20.23,20.23,0,0,0,1.75-3.71q1.59-3.74,4.08-8.28l2.51-4.54,0-.18.18-.16.21-.35,0-.37-.16,0,1-.4,1-.39.16,0A1.38,1.38,0,0,0,1870.67,283.86Z"/><path class="cls-37" d="M1879.35,268.37v.19l.14.21.26.8q.24,1,.36,1.56c0,.26-.14.37-.35.34a.59.59,0,0,0-.19.35l0,.38,0,.19-.16,0a.17.17,0,0,1-.14-.21c0-.13-.06,0-.19.35s-.57.43-1.33.58a2.35,2.35,0,0,0-1.7,1.29,11.2,11.2,0,0,0-.84,2.55,8.29,8.29,0,0,1-.65,2.19,8.6,8.6,0,0,0-.75,1.42l-.12,1.5,0,.38,0,.38-.16,0V283l-.49.13-.35.33-.16,0-.16,0v.18l-.18.17-.33.15a1,1,0,0,1-.49.12l-.16,0-1,.44-1,.43-.48-.06-.33.14-.17.17-.16,0c-.11,0-.33.08-.66.29a44,44,0,0,0-4.52.34l-3.88.43-1-.13,0-.19.16,0v-.18l.32,0v-.19l.16,0,0-.19.15,0,.18-.17c.11-.11.51-.44,1.2-1s1.79-2.42,3.61-5.21l2.72-4v-.18l.16,0v-.19l.16,0,0-.38.18-.16v-.19l-1.11-.15a14.64,14.64,0,0,1-2.83-.76,31.09,31.09,0,0,1-6.26-2l-9.33-2,5.19-2.55.17-.16.32,0,.17-.17.18-.16a9.94,9.94,0,0,0,1.64-.54q1.65-.54,5.4-1.37l3.91-.8.8.11.17-.17.18-.17-.16,0-.15-.21-.14-.21-.16,0-.14-.21-.15-.21-.16,0a.47.47,0,0,1-.3-.23,16,16,0,0,0-2.45-1.47l-2.47-1.28-.3-.23-.15-.21-.63-.08,0-.38,4.6.62a28.07,28.07,0,0,1,7.24,1.73q2.49,1.1,4.33,2.1a27.65,27.65,0,0,1,2.84,2.66c.69.86,1.22,1.56,1.6,2.12A5.93,5.93,0,0,0,1879.35,268.37Z"/><path class="cls-38" d="M1880.78,274.9l.16,0,1.6.46c1.07.31,1.66.48,1.76.49l.14.22.14.21.49.09,1.84,1.27a21.33,21.33,0,0,1,3.19,2.45,14.1,14.1,0,0,0,1.63,1.62,7.83,7.83,0,0,1,.68,1.26c.08.27.17.42.28.43l0,.19-.32-.05a.83.83,0,0,0-.67.07c-.14.23-.3.21-.49-.08-.32-.06-.68.2-1.08.77s-.48.87-.59.85-.2.29-.27.91l-.11.94-.16,0,0,.19-.16,0,0-.19-.16,0,0-.18-.17,0,0-.37-.16,0,0-.19-.17,0,0-.19-1.15-1.53-.8-1.66-.16,0,0-.19-.16,0,0-.18-.16,0,0-.19-.16,0,0-.18-.17,0,0-.19-.17,0,0-.37-.09.75.16,0,0,.19.16,0,0,.37.16,0,0,.19.16,0,1,3a21.3,21.3,0,0,1,1.71,5.26,14.49,14.49,0,0,1-.07,5,25.25,25.25,0,0,1-1.41,5.11,27.31,27.31,0,0,1-2.6,4q-1.32,1.48-3,3.11c-1.08.84-2,1.51-2.71,2a5,5,0,0,1-1.4.72l-.16,0-.19.16-.18.16-.32-.06-.19.16-.34.13.08-.75.17,0,0-.19.16,0,0-.18a11.49,11.49,0,0,1,1.09-2.3l1-1.92.09-.75.21-.35a29.7,29.7,0,0,0,1-4.41,68.1,68.1,0,0,0,1.8-10l.64-5.62-.12-.4a3.71,3.71,0,0,1,0-1l0-.38-.16,0c0,.13-.08.18-.18.16l.08-.75a5.58,5.58,0,0,0-.39-2.36,10.21,10.21,0,0,0-.92-2.06,2,2,0,0,1-.4-.84l0-.18-.14-.22,0-.19.19-.16.32.06.16,0,.19-.16.18-.16.16,0-.14-.22c-.11,0-.2-.16-.28-.43l-.1-.59-.32-.06,0-.18.16,0Zm4.12,5.86.16,0c0,.12-.07.18-.18.16Z"/><path class="cls-39" d="M1880.7,268.39l.32.06.29.43a3.06,3.06,0,0,1,.33,1.39,3.11,3.11,0,0,0,.66,1.45c.4.32.86.72,1.35,1.19a1.59,1.59,0,0,1,.68,1.26,2,2,0,0,1,.22,1l-.06.56-.19.16c-.1,0-.69-.18-1.76-.49l-1.6-.46-.16,0,0,.19-.16,0,0,.18.32.06,0,.38a.48.48,0,0,0,.3.24l.32.05-.06.57-.16,0-.18.16-.19.16-.16,0,0-.38-.48-.08-.49-.08-.16,0-.19.16-.18.16-.32-.06-.19.16-.16,0,.11-.94a9.17,9.17,0,0,0,.35-1.66,1.73,1.73,0,0,0,0-1l-.14-.22,0-.19-.16,0,0-.38.37-.32c.21,0,.26-.34.13-1.12s-.23-1.38-.34-1.4-.15-.09-.14-.21l0-.38.33.06a.85.85,0,0,0,.69-.26A1,1,0,0,1,1880.7,268.39Z"/><path class="cls-40" d="M1892.35,283.57l.32.05.82,1.48a21.89,21.89,0,0,1,1.42,3.49,26.51,26.51,0,0,1,1.08,5c0,1.66,0,3.88-.26,6.64a40.35,40.35,0,0,1-.6,5.25l-.13,1.12-.32-.05,0-.19-.12-.4.06-.57-.11-.4a14.8,14.8,0,0,1-.3-1.77,39.75,39.75,0,0,0-1.1-4.77,56.76,56.76,0,0,0-2.63-7.33l-1.54-3.89,0-.19.16,0,.11-.94c.07-.62.16-.93.27-.91s.3-.26.59-.85.76-.83,1.08-.77c.19.29.35.31.49.08A.83.83,0,0,1,1892.35,283.57Z"/><path class="cls-41" d="M1879.7,280.06l.42-3.75.65.11,0,.38-.32-.06-.19.16,0,.19.14.22,0,.18a2,2,0,0,0,.4.84,10.21,10.21,0,0,1,.92,2.06,5.58,5.58,0,0,1,.39,2.36l-.08.75-.56,2a16.13,16.13,0,0,1-1.59,3.74l-1,1.73-.16,0,0,.19-.16,0,0,.19-.16,0,0,.19-.16,0,0,.19-.16,0,0,.19-.16,0,0-.19-.14-.21,0-.19-.32-.05,0-.38.18-.16,0-.19.22-1.87c.33-1,.67-2.05,1-3.26A30.52,30.52,0,0,0,1879.7,280.06Z"/><path class="cls-42" d="M1878.57,272.61l.16,0,.14.21.14.22a1.73,1.73,0,0,1,0,1,9.17,9.17,0,0,1-.35,1.66l-.11.94.16,0,.19-.16.32.06.18-.16.19-.16.16,0,.49.08.32.06-.49-.09-.42,3.75a30.52,30.52,0,0,1-.93,5.19c-.36,1.21-.7,2.3-1,3.26l-.22,1.87,0,.19-.18.16,0,.38.32.05,0,.19c0,.12,0,.2.14.21a.42.42,0,0,0,.35-.13l.16,0-1.67,1.62a36.8,36.8,0,0,1-4,2.95,17.37,17.37,0,0,1-2.64,1.46l-.16,0-.19.16-.18.16-.16,0-.18.16-.19.16-.16,0,0,.38.16,0,.18-.16.16,0c0,.13,0,.2.15.22l.16,0,0,.18-.17,0,0,.18-.16,0-.18.16-.19.16-.16,0-.18.16-.19.16-.32-.06,0-.19-.16,0,0-.19-1.13-.2,0-.37.16,0,0-.19.17,0,0-.38a5.2,5.2,0,0,1,.8-1.2q.45-1.06,2.8-7.16a50.08,50.08,0,0,0,1.88-6.36l-.32-.06,0-.18a1.25,1.25,0,0,0,.25-.72l.17-1.5a7.84,7.84,0,0,1,.82-1.39,7.86,7.86,0,0,0,.74-2.17,11.13,11.13,0,0,1,1-2.51,2.41,2.41,0,0,1,1.79-1.22c.78-.12,1.24-.29,1.38-.53S1878.58,272.48,1878.57,272.61Z"/></svg>
