<svg id="Layer_2" data-name="Layer 2" xmlns="http://www.w3.org/2000/svg" viewBox="0 0 1920 700"><defs><style>.cls-1{fill:#ff501a;}.cls-2{fill:#b2aead;}.cls-3{fill:#9a9290;}.cls-4{fill:#a2d6d9;}.cls-5{fill:#bce6d8;}.cls-6{fill:#f2eee8;}.cls-7{fill:#efe0bd;}.cls-8{opacity:0.5;isolation:isolate;}.cls-9{fill:#d38d5f;}.cls-10{fill:#deaa87;}.cls-11{fill:#ffe6d5;}.cls-12,.cls-19,.cls-26,.cls-33{fill:#c9a27b;stroke:#c9a27b;}.cls-12,.cls-14,.cls-15,.cls-16,.cls-17,.cls-18{stroke-width:0.36px;}.cls-12,.cls-13,.cls-14,.cls-15,.cls-16,.cls-17,.cls-18,.cls-19,.cls-20,.cls-21,.cls-22,.cls-23,.cls-24,.cls-25,.cls-26,.cls-27,.cls-28,.cls-29,.cls-30,.cls-31,.cls-32,.cls-33,.cls-34,.cls-35,.cls-36,.cls-37,.cls-38,.cls-39{fill-rule:evenodd;}.cls-13,.cls-20,.cls-27,.cls-34{fill:#c3d444;stroke:#c3d444;}.cls-13{stroke-width:0.36px;}.cls-14,.cls-21,.cls-28,.cls-35{fill:#c2d344;stroke:#c2d344;}.cls-15,.cls-22,.cls-29,.cls-36{fill:#bad040;stroke:#bad040;}.cls-16,.cls-23,.cls-30,.cls-37{fill:#a7c83e;stroke:#a7c83e;}.cls-17,.cls-24,.cls-31,.cls-38{fill:#a3c63b;stroke:#a3c63b;}.cls-18,.cls-25,.cls-32,.cls-39{fill:#bbd041;stroke:#bbd041;}.cls-19,.cls-21,.cls-22,.cls-23,.cls-24,.cls-25{stroke-width:0.25px;}.cls-20{stroke-width:0.25px;}.cls-26,.cls-28,.cls-29,.cls-30,.cls-31,.cls-32{stroke-width:0.25px;}.cls-27{stroke-width:0.25px;}.cls-33,.cls-35,.cls-36,.cls-37,.cls-38,.cls-39{stroke-width:0.18px;}.cls-34{stroke-width:0.17px;}</style></defs><ellipse class="cls-1" cx="507.51" cy="243.71" rx="40.54" ry="39.19"/><path class="cls-2" d="M723.86,306.44l158.7,101.78-206.72-82Z"/><path class="cls-2" d="M698.38,328.43c-19.25-16.39-34.07-30.08-44.25-39.75-9.1-8.63-18.82-15.1-28-23.6-8.16-7.6-14.15-13.86-22.48-12.93-4.2.47-5.57,2.39-13.33,6.79-4.74,2.67-11,5.12-23.59,10-27,10.52-24.06,7.49-32,12-9.32,5.25-12.51,9-19.57,8.72-4-.14-5.76-1.4-16.82-7.76-10.58-6.08-21.22-11.8-31.81-17.77-15.41-8.7-12.54-6.72-16.28-9.06-21.39-13.44-24.58-21.79-38.75-26.83-3.23-1.14-5.89-1.7-9.49-4.84-7.38-6.37-7.5-13.71-13.9-17.78-2.89-1.85-3-.43-12.43-1.94-7.08-1.13-9.75-2.36-12.8-2.91-6.71-1.2-10.07,1.87-24.68,9.7-7.91,4.24-20.52,11-34.73,15.83-6.51,2.24-11.09,3.32-14.63,4.21-33.51,8.36-50.83,18.42-91.23,29.72-6.86,1.92-17.79,4.83-31.44,7.76V371H699.05Z"/><path class="cls-3" d="M711.42,318.39c-133.83-8.58-184.23-21.55-201.29-33.56-13.77-9.69-29.93-16.71-41.64-28.71-7-7.15-14.37-16.75-23.58-15.55-4.4.57-5.83,2.87-14,8.17-5,3.2-11.56,6.15-24.75,12-28.32,12.66-25.24,9-33.56,14.39-9.77,6.31-13.14,10.78-20.53,10.49-4.15-.16-6-1.68-17.65-9.33C323.33,269,312.17,262.15,301.06,255c-16.13-10.45-13.16-8.06-17.07-10.88-22.43-16.15-25.74-26.2-40.64-32.27-3.38-1.37-6.19-2.06-10-5.83-7.73-7.67-7.88-16.48-14.56-21.38-3-2.2-3.16-.52-13-2.33-7.44-1.36-10.22-2.83-13.43-3.5-7-1.43-10.55,2.25-25.88,11.66-8.32,5.12-21.53,13.17-36.44,19.05a147.92,147.92,0,0,1-15.34,5.05C79.54,224.59,61.37,236.68,19,250.29c-7.2,2.31-18.66,5.81-33,9.33V383.5l734.13,7Z"/><rect class="cls-4" x="-57" y="575.5" width="2067" height="211"/><path class="cls-5" d="M-38,589.5c46.6,27.16,116,57.74,200,56,73.38-1.52,83.5-26.16,171-35,101.67-10.27,114.05,20.38,254,23,111,2.08,103.94-17.18,189-9,117,11.25,134.78,48.12,218,38,73.8-9,75.32-39.9,158-50,74.21-9.07,79.18,15.11,169,16,111.89,1.11,126.29-36.2,239-32,64.39,2.4,70,15,139,19,72.91,4.27,104.38-13.14,199-22a1200.11,1200.11,0,0,1,137-5V330l-364-16.5L1018.64,330,384,364.5l-578,45,52,192Z"/><path class="cls-6" d="M-23,510.5c157.15-12,310.34-26.88,310-40-.15-5.61-28.38-9.51-28-17,.47-9.29,44.45-14.1,53-15,118.11-12.41,509.62-28.54,510-34,.24-3.49-159-13.23-159-26,0-5.47,29.11-10.35,71-15,198.78-22.07,295.93,4.33,423-13a802.84,802.84,0,0,1,96-8c26.72-.61,37.65.91,90,3,23.53.94,63,2.52,106,3,60.84.69,92.65,1,136-2,56.52-4,111-12.2,113-4,.85,3.57-9.06,7-8,11,2.19,8.33,48.38,8.73,80.38,1.2,1.1-.26,11.11-2.63,11.62-1.2.73,2.06-19.54,8.42-19,13,1.16,9.75,95.75,3.24,97,13,.63,4.95-23.36,9.54-23,14,.46,5.77,41.54,9.31,166,7V290c-10.57-.11-26.63-.19-46.17,0-55.71.53-97.1,2.87-109.83,3.55-63.16,3.4-111.42,3.28-213,6-234.25,6.27-247.12,14.09-429,17-105.17,1.69-97.73-1-261,1-131.14,1.59-196.71,2.38-241,4-124.14,4.53-149.64,9.44-217,3-95.05-9.08-140-16-140-16-54.88-8.45-76.51-14.44-115-10-30.46,3.51-39,9.81-72,10-26.2.15-48.19-3.66-79-9-44.22-7.66-50.4-12.26-70-11-27.78,1.79-49.54,13.22-63,22l-3.57,200Z"/><path class="cls-7" d="M-50,503.5c157.15-12,310.34-26.88,310-40-.15-5.61-28.38-9.51-28-17,.47-9.29,44.45-14.1,53-15,118.11-12.41,509.62-28.54,510-34,.24-3.49-159-13.23-159-26,0-5.47,29.11-10.35,71-15,198.78-22.07,295.93,4.33,423-13a802.84,802.84,0,0,1,96-8c26.72-.61,37.65.91,90,3,23.53.94,63,2.52,106,3,60.84.69,92.65,1,136-2,56.52-4,111-12.2,113-4,.85,3.57-9.06,7-8,11,2.19,8.33,48.38,8.73,80.38,1.2,1.1-.26,11.11-2.63,11.62-1.2.73,2.06-19.54,8.42-19,13,1.16,9.75,95.75,3.24,97,13,.63,4.95-23.36,9.54-23,14,.46,5.77,41.54,9.31,166,7V283c-10.57-.11-26.63-.19-46.17,0-55.71.53-97.1,2.87-109.83,3.55-63.16,3.4-111.42,3.28-213,6-234.25,6.27-247.12,14.09-429,17-105.17,1.69-97.73-1-261,1-131.14,1.59-196.71,2.38-241,4-124.14,4.53-149.64,9.44-217,3-95.05-9.08-140-16-140-16-54.88-8.45-76.51-14.44-115-10-30.46,3.51-39,9.81-72,10-26.2.15-48.19-3.66-79-9-44.22-7.66-50.4-12.26-70-11-27.78,1.79-49.54,13.22-63,22l-3.57,200Z"/><path class="cls-8" d="M529.11,377.81a8.59,8.59,0,0,0-1,.08,16.07,16.07,0,0,0-3.67,1.3,10.9,10.9,0,0,1-1.26.41,8.29,8.29,0,0,1-1.67.2l-1.79,0a7.45,7.45,0,0,0-2.48.37,3.34,3.34,0,0,0-.73.37v0a1.94,1.94,0,0,0-.82,1.34,2.52,2.52,0,0,0,.61,1.79c.69.84,2.94.55,2.81,1.67-.1.92-3.45,2.59-4.72,4.31-.11.15-.23.33-.37.49l-.36.29a3.42,3.42,0,0,0-.25.61v0a1,1,0,0,0,0,.24,1.09,1.09,0,0,0,0,.25l0,0a1.12,1.12,0,0,0,.17.2h0a.78.78,0,0,0,.2.16,2.17,2.17,0,0,0,.69.13,11.07,11.07,0,0,0,1.31-.09h0a7.71,7.71,0,0,0,2.28-.57h0a18.91,18.91,0,0,1,2.32-.73,27.29,27.29,0,0,1,5-.73c.49,0,1,0,1.47,0,.24,0,.49,0,.73.08a6.05,6.05,0,0,1,.73.2,6.53,6.53,0,0,1,1,.41c.13.07.24.17.37.25l.57.36h0l.89.61,0,0a9,9,0,0,0,.94.57,28.56,28.56,0,0,0,3.13,1.67l.45.12.12,0a3.1,3.1,0,0,0,.61.09,2.93,2.93,0,0,0,2-.57c.08-.08.15-.11.2-.21a1.11,1.11,0,0,0,0-1,5.49,5.49,0,0,0-.2-.57,3.76,3.76,0,0,1-.16-.37v0a2,2,0,0,0-.17-.37l0,0a11.92,11.92,0,0,0-.81-1.14,3.35,3.35,0,0,1-.29-.4,3,3,0,0,1-.16-.37,1.08,1.08,0,0,1,0-.77v-.05c0-.05.08-.08.12-.12a1.05,1.05,0,0,1,.21-.12v0a4.17,4.17,0,0,1,.49-.08c2.88-.53,5.91.83,8.83.45a5.29,5.29,0,0,0,2.68-.9c.38-.3,1-.84.74-1.22-2.05-2.57-5.6-3.06-8.67-4.11l-1.22-.61c-.53-.26-1.1-.5-1.63-.73l-.08,0s0,0,0,0a4.74,4.74,0,0,1-.49-.4c-.38-.33.11-1.17-.29-1.47-.64-.48-1.61.41-2.4.29a7.82,7.82,0,0,1-2.2-1l-.08,0a3.58,3.58,0,0,0-.77-.29,12.82,12.82,0,0,0-1.51-.24,11.35,11.35,0,0,0-1.54-.08Z"/><path class="cls-9" d="M513.91,389.29c1.27-1.72,4.64-3.41,4.74-4.32.13-1.12-2.12-.81-2.8-1.65a2.61,2.61,0,0,1-.61-1.82,2,2,0,0,1,.8-1.35c1.87-1.25,4.5-.45,6.69-1,1.69-.41,3.19-1.49,4.91-1.72a11.22,11.22,0,0,1,4.12.26c1.08.26,2,1.17,3.06,1.33.79.12,1.74-.74,2.39-.26.39.29-.11,1.13.26,1.46,3.29,2.83,9.23,2.26,12.15,5.91.3.38-.35.95-.73,1.26a5.39,5.39,0,0,1-2.71.86c-2.91.39-5.91-1-8.8-.43-.3.05-.73.08-.84.36-.41,1.09,1.1,2.06,1.46,3.16.21.61.72,1.33.4,1.89s-1.46.83-2.26.8c-1.56-.07-2.89-1.21-4.29-1.92s-2.43-1.81-3.85-2.26a8.93,8.93,0,0,0-2.92-.27,28.18,28.18,0,0,0-5,.73c-1.58.34-3,1.24-4.65,1.33-.82,0-2,.3-2.43-.43S513.49,389.86,513.91,389.29Z"/><path class="cls-10" d="M529.8,378.6c-3.07-.16-16.61,11.46-16.61,11.46v0c-.19.41-.37.82-.15,1.16.46.68,1.61.46,2.43.42,1.61-.08,3.07-1,4.65-1.33a27.28,27.28,0,0,1,5-.72,8.66,8.66,0,0,1,2.92.27c1.42.45,2.53,1.57,3.85,2.25s2.73,1.86,4.3,1.92c.79,0,1.86-.1,2.25-.79s-.2-1.28-.4-1.89c-.36-1.1-1.88-2.08-1.47-3.16a.5.5,0,0,1,.32-.26c-2.47-4.14-5.47-8.76-6.82-9.29l-.26-.06Z"/><path class="cls-10" d="M530,378.7c2.29,1.67,4.93,2.19,7.33,3.43,1.6.82,3,2,4.69,2.67a6.59,6.59,0,0,0,1.5.43,16.22,16.22,0,0,0,2.12,0,5.34,5.34,0,0,0-.61-.8,22.57,22.57,0,0,0-5.26-3.05,45.29,45.29,0,0,0-7.09-2.77,4.37,4.37,0,0,0-2-.37c-.25.05-.87.27-.66.42Z"/><path class="cls-10" d="M528.67,377.35a8.93,8.93,0,0,0-1,.08c-1.72.24-3.22,1.31-4.9,1.73-2.19.54-4.82-.26-6.7,1l0,.06s.25,1.27.75,1.55c1.81,1,4.2-.08,6.19-.66a14.32,14.32,0,0,0,1.93-.94,11.06,11.06,0,0,1,2.39-.93,5.82,5.82,0,0,1,1.18,0H532l.62-1.2a3.68,3.68,0,0,0-.83-.33,11.86,11.86,0,0,0-3.09-.34Z"/><path class="cls-11" d="M533.56,385a.4.4,0,1,1-.79,0,.4.4,0,0,1,.79,0Z"/><path class="cls-11" d="M531.15,382.15a.39.39,0,0,1-.39.4.4.4,0,0,1-.4-.4.39.39,0,0,1,.4-.39A.38.38,0,0,1,531.15,382.15Z"/><path class="cls-11" d="M527.06,383.36a.39.39,0,0,1-.4.39.38.38,0,0,1-.39-.39.39.39,0,0,1,.39-.4A.4.4,0,0,1,527.06,383.36Z"/><path class="cls-11" d="M523,386.73a.38.38,0,0,1-.39.39.39.39,0,0,1-.4-.39.4.4,0,0,1,.4-.4A.39.39,0,0,1,523,386.73Z"/><path class="cls-11" d="M524.65,384.08a.4.4,0,1,1-.4-.4A.4.4,0,0,1,524.65,384.08Z"/><path class="cls-11" d="M528.5,387a.39.39,0,0,1-.39.4.4.4,0,0,1,0-.8A.39.39,0,0,1,528.5,387Z"/><path class="cls-8" d="M495.86,385.85a6.29,6.29,0,0,1,.77.07,11.81,11.81,0,0,1,2.78,1,6.71,6.71,0,0,0,1,.31,5.79,5.79,0,0,0,1.26.15l1.36,0a5.52,5.52,0,0,1,1.88.27,2.85,2.85,0,0,1,.55.28v0a1.48,1.48,0,0,1,.62,1,2,2,0,0,1-.46,1.36c-.52.63-2.22.41-2.13,1.26.08.7,2.61,2,3.58,3.27a4,4,0,0,0,.28.37l.27.22a1.79,1.79,0,0,1,.19.46v0a.54.54,0,0,1,0,.18.63.63,0,0,1,0,.19l0,0a.93.93,0,0,1-.13.15h0a.93.93,0,0,1-.15.13,1.78,1.78,0,0,1-.53.09,7.82,7.82,0,0,1-1-.06h0a6.18,6.18,0,0,1-1.73-.43h0a12.4,12.4,0,0,0-1.76-.56,20.26,20.26,0,0,0-3.79-.55,10.27,10.27,0,0,0-1.11,0,5.32,5.32,0,0,0-.56.06,4.94,4.94,0,0,0-.55.15,4.43,4.43,0,0,0-.74.31c-.1,0-.18.13-.28.19l-.43.27h0l-.68.47,0,0c-.24.15-.46.3-.71.43a20.87,20.87,0,0,1-2.38,1.26,2,2,0,0,1-.33.09l-.1,0a3.4,3.4,0,0,1-.46.06,2.21,2.21,0,0,1-1.54-.43c-.06-.06-.12-.09-.16-.16a.92.92,0,0,1,0-.74c.05-.14.1-.29.16-.43s.09-.19.12-.28v0a1.75,1.75,0,0,1,.13-.28l0,0a9.65,9.65,0,0,1,.61-.86,3,3,0,0,0,.22-.31,1.69,1.69,0,0,0,.12-.28.78.78,0,0,0,0-.58v0c0-.05-.06-.07-.09-.1l-.15-.09v0a2.58,2.58,0,0,0-.37-.06c-2.19-.4-4.49.63-6.7.34a4.1,4.1,0,0,1-2-.68c-.29-.23-.79-.64-.56-.93,1.56-1.94,4.24-2.32,6.57-3.11l.93-.46c.4-.2.82-.38,1.23-.56l.06,0,0,0a3.79,3.79,0,0,0,.37-.31c.29-.24-.08-.88.22-1.11.48-.36,1.22.31,1.82.22a5.81,5.81,0,0,0,1.66-.77l.06,0a2.63,2.63,0,0,1,.59-.22,8.72,8.72,0,0,1,1.14-.18,7.73,7.73,0,0,1,1.17-.07Z"/><path class="cls-9" d="M507.38,394.56c-1-1.31-3.52-2.59-3.6-3.28-.09-.85,1.61-.61,2.13-1.25a2,2,0,0,0,.46-1.38,1.49,1.49,0,0,0-.6-1c-1.42-.95-3.42-.35-5.08-.76-1.27-.31-2.42-1.13-3.72-1.3a8.21,8.21,0,0,0-3.12.2c-.82.19-1.48.88-2.31,1-.6.09-1.33-.56-1.81-.2-.3.23.08.86-.2,1.11-2.49,2.15-7,1.71-9.21,4.48-.22.29.27.72.55.95a4.06,4.06,0,0,0,2.06.66c2.2.29,4.48-.73,6.67-.33.22,0,.55.06.63.27.31.83-.83,1.56-1.11,2.39-.15.47-.54,1-.3,1.44s1.11.63,1.71.6c1.19-.05,2.2-.91,3.25-1.45A19.53,19.53,0,0,1,496.7,395a6.55,6.55,0,0,1,2.21-.21,22.17,22.17,0,0,1,3.8.55c1.19.26,2.3.95,3.52,1,.62,0,1.55.23,1.84-.33S507.7,395,507.38,394.56Z"/><path class="cls-10" d="M495.34,386.45c2.33-.12,12.58,8.69,12.58,8.69h0c.14.31.28.62.11.88-.34.52-1.22.35-1.84.32-1.22-.06-2.33-.75-3.52-1a22.06,22.06,0,0,0-3.79-.55,6.55,6.55,0,0,0-2.21.21,20.37,20.37,0,0,0-2.92,1.7c-1.05.55-2.07,1.41-3.25,1.46-.61,0-1.41-.08-1.71-.6s.15-1,.3-1.43c.28-.84,1.42-1.57,1.11-2.4a.36.36,0,0,0-.24-.19c1.88-3.14,4.15-6.64,5.17-7l.19-.05Z"/><path class="cls-10" d="M495.22,386.53c-1.73,1.26-3.73,1.66-5.55,2.6-1.21.62-2.3,1.5-3.55,2a5.09,5.09,0,0,1-1.14.32,12,12,0,0,1-1.6,0,3.72,3.72,0,0,1,.46-.61,17.31,17.31,0,0,1,4-2.31,34.75,34.75,0,0,1,5.37-2.1,3.43,3.43,0,0,1,1.53-.28c.2,0,.66.2.5.32Z"/><path class="cls-10" d="M496.19,385.51a5,5,0,0,1,.78.06c1.31.18,2.44,1,3.72,1.31,1.66.41,3.65-.2,5.07.74v.05s-.19,1-.57,1.17c-1.37.76-3.18-.06-4.69-.5a11.56,11.56,0,0,1-1.46-.71,8.8,8.8,0,0,0-1.82-.71,5.29,5.29,0,0,0-.89,0h-2.63l-.47-.91a3.75,3.75,0,0,1,.63-.25,9.22,9.22,0,0,1,2.34-.25Z"/><path class="cls-11" d="M492.49,391.34a.29.29,0,0,0,.3.29.3.3,0,1,0,0-.59A.29.29,0,0,0,492.49,391.34Z"/><path class="cls-11" d="M494.31,389.15a.31.31,0,0,0,.3.3.3.3,0,0,0,.3-.3.29.29,0,0,0-.3-.3A.3.3,0,0,0,494.31,389.15Z"/><path class="cls-11" d="M497.41,390.06a.31.31,0,0,0,.3.3.3.3,0,0,0,.3-.3.29.29,0,0,0-.3-.3A.3.3,0,0,0,497.41,390.06Z"/><path class="cls-11" d="M500.52,392.61a.29.29,0,0,0,.3.3.3.3,0,0,0,.3-.3.31.31,0,0,0-.3-.3A.3.3,0,0,0,500.52,392.61Z"/><path class="cls-11" d="M499.24,390.61a.29.29,0,0,0,.3.29.3.3,0,1,0,0-.59A.29.29,0,0,0,499.24,390.61Z"/><path class="cls-11" d="M496.32,392.79a.3.3,0,1,0,.3-.29A.29.29,0,0,0,496.32,392.79Z"/><path class="cls-12" d="M69.48,238.83l-1.09-.6.38.33a1.12,1.12,0,0,0,.42.71c.22,0,.35.07.38.33a1.12,1.12,0,0,0,.42.71l.38.33,3.45,6.46a131.77,131.77,0,0,1,7.65,13.59c2.36,4.83,3.56,7.36,3.59,7.62l.09.77.42.71.37.33.13,1.15,1.31,2.52a12.77,12.77,0,0,1,1.44,3.68l.39,3.46.42.71.76.66.42.71.35,3.08.33-.06-.29.44-.33.06.46,1.09c.54.7.71,1.19.51,1.49l.38.32q.7.27.75.66l.38.33a3.68,3.68,0,0,1,.51,1.48l.09.77,1.56,4.82a42.72,42.72,0,0,1,1.75,6.37l.13,1.15,1.24,4.89q1.19,4.5,2.65,11.31a178.4,178.4,0,0,1,2.62,19.94q1.2,13.52,1.37,20.94a78.39,78.39,0,0,1-.07,8.24l.13,1.16,5-.86-.09-.77q0-.39-.06-9.4a185.48,185.48,0,0,0-1.33-20.55,210.71,210.71,0,0,0-4-23.23l-2.65-11.31-.18-1.54-2.12-6.69q-1.74-6.37-1.41-6.43c.19-.29.52-.35,1-.17l.71.27-.05-.38-.37-.33L99.62,289c-.08-.77-.24-1.14-.46-1.1l0-.38-.34,0c-.19.3-.54.23-1-.21a23.67,23.67,0,0,1-2.1-3.56,12.69,12.69,0,0,1-1.86-4.39l-.17-1.54a1.11,1.11,0,0,0-.43-.71q-.33.06-3.58-7.62a186.68,186.68,0,0,0-8.38-17l-5.14-9.31,0-.39-.38-.32-.42-.72-.09-.77.34-.05-2.13-.81-2.13-.82-.33.06A3,3,0,0,1,69.48,238.83Z"/><path class="cls-13" d="M51.66,207l0,.39-.29.43-.53,1.63c-.34,1.34-.58,2.42-.74,3.22,0,.51.28.74.71.68a1.13,1.13,0,0,1,.39.73l.06.77,0,.39.32-.05c.22,0,.32-.17.3-.43s.11,0,.38.73c.26.49,1.17.88,2.73,1.19a4.9,4.9,0,0,1,3.5,2.65,23.9,23.9,0,0,1,1.72,5.23,16.5,16.5,0,0,0,1.34,4.5A17.22,17.22,0,0,1,63.15,232l.24,3.09.06.77.06.77.33,0,0,.39,1,.25.72.68.32,0,.33,0,0,.38.35.34.68.3a2.16,2.16,0,0,0,1,.26l.33-.05,2,.9,2,.89,1-.13.69.3.35.34.33,0a2.93,2.93,0,0,1,1.36.6,86.56,86.56,0,0,1,9.27.7l8,.88,2-.27,0-.38-.33,0,0-.38-.65.08,0-.38-.32,0,0-.38-.33,0-.36-.34q-.34-.35-2.46-2-1.8-2.1-7.41-10.7l-5.58-8.22,0-.39-.32.05,0-.39-.33,0-.06-.77-.36-.34,0-.39,2.29-.3A31,31,0,0,0,85,216.6q3.91-.53,12.85-4.07L117,208.42l-10.65-5.22-.36-.34-.65.09-.35-.35-.36-.34a18.56,18.56,0,0,1-3.38-1.1q-3.37-1.11-11.08-2.8l-8-1.65-1.63.22-.36-.35-.35-.34.32,0,.3-.43.3-.43.32-.05.3-.43.29-.42.33-.05a1,1,0,0,0,.62-.47,33.42,33.42,0,0,1,5-3l5.07-2.63.62-.47.3-.43,1.3-.18-.06-.77-9.45,1.27q-9.78,1.32-14.87,3.56c-3.39,1.5-6.36,2.93-8.88,4.31A55.13,55.13,0,0,0,55.81,201q-2.1,2.61-3.29,4.34A11.65,11.65,0,0,1,51.66,207Z"/><path class="cls-14" d="M48.77,220.82l.33-.06,0,.38-.67.12-.2,1.21c-.16.55-.35.84-.58.88l-.28.44.33,0,.37.32.38.33.33-.06.67-.11.38.33,0,.38-.29.44,0,.39a4.18,4.18,0,0,1-.83,1.71A21.77,21.77,0,0,0,47,231.71a11.45,11.45,0,0,0-.8,4.85l.18,1.53c-.22,0-.35-.07-.38-.32l-.33,0,.09.77a7.16,7.16,0,0,1-.12,2l-.24.83,1.32,11.53a140.18,140.18,0,0,0,3.7,20.54c1.12,5.82,1.8,8.84,2.06,9.06l.42.71.17,1.54,2.15,4a23.88,23.88,0,0,1,2.23,4.71l.05.39.33-.06,0,.38.34,0,.17,1.53-.71-.27-.37-.32-.67.11-.38-.33-.37-.32-.33.05a10.51,10.51,0,0,1-2.88-1.46c-1.48-1.06-3.34-2.44-5.56-4.15q-3.43-3.33-6.16-6.39a56.71,56.71,0,0,1-5.34-8.11A52.9,52.9,0,0,1,32.68,264a30.05,30.05,0,0,1-.15-10.17A43.92,43.92,0,0,1,36.05,243l2-6.22.33-.06,0-.38.33-.06-.09-.77.33-.05,0-.39.33-.06L39,233.47l.09.76-.34.06,0,.39-.34,0,0,.39-.33.06,0,.38-.33.06,0,.38-.33.06,0,.38-.33.06-1.64,3.42-2.36,3.15,0,.38-.34.06.05.38-.33.06.08.77-.33.06,0,.38-.34.06.05.38-.34.06,0-.39-.33.06-.22-1.92c-.15-1.28-.33-1.91-.55-1.87s-.63-.54-1.22-1.75c-.81-1.17-1.55-1.69-2.22-1.58-.38.59-.71.65-1,.17a1.66,1.66,0,0,0-1.37-.15l-.66.11,0-.39c.22,0,.42-.33.58-.88a15.78,15.78,0,0,1,1.4-2.59,33.33,33.33,0,0,0,3.35-3.32,42.73,42.73,0,0,1,6.54-5l3.77-2.61,1-.17.29-.44.29-.44c.22,0,1.42-.38,3.61-1l3.28-.95.34-.06Zm-8.46,12c-.22,0-.34-.07-.37-.32l.33-.06Z"/><path class="cls-15" d="M48.89,207.07l-.66.12-.58.88a6.16,6.16,0,0,0-.69,2.86,6.13,6.13,0,0,1-1.35,3c-.83.66-1.76,1.48-2.78,2.43a3.33,3.33,0,0,0-1.39,2.6,4.23,4.23,0,0,0-.45,2l.13,1.16.38.33c.22,0,1.42-.38,3.61-1l3.28-.95.34-.06,0,.39.33-.06,0,.38-.67.12.09.77a1,1,0,0,1-.62.5l-.67.11.14,1.15.33,0,.37.32.38.33.33-.06-.08-.76,1-.18,1-.17.33-.05.38.32.38.33.66-.11.38.32.33-.05L53,222.05a20.1,20.1,0,0,1-.73-3.4,3.53,3.53,0,0,1,.12-2l.28-.44,0-.39.33-.05-.08-.77-.76-.66c-.44.08-.53-.69-.26-2.3.24-1.87.47-2.83.69-2.87s.32-.18.29-.44l-.09-.77-.67.12a1.77,1.77,0,0,1-1.41-.54A2,2,0,0,0,48.89,207.07Z"/><path class="cls-16" d="M25,238.23l-.66.11-1.69,3a45.66,45.66,0,0,0-2.91,7.17,54.44,54.44,0,0,0-2.23,10.18q-.09,5.11.54,13.63a80.93,80.93,0,0,0,1.23,10.77l.27,2.31.66-.12,0-.38.24-.83L20.27,283l.24-.83a28,28,0,0,0,.61-3.63,83.75,83.75,0,0,1,2.27-9.8,112.22,112.22,0,0,1,5.4-15l3.15-8,0-.39-.33.06-.22-1.92c-.15-1.28-.33-1.91-.55-1.87s-.63-.54-1.22-1.75c-.81-1.17-1.55-1.69-2.22-1.58-.38.59-.71.65-1,.17A1.66,1.66,0,0,0,25,238.23Z"/><path class="cls-17" d="M51,231l-.88-7.69-1.33.23.08.76.67-.11.38.33,0,.38-.29.44,0,.39a4.18,4.18,0,0,1-.83,1.71A21.77,21.77,0,0,0,47,231.71a11.45,11.45,0,0,0-.8,4.85l.18,1.53,1.15,4.12a31.9,31.9,0,0,0,3.25,7.68l2.1,3.56.33-.06,0,.38.33-.05,0,.38.34-.06,0,.39.33-.06.05.39.33-.06,0,.38.34-.05-.05-.39.29-.44,0-.38.66-.12-.09-.77-.37-.32-.05-.39L55,248.38q-1-3-2.12-6.7A61.14,61.14,0,0,1,51,231Z"/><path class="cls-18" d="M53.28,215.73l-.34.06-.29.44-.28.44a3.53,3.53,0,0,0-.12,2,20.1,20.1,0,0,0,.73,3.4L53.2,224l-.33.05-.38-.32-.66.11-.38-.33-.38-.32-.33.05-1,.17-.66.12,1-.17L51,231a61.14,61.14,0,0,0,1.89,10.65q1.11,3.73,2.12,6.7l.44,3.84.05.39.37.32.09.77-.66.12,0,.38c0,.26-.07.4-.29.44a.86.86,0,0,1-.71-.27l-.33.06,3.43,3.33a74.15,74.15,0,0,0,8.15,6.05c3.4,2,5.21,3,5.43,3l.34-.05.37.32.38.33.33-.06.38.33.37.33.34-.06.08.77-.33.06-.37-.33-.34.06c0,.25-.06.4-.29.44l-.33.06,0,.38.33-.06,0,.39.33-.06L73,270l.38.33.33-.06.38.33.37.33.67-.12,0-.38.34-.06,0-.38,2.33-.4-.09-.77-.33.05,0-.38-.34.06-.08-.77a10.8,10.8,0,0,0-1.64-2.47q-.93-2.19-5.75-14.69-4.2-13-3.87-13.07l.67-.11,0-.38a2.44,2.44,0,0,1-.51-1.48l-.35-3.08a17,17,0,0,0-1.68-2.85,16.11,16.11,0,0,1-1.52-4.44A23.14,23.14,0,0,0,60.21,220a5,5,0,0,0-3.68-2.51c-1.61-.24-2.55-.6-2.83-1.08C53.39,215.71,53.25,215.47,53.28,215.73Z"/><path class="cls-19" d="M148.35,289.74l.75-.41-.26.23a.75.75,0,0,1-.29.49c-.15,0-.24.05-.26.23a.8.8,0,0,1-.29.49l-.26.23-2.39,4.47a89.78,89.78,0,0,0-5.29,9.39q-2.44,5-2.48,5.27l-.06.53-.29.5-.26.22-.09.8-.91,1.74a8.7,8.7,0,0,0-1,2.55l-.27,2.39-.3.49-.52.46-.29.49-.24,2.13-.23,0,.2.3.23,0-.32.76c-.37.48-.49.82-.35,1l-.26.23c-.33.12-.5.28-.52.45l-.27.23a2.64,2.64,0,0,0-.35,1l-.06.54-1.08,3.33a28.84,28.84,0,0,0-1.21,4.41l-.09.8-.86,3.37q-.82,3.12-1.83,7.82a124.09,124.09,0,0,0-1.81,13.79q-.84,9.36-1,14.48a54.86,54.86,0,0,0,.05,5.71l-.09.8-3.45-.6.06-.53c0-.18,0-2.34,0-6.5a128.62,128.62,0,0,1,.92-14.21,143.4,143.4,0,0,1,2.78-16.07l1.83-7.82.12-1.06,1.47-4.63c.8-2.94,1.13-4.42,1-4.44q-.2-.31-.69-.12l-.49.18,0-.26.26-.23.1-.8c.06-.53.16-.78.32-.75l0-.27.23,0q.19.3.72-.15a15.85,15.85,0,0,0,1.45-2.46,8.68,8.68,0,0,0,1.29-3l.12-1.07a.73.73,0,0,1,.29-.49q.22,0,2.48-5.27a127.33,127.33,0,0,1,5.8-11.75l3.55-6.44,0-.27.26-.22.29-.5.06-.53-.23,0,1.47-.56,1.47-.56.23,0A2.08,2.08,0,0,0,148.35,289.74Z"/><path class="cls-20" d="M160.67,267.76l0,.27.21.29.36,1.13c.24.93.41,1.67.52,2.23,0,.35-.2.51-.5.47a.79.79,0,0,0-.26.5l0,.54,0,.27-.22,0c-.15,0-.22-.12-.21-.3s-.07,0-.26.5c-.18.34-.81.61-1.89.83a3.36,3.36,0,0,0-2.42,1.83,16.78,16.78,0,0,0-1.19,3.61,11.81,11.81,0,0,1-.92,3.12,11.3,11.3,0,0,0-1.07,2l-.17,2.13,0,.54,0,.53-.22,0,0,.27-.69.17-.49.48-.23,0-.22,0,0,.26-.24.24-.47.21a1.59,1.59,0,0,1-.7.17l-.23,0-1.41.62-1.41.62-.68-.09-.47.21-.25.23-.22,0a2.13,2.13,0,0,0-1,.41,64.12,64.12,0,0,0-6.41.49l-5.51.61-1.35-.18,0-.27.22,0,0-.27.46.06,0-.26.22,0,0-.27.23,0,.24-.24c.17-.15.73-.62,1.71-1.38q1.24-1.45,5.12-7.41l3.86-5.68,0-.27.23,0,0-.26.22,0,0-.54.25-.23,0-.27-1.58-.21a20.54,20.54,0,0,1-4-1.08,44.33,44.33,0,0,1-8.89-2.81l-13.24-2.84,7.36-3.62.25-.23.45.06.25-.24.24-.23a13,13,0,0,0,2.34-.77c1.56-.51,4.11-1.15,7.66-1.94l5.56-1.14,1.12.15.25-.23.25-.24-.23,0-.2-.3-.21-.29-.22,0-.21-.3-.2-.3-.23,0a.67.67,0,0,1-.43-.33,23.38,23.38,0,0,0-3.48-2.08l-3.5-1.82-.43-.33-.21-.3-.9-.12,0-.53,6.54.88a39.4,39.4,0,0,1,10.28,2.46c2.35,1,4.4,2,6.15,3a38.49,38.49,0,0,1,4,3.78c1,1.21,1.72,2.21,2.27,3A9.5,9.5,0,0,0,160.67,267.76Z"/><path class="cls-21" d="M162.7,277l.23,0,2.27.66c1.52.44,2.35.67,2.5.7l.2.31.2.3.69.12,2.61,1.8a30,30,0,0,1,4.53,3.49,23,23,0,0,0,2.31,2.3,10.55,10.55,0,0,1,1,1.79c.11.38.25.58.4.61l0,.27-.46-.08a1.18,1.18,0,0,0-1,.1c-.19.33-.42.29-.69-.11-.46-.08-1,.28-1.53,1.09-.41.83-.69,1.24-.84,1.21s-.29.4-.39,1.29l-.15,1.33-.23,0,0,.27-.23,0,0-.27-.23,0,0-.26-.23,0,.06-.53-.23,0,0-.27-.23,0,0-.27-1.62-2.17-1.14-2.37-.23,0,0-.26-.23,0,0-.27-.23,0,0-.26-.23,0,0-.27-.23,0,0-.26-.23,0,.06-.54-.12,1.07.23,0,0,.26.23,0-.06.54.23,0,0,.27.23,0,1.38,4.3a30.39,30.39,0,0,1,2.43,7.47,20.56,20.56,0,0,1-.1,7,36.19,36.19,0,0,1-2,7.25,38.4,38.4,0,0,1-3.69,5.61q-1.87,2.11-4.26,4.42-2.31,1.77-3.84,2.87a7.45,7.45,0,0,1-2,1l-.23,0-.26.23-.26.22-.46-.07-.26.22-.5.19.13-1.07.23,0,0-.26.23,0,0-.27a16.36,16.36,0,0,1,1.54-3.26l1.49-2.73.12-1.06.29-.49c.17-.15.65-2.24,1.42-6.27a96.75,96.75,0,0,0,2.56-14.2l.91-8-.17-.57a5.22,5.22,0,0,1-.07-1.37l.06-.53-.23,0c0,.18-.11.25-.26.23l.12-1.07a7.88,7.88,0,0,0-.56-3.35,14.41,14.41,0,0,0-1.3-2.93,2.74,2.74,0,0,1-.57-1.19l0-.26-.2-.31,0-.26.26-.23.46.08.23,0,.26-.23.26-.22.23,0-.2-.31c-.15,0-.28-.23-.4-.61l-.14-.84-.46-.08,0-.26.23,0Zm5.85,8.32.23,0c0,.18-.1.26-.26.23Z"/><path class="cls-22" d="M162.59,267.78l.46.08.4.61a4.27,4.27,0,0,1,.47,2,4.26,4.26,0,0,0,.94,2.06q.85.69,1.92,1.68a2.33,2.33,0,0,1,1,1.8,3.05,3.05,0,0,1,.31,1.41l-.1.79-.26.23c-.15,0-1-.26-2.5-.7l-2.27-.66-.23,0,0,.27-.23,0,0,.26.46.08-.06.53a.72.72,0,0,0,.43.35l.46.08-.09.8-.23,0-.26.22-.26.23-.23,0,.06-.53-.69-.12-.69-.12-.23,0-.26.23-.26.22-.46-.07-.26.22-.23,0,.15-1.33a14.33,14.33,0,0,0,.51-2.35,2.48,2.48,0,0,0-.08-1.37l-.2-.31,0-.26-.23,0,.06-.53.52-.46c.31.06.37-.48.18-1.59-.16-1.3-.32-2-.47-2s-.22-.13-.2-.31l.06-.53.46.08a1.22,1.22,0,0,0,1-.37A1.37,1.37,0,0,1,162.59,267.78Z"/><path class="cls-23" d="M179.12,289.33l.46.08,1.17,2.09a32.93,32.93,0,0,1,2,5,37.33,37.33,0,0,1,1.54,7q.06,3.54-.37,9.43a54.8,54.8,0,0,1-.86,7.44l-.18,1.6-.46-.08,0-.26-.17-.58.09-.79-.16-.57a18.38,18.38,0,0,1-.42-2.52,60,60,0,0,0-1.57-6.77A77.65,77.65,0,0,0,176.49,300l-2.18-5.52,0-.27.23,0,.15-1.33q.15-1.34.39-1.29c.15,0,.43-.38.84-1.21.56-.81,1.07-1.17,1.53-1.09.27.4.5.44.69.11A1.18,1.18,0,0,1,179.12,289.33Z"/><path class="cls-24" d="M161.16,284.35l.61-5.32.92.16-.06.53-.46-.08-.26.23,0,.26.2.31,0,.26a2.74,2.74,0,0,0,.57,1.19,14.41,14.41,0,0,1,1.3,2.93,7.88,7.88,0,0,1,.56,3.35l-.12,1.07-.8,2.84a22,22,0,0,1-2.25,5.31l-1.45,2.46-.23,0,0,.27-.23,0,0,.27-.23,0,0,.26-.23,0,0,.27-.23,0,0,.27-.23,0,0-.27-.2-.31,0-.26-.46-.08.06-.53.26-.23,0-.26.3-2.66q.7-2.06,1.47-4.63A42.47,42.47,0,0,0,161.16,284.35Z"/><path class="cls-25" d="M159.56,273.77l.23,0,.2.3.2.31a2.48,2.48,0,0,1,.08,1.37,14.33,14.33,0,0,1-.51,2.35l-.15,1.33.23,0,.26-.22.46.07.26-.22.26-.23.23,0,.69.12.46.08-.69-.12-.61,5.32a42.47,42.47,0,0,1-1.31,7.37q-.76,2.58-1.47,4.63l-.3,2.66,0,.26-.26.23-.06.53.46.08,0,.26c0,.18,0,.28.2.31a.61.61,0,0,0,.49-.19l.23,0-2.38,2.31a51.21,51.21,0,0,1-5.63,4.18,23.74,23.74,0,0,1-3.76,2.07l-.23,0-.26.23-.26.22-.23,0-.26.23-.26.23-.23,0-.06.53.23,0,.26-.23.23,0c0,.18,0,.28.2.31l.23,0,0,.26-.23,0,0,.27-.23,0-.26.23-.26.22-.23,0-.26.23-.26.23-.46-.08,0-.27-.23,0,0-.26-1.61-.28.06-.53.23,0,0-.27.23,0,.06-.53a7.24,7.24,0,0,1,1.13-1.7c.43-1,1.76-4.4,4-10.17,1.94-6,2.83-9,2.67-9l-.46-.08,0-.27a1.6,1.6,0,0,0,.36-1l.24-2.13a12.06,12.06,0,0,1,1.16-2,11.21,11.21,0,0,0,1.06-3.07,15.8,15.8,0,0,1,1.34-3.57,3.43,3.43,0,0,1,2.55-1.73c1.11-.17,1.76-.42,2-.75C159.48,273.76,159.58,273.59,159.56,273.77Z"/><path class="cls-26" d="M1815.11,248l-.76-.43.26.24a.79.79,0,0,0,.3.5c.16,0,.24.05.26.23a.81.81,0,0,0,.3.5l.27.23,2.43,4.55a92.36,92.36,0,0,1,5.39,9.58c1.66,3.39,2.51,5.18,2.53,5.36l.06.54.29.51.27.23.09.81.92,1.78a8.81,8.81,0,0,1,1,2.58l.28,2.44.3.5.53.47.3.5.24,2.16.24,0-.21.31-.23,0,.33.78c.37.49.49.83.36,1l.26.23c.33.13.51.28.53.46l.27.23a2.77,2.77,0,0,1,.35,1.05l.07.54,1.1,3.4a29.56,29.56,0,0,1,1.23,4.48l.09.82.88,3.44c.56,2.11,1.18,4.77,1.86,8a124.19,124.19,0,0,1,1.85,14.05q.84,9.53,1,14.75a52.43,52.43,0,0,1-.06,5.81l.1.81,3.51-.6-.06-.54c0-.18,0-2.39,0-6.62a131.44,131.44,0,0,0-.94-14.48,146.46,146.46,0,0,0-2.83-16.37l-1.86-8-.13-1.09-1.49-4.71c-.82-3-1.15-4.5-1-4.53.14-.2.37-.24.71-.12l.5.19,0-.27-.26-.23-.09-.81c-.07-.54-.17-.8-.33-.77l0-.27-.24,0c-.13.2-.38.15-.73-.15a16.33,16.33,0,0,1-1.48-2.51,8.88,8.88,0,0,1-1.31-3.09l-.12-1.09a.79.79,0,0,0-.3-.5q-.24,0-2.52-5.36a130.86,130.86,0,0,0-5.91-12l-3.62-6.56,0-.28-.26-.23-.3-.5-.06-.54.23,0-1.5-.57-1.49-.57-.24,0A2.29,2.29,0,0,1,1815.11,248Z"/><path class="cls-27" d="M1802.56,225.6l0,.27-.2.31-.38,1.15c-.24.94-.41,1.7-.52,2.26,0,.37.2.53.5.49a.76.76,0,0,1,.27.51l0,.54,0,.27.23,0q.23,0,.21-.3t.27.51q.27.53,1.92.84a3.42,3.42,0,0,1,2.46,1.87,16.9,16.9,0,0,1,1.22,3.68,11.22,11.22,0,0,0,.94,3.17,11.82,11.82,0,0,1,1.08,2.05l.17,2.18,0,.54.05.55.23,0,0,.28.71.18.5.48.23,0,.23,0,0,.27.25.24.48.21a1.53,1.53,0,0,0,.71.18l.23,0,1.44.63,1.44.63.69-.09.48.21.25.24.23,0a2.14,2.14,0,0,1,1,.42,59.72,59.72,0,0,1,6.53.49l5.62.62,1.37-.18,0-.28-.23,0,0-.27-.46.06,0-.27-.23,0,0-.27-.23,0-.25-.24c-.17-.16-.74-.63-1.73-1.41Q1829,247,1825.09,241l-3.93-5.79,0-.27-.23,0,0-.27-.23,0,0-.55-.25-.24,0-.27,1.61-.22a21.59,21.59,0,0,0,4.09-1.09,45.85,45.85,0,0,0,9-2.87l13.49-2.89-7.51-3.68-.25-.24-.46.06-.25-.24-.25-.24a13.25,13.25,0,0,1-2.38-.78c-1.58-.52-4.19-1.18-7.8-2l-5.66-1.17-1.15.16-.25-.24-.25-.24.23,0,.21-.3.21-.3.23,0,.21-.3.2-.31.23,0a.67.67,0,0,0,.44-.33,23.51,23.51,0,0,1,3.55-2.13l3.56-1.85.44-.33.21-.3.92-.13,0-.54-6.66.89a40.85,40.85,0,0,0-10.47,2.51c-2.4,1.05-4.48,2.07-6.26,3a38,38,0,0,0-4.11,3.85c-1,1.23-1.76,2.25-2.31,3A8.77,8.77,0,0,1,1802.56,225.6Z"/><path class="cls-28" d="M1800.52,235.31l.24,0,0,.27-.47.08-.14.85c-.11.39-.25.6-.41.62l-.2.31.23,0,.27.23.26.23.24,0,.47-.08.26.23,0,.28-.2.31,0,.27a2.75,2.75,0,0,1-.58,1.2,15,15,0,0,0-1.33,3,7.85,7.85,0,0,0-.56,3.41l.12,1.09c-.16,0-.24,0-.26-.23l-.24,0,.06.54a5,5,0,0,1-.08,1.39l-.17.58.93,8.13a98.61,98.61,0,0,0,2.61,14.47q1.18,6.15,1.45,6.38l.29.5.13,1.09,1.51,2.77a16.64,16.64,0,0,1,1.57,3.32l0,.28.24,0,0,.27.23,0,.13,1.08-.5-.19-.27-.23-.47.08-.26-.23-.27-.23-.23,0a7.83,7.83,0,0,1-2-1q-1.56-1.11-3.92-2.91-2.41-2.35-4.33-4.51a39.24,39.24,0,0,1-3.76-5.71,37.5,37.5,0,0,1-2-7.38,20.82,20.82,0,0,1-.1-7.16,30.65,30.65,0,0,1,2.47-7.61l1.41-4.39.24,0,0-.27.24,0-.06-.54.23,0,0-.27.23,0-.12-1.08.06.54-.23,0,0,.27-.23,0,0,.27-.24,0,0,.27-.23,0,0,.27-.23,0,0,.27-.24,0-1.16,2.41-1.65,2.22,0,.27-.24,0,0,.27-.23,0,.06.54-.23,0,0,.28-.24,0,0,.27-.24,0,0-.27-.23,0-.16-1.36c-.1-.9-.23-1.34-.39-1.31s-.44-.39-.86-1.24-1.09-1.19-1.56-1.11c-.27.41-.5.45-.7.12a1.22,1.22,0,0,0-1-.11l-.47.08,0-.27c.16,0,.3-.23.41-.62a11,11,0,0,1,1-1.83,23.66,23.66,0,0,0,2.36-2.34,30.23,30.23,0,0,1,4.61-3.55l2.65-1.84.71-.12.2-.31.2-.31c.16,0,1-.26,2.55-.71l2.31-.67.23,0Zm-6,8.48c-.16,0-.25,0-.27-.24l.24,0Z"/><path class="cls-29" d="M1800.61,225.62l-.47.08-.4.63a4.19,4.19,0,0,0-.49,2,4.37,4.37,0,0,1-1,2.1c-.59.47-1.24,1-2,1.72a2.33,2.33,0,0,0-1,1.82,3.11,3.11,0,0,0-.32,1.44l.1.81.26.23c.16,0,1-.26,2.55-.71l2.31-.67.23,0,0,.27.24,0,0,.27-.47.08.06.54a.69.69,0,0,1-.43.35l-.47.08.09.81.23,0,.27.23.26.23.24,0-.06-.54.7-.12.7-.12.24,0,.26.23.27.23.47-.08.26.23.24,0-.16-1.35a14,14,0,0,1-.51-2.4,2.45,2.45,0,0,1,.08-1.39l.2-.31,0-.28.23,0-.06-.54-.53-.46q-.46.08-.18-1.62c.16-1.32.33-2,.48-2s.23-.13.2-.31l-.06-.54-.47.08a1.24,1.24,0,0,1-1-.38A1.44,1.44,0,0,0,1800.61,225.62Z"/><path class="cls-30" d="M1783.77,247.57l-.47.08-1.18,2.14a32,32,0,0,0-2,5,37.86,37.86,0,0,0-1.57,7.18q-.07,3.6.38,9.6a56.76,56.76,0,0,0,.87,7.59l.18,1.62.47-.08,0-.27.17-.58-.09-.82.17-.58a18.78,18.78,0,0,0,.42-2.56,62.63,62.63,0,0,1,1.6-6.9,79.52,79.52,0,0,1,3.81-10.59l2.22-5.63,0-.27-.23,0-.16-1.36c-.1-.9-.23-1.34-.39-1.31s-.44-.39-.86-1.24-1.09-1.19-1.56-1.11c-.27.41-.5.45-.7.12A1.22,1.22,0,0,0,1783.77,247.57Z"/><path class="cls-31" d="M1802.06,242.5l-.62-5.42-.93.16.06.54.47-.08.26.23,0,.28-.2.31,0,.27a2.75,2.75,0,0,1-.58,1.2,15,15,0,0,0-1.33,3,7.85,7.85,0,0,0-.56,3.41l.12,1.09.81,2.9a22.33,22.33,0,0,0,2.29,5.4l1.48,2.51.24,0,0,.27.23,0,0,.27.24,0,0,.27.23,0,0,.27.24,0,0,.28.23,0,0-.28.2-.31,0-.27.47-.08-.06-.54-.27-.23,0-.27-.31-2.71q-.71-2.08-1.49-4.72A44.1,44.1,0,0,1,1802.06,242.5Z"/><path class="cls-32" d="M1803.7,231.72l-.24,0-.2.32-.2.31a2.45,2.45,0,0,0-.08,1.39,14,14,0,0,0,.51,2.4l.16,1.35-.24,0-.26-.23-.47.08-.27-.23-.26-.23-.24,0-.7.12-.47.08.7-.12.62,5.42a44.1,44.1,0,0,0,1.34,7.5q.78,2.64,1.49,4.72l.31,2.71,0,.27.27.23.06.54-.47.08,0,.27c0,.18,0,.29-.2.31a.58.58,0,0,1-.5-.19l-.23,0,2.42,2.35a50.1,50.1,0,0,0,5.74,4.26,24.12,24.12,0,0,0,3.82,2.11l.24,0,.26.23.27.23.23,0,.27.23.26.23.23,0,.07.55-.24,0-.26-.24-.24,0c0,.19,0,.29-.2.32l-.23,0,0,.27.23,0,0,.27.24,0,.26.23.27.23.23,0,.27.23.26.23.47-.08,0-.27.23,0,0-.27,1.64-.28-.06-.55-.23,0,0-.28-.23,0-.06-.54a7.46,7.46,0,0,0-1.16-1.73q-.64-1.54-4.05-10.36-3-9.15-2.72-9.2l.47-.08,0-.27a1.64,1.64,0,0,1-.36-1l-.25-2.17a11.59,11.59,0,0,0-1.18-2,11.32,11.32,0,0,1-1.08-3.13,16,16,0,0,0-1.37-3.64A3.47,3.47,0,0,0,1806,233c-1.13-.18-1.8-.43-2-.76C1803.78,231.71,1803.68,231.54,1803.7,231.72Z"/><path class="cls-33" d="M1870.67,283.86l.53-.29-.18.16a.62.62,0,0,1-.21.35c-.11,0-.17,0-.18.16a.53.53,0,0,1-.21.34l-.18.16-1.68,3.15a63.56,63.56,0,0,0-3.73,6.62c-1.15,2.35-1.73,3.59-1.75,3.71l0,.38-.2.34-.19.16-.06.57-.64,1.22a6.21,6.21,0,0,0-.7,1.79l-.19,1.69-.21.35-.36.32-.21.34-.17,1.5-.16,0,.14.22.16,0-.22.53c-.26.34-.35.58-.25.72l-.19.16c-.23.09-.35.2-.36.32l-.19.16a1.76,1.76,0,0,0-.24.72l0,.38-.76,2.35a21.19,21.19,0,0,0-.85,3.1l-.07.56-.6,2.38q-.59,2.19-1.29,5.51a85.47,85.47,0,0,0-1.27,9.72c-.4,4.39-.62,7.79-.68,10.2a39.5,39.5,0,0,0,0,4l-.06.57-2.43-.42,0-.38c0-.12,0-1.65,0-4.58a89.07,89.07,0,0,1,.65-10,101,101,0,0,1,2-11.31l1.29-5.51.09-.75,1-3.26a11.56,11.56,0,0,0,.69-3.13c-.09-.15-.26-.17-.49-.09l-.34.14,0-.19.18-.16.07-.56c0-.38.12-.56.22-.54l0-.19.17,0c.09.15.26.11.5-.1a10.73,10.73,0,0,0,1-1.74,6,6,0,0,0,.9-2.13l.09-.75a.53.53,0,0,1,.2-.35,20.23,20.23,0,0,0,1.75-3.71q1.59-3.74,4.08-8.28l2.51-4.54,0-.18.18-.16.21-.35,0-.37-.16,0,1-.4,1-.39.16,0A1.38,1.38,0,0,0,1870.67,283.86Z"/><path class="cls-34" d="M1879.35,268.37v.19l.14.21.26.8q.24,1,.36,1.56c0,.26-.14.37-.35.34a.59.59,0,0,0-.19.35l0,.38,0,.19-.16,0a.17.17,0,0,1-.14-.21c0-.13-.06,0-.19.35s-.57.43-1.33.58a2.35,2.35,0,0,0-1.7,1.29,11.2,11.2,0,0,0-.84,2.55,8.29,8.29,0,0,1-.65,2.19,8.6,8.6,0,0,0-.75,1.42l-.12,1.5,0,.38,0,.38-.16,0V283l-.49.13-.35.33-.16,0-.16,0v.18l-.18.17-.33.15a1,1,0,0,1-.49.12l-.16,0-1,.44-1,.43-.48-.06-.33.14-.17.17-.16,0c-.11,0-.33.08-.66.29a44,44,0,0,0-4.52.34l-3.88.43-1-.13,0-.19.16,0v-.18l.32,0v-.19l.16,0,0-.19.15,0,.18-.17c.11-.11.51-.44,1.2-1s1.79-2.42,3.61-5.21l2.72-4v-.18l.16,0v-.19l.16,0,0-.38.18-.16v-.19l-1.11-.15a14.64,14.64,0,0,1-2.83-.76,31.09,31.09,0,0,1-6.26-2l-9.33-2,5.19-2.55.17-.16.32,0,.17-.17.18-.16a9.94,9.94,0,0,0,1.64-.54q1.65-.54,5.4-1.37l3.91-.8.8.11.17-.17.18-.17-.16,0-.15-.21-.14-.21-.16,0-.14-.21-.15-.21-.16,0a.47.47,0,0,1-.3-.23,16,16,0,0,0-2.45-1.47l-2.47-1.28-.3-.23-.15-.21-.63-.08,0-.38,4.6.62a28.07,28.07,0,0,1,7.24,1.73q2.49,1.1,4.33,2.1a27.65,27.65,0,0,1,2.84,2.66c.69.86,1.22,1.56,1.6,2.12A5.93,5.93,0,0,0,1879.35,268.37Z"/><path class="cls-35" d="M1880.78,274.9l.16,0,1.6.46c1.07.31,1.66.48,1.76.49l.14.22.14.21.49.09,1.84,1.27a21.33,21.33,0,0,1,3.19,2.45,14.1,14.1,0,0,0,1.63,1.62,7.83,7.83,0,0,1,.68,1.26c.08.27.17.42.28.43l0,.19-.32-.05a.83.83,0,0,0-.67.07c-.14.23-.3.21-.49-.08-.32-.06-.68.2-1.08.77s-.48.87-.59.85-.2.29-.27.91l-.11.94-.16,0,0,.19-.16,0,0-.19-.16,0,0-.18-.17,0,0-.37-.16,0,0-.19-.17,0,0-.19-1.15-1.53-.8-1.66-.16,0,0-.19-.16,0,0-.18-.16,0,0-.19-.16,0,0-.18-.17,0,0-.19-.17,0,0-.37-.09.75.16,0,0,.19.16,0,0,.37.16,0,0,.19.16,0,1,3a21.3,21.3,0,0,1,1.71,5.26,14.49,14.49,0,0,1-.07,5,25.25,25.25,0,0,1-1.41,5.11,27.31,27.31,0,0,1-2.6,4q-1.32,1.48-3,3.11c-1.08.84-2,1.51-2.71,2a5,5,0,0,1-1.4.72l-.16,0-.19.16-.18.16-.32-.06-.19.16-.34.13.08-.75.17,0,0-.19.16,0,0-.18a11.49,11.49,0,0,1,1.09-2.3l1-1.92.09-.75.21-.35a29.7,29.7,0,0,0,1-4.41,68.1,68.1,0,0,0,1.8-10l.64-5.62-.12-.4a3.71,3.71,0,0,1,0-1l0-.38-.16,0c0,.13-.08.18-.18.16l.08-.75a5.58,5.58,0,0,0-.39-2.36,10.21,10.21,0,0,0-.92-2.06,2,2,0,0,1-.4-.84l0-.18-.14-.22,0-.19.19-.16.32.06.16,0,.19-.16.18-.16.16,0-.14-.22c-.11,0-.2-.16-.28-.43l-.1-.59-.32-.06,0-.18.16,0Zm4.12,5.86.16,0c0,.12-.07.18-.18.16Z"/><path class="cls-36" d="M1880.7,268.39l.32.06.29.43a3.06,3.06,0,0,1,.33,1.39,3.11,3.11,0,0,0,.66,1.45c.4.32.86.72,1.35,1.19a1.59,1.59,0,0,1,.68,1.26,2,2,0,0,1,.22,1l-.06.56-.19.16c-.1,0-.69-.18-1.76-.49l-1.6-.46-.16,0,0,.19-.16,0,0,.18.32.06,0,.38a.48.48,0,0,0,.3.24l.32.05-.06.57-.16,0-.18.16-.19.16-.16,0,0-.38-.48-.08-.49-.08-.16,0-.19.16-.18.16-.32-.06-.19.16-.16,0,.11-.94a9.17,9.17,0,0,0,.35-1.66,1.73,1.73,0,0,0,0-1l-.14-.22,0-.19-.16,0,0-.38.37-.32c.21,0,.26-.34.13-1.12s-.23-1.38-.34-1.4-.15-.09-.14-.21l0-.38.33.06a.85.85,0,0,0,.69-.26A1,1,0,0,1,1880.7,268.39Z"/><path class="cls-37" d="M1892.35,283.57l.32.05.82,1.48a21.89,21.89,0,0,1,1.42,3.49,26.51,26.51,0,0,1,1.08,5c0,1.66,0,3.88-.26,6.64a40.35,40.35,0,0,1-.6,5.25l-.13,1.12-.32-.05,0-.19-.12-.4.06-.57-.11-.4a14.8,14.8,0,0,1-.3-1.77,39.75,39.75,0,0,0-1.1-4.77,56.76,56.76,0,0,0-2.63-7.33l-1.54-3.89,0-.19.16,0,.11-.94c.07-.62.16-.93.27-.91s.3-.26.59-.85.76-.83,1.08-.77c.19.29.35.31.49.08A.83.83,0,0,1,1892.35,283.57Z"/><path class="cls-38" d="M1879.7,280.06l.42-3.75.65.11,0,.38-.32-.06-.19.16,0,.19.14.22,0,.18a2,2,0,0,0,.4.84,10.21,10.21,0,0,1,.92,2.06,5.58,5.58,0,0,1,.39,2.36l-.08.75-.56,2a16.13,16.13,0,0,1-1.59,3.74l-1,1.73-.16,0,0,.19-.16,0,0,.19-.16,0,0,.19-.16,0,0,.19-.16,0,0,.19-.16,0,0-.19-.14-.21,0-.19-.32-.05,0-.38.18-.16,0-.19.22-1.87c.33-1,.67-2.05,1-3.26A30.52,30.52,0,0,0,1879.7,280.06Z"/><path class="cls-39" d="M1878.57,272.61l.16,0,.14.21.14.22a1.73,1.73,0,0,1,0,1,9.17,9.17,0,0,1-.35,1.66l-.11.94.16,0,.19-.16.32.06.18-.16.19-.16.16,0,.49.08.32.06-.49-.09-.42,3.75a30.52,30.52,0,0,1-.93,5.19c-.36,1.21-.7,2.3-1,3.26l-.22,1.87,0,.19-.18.16,0,.38.32.05,0,.19c0,.12,0,.2.14.21a.42.42,0,0,0,.35-.13l.16,0-1.67,1.62a36.8,36.8,0,0,1-4,2.95,17.37,17.37,0,0,1-2.64,1.46l-.16,0-.19.16-.18.16-.16,0-.18.16-.19.16-.16,0,0,.38.16,0,.18-.16.16,0c0,.13,0,.2.15.22l.16,0,0,.18-.17,0,0,.18-.16,0-.18.16-.19.16-.16,0-.18.16-.19.16-.32-.06,0-.19-.16,0,0-.19-1.13-.2,0-.37.16,0,0-.19.17,0,0-.38a5.2,5.2,0,0,1,.8-1.2q.45-1.06,2.8-7.16a50.08,50.08,0,0,0,1.88-6.36l-.32-.06,0-.18a1.25,1.25,0,0,0,.25-.72l.17-1.5a7.84,7.84,0,0,1,.82-1.39,7.86,7.86,0,0,0,.74-2.17,11.13,11.13,0,0,1,1-2.51,2.41,2.41,0,0,1,1.79-1.22c.78-.12,1.24-.29,1.38-.53S1878.58,272.48,1878.57,272.61Z"/></svg>
