<svg id="Layer_2" data-name="Layer 2" xmlns="http://www.w3.org/2000/svg" viewBox="0 0 1920 700"><defs><style>.cls-1{fill:#f2eee8;}.cls-2{fill:#efe0bd;}.cls-3{opacity:0.5;isolation:isolate;}.cls-4{fill:#d38d5f;}.cls-5{fill:#deaa87;}.cls-6{fill:#ffe6d5;}</style></defs><path class="cls-1" d="M-23,510.5c157.15-12,310.34-26.88,310-40-.15-5.61-28.38-9.51-28-17,.47-9.29,44.45-14.1,53-15,118.11-12.41,509.62-28.54,510-34,.24-3.49-159-13.23-159-26,0-5.47,29.11-10.35,71-15,198.78-22.07,295.93,4.33,423-13a802.84,802.84,0,0,1,96-8c26.72-.61,37.65.91,90,3,23.53.94,63,2.52,106,3,60.84.69,92.65,1,136-2,56.52-4,111-12.2,113-4,.85,3.57-9.06,7-8,11,2.19,8.33,48.38,8.73,80.38,1.2,1.1-.26,11.11-2.63,11.62-1.2.73,2.06-19.54,8.42-19,13,1.16,9.75,95.75,3.24,97,13,.63,4.95-23.36,9.54-23,14,.46,5.77,41.54,9.31,166,7V290c-10.57-.11-26.63-.19-46.17,0-55.71.53-97.1,2.87-109.83,3.55-63.16,3.4-111.42,3.28-213,6-234.25,6.27-247.12,14.09-429,17-105.17,1.69-97.73-1-261,1-131.14,1.59-196.71,2.38-241,4-124.14,4.53-149.64,9.44-217,3-95.05-9.08-140-16-140-16-54.88-8.45-76.51-14.44-115-10-30.46,3.51-39,9.81-72,10-26.2.15-48.19-3.66-79-9-44.22-7.66-50.4-12.26-70-11-27.78,1.79-49.54,13.22-63,22l-3.57,200Z"/><path class="cls-2" d="M-50,503.5c157.15-12,310.34-26.88,310-40-.15-5.61-28.38-9.51-28-17,.47-9.29,44.45-14.1,53-15,118.11-12.41,509.62-28.54,510-34,.24-3.49-159-13.23-159-26,0-5.47,29.11-10.35,71-15,198.78-22.07,295.93,4.33,423-13a802.84,802.84,0,0,1,96-8c26.72-.61,37.65.91,90,3,23.53.94,63,2.52,106,3,60.84.69,92.65,1,136-2,56.52-4,111-12.2,113-4,.85,3.57-9.06,7-8,11,2.19,8.33,48.38,8.73,80.38,1.2,1.1-.26,11.11-2.63,11.62-1.2.73,2.06-19.54,8.42-19,13,1.16,9.75,95.75,3.24,97,13,.63,4.95-23.36,9.54-23,14,.46,5.77,41.54,9.31,166,7V283c-10.57-.11-26.63-.19-46.17,0-55.71.53-97.1,2.87-109.83,3.55-63.16,3.4-111.42,3.28-213,6-234.25,6.27-247.12,14.09-429,17-105.17,1.69-97.73-1-261,1-131.14,1.59-196.71,2.38-241,4-124.14,4.53-149.64,9.44-217,3-95.05-9.08-140-16-140-16-54.88-8.45-76.51-14.44-115-10-30.46,3.51-39,9.81-72,10-26.2.15-48.19-3.66-79-9-44.22-7.66-50.4-12.26-70-11-27.78,1.79-49.54,13.22-63,22l-3.57,200Z"/><path class="cls-3" d="M529.11,377.81a8.59,8.59,0,0,0-1,.08,16.07,16.07,0,0,0-3.67,1.3,10.9,10.9,0,0,1-1.26.41,8.29,8.29,0,0,1-1.67.2l-1.79,0a7.45,7.45,0,0,0-2.48.37,3.34,3.34,0,0,0-.73.37v0a1.94,1.94,0,0,0-.82,1.34,2.52,2.52,0,0,0,.61,1.79c.69.84,2.94.55,2.81,1.67-.1.92-3.45,2.59-4.72,4.31-.11.15-.23.33-.37.49l-.36.29a3.42,3.42,0,0,0-.25.61v0a1,1,0,0,0,0,.24,1.09,1.09,0,0,0,0,.25l0,0a1.12,1.12,0,0,0,.17.2h0a.78.78,0,0,0,.2.16,2.17,2.17,0,0,0,.69.13,11.07,11.07,0,0,0,1.31-.09h0a7.71,7.71,0,0,0,2.28-.57h0a18.91,18.91,0,0,1,2.32-.73,27.29,27.29,0,0,1,5-.73c.49,0,1,0,1.47,0,.24,0,.49,0,.73.08a6.05,6.05,0,0,1,.73.2,6.53,6.53,0,0,1,1,.41c.13.07.24.17.37.25l.57.36h0l.89.61,0,0a9,9,0,0,0,.94.57,28.56,28.56,0,0,0,3.13,1.67l.45.12.12,0a3.1,3.1,0,0,0,.61.09,2.93,2.93,0,0,0,2-.57c.08-.08.15-.11.2-.21a1.11,1.11,0,0,0,0-1,5.49,5.49,0,0,0-.2-.57,3.76,3.76,0,0,1-.16-.37v0a2,2,0,0,0-.17-.37l0,0a11.92,11.92,0,0,0-.81-1.14,3.35,3.35,0,0,1-.29-.4,3,3,0,0,1-.16-.37,1.08,1.08,0,0,1,0-.77v-.05c0-.05.08-.08.12-.12a1.05,1.05,0,0,1,.21-.12v0a4.17,4.17,0,0,1,.49-.08c2.88-.53,5.91.83,8.83.45a5.29,5.29,0,0,0,2.68-.9c.38-.3,1-.84.74-1.22-2.05-2.57-5.6-3.06-8.67-4.11l-1.22-.61c-.53-.26-1.1-.5-1.63-.73l-.08,0s0,0,0,0a4.74,4.74,0,0,1-.49-.4c-.38-.33.11-1.17-.29-1.47-.64-.48-1.61.41-2.4.29a7.82,7.82,0,0,1-2.2-1l-.08,0a3.58,3.58,0,0,0-.77-.29,12.82,12.82,0,0,0-1.51-.24,11.35,11.35,0,0,0-1.54-.08Z"/><path class="cls-4" d="M513.91,389.29c1.27-1.72,4.64-3.41,4.74-4.32.13-1.12-2.12-.81-2.8-1.65a2.61,2.61,0,0,1-.61-1.82,2,2,0,0,1,.8-1.35c1.87-1.25,4.5-.45,6.69-1,1.69-.41,3.19-1.49,4.91-1.72a11.22,11.22,0,0,1,4.12.26c1.08.26,2,1.17,3.06,1.33.79.12,1.74-.74,2.39-.26.39.29-.11,1.13.26,1.46,3.29,2.83,9.23,2.26,12.15,5.91.3.38-.35.95-.73,1.26a5.39,5.39,0,0,1-2.71.86c-2.91.39-5.91-1-8.8-.43-.3.05-.73.08-.84.36-.41,1.09,1.1,2.06,1.46,3.16.21.61.72,1.33.4,1.89s-1.46.83-2.26.8c-1.56-.07-2.89-1.21-4.29-1.92s-2.43-1.81-3.85-2.26a8.93,8.93,0,0,0-2.92-.27,28.18,28.18,0,0,0-5,.73c-1.58.34-3,1.24-4.65,1.33-.82,0-2,.3-2.43-.43S513.49,389.86,513.91,389.29Z"/><path class="cls-5" d="M529.8,378.6c-3.07-.16-16.61,11.46-16.61,11.46v0c-.19.41-.37.82-.15,1.16.46.68,1.61.46,2.43.42,1.61-.08,3.07-1,4.65-1.33a27.28,27.28,0,0,1,5-.72,8.66,8.66,0,0,1,2.92.27c1.42.45,2.53,1.57,3.85,2.25s2.73,1.86,4.3,1.92c.79,0,1.86-.1,2.25-.79s-.2-1.28-.4-1.89c-.36-1.1-1.88-2.08-1.47-3.16a.5.5,0,0,1,.32-.26c-2.47-4.14-5.47-8.76-6.82-9.29l-.26-.06Z"/><path class="cls-5" d="M530,378.7c2.29,1.67,4.93,2.19,7.33,3.43,1.6.82,3,2,4.69,2.67a6.59,6.59,0,0,0,1.5.43,16.22,16.22,0,0,0,2.12,0,5.34,5.34,0,0,0-.61-.8,22.57,22.57,0,0,0-5.26-3.05,45.29,45.29,0,0,0-7.09-2.77,4.37,4.37,0,0,0-2-.37c-.25.05-.87.27-.66.42Z"/><path class="cls-5" d="M528.67,377.35a8.93,8.93,0,0,0-1,.08c-1.72.24-3.22,1.31-4.9,1.73-2.19.54-4.82-.26-6.7,1l0,.06s.25,1.27.75,1.55c1.81,1,4.2-.08,6.19-.66a14.32,14.32,0,0,0,1.93-.94,11.06,11.06,0,0,1,2.39-.93,5.82,5.82,0,0,1,1.18,0H532l.62-1.2a3.68,3.68,0,0,0-.83-.33,11.86,11.86,0,0,0-3.09-.34Z"/><path class="cls-6" d="M533.56,385a.4.4,0,1,1-.79,0,.4.4,0,0,1,.79,0Z"/><path class="cls-6" d="M531.15,382.15a.39.39,0,0,1-.39.4.4.4,0,0,1-.4-.4.39.39,0,0,1,.4-.39A.38.38,0,0,1,531.15,382.15Z"/><path class="cls-6" d="M527.06,383.36a.39.39,0,0,1-.4.39.38.38,0,0,1-.39-.39.39.39,0,0,1,.39-.4A.4.4,0,0,1,527.06,383.36Z"/><path class="cls-6" d="M523,386.73a.38.38,0,0,1-.39.39.39.39,0,0,1-.4-.39.4.4,0,0,1,.4-.4A.39.39,0,0,1,523,386.73Z"/><path class="cls-6" d="M524.65,384.08a.4.4,0,1,1-.4-.4A.4.4,0,0,1,524.65,384.08Z"/><path class="cls-6" d="M528.5,387a.39.39,0,0,1-.39.4.4.4,0,0,1,0-.8A.39.39,0,0,1,528.5,387Z"/><path class="cls-3" d="M495.86,385.85a6.29,6.29,0,0,1,.77.07,11.81,11.81,0,0,1,2.78,1,6.71,6.71,0,0,0,1,.31,5.79,5.79,0,0,0,1.26.15l1.36,0a5.52,5.52,0,0,1,1.88.27,2.85,2.85,0,0,1,.55.28v0a1.48,1.48,0,0,1,.62,1,2,2,0,0,1-.46,1.36c-.52.63-2.22.41-2.13,1.26.08.7,2.61,2,3.58,3.27a4,4,0,0,0,.28.37l.27.22a1.79,1.79,0,0,1,.19.46v0a.54.54,0,0,1,0,.18.63.63,0,0,1,0,.19l0,0a.93.93,0,0,1-.13.15h0a.93.93,0,0,1-.15.13,1.78,1.78,0,0,1-.53.09,7.82,7.82,0,0,1-1-.06h0a6.18,6.18,0,0,1-1.73-.43h0a12.4,12.4,0,0,0-1.76-.56,20.26,20.26,0,0,0-3.79-.55,10.27,10.27,0,0,0-1.11,0,5.32,5.32,0,0,0-.56.06,4.94,4.94,0,0,0-.55.15,4.43,4.43,0,0,0-.74.31c-.1,0-.18.13-.28.19l-.43.27h0l-.68.47,0,0c-.24.15-.46.3-.71.43a20.87,20.87,0,0,1-2.38,1.26,2,2,0,0,1-.33.09l-.1,0a3.4,3.4,0,0,1-.46.06,2.21,2.21,0,0,1-1.54-.43c-.06-.06-.12-.09-.16-.16a.92.92,0,0,1,0-.74c.05-.14.1-.29.16-.43s.09-.19.12-.28v0a1.75,1.75,0,0,1,.13-.28l0,0a9.65,9.65,0,0,1,.61-.86,3,3,0,0,0,.22-.31,1.69,1.69,0,0,0,.12-.28.78.78,0,0,0,0-.58v0c0-.05-.06-.07-.09-.1l-.15-.09v0a2.58,2.58,0,0,0-.37-.06c-2.19-.4-4.49.63-6.7.34a4.1,4.1,0,0,1-2-.68c-.29-.23-.79-.64-.56-.93,1.56-1.94,4.24-2.32,6.57-3.11l.93-.46c.4-.2.82-.38,1.23-.56l.06,0,0,0a3.79,3.79,0,0,0,.37-.31c.29-.24-.08-.88.22-1.11.48-.36,1.22.31,1.82.22a5.81,5.81,0,0,0,1.66-.77l.06,0a2.63,2.63,0,0,1,.59-.22,8.72,8.72,0,0,1,1.14-.18,7.73,7.73,0,0,1,1.17-.07Z"/><path class="cls-4" d="M507.38,394.56c-1-1.31-3.52-2.59-3.6-3.28-.09-.85,1.61-.61,2.13-1.25a2,2,0,0,0,.46-1.38,1.49,1.49,0,0,0-.6-1c-1.42-.95-3.42-.35-5.08-.76-1.27-.31-2.42-1.13-3.72-1.3a8.21,8.21,0,0,0-3.12.2c-.82.19-1.48.88-2.31,1-.6.09-1.33-.56-1.81-.2-.3.23.08.86-.2,1.11-2.49,2.15-7,1.71-9.21,4.48-.22.29.27.72.55.95a4.06,4.06,0,0,0,2.06.66c2.2.29,4.48-.73,6.67-.33.22,0,.55.06.63.27.31.83-.83,1.56-1.11,2.39-.15.47-.54,1-.3,1.44s1.11.63,1.71.6c1.19-.05,2.2-.91,3.25-1.45A19.53,19.53,0,0,1,496.7,395a6.55,6.55,0,0,1,2.21-.21,22.17,22.17,0,0,1,3.8.55c1.19.26,2.3.95,3.52,1,.62,0,1.55.23,1.84-.33S507.7,395,507.38,394.56Z"/><path class="cls-5" d="M495.34,386.45c2.33-.12,12.58,8.69,12.58,8.69h0c.14.31.28.62.11.88-.34.52-1.22.35-1.84.32-1.22-.06-2.33-.75-3.52-1a22.06,22.06,0,0,0-3.79-.55,6.55,6.55,0,0,0-2.21.21,20.37,20.37,0,0,0-2.92,1.7c-1.05.55-2.07,1.41-3.25,1.46-.61,0-1.41-.08-1.71-.6s.15-1,.3-1.43c.28-.84,1.42-1.57,1.11-2.4a.36.36,0,0,0-.24-.19c1.88-3.14,4.15-6.64,5.17-7l.19-.05Z"/><path class="cls-5" d="M495.22,386.53c-1.73,1.26-3.73,1.66-5.55,2.6-1.21.62-2.3,1.5-3.55,2a5.09,5.09,0,0,1-1.14.32,12,12,0,0,1-1.6,0,3.72,3.72,0,0,1,.46-.61,17.31,17.31,0,0,1,4-2.31,34.75,34.75,0,0,1,5.37-2.1,3.43,3.43,0,0,1,1.53-.28c.2,0,.66.2.5.32Z"/><path class="cls-5" d="M496.19,385.51a5,5,0,0,1,.78.06c1.31.18,2.44,1,3.72,1.31,1.66.41,3.65-.2,5.07.74v.05s-.19,1-.57,1.17c-1.37.76-3.18-.06-4.69-.5a11.56,11.56,0,0,1-1.46-.71,8.8,8.8,0,0,0-1.82-.71,5.29,5.29,0,0,0-.89,0h-2.63l-.47-.91a3.75,3.75,0,0,1,.63-.25,9.22,9.22,0,0,1,2.34-.25Z"/><path class="cls-6" d="M492.49,391.34a.29.29,0,0,0,.3.29.3.3,0,1,0,0-.59A.29.29,0,0,0,492.49,391.34Z"/><path class="cls-6" d="M494.31,389.15a.31.31,0,0,0,.3.3.3.3,0,0,0,.3-.3.29.29,0,0,0-.3-.3A.3.3,0,0,0,494.31,389.15Z"/><path class="cls-6" d="M497.41,390.06a.31.31,0,0,0,.3.3.3.3,0,0,0,.3-.3.29.29,0,0,0-.3-.3A.3.3,0,0,0,497.41,390.06Z"/><path class="cls-6" d="M500.52,392.61a.29.29,0,0,0,.3.3.3.3,0,0,0,.3-.3.31.31,0,0,0-.3-.3A.3.3,0,0,0,500.52,392.61Z"/><path class="cls-6" d="M499.24,390.61a.29.29,0,0,0,.3.29.3.3,0,1,0,0-.59A.29.29,0,0,0,499.24,390.61Z"/><path class="cls-6" d="M496.32,392.79a.3.3,0,1,0,.3-.29A.29.29,0,0,0,496.32,392.79Z"/></svg>
