<svg id="Layer_2" data-name="Layer 2" xmlns="http://www.w3.org/2000/svg" viewBox="0 0 1920 700"><defs><style>.cls-1{fill:#ff501a;}.cls-2{fill:#b2aead;}</style></defs><ellipse class="cls-1" cx="507.51" cy="243.71" rx="40.54" ry="39.19"/><path class="cls-2" d="M723.86,306.44l158.7,101.78-206.72-82Z"/><path class="cls-2" d="M698.38,328.43c-19.25-16.39-34.07-30.08-44.25-39.75-9.1-8.63-18.82-15.1-28-23.6-8.16-7.6-14.15-13.86-22.48-12.93-4.2.47-5.57,2.39-13.33,6.79-4.74,2.67-11,5.12-23.59,10-27,10.52-24.06,7.49-32,12-9.32,5.25-12.51,9-19.57,8.72-4-.14-5.76-1.4-16.82-7.76-10.58-6.08-21.22-11.8-31.81-17.77-15.41-8.7-12.54-6.72-16.28-9.06-21.39-13.44-24.58-21.79-38.75-26.83-3.23-1.14-5.89-1.7-9.49-4.84-7.38-6.37-7.5-13.71-13.9-17.78-2.89-1.85-3-.43-12.43-1.94-7.08-1.13-9.75-2.36-12.8-2.91-6.71-1.2-10.07,1.87-24.68,9.7-7.91,4.24-20.52,11-34.73,15.83-6.51,2.24-11.09,3.32-14.63,4.21-33.51,8.36-50.83,18.42-91.23,29.72-6.86,1.92-17.79,4.83-31.44,7.76V371H699.05Z"/></svg>
