<svg id="Layer_2" data-name="Layer 2" xmlns="http://www.w3.org/2000/svg" viewBox="0 0 1920 700"><defs><style>.cls-1{fill:#cfffe6;}.cls-2{fill:#9cffcf;}</style></defs><g id="mountan-back1"><path class="cls-1" d="M1377.94,280.61a108.66,108.66,0,0,1,16-7.86c14.43-5.65,19.1-3.93,30.82-9.27,10.36-4.72,8.31-6.78,20.24-12.58,11-5.36,13.75-4,25.15-9.26,3.35-1.54,9.43-5.41,21.45-13.07,27-17.22,23.32-15.75,28.36-18.3,6.87-3.48,11.34-5,16-10.22,3.74-4.13,4.7-7.36,7.15-7.36,3.59,0,4.67,6.84,10.12,15,4.34,6.47,9.55,10.32,20,18.06,10.62,7.86,16,11.79,21.7,11.17,6.87-.77,7.41-6.45,13.07-5.94,6,.53,7.88,5.73,22.68,20.43,8.8,8.74,11.67,10.41,13.07,11.17,5,2.73,7.94,2.88,14.3,6.87,5.77,3.64,5.29,4.72,7.89,5.23,6,1.17,8.35-4.71,18.74-7.13,5.79-1.35,5.93.28,11.59-1.43,4.45-1.33,6-2.81,12.58-5,3.93-1.28,5.86-1.93,7.4-1.9,5.15.07,7.36,3.76,15.29,10.21,7,5.71,11.61,9.49,18.49,11.17,5.53,1.35,5.68-.33,12.57.95a51.45,51.45,0,0,1,18.74,7.86c8.31,5.6,8.54,9.33,14.06,10,5.18.6,11.17-2,12.08-2.38,3.3-1.42,4.06-2.52,7.15-3.32a20.84,20.84,0,0,1,9.61,0,31.59,31.59,0,0,1,16,8.79l15,10.94,200.88,114.31L2067,550.5l-1015.21,6.38,5.9-246.55Z"/><path class="cls-2" d="M1532.93,213.49c1.21,1.37-6.09,10.27-12.08,16.16-4.39,4.31-6.35,5.32-7.89,8.79-2.46,5.52.18,8.35-.49,14-.77,6.52-6.94,12-19.24,22.8-4.58,4-15.09,13.22-17,11.64-.79-.65.29-3.52,2.46-9.26,2.29-6.05,3.66-8.23,2.94-8.79-1-.8-4.25,3-11.09,6.41a51,51,0,0,1-13.52,4.28c-7.6,1.45-8.39.09-14.55,1.43-9.44,2-13.47,6.55-14.54,5.46-1.48-1.48,4.33-11.62,14-17.58,5-3.09,11.16-5.08,16-6.66,5.89-1.91,6.45-1.55,9.12-2.61,8.76-3.46,10.15-10.15,17-17.82,2.24-2.5,2.81-2.59,28.36-17.58C1527.64,215.28,1532.12,212.59,1532.93,213.49Z"/><path class="cls-2" d="M1605.18,242.72c2.34,1.89-2,9.39-8.14,20-1.19,2.07-3.07,5.15-5.67,5.23-2,.06-2.45-1.78-4.91-2.38-2.67-.65-4.57.92-11.1,4.28-5.52,2.84-8.3,4.24-9.12,3.56-1.42-1.18,1.07-7.07,4.68-11.64,2.6-3.27,5.41-5.4,20.47-13.3C1602.88,242.39,1604.3,242,1605.18,242.72Z"/><path class="cls-2" d="M1712.44,271.22c1.38,3.81-11.66,11.66-16.76,14.74-9.61,5.78-12.1,5.2-20.71,11.16-6.16,4.26-10.76,8.63-11.35,8.08-.79-.73,7.33-8.81,5.89-10.46-.81-.94-4.42.63-13.56,5.23-15.56,7.84-20.5,11-21.21,10.22-.94-1.11,6.48-8.78,13.07-14.49A132.06,132.06,0,0,1,1668,281.45c11.25-6.6,18.81-10.94,29.6-12.12C1699.15,269.16,1711.22,267.84,1712.44,271.22Z"/><path class="cls-1" d="M1744.72,224.5c-.18-.16.15-.94.6-1.47a2.94,2.94,0,0,1,2.1-1.2,2.85,2.85,0,0,1,2.1.9c.33.37.43.73.9.9a1.36,1.36,0,0,0,.89,0,1.92,1.92,0,0,0,.9-.9c.83-1.14,3-.93,3.3-.9a4.65,4.65,0,0,1,3.59,2.4c.26.58.5,1.35.3,1.47s-.6-.34-1.64-1a5.87,5.87,0,0,0-2.4-1.2,4,4,0,0,0-2.1.3,1.78,1.78,0,0,0-.9.6c-.33.53,0,1-.3,1.5a1.21,1.21,0,0,1-1.2.6c-.16,0-.31-.18-.9-1.5-.38-.88-.39-1-.6-1.2a2.28,2.28,0,0,0-1.47-.6,6,6,0,0,0-2.1.9C1745.05,224.44,1744.83,224.59,1744.72,224.5Z"/><path class="cls-1" d="M1703.44,198.08c-.25-.21.2-1.27.8-2a3.93,3.93,0,0,1,2.83-1.61,3.78,3.78,0,0,1,2.82,1.2c.44.49.59,1,1.2,1.21a1.82,1.82,0,0,0,1.22,0,2.67,2.67,0,0,0,1.21-1.21c1.12-1.53,4.07-1.24,4.42-1.2.16,0,3.61.44,4.83,3.22.35.79.69,1.82.41,2s-.81-.46-2.22-1.41a7.41,7.41,0,0,0-3.23-1.62,5.25,5.25,0,0,0-2.82.4,2.33,2.33,0,0,0-1.21.81c-.45.72,0,1.3-.4,2a1.6,1.6,0,0,1-1.61.8c-.23-.07-.42-.24-1.21-2-.53-1.19-.55-1.34-.81-1.62a3,3,0,0,0-2-.8,7.78,7.78,0,0,0-2.83,1.21C1703.87,198,1703.57,198.2,1703.44,198.08Z"/><path class="cls-1" d="M1672.79,224.52c-.25-.21.21-1.27.81-2a4,4,0,0,1,2.82-1.61,3.81,3.81,0,0,1,2.82,1.21c.45.49.59,1,1.22,1.21a1.77,1.77,0,0,0,1.2,0,2.63,2.63,0,0,0,1.21-1.21c1.12-1.53,4.07-1.25,4.42-1.21.17,0,3.62.45,4.84,3.23.34.79.69,1.82.4,2s-.81-.46-2.22-1.41a7.7,7.7,0,0,0-3.22-1.61,5.24,5.24,0,0,0-2.82.4,2.29,2.29,0,0,0-1.21.81c-.45.71,0,1.29-.4,2a1.62,1.62,0,0,1-1.61.81c-.23-.07-.43-.24-1.22-2-.52-1.18-.54-1.33-.8-1.61a3,3,0,0,0-2-.8,7.67,7.67,0,0,0-2.82,1.2C1673.23,224.44,1672.94,224.64,1672.79,224.52Z"/></g></svg>
