<svg id="Layer_2" data-name="Layer 2" xmlns="http://www.w3.org/2000/svg" viewBox="0 0 1920 700"><defs><style>.cls-1{fill:#cfffe6;}.cls-2{fill:#9cffcf;}</style></defs><g id="mountain-back2"><path class="cls-1" d="M-156.5,270.31a179.41,179.41,0,0,1,26.73-15.7C-105.61,243.09-97.51,246-78,235.23c17.27-9.52,13.61-13.25,33.51-24.85,18.39-10.73,23.09-8.46,42.16-19,5.59-3.09,15.66-10.71,35.57-25.82,44.71-33.94,38.55-30.93,46.91-36,11.44-7,18.93-10.14,26.54-20.14,6-8,7.45-14,11.63-14.21,6.11-.25,8.45,12.45,18.34,27.2,7.92,11.76,17.06,18.6,35.39,32.28,18.67,13.94,28.2,20.89,37.8,19.31,11.67-1.89,12.14-12.51,21.83-12,10.31.59,13.87,10.15,40.15,36.53,15.64,15.68,20.66,18.59,23.12,19.9,8.78,4.75,13.75,4.83,24.88,11.86,10.09,6.38,9.37,8.44,13.83,9.21,10.37,1.78,13.9-9.35,31.4-14.57,9.76-2.91,10.12.11,19.64-3.45,7.48-2.79,9.95-5.67,21.05-10.15,6.59-2.66,9.85-4,12.49-4,8.78-.22,12.85,6.5,26.81,18,12.31,10.15,20.5,16.88,32.34,19.53a38.81,38.81,0,0,0,5.88.78,41.88,41.88,0,0,0,8.3-.29c11.21-1.33,41.89,24.36,60.11,30.32a19.23,19.23,0,0,0,4.41,1c4.94.42,8.12-1.74,14-4.19,7.83-3.29,7.23-1.59,12-4.08,5.76-3,5.65-5.07,12.78-9.56,5-3.18,7.52-4.73,11-4.74,6.43,0,11.27,5,12.92,6.75,2.83,3,2.82,4.45,6.33,9.42a63.68,63.68,0,0,0,7.8,9.08l26.45,19.34L824,320.9s6.48,166-.84,171.42S-209.22,527.83-209.22,527.83l-131.16,11.22,39.88-234.53a123.28,123.28,0,0,1,30.77-11.65c32.6-7.53,50.09,2.82,79.38-5.42A101.29,101.29,0,0,0-156.5,270.31Z"/><path class="cls-2" d="M95.51,153.63c2.16,2.48-9.63,19.55-19.37,30.93C69,192.9,65.71,194.92,63.35,201.49c-3.75,10.46.93,15.51.21,26.15-.83,12.22-10.92,22.92-31.06,43.82C25,279.25,7.77,297.11,4.4,294.32c-1.4-1.16.23-6.58,3.51-17.43,3.45-11.44,5.62-15.59,4.38-16.59-1.74-1.42-7,6-18.42,12.72a81.53,81.53,0,0,1-22.79,8.89c-12.83,3.22-14.29.73-24.68,3.65C-69.52,290.05-76.07,298.7-78,296.74c-2.6-2.68,6.52-21.95,22.63-33.72,8.37-6.12,18.64-10.23,26.82-13.5,9.94-4,10.87-3.34,15.34-5.49C1.48,237,3.34,224.42,14.45,209.66c3.62-4.81,4.58-5,47-34.7C86.63,157.33,94.06,152,95.51,153.63Z"/><path class="cls-2" d="M220.79,203.15c4.11,3.37-2.76,17.65-12.36,37.74-1.89,4-4.86,9.82-9.27,10.13-3.45.25-4.34-3.14-8.58-4.11-4.6-1-7.71,2-18.58,8.72-9.2,5.68-13.83,8.48-15.28,7.28-2.5-2.1,1.29-13.27,7.12-22,4.21-6.28,8.8-10.43,33.86-26.2C216.81,202.69,219.24,201.89,220.79,203.15Z"/><path class="cls-2" d="M405.66,248.94c2.65,7-19,22.52-27.46,28.62C362.29,289,358,288.08,343.75,299.78c-10.18,8.36-17.68,16.8-18.71,15.83-1.4-1.32,11.83-16.92,9.31-19.89-1.46-1.71-7.5,1.48-22.72,10.66-25.93,15.67-34.08,22-35.37,20.5-1.68-2,10.38-16.78,21.2-27.91a230.09,230.09,0,0,1,33.38-28c18.66-13.07,31.22-21.67,49.51-24.6C382.85,246,403.32,242.72,405.66,248.94Z"/></g></svg>
