<svg id="Layer_2" data-name="Layer 2" xmlns="http://www.w3.org/2000/svg" viewBox="0 0 1920 700"><defs><style>.cls-1{fill:#53a6f9;}</style></defs><g id="palms-back2"><path class="cls-1" d="M75.08,312.91l1-.78-1.84-.7v-.18l1.72-.7-.06-.2-1-.09.17-.49-.09-.1-.85.55c.1-.37.19-.7.29-1.11-.28.12-.51.32-.62.26a16.28,16.28,0,0,1-1.37-1c-.57.29-.63.25-.61-.39.41.45,2,.08,2.5-.66l-1.82-.1c.07-.65.13-1.16.2-1.81l-.44.37,0-.63-.75.52-.79-.82,0-.15,1.78-.1v-.15l-.56-.29,0-.53-1,.18.51-.87a.62.62,0,0,1-.92-.51l1.49-.08,0-.15-.84-.54.64-.39-.92-.45.31-.88-.11-.09-.78.54c.14-.45.28-.86.41-1.26l-.14-.08-.73.68-.13-.48-.46.55-.48-.56c-.07.39-.13.71-.2,1.11L68.6,300l-.31.22-.15-.08c.17-.52.35-1,.54-1.64-.9.43-.9.43-1.18,0l1.77-.45,0-.18-.83-.29.1-.08c-.19-.44-.37-.88-.6-1.43.75-.11,1.32.81,2.06.36-.54-.62-1.06-1.21-1.94-1.11.61-.43,1.42-.55,1.71-1.52l-1,.33,0-.5-.12,0-.51.91-.12,0-.06-1.18c-.38.67-.78.4-1.24.12.18-.58.37-1.15.55-1.72a2.26,2.26,0,0,0-1.81,1.16c0-.8.21-1.59-.39-2.3l-.26,1.15-.38-.54-.3.95-.48-.21-.11.09c.23.51.45,1,.7,1.59L63,292.46l-.16.14a8.18,8.18,0,0,0,.44.95,9.89,9.89,0,0,0,.65.9l-1.48-.24,0,.16.31.38-.47,1.58.19.12.79-.75.49.43-.78.38c-.62.34-.78.31-.9-.41a3.1,3.1,0,0,0-1.14-2v0l-1.53-.4.28-.56-.35-.09.69-.45-.57-.61-.91.28,0-.12-.56.47-.12-.1c.33-.68,1-1.22.78-2.22l-.75.86-.18-.52h-.13l.06,1.43h-.1l-.72-1.32c-.11.35-.19.57-.3.93l-.25-.53-1.29,1.16a4.63,4.63,0,0,1,.44-.95,8.11,8.11,0,0,0,.38-1.18c0-.08-.1-.24-.2-.3a.39.39,0,0,0-.29,0l-.64.4-.78-1.07c.72-.13,1.42.39,2.07-.22l-1-.43.39-.38-.61-.51.18-.55-1-.15.78-.81a1.54,1.54,0,0,0,1.43.55l-1.35-1.4a1.83,1.83,0,0,0,1.92-.75,5.33,5.33,0,0,0-1.26,0c-.43,0-.57-.16-.46-.61a11.17,11.17,0,0,0,.2-1.18l-.17-.06-.61.9-.14-.09.69-1.33-1.06.47v-.52l-.13,0-.49,1.28c-.09-.55-.15-1-.22-1.41l-.21,0-.4,1.76-.19,0-.43-1.16q-.35.44-.57.75l-1-.42c-.13.58.72.68.39,1.31l-.89-1.15,2-.82-.9-1.1,1.49-.08,0-.15-1.13-.56.07-.2.82.31,0-.11-.63-.75c.38-.36,1,.07,1.16-.41l-.49-.83,1.24-.07.07-.17-1-.84,1.1-.53-1.21-.61.06-.14-.29.13.21-.52c-.26-.15-.58.41-.76-.1l.7-.59-.08-.18-1.1.34,0-1.31c-.68.85-1.84.86-2,2.09l-.44-.28.14.74-.53.34v-.79l-.25-.28.5,0c-.19-.23-.4-.45-.58-.69a2.09,2.09,0,0,0-1.48-1.07l.61,1.15-.64-.07.14-.47a2.14,2.14,0,0,0-1.71,1.18c-.34-.3-.21-.55,0-.82a2.37,2.37,0,0,0,.35-2,2.61,2.61,0,0,0-.85,2.24c-.33-.29-.64-.52-.39-1a3.7,3.7,0,0,0,.17-.83l-.12,0-.69.74-1.11-1.44-.47.95s.2.08.25.19c.2.43.36.88.52,1.29L41.05,274l.34-1.27-.13-.06-.73.82c-.08-.46-.15-.81-.19-1,.26-.49.5-.92.73-1.36L40.9,271l-1.13.95a5.53,5.53,0,0,1-.26-1.69,5.39,5.39,0,0,1,.79-1.45l-2.09.23a.68.68,0,0,1,.37-.75,2.36,2.36,0,0,0,1.08-1.79c-1,.16-1.42,1-2.08,1.87,0-1-.07-1.94-.92-2.53.06.54.12,1.07.17,1.61l-.66-.6c.1.46.12,1,.73.84,0,.2.09.39.14.61l-1.69-.56.49.86c-.41.23-.3,1.1-1,.88.13.58.44,1.11.18,1.72l1.31-.19c.07,0,.15,0,.26.16l-.9.52.3.25-.35,1,.78-.4c-.06.59.55,1.06.06,1.71-.16-.38-.3-.74-.39-.94l-.88-.08c.14-.67.74-1.21,0-1.93L34.1,274c-.26-.64.49-1.19-.06-1.78.2-.31.4-.62.61-.93-1-.15-1.52.56-2.14,1.33h.83l-.34.63-1.33-1.21c-.22.25-.46.48-.66.74s-.35.65-.89.46c.07-.68.14-1.38.21-2l-.86.23-.59,1.92h-.09c0-.26,0-.53.06-.67L27.72,271l-.18.1.18,1.07a2.13,2.13,0,0,0-2-.75h0c-.21-.29-.45-.56-.64-.88a1.93,1.93,0,0,0-1.57-1c-.37,0-.41-.22-.23-.52l-.31,0,.31-.84.37.58c.34-.18.57-.24.64.33s.59.72,1,.87.59.24.39.73l1.27-1.2.13-.39c.12-.53.25-1,.34-1.47l-1.84.1,0-.08,1.75-1-1-.42c.33-.27.57-.49.88-.75l-.66-.06.6-1.2c-1.09.11-1.42,1.17-2.1,1.8a2.84,2.84,0,0,0-.69-2.76,3,3,0,0,0,.48,2.72l-.14.13-.91-1.05-.26.33-.32-1.31-.37.39-.15-.42-1.24,1.61.47-1.89-.15-.07-.41.45-.58-1.06-.59.5c-.07-.49-.12-.92-.2-1.49-.58.77-1.12,1.41-2.07,1.34l.89-.84-.08-.13-.36.14c.36-.53.14-1.18.35-1.87l-.82.6c.16-.38.28-.66.42-1l-.63.09.47-1L17,259.3l0,.62c-.43.1-.76.15-.86-.48a3.59,3.59,0,0,0-.53-1.13c-.15,1-.85,1.24-1.6,1.66l.57-1.58-.19-.12-.63.84c0-.24,0-.37.05-.49s0-.29.06-.56l-.34.29-.48-.57c-.06.46-.11.86-.16,1.26h-.12l-.57-1.1c-.5,1,0,1.84.33,2.68l-.12.05-1.14-1.15-1,.25-.29.67-.17-.08c.27-.42,0-1.07.55-1.39.05,0,0-.25,0-.4l.87-.49-.06-.24-1.54.24.32.61-.28-.15-.89.74c.06-.72.92-1,.78-1.82h0v0h0a1.92,1.92,0,0,0-1.7-1.23c0,.57,0,1.15-.06,1.79l-.44-.37-.14.52-.14.13-.29-.68-.29.66-.73-.08.68,1.05-.13.17a1.44,1.44,0,0,0-1.8,0l.92,1.35-.94.05-.19-.91-.66.93c0-.37-.1-.66-.14-.95l-.1,0-.24.55-.58-.86-.18.13c0,.21.08.42.11.63s.16.53.07.64-.39.1-.63.15l.06.48a8.6,8.6,0,0,1-1,0s0-.37-.1-.49c-.18-.31-.35-.62-.53-1l-.73.92-.63-.9c0,.39,0,.61-.06.89l-.79-.29.1.6-.63-.5c.34,1.29-.08,2-1.37,2.15l.86.5-.37,1.08-1-.8-.05.64c-.13-.2-.24-.35-.34-.51l-.15,0c0,.38.08.77.11,1L-6,265l-.1.16.76.91-1.17.43,0,.2,1.14-.06-.27.86a5,5,0,0,1-1-.73,2.61,2.61,0,0,1-.24-.9,2.32,2.32,0,0,0-.89,1.35l-.51,1.7a5.93,5.93,0,0,1-.16-1.27,5.11,5.11,0,0,1,.46-1.16l-.8.33,1.28-1.61-.15-.21-1.79,1-.15-.17c.51-.74,1.14-1.44.72-2.61-.34.61-.64,1.14-1,1.73l-.07-.49h0c.25-.86.25-.86-.11-1.39l0,1.12-.89-1.59-.23.11c.06.37.13.75.17,1.13s0,.7.06,1.09l-1.9-.07-.53,1.29c0-.65-.05-1.16-.08-1.72l-.32-.1.27-.8-.18-.12-.66,1c-.11-.06,0-.66.23-1.19h-.59l.22-.82-.11-.07-.53.64.17-.69-.54-.44c0,.34,0,.66,0,1l-.93-.12-.06.18.82.46-.05.2-.92-.26,0,.89c-.46-.32-1,.68-1.39-.3l.33-.28-.21-.49.62-.42-.78-.09.45-.24-.07-.76-.6.74-.53-.79-.14.07.19.86-.43-.14.07-.62-.32.23-.61-.67-.07.83c-.78-.39-.78-.39-.81.69l-.87-.34-.09.12.6.77-.68.34.61.55-.68.15c.33.49,0,.57-.44.52l.45.69-.66,0v.68l-.83.11-.06.14.88.52-.87.6.09.19a2.51,2.51,0,0,1,.56-.2c.1,0,.22.09.33.14-.37.59.16.79.41,1.11a1.7,1.7,0,0,1,.11.23l-1.65-.22.53,1.26-1.14-.18.39.79-.09.09-.53-.59a1.42,1.42,0,0,1-.11.49.65.65,0,0,1-.34.2c-.4-.54-.58-.12-.78.19l-.14.22c-.16-.45-.3-.87-.45-1.3l-.13,0-.22.68-.45-.35c-.06.3-.12.58-.19.85l-.29-.06.16-.76-.5.07c-.07-.27-.13-.54-.24-1-.21.35-.35.59-.51.88l-.37-.82-.16,0c0,.49,0,1,.07,1.49a8.63,8.63,0,0,0-.94-.35c-.67-.15-1.17.42-1.05,1.27.06.42-.07,1,.44,1.23.05,0,.05.23,0,.31a.3.3,0,0,1-.26.1l-.72-.09-.05-.15.56-.23A1.71,1.71,0,0,0-32.9,272l.84,1.11-.68.45-.17-1.21-.52.74c-.64-.84-1.22.21-1.86.07-.08.5-.23.64-.54.49h0c.1-.16.21-.3.3-.46.18-.36.35-.73.55-1.12l-.51-.19,0-.13a3.78,3.78,0,0,0,.94.06,4.47,4.47,0,0,0,1-.46l-.81-.76,1.37-.7,0-.16-1.32-.16,1.15-.51,0-.12-.4-.06.33-.91-.18-.14-1.19,1.4c.3-1-.48-1.21-.79-1.76l-.19.05c.12.68.24,1.35.37,2.12-.81-.53-1.56-1-1.81-1.78.41-.18.78-.36,1.16-.51a1,1,0,0,1,.38-.08,1.17,1.17,0,0,0,.61-.1l-.54-.48,0-.17c.12,0,.29.05.35.14a1.58,1.58,0,0,0,1.22.68l.12-.14a11,11,0,0,0-1-.86c-.23-.18-.39-.32-.17-.61l1.33-.42a1.24,1.24,0,0,0,.6-.31l-.42-.08.52-.94a1.72,1.72,0,0,0-1.22.8c-.18.22-.39.41-.59.62l0,0-.24.33-.59-.58c.54-.38.61.1.82.24a2.16,2.16,0,0,0-.38-2.23,1.81,1.81,0,0,1-.24.61c-.12.14-.33.18-.6.31l.27-.83-.09-.1-.81.62-.12-.56c.75,0,1.12-.48,1.43-1.24-.68.08-1,.59-1.45.94l-.15-.07a2,2,0,0,1,.23-.62,1.67,1.67,0,0,0,.34-1.63,2.11,2.11,0,0,0-.62,1.95l-.22,0c0-.67.09-1.34.13-2l-.12,0-.22.38-.59-.71-.16.06c.1.44.2.88.3,1.34a9.05,9.05,0,0,0-.92.31c-.47.2-.6-.08-.68-.49a7.47,7.47,0,0,0-.32-1.18c-.27.94-1,.51-1.58.78l.2-.6h0l-.16-.17h0v0h0a1.22,1.22,0,0,1-.15-.27,1.9,1.9,0,0,0-1.5-1.51c-.07.53-.13,1.06-.21,1.59a1.43,1.43,0,0,1-.17.38,2.26,2.26,0,0,1-.31-.23,1.21,1.21,0,0,1-.19-.28l-.26.6-.63-.32v.11l-1,.05c.07.39.19.83.23,1.27s-.15.83-.68.85c-.11,0-.21.21-.36.39l-.69-.09.18.44-.67-.06a1.72,1.72,0,0,1,.26,2.07l-.62-1c0,.35,0,.53,0,.7L-48,265l-.43-.57-.39.11c0,.42,0,.82-.05,1.3l-.86-.8-.1.05c0,.3.1.6.16.94l-.67.09-.1.13.79.65-1.35.42v.22l1.33.35c-.24.65-.59.19-.92,0l0,1-.74-.4.18.57-1.46-.24a5.34,5.34,0,0,0,.3,1.14,4.74,4.74,0,0,0,.68.85,3.46,3.46,0,0,0-1-.13,4.2,4.2,0,0,0-1.07.39v.15l.87.32c0,.38.11.77.16,1.17l-1.77-.28-.08.24c.37.22.73.47,1.11.66s.77.34,1.16.51h0l.34,0,.09.13-1.08,1c.15.13.35.23.41.39a3.81,3.81,0,0,0,.17.72c.14-.33.31-.66.42-1,.17-.56.4-.65.77-.29,0-.12.09-.37.14-.37a1.34,1.34,0,0,1,.43.16l-.14.21.42-.15.08.14a5.77,5.77,0,0,1-.62.51c-.55.3-.55.28-.11.77,0,0,0,.06,0,.2l-.46-.28c-.5.74-.12,1.6,0,2.43l-.14,0c-.1-.11-.22-.21-.31-.33a2.2,2.2,0,0,0-1.82-.77.33.33,0,0,0-.27.12c-.27.61-.69,1.18-.37,1.93a1.86,1.86,0,0,1,0,.58h-.17l-.27-2.73-.15,0-.08.6-1-.88c-.08,1.08.64,1.6,1.11,2.27l-.15.15-.66-.48c-.56.67-.57-.5-1-.49,0,.14,0,.3,0,.46s0,.26,0,.28c-.56.3-.57,1.37-1.46,1.21a4.32,4.32,0,0,1-.17-1.18,3.55,3.55,0,0,1,.47-1c-.92-.32-.92-.32-2,.57a.87.87,0,0,1,.71-1,2.18,2.18,0,0,0,1.34-1.32l-.87.17,0-.68-.24.06.16-1.27-.12-.08-.82.93-.05-1.27h-.12c-.08.18-.16.36-.27.59l-.28-.54.58-.63-1-.07.59-.62v-.13c-.33,0-.65.05-1,0a3,3,0,0,1-.58-.11c.1-.18.15-.42.29-.53a2.16,2.16,0,0,0,.78-1.59l-1.24.87-.12-.51.23.09.29-1-.19-.07-.35.95-.41-1.7h-.18a9.74,9.74,0,0,1-.23,1.1,7.56,7.56,0,0,1-.43,1,3.8,3.8,0,0,1-1.2-.42c-.38-.34-.93-.64-.7-1.52-.93.88-.68,2-.89,2.91a1.94,1.94,0,0,1-.07-.33,1.53,1.53,0,0,1,0-.31l-1.9-1.37-.16.15.51,1.22-.05.05a3.89,3.89,0,0,1-.56-.59c-.19-.31-.36-.41-.64-.08l-.65-.82c-.06.93-.11,1.71-.17,2.49l-1.81-1,.12.63-.68.65,1.35,1.21-1.3.33.15.91-.62-.53,0,.57-.41,0,.38.66-.06.06-.93-.77.16.72-1.32-.06a2.43,2.43,0,0,0,1.63,1.21l0,.47-1.49,1.59c.11.09.14.14.17.14l2.22-.22-.29.79.31,1.13-.12.05-.9-1.28-.14.09.1.66-1.21-.2c-.36,1,.15,1.67.72,2.41l-2.34.85a1.78,1.78,0,0,0,.87.43,1.56,1.56,0,0,1-1.42.73c.19-.35.32-.62.54-1l-.56.34-.15-.05.28-.68-.27-.33-1.09.52.28-1.18-.09-.08-.7.57-.37-.61-.15,0-.18,1.05-1-1.12-.18.09c.1.48.2,1,.3,1.46-.64.05-.42-.5-.4-.9l-.82.38v-.9l-.39.43c-.14-.5-.29-1-.45-1.53a4.59,4.59,0,0,0-.8.79,5,5,0,0,0-.41,1.05,4.11,4.11,0,0,0-.32-1,5,5,0,0,0-.8-.87l-.11.08c0,.31.07.63.11,1l-.89.68-.55-1.85-.23,0c0,.46-.07.92-.06,1.38s.06.9.1,1.35h0v0h0l.17.33-.07.14-1.32-.6a1.7,1.7,0,0,1-.14.57c-.13.16-.35.23-.52.49a8.28,8.28,0,0,0,1,0c.55-.07.72.11.59.62.12,0,.34-.07.36,0a1.3,1.3,0,0,1,.06.49l-.23-.05.31.35-.08.14a5.9,5.9,0,0,1-.7-.38c-.49-.4-.48-.41-.68.24,0,0,0,.07-.16.1l0-.57c-.83-.17-1.37.58-2,1l-.1-.12a3.73,3.73,0,0,1,.14-.44,2.74,2.74,0,0,0-.17-2.12c0-.09-.15-.21-.22-.21-.62,0-1.28-.16-1.76.49a1.56,1.56,0,0,1-.46.29l-.09-.16L-90,283l-.09-.15-.53.19.29-1.33c-.91.41-1,1.35-1.37,2.1l-.19-.09c0-.27.07-.55.11-.85-.81-.25.15-.77,0-1.2l-.4.17c-.08,0-.2.14-.23.12-.49-.42-1.38.05-1.64-.89a3.67,3.67,0,0,1,.89-.69,3.09,3.09,0,0,1,1.05,0c-.15-1-.15-1-1.38-1.73.47-.31.81-.1,1.12.26a2,2,0,0,0,1.68.72l-.53-.77.55-.33-.16-.21,1.12-.4v-.16l-1.13-.39,1-.61,0-.12h-.61l.32-.52.78.29c-.14-.37-.25-.64-.38-1l.76.3.11-.08c-.16-.31-.33-.61-.47-.93a4,4,0,0,1-.17-.62,1.52,1.52,0,0,1,.57.06,1.8,1.8,0,0,0,1.65.05l-1.27-.82.37-.35,0,.27,1-.18,0-.22-.94.08,1.22-1.15-.08-.18a7.5,7.5,0,0,1-1,.26,6.32,6.32,0,0,1-1,0,4.24,4.24,0,0,1-.18-1.36c.11-.52.11-1.2.93-1.35-1.14-.53-1.91.19-2.79.41a1.57,1.57,0,0,1,.25-.2,1.08,1.08,0,0,1,.25-.14c.1-.83.2-1.64.29-2.46l-.19-.09-.79,1.05-.06,0a5,5,0,0,1,.24-.8c.17-.32.18-.53-.22-.66l.39-1-2.13.93c0-.69,0-1.38,0-2.21l-.46.4-.83-.37c-.15.65-.28,1.26-.41,1.85l-.84-1.13-.69.56c.06-.31.11-.54.17-.84l-.49.21-.16-.41c-.14.26-.26.46-.37.66l-.08,0c.06-.37.13-.75.22-1.25l-.52.48c-.17-.44-.34-.84-.53-1.31a2.78,2.78,0,0,0-.28,2.12l-.4.17-2-.73c0,.14,0,.19,0,.21l1.16,2.08-.77.06-.8.8-.1-.08.66-1.45-.13-.09-.5.39c-.14-.46-.25-.85-.38-1.28-1,.09-1.31.89-1.67,1.77l-1.73-1.9c-.28.93.59,2.89,1.6,3.72-.18.3-.33.4-.58,0-.42-.59-.83-1.21-1.62-1.3-.15,0-.28-.25-.48-.44-.17.27-.39.58-.58.9s-.31.3-.45,0h0l0,0,.18-1.2-.21,0a1.11,1.11,0,0,0-.07,1.07c-.09-.11-.17-.23-.25-.35-.26-.38-.5-.77-.75-1.16l-.22.07a10.47,10.47,0,0,0,.24,1.38,9.18,9.18,0,0,0,.65,1.29,3.66,3.66,0,0,0-2.52-.21,2.7,2.7,0,0,0,.37-.65,5.36,5.36,0,0,0,.15-1.22l-.13-.05-.65.69-1-.35c.35-.56.68-1.08,1-1.6l-.17-.19c-.34.26-.7.5-1,.79s-.63.6-.94.9h0l-.14.35-.14,0c-.13-.52-.25-1-.37-1.51-.18.08-.34.23-.5.22s-.38-.16-.67-.15c.21.29.4.59.63.85.39.42.36.69-.09.88.07.09.25.25.23.3a1.32,1.32,0,0,1-.32.35l-.11-.23-.06.47-.15,0a6,6,0,0,1-.15-.83c0-.66,0-.66-.59-.45,0,0-.06,0-.16-.08l.43-.32c-.39-.82-1.26-.83-2-1.12l0-.16a2.86,2.86,0,0,1,.41-.15,2.4,2.4,0,0,0,1.44-1.43.34.34,0,0,0,0-.31c-.37-.54-.66-1.21-1.42-1.23a1.64,1.64,0,0,1-.49-.22l.07-.18,2.37,1,0-.16-.46-.34,1.15-.55c-.85-.55-1.61-.08-2.37.07l0-.22.69-.42c-.3-.85.66-.33.85-.76l-.36-.24c-.08-.05-.23-.09-.23-.13,0-.69-.87-1.17-.34-2a3.57,3.57,0,0,1,1,.36,3.93,3.93,0,0,1,.63.92c.66-.76.66-.76.43-2.25.51.22.56.65.48,1.13a2.46,2.46,0,0,0,.5,1.89c.09-.37.16-.63.24-.92l.57.27.06-.26,1,.72.12-.08-.4-1.21,1.08.51,0-.11-.37-.52.58,0,.25.85.52-.95.24.85.12,0c.13-.32.24-.65.4-1a3.54,3.54,0,0,1,.35-.51,1.71,1.71,0,0,1,.3.52,2.12,2.12,0,0,0,1,1.46c-.06-.55-.1-1-.16-1.59l.48.1-.18.19.72.75.15-.16-.63-.76,1.59.36.07-.18a7.76,7.76,0,0,1-.8-.72,7.43,7.43,0,0,1-.59-.83c.34-.4.56-.83.88-1s1-.63,1.56,0c-.31-1.3-1.3-1.54-2-2.17.1,0,.21.05.31.09a2.8,2.8,0,0,1,.25.14l2-1.23,0-.23-1.24-.05v-.07a3.13,3.13,0,0,1,.73-.28c.34-.05.5-.17.35-.59l1-.27-2-1.27,1.63-1.33-.57-.16c-.07-.29-.14-.56-.24-.95-.56.28-1.08.53-1.6.77.1-.43.2-.91.32-1.41l-.82-.26.71-.36-.45-.3.2-.38-.71.07,0-.08,1-.57-.65-.15.63-1.27a2.39,2.39,0,0,0-1.72,1.05l-.37-.24c-.22-.75-.43-1.44-.65-2.15-.13.06-.18.07-.18.09-.28.75-.55,1.5-.82,2.26l-.51-.63-1.07-.2v-.14l1.46-.31v-.17l-.59-.2.71-1.09c-.66-.79-1.45-.6-2.31-.38.12-.89.23-1.75.34-2.65-.85.32-1.76,2.26-1.75,3.64-.33,0-.5-.05-.39-.48a2.78,2.78,0,0,0,0-2.19c-.08-.14,0-.4,0-.68-.3,0-.66,0-1,0s-.41-.09-.25-.4h0v0l1-.57-.11-.2c-.35.09-.69.18-.83.59,0-.15.07-.29.11-.43.13-.45.26-.9.4-1.35l-.18-.15a8.41,8.41,0,0,0-.87,1,11,11,0,0,0-.55,1.34,4.16,4.16,0,0,0-1.64-2.5v1l-1.84.11,0-.05,1.61-.79-.07-.18-.55.09c.13-.42.26-.81.38-1.19l-.1-.09a5.61,5.61,0,0,0-.62.47c-.49.49-.58.5-1.23,0,.3-.56.62-1.12.93-1.68l-.14-.16-1.61,1.17-.17.65-.08,0c0-.7,0-1.39.07-2l-.73-.55c-.15.65-.31,1.33-.47,2-.57,0-.58-.43-.69-.77s-.25-.62-.37-.94l-1.63.61c0-.27-.08-.47-.12-.72l.77.31c-.33-1-.58-1.82-1.56-2.07l.27,1.11c-.71.34-.19,1.14-.64,1.63,0-1-.08-1.95-.13-3-.92.39-.53,1.12-.62,1.8l-.84-.27-.67.73c-.25-.79.47-1,.61-1.56l.6.67V232l.36-.12-.67-.84a.32.32,0,0,1,.3-.05l1.16.69c0-.67.42-1,.73-1.54-.75-.07-.36-.84-.67-1.22l.74-.61-1.76-.13.33-.51c.51.39.71-.11,1-.51l-.82.3h0c.23-.47.45-.95.68-1.43-1,.22-1.3,1.05-1.68,2-.34-1.05-.46-2-1.34-2.55a2.5,2.5,0,0,0,.43,2.08.71.71,0,0,1,.1.85l-1.88-1a5.15,5.15,0,0,1,.27,1.66,5.24,5.24,0,0,1-.79,1.48l-.76-1.32-.2.06c.08.5.15,1,.24,1.55l-.51.9c-.15-.37-.28-.71-.42-1h-.14l-.1,1.32-1.63.24c.28-.32.58-.68.91-1,.08-.08.24-.06.29-.07l-.14-1.07-1.5.91c-.17-.4-.28-.68-.4-1l-.13,0a3.5,3.5,0,0,0-.1.84c.06.58-.31.67-.7.82a2.71,2.71,0,0,0-.08-2.42,2.42,2.42,0,0,0-.34,2.05c.08.31.12.6-.3.76a2.33,2.33,0,0,0-1.21-1.77l0,.49-.62-.18c.31-.29.59-.53.94-.84a2,2,0,0,0-1.74.43c-.13.08-.26.16-.4.23v.36l.1.05-.1,0V317.5H-51.5l.09-.2.11.2h3.49l.55-.71a.91.91,0,0,1-.2.71H65.82c.05-.09.09-.19.15-.3l.39.3H71a2,2,0,0,0-.93-1.34l.37-.69.17.59c.87.24,1.55,1,2.4.68l-.71-2.32,1.86.09c-.6-.92-.6-.92-.51-1.37l1.19,1,.12-.16a1.88,1.88,0,0,0-1.37-1.33l.23-.89A2.46,2.46,0,0,0,75.08,312.91Zm-48.65-44.4-.3,1.12-.15,0-.59-1.11Zm-16.86-11ZM-41,260.34Zm-49.39,14.58-1-.84C-90.92,274.15-90.38,274.13-90.41,274.92Zm-18.06-18.44c.24.45.58.91,0,1.36C-108.48,257.35-108.47,256.92-108.47,256.48Zm-.69-11.28c-.22.23-.41.58-.6.58s-.39-.34-.55-.57a4.48,4.48,0,0,1-.36-.73Zm-4.81-4.82c.34,0,.69,0,1,0a.77.77,0,0,1-1.16.64.42.42,0,0,1-.15-.31A.44.44,0,0,1-114,240.38Zm-2-2.27c.45.48.07.85-.11,1.25C-116.64,239.15-116.6,238.78-116,238.11Zm-10.76,75.33a2.85,2.85,0,0,0-.32-1.06l.14.09a1.57,1.57,0,0,1,.36.4l-.11.66Zm7-68.89v-.8l.67.06ZM-122.25,309h0l.18.09.23-.27.18.2-.17.44Zm2.39-1.17.06-.1.45.12a.43.43,0,0,1-.21.12Zm11.32-37.49a.77.77,0,0,1-.19.11l.17-.14Zm0-.11-.44-.06.25-.39A2.65,2.65,0,0,1-108.59,270.23Zm1.23,5.72.27-.33.09.64A2,2,0,0,1-107.36,276Zm.86-6.84c.17-.32.39-.62.59-.94a.89.89,0,0,1-.24,1.4.3.3,0,0,1-.31-.06A.47.47,0,0,1-106.5,269.11Zm-.63-1.3Zm-3.11,1.1h0v0Zm-5.83-1.67.5.27-.23-.69c.36.08.68.22.47.59a10.3,10.3,0,0,1-1.08,1.31C-116.27,268.12-116.17,267.69-116.07,267.24Zm-.76-2.91.51.24c-.09-.57-.17-1-.28-1.67a1.53,1.53,0,0,1,.51.16c.38.3.74.63,1.12,1-1.09-.11-1.44,1.24-2.43,1.55C-117.58,264.94-116.89,264.82-116.83,264.33Zm-2.89-25.06c.26-.25.53-.48.8-.71l.16.1c0,.15,0,.3-.08.45s-.07,0-.06.07a2.9,2.9,0,0,0,.06.41,4.29,4.29,0,0,1-.72,0C-119.63,239.54-119.73,239.29-119.72,239.27Zm.08,1.3c.12.47.22.91.32,1.35h.22c.08-.41.16-.8.22-1.21s.06-.42.44-.35a2.14,2.14,0,0,1-.73,2.15c.26,0,.45-.09.64-.09s.3.14.45.21l-.06.18c-.87-.23-1.43.33-2,1-.1-.53-.6-1,.2-1.39l-.62-.4.41-.77-.57-.31Zm-7-8.87c.06.19-.23.48-.42.84-.15-.48-.24-.75-.33-1.06C-127,231.13-126.69,231.4-126.61,231.7Zm-.55-1.58-.39-.05-.4-1.48C-127.13,228.69-127.12,228.72-127.16,230.12Zm-1.14,2.79.91-.23c0,.13,0,.4-.06.49-.28.29-.59.68-1,.23Zm-1,1.76-.46-.45.83-.27Zm-.16-3.35.51.67-.21.22a4.85,4.85,0,0,1-.54-.57A2.8,2.8,0,0,1-129.44,231.32Zm-.4,1.54a3.3,3.3,0,0,0,.22.3c.18.2.4.44.14.66s-.43.65-.83.18C-130,233.67-129.62,233.34-129.84,232.86Zm-1.73.53s.25,0,.38,0l-.28.7-.2-.06A4.77,4.77,0,0,1-131.57,233.39Zm-1.52-.34a4.87,4.87,0,0,1,.28.72s-.23.17-.41.3c0-.4-.06-.67-.08-.94Zm-2.85-1.47c.52.66.22,1.32.36,2l-.83-.82c.17-.26.31-.48.46-.69l-.12-.17c-.34.22-.67.44-1,.64a1.11,1.11,0,0,1-.44.12s-.13-.22-.1-.27a1,1,0,0,1,.34-.38c.09-.06.23,0,.5-.06-.25-.22-.4-.34-.54-.48l-.47-.46C-137,231-136.47,230.9-135.94,231.58Zm10.83,81.6v-.94l.21-.07.21.47-.08.78Zm4.15-3.38-.36.09.32-.75,1,.92C-120.67,310.51-120.81,310.47-121,309.8ZM-100,268.72c-.11.16-.48.14-.74.14a4.28,4.28,0,0,1-.76-.13c.54-.33,1-.57,1.44-.88C-100,268.18-99.89,268.56-100,268.72Zm9.88,18.61c-.58-.24-.25-.91-.58-1.26l.49-.3-1.4-.76c.17-.14.29-.3.44-.35.44-.15.9-.25,1.38-.38C-90.54,285.17-89.76,286.28-90.13,287.33Zm2-.15.5-.27-.64-.22c.27-.26.57-.46.71-.05a11.38,11.38,0,0,1,.31,1.72ZM-61.55,274l-1.13.58C-62.41,274.12-62.19,273.59-61.55,274Zm-17.18,25.88h0a4,4,0,0,0,.5.08,4.64,4.64,0,0,0-.48.07S-78.72,299.91-78.73,299.85Zm1.6-.45.12,0a4.3,4.3,0,0,0,.38.94,2.5,2.5,0,0,0,.52.5.61.61,0,0,1,0,.12v-.08l.22.18,0-.22s0,.08,0,.11l.66-.62.57.49-1.23.74c.73.72,1.17,0,1.77-.2,0,.3.09.56.15.94l.9.33c-.54.6-1,0-1.56.1.1-.31.17-.52.28-.88l-.89.48-.25-.3c-.15.38-.27.7-.39,1l0,0a2.89,2.89,0,0,0-.13-.69l0-1a1.48,1.48,0,0,1-1.25.05,1,1,0,0,0-.36-.5,2.87,2.87,0,0,0,1.13-.15,1.52,1.52,0,0,0-1-.76h.31Zm8.51-7.18.13-.34-.13-.13-.39.37-.15-.13,0,.28-.4.37c-.19-.22-.39-.47-.61-.7l.36-.34-.1-.2-.52.15c0-.2.1-.37.31-.55h0a2.21,2.21,0,0,1,.72.22,5,5,0,0,0-.34-.57l.23-.24a2.28,2.28,0,0,0,1.59,1.17C-68.19,291.78-68.35,292.16-68.62,292.22Zm-5.7,8.44-.11-.32a2.53,2.53,0,0,0,.42-.18l.19.19Zm4.53-10.53v-.05l.17,0,0,.12ZM-72,308.74l-.18,0-.25,0,.23-.25Zm-.48-3.19c.09-.27.19-.59.48-.44s.73.14.52.73a4.72,4.72,0,0,0-.53-.18l.06-.05Zm.93-.35-.6-.7.77,0Zm0,1.76.69,0,0,.21a2.57,2.57,0,0,1-.59.2S-71.49,307.1-71.54,307Zm.71,2.19L-71,309a4,4,0,0,1,.46-.6s.24.15.43.27Zm-3.92-12.31c-.1.11-.19.23-.28.35a2.22,2.22,0,0,1,.51-1.13l.17.16C-74.37,296.5-74.59,296.65-74.75,296.84Zm-.38,1,.37.39-.43.35C-75.17,298.36-75.15,298.12-75.13,297.88Zm.56,1.14a1,1,0,0,0,.39-.13l.05.05-.2.16Zm.7-7.26v0l-.12.11-.15-.14Zm-.93,2.69h.34v0l-.38.19v-.21Zm1.1,5.83-.07-.22a.67.67,0,0,1,.42,0Zm1,4.07-.49,0-.59-.8c.11,0,.3-.21.42-.16C-73,303.57-72.59,303.7-72.75,304.35Zm-3.31.16a.85.85,0,0,0,0,.3c0,.05-.17.15-.25.14s-.15-.1-.19-.19C-76.42,304.69-76.26,304.6-76.06,304.51Zm.91-.77a.56.56,0,0,1,.16-.48c.13-.13.5,0,.88,0l-.27.3A1,1,0,0,0-75.15,303.74Zm7-12.52-.25-.68.91.33Zm-2.79-10.64c.08.18-.11.53-.22.79a5.26,5.26,0,0,1-.44.67c0-.67-.06-1.17-.09-1.79C-71.37,280.36-71,280.39-70.91,280.58Zm-1.58,3.29c.16.31.18.5-.23.59a3.47,3.47,0,0,0-1.31.46,2.7,2.7,0,0,0-.44-.13l-.15-.48A4.27,4.27,0,0,0-72.49,283.87Zm-2.38.43-.11.15-.07-.17Zm-1.36,7.1.35.25-.19,0,0,.14.3.19a.73.73,0,0,0,0,.26c.06.34.14.67.23,1.09l-.92-.08-.16-.06.69-.33,0-.08-.53.23-.16-.08.27-.5-.81-.07ZM-78,299l-.73.89a.46.46,0,0,1-.07-.67,2.33,2.33,0,0,1,.68-.41Zm-.51-8.55a1.33,1.33,0,0,1,.18.23c-.13.19-.29.36-.44.54L-79,291Zm26-11.2,0-.6-1.24,1a2.28,2.28,0,0,1-.1-.57c.08-.51.19-1,.3-1.52.4,1.11,1.67.85,2.36,1.67C-51.66,279.66-52.07,279-52.5,279.2Zm2.06-2v-.61l-.48.53c-.09-.38-.12-.76.28-.71a8.76,8.76,0,0,1,1.56.46Zm7.18-7.23-.26-.7a1.6,1.6,0,0,1,.27-.08c.09.22.16.45.24.67Zm2.48-8.46.75,0,0,1.14-.24,0c-.06-.27-.13-.55-.22-.9l-.29-.14Zm.45,3.79a1,1,0,0,1-.57,1.22Zm-.07,3.44,0-.82h-.08l0,.62-.15.13-.29-.49-.41.76c-.13-.53-.24-1-.35-1.45l.53-.34c.16.17.24.31.35.35.37.12.75.19,1.27.32Zm2-1.16-.19-.11a4.15,4.15,0,0,1,.29-.64c0-.06.21,0,.48,0Zm.6-4.48-.13-.26.61-.39.17.32Zm1.33,10.34a3,3,0,0,1,0-.85l.21,0,.41,1.1A.39.39,0,0,1-36.43,273.41Zm15.6-4.84-.65-.7.25.36-.08.11-1-.31.66-1,.12.1c0,.25,0,.5,0,.76l.77-.31C-20.74,268-20.78,268.25-20.83,268.57Zm8-1.43L-13,267l.46-.86.54.33Zm5.91.94c.44-.44.74-.05,1.08.11C-6.16,268.14-6.56,268.58-6.89,268.08Zm46,1.46-.85,1.23-.39-.11C38.31,269.34,38.34,269.32,39.13,269.54Zm-13.52,3.57.53.58-.31-.14c-.22-.08-.45-.14-.72-.22l.06-.16Zm.27,7.24.65.2-.12.35a1.69,1.69,0,0,0-.37-.15ZM24.65,274l.33.21c0,.05,0,.1,0,.14a.66.66,0,0,1-.54.2A.64.64,0,0,1,24.65,274Zm2.11.4-.05,0-.49-.23.26-.11Zm.95,4,.13.88-.71.13a1.27,1.27,0,0,1,.16.2c-.19-.07-.39-.17-.64-.28a6.33,6.33,0,0,0,0,1,1.72,1.72,0,0,0-1.34-1.19v-.19a1.39,1.39,0,0,1,.49,0c.18.07.33.25.58.34a2.17,2.17,0,0,1,0-2.29c.37.07.36.07.29.49s-.13.81-.19,1.21l.2.09.74-1.14.9.74Zm0-1.79a6.13,6.13,0,0,1-.68-.24c.07-.12.13-.24.19-.36s0-.06,0-.09.05-.3.08-.45l.18,0c.18.32.35.64.51,1C28,276.37,27.78,276.57,27.71,276.55Zm0-4.28.12.74c-.78.22-.86.18-1.16-.47a2.12,2.12,0,0,0-.11-.21Zm-1.61.78v.12l-.16-.1Zm-1-1.81c0-.05.35.1.55.17a.91.91,0,0,1-.89.81A2.59,2.59,0,0,1,25.14,271.24Zm-1.86-1.07a3.4,3.4,0,0,1,.45.7c0,.11-.12.33-.23.46s-.22-.08-.39-.15L23,272l-.41-.29Zm-.8-4.74c0,.41,0,.69-.05,1l-.6-.28Zm-3,5.14.55.63-.32.3-.37-.79Zm-.53-7,.06,1.23-.51-.82Zm-.23,3.13c0-.07.21-.14.25-.11a.86.86,0,0,1,.25.34.31.31,0,0,1-.09.23c-.19.13-.4.23-.69.39C18.57,267.25,18.64,267,18.75,266.72Zm-1.08-1.41-1,.05-.24-.58C16.93,264.77,17.39,264.77,17.67,265.31ZM12,261.38l-1.75-.51C10.86,260.45,12,260.79,12,261.38Zm24.82,10.55c.18-.25.54-.38.78.09l-.65.86C36.92,272.47,36.75,272.08,36.86,271.93Zm.31,1.7c-.06-.13.07-.35.1-.48l.78.56,0,.54C37.5,274.49,37.34,274,37.17,273.63Zm1.23,2.12-.12-.83.7.57Zm.45-.73c-.16-.3.12-.44.36-.56l.3-.2c-.37.36-.12.82.06,1.25C39.05,275.79,39,275.26,38.85,275Zm.9-2a6.08,6.08,0,0,1-.68.33l-.13-.29.69-.44A2.71,2.71,0,0,1,39.75,273.06Zm1.08,3-.21,0,0-.76c.13,0,.36.09.36.13A5.09,5.09,0,0,1,40.83,276.09Zm1.44.61c-.12-.19-.31-.4-.28-.44a3.29,3.29,0,0,1,.5-.56l.17.16C42.55,276.1,42.43,276.34,42.27,276.7Zm4.69-.86-.66.24c.24.12.38.15.45.24a1.22,1.22,0,0,1,.19.49c0,.06-.15.22-.18.21a1.13,1.13,0,0,1-.37-.28c-.26-.32-.49-.65-.74-1l-.16.1c.06.26.13.52.2.83l-1,.44c.35-.56.29-1.29,1-1.71s1.2-.11,1.93.16ZM54.82,299l-1.15-.36.64-.29Zm-1.68-4.76a1.07,1.07,0,0,1,.36,0c.27.12.53.27.79.41-.19.28-1,.3-1.14-.05A.91.91,0,0,1,53.14,294.19ZM52,300.62,53,299.43C53.07,300,52.36,300.72,52,300.62Zm.94-3.06c0,.46,0,.85.06,1.35C52.57,298.38,52.56,297.77,52.92,297.56ZM52,296.08l1-.68c.09.43.16.85.26,1.32Zm1.6,6c.12-.45.24-.87.37-1.35l.64.45-.34.13C54.49,302,54.39,302.12,53.63,302.11Zm1.22-1.55-.7-.53,0-.16.82.05Zm1.52-.67.43-.79C57.05,299.8,57,300,56.37,299.89Zm0-7.25c.47-.26.47-.26.81.29C56.85,293.17,56.81,293.15,56.4,292.64Zm3.37,17.74-.33-.06.05-1.08h.15l-.68-.67.15-.21c.31.23.81.4.89.7A3.46,3.46,0,0,1,59.77,310.38Zm.11-10.13,0,.85-.13-.05c-.16.39-.33.77-.51,1.17l-1.57-2.17a2.52,2.52,0,0,0,2-.59l-1.07-.82.55-.3,0-.13-1.07.06.85-.89c-.21-.14-.55-.23-.62-.43a8.37,8.37,0,0,1-.24-1.46l1.72.8c.12-.75.06-.8-1.55-1.65a3.12,3.12,0,0,1,.61,0,2.13,2.13,0,0,0,2-.43l.22,1.27-.47-.07c.08.26.16.52.21.71a6,6,0,0,0-.68.36,6.61,6.61,0,0,0,.62,1.32c0,.69-.59.4-1.06.66l1.16.7a2.81,2.81,0,0,0,.31,2.32l-1.1-1.32Zm1.32,9.58a1.13,1.13,0,0,0-.15-.21l-.67-.52.14-.22a6.36,6.36,0,0,1,.7.56C61.27,309.49,61.21,309.69,61.2,309.83Zm3-12.27A1.84,1.84,0,0,1,64,297c0-.15.15-.31.23-.46l.18.06v.92Zm-.84-2.24c.48-.3.86-.27,1.15.42Zm2.28,21.47c-.36-.24,0-1-.86-.61l.19-.32.7-.08ZM67,300.05l1.11.26-.67.48ZM68.4,304c-.28.18-.63.41-.91-.14.3-.21.42-.78.88-.43A.72.72,0,0,1,68.4,304Zm.65-3.1a5,5,0,0,1,.36.69l-.19.14-.62-.7C68.81,300.91,69,300.81,69.05,300.85Zm0,6.67s-.17,0-.17,0a2.15,2.15,0,0,1-.12-.56c0-.1.07-.2.17-.42a3,3,0,0,1,.14.47A2.07,2.07,0,0,1,69,307.52Zm-.29-5,.91-.05-.36.69Zm.76,14.81-.16-.12.52-.75C70.21,317.22,69.66,317.11,69.51,317.37Zm2.29-1.8-.78-.14.42-.55.44.54Zm1.54-5.35-.46-.62.12-.14.79.14Z"/><path class="cls-1" d="M34.4,270.69a2.52,2.52,0,0,0-.87-2.69C33.39,269.52,33.63,270.24,34.4,270.69Z"/><path class="cls-1" d="M32.67,271.1h0c.71.31,1.39-.06,1.94-.09-.38-.16-.89-.36-1.38-.58a2.18,2.18,0,0,0-1.76-.05l1.2.72Z"/><path class="cls-1" d="M48.65,275.62c.06-.17.1-.34.17-.49A2.53,2.53,0,0,0,49,273a2.45,2.45,0,0,0-.46,2.67Z"/><path class="cls-1" d="M48.56,275.65v0h0Z"/><path class="cls-1" d="M48.66,275.62h0Z"/><path class="cls-1" d="M32.2,271.65l.9-.15,0-.17-.4-.23-.53.42Z"/><path class="cls-1" d="M26.17,270.79c1.2.09,1.55-.05,2.16-.89A1.74,1.74,0,0,0,26.17,270.79Z"/><path class="cls-1" d="M9.71,257.42h0l.75-1.56-.45.26-.21-.87c-.4.48-.42.69-.22,2.22l.13,0Z"/><path class="cls-1" d="M10.6,257.22a3.85,3.85,0,0,0,.48-.82,2.3,2.3,0,0,0-1.37,1C10.08,257.75,10.36,257.45,10.6,257.22Z"/><path class="cls-1" d="M27.82,268.66l-.75.43-.13.39C27.48,269.59,27.65,269.13,27.82,268.66Z"/><path class="cls-1" d="M459.08,316.91l1-.78-1.84-.7v-.18l1.72-.7-.06-.2-.95-.09.17-.49-.09-.1-.85.55c.1-.37.19-.7.29-1.11-.28.12-.51.32-.62.26a16.28,16.28,0,0,1-1.37-1c-.57.29-.63.25-.61-.39.41.45,1.95.08,2.5-.66l-1.82-.1c.07-.65.13-1.16.2-1.81l-.44.37,0-.63-.75.52-.79-.82,0-.15,1.78-.1v-.15l-.56-.29,0-.53-1,.18.51-.87a.62.62,0,0,1-.92-.51l1.49-.08,0-.15-.84-.54.64-.39-.92-.45.31-.88-.11-.09-.78.54c.14-.45.28-.86.41-1.26l-.14-.08-.73.68-.13-.48-.46.55-.48-.56c-.07.39-.13.71-.2,1.11l-.21-.41-.31.22-.15-.08c.17-.52.35-1,.54-1.64-.9.43-.9.43-1.18,0l1.77-.45,0-.18-.83-.29.1-.08c-.19-.44-.37-.88-.6-1.43.75-.11,1.32.81,2.06.36-.54-.62-1.06-1.21-1.94-1.11.61-.43,1.42-.55,1.71-1.52l-1,.33,0-.5-.12,0-.51.91-.12,0-.06-1.18c-.38.67-.78.4-1.24.12.18-.58.37-1.15.55-1.72a2.26,2.26,0,0,0-1.81,1.16c0-.8.21-1.59-.39-2.3l-.26,1.15-.38-.54-.3.95-.48-.21-.11.09c.23.51.45,1,.7,1.59L447,296.46l-.16.14a8.18,8.18,0,0,0,.44.95,9.89,9.89,0,0,0,.65.9l-1.48-.24,0,.16.31.38-.47,1.58.19.12.79-.75.49.43-.78.38c-.62.34-.78.31-.9-.41a3.1,3.1,0,0,0-1.14-2v0l-1.53-.4.28-.56-.35-.09.69-.45-.57-.61-.91.28,0-.12-.56.47-.12-.1c.33-.68,1-1.22.78-2.22l-.75.86-.18-.52h-.13l.06,1.43h-.1l-.72-1.32c-.11.35-.19.57-.3.93l-.25-.53-1.29,1.16a4.63,4.63,0,0,1,.44-.95,8.11,8.11,0,0,0,.38-1.18c0-.08-.1-.24-.2-.3a.39.39,0,0,0-.29,0l-.64.4-.78-1.07c.72-.13,1.42.39,2.07-.22l-1-.43.39-.38-.61-.51.18-.55-1-.15.78-.81a1.54,1.54,0,0,0,1.43.55l-1.35-1.4a1.83,1.83,0,0,0,1.92-.75,5.33,5.33,0,0,0-1.26,0c-.43,0-.57-.16-.46-.61a11.17,11.17,0,0,0,.2-1.18l-.17-.06-.61.9-.14-.09.69-1.33-1.06.47v-.52l-.13,0-.49,1.28c-.09-.55-.15-1-.22-1.41l-.21,0-.4,1.76-.19,0-.43-1.16q-.34.44-.57.75l-1-.42c-.13.58.72.68.39,1.31l-.89-1.15,1.95-.82-.9-1.1,1.49-.08,0-.15-1.13-.56.07-.2.82.31.05-.11-.63-.75c.38-.36,1,.07,1.16-.41l-.49-.83,1.24-.07.07-.17-1-.84,1.1-.53-1.21-.61.06-.14-.29.13.21-.52c-.26-.15-.58.41-.76-.1l.7-.59-.08-.18-1.1.34,0-1.31c-.68.85-1.84.86-2,2.09l-.44-.28.14.74-.53.34v-.79l-.25-.28.5,0c-.19-.23-.4-.45-.58-.69a2.09,2.09,0,0,0-1.48-1.07l.61,1.15-.64-.07.14-.47a2.14,2.14,0,0,0-1.71,1.18c-.34-.3-.21-.55,0-.82a2.37,2.37,0,0,0,.35-2,2.61,2.61,0,0,0-.85,2.24c-.33-.29-.64-.52-.39-1a3.7,3.7,0,0,0,.17-.83l-.12,0-.69.74-1.11-1.44-.47.95s.2.08.25.19c.2.43.36.88.52,1.29l-1.45-.86.34-1.27-.13-.06-.73.82c-.08-.46-.15-.81-.19-1,.26-.49.5-.92.73-1.36l-.17-.14-1.13.95a5.53,5.53,0,0,1-.26-1.69,5.39,5.39,0,0,1,.79-1.45l-2.09.23a.68.68,0,0,1,.37-.75,2.36,2.36,0,0,0,1.08-1.79c-1,.16-1.42,1-2.08,1.87-.05-1-.07-1.94-.92-2.53.06.54.12,1.07.17,1.61l-.66-.6c.1.46.12,1,.73.84,0,.2.09.39.14.61l-1.69-.56.49.86c-.41.23-.3,1.1-1,.88.13.58.44,1.11.18,1.72l1.31-.19c.07,0,.15,0,.26.16l-.9.52.3.25-.35,1,.78-.4c-.06.59.55,1.06.06,1.71-.16-.38-.3-.74-.39-.94l-.88-.08c.14-.67.74-1.21,0-1.93L418.1,278c-.26-.64.49-1.19-.06-1.78.2-.31.4-.62.61-.93-1-.15-1.52.56-2.14,1.33h.83l-.34.63-1.33-1.21c-.22.25-.46.48-.66.74s-.35.65-.89.46c.07-.68.14-1.38.21-2l-.86.23-.59,1.92h-.09c0-.26,0-.53.06-.67L411.72,275l-.18.1.18,1.07a2.13,2.13,0,0,0-2-.75h0c-.21-.29-.45-.56-.64-.88a1.93,1.93,0,0,0-1.57-1c-.37,0-.41-.22-.23-.52l-.31,0,.31-.84.37.58c.34-.18.57-.24.64.33s.59.72,1,.87.59.24.39.73l1.27-1.2.13-.39c.12-.53.25-1,.34-1.47l-1.84.1,0-.08,1.75-1-1-.42c.33-.27.57-.49.88-.75l-.66-.06.6-1.2c-1.09.11-1.42,1.17-2.1,1.8a2.84,2.84,0,0,0-.69-2.76,3,3,0,0,0,.48,2.72l-.14.13-.91-1.05-.26.33-.32-1.31-.37.39-.15-.42-1.24,1.61.47-1.89-.15-.07-.41.45-.58-1.06-.59.5c-.07-.49-.12-.92-.2-1.49-.58.77-1.12,1.41-2.07,1.34l.89-.84-.08-.13-.36.14c.36-.53.14-1.18.35-1.87l-.82.6c.16-.38.28-.66.42-1l-.63.09.47-1L401,263.3l0,.62c-.43.1-.76.15-.86-.48a3.59,3.59,0,0,0-.53-1.13c-.15,1-.85,1.24-1.6,1.66l.57-1.58-.19-.12-.63.84c0-.24,0-.37.05-.49s0-.29.06-.56l-.34.29-.48-.57c-.06.46-.11.86-.16,1.26h-.12l-.57-1.1c-.5,1,0,1.84.33,2.68l-.12.05-1.14-1.15-1,.25-.29.67-.17-.08c.27-.42,0-1.07.55-1.39.05,0,0-.25,0-.4l.87-.49-.06-.24-1.54.24.32.61-.28-.15-.89.74c.06-.72.92-1,.78-1.82h0v0h0a1.92,1.92,0,0,0-1.7-1.23c0,.57,0,1.15-.06,1.79l-.44-.37-.14.52-.14.13-.29-.68-.29.66-.73-.08.68,1.05-.13.17a1.44,1.44,0,0,0-1.8,0l.92,1.35-.94.05-.19-.91-.66.93c-.05-.37-.1-.66-.14-.95l-.1,0-.24.55-.58-.86-.18.13c0,.21.08.42.11.63s.16.53.07.64-.39.1-.63.15l.06.48a8.6,8.6,0,0,1-1,0s0-.37-.1-.49c-.18-.31-.35-.62-.53-1l-.73.92-.63-.9c0,.39,0,.61-.06.89l-.79-.29.1.6-.63-.5c.34,1.29-.08,2-1.37,2.15l.86.5-.37,1.08-1-.8-.05.64c-.13-.2-.24-.35-.34-.51l-.15,0c0,.38.08.77.11,1L378,269l-.1.16.76.91-1.17.43,0,.2,1.14-.06-.27.86a5,5,0,0,1-1-.73,2.61,2.61,0,0,1-.24-.9,2.32,2.32,0,0,0-.89,1.35l-.51,1.7a5.93,5.93,0,0,1-.16-1.27,5.11,5.11,0,0,1,.46-1.16l-.8.33,1.28-1.61-.15-.21-1.79,1-.15-.17c.51-.74,1.14-1.44.72-2.61-.34.61-.64,1.14-1,1.73l-.07-.49h0c.25-.86.25-.86-.11-1.39l0,1.12-.89-1.59-.23.11c.06.37.13.75.17,1.13s0,.7.06,1.09l-1.9-.07-.53,1.29c0-.65-.05-1.16-.08-1.72l-.32-.1.27-.8-.18-.12-.66,1c-.11-.06-.05-.66.23-1.19h-.59l.22-.82-.11-.07-.53.64.17-.69-.54-.44c0,.34,0,.66,0,1l-.93-.12-.06.18.82.46-.05.2-.92-.26,0,.89c-.46-.32-1,.68-1.39-.3l.33-.28-.21-.49.62-.42-.78-.09.45-.24-.07-.76-.6.74-.53-.79-.14.07.19.86-.43-.14.07-.62-.32.23-.61-.67-.07.83c-.78-.39-.78-.39-.81.69l-.87-.34-.09.12.6.77-.68.34.61.55-.68.15c.33.49,0,.57-.44.52l.45.69-.66,0v.68l-.83.11-.06.14.88.52-.87.6.09.19a2.51,2.51,0,0,1,.56-.2c.1,0,.22.09.33.14-.37.59.16.79.41,1.11a1.7,1.7,0,0,1,.11.23l-1.65-.22.53,1.26-1.14-.18.39.79-.09.09-.53-.59a1.42,1.42,0,0,1-.11.49.65.65,0,0,1-.34.2c-.4-.54-.58-.12-.78.19l-.14.22c-.16-.45-.3-.87-.45-1.3l-.13,0-.22.68-.45-.35c-.06.3-.12.58-.19.85l-.29-.06.16-.76-.5.07c-.07-.27-.13-.54-.24-1-.21.35-.35.59-.51.88l-.37-.82-.16,0c0,.49,0,1,.07,1.49a8.63,8.63,0,0,0-.94-.35c-.67-.15-1.17.42-1,1.27.06.42-.07,1,.44,1.23,0,0,0,.23,0,.31a.3.3,0,0,1-.26.1l-.72-.09-.05-.15.56-.23A1.71,1.71,0,0,0,351.1,276l.84,1.11-.68.45-.17-1.21-.52.74c-.64-.84-1.22.21-1.86.07-.08.5-.23.64-.54.49h0c.1-.16.21-.3.3-.46.18-.36.35-.73.55-1.12l-.51-.19,0-.13a3.78,3.78,0,0,0,.94.06,4.47,4.47,0,0,0,.95-.46l-.81-.76,1.37-.7,0-.16-1.32-.16,1.15-.51,0-.12-.4-.06.33-.91-.18-.14-1.19,1.4c.3-1-.48-1.21-.79-1.76l-.19.05c.12.68.24,1.35.37,2.12-.81-.53-1.56-1-1.81-1.78.41-.18.78-.36,1.16-.51a1,1,0,0,1,.38-.08,1.17,1.17,0,0,0,.61-.1l-.54-.48,0-.17c.12,0,.29.05.35.14a1.58,1.58,0,0,0,1.22.68l.12-.14a11,11,0,0,0-.95-.86c-.23-.18-.39-.32-.17-.61l1.33-.42a1.24,1.24,0,0,0,.6-.31l-.42-.08.52-.94a1.72,1.72,0,0,0-1.22.8c-.18.22-.39.41-.59.62l0,0-.24.33-.59-.58c.54-.38.61.1.82.24a2.16,2.16,0,0,0-.38-2.23,1.81,1.81,0,0,1-.24.61c-.12.14-.33.18-.6.31l.27-.83-.09-.1-.81.62-.12-.56c.75,0,1.12-.48,1.43-1.24-.68.08-1,.59-1.45.94l-.15-.07a2,2,0,0,1,.23-.62,1.67,1.67,0,0,0,.34-1.63,2.11,2.11,0,0,0-.62,1.95l-.22,0c0-.67.09-1.34.13-2l-.12,0-.22.38-.59-.71-.16.06c.1.44.2.88.3,1.34a9.05,9.05,0,0,0-.92.31c-.47.2-.6-.08-.68-.49a7.47,7.47,0,0,0-.32-1.18c-.27.94-1,.51-1.58.78l.2-.6h0l-.16-.17h0v0h0a1.22,1.22,0,0,1-.15-.27,1.9,1.9,0,0,0-1.5-1.51c-.07.53-.13,1.06-.21,1.59a1.43,1.43,0,0,1-.17.38,2.26,2.26,0,0,1-.31-.23,1.21,1.21,0,0,1-.19-.28l-.26.6-.63-.32v.11l-1,.05c.07.39.19.83.23,1.27s-.15.83-.68.85c-.11,0-.21.21-.36.39l-.69-.09.18.44-.67-.06a1.72,1.72,0,0,1,.26,2.07l-.62-1c0,.35,0,.53,0,.7L336,269l-.43-.57-.39.11c0,.42,0,.82,0,1.3l-.86-.8-.1.05c.05.3.1.6.16.94l-.67.09-.1.13.79.65-1.35.42v.22l1.33.35c-.24.65-.59.19-.92,0l-.05,1-.74-.4.18.57-1.46-.24a5.34,5.34,0,0,0,.3,1.14,4.74,4.74,0,0,0,.68.85,3.46,3.46,0,0,0-1-.13,4.2,4.2,0,0,0-1.07.39v.15l.87.32c.05.38.11.77.16,1.17l-1.77-.28-.08.24c.37.22.73.47,1.11.66s.77.34,1.16.51h0l.34,0,.09.13-1.08,1c.15.13.35.23.41.39a3.81,3.81,0,0,0,.17.72c.14-.33.31-.66.42-1,.17-.56.4-.65.77-.29,0-.12.09-.37.14-.37a1.34,1.34,0,0,1,.43.16l-.14.21.42-.15.08.14a5.77,5.77,0,0,1-.62.51c-.55.3-.55.28-.11.77,0,0,.05.06,0,.2l-.46-.28c-.5.74-.12,1.6,0,2.43l-.14,0c-.1-.11-.22-.21-.31-.33a2.2,2.2,0,0,0-1.82-.77.33.33,0,0,0-.27.12c-.27.61-.69,1.18-.37,1.93a1.86,1.86,0,0,1,0,.58h-.17l-.27-2.73-.15,0-.08.6-1-.88c-.08,1.08.64,1.6,1.11,2.27l-.15.15-.66-.48c-.56.67-.57-.5-1-.49,0,.14,0,.3,0,.46s0,.26,0,.28c-.56.3-.57,1.37-1.46,1.21a4.32,4.32,0,0,1-.17-1.18,3.55,3.55,0,0,1,.47-1c-.92-.32-.92-.32-2,.57a.87.87,0,0,1,.71-1,2.18,2.18,0,0,0,1.34-1.32l-.87.17,0-.68-.24.06.16-1.27-.12-.08-.82.93,0-1.27h-.12c-.08.18-.16.36-.27.59l-.28-.54.58-.63-1-.07.59-.62v-.13c-.33,0-.65.05-1,0a3,3,0,0,1-.58-.11c.1-.18.15-.42.29-.53a2.16,2.16,0,0,0,.78-1.59l-1.24.87-.12-.51.23.09.29-1-.19-.07-.35.95-.41-1.7h-.18a9.74,9.74,0,0,1-.23,1.1,7.56,7.56,0,0,1-.43,1,3.8,3.8,0,0,1-1.2-.42c-.38-.34-.93-.64-.7-1.52-.93.88-.68,2-.89,2.91a1.94,1.94,0,0,1-.07-.33,1.53,1.53,0,0,1,0-.31l-1.9-1.37-.16.15.51,1.22-.05.05a3.89,3.89,0,0,1-.56-.59c-.19-.31-.36-.41-.64-.08l-.65-.82c-.06.93-.11,1.71-.17,2.49l-1.81-1,.12.63-.68.65,1.35,1.21-1.3.33.15.91-.62-.53,0,.57-.41,0,.38.66-.06.06-.93-.77.16.72-1.32-.06a2.43,2.43,0,0,0,1.63,1.21l0,.47-1.49,1.59c.11.09.14.14.17.14l2.22-.22-.29.79.31,1.13-.12.05-.9-1.28-.14.09.1.66-1.21-.2c-.36,1,.15,1.67.72,2.41l-2.34.85a1.78,1.78,0,0,0,.87.43,1.56,1.56,0,0,1-1.42.73c.19-.35.32-.62.54-1l-.56.34-.15-.05.28-.68-.27-.33-1.09.52.28-1.18-.09-.08-.7.57-.37-.61-.15,0-.18,1.05-1-1.12-.18.09c.1.48.2,1,.3,1.46-.64.05-.42-.5-.4-.9l-.82.38v-.9l-.39.43c-.14-.5-.29-1-.45-1.53a4.59,4.59,0,0,0-.8.79,5,5,0,0,0-.41,1.05,4.11,4.11,0,0,0-.32-1,5,5,0,0,0-.8-.87l-.11.08c0,.31.07.63.11,1l-.89.68-.55-1.85-.23,0c0,.46-.07.92-.06,1.38s.06.9.1,1.35h0v0h0l.17.33-.07.14-1.32-.6a1.7,1.7,0,0,1-.14.57c-.13.16-.35.23-.52.49a8.28,8.28,0,0,0,1,0c.55-.07.72.11.59.62.12,0,.34-.07.36,0a1.3,1.3,0,0,1,.06.49l-.23-.05.31.35-.08.14a5.9,5.9,0,0,1-.7-.38c-.49-.4-.48-.41-.68.24,0,0,0,.07-.16.1l0-.57c-.83-.17-1.37.58-2,1l-.1-.12a3.73,3.73,0,0,1,.14-.44,2.74,2.74,0,0,0-.17-2.12c0-.09-.15-.21-.22-.21-.62,0-1.28-.16-1.76.49a1.56,1.56,0,0,1-.46.29l-.09-.16L294,287l-.09-.15-.53.19.29-1.33c-.91.41-1,1.35-1.37,2.1l-.19-.09c0-.27.07-.55.11-.85-.81-.25.15-.77-.05-1.2l-.4.17c-.08,0-.2.14-.23.12-.49-.42-1.38.05-1.64-.89a3.67,3.67,0,0,1,.89-.69,3.09,3.09,0,0,1,1.05,0c-.15-1-.15-1-1.38-1.73.47-.31.81-.1,1.12.26a2,2,0,0,0,1.68.72l-.53-.77.55-.33-.16-.21,1.12-.4v-.16l-1.13-.39,1-.61-.05-.12h-.61l.32-.52.78.29c-.14-.37-.25-.64-.38-1l.76.3.11-.08c-.16-.31-.33-.61-.47-.93a4,4,0,0,1-.17-.62,1.52,1.52,0,0,1,.57.06,1.8,1.8,0,0,0,1.65.05l-1.27-.82.37-.35,0,.27,1-.18,0-.22-.94.08,1.22-1.15-.08-.18a7.5,7.5,0,0,1-1,.26,6.32,6.32,0,0,1-1,0,4.24,4.24,0,0,1-.18-1.36c.11-.52.11-1.2.93-1.35-1.14-.53-1.91.19-2.79.41a1.57,1.57,0,0,1,.25-.2,1.08,1.08,0,0,1,.25-.14c.1-.83.2-1.64.29-2.46l-.19-.09-.79,1.05-.06,0a5,5,0,0,1,.24-.8c.17-.32.18-.53-.22-.66l.39-1-2.13.93c0-.69,0-1.38,0-2.21l-.46.4-.83-.37c-.15.65-.28,1.26-.41,1.85l-.84-1.13-.69.56c.06-.31.11-.54.17-.84l-.49.21-.16-.41c-.14.26-.26.46-.37.66l-.08,0c.06-.37.13-.75.22-1.25l-.52.48c-.17-.44-.34-.84-.53-1.31a2.78,2.78,0,0,0-.28,2.12l-.4.17-2-.73c0,.14,0,.19,0,.21l1.16,2.08-.77.06-.8.8-.1-.08.66-1.45-.13-.09-.5.39c-.14-.46-.25-.85-.38-1.28-1,.09-1.31.89-1.67,1.77l-1.73-1.9c-.28.93.59,2.89,1.6,3.72-.18.3-.33.4-.58,0-.42-.59-.83-1.21-1.62-1.3-.15,0-.28-.25-.48-.44-.17.27-.39.58-.58.9s-.31.3-.45,0h0l0,0,.18-1.2-.21,0a1.11,1.11,0,0,0-.07,1.07c-.09-.11-.17-.23-.25-.35-.26-.38-.5-.77-.75-1.16l-.22.07a10.47,10.47,0,0,0,.24,1.38,9.18,9.18,0,0,0,.65,1.29,3.66,3.66,0,0,0-2.52-.21,2.7,2.7,0,0,0,.37-.65,5.36,5.36,0,0,0,.15-1.22l-.13-.05-.65.69-1-.35c.35-.56.68-1.08,1-1.6l-.17-.19c-.34.26-.7.5-1,.79s-.63.6-.94.9h0l-.14.35-.14,0c-.13-.52-.25-1-.37-1.51-.18.08-.34.23-.5.22s-.38-.16-.67-.15c.21.29.4.59.63.85.39.42.36.69-.09.88.07.09.25.25.23.3a1.32,1.32,0,0,1-.32.35l-.11-.23-.06.47-.15,0a6,6,0,0,1-.15-.83c0-.66,0-.66-.59-.45,0,0-.06,0-.16-.08l.43-.32c-.39-.82-1.26-.83-2-1.12l0-.16a2.86,2.86,0,0,1,.41-.15,2.4,2.4,0,0,0,1.44-1.43.34.34,0,0,0,0-.31c-.37-.54-.66-1.21-1.42-1.23a1.64,1.64,0,0,1-.49-.22l.07-.18,2.37,1,.05-.16-.46-.34,1.15-.55c-.85-.55-1.61-.08-2.37.07l-.05-.22.69-.42c-.3-.85.66-.33.85-.76l-.36-.24c-.08-.05-.23-.09-.23-.13,0-.69-.87-1.17-.34-2a3.57,3.57,0,0,1,1,.36,3.93,3.93,0,0,1,.63.92c.66-.76.66-.76.43-2.25.51.22.56.65.48,1.13a2.46,2.46,0,0,0,.5,1.89c.09-.37.16-.63.24-.92l.57.27.06-.26,1,.72.12-.08-.4-1.21,1.08.51.05-.11-.37-.52.58,0,.25.85.52-.95.24.85.12,0c.13-.32.24-.65.4-1a3.54,3.54,0,0,1,.35-.51,1.71,1.71,0,0,1,.3.52,2.12,2.12,0,0,0,1,1.46c-.06-.55-.1-1-.16-1.59l.48.1-.18.19.72.75.15-.16-.63-.76,1.59.36.07-.18a7.76,7.76,0,0,1-.8-.72,7.43,7.43,0,0,1-.59-.83c.34-.4.56-.83.88-1s.95-.63,1.56,0c-.31-1.3-1.3-1.54-2-2.17.1,0,.21.05.31.09a2.8,2.8,0,0,1,.25.14l2-1.23-.05-.23-1.24-.05v-.07a3.13,3.13,0,0,1,.73-.28c.34,0,.5-.17.35-.59l1-.27-2-1.27,1.63-1.33-.57-.16c-.07-.29-.14-.56-.24-.95-.56.28-1.08.53-1.6.77.1-.43.2-.91.32-1.41l-.82-.26.71-.36-.45-.3.2-.38-.71.07,0-.08,1-.57-.65-.15.63-1.27a2.39,2.39,0,0,0-1.72,1.05l-.37-.24c-.22-.75-.43-1.44-.65-2.15-.13.06-.18.07-.18.09-.28.75-.55,1.5-.82,2.26l-.51-.63-1.07-.2v-.14l1.46-.31v-.17l-.59-.2.71-1.09c-.66-.79-1.45-.6-2.31-.38.12-.89.23-1.75.34-2.65-.85.32-1.76,2.26-1.75,3.64-.33,0-.5-.05-.39-.48a2.78,2.78,0,0,0,0-2.19c-.08-.14,0-.4,0-.68-.3,0-.66,0-1,0s-.41-.09-.25-.4h0v0l1-.57-.11-.2c-.35.09-.69.18-.83.59,0-.15.07-.29.11-.43.13-.45.26-.9.4-1.35l-.18-.15a8.41,8.41,0,0,0-.87,1,11,11,0,0,0-.55,1.34,4.16,4.16,0,0,0-1.64-2.5v1l-1.84.11,0-.05,1.61-.79-.07-.18L267,241c.13-.42.26-.81.38-1.19l-.1-.09a5.61,5.61,0,0,0-.62.47c-.49.49-.58.5-1.23,0,.3-.56.62-1.12.93-1.68l-.14-.16-1.61,1.17-.17.65-.08,0c0-.7.05-1.39.07-2l-.73-.55c-.15.65-.31,1.33-.47,2-.57,0-.58-.43-.69-.77s-.25-.62-.37-.94l-1.63.61c-.05-.27-.08-.47-.12-.72l.77.31c-.33-1-.58-1.82-1.56-2.07l.27,1.11c-.71.34-.19,1.14-.64,1.63,0-1-.08-1.95-.13-3-.92.39-.53,1.12-.62,1.8l-.84-.27L257,238c-.25-.79.47-1,.61-1.56l.6.67V236l.36-.12-.67-.84a.32.32,0,0,1,.3-.05l1.16.69c0-.67.42-1,.73-1.54-.75-.07-.36-.84-.67-1.22l.74-.61-1.76-.13c.12-.18.22-.35.33-.51.51.39.71-.11,1-.51l-.82.3h0c.23-.47.45-.95.68-1.43-1,.22-1.3,1.05-1.68,2-.34-1.05-.46-2-1.34-2.55a2.5,2.5,0,0,0,.43,2.08.71.71,0,0,1,.1.85l-1.88-1a5.15,5.15,0,0,1,.27,1.66,5.24,5.24,0,0,1-.79,1.48l-.76-1.32-.2.06c.08.5.15,1,.24,1.55l-.51.9c-.15-.37-.28-.71-.42-1h-.14l-.1,1.32-1.63.24c.28-.32.58-.68.91-1,.08-.08.24-.06.29-.07l-.14-1.07-1.5.91c-.17-.4-.28-.68-.4-1l-.13,0a3.5,3.5,0,0,0-.1.84c.06.58-.31.67-.7.82a2.71,2.71,0,0,0-.08-2.42,2.42,2.42,0,0,0-.34,2.05c.08.31.12.6-.3.76a2.33,2.33,0,0,0-1.21-1.77l0,.49-.62-.18c.31-.29.59-.53.94-.84a2,2,0,0,0-1.74.43c-.13.08-.26.16-.4.23v.36l.1.05-.1,0V321.5H332.5l.09-.2.11.2h3.49l.55-.71a.91.91,0,0,1-.2.71H449.82c.05-.09.09-.19.15-.3l.39.3H455a2,2,0,0,0-.93-1.34l.37-.69.17.59c.87.24,1.55,1,2.4.68l-.71-2.32,1.86.09c-.6-.92-.6-.92-.51-1.37l1.19,1,.12-.16a1.88,1.88,0,0,0-1.37-1.33l.23-.89A2.46,2.46,0,0,0,459.08,316.91Zm-48.65-44.4-.3,1.12-.15,0-.59-1.11Zm-16.86-11ZM343,264.34Zm-49.39,14.58-1-.84C293.08,278.15,293.62,278.13,293.59,278.92Zm-18.06-18.44c.24.45.58.91,0,1.36C275.52,261.35,275.53,260.92,275.53,260.48Zm-.69-11.28c-.22.23-.41.58-.6.58s-.39-.34-.55-.57a4.48,4.48,0,0,1-.36-.73ZM270,244.38c.34,0,.69,0,1,0a.77.77,0,0,1-1.16.64.42.42,0,0,1-.15-.31A.44.44,0,0,1,270,244.38Zm-2-2.27c.45.48.07.85-.11,1.25C267.36,243.15,267.4,242.78,268,242.11Zm-10.76,75.33a2.85,2.85,0,0,0-.32-1.06l.14.09a1.57,1.57,0,0,1,.36.4l-.11.66Zm7-68.89v-.8l.67.06ZM261.75,313h0l.18.09.23-.27.18.2-.17.44Zm2.39-1.17.06-.1.45.12a.43.43,0,0,1-.21.12Zm11.32-37.49a.77.77,0,0,1-.19.11l.17-.14Zm0-.11-.44-.06.25-.39A2.65,2.65,0,0,1,275.41,274.23Zm1.23,5.72.27-.33.09.64A2,2,0,0,1,276.64,280Zm.86-6.84c.17-.32.39-.62.59-.94a.89.89,0,0,1-.24,1.4.3.3,0,0,1-.31-.06A.47.47,0,0,1,277.5,273.11Zm-.63-1.3Zm-3.11,1.1h0v0Zm-5.83-1.67.5.27-.23-.69c.36.08.68.22.47.59a10.3,10.3,0,0,1-1.08,1.31C267.73,272.12,267.83,271.69,267.93,271.24Zm-.76-2.91.51.24c-.09-.57-.17-1-.28-1.67a1.53,1.53,0,0,1,.51.16c.38.3.74.63,1.12,1-1.09-.11-1.44,1.24-2.43,1.55C266.42,268.94,267.11,268.82,267.17,268.33Zm-2.89-25.06c.26-.25.53-.48.8-.71l.16.1c0,.15-.05.3-.08.45s-.07,0-.06.07a2.9,2.9,0,0,0,.06.41,4.29,4.29,0,0,1-.72,0C264.37,243.54,264.27,243.29,264.28,243.27Zm.08,1.3c.12.47.22.91.32,1.35h.22c.08-.41.16-.8.22-1.21s.06-.42.44-.35a2.14,2.14,0,0,1-.73,2.15c.26,0,.45-.09.64-.09s.3.14.45.21l-.06.18c-.87-.23-1.43.33-2,1-.1-.53-.6-1,.2-1.39l-.62-.4.41-.77-.57-.31Zm-7-8.87c.06.19-.23.48-.42.84-.15-.48-.24-.75-.33-1.06C257,235.13,257.31,235.4,257.39,235.7Zm-.55-1.58-.39-.05-.4-1.48C256.87,232.69,256.88,232.72,256.84,234.12Zm-1.14,2.79.91-.23c0,.13,0,.4-.06.49-.28.29-.59.68-1.05.23Zm-1,1.76-.46-.45.83-.27Zm-.16-3.35.51.67-.21.22a4.85,4.85,0,0,1-.54-.57A2.8,2.8,0,0,1,254.56,235.32Zm-.4,1.54a3.3,3.3,0,0,0,.22.3c.18.2.4.44.14.66s-.43.65-.83.18C254,237.67,254.38,237.34,254.16,236.86Zm-1.73.53s.25,0,.38,0l-.28.7-.2-.06A4.77,4.77,0,0,1,252.43,237.39Zm-1.52-.34a4.87,4.87,0,0,1,.28.72s-.23.17-.41.3c0-.4-.06-.67-.08-.94Zm-2.85-1.47c.52.66.22,1.32.36,2l-.83-.82c.17-.26.31-.48.46-.69l-.12-.17c-.34.22-.67.44-1,.64a1.11,1.11,0,0,1-.44.12s-.13-.22-.1-.27a1,1,0,0,1,.34-.38c.09-.06.23,0,.5-.06-.25-.22-.4-.34-.54-.48l-.47-.46C247,235,247.53,234.9,248.06,235.58Zm10.83,81.6v-.94l.21-.07.21.47-.08.78ZM263,313.8l-.36.09.32-.75,1,.92C263.33,314.51,263.19,314.47,263,313.8ZM284,272.72c-.11.16-.48.14-.74.14a4.28,4.28,0,0,1-.76-.13c.54-.33.95-.57,1.44-.88C284,272.18,284.11,272.56,284,272.72Zm9.88,18.61c-.58-.24-.25-.91-.58-1.26l.49-.3-1.4-.76c.17-.14.29-.3.44-.35.44-.15.9-.25,1.38-.38C293.46,289.17,294.24,290.28,293.87,291.33Zm2-.15.5-.27-.64-.22c.27-.26.57-.46.71-.05a11.38,11.38,0,0,1,.31,1.72ZM322.45,278l-1.13.58C321.59,278.12,321.81,277.59,322.45,278Zm-17.18,25.88h0a4,4,0,0,0,.5.08,4.64,4.64,0,0,0-.48.07S305.28,303.91,305.27,303.85Zm1.6-.45.12,0a4.3,4.3,0,0,0,.38.94,2.5,2.5,0,0,0,.52.5.61.61,0,0,1,.05.12v-.08l.22.18,0-.22s0,.08,0,.11l.66-.62.57.49-1.23.74c.73.72,1.17,0,1.77-.2.05.3.09.56.15.94l.9.33c-.54.6-1,0-1.56.1.1-.31.17-.52.28-.88l-.89.48-.25-.3c-.15.38-.27.7-.39,1l0,0a2.89,2.89,0,0,0-.13-.69l0-1a1.48,1.48,0,0,1-1.25.05,1,1,0,0,0-.36-.5,2.87,2.87,0,0,0,1.13-.15,1.52,1.52,0,0,0-1-.76h.31Zm8.51-7.18.13-.34-.13-.13-.39.37-.15-.13,0,.28-.4.37c-.19-.22-.39-.47-.61-.7l.36-.34-.1-.2-.52.15c0-.2.1-.37.31-.55h0a2.21,2.21,0,0,1,.72.22,5,5,0,0,0-.34-.57l.23-.24a2.28,2.28,0,0,0,1.59,1.17C315.81,295.78,315.65,296.16,315.38,296.22Zm-5.7,8.44-.11-.32a2.53,2.53,0,0,0,.42-.18l.19.19Zm4.53-10.53v-.05l.17,0,0,.12A1,1,0,0,1,314.21,294.13ZM312,312.74l-.18,0-.25,0,.23-.25Zm-.48-3.19c.09-.27.19-.59.48-.44s.73.14.52.73a4.72,4.72,0,0,0-.53-.18l.06-.05Zm.93-.35-.6-.7.77,0Zm0,1.76.69,0,.05.21a2.57,2.57,0,0,1-.59.2S312.51,311.1,312.46,311Zm.71,2.19L313,313a4,4,0,0,1,.46-.6s.24.15.43.27Zm-3.92-12.31c-.1.11-.19.23-.28.35a2.22,2.22,0,0,1,.51-1.13l.17.16C309.63,300.5,309.41,300.65,309.25,300.84Zm-.38,1,.37.39-.43.35C308.83,302.36,308.85,302.12,308.87,301.88Zm.56,1.14a1,1,0,0,0,.39-.13l.05.05-.2.16Zm.7-7.26v0l-.12.11-.15-.14Zm-.93,2.69h.34v0l-.38.19v-.21Zm1.1,5.83-.07-.22a.67.67,0,0,1,.42,0Zm.95,4.07-.49,0-.59-.8c.11,0,.3-.21.42-.16C311,307.57,311.41,307.7,311.25,308.35Zm-3.31.16a.85.85,0,0,0-.05.3c0,.05-.17.15-.25.14s-.15-.1-.19-.19C307.58,308.69,307.74,308.6,307.94,308.51Zm.91-.77a.56.56,0,0,1,.16-.48c.13-.13.5,0,.88,0l-.27.3A1,1,0,0,0,308.85,307.74Zm7-12.52-.25-.68.91.33Zm-2.79-10.64c.08.18-.11.53-.22.79a5.26,5.26,0,0,1-.44.67c0-.67-.06-1.17-.09-1.79C312.63,284.36,313,284.39,313.09,284.58Zm-1.58,3.29c.16.31.18.5-.23.59a3.47,3.47,0,0,0-1.31.46,2.7,2.7,0,0,0-.44-.13l-.15-.48A4.27,4.27,0,0,0,311.51,287.87Zm-2.38.43-.11.15-.07-.17Zm-1.36,7.1.35.25-.19,0,0,.14.3.19a.73.73,0,0,0-.05.26c.06.34.14.67.23,1.09l-.92-.08-.16-.06.69-.33,0-.08-.53.23-.16-.08.27-.5-.81-.07ZM306,303l-.73.89a.46.46,0,0,1-.07-.67,2.33,2.33,0,0,1,.68-.41Zm-.51-8.55a1.33,1.33,0,0,1,.18.23c-.13.19-.29.36-.44.54L305,295Zm26-11.2,0-.6-1.24,1a2.28,2.28,0,0,1-.1-.57c.08-.51.19-1,.3-1.52.4,1.11,1.67.85,2.36,1.67C332.34,283.66,331.93,283,331.5,283.2Zm2.06-2v-.61l-.48.53c-.09-.38-.12-.76.28-.71a8.76,8.76,0,0,1,1.56.46Zm7.18-7.23-.26-.7a1.6,1.6,0,0,1,.27-.08c.09.22.16.45.24.67Zm2.48-8.46.75,0,0,1.14-.24,0c-.06-.27-.13-.55-.22-.9l-.29-.14Zm.45,3.79a1,1,0,0,1-.57,1.22Zm-.07,3.44,0-.82h-.08l0,.62-.15.13-.29-.49-.41.76c-.13-.53-.24-1-.35-1.45l.53-.34c.16.17.24.31.35.35.37.12.75.19,1.27.32Zm2-1.16-.19-.11a4.15,4.15,0,0,1,.29-.64c0-.06.21,0,.48,0Zm.6-4.48-.13-.26.61-.39.17.32Zm1.33,10.34a3,3,0,0,1,0-.85l.21,0,.41,1.1A.39.39,0,0,1,347.57,277.41Zm15.6-4.84-.65-.7.25.36-.08.11-1-.31.66-1,.12.1c0,.25,0,.5,0,.76l.77-.31C363.26,272,363.22,272.25,363.17,272.57Zm8-1.43L371,271l.46-.86.54.33Zm5.91.94c.44-.44.74-.05,1.08.11C377.84,272.14,377.44,272.58,377.11,272.08Zm46,1.46-.85,1.23-.39-.11C422.31,273.34,422.34,273.32,423.13,273.54Zm-13.52,3.57.53.58-.31-.14c-.22-.08-.45-.14-.72-.22l.06-.16Zm.27,7.24.65.2-.12.35a1.69,1.69,0,0,0-.37-.15ZM408.65,278l.33.21c0,.05,0,.1,0,.14a.66.66,0,0,1-.54.2A.64.64,0,0,1,408.65,278Zm2.11.4-.05,0-.49-.23.26-.11Zm.95,4,.13.88-.71.13a1.27,1.27,0,0,1,.16.2c-.19-.07-.39-.17-.64-.28a6.33,6.33,0,0,0,0,1,1.72,1.72,0,0,0-1.34-1.19v-.19a1.39,1.39,0,0,1,.49,0c.18.07.33.25.58.34a2.17,2.17,0,0,1,0-2.29c.37.07.36.07.29.49s-.13.81-.19,1.21l.2.09.74-1.14.9.74Zm0-1.79a6.13,6.13,0,0,1-.68-.24c.07-.12.13-.24.19-.36s0-.06,0-.09.05-.3.08-.45l.18,0c.18.32.35.64.51,1C412,280.37,411.78,280.57,411.71,280.55Zm0-4.28.12.74c-.78.22-.86.18-1.16-.47a2.12,2.12,0,0,0-.11-.21Zm-1.61.78v.12l-.16-.1Zm-1-1.81c0-.05.35.1.55.17a.91.91,0,0,1-.89.81A2.59,2.59,0,0,1,409.14,275.24Zm-1.86-1.07a3.4,3.4,0,0,1,.45.7c0,.11-.12.33-.23.46s-.22-.08-.39-.15L407,276l-.41-.29Zm-.8-4.74c0,.41,0,.69-.05,1l-.6-.28Zm-3,5.14.55.63-.32.3-.37-.79Zm-.53-7,.06,1.23-.51-.82Zm-.23,3.13c0-.07.21-.14.25-.11a.86.86,0,0,1,.25.34.31.31,0,0,1-.09.23c-.19.13-.4.23-.69.39C402.57,271.25,402.64,271,402.75,270.72Zm-1.08-1.41-1,.05-.24-.58C400.93,268.77,401.39,268.77,401.67,269.31ZM396,265.38l-1.75-.51C394.86,264.45,396,264.79,396,265.38Zm24.82,10.55c.18-.25.54-.38.78.09l-.65.86C420.92,276.47,420.75,276.08,420.86,275.93Zm.31,1.7c-.06-.13.07-.35.1-.48l.78.56,0,.54C421.5,278.49,421.34,278,421.17,277.63Zm1.23,2.12-.12-.83.7.57Zm.45-.73c-.16-.3.12-.44.36-.56l.3-.2c-.37.36-.12.82.06,1.25C423.05,279.79,423,279.26,422.85,279Zm.9-2a6.08,6.08,0,0,1-.68.33l-.13-.29.69-.44A2.71,2.71,0,0,1,423.75,277.06Zm1.08,3-.21,0,0-.76c.13,0,.36.09.36.13A5.09,5.09,0,0,1,424.83,280.09Zm1.44.61c-.12-.19-.31-.4-.28-.44a3.29,3.29,0,0,1,.5-.56l.17.16C426.55,280.1,426.43,280.34,426.27,280.7Zm4.69-.86-.66.24c.24.12.38.15.45.24a1.22,1.22,0,0,1,.19.49c0,.06-.15.22-.18.21a1.13,1.13,0,0,1-.37-.28c-.26-.32-.49-.65-.74-1l-.16.1c.06.26.13.52.2.83l-1.05.44c.35-.56.29-1.29,1-1.71s1.2-.11,1.93.16ZM438.82,303l-1.15-.36.64-.29Zm-1.68-4.76a1.07,1.07,0,0,1,.36,0c.27.12.53.27.79.41-.19.28-1,.3-1.14-.05A.91.91,0,0,1,437.14,298.19ZM436,304.62l1-1.19C437.07,304,436.36,304.72,436,304.62Zm.94-3.06c0,.46,0,.85.06,1.35C436.57,302.38,436.56,301.77,436.92,301.56Zm-.89-1.48,1.05-.68c.09.43.16.85.26,1.32Zm1.6,6c.12-.45.24-.87.37-1.35l.64.45-.34.13C438.49,306,438.39,306.12,437.63,306.11Zm1.22-1.55-.7-.53,0-.16.82.05Zm1.52-.67.43-.79C441.05,303.8,441,304,440.37,303.89Zm0-7.25c.47-.26.47-.26.81.29C440.85,297.17,440.81,297.15,440.4,296.64Zm3.37,17.74-.33-.06.05-1.08h.15l-.68-.67.15-.21c.31.23.81.4.89.7A3.46,3.46,0,0,1,443.77,314.38Zm.11-10.13,0,.85-.13-.05c-.16.39-.33.77-.51,1.17l-1.57-2.17a2.52,2.52,0,0,0,2-.59l-1.07-.82.55-.3,0-.13-1.07.06.85-.89c-.21-.14-.55-.23-.62-.43a8.37,8.37,0,0,1-.24-1.46l1.72.8c.12-.75.06-.8-1.55-1.65a3.12,3.12,0,0,1,.61,0,2.13,2.13,0,0,0,2-.43l.22,1.27-.47-.07c.08.26.16.52.21.71a6,6,0,0,0-.68.36,6.61,6.61,0,0,0,.62,1.32c0,.69-.59.4-1.06.66l1.16.7a2.81,2.81,0,0,0,.31,2.32l-1.1-1.32Zm1.32,9.58a1.13,1.13,0,0,0-.15-.21l-.67-.52.14-.22a6.36,6.36,0,0,1,.7.56C445.27,313.49,445.21,313.69,445.2,313.83Zm3.05-12.27A1.84,1.84,0,0,1,448,301c0-.15.15-.31.23-.46l.18.06v.92Zm-.84-2.24c.48-.3.86-.27,1.15.42Zm2.28,21.47c-.36-.24,0-1-.86-.61l.19-.32.7-.08Zm1.3-16.74,1.11.26-.67.48Zm1.41,3.9c-.28.18-.63.41-.91-.14.3-.21.42-.78.88-.43A.72.72,0,0,1,452.4,308Zm.65-3.1a5,5,0,0,1,.36.69l-.19.14-.62-.7C452.81,304.91,453,304.81,453.05,304.85Zm0,6.67s-.17,0-.17,0a2.15,2.15,0,0,1-.12-.56c0-.1.07-.2.17-.42a3,3,0,0,1,.14.47A2.07,2.07,0,0,1,453,311.52Zm-.29-5,.91-.05-.36.69Zm.76,14.81-.16-.12.52-.75C454.21,321.22,453.66,321.11,453.51,321.37Zm2.29-1.8-.78-.14.42-.55.44.54Zm1.54-5.35-.46-.62.12-.14.79.14Z"/><path class="cls-1" d="M418.4,274.69a2.52,2.52,0,0,0-.87-2.69C417.39,273.52,417.63,274.24,418.4,274.69Z"/><path class="cls-1" d="M416.67,275.1h0c.71.31,1.39-.06,1.94-.09-.38-.16-.89-.36-1.38-.58a2.18,2.18,0,0,0-1.76-.05l1.2.72Z"/><path class="cls-1" d="M432.65,279.62c.06-.17.1-.34.17-.49A2.53,2.53,0,0,0,433,277a2.45,2.45,0,0,0-.46,2.67Z"/><path class="cls-1" d="M432.56,279.65v0h0Z"/><path class="cls-1" d="M432.66,279.62h0Z"/><path class="cls-1" d="M416.2,275.65l.9-.15,0-.17-.4-.23-.53.42Z"/><path class="cls-1" d="M410.17,274.79c1.2.09,1.55-.05,2.16-.89A1.74,1.74,0,0,0,410.17,274.79Z"/><path class="cls-1" d="M343.94,262.42l-.45.29-.05-1.11c-.54.42-.59.64-.6,2.56.27-.34.55-.68.81-1A1.47,1.47,0,0,0,343.94,262.42Z"/><path class="cls-1" d="M329.78,279.06a1.69,1.69,0,0,0,1.59-.86,3,3,0,0,1,.39-.41C330.82,277.63,330.24,278,329.78,279.06Z"/><path class="cls-1" d="M393.71,261.42h0l.75-1.56-.45.26-.21-.87c-.4.48-.42.69-.22,2.22l.13,0Z"/><path class="cls-1" d="M344.6,263.11c-.7.24-1.36.39-1.6,1.23A1.52,1.52,0,0,0,344.6,263.11Z"/><path class="cls-1" d="M349.48,269.74c.46.57.93.62,1.71.15C350.58,269.67,350.07,269.36,349.48,269.74Z"/><path class="cls-1" d="M394.6,261.22a3.85,3.85,0,0,0,.48-.82,2.3,2.3,0,0,0-1.37,1C394.08,261.75,394.36,261.45,394.6,261.22Z"/><path class="cls-1" d="M411.82,272.66l-.75.43-.13.39C411.48,273.59,411.65,273.13,411.82,272.66Z"/><path class="cls-1" d="M295.94,286.56a1.74,1.74,0,0,0,1.41,1.16,2.45,2.45,0,0,1,.51.2A1.68,1.68,0,0,0,295.94,286.56Z"/><path class="cls-1" d="M261.79,233.31a2.37,2.37,0,0,0-1.69,2.18C261,235.37,261.42,234.78,261.79,233.31Z"/><path class="cls-1" d="M261.27,235.7c-.53,0-1.07,0-1.48,0,.5.25,1,.85,1.78.84h0l1.36-.2A2.18,2.18,0,0,0,261.27,235.7Z"/><path class="cls-1" d="M271.35,268.49a2,2,0,0,0,0,1.93,3.41,3.41,0,0,1,.16.57A2,2,0,0,0,271.35,268.49Z"/><path class="cls-1" d="M261.05,236.75l.8.49.08-.11-.36-.59-.45.06Z"/><path class="cls-1" d="M34,316.79l.23.89A1.9,1.9,0,0,0,32.82,319l.12.16,1.19-1c.09.45.09.45-.5,1.37l1.85-.09c-.23.75-.47,1.53-.7,2.32.84.36,1.52-.44,2.39-.68l.17-.59.38.69a2,2,0,0,0-.94,1.34h4.6l.4-.3c0,.11.09.21.14.3H155.2a.91.91,0,0,1-.2-.71l.55.71H159l.11-.2.09.2h86.87V235.91l-.1,0,.1-.05v-.36c-.14-.07-.27-.15-.4-.23a2,2,0,0,0-1.73-.43l.94.84-.63.18,0-.49a2.33,2.33,0,0,0-1.21,1.77c-.42-.16-.38-.45-.3-.76a2.42,2.42,0,0,0-.34-2.05,2.68,2.68,0,0,0-.07,2.42c-.4-.15-.76-.24-.71-.82a3.5,3.5,0,0,0-.1-.84l-.13,0c-.12.27-.23.55-.4,1l-1.5-.91-.14,1.07s.21,0,.3.07c.32.33.62.69.91,1l-1.64-.24-.09-1.32h-.15l-.42,1c-.22-.39-.39-.7-.51-.9.09-.56.16-1.05.24-1.55l-.2-.06-.76,1.32a5.24,5.24,0,0,1-.79-1.48,5.44,5.44,0,0,1,.27-1.66l-1.88,1a.71.71,0,0,1,.1-.85,2.5,2.5,0,0,0,.43-2.08c-.88.53-1,1.5-1.33,2.55-.39-1-.71-1.79-1.69-2l.68,1.43h0l-.81-.3c.24.4.44.9.95.51.11.16.21.33.33.51l-1.76.13.74.61c-.31.38.08,1.15-.67,1.22.31.5.78.87.73,1.54l1.16-.69a.32.32,0,0,1,.3.05l-.67.84.36.12c0,.3,0,.61,0,1.08l.59-.67c.14.57.87.77.61,1.56l-.67-.73-.84.27c-.09-.68.3-1.41-.62-1.8,0,1.05-.09,2-.13,3-.45-.49.07-1.29-.64-1.63l.27-1.11c-1,.25-1.23,1.12-1.56,2.07l.77-.31c0,.25-.07.45-.11.72l-1.64-.61c-.12.32-.27.62-.37.94s-.12.75-.69.77c-.15-.66-.32-1.34-.47-2l-.73.55c0,.63.05,1.32.08,2l-.09,0-.17-.65-1.61-1.17-.13.16.93,1.68c-.66.51-.75.5-1.24,0a5.61,5.61,0,0,0-.62-.47l-.1.09c.12.38.25.77.38,1.19l-.55-.09-.07.18,1.61.79,0,.05-1.84-.11v-1a4.16,4.16,0,0,0-1.64,2.5,11,11,0,0,0-.55-1.34,9.3,9.3,0,0,0-.86-1l-.18.15c.13.45.27.9.39,1.35,0,.14.08.28.11.43-.14-.41-.48-.5-.83-.59l-.11.2,1,.57v0h0c.16.31.06.42-.25.4s-.71,0-1,0c0,.28.11.54,0,.68a2.82,2.82,0,0,0,0,2.19c.11.43-.06.5-.38.48,0-1.38-.91-3.32-1.76-3.64.11.9.22,1.76.34,2.65-.86-.22-1.65-.41-2.3.38.23.37.45.7.7,1.09l-.59.2v.17l1.46.31v.14l-1.08.2-.51.63-.81-2.26s-.06,0-.19-.09c-.21.71-.42,1.4-.65,2.15l-.37.24a2.39,2.39,0,0,0-1.72-1.05c.23.46.42.85.64,1.27l-.66.15,1.05.57,0,.08-.71-.07.2.38-.45.3.71.36-.81.26c.11.5.21,1,.31,1.41-.51-.24-1-.49-1.6-.77-.1.39-.16.66-.24.95l-.57.16,1.63,1.33-2,1.27,1,.27c-.15.42,0,.54.35.59a3,3,0,0,1,.73.28v.07l-1.24.05,0,.23,2,1.23a2,2,0,0,1,.26-.14,2.63,2.63,0,0,1,.3-.09c-.7.63-1.69.87-2,2.17.62-.62,1.11-.21,1.56,0s.54.58.88,1a7.43,7.43,0,0,1-.59.83,7.76,7.76,0,0,1-.8.72l.08.18,1.58-.36-.63.76.15.16.72-.75-.18-.19.48-.1c-.06.58-.1,1-.16,1.59a2.12,2.12,0,0,0,1-1.46,1.71,1.71,0,0,1,.3-.52,3.61,3.61,0,0,1,.36.51c.15.32.26.65.39,1l.12,0,.24-.85.52.95.25-.85.58,0-.37.52.06.11,1.07-.51-.4,1.21.12.08,1-.72.06.26.58-.27c.07.29.14.55.24.92a2.49,2.49,0,0,0,.49-1.89c-.08-.48,0-.91.48-1.13-.23,1.49-.23,1.49.44,2.25a3.62,3.62,0,0,1,.62-.92,3.57,3.57,0,0,1,1-.36c.53.8-.34,1.28-.34,2,0,0-.15.08-.22.13l-.37.24c.19.43,1.15-.09.85.76l.69.42-.05.22c-.76-.15-1.51-.62-2.37-.07l1.15.55-.46.34.05.16,2.38-1,.06.18a1.64,1.64,0,0,1-.49.22c-.76,0-1,.69-1.42,1.23a.34.34,0,0,0,0,.31,2.39,2.39,0,0,0,1.45,1.43,3.39,3.39,0,0,1,.41.15l0,.16c-.72.29-1.59.3-2,1.12l.43.32c-.1.1-.13.09-.16.08-.6-.21-.59-.21-.59.45a4.83,4.83,0,0,1-.15.83l-.15,0-.06-.47-.11.23a1.32,1.32,0,0,1-.32-.35s.16-.21.24-.3c-.46-.19-.49-.46-.1-.88.23-.26.42-.56.63-.85-.29,0-.47.14-.67.15s-.32-.14-.5-.22c-.12.48-.24,1-.36,1.51l-.15,0-.14-.35h0c-.31-.3-.61-.62-.93-.9s-.7-.53-1-.79l-.16.19,1,1.6-1,.35-.65-.69-.13.05a6,6,0,0,0,.15,1.22,3.08,3.08,0,0,0,.37.65,3.66,3.66,0,0,0-2.52.21,9.18,9.18,0,0,0,.65-1.29,10.47,10.47,0,0,0,.24-1.38l-.22-.07c-.25.39-.49.78-.75,1.16-.08.12-.16.24-.25.35a1.13,1.13,0,0,0-.06-1.07l-.22,0,.18,1.2,0,0h0c-.13.33-.28.31-.45,0s-.4-.63-.58-.9c-.2.19-.33.42-.48.44-.79.09-1.19.71-1.61,1.3-.26.36-.4.26-.59,0,1-.83,1.88-2.79,1.6-3.72l-1.73,1.9c-.36-.88-.7-1.68-1.67-1.77-.13.43-.24.82-.37,1.28l-.51-.39-.13.09.66,1.45-.1.08-.8-.8-.77-.06,1.16-2.08s0-.07,0-.21l-2,.73-.4-.17a2.78,2.78,0,0,0-.28-2.12l-.53,1.31-.52-.48c.09.5.16.88.23,1.25l-.08,0c-.12-.2-.24-.4-.38-.66l-.16.41-.49-.21c.06.3.11.53.17.84l-.68-.56-.85,1.13c-.13-.59-.26-1.2-.4-1.85l-.84.37-.46-.4c0,.83,0,1.52,0,2.21l-2.13-.93.39,1c-.4.13-.39.34-.22.66a4.12,4.12,0,0,1,.24.8l-.06,0-.78-1.05-.2.09c.1.82.19,1.63.29,2.46a1.12,1.12,0,0,1,.26.14,2.12,2.12,0,0,1,.24.2c-.88-.22-1.65-.94-2.79-.41.82.15.82.83.94,1.35a4.59,4.59,0,0,1-.19,1.36,6.32,6.32,0,0,1-1,0,7.5,7.5,0,0,1-1-.26l-.08.18L196,278l-.94-.08,0,.22,1,.18,0-.27.37.35-1.27.82a1.8,1.8,0,0,0,1.65-.05,1.52,1.52,0,0,1,.57-.06,3.15,3.15,0,0,1-.17.62c-.13.32-.31.62-.47.93l.11.08.77-.3-.39,1,.78-.29.32.52h-.61l0,.12,1,.61-1.13.39V283l1.12.4-.16.21.55.33-.53.77a2,2,0,0,0,1.68-.72c.31-.36.65-.57,1.12-.26-1.22.69-1.22.69-1.38,1.73a3.09,3.09,0,0,1,1.05,0,3.67,3.67,0,0,1,.89.69c-.26.94-1.14.47-1.64.89,0,0-.15-.08-.23-.12l-.4-.17c-.2.43.76.95-.05,1.2,0,.3.08.58.12.85l-.2.09c-.34-.75-.46-1.69-1.37-2.1l.29,1.33-.53-.19-.09.15,2.14,1.47-.09.16c-.15-.09-.35-.15-.45-.29-.48-.65-1.14-.49-1.77-.49-.07,0-.18.12-.21.21a2.65,2.65,0,0,0-.17,2.12,3.66,3.66,0,0,1,.13.44l-.1.12c-.64-.45-1.18-1.2-2-1l0,.57c-.13,0-.14-.07-.16-.1-.2-.65-.19-.64-.68-.24a5.21,5.21,0,0,1-.7.38l-.08-.14.31-.35-.23.05a1.53,1.53,0,0,1,.06-.49c0-.05.25,0,.36,0-.13-.51.05-.69.59-.62a8.36,8.36,0,0,0,1,0c-.17-.26-.39-.33-.51-.49s-.1-.36-.14-.57l-1.33.6-.07-.14.17-.33h0v0h0c0-.45.09-.9.1-1.35s0-.92-.05-1.38l-.24,0-.55,1.85-.89-.68c0-.35.08-.67.12-1l-.12-.08a5,5,0,0,0-.8.87,4.11,4.11,0,0,0-.32,1,4.48,4.48,0,0,0-.41-1.05,4.27,4.27,0,0,0-.8-.79c-.16.55-.3,1-.45,1.53l-.39-.43v.9l-.82-.38c0,.4.25.95-.4.9.1-.5.2-1,.31-1.46l-.19-.09-.94,1.12c-.06-.34-.13-.7-.19-1.05l-.15,0-.36.61-.71-.57-.09.08.28,1.18-1.09-.52-.26.33.27.68-.14.05-.57-.34.54,1a1.56,1.56,0,0,1-1.42-.73,1.78,1.78,0,0,0,.87-.43l-2.34-.85c.57-.74,1.08-1.42.72-2.41l-1.21.2.1-.66-.14-.09-.9,1.28-.12-.05.31-1.13-.29-.79,2.22.22s.06-.05.17-.14L181,282.77l0-.47a2.43,2.43,0,0,0,1.63-1.21l-1.32.06.16-.72-.93.77-.06-.06.38-.66-.4,0-.05-.57-.62.53.16-.91-1.31-.33L180,278l-.68-.65.13-.63-1.82,1c-.06-.78-.11-1.56-.17-2.49l-.65.82c-.28-.33-.45-.23-.64.08a3.89,3.89,0,0,1-.56.59l-.05-.05.51-1.22-.16-.15L174,276.68c0,.08,0,.2,0,.31s0,.22-.06.33c-.22-.95,0-2-.9-2.91.23.88-.32,1.18-.7,1.52a3.8,3.8,0,0,1-1.2.42,7.56,7.56,0,0,1-.43-1,9.74,9.74,0,0,1-.23-1.1h-.18l-.41,1.7-.35-.95-.19.07.29,1,.23-.09-.12.51-1.24-.87a2.16,2.16,0,0,0,.78,1.59,1.58,1.58,0,0,1,.29.53,3,3,0,0,1-.58.11c-.33,0-.65,0-1,0V278l.59.62-1,.07.58.63-.28.54c-.11-.23-.19-.41-.27-.59h-.12l-.05,1.27-.82-.93-.12.08.16,1.27-.24-.06,0,.68-.87-.17a2.18,2.18,0,0,0,1.34,1.32.87.87,0,0,1,.71,1c-1.12-.89-1.12-.89-2-.57a3.55,3.55,0,0,1,.47,1,4.32,4.32,0,0,1-.17,1.18c-.89.16-.9-.91-1.46-1.21,0,0,0-.18,0-.28s0-.32,0-.46c-.44,0-.44,1.16-1,.49l-.65.48-.16-.15c.47-.67,1.19-1.19,1.12-2.27l-1,.88-.07-.6-.16,0-.27,2.73H162a1.86,1.86,0,0,1,0-.58c.33-.75-.1-1.32-.37-1.93a.32.32,0,0,0-.27-.12,2.2,2.2,0,0,0-1.82.77c-.09.12-.21.22-.31.33l-.13,0c.07-.83.45-1.69-.05-2.43l-.46.28c0-.14,0-.17,0-.2.45-.49.44-.47-.1-.77a5,5,0,0,1-.63-.51l.09-.14.41.15-.14-.21a1.34,1.34,0,0,1,.43-.16s.1.25.15.37c.36-.36.59-.27.76.29.11.34.28.67.42,1a3.81,3.81,0,0,0,.17-.72c.06-.16.26-.26.41-.39l-1.08-1,.09-.13.34,0h0c.39-.17.78-.31,1.16-.51s.74-.44,1.11-.66l-.08-.24-1.77.28c.06-.4.11-.79.16-1.17l.87-.32V276a4.2,4.2,0,0,0-1.07-.39,3.46,3.46,0,0,0-1,.13,4.74,4.74,0,0,0,.68-.85,5.34,5.34,0,0,0,.3-1.14l-1.46.24.18-.57-.74.4,0-1c-.33.2-.68.66-.92,0l1.34-.35v-.22l-1.35-.42.79-.65-.1-.13-.67-.09c.06-.34.11-.64.16-.94l-.1-.05-.86.8c0-.48,0-.88-.05-1.3l-.39-.11c-.15.21-.29.39-.43.57l-.11-.12c0-.17,0-.35,0-.7l-.62,1a1.72,1.72,0,0,1,.26-2.07l-.67.06.18-.44-.69.09c-.15-.18-.25-.39-.36-.39-.53,0-.72-.35-.68-.85s.16-.88.23-1.27l-1-.05v-.11l-.63.32-.25-.6a1.59,1.59,0,0,1-.2.28,2.26,2.26,0,0,1-.31.23,1.43,1.43,0,0,1-.17-.38c-.08-.53-.14-1.06-.21-1.59a1.9,1.9,0,0,0-1.5,1.51,1.22,1.22,0,0,1-.15.27h0v0h0l-.16.17h0l.2.6c-.61-.27-1.31.16-1.58-.78a7.47,7.47,0,0,0-.32,1.18c-.08.41-.21.69-.68.49a9.05,9.05,0,0,0-.92-.31c.1-.46.2-.9.3-1.34l-.16-.06-.59.71-.21-.38-.13,0c0,.66.09,1.33.13,2l-.22,0a2.09,2.09,0,0,0-.62-1.95,1.65,1.65,0,0,0,.35,1.63,2.27,2.27,0,0,1,.22.62l-.14.07c-.43-.35-.78-.86-1.46-.94.31.76.69,1.24,1.43,1.24l-.12.56-.81-.62-.09.1.27.83c-.26-.13-.48-.17-.6-.31a1.81,1.81,0,0,1-.23-.61,2.14,2.14,0,0,0-.39,2.23c.22-.14.28-.62.82-.24l-.59.58-.23-.33v0c-.2-.21-.41-.4-.59-.62a1.72,1.72,0,0,0-1.22-.8l.52.94-.42.08a1.28,1.28,0,0,0,.6.31l1.33.42c.23.29.06.43-.17.61a12.71,12.71,0,0,0-.95.86l.12.14a1.58,1.58,0,0,0,1.22-.68c.06-.09.23-.1.35-.14l0,.17-.54.48a1.17,1.17,0,0,0,.61.1,1,1,0,0,1,.38.08c.38.15.75.33,1.16.51-.25.82-1,1.25-1.81,1.78.13-.77.25-1.44.37-2.12l-.19-.05c-.31.55-1.09.8-.78,1.76l-1.2-1.4-.17.14.32.91-.4.06,0,.12,1.15.51-1.32.16,0,.16,1.37.7-.81.76a4.47,4.47,0,0,0,1,.46,3.75,3.75,0,0,0,.94-.06l0,.13-.5.19c.19.39.36.76.55,1.12.08.16.19.3.29.46h0c-.31.15-.46,0-.54-.49-.64.14-1.21-.91-1.86-.07l-.52-.74-.16,1.21-.69-.45.84-1.11a1.72,1.72,0,0,0-1.85,1.24l.57.23-.06.15-.72.09a.3.3,0,0,1-.26-.1c0-.08,0-.29,0-.31.51-.26.38-.81.44-1.23.12-.85-.38-1.42-1.05-1.27a8.52,8.52,0,0,0-.93.35c0-.51,0-1,.06-1.49l-.16,0-.37.82c-.16-.29-.3-.53-.51-.88-.1.43-.17.7-.24,1l-.5-.07.17.76-.3.06c-.07-.27-.12-.55-.18-.85l-.46.35-.22-.68-.13,0c-.15.43-.29.85-.44,1.3l-.14-.22c-.21-.31-.39-.73-.79-.19a.69.69,0,0,1-.34-.2,1.42,1.42,0,0,1-.11-.49l-.53.59-.09-.09.39-.79-1.14.18.54-1.26-1.66.22c.07-.13.08-.19.11-.23.25-.32.78-.52.41-1.11.11,0,.23-.16.33-.14a2.51,2.51,0,0,1,.56.2l.09-.19c-.3-.22-.61-.43-.87-.6l.88-.52-.06-.14-.83-.11v-.68l-.66,0,.45-.69c-.48.05-.77,0-.44-.52l-.68-.15.61-.55-.68-.34.6-.77-.09-.12-.87.34c0-1.08,0-1.08-.81-.69l-.06-.83-.62.67-.32-.23.07.62-.43.14.19-.86-.14-.07-.53.79-.59-.74-.08.76.45.24-.78.09.62.42-.21.49.33.28c-.35,1-.93,0-1.39.3l0-.89-.92.26,0-.2.82-.46-.06-.18-.93.12c0-.34,0-.66,0-1l-.55.44.18.69-.54-.64-.11.07.22.82h-.59c.28.53.34,1.13.23,1.19l-.66-1-.17.12c.08.27.17.54.26.8l-.32.1c0,.56,0,1.07-.08,1.72-.23-.58-.42-1-.52-1.29l-1.9.07c0-.39,0-.74,0-1.09s.11-.76.17-1.13l-.23-.11-.89,1.59,0-1.12c-.36.53-.36.53-.11,1.39h0l-.07.49-1-1.73c-.42,1.17.21,1.87.73,2.61l-.16.17-1.79-1-.15.21,1.28,1.61-.8-.33a5.11,5.11,0,0,1,.46,1.16,5.93,5.93,0,0,1-.16,1.27l-.51-1.7a2.32,2.32,0,0,0-.89-1.35,2.61,2.61,0,0,1-.24.9,5.28,5.28,0,0,1-.95.73l-.28-.86,1.14.06,0-.2-1.16-.43.75-.91-.1-.16-1.41,0c0-.27.07-.66.11-1l-.15,0-.34.51,0-.64-1,.8-.37-1.08.87-.5c-1.3-.16-1.72-.86-1.38-2.15l-.62.5.09-.6-.79.29c0-.28,0-.5-.06-.89l-.63.9-.73-.92c-.18.34-.35.65-.53,1-.08.12-.08.49-.1.49a8.6,8.6,0,0,1-1,0l.06-.48c-.24-.05-.52,0-.63-.15s0-.42.07-.64.07-.42.11-.63l-.18-.13-.58.86-.24-.55-.1,0c0,.29-.08.58-.14.95l-.66-.93-.19.91-.94-.05.92-1.35a1.44,1.44,0,0,0-1.8,0l-.13-.17c.21-.33.43-.65.68-1.05l-.73.08-.29-.66-.29.68-.14-.13-.13-.52-.45.37c0-.64,0-1.22-.06-1.79a1.89,1.89,0,0,0-1.69,1.23h0v0h0c-.14.79.72,1.1.78,1.82l-.89-.74-.28.15.32-.61-1.54-.24-.06.24.87.49c0,.15,0,.37,0,.4.55.32.28,1,.55,1.39l-.16.08-.3-.67-1-.25-1.15,1.15-.12-.05c.31-.84.83-1.66.33-2.68l-.57,1.1h-.12c0-.4-.1-.8-.16-1.26l-.48.57-.34-.29c0,.27,0,.41.06.56s0,.25,0,.49l-.63-.84-.19.12.57,1.58c-.75-.42-1.45-.66-1.6-1.66a3.59,3.59,0,0,0-.53,1.13c-.1.63-.43.58-.85.48l0-.62-1.11.15.47,1-.63-.09c.14.31.26.59.42,1l-.82-.6c.21.69,0,1.34.36,1.87l-.36-.14-.08.13.88.84c-1,.07-1.49-.57-2.07-1.34-.08.57-.13,1-.19,1.49l-.6-.5-.58,1.06-.41-.45-.15.07.47,1.89-1.24-1.61-.14.42-.38-.39-.32,1.31-.26-.33-.91,1.05L83,271a2.92,2.92,0,0,0,.48-2.72,2.86,2.86,0,0,0-.69,2.76c-.68-.63-1-1.69-2.1-1.8l.6,1.2-.66.06.88.75-1,.42,1.75,1,0,.08-1.85-.1c.1.42.22.94.34,1.47l.13.39,1.27,1.2c-.2-.49.06-.61.39-.73s1-.29,1-.87.3-.51.64-.33l.38-.58.3.84-.31,0c.18.3.15.48-.23.52a1.93,1.93,0,0,0-1.57,1,9.43,9.43,0,0,1-.64.88h0a2.13,2.13,0,0,0-2,.75l.18-1.07L80,276l-1.13,1.72c0,.14,0,.41.06.67h-.09l-.59-1.92-.85-.23c.06.67.13,1.37.2,2-.54.19-.68-.18-.89-.46s-.44-.49-.66-.74l-1.32,1.21-.35-.63h.83c-.62-.77-1.15-1.48-2.14-1.33.21.31.41.62.61.93-.55.59.2,1.14-.06,1.78l-1.1-2.77c-.73.72-.13,1.26,0,1.93l-.88.08c-.09.2-.23.56-.39.94-.49-.65.12-1.12.07-1.71l.77.4-.35-1,.3-.25-.9-.52c.11-.14.19-.17.26-.16l1.31.19c-.26-.61.05-1.14.18-1.72-.72.22-.61-.65-1-.88l.49-.86-1.68.56c.05-.22.09-.41.13-.61.61.17.63-.38.73-.84l-.66.6c0-.54.11-1.07.17-1.61-.85.59-.87,1.49-.92,2.53-.66-.85-1.09-1.71-2.08-1.87a2.36,2.36,0,0,0,1.08,1.79.68.68,0,0,1,.37.75l-2.09-.23a5.18,5.18,0,0,1,.8,1.45A5.57,5.57,0,0,1,68,276.9L66.84,276l-.17.14c.23.44.47.87.73,1.36,0,.23-.11.58-.19,1l-.73-.82-.13.06.34,1.27-1.45.86c.16-.41.32-.86.52-1.29,0-.11.21-.16.26-.19l-.48-.95-1.11,1.44-.68-.74-.13,0a3.7,3.7,0,0,0,.17.83c.25.52-.06.75-.39,1a2.58,2.58,0,0,0-.85-2.24,2.37,2.37,0,0,0,.35,2c.17.27.3.52,0,.82a2.17,2.17,0,0,0-1.72-1.18c.05.17.09.3.15.47l-.65.07.61-1.15a2.09,2.09,0,0,0-1.48,1.07c-.18.24-.39.46-.58.69l.5,0-.24.28v.79l-.53-.34.15-.74-.45.28c-.18-1.23-1.35-1.24-2-2.09l0,1.31-1.1-.34-.08.18.7.59c-.18.51-.5-.05-.75.1l.2.52-.29-.13.06.14-1.2.61,1.09.53-1,.84.07.17,1.24.07-.49.83c.2.48.78.05,1.16.41l-.63.75,0,.11.82-.31.08.2-1.14.56,0,.15,1.49.08-.9,1.1,1.95.82c-.23.29-.53.69-.88,1.15-.33-.63.52-.73.38-1.31l-1,.42q-.23-.31-.57-.75l-.43,1.16-.19,0-.4-1.76-.21,0c-.07.43-.13.86-.22,1.41L54,287.2l-.13,0v.52l-1.06-.47.69,1.33-.14.09-.61-.9-.17.06a11.17,11.17,0,0,0,.2,1.18c.11.45,0,.64-.46.61a5.33,5.33,0,0,0-1.26,0,1.83,1.83,0,0,0,1.92.75l-1.35,1.4a1.54,1.54,0,0,0,1.43-.55l.78.81-1,.15.19.55-.62.51.39.38-1,.43c.65.61,1.36.09,2.07.22l-.78,1.07-.64-.4a.39.39,0,0,0-.29,0c-.1.06-.22.22-.2.3a8.11,8.11,0,0,0,.38,1.18,4.63,4.63,0,0,1,.44.95l-1.29-1.16-.25.53c-.11-.36-.18-.58-.3-.93l-.72,1.32h-.1l.06-1.43h-.13l-.18.52-.75-.86c-.22,1,.45,1.54.78,2.22l-.12.1-.56-.47v.12l-.92-.28-.57.61.69.45-.34.09.27.56-1.53.4v0a3.1,3.1,0,0,0-1.14,2c-.12.72-.28.75-.9.41l-.78-.38.49-.43.79.75.19-.12-.47-1.58.31-.38,0-.16-1.48.24a9.89,9.89,0,0,0,.65-.9,8.18,8.18,0,0,0,.44-.95l-.16-.14-1.26,1.16c.25-.57.47-1.08.7-1.59l-.11-.09-.48.21-.3-.95-.38.54-.26-1.15c-.6.71-.35,1.5-.39,2.3a2.26,2.26,0,0,0-1.81-1.16c.18.57.37,1.14.56,1.72-.47.28-.86.55-1.25-.12l-.06,1.18-.12,0-.51-.91-.12,0,0,.5-1-.33c.3,1,1.1,1.09,1.71,1.52-.88-.1-1.4.49-1.94,1.11.75.45,1.31-.47,2.07-.36-.24.55-.42,1-.61,1.43l.11.08-.84.29,0,.18,1.78.45c-.29.38-.29.38-1.19,0l.54,1.64-.15.08-.31-.22-.21.41c-.07-.4-.13-.72-.2-1.11l-.48.56-.46-.55-.13.48-.73-.68-.14.08c.14.4.27.81.41,1.26l-.78-.54-.11.09.32.88-.93.45.65.39-.84.54,0,.15,1.49.08a.62.62,0,0,1-.92.51l.51.87-1-.18,0,.53-.56.29v.15l1.78.1,0,.15-.79.82-.75-.52,0,.63-.44-.37c.07.65.13,1.16.2,1.81l-1.82.1c.55.74,2.09,1.11,2.51.66,0,.64-.05.68-.62.39a16.28,16.28,0,0,1-1.37,1c-.1.06-.34-.14-.62-.26.1.41.19.74.29,1.11l-.85-.55-.09.1.17.49-.95.09-.06.2,1.72.7v.18l-1.84.7,1,.78A2.42,2.42,0,0,0,34,316.79Zm48.39-43.23c-.22.42-.4.77-.59,1.11l-.15,0-.3-1.12Zm15.82-11.09Zm50.59,2.87Zm50.37,13.74-1,.84C198.12,279.13,198.66,279.15,199.13,279.08Zm17.1-16.24c-.6-.45-.26-.91,0-1.36C216.21,261.92,216.22,262.35,216.23,262.84Zm2.18-13.36a4.48,4.48,0,0,1-.36.73c-.16.23-.36.56-.55.57s-.38-.35-.6-.58Zm3.57-3.82a.39.39,0,0,1-.15.31.77.77,0,0,1-1.16-.64c.35,0,.7,0,1,0A.44.44,0,0,1,222,245.66Zm1.87-1.3c-.17-.4-.56-.77-.11-1.25C224.35,243.78,224.38,244.15,223.85,244.36Zm10.58,74.17-.11-.66a1.78,1.78,0,0,1,.36-.4l.14-.09a2.85,2.85,0,0,0-.32,1.06Zm-7.6-69.72.67-.06v.8Zm2.72,65.64-.17-.44.18-.2.23.27L230,314h0ZM227.3,313a.48.48,0,0,1-.21-.12l.46-.12.06.1Zm-11-37.66.17.14a.77.77,0,0,1-.19-.11Zm.22-.53.25.39-.44.06A3.81,3.81,0,0,1,216.52,274.78Zm-1.78,6.48.09-.64.27.33A1.74,1.74,0,0,1,214.74,281.26Zm-.54-6.75a.3.3,0,0,1-.31.06.89.89,0,0,1-.24-1.4c.2.32.42.62.6.94A.48.48,0,0,1,214.2,274.51Zm.67-1.7ZM218,273.9v0h0Zm6.16-.18a11.23,11.23,0,0,1-1.08-1.31c-.21-.37.11-.51.47-.59l-.22.69.49-.27C223.92,272.69,224,273.12,224.15,273.72Zm1-3.14c-1-.31-1.33-1.66-2.43-1.55.38-.34.74-.67,1.12-1a1.53,1.53,0,0,1,.51-.16c-.11.64-.18,1.1-.28,1.67l.51-.24C224.63,269.82,225.32,269.94,225.14,270.58Zm2.16-26a4.23,4.23,0,0,1-.71,0l.06-.41s-.06,0-.07-.07-.05-.3-.07-.45l.15-.1c.27.23.54.46.8.71C227.48,244.29,227.37,244.54,227.3,244.55Zm1.15,1.36-.57.31.41.77c-.2.14-.37.24-.62.4.8.37.3.86.2,1.39-.56-.64-1.12-1.2-2-1l-.06-.18c.15-.07.3-.21.45-.21s.38.1.64.09a2.11,2.11,0,0,1-.72-2.15c.37-.07.36-.07.43.35s.15.8.22,1.21h.22c.1-.44.2-.88.32-1.35Zm6.66-9.43c-.1.31-.19.58-.34,1.06-.19-.36-.48-.65-.42-.84A.43.43,0,0,1,235.11,236.48Zm.58-2.89-.4,1.48-.39.05C234.86,233.72,234.87,233.69,235.69,233.59Zm.55,4.81c-.46.45-.77.06-1.05-.23-.1-.09-.05-.36-.06-.49l.91.23Zm.41.55.84.27-.46.45Zm.77-2.31a5.76,5.76,0,0,1-.53.57l-.22-.22.51-.67A2.8,2.8,0,0,1,237.42,236.64Zm.63,2.36c-.4.47-.63,0-.83-.18s0-.46.14-.66a3.3,3.3,0,0,0,.22-.3C237.36,238.34,237.74,238.67,238.05,239Zm1.36.05-.2.06-.28-.7c.13,0,.37,0,.38,0A4.77,4.77,0,0,1,239.41,239.05Zm1.64-.92c0,.27-.05.54-.09.94-.18-.13-.42-.25-.41-.3a4,4,0,0,1,.29-.72Zm4.48-2.14-.47.46c-.14.14-.29.26-.54.48.27,0,.41,0,.5.06a1,1,0,0,1,.34.38s-.07.27-.1.27a1,1,0,0,1-.43-.12c-.35-.2-.68-.42-1-.64l-.13.17c.15.21.29.43.47.69l-.84.82c.14-.66-.16-1.32.36-2S244.77,236,245.53,236Zm-13,82.43-.08-.78.21-.47.21.07v.94Zm-4.74-3.36,1-.92.32.75-.35-.09C228.55,315.47,228.41,315.51,227.77,315.06Zm-20-42.21,1.44.88a4.28,4.28,0,0,1-.76.13c-.26,0-.63,0-.74-.14S207.77,273.18,207.81,272.85Zm-10.27,16.43c.48.13.94.23,1.39.38a2,2,0,0,1,.43.35l-1.4.76.49.3c-.33.35,0,1-.58,1.26C197.51,291.28,198.28,290.17,197.54,289.28ZM195,293.36a11.38,11.38,0,0,1,.31-1.72c.14-.41.44-.21.71.05l-.64.22.5.27Zm-24.56-13.81-1.13-.58C169.93,278.59,170.15,279.12,170.42,279.55Zm16,25.45c-.17,0-.33-.06-.47-.07a4.17,4.17,0,0,0,.49-.08h0A.61.61,0,0,1,186.45,305Zm-1.65,0h.31a1.52,1.52,0,0,0-1,.76,2.87,2.87,0,0,0,1.13.15,1,1,0,0,0-.36.5,1.48,1.48,0,0,1-1.25-.05l0,1a3.48,3.48,0,0,0-.13.69l0,0-.4-1-.25.3-.89-.48c.12.36.18.57.28.88-.53-.12-1,.5-1.56-.1l.9-.33c.06-.38.11-.64.16-.94.59.22,1,.92,1.76.2l-1.23-.74.57-.49.66.62a.36.36,0,0,0,0-.11l.05.22.22-.18v.08a.61.61,0,0,1,0-.12,2.86,2.86,0,0,0,.53-.5,4.84,4.84,0,0,0,.37-.94l.12,0Zm-9.12-8.4a2.28,2.28,0,0,0,1.58-1.17l.23.24a5,5,0,0,0-.34.57,2.21,2.21,0,0,1,.72-.22h0c.2.18.34.35.3.55l-.52-.15-.1.2.36.34c-.22.23-.42.48-.61.7l-.4-.37,0-.28-.15.13-.39-.37-.13.13.13.34C176.1,297.16,175.93,296.78,175.68,296.57Zm5.88,8.78.19-.19a2.53,2.53,0,0,0,.42.18l-.11.32Zm-4.23-10.17,0-.12.17,0a.09.09,0,0,0,0,.05Zm2.58,18.23.23.25-.24,0-.19,0Zm-.25-2.8.06.05a4.72,4.72,0,0,0-.53.18c-.21-.59.29-.61.52-.73s.39.17.48.44Zm-.57-1.07.77,0c-.22.25-.37.43-.59.7C179.19,309.93,179.15,309.77,179.09,309.54Zm0,2.8a2.74,2.74,0,0,1-.59-.2l.05-.21.69,0C179.23,312.1,179.16,312.35,179.13,312.34Zm-1.29,1.31c.19-.12.39-.3.43-.27a4,4,0,0,1,.46.6l-.16.17Zm4.25-12.43.17-.16a2.23,2.23,0,0,1,.52,1.13c-.1-.12-.19-.24-.29-.35S182.12,301.5,182.09,301.22Zm.84,2.4-.43-.35.37-.39C182.89,303.12,182.91,303.36,182.93,303.62Zm-.86.48-.2-.16,0-.05a1,1,0,0,0,.4.13Zm-.2-7.35-.14.14a.69.69,0,0,1-.13-.11v0Zm.7,2.7v.21l-.38-.19v0h.37Zm-1.48,5.61a.67.67,0,0,1,.42,0l-.07.22Zm.06,3.36c.12-.05.31.12.43.16l-.6.8-.49,0C180.33,308.7,180.79,308.57,181.15,308.42Zm3.14,1.34c0,.09-.12.19-.19.19s-.25-.09-.25-.14a.85.85,0,0,0,0-.3C184,309.6,184.16,309.69,184.29,309.76Zm-2.17-1.16-.27-.3c.38,0,.75-.17.88,0a.53.53,0,0,1,.16.48A1,1,0,0,0,182.12,308.6Zm-6.92-12.73.91-.33-.24.68Zm4.2-10.62c0,.62-.05,1.12-.08,1.79a5.56,5.56,0,0,1-.45-.67c-.11-.26-.3-.61-.22-.79S179.11,285.36,179.4,285.25Zm3,4.06-.15.48a2.7,2.7,0,0,0-.44.13,3.47,3.47,0,0,0-1.31-.46c-.41-.09-.39-.28-.23-.59A4.27,4.27,0,0,0,182.36,289.31Zm.43,0-.06.17-.12-.15Zm2.22,8.1-.81.07.28.5-.17.08-.53-.23,0,.08.69.33-.16.06-.92.08c.09-.42.17-.75.23-1.09a.56.56,0,0,0-.05-.26l.31-.19,0-.14-.19,0,.35-.25C184.31,296.71,184.63,297,185,297.38Zm.86,6.38a2.33,2.33,0,0,1,.68.41.46.46,0,0,1-.07.67l-.73-.89Zm.85-7.78-.2.19c-.15-.18-.31-.35-.44-.54a2.22,2.22,0,0,1,.18-.23ZM159,284.2c.7-.82,2-.56,2.36-1.67.11.52.22,1,.3,1.52a1.85,1.85,0,0,1-.09.57l-1.25-1,0,.6C159.81,284,159.4,284.66,159,284.2Zm-2.14-2.36a8.76,8.76,0,0,1,1.56-.46c.4-.05.37.33.28.71l-.48-.53v.61Zm-6.06-7c.08-.22.15-.45.25-.67a2,2,0,0,1,.26.08l-.26.7Zm-2.21-8.26-.29.14c-.09.35-.15.63-.22.9l-.24,0,0-1.14.76,0Zm.11,4.92a1,1,0,0,1-.58-1.22C148.25,270.66,148.44,271.06,148.65,271.49Zm-1.37,1.29c.53-.13.9-.2,1.27-.32.11,0,.19-.18.35-.35l.53.34c-.11.47-.22.92-.35,1.45l-.41-.76-.29.49-.15-.13,0-.62h-.08l0,.82Zm-1.75-1c.26,0,.43,0,.47,0a5.4,5.4,0,0,1,.3.64l-.2.11C145.94,272.34,145.79,272.12,145.53,271.76Zm-.68-4,.17-.32.61.39-.13.26Zm-1.26,10.9.41-1.1.21,0a3,3,0,0,1,0,.85A.39.39,0,0,1,143.59,278.64Zm-15.16-6.07.78.31,0-.76.13-.1c.2.31.39.62.65,1l-1,.31-.08-.11.25-.36-.65.7C128.53,273.25,128.48,273,128.43,272.57Zm-8.71-1.12.54-.33.46.86-.18.16Zm-6.17,1.74c.34-.16.64-.55,1.09-.11C114.3,273.58,113.9,273.14,113.55,273.19Zm-43.7,2.47-.39.11-.85-1.23C69.41,274.32,69.43,274.34,69.85,275.66Zm12.72,2.51.06.16c-.27.08-.5.14-.71.22l-.32.14.53-.58Zm-.87,7.58a1.69,1.69,0,0,0-.37.15l-.12-.35.65-.2Zm1.56-6.24a.66.66,0,0,1-.54-.2s0-.09,0-.14l.33-.21A.64.64,0,0,1,83.26,279.51Zm-2-.45.26.11-.49.23,0,0Zm-1.87,4.21.9-.74.74,1.14.2-.09c-.06-.4-.11-.81-.18-1.21s-.09-.42.29-.49a2.17,2.17,0,0,1,0,2.29c.26-.09.4-.27.58-.34a1.39,1.39,0,0,1,.49,0v.19a1.73,1.73,0,0,0-1.34,1.19,6.33,6.33,0,0,0,0-1c-.25.11-.45.21-.64.28a1.27,1.27,0,0,1,.16-.2l-.71-.13.13-.88Zm.4-1.92c.16-.33.34-.65.51-1l.18,0c0,.15.06.3.08.45s0,.08,0,.09l.19.36a6.13,6.13,0,0,1-.68.24C80,281.57,79.78,281.37,79.79,281.35Zm1.36-4a2.12,2.12,0,0,0-.11.21c-.3.65-.38.69-1.16.47l.12-.74Zm.63.74-.16.1v-.12Zm1.16-.85a.91.91,0,0,1-.89-.81c.2-.07.52-.22.55-.17A2.59,2.59,0,0,1,82.94,277.22Zm2.17-.55-.41.29-.07-.78c-.17.07-.35.18-.39.15S84,276,84,275.87a3.4,3.4,0,0,1,.45-.7Zm.8-5.52-.6.28c0-.31,0-.59,0-1Zm2.46,4.56-.37.79-.32-.3.55-.63Zm.84-6.71-.51.82.06-1.23Zm.06,3.57c-.29-.16-.49-.26-.69-.39a.31.31,0,0,1-.09-.23.86.86,0,0,1,.25-.34.27.27,0,0,1,.25.11C89.1,272,89.17,272.25,89.27,272.57Zm2-2.79-.24.58-1-.05C90.35,269.77,90.81,269.77,91.3,269.78Zm6.15-3.91-1.74.51C95.76,265.79,96.88,265.45,97.45,265.87Zm-26.69,12L70.1,277c.24-.47.6-.34.78-.09S70.82,277.47,70.76,277.88Zm-1.1,1.37,0-.54.78-.56c0,.13.16.35.1.48C70.4,279,70.24,279.49,69.66,279.25Zm-.89,1.24.69-.57-.11.83Zm-.6,0c.18-.43.43-.89.06-1.25l.3.2c.24.12.53.26.36.56S68.69,280.79,68.17,280.51Zm-.06-2.85.69.44-.13.29a6.08,6.08,0,0,1-.68-.33A2.71,2.71,0,0,1,68.11,277.66Zm-1.32,2.77s.24-.09.36-.13l0,.76-.21,0A5.09,5.09,0,0,1,66.79,280.43Zm-1.71.43.17-.16a3.29,3.29,0,0,1,.5.56s-.15.25-.28.44C65.31,281.34,65.2,281.1,65.08,280.86Zm-4.89-.28c.73-.27,1.21-.59,1.93-.16s.63,1.15,1,1.71l-1.05-.44c.08-.31.14-.57.2-.83l-.16-.1c-.25.33-.48.66-.74,1A1,1,0,0,1,61,282s-.19-.15-.18-.21a1.22,1.22,0,0,1,.19-.49c.07-.09.21-.12.45-.24l-.66-.24ZM53.43,303.3l.64.29-1.15.36Zm1.16-3.74c-.17.35-1,.33-1.14.05.26-.14.52-.29.79-.41a1.07,1.07,0,0,1,.36,0A.91.91,0,0,1,54.59,299.56Zm.12,4.87,1,1.19C55.38,305.72,54.67,305,54.71,304.43Zm0-.52c0-.5,0-.89.06-1.35C55.19,302.77,55.17,303.38,54.76,303.91Zm-.35-2.19.25-1.32,1.05.68Zm-1,4.62-.34-.13.64-.45c.13.48.25.9.37,1.35C53.35,307.12,53.26,307,53.44,306.34Zm-.7-1.42.82-.05,0,.16-.7.53Zm-1.8-.82.43.79C50.78,305,50.69,304.8,50.94,304.1Zm-.41-6.17c.34-.55.34-.55.81-.29C50.93,298.15,50.89,298.17,50.53,297.93Zm-2.79,16.12c.08-.3.58-.47.89-.7l.15.21-.68.67h.16l0,1.08-.33.06A3.46,3.46,0,0,1,47.74,314.05Zm-.07-8.92-1.1,1.32a2.81,2.81,0,0,0,.31-2.32l1.16-.7c-.47-.26-1.08,0-1.06-.66a6.61,6.61,0,0,0,.62-1.32,6,6,0,0,0-.68-.36c0-.19.13-.45.21-.71l-.47.07.22-1.27a2.13,2.13,0,0,0,2,.43,3.12,3.12,0,0,1,.61,0c-1.61.85-1.67.9-1.55,1.65l1.72-.8A7.52,7.52,0,0,1,49.4,302c-.07.2-.41.29-.62.43l.85.89-1.07-.06,0,.13.56.3-1.08.82a2.52,2.52,0,0,0,2,.59l-1.57,2.17c-.18-.4-.34-.78-.51-1.17l-.13.05,0-.85Zm-1.14,9.31a5.44,5.44,0,0,1,.69-.56l.14.22-.67.52a1.13,1.13,0,0,0-.15.21C46.53,314.69,46.47,314.49,46.53,314.44ZM43.29,302.5v-.92l.18-.06c.08.15.23.31.23.46a1.84,1.84,0,0,1-.21.58Zm-.11-1.76c.29-.69.67-.72,1.15-.42Zm-1.16,20,.71.08.18.32c-.9-.42-.5.37-.86.61Zm-1.71-15-.67-.48,1.11-.26Zm-.94,2.59c.46-.35.58.22.89.43-.29.55-.64.32-.92.14A.72.72,0,0,1,39.37,308.38Zm-.23-2.4-.62.7-.18-.14a4.06,4.06,0,0,1,.35-.69S38.93,305.91,39.14,306Zm-.46,6a2.36,2.36,0,0,1,.15-.47c.09.22.17.32.16.42a2.64,2.64,0,0,1-.11.56s-.18,0-.18,0A2.07,2.07,0,0,1,38.68,312Zm-.24-3.82-.36-.69.91.05Zm-.57,13.3.52.75-.15.12C38.08,322.11,37.53,322.22,37.87,321.5Zm-2-1.08.44-.54.42.55-.78.14ZM34,314.6l.79-.14.12.14-.45.62Z"/><path class="cls-1" d="M73.34,275.69a2.54,2.54,0,0,1,.87-2.69C74.35,274.52,74.11,275.24,73.34,275.69Z"/><path class="cls-1" d="M75.07,276.1h0c-.71.31-1.39-.06-1.94-.09.39-.16.89-.36,1.38-.58a2.18,2.18,0,0,1,1.76-.05l-1.2.72Z"/><path class="cls-1" d="M59.09,280.62c-.06-.17-.1-.34-.17-.49a2.53,2.53,0,0,1-.19-2.17,2.45,2.45,0,0,1,.46,2.67Z"/><path class="cls-1" d="M59.18,280.65v0h0Z"/><path class="cls-1" d="M59.08,280.62h0Z"/><path class="cls-1" d="M75.55,276.65l-.91-.15,0-.17.4-.23.53.42Z"/><path class="cls-1" d="M81.57,275.79c-1.19.09-1.55-.05-2.16-.89A1.74,1.74,0,0,1,81.57,275.79Z"/><path class="cls-1" d="M147.8,263.42l.45.29.05-1.11c.54.42.59.64.6,2.56-.27-.34-.55-.68-.81-1A1.47,1.47,0,0,1,147.8,263.42Z"/><path class="cls-1" d="M162,280.06a1.69,1.69,0,0,1-1.59-.86,3,3,0,0,0-.39-.41C160.92,278.63,161.5,279,162,280.06Z"/><path class="cls-1" d="M98,262.42h0l-.74-1.56.44.26.22-.87c.39.48.41.69.21,2.22l-.13,0Z"/><path class="cls-1" d="M147.14,264.11c.7.24,1.36.39,1.6,1.23A1.52,1.52,0,0,1,147.14,264.11Z"/><path class="cls-1" d="M142.26,270.74c-.46.57-.93.62-1.71.15C141.16,270.67,141.67,270.36,142.26,270.74Z"/><path class="cls-1" d="M97.14,262.22a3.85,3.85,0,0,1-.48-.82,2.27,2.27,0,0,1,1.37,1C97.66,262.75,97.38,262.45,97.14,262.22Z"/><path class="cls-1" d="M79.92,273.66l.75.43.13.39C80.26,274.59,80.1,274.13,79.92,273.66Z"/><path class="cls-1" d="M195.8,287.56a1.74,1.74,0,0,1-1.41,1.16,2.45,2.45,0,0,0-.51.2A1.68,1.68,0,0,1,195.8,287.56Z"/><path class="cls-1" d="M230,234.31a2.37,2.37,0,0,1,1.69,2.18C230.78,236.37,230.32,235.78,230,234.31Z"/><path class="cls-1" d="M230.47,236.7c.54,0,1.07,0,1.49,0-.51.25-1,.85-1.79.84h0l-1.36-.2A2.19,2.19,0,0,1,230.47,236.7Z"/><path class="cls-1" d="M220.39,269.49a2,2,0,0,1,0,1.93,3.41,3.41,0,0,0-.16.57A2,2,0,0,1,220.39,269.49Z"/><path class="cls-1" d="M230.69,237.75l-.8.49-.08-.11.36-.59.45.06Z"/></g></svg>
