<svg id="Layer_2" data-name="Layer 2" xmlns="http://www.w3.org/2000/svg" viewBox="0 0 1920 700"><defs><style>.cls-1{fill:#e1ffed;}</style></defs><path id="water-front" class="cls-1" d="M-38,636.92c46.6,31.82,116,67.66,200,65.62,73.38-1.78,83.5-30.66,171-41,101.67-12,114.05,23.88,254,27,111,2.43,103.94-20.13,189-10.55,117,13.18,134.78,56.39,218,44.53,73.8-10.52,75.32-46.75,158-58.59,74.21-10.63,79.18,17.71,169,18.75,111.89,1.3,126.29-42.42,239-37.5,64.39,2.81,70,17.53,139,22.27,72.91,5,104.38-15.4,199-25.78a1025.35,1025.35,0,0,1,137-5.86V332.83L1671,313.5l-652.36,19.33L384,373.26-194,426l52,225Z"/></svg>
