<svg id="Layer_2" data-name="Layer 2" xmlns="http://www.w3.org/2000/svg" viewBox="0 0 1920 700"><defs><style>.cls-1{fill:#3993fa;}</style></defs><path id="water-wave" class="cls-1" d="M-26.14,665.33c45.9-27.76,114.5-59.45,198.51-59.94,73.39-.43,84.14,23.39,171.83,29.75,101.9,7.38,113.5-22.89,253.33-29.1,110.88-4.92,104.35,14.08,189.17,3.87,116.69-14,133.5-50.54,217-42.81,74,6.85,76.31,37,159.22,44.74,74.41,6.93,78.76-16.83,168.53-20,111.82-4,127.17,32.09,239.73,25.05,64.32-4,69.64-16.45,138.47-22.19,72.78-6.07,104.68,10.12,199.5,16.31a1230.89,1230.89,0,0,0,137.08,1.32l6.58,252.6L1689.31,890.5l-652.56.87L401.45,874.2-177.5,845.29l47.09-189Z"/></svg>
