<svg id="Layer_2" data-name="Layer 2" xmlns="http://www.w3.org/2000/svg" viewBox="0 0 1920 700"><defs><style>.cls-1{fill:#9cffcf;}</style></defs><path id="water-wave" class="cls-1" d="M-185.76,592.71C-135.28,564.84-59.83,533,32.45,532.27c80.62-.62,92.36,23.17,188.68,29.3,111.92,7.13,124.73-23.18,278.35-29.74,121.82-5.21,114.59,13.81,207.79,3.38,128.23-14.34,146.79-50.88,238.44-43.37,81.27,6.66,83.73,36.83,174.79,44.33,81.73,6.74,86.57-17,185.18-20.47,122.85-4.28,139.62,31.76,263.29,24.43,70.65-4.19,76.54-16.62,152.16-22.54,80-6.26,115,9.85,219.1,15.8a1485.67,1485.67,0,0,0,150.58,1L2097.4,787,1698.08,813.5l-716.84,2.55L283.4,800.5l-635.9-27.42L-300.28,584Z"/></svg>
