<svg id="Layer_2" data-name="Layer 2" xmlns="http://www.w3.org/2000/svg" viewBox="0 0 1920 700"><defs><style>.cls-1{fill:#ffe680;}.cls-2{fill:none;stroke:#fff5cb;stroke-miterlimit:5.14;stroke-width:1.23px;}</style></defs><g id="sun"><path class="cls-1" d="M1439.86,141.5a35,35,0,1,1-35-35,35,35,0,0,1,35,35Z"/><path class="cls-2" d="M1402.66,111c-21.41-2-35.29,24.18-28,42.66,7.09,20.78,36.37,25.73,51.56,11,12.85-10.08,16-31.33,3.36-42.87-11.56-12.39-32.76-13.3-44.72-.92-13.66,11.29-10.61,33.92,4.39,42.47,20.54,13.85,50.56-11.54,40.61-34.1-6.21-16.73-27.52-24.34-42.95-15.44-17.54,8-28.31,32.12-16.19,48.89,15.1,23.75,57.71,22.89,68.61-4.32,9.77-26.68-19.83-55.82-46.48-47.77-12.8,3.47-23.7,14.5-25.23,27.94"/></g></svg>
