<svg id="Layer_2" data-name="Layer 2" xmlns="http://www.w3.org/2000/svg" viewBox="0 0 1920 700"><defs><style>.cls-1{fill:none;stroke:#fff;stroke-linecap:round;stroke-miterlimit:10;}</style></defs><g id="white-waves"><path class="cls-1" d="M707,530.5c32.52-17.82,59-21.67,77-22,24.84-.45,38.87,5.74,85,11,22.27,2.54,40.48,3.54,52,4"/><path class="cls-1" d="M1000,519.48c32.52,17.82,59,21.67,77,22,24.84.45,38.87-5.74,85-11,22.27-2.54,40.48-3.55,52-4"/><path class="cls-1" d="M1536,541.5c-32.52-17.82-59-21.67-77-22-24.84-.45-38.87,5.74-85,11-22.27,2.54-40.48,3.54-52,4"/><path class="cls-1" d="M1450,536.48c32.52,17.82,59,21.67,77,22,24.84.45,38.87-5.74,85-11,22.27-2.54,40.48-3.55,52-4"/><path class="cls-1" d="M1986,558.5c-32.52-17.82-59-21.67-77-22-24.84-.45-38.87,5.74-85,11-22.27,2.54-40.48,3.54-52,4"/><path class="cls-1" d="M-148,547.5c32.52-17.82,59.05-21.67,77-22,24.84-.45,38.87,5.74,85,11,22.27,2.54,40.48,3.54,52,4"/><path class="cls-1" d="M145,536.48c32.52,17.82,59.05,21.67,77,22,24.84.45,38.87-5.74,85-11,22.27-2.54,40.48-3.55,52-4"/><path class="cls-1" d="M681,558.5c-32.52-17.82-59-21.67-77-22-24.84-.45-38.87,5.74-85,11-22.27,2.54-40.48,3.54-52,4"/></g></svg>
