<svg id="Layer_2" data-name="Layer 2" xmlns="http://www.w3.org/2000/svg" viewBox="0 0 1920 929"><defs><style>.cls-1{fill:#fff;}</style></defs><path id="water-wave" class="cls-1" d="M2018,679.71c-50.49-27.87-125.93-59.74-218.21-60.44-80.63-.62-92.37,23.17-188.69,29.3-111.91,7.13-124.73-23.18-278.35-29.74-121.82-5.21-114.59,13.81-207.79,3.38-128.23-14.34-146.79-50.88-238.44-43.37-81.27,6.66-83.73,36.83-174.78,44.33-81.73,6.74-86.58-17-185.19-20.47-122.85-4.28-139.62,31.76-263.28,24.43-70.66-4.19-76.54-16.62-152.17-22.54-80-6.26-115,9.85-219.1,15.8a1485.67,1485.67,0,0,1-150.58,1l-80.19,473.15,432-41,752-18h729l610,18L2132.5,671Z"/></svg>
