<svg id="Layer_1" data-name="Layer 1" xmlns="http://www.w3.org/2000/svg" viewBox="0 0 37.21 37.21"><defs><style>.cls-1,.cls-3{fill:none;stroke:#fff;stroke-miterlimit:10;}.cls-1{stroke-width:2px;}.cls-1,.cls-2{fill-rule:evenodd;}.cls-2{fill:#fff;}.cls-3{stroke-linecap:round;stroke-width:1.87px;}</style></defs><path class="cls-1" d="M37.6,19.2a17,17,0,0,1-5.15,12.42A17,17,0,0,1,20,36.78,16.92,16.92,0,0,1,7.56,31.62,16.93,16.93,0,0,1,2.4,19.2,17,17,0,0,1,7.56,6.74,16.93,16.93,0,0,1,20,1.58,17,17,0,0,1,32.44,6.74,17,17,0,0,1,37.6,19.2Z" transform="translate(-1.4 -0.58)"/><path class="cls-2" d="M10.66,9.46q3.71.1.95,3.55c-1.93,2.44-3.26,3.25-4,2.45S7,13.6,7.76,12,9.5,9.43,10.66,9.46Z" transform="translate(-1.4 -0.58)"/><path class="cls-2" d="M6.66,17.26c.64.14.84.6.6,1.4s-.58,1.1-1,.8a1.28,1.28,0,0,1-.4-1.4C6,17.46,6.26,17.2,6.66,17.26Z" transform="translate(-1.4 -0.58)"/><path class="cls-3" d="M16.91,32.53a12.72,12.72,0,0,0,9.18-1.74,16.4,16.4,0,0,0,6.65-9.32" transform="translate(-1.4 -0.58)"/></svg>
