<svg xmlns="http://www.w3.org/2000/svg" viewBox="0 0 500 500"><defs><style>.cls-1,.cls-2{fill:none;stroke:#fff;stroke-miterlimit:10;stroke-width:5px;}.cls-2{stroke-linecap:round;}</style></defs><g id="california"><path class="cls-1" d="M58,309.82c0-106,86-192,192-192s192,86,192,192"/><path class="cls-2" d="M479.5,377.32c-48.87,10-51.91-26.55-84-42-23.17-7.66-48.37,6.15-48,9,.24,1.9,11.8-1,18,6,5.28,6,5.3,17.56,0,24-25.68,17.61-50.71-3.59-81-24-28.76-18.95-36.37-20.55-42-21-19.72-1.59-36.61,9.16-36,12,.57,2.62,15.86-2.48,24,6,5,5.24,6.51,14.81,3,21-6.68,11.8-30.65,10-45,6-11.68-3.26-13.47-7-36-21-37.22-27.32-72.63-32.47-93-9,.75,3,20.11-4.11,30,6,5.9,6,7.46,17.18,3,24-19.46,19.59-61-2.05-72-15"/></g></svg>
