<svg xmlns="http://www.w3.org/2000/svg" viewBox="0 0 500 500"><defs><style>.cls-1{fill:none;stroke:#fff;stroke-miterlimit:10;stroke-width:5px;}</style></defs><g id="scandinavia"><circle class="cls-1" cx="250" cy="250" r="32.04"/><path class="cls-1" d="M250.26,471.5h0c-50.67-50.76-53-119.33-5.85-171.88l5.85-6.51,10,12.27C301,355.26,298.9,417.89,255,466.27Z"/><path class="cls-1" d="M250.26,202.5h0c-50.67-50.76-53-119.33-5.85-171.88l5.85-6.51,10,12.27C301,86.26,298.9,148.89,255,197.27Z"/><path class="cls-1" d="M208.57,236.23h0c-70.48,13.3-128.46-23.36-145.36-91.91l-2.1-8.5,15.78-1.36c64.13-5.56,114.74,31.39,130,94.91Z"/><path class="cls-1" d="M451.66,154.08h0c-24.2,67.51-85.16,99-152.85,78.84l-8.38-2.49,6.81-14.3C324.9,158,382.39,133.06,444.9,152Z"/><path class="cls-1" d="M440.39,371.32h0C369.92,384.63,311.94,348,295,279.41l-2.09-8.5,15.78-1.36c64.12-5.55,114.74,31.39,130,94.91Z"/><path class="cls-1" d="M210.57,277.3h0c-24.19,67.52-85.16,99-152.84,78.85l-8.39-2.49,6.81-14.3c27.67-58.12,85.15-83.07,147.67-64.11Z"/></g></svg>
