<?xml version="1.0" encoding="utf-8"?>
<!-- Generator: Adobe Illustrator 25.2.3, SVG Export Plug-In . SVG Version: 6.00 Build 0)  -->
<svg version="1.1" xmlns="http://www.w3.org/2000/svg" xmlns:xlink="http://www.w3.org/1999/xlink" x="0px" y="0px"
	 viewBox="0 0 500 500" style="enable-background:new 0 0 500 500;" xml:space="preserve">
<style type="text/css">
	.st0{fill:#3993FA;}
	.st1{fill:none;stroke:#FFFFFF;stroke-width:2;stroke-linecap:round;stroke-miterlimit:10;}
	.st2{display:none;}
	.st3{display:inline;}
	.st4{fill:none;stroke:#FFFFFF;stroke-width:3.0072;stroke-linecap:round;stroke-miterlimit:10;}
</style>
<g id="Layer_3">
	<g>

			<rect x="-780.5" y="-53.1" transform="matrix(-1 -4.489665e-11 4.489665e-11 -1 386.09 508.04)" class="st0" width="1947" height="614.2"/>
		<path class="st1" d="M-770.3-40.4c9.9-0.2,20-0.6,30.4-1.3c19.1-1.1,37.2-2.9,54.5-5.1"/>
		<path class="st1" d="M-770.3-17.6c17.9-1.1,35.7-3.6,53.2-7.6c21.8-5,43-12.2,63.3-21.5"/>
		<path class="st1" d="M-771.5-7.5c22.8,3,45.9,2.1,68.4-2.5c29.4-6.2,57-18.7,81-36.7"/>
		<path class="st1" d="M-772.9,11.5c27-1.5,53.8-6.2,79.8-13.9c23.3-6.9,45.8-16.3,67.1-27.9"/>
		<path class="st1" d="M-780.5,24.2c4.4,0.1,11,0.2,19,0c25.1-0.5,47.6-0.9,68.4-6.3c13.2-3.5,34.7-11.3,58.2-31.7"/>
		<path class="st1" d="M-771.6,41.9c4.1-0.2,9.8-0.5,16.5-1.3c22-2.6,43.7-7.7,64.6-15.2c19.4-6.9,38.1-15.8,55.7-26.6"/>
		<path class="st1" d="M-775.4,54.6c7.1-0.1,17.1-0.3,29.1-1.3c19.6-1.5,38.2-3,57-8.9c13-4,33.6-12.5,55.7-31.7"/>
		<path class="st1" d="M-772.9,76.1c17.5-1.3,34.8-3.9,51.9-7.6c11.2-2.2,22.2-5.2,32.9-8.9c17.9-6.3,34.9-14.8,50.7-25.3"/>
		<path class="st1" d="M-770.3,83.7c4.1-0.2,9.8-0.6,16.5-1.3c8.9-0.8,17.8-2.1,26.6-3.8c13.4-2.8,10.6-3.9,32.9-10.1
			c13.1-3.7,20-4.9,29.1-10.1c2.2-1.3,6.1-3.7,10.1-6.3c5.9-3.9,10.6-7.5,13.9-10.1"/>
		<path class="st1" d="M-774.1,95.1c4.2-0.2,9.8-0.5,16.5-1.3c13.3-1.5,26.4-4.1,39.3-7.6c18.2-4.9,27.2-7.4,32.9-11.4
			c6.3-4.5,11.4-10,21.5-12.7c4.1-1.1,8.4-1.5,12.7-1.3"/>
		<path class="st1" d="M-772.8,107.8c23.1-3.2,41.9-7,55.7-10.1c16.1-3.6,24-6,31.7-8.9c11-4.1,21.6-9.2,31.6-15.2"/>
		<path class="st1" d="M-772.8,125.5c4.2-0.1,8.5-0.6,12.7-1.3c10.3-1.8,16.4-4.7,24.1-7.6c15-5.6,16.1-3.7,31.7-8.9
			c10-3.4,19.8-7.6,29.1-12.7"/>
		<path class="st1" d="M-772.9,138.1c8.6-0.2,17.1-1.5,25.3-3.8c9.8-2.8,11.7-5.1,26.6-10.1c10.9-3.7,12.4-3.3,20.3-6.3
			c8-3,15.6-6.8,22.8-11.4"/>
		<path class="st1" d="M-771.6,153.3l11.4-2.5c19.7-4.4,29.6-6.6,32.9-7.6c8.8-2.5,26.6-7.8,44.3-21.5c4.5-3.5,8.7-7.3,12.7-11.4"/>
		<path class="st1" d="M-770.3,162.2c7.2-0.2,14.4-1,21.5-2.5c11.2-2.4,13.3-4.5,27.9-8.9c18.8-5.7,21.9-4.1,31.7-8.9
			c7.6-3.8,14.5-8.9,20.3-15.2"/>
		<path class="st1" d="M-771.6,172.3c2.8,0.1,6.7,0.1,11.4,0c10.9-0.3,23-0.6,36.7-5.1c11.9-4,23-10,32.9-17.7
			c7.6-5.9,14.4-12.7,20.3-20.3"/>
		<path class="st1" d="M-771.6,192.6c4.6,0.8,9.3,1.2,13.9,1.3c5.5,0,12.4-0.5,25.3-3.8c14.9-3.8,22.3-5.7,30.4-10.1
			c9.8-5.3,18.5-12.7,25.3-21.5c3.5-4.7,6.5-9.8,8.9-15.2"/>
		<path class="st1" d="M-770.3,209.1c2.2,0.1,5.2,0.1,8.9,0c8.6-0.2,17.1-1.5,25.3-3.8c8.4-2.5,14.1-5.5,20.3-8.9
			c8-4.4,15.6-9.5,22.8-15.2c5.6-4.3,9.8-8,15.2-12.7c5.8-5,10.5-9.4,13.9-12.7"/>
		<path class="st1" d="M-770.3,220.5c9.3,1,18.7,0.5,27.9-1.3c7-1.4,13.7-3.5,20.3-6.3c9-3.5,17.6-8.2,25.3-13.9
			c4.2-3.1,9.5-8.4,20.3-19c4.2-4.1,7.7-7.7,10.1-10.1"/>
		<path class="st1" d="M-769.1,226.8c4.2,0.7,8.4,1.1,12.7,1.3c3.8,0.2,15.5,0.5,34.2-3.8c17.2-3.9,27.1-6.2,38-13.9
			c6.4-4.5,11.9-10.1,16.5-16.5"/>
		<path class="st1" d="M-771.6,240.7c2.8,0.1,6.7,0.1,11.4,0c6.4-0.1,12.7-0.5,19-1.3c8.6-1.2,17.1-3.3,25.3-6.3
			c7.1-2.6,15.8-5.8,25.3-12.7c8.5-6.2,15.8-13.9,21.5-22.8"/>
		<path class="st1" d="M-772.8,257.2c4.1-0.4,10.2-0.9,17.7-1.3c17.7-0.9,21.1-0.1,32.9-1.3c13.5-1.3,20.4-2.1,27.9-6.3
			c8.1-4.6,13-10.8,16.5-15.2c4.8-6.1,8.7-13,11.4-20.3"/>
		<path class="st1" d="M-642.4,277.4c-0.1,2.1-0.1,4.2,0,6.3c0.3,4.1,1.2,10.9,6.3,21.5c3.8,7.7,8.4,14.9,13.9,21.5
			c10.2,12.5,20.5,20,27.9,25.3c6.5,4.7,13.2,8.9,20.3,12.7"/>
		<path class="st1" d="M-650,273.6c-0.3,6.4,0.1,12.7,1.3,19c1.7,8.8,4.7,17.4,8.9,25.3c3.5,6.8,9.4,17.9,21.5,27.9
			c5.7,4.7,12.1,8.5,19,11.4"/>
		<path class="st1" d="M-652.6,272.4c-3.1,1.9-5.7,4.5-7.6,7.6c-0.9,1.5-3.6,6.4-2.5,21.5c0.7,10.4,1.1,15.5,3.8,21.5
			c1.9,4.3,3.9,6.7,15.2,19c3.5,3.8,8.2,9,13.9,15.2"/>
		<path class="st1" d="M-657.6,266c-4.9,5.1-8.8,11.1-11.4,17.7c-5.1,12.9-3.6,24.3-2.5,32.9c0.9,7.1,2.1,15.7,7.6,25.3
			c3.3,5.8,7.6,10.9,12.7,15.2"/>
		<path class="st1" d="M-661.4,261c-6.5,5.3-12.1,11.8-16.5,19c-7.1,11.9-8.9,22.6-10.1,30.4c-1.2,7.4-2.4,15.9,0,26.6
			c1.1,4.8,2.8,9.5,5.1,13.9"/>
		<path class="st1" d="M-670.3,269.8c-17.1,13.8-28,33.9-30.4,55.7c-0.6,5.9-0.6,11.8,0,17.7"/>
		<path class="st1" d="M-769.1,271.1c8.3,0.1,15.2,0.1,20.3,0c13-0.2,16.2-0.6,19-1.3c4.3-1,5.7-1.9,17.7-7.6
			c20.5-9.8,24.4-11,31.7-16.5c3.6-2.7,7-5.7,10.1-8.9"/>
		<path class="st1" d="M-770.3,282.5c5.5,0.5,11,0.5,16.5,0c6.4-0.6,12.8-1.9,19-3.8c6.6-1.9,12.9-4.5,19-7.6"/>
		<path class="st1" d="M-770.3,292.6c9.9-0.8,19.6-2.4,29.1-5.1c5.1-1.4,10.2-3.1,15.2-5.1"/>
		<path class="st1" d="M-770.3,301.5c6.9,1.3,13.1,4.8,17.7,10.1"/>
		<path class="st1" d="M-760.2,305.3c7.7,0.8,15.5,0,22.8-2.5"/>
		<path class="st1" d="M-720.9,335.7c-0.8-4.2-0.8-8.5,0-12.7c1.1-5.8,3.4-8.6,10.1-19c6.1-9.5,4.3-7.3,12.7-20.3
			c0.6-0.9,5-7.8,11.4-16.5c4.5-6.1,7-9.2,11.4-11.4c3.2-1.6,6.6-2.4,10.1-2.5"/>
		<path class="st1" d="M-729.8,330.6c0.6-1.2,1.5-2.9,2.5-5.1c5.5-11.2,8.1-18.1,10.1-22.8c4.3-9.9,9-16.1,17.7-27.9
			c9.3-12.5,13.7-15.7,17.7-17.7c4.4-2.2,9.1-3.4,13.9-3.8"/>
		<path class="st1" d="M-734.9,326.8c-0.1-1.3-0.1-2.5,0-3.8c0.4-8.2,3.6-14.1,6.3-19c7.9-14.2,11.8-21.4,13.9-24.1
			c7.5-9.7,14.8-15.1,21.5-20.3c6.5-4.9,10.9-7.4,16.5-8.9c2.9-0.8,5.9-1.2,8.9-1.3"/>
		<path class="st1" d="M-743.7,317.9c2.8-7.4,6.2-14.6,10.1-21.5c4.8-8.4,11.9-20.3,25.3-31.7c6.4-5.4,16.9-14.1,32.9-17.7
			c2.5-0.6,5-1,7.6-1.3"/>
		<path class="st1" d="M-613.3,236.9c1.8-0.3,3.6,0.1,5.1,1.3c1.6,1.4,1.4,3.5,1.3,8.9c-0.3,8-0.4,12.1,0,13.9c0.6,3,1.5,6,2.5,8.9
			c1.1,2.6,2,4.1,1.3,5.1c-0.8,1.1-3.4,0.7-5.1,0c-3.6-1.6-4.8-5.6-5.1-6.3c-0.7-2.3-0.4-3.7,0-7.6c0.9-9,1.3-13.6,0-16.5
			s-3.4-4.8-2.5-6.3C-615.2,237.4-614.3,237-613.3,236.9z"/>
		<path class="st1" d="M-596.8,290.1c-1.5,4.1-5.6,5.6-7.6,6.3c-2.4,0.9-7.5,2.1-8.9,0c-0.8-1.3-0.1-3.7,1.3-5.1
			c2.5-2.5,5.9-0.4,8.9-2.5c3.7-2.7,2.4-8.8,3.8-8.9C-598,279.9-595.1,285.4-596.8,290.1z"/>
		<path class="st1" d="M-604.5,312.9c-1.5,0.7-2.5,2.1-2.5,3.8c0,1.7,1.1,3.6,2.5,3.8c1.9,0.3,4-2.7,3.8-5.1c0-1-0.5-1.9-1.3-2.5
			C-602.7,312.5-603.6,312.5-604.5,312.9z"/>
		<path class="st1" d="M-593,301.5c-2.8,1.5-4.7,5-3.8,6.3c0.7,1,3.1,0.5,5.1,0c1.7-0.4,6.1-1.4,6.3-3.8c0-1-0.5-1.9-1.3-2.5
			C-588.5,299.9-591.5,300.7-593,301.5z"/>
		<path class="st1" d="M-418.3,295.2c-2.4,0.7-7.7,2.7-7.6,5.1c0.1,1.9,3.5,3.6,6.3,3.8c3.1,0.2,3.7-1.5,6.3-1.3
			c4.6,0.3,5.9,5.5,8.9,5.1c2.2-0.3,4.2-3.7,3.8-6.3c-0.6-4.1-6.5-5.7-8.9-6.3C-412.4,294.4-415.4,294.4-418.3,295.2z"/>
		<path class="st1" d="M-472.7,283.8c-5.3-2.8-8-4.2-10.1-6.3c-3.5-3.5-4.3-6.5-6.3-6.3c-2.2,0.2-4.3,4.2-3.8,7.6
			c0.3,1.9,1.4,3.7,6.3,7.6c3.6,2.8,7.4,5.4,11.4,7.6c5.8,3.2,4.1,1.7,16.5,7.6c4.3,2.1,7,3.4,10.1,2.5c1.7-0.5,1.9-1.2,5.1-2.5
			c4.2-1.8,5.8-1.3,6.3-2.5c0.9-1.9-1.6-5.8-5.1-7.6c-4.1-2.1-6.4,0.4-12.7,0C-458.7,291.1-463.4,288.7-472.7,283.8z"/>
		<path class="st1" d="M-542.4-20.1c1.1-0.4,1.2-6.5-1.3-11.4c-4.4-8.6-15.1-10-16.5-10.1c-5.2-0.6-13,0.3-13.9,3.8
			c-0.5,1.7,0.8,4.1,2.5,5.1c2.9,1.6,5.1-1.6,10.1-1.3c4.4,0.3,7.7,3.1,10.1,5.1c2.3,1.9,4.4,4.1,6.3,6.3
			C-543.4-20.9-542.8-20-542.4-20.1z"/>
		<path class="st1" d="M-537.3,25.4c-0.8,0.6-1.3,1.5-1.3,2.5c0.4,1.7,2.1,2.8,3.8,2.5c0.9-0.1,1.7-0.5,2.1-1.3
			c0.8-1.3,0.4-3-0.9-3.8C-534.7,24.6-536.2,24.6-537.3,25.4z"/>
		<path class="st1" d="M-386.6-5c-1.4,1.3,0.5,3.5,0,7.6c-0.5,3.7-2.4,4.1-2.5,7.6c-0.1,2.8,0.8,6.1,2.5,6.3s3.5-3.2,3.8-3.8
			c0.6-1.2,1.3-2.9,1.3-10.1c0-5.9-0.4-7-1.3-7.6C-384-5.8-385.5-5.8-386.6-5z"/>
		<path class="st1" d="M-336-25.2c-1,0.2-1.8,0.6-2.5,1.3c-0.8,0.8-1.9,2.5-1.3,3.8c0.8,1.5,3.4,1.3,3.8,1.3
			c2.4-0.2,5.2-1.9,5.1-3.8c-0.1-1.2-1.5-2.2-2.5-2.5C-334.3-25.5-335.1-25.5-336-25.2c0.4,0,0.8,0,1.3,0"/>
		<path class="st1" d="M-357.5-26.5c-1.3-1-1.3-1.8-2.5-3.8s-2.2-3.4-3.8-3.8c-1.4-0.4-2.9,0.1-3.8,1.3c-0.7,1.3,0.2,3.1,1.3,5.1
			c1,1.9,2.3,3.6,3.8,5.1c6.2,6.7,6.5,8.7,8.9,8.9c2,0,3.9-0.9,5.1-2.5c1.2-1.4,1.7-3.3,1.3-5.1c-0.5-1.9-1.9-3.3-3.8-3.8
			c-1.4-0.3-2,0.4-3.8,0C-355.9-25.5-356.7-25.9-357.5-26.5z"/>
		<path class="st1" d="M-333.4,91.3l-11.4-3.8c-4.4-1.5-5.7-1.9-6.3-1.3c-0.9,0.9-0.2,3.5,1.3,5.1c1.7,1.7,3.1,0.8,6.3,2.5
			c2.9,1.6,2.5,2.7,5.1,3.8c2.9,1.3,4.1,0,6.3,1.3c1.6,0.9,2.3,2.3,3.8,5.1c2.4,4.5,1.9,6,3.8,7.6c1.7,1.4,4.5,2.5,6.3,1.3
			c2.3-1.5,1.4-5.7,1.3-6.3c-0.4-2.1-1.6-3.5-3.8-6.3c-1.8-2.2-3.8-4.2-6-6.1l-0.3-0.3C-328.9,92.4-331.1,91.5-333.4,91.3z"/>
		<path class="st1" d="M-156.1,433.2c-1,2.6-3.7,2.3-6.3,5.1c-1.6,1.7-3.5,4.8-2.5,6.3c1.1,1.9,6.1,1,8.9,0c3.2-1.1,5.9-3.4,7.6-6.3
			c1.8-3.4,1.6-6.5,1.3-10.1c-0.3-3.4-0.8-9.3-3.8-10.1c-1.8-0.5-4.1,0.8-5.1,2.5c-0.8,1.3-0.4,2.3,0,8.9
			C-155.9,432.5-156,432.8-156.1,433.2z"/>
		<path class="st1" d="M-146,468.7c3.8,3,5.6,4.2,7.6,3.8s4-2.3,3.8-3.8c-0.2-1.3-2-1.9-3.8-2.5c-4-1.4-5.9-0.7-8.9-1.3
			c-5.6-1.1-8.6-5.3-8.9-5.1C-156.5,460.1-150.1,465.4-146,468.7z"/>
		<path class="st1" d="M-181.5,467.4c-1,1-1.4,2.4-1.3,3.8c0.3,2,2,4.1,3.8,3.8s2.7-3.1,2.5-5.1c-0.1-1.5-1-3.6-2.5-3.8
			C-179.9,466.2-180.9,466.6-181.5,467.4z"/>
		<path class="st1" d="M-182.7,454.7c3.2,3.6,6.5,7,10.1,10.1c5.2,4.6,8.7,7.7,13.9,10.1c4.8,2.2,9.9,3.5,15.2,3.8"/>
		<path class="st1" d="M-130.8,524.4c-0.2-0.1-0.9-0.3-1.3,0c-1.2,1,0.7,6.5,3.8,10.1c3.8,4.4,9.4,6.7,15.2,6.3
			c4.6-0.4,7.7-2.5,11.4-5.1c4.4-3.1,8.1-5.6,7.6-7.6C-95.4,522.8-124.5,526.6-130.8,524.4z"/>
		<path class="st1" d="M31.3,444.6c-1.7,0.9-6.2,3.1-6.3,6.3c-0.1,2.4,2.4,2.6,3.8,6.3s-0.4,5.6,1.3,7.6c1.5,1.7,4.6,2.4,6.3,1.3
			c1.5-1,1.3-2.8,1.3-10.1c0-9.3,0.4-11.8-1.3-12.7C35.1,442.7,33.5,443.5,31.3,444.6z"/>
		<path class="st1" d="M9.7,386.4c6.5,3,9.8,1.4,19,3.8c4.6,1.2,6.9,1.8,8.9,3.8c4.5,4.5,3.9,11.5,3.8,12.7
			c-0.8,8.6-6.9,9.5-7.6,17.7c-0.4,4.4,0.9,10.7,5.1,12.7c2.9,1.3,6.5,0.3,8.9-1.3c7.5-5.1,6.1-18.8,5.1-29.1
			c-0.8-7.3-2.1-19.3-10.1-26.6c-1.3-1.1-5.5-5-8.9-3.8c-2.2,0.8-2.7,3.5-5.1,3.8c-1.6,0.2-3.1-0.8-5.1-2.5
			c-7.4-6.3-7.8-8.5-10.1-8.9C8.8,368,1.8,376,3.4,381.3C4.2,383.8,6.8,385,9.7,386.4z"/>
		<path class="st1" d="M-172.6,321.8c1.8,3.4,4.4,8.7,7.6,15.2c7.9,16.4,10.6,23.4,15.2,32.9c5.2,10.9,10.5,21.8,19,32.9
			c6.7,8.7,17.9,23.2,38,32.9c3.3,1.6,30.1,14.3,50.7,7.6c2.8-0.9,8.5-3.1,10.1-3.8c12-4.7,18-7.1,21.5-10.1
			c2.4-2.1,5.4-6.9,11.4-16.5c5.9-9.4,7.3-12.9,11.4-13.9c4.3-1.1,8.9,1.3,11.4,3.8c5.7,5.6,4.4,14.7,3.8,19
			c-1.4,9.8-5.4,10.3-7.6,20.3c-1.7,7.9,0.6,8.6,0,21.5c-0.6,12.3-1.2,20.8-6.3,24.1s-10.2-1.1-17.7,2.5c-3.8,2-6.9,5.1-8.9,8.9"/>
		<path class="st1" d="M-0.4,414.2c-6.9-0.8-13.4-3.4-19-7.6c-4.1-3.1-7.5-7-10.1-11.4c-2.1-3.5-3.2-7.1-5.1-29.1
			c-1.2-13.9-1-16.1,0-19c2.7-7.9,8.8-12.7,12.7-15.2"/>
		<path class="st1" d="M-10.5,428.1c-6.2-0.7-11.9-3.4-16.5-7.6c-5.2-5-8.4-11.8-8.9-19"/>
		<path class="st1" d="M-38.4,433.2c-6.7-6.6-11.6-14.9-13.9-24.1c-2.8-11.4-0.6-20.8,2.5-34.2c2.4-10,5.8-19.8,10.1-29.1"/>
		<path class="st1" d="M-10.5,464.9c-2.5,0.7-5,1.1-7.6,1.3c-7.5,0.4-8.5-2.1-13.9-1.3c-3.1,0.4-8.3,2-8.9,5.1
			c-0.4,2.1,1.7,4.2,2.5,5.1c2.1,2,4.7,3.3,7.6,3.8c11.8,2.7,11.6,6.6,17.7,6.3c6-0.2,10-4,17.7-11.4c5.7-5.4,9.8-9.4,8.9-13.9
			c-0.6-3.1-3.5-6.3-6.3-6.3c-3.6,0-4.1,4.9-11.4,8.9C-6.2,463.4-8.3,464.3-10.5,464.9z"/>
		<path class="st1" d="M6,429.4c-1.6,1.7-1.2,4.5,0,6.3c1.1,1.7,3,2.7,5.1,2.5c3.2-0.5,5.2-4.9,3.8-7.6c-1.2-2.4-4.7-2.5-5.1-2.5
			C8.4,428,7,428.5,6,429.4z"/>
		<path class="st1" d="M-11.8,395.2c-0.7,2.1,0.7,4.9,2.5,5.1s3.5-1.9,3.8-3.8c0.2-1.2,0-3.1-1.3-3.8
			C-8.3,391.8-11.1,393.1-11.8,395.2z"/>
		<path class="st1" d="M-23.2,164.7c2.5-1.7,4.6-3.8,6.3-6.3c1.1-1.6,6.1-8.9,3.8-17.7c-0.9-3.3-2.6-6.4-5.1-8.9"/>
		<path class="st1" d="M-75.1,100.1c5.8,7.2,10.6,12.8,13.9,16.5c6.3,6.9,12.2,14,17.7,21.5c4.9,6.7,7.2,10.7,6.3,15.2
			c-0.8,3-2.5,5.7-5.1,7.6"/>
		<path class="st1" d="M-66.2,111.6c1.3,3,3.5,7.4,6.3,12.7c5.5,10.1,8.3,13.6,10.1,20.3c1.2,4.5,1.6,9.2,1.3,13.9"/>
		<path class="st1" d="M-116.9,83.7c7.7,3.8,14.9,8.5,21.5,13.9c6.7,5.5,10.8,10.1,16.5,16.5c9.3,10.5,14,15.7,17.7,24.1
			c2.7,6,4.4,12.4,5.1,19"/>
		<path class="st1" d="M-119.5,87.5c8.6,7.5,16.7,15.5,24.1,24.1c6,6.9,10.5,12.2,15.2,20.3c4.4,7.6,7.8,15.6,10.1,24.1"/>
		<path class="st1" d="M-124.5,90.1c2.5,2.7,6,6.6,10.1,11.4c9.9,11.5,16.5,19.1,22.8,29.1c5,8,9.3,16.5,12.7,25.3"/>
		<path class="st1" d="M-130.8,95.1c2.3,2.4,5.3,5.9,8.9,10.1c7.9,9.6,15.1,19.8,21.5,30.4c3.2,5.3,7.2,12.1,11.4,20.3"/>
		<path class="st1" d="M-139.7,102.7c3.5,2.8,6.9,5.7,10.1,8.9c6.7,6.5,12.6,13.7,17.7,21.5c4.6,7.2,8.4,14.8,11.4,22.8"/>
		<path class="st1" d="M-146,106.5c4.7,2.8,8.9,6.2,12.7,10.1c2.7,2.9,5.5,6.5,13.9,21.5c2.3,4.1,5.3,9.7,8.9,16.5"/>
		<path class="st1" d="M-151.1,110.3c1.8,2.1,4.5,5.1,7.6,8.9c8.5,10.3,12.9,15.6,16.5,22.8c2.2,4.4,3.9,9.1,5.1,13.9"/>
		<path class="st1" d="M-153.6,119.1c1.8,1.1,3.5,2.4,5.1,3.8c4.1,3.6,7.5,7.9,10.1,12.7c3.8,6.7,6.4,14,7.6,21.5"/>
		<path class="st1" d="M-152.3,128c1.3,1.2,2.6,2.5,3.8,3.8c3.8,4,6.8,8.8,8.9,13.9c1.5,4.1,2.4,8.3,2.5,12.7"/>
		<path class="st1" d="M-154.9,133.1c2.9,4.7,5.1,9.8,6.3,15.2c0.9,3.7,1.3,7.6,1.3,11.4"/>
		<path class="st1" d="M-163.7,138.1c2.7,3.4,4.8,7.3,6.3,11.4c1.5,4.1,2.3,8.3,2.5,12.7"/>
		<path class="st1" d="M-172.6,140.7c3.8,3.5,6.9,7.9,8.9,12.7c1.3,3.2,2.2,6.6,2.5,10.1"/>
		<path class="st1" d="M-182.7,141.9c4.9,2.5,8.9,6.5,11.4,11.4c1.9,3.9,2.8,8.3,2.5,12.7"/>
		<path class="st1" d="M-192.9,141.9c2.1,5.3,4.7,10.3,7.6,15.2c2.7,4.4,5.6,8.7,8.9,12.7"/>
		<path class="st1" d="M-206.8,141.9c10.5,8.4,18,20,21.5,33"/>
		<path class="st1" d="M-220.7,144.5c13.2,8.6,21.9,22.4,24.1,38"/>
		<path class="st1" d="M-232.1,147c3.7,2.6,7.1,5.6,10.1,8.9c5.4,5.4,9.7,11.9,12.7,19c2.3,5.7,3.5,11.6,3.8,17.7"/>
		<path class="st1" d="M907.6,521.9c2.1,0.2,4.2,0.2,6.3,0c4.4-0.3,8.8-1.6,12.7-3.8c3.3-1.9,6.7-3.8,7.6-7.6
			c0.6-2.5,0.2-5.8-1.3-6.3c-2-0.8-4.5,4.1-8.9,7.6c-3.7,3-9.8,5.7-20.3,5.1"/>
		<path class="st1" d="M932.9,495.3c-0.4,0.8-0.4,1.7,0,2.5c0.9,1.9,4.2,2.1,6.3,1.3c2.4-0.9,4.4-3.5,3.8-5.1
			c-0.7-1.7-4.4-1.3-5.1-1.3C936.9,492.8,933.9,493.1,932.9,495.3z"/>
		<path class="st1" d="M944.3,196.4c2-2.1,4.1-4.2,6.3-6.3c4.3-4.1,8.5-7.9,12.7-11.4"/>
		<path class="st1" d="M827.8,198.9c9.9,8.7,21,15.9,32.9,21.5c10,4.7,26.8,12.4,49.4,12.7c8.1,0.1,16.2-0.8,24.1-2.5"/>
		<path class="st1" d="M832.9,171.1c6.4,8.1,14.7,14.6,24.1,19c14.1,6.4,27.1,5.9,44.3,5.1c12-0.6,23.8-2.3,35.5-5.1"/>
		<path class="st1" d="M837.9,162.2c4.5,4.2,9.6,7.6,15.2,10.1c14,6.3,26.9,5.2,40.5,3.8c11.2-1.2,22.3-3.7,32.9-7.6"/>
		<path class="st1" d="M844.3,150.8c14.9,4.1,30.5,4.5,45.6,1.3c8.4-1.8,16.5-4.8,24.1-8.9"/>
		<path class="st1" d="M934.2,163.5c13.6-3.8,25-12.9,31.7-25.3"/>
		<path class="st1" d="M921.5,134.3c14.6-5.1,27.1-14.9,35.5-27.9"/>
		<path class="st1" d="M934.2,103.9l8.9-8.9l10.1-10.1"/>
		<path class="st1" d="M849.4,142c1.5,0.1,3.7,0.1,6.3,0c9.5-0.4,20.1-3.8,43.1-15.2c10.7-5.3,20.9-11.7,30.4-19"/>
		<path class="st1" d="M940.5,64.7c1.3-1.9,2.5-4.1,3.8-6.3c1.5-2.6,2.7-5.2,3.8-7.6"/>
		<path class="st1" d="M853.2,133.1c3.3,0.9,6.7,1.3,10.1,1.3c5-0.1,11.7-1.3,24.1-8.9c8.2-5,15.9-11,22.8-17.7
			C920.9,97,929.9,84.6,936.7,71"/>
		<path class="st1" d="M931.7,54.6c5.2-6.4,7.1-14.8,5.1-22.8"/>
		<path class="st1" d="M860.8,119.2c2.5-0.8,6-2,10.1-3.8c6.6-2.9,20-8.6,31.6-20.3c11.2-11,18.7-25.1,21.5-40.5
			c2.3-13.2,0.9-26.7-3.8-39.3"/>
		<path class="st1" d="M940.5,21.6c-1.5,1-1.1,4.1,0,6.3s3.6,4.4,5.1,3.8c1.3-0.6,1.3-3.2,1.3-3.8c0-2.4-1.3-5.5-3.8-6.3
			C942.3,21.3,941.3,21.3,940.5,21.6z"/>
		<path class="st1" d="M905.1,5.2c-0.7-0.3-1.7-1-2.5-3.8c-1.4-4.4,0-6.1-1.3-7.6c-1.6-1.8-5.8-1.9-7.6,0c-1.8,1.9-1,5,0,8.9
			c0.8,3.1,1.5,5.6,3.8,7.6c3,2.6,6.7,2.5,8.9,2.5c2.5,0,6-0.1,7.6-2.5c1-1.6,1.1-4.1,0-5.1c-0.8-0.7-2.6-0.5-6.3,0
			C906.2,5.3,905.8,5.5,905.1,5.2z"/>
		<path class="st1" d="M892.4-11.3c-0.1-6.4-0.5-12.7-1.3-19c-0.7-5.5-1.5-10.5-2.5-15.2"/>
		<path class="st1" d="M851.9,107.8c5.6-0.4,11.2-1.7,16.5-3.8c7.1-2.9,13.6-7.2,19-12.7c8.5-8.1,15.1-18.1,19-29.1
			c2.8-8.2,6.4-18.6,2.5-30.4c-1.4-4.2-3.5-8-6.3-11.4"/>
		<path class="st1" d="M910.1,43.2c-4.9,0-9.7-1.3-13.9-3.8c-6.8-4.1-9.7-10.2-11.4-13.9c-3.2-7.3-3.5-13.8-3.8-26.6
			c-0.3-11.8,0.6-13.2,0-20.3c-0.8-8.3-2.9-16.5-6.3-24.1"/>
		<path class="st1" d="M878.5,97.6c-11.7-6.9-22-16-30.4-26.6c-10.5-13.4-17.8-29-21.5-45.6c-2.8-11.8-3.1-21.8-3.8-41.8
			c-0.4-12.1-0.2-22.2,0-29.1"/>
		<path class="st1" d="M760.7,95.1c-0.5,3.4,0,6.9,1.3,10.1c3.1,7.5,10.2,10.4,12.7,11.4c5.2,2,11,2.5,16.5,1.3
			c6.1-1.1,11.7-3.7,16.5-7.6"/>
		<path class="st1" d="M525.2,342c-9.1-4.3-16.9-10.8-22.8-19c-18.3-25.8-7.7-57.1-6.3-60.8"/>
		<path class="st1" d="M522.6,312.9c3.8,6.8,10.2,11.9,17.7,13.9"/>
		<path class="st1" d="M518.8,261c-6.3,11.3-6.8,25-1.3,36.7"/>
		<path class="st1" d="M542.9,261c-7.8,22.6-3,47.7,12.7,65.9"/>
		<path class="st1" d="M555.6,261c-4,5.5-6.2,12.2-6.3,19c-0.1,12.1,7.2,20.3,12.7,26.6c9.1,10,21,17.1,34.2,20.3
			c8.3,2,16.9,2.4,25.3,1.3"/>
		<path class="st1" d="M573.3,258.4c-1.5,13.3,2.7,26.6,11.4,36.7"/>
		<path class="st1" d="M594.8,257.2c-2.2,6.1-2.7,12.7-1.3,19c2.4,10.5,9.6,16.6,13.9,20.3c12.4,10.5,26.6,12.3,32.9,12.7"/>
		<path class="st1" d="M616.3,253.4c-0.3,1.9-2.1,15.3,7.6,26.6c9.3,10.8,22,11.3,24.1,11.4"/>
		<path class="st1" d="M629,250.9c0.4,2.3,2.5,13.3,12.7,20.3c4.5,3,9.8,4.8,15.2,5.1"/>
		<path class="st1" d="M648,244.5c1.2,9.6,7.5,17.9,16.5,21.5"/>
		<path class="st1" d="M668.3,235.7c2.9,5,7.4,9,12.7,11.4"/>
		<path class="st1" d="M688.5,224.3c2.9,4.5,7.5,7.6,12.6,8.9c4.3,0.9,8.7,0.5,12.7-1.3"/>
		<path class="st1" d="M706.3,210.3c3.5,2.9,7.3,5.5,11.4,7.6c4,2.1,8.3,3.8,12.7,5.1"/>
		<path class="st1" d="M751.8,209.1c-2.2,1.1-2.2,8.2,1.3,10.1c1.2,0.7,2.6,0.7,3.8,0c2-1.5,1.5-6.5-1.3-8.9
			C755.4,210.2,753.2,208.3,751.8,209.1z"/>
		<path class="st1" d="M786,172.3c-0.1-1.9-2.9-3.4-5.1-3.8c-1.6-0.3-4.1-0.2-11.4,5.1c-5.7,4.1-8.6,6.1-10.1,8.9
			c-0.3,0.4-4.5,8.1-1.3,15.2c0.3,0.6,2.3,5.2,5.1,5.1c3-0.1,4.8-5.6,5.1-6.3c1.7-4.9-0.4-6.6,1.3-10.1c0.5-1,1.1-1.8,7.6-6.3
			C784.2,175,786.2,174,786,172.3z"/>
		<path class="st1" d="M718.9,198.9c1.3,0.3,2.6,0.7,3.8,1.3c2.8,1.2,5.4,3,7.6,5.1c4.7,4.3,4.6,6.4,7.6,7.6c2.1,0.7,4.3,0.7,6.3,0"
			/>
		<path class="st1" d="M729,187.5c2.3,4.3,5.8,7.9,10.1,10.1c3.1,1.6,6.6,2.5,10.1,2.5"/>
		<path class="st1" d="M736.6,178.7c4,4.9,10.5,6.9,16.5,5.1"/>
		<path class="st1" d="M745.5,162.2c4.7,6.2,12.8,8.8,20.2,6.3"/>
		<path class="st1" d="M751.8,145.7c1.4,2.3,3.1,4.5,5.1,6.3c2.8,2.9,6.3,5.1,10.1,6.3c4.1,1.2,8.5,1.2,12.7,0"/>
		<path class="st1" d="M755.6,121.7c2.6,4.3,11.8,18.3,29.1,22.8c4.5,1.2,9.2,1.6,13.9,1.3"/>
		<path class="st1" d="M783.5,128c1,1.5,2.3,2.8,3.8,3.8c3.5,2.4,7.2,2.5,10.1,2.5c3,0.1,6-0.4,8.9-1.3"/>
		<path class="st1" d="M768.3,31.8c0.4,2.6,0.9,6.5,1.3,11.4c1,12.4,0.1,15.6,1.3,22.8c1.1,6.6,3.2,13,6.3,19
			c3.2,6.2,7.4,14.1,16.5,19c4.3,2.3,9.1,3.6,13.9,3.8"/>
		<path class="st1" d="M769.5,60.9c2.6,5.2,5.6,10.3,8.9,15.1c4.8,7.1,9.5,14,17.7,20.3c3.9,3,8.2,5.6,12.7,7.6"/>
		<path class="st1" d="M781,16.6c-3.1,6.9-5.2,14.1-6.3,21.5c-0.9,6.2-1.9,13,0,21.5c1.2,5.4,3.3,10.5,6.3,15.2
			c1.7,2.6,4.3,6,19,17.7c4.7,3.8,8.7,6.8,11.4,8.9"/>
		<path class="st1" d="M788.5,6.4c-2,5.4-3.7,10.9-5,16.5c-3.3,13.5-5.7,23.5-2.5,35.5c1.6,6.5,4.6,12.5,8.9,17.7
			c2.3,2.8,4,4.1,13.9,12.7c4.3,3.8,7.8,6.9,10.1,8.9"/>
		<path class="st1" d="M865.8-48c4.9,14.8,8.3,30.1,10.1,45.6c0.9,7.3,2.2,21.8,8.9,39.3c3.4,9,7.2,15.8,13.9,17.7
			c4.5,1.3,8.7-0.1,11.4-1.3"/>
		<path class="st1" d="M860.7-46.8c2.7,7.4,4.8,15.1,6.3,22.8c2.3,11.3,1.7,14.7,3.8,32.9c2.7,23.7,5.2,31.2,7.6,36.7
			c5.1,12.1,10.3,16.6,15.2,19c3.2,1.5,6.6,2.4,10.1,2.5"/>
		<path class="st1" d="M851.9-45.5c1.1,3.9,2.4,9.1,3.8,15.2c2.8,11.7,4.9,23.5,6.3,35.5c2.5,23.4-1.3,24,2.5,38
			c2.1,7.6,4.9,17.5,13.9,25.3c5.1,4.4,11.2,7.4,17.7,8.9"/>
		<path class="st1" d="M839.2-48c0.9,6.5,2.2,16.6,3.8,29.1c2.1,16.8,2.5,20.6,3.8,29.1c2.8,18.9,4.3,28.6,7.6,36.7
			c3.4,8.4,7.5,18.4,17.7,26.6c6.3,5,13.7,8.5,21.5,10.1"/>
		<path class="st1" d="M831.6-46.7c-1.7,15.1-1.7,30.4,0,45.6c1.4,14.7,4.8,29.2,10.1,43.1c5.3,13.6,9.6,24.4,20.3,34.2
			c6.9,6.3,15.1,11,24.1,13.9"/>
		<path class="st1" d="M812.6-45.5c1.8,13.5,2.3,24.5,2.5,31.7c0.6,21.4-1.4,27.7,1.3,43c1.5,8.8,3.1,17.8,8.9,27.9
			c5,8.8,10.5,14,21.5,24.1c8,7.3,16.4,14.1,25.3,20.3"/>
		<path class="st1" d="M806.3-24c-0.9,13.1-0.9,26.2,0,39.2c1.4,19.5,2.2,29.4,7.6,40.5s12.7,18.1,22.8,27.9
			c7.8,7.5,16.3,14.3,25.3,20.3"/>
		<path class="st1" d="M798.7-10c0.4,2.6,0.9,6.6,1.3,11.4c1.7,19.7-0.6,23.1,1.3,34.2c1.8,10.5,5.7,18,10.1,26.6
			c3.2,6.2,6.5,12.4,12.7,19c4.1,4.4,8.8,8.2,13.9,11.4"/>
		<path class="st1" d="M796.2-2.4c0.4,9,0.2,16.4,0,21.5c-0.5,11.3-1.6,15.4,0,22.8c1.3,5.7,3.3,9.5,6.3,15.2
			c3.7,7.1,7.3,11.7,13.9,20.3c2.7,3.5,6.5,8.3,11.4,13.9"/>
		<path class="st1" d="M793.6,1.4c-0.8,4.8-1.9,11.8-2.5,20.3c-0.8,10.6-1.2,16,0,22.8c1.3,7.2,3.9,14,7.6,20.3
			c2.9,4.7,6.2,8.2,12.7,15.2c4.6,4.9,8.6,8.8,11.4,11.4"/>
		<path class="st1" d="M792.4,2.6c-4.8,11.2-7.3,23.3-7.6,35.5c-0.1,8.2-0.2,15.7,3.8,24.1c2.5,5.2,5.9,9,12.7,16.5
			c6,6.7,11.4,11.8,15.2,15.2"/>
		<path class="st1" d="M995.6,147.6c11.9,4.6,37.9,12.6,67.1,3.8c14.7-4.4,24.8-11.4,35.5-19c19.3-13.8,36.1-31,49.4-50.6"/>
		<path class="st1" d="M981.1,93.8c22.7-5.1,44.2-14.6,63.3-27.9c55.2-38.6,70.7-97.3,74.7-115.2"/>
		<path class="st1" d="M979.8,30.5c13-3.1,25.4-8.2,36.7-15.2c33.4-20.6,47.9-51.3,53.2-64.6"/>
		<path class="st1" d="M1069.7,87.5c15.7-7.6,30.2-17.4,43.1-29.1c17.5-16.1,31.7-35.4,41.8-57"/>
		<path class="st1" d="M996.2,220.5c13.4,2.9,60.3,11.5,106.4-15.2c17.5-10.2,32.6-24,44.3-40.5"/>
		<path class="st1" d="M1067.2,266c31-11.4,58.4-30.6,79.8-55.7"/>
		<path class="st1" d="M1058.3,295.2c34.3,3.1,68-10,91.2-35.5"/>
		<path class="st1" d="M80.7,112.8c20.8,19.6,60.7,51.3,119,65.9c37.2,9.3,66.9,7.8,92.4,6.3c37.1-2.1,96.7-10.4,165.9-43.1"/>
		<path class="st1" d="M122.5-50.5c1.4,15.6,8.2,67.1,50.6,108.9c19.9,19.5,44.2,33.8,70.9,41.8"/>
		<path class="st1" d="M40.1-48c4,33.1,14.8,65,31.7,93.7c30.8,52.1,73.3,78.9,93.7,89.9"/>
		<path class="st1" d="M4.7-53.1c2.4,17.6,6.2,34.9,11.4,51.9C22.2,19,30.3,38.5,40.1,57.1"/>
		<path class="st1" d="M-80.2-48c10.3,26.5,23,51.9,38,76c15.8,25.4,34,49.1,54.4,70.9"/>
		<path class="st1" d="M-137.1-53.1c4.8,27.4,15.6,53.3,31.7,76c14,19.6,31.6,36.4,51.9,49.4"/>
		<path class="st1" d="M-752.6,311.6c15.3,15.2,33.3,27.2,53.2,35.5c33.4,13.6,60.3,10.9,88.6,11.4c0,0,71.5,1.3,135.5,26.6
			c28.7,11.3,80.8,39.7,126.6,120.3"/>
		<path class="st1" d="M-772.9,347.1c19.9,11,50.2,24.5,88.6,29.1c32.9,4,44.5-1.8,74.7,0c51.5,3.1,89.1,24.2,120.3,41.8
			c43.1,24.4,81,57.1,111.4,96.2"/>
		<path class="st1" d="M-776.7,399c17.8,4.5,36.1,7.1,54.4,7.6c14.4,0.4,28.8-0.5,43.1-2.5c12.6-1.5,41.9,1.2,133,39.2
			c48.1,20.1,93.7,46.1,135.5,77.2"/>
		<path class="st1" d="M-684.2,457.3c44.5-7.8,73,0.5,91.2,10.1c12.2,6.5,40,24.3,67.1,46.9c8.4,7,17.1,14.8,31.7,20.3
			c17.2,6.5,33.3,6.3,44.3,5.1"/>
		<path class="st1" d="M-772.9,450.9c10,0.7,20.6,1.2,31.7,1.3c13.9,0.1,27.1-0.4,39.2-1.3"/>
		<path class="st1" d="M-469,556c33-21.5,69.4-37.3,107.7-46.9c17-4.2,28.5-5.7,53.2-8.9c138.5-17.8,154-20.2,190-21.5
			c0,0,71.4-2.6,120.3,21.5c13.2,6.5,19.4,14.1,22.8,20.3c5.1,9.3,6.9,20,5.1,30.4"/>
		<path class="st1" d="M-379,314.2c-3.7-8.3-10.5-19.7-22.8-26.6c-15.6-8.7-22.6-0.4-48.1-7.6c-16.9-4.7-33.2-9.3-46.9-22.8
			c-4.2-4.1-8.2-9.1-15.2-10.1c-8.7-1.2-19.7,4.1-21.5,11.4c-1.4,5.6,3.7,8.4,15.2,27.9c8.6,14.6,9,18.6,8.9,21.5
			c-0.5,9.5-7.3,12.2-6.3,19c0.9,6.5,8,11.4,20.3,16.5c20.7,8.6,37.4,9.9,48.1,11.4c10.3,1.5,58.3,9.4,88.7,41.8
			c8.6,9.2,7.3,11.3,20.3,25.3c16.6,18,27.2,29.5,44.3,32.9c7.1,1.4,24.3,4.9,36.7-3.8c4.1-2.9,10.1-8.7,19-8.9
			c2.6,0.1,5.1,0.5,7.6,1.3c33.8,5.9,40.8,11.4,58.2,11.4c11,0,23.8,0,30.4-8.9c7.3-9.8,2.2-24.2,1.3-26.6
			c-5.7-15-20.4-21.3-24.1-22.8c-13.4-5.7-19.2-1.2-44.3-5.1c-11.5-1.8-17.2-2.7-22.8-5.1c-29.4-12.5-27.1-44-49.4-48.1
			c-3.7-0.7-2.8,0.4-32.9,0c-8.4-0.1-10.1-0.2-12.7-1.3c-9.2-3.9-10.4-12.6-21.5-21.5c-3.1-2.5-6.5-4.6-10.1-6.3"/>
		<path class="st1" d="M525.2,375c70,38.4,123.5,101,150.7,176"/>
		<path class="st1" d="M466.9,393.9c6.6,5.1,16.3,12.5,27.9,21.5c37.3,29.2,55.9,43.8,69.7,57c15.9,15.3,36.9,39.4,55.7,76"/>
		<path class="st1" d="M417.5,402.8c49.1,42.5,90.7,93,122.8,149.4"/>
		<path class="st1" d="M358,395.2c51.9,36.3,87.1,92,97.5,154.5"/>
		<path class="st1" d="M566.9,532l7.6,19"/>
		<path class="st1" d="M382.1,523.1l11.4,30.4"/>
		<path class="st1" d="M331.4,397.7c8.9,5.9,30.2,21.7,41.8,50.7c5.4,13.7,8,28.3,7.6,43.1"/>
		<path class="st1" d="M307.3,453.5c25,26,37.5,61.6,34.2,97.5"/>
		<path class="st1" d="M268.1,385.1c2.1,4.5,4.6,8.7,7.6,12.7c5.6,7.5,9.5,9.8,13.9,15.2c3.4,4.2,7.7,10.9,10.1,21.5"/>
		<path class="st1" d="M220,475c12.6,23.2,20.8,48.5,24.1,74.7"/>
		<path class="st1" d="M176.9,350.9c9.4,16.4,33.2,62.7,25.3,122.8c-3.5,26.5-12.6,51.9-26.6,74.7"/>
		<path class="st1" d="M59.1,299c26,11.4,47.9,30.3,63.1,54.2c42.1,66.4,22.3,154.4-44.1,196.5"/>
		<path class="st1" d="M330.2,249.6c39.6,6,128.3,13.6,220.3-32.9c30.7-15.5,58.9-35.5,83.6-59.5c75.5-74,94.4-164.9,100-203.9"/>
		<path class="st1" d="M568.2,153.3c32.8-13.8,62.2-34.5,86.1-60.8C704,37.7,713.9-24.4,716.4-48"/>
		<path class="st1" d="M668.3,29.2c6-9.6,11.1-19.8,15.2-30.4c5.8-15,9.7-30.8,11.4-46.8"/>
		<path class="st1" d="M599.9,74.8c15.3-14.2,28.2-30.9,38-49.4c12.3-23.1,19.6-48.6,21.5-74.7"/>
		<path class="st1" d="M534,74.8c16.4-15.3,30.1-33.3,40.5-53.2c12.1-23.2,19.4-48.6,21.5-74.7"/>
		<path class="st1" d="M525.2-2.4c3.4-5.4,6.8-11.3,10.1-17.7c4.3-8.2,8.1-16.7,11.4-25.3"/>
		<path class="st1" d="M256.7,33c18.5,20.3,41.5,35.9,67.1,45.6c11.9,4.4,32.9,12,60.8,10.1c4-0.3,19.1-1.5,39.3-8.9
			c38.6-14.2,65.4-39.9,81-58.2"/>
		<path class="st1" d="M293.4,101.4c20.2,4.3,62.9,11.7,110.2,6.3c24.2-2.8,44.5-8.3,55.7-11.4c16-4.4,24.2-6.8,31.7-11.4
			c7.8-4.9,25.6-18.4,34.2-53.2"/>
		<path class="st1" d="M218.7-48c13.5,24.7,32,46.3,54.5,63.3c12.6,9.6,51.3,38.7,100,38c55.4-0.8,107.5-39.8,136.8-97.5"/>
		<path class="st1" d="M230.1-18.9c-5.2-3.6-9.9-7.8-13.9-12.7c-4.1-5-7.6-10.5-10.1-16.5"/>
		<path class="st1" d="M282,21.6c21.2-1.8,58.6-8,96.2-32.9c14.5-9.6,27.7-21.1,39.3-34.2"/>
		<path class="st1" d="M344.1,36.8c27-4.9,52.3-16.7,73.5-34.2c15.6-13,28.5-28.9,38-46.9"/>
		<path class="st1" d="M284.5,367.4c42.1,3.1,101,1.6,165.9-20.3c18.7-6.3,36.9-13.9,54.5-22.8"/>
		<path class="st1" d="M-165-51.8c5.8,19.4,25,77.7,64.6,119c14.9,15.6,25.3,26.4,43,32.9c13,4.8,23.4,4.8,45.6,13.9
			c10,4.1,16.1,6.6,22.8,11.4C29.6,138.7,36.7,158,40.1,166c11.4,26.9,30.6,44.1,62.1,72.2c44,39.3,101.4,42.1,171,45.6
			c71.1,3.5,139-9.6,141.8-10.1c11.7-2.3,22.8-5,41.8-7.6c43.5-6.1,59-2.5,97.5-5.1s65.2-4.4,97.5-17.7c14.5-6,45.7-19.3,72.2-50.7
			c9.2-10.9,23-27.2,29.1-51.9c2.9-11.8,0.9-12.4,3.8-50.6c3.2-41.5,6.2-49.2,8.9-54.5c7.8-15.6,15-16.4,26.6-32.9
			c8.5-12.2,16.6-28.9,20.3-51.9"/>
		<path class="st1" d="M-196.7,238.2c14.3-9,30.2-15,46.9-17.7c22.8-3.6,41,0.2,54.5,3c16.8,3.6,28.8,8.9,34.2,10.9
			c43.6,16.2,70.2,32.4,101.3,49.4c0,0,57.2,31.4,116.5,57c73.8,31.9,149.5,64.6,243.1,58.2c28.7-1.9,74-8.6,127.9-32.9"/>
		<path class="st1" d="M379.5,220.5c-38.6,11.3-78.8,16.4-119,15.2c-36.6-1.1-72.9-7.5-107.6-19c-20.1-6.7-39.6-15.2-58.2-25.3"/>
		<path class="st1" d="M-438.5,53.3c-6-14.8-13.1-30.5-21.5-46.8c-9.6-18.7-20.2-36.9-31.7-54.5"/>
		<path class="st1" d="M-406.9,263.5c5.3-4.6,9.6-10.2,12.7-16.5c11.1-22.8,2-48-3.8-63.3c-25.4-67.3-38.1-101-44.3-112.7
			C-463.5,31-486.7-7.9-512-45.5"/>
		<path class="st1" d="M-465.2,268.6c4.6-2.9,8.8-6.3,12.7-10.1c26-26,24.5-64.3,24.1-74.7c-1.2-30.6-13.1-53.1-17.7-62.1
			c-22.6-43.3-48.5-97.8-81-169.7"/>
		<path class="st1" d="M-489.2,41.9c-4.6,5-10.2,8.9-16.5,11.4c-7.2,2.9-15.1,3.8-22.8,2.5c-4.1-0.7-13.4-2.4-20.3-10.1
			c-4.7-5.3-6-11.1-7.6-17.7c-1.2-5.1-2.6-11.3-1.3-19c0.3-1.6,0.5-2.2,6.3-21.5c0.7-2.4,1.7-5.9,0-8.9c-1.2-1.8-3-3.2-5.1-3.8
			c-6.6-2-14.1,4.9-19,8.9C-593-1.8-597.6-6.9-607,2.6c-15.9,16.2-20.2,48.2-11.4,70.9c3.5,9,9.4,17,7.6,29.1
			c-1.3,8.5-5.4,12.7-10.1,20.3c-2.1,3.4-16.2,26.4-15.2,53.2c0.3,8.9,1.1,31.8,16.5,44.3c7.4,6.1,15.1,7.2,17.7,15.2
			c2.2,6.7-1.8,10.1-1.3,20.3c0.6,7.7,3.3,15.1,7.6,21.5c10.2,14.4,28,16.7,35.5,17.7c13,1.6,26.2-0.6,38-6.3"/>
		<path class="st1" d="M-593,291.4c-4.6,5.3-12,12.3-20.3,11.4c-6.5-0.7-8.8-5.7-20.3-16.5c-15.7-14.7-18.8-12.4-25.3-21.5
			c-7.5-10.5-9-21.5-10.1-30.4c-1.8-14.3,0.8-20,2.5-38c1.1-11.2,3.4-35.2-1.3-62.1c-3.5-20.5-8.2-25.6-5.1-38
			c2.5-9.8,6.3-10.2,17.7-27.9c9.8-15.2,18.5-28.8,21.5-46.8c2.3-14.4-1.4-16.8,1.3-30.4c3.1-15.8,11.2-27.7,17.7-35.5"/>
		<path class="st1" d="M-116.9,69.8c1.2,3.6,2.2,8.9,0,13.9c-2.4,5.4-6.7,6.2-16.5,12.7c-10.9,7.3-18.4,12.3-20.3,20.3
			c-1.5,6.6,2.2,8.9,0,13.9c-0.9,2.1-3.9,6.8-21.5,10.1s-20.3-0.3-40.5,2.5c-3.8,0.5-3.1,0.6-22.1,3.7c-7.3,1.2-13.1,2.2-15.9,2.6
			c-13,1.9-26.2,2.3-39.3,1.3c-35.1-2.9-35.1-19-67.1-21.5c-5.5-0.4-16.7-0.9-25.3-8.9c-3.3-3.2-5.9-7.1-7.6-11.4
			c-8.1-19-12.1-28.5-17.7-45.6c-11.8-36-17.8-37.1-16.5-51.9c0.5-5.7,2.9-13.1,7.6-27.9c4.3-13.3,8.4-24.2,11.4-31.7"/>
		<path class="st1" d="M-620.9,511.7c12.2,5.6,24,11.9,35.5,19c10.1,6.2,19.8,13,29.2,20.3"/>
		<path class="st1" d="M-771.6,491.5c44.7-3.3,89.7,1,133,12.7"/>
		<path class="st1" d="M-772.9,561.1c11.9-8.7,24.7-16.4,38-22.8c15.9-7.6,22.4-8.5,25.3-8.9c9.4-1,16.5,0.8,34.2,6.3
			c11.8,3.7,25.9,8.3,41.8,13.9"/>
		<path class="st1" d="M-289.1,554.8c24.7-20.5,47.8-26,59.5-27.9c13.8-2.1,42.8-4,72.2,8.9c19.4,8.5,27.4,18.2,41.8,15.2
			c5.7-1.2,12-4.3,30.4-8.9c7.2-1.8,12.5-2.9,15.2,0c3.3,3.5,0.7,10.8,0,12.7"/>
		<path class="st1" d="M808.8,111.6c-4.5,19-1.5,21.9-5.1,29.1c-4,8.1-8.8,6.1-25.3,19c-10.6,8.3-17.5,13.6-22.8,22.8
			c-8.3,14.3-2.8,20.6-11.4,31.7c-4.4,5.6-10.5,8.8-22.8,15.2c-18.4,9.6-23.6,8.7-34.2,15.2c-11,6.8-16.8,14.9-25.3,26.6
			c-19.1,26.4-15.5,38.9-32.9,53.2c-4.5,3.7-12.9,10.6-25.3,12.7c-9.8,1.6-19.7-0.6-39.2-5.1c-16.4-3.7-18.8-5.4-24.1-3.8
			c-10.6,3.3-19.3,16.1-19,27.9c0.5,19.7,25.9,33.3,43.1,36.7c13.9,2.8,28.6,0.2,36.7-1.3c7.4-1.3,9.8-2.4,24.1-5.1
			c13.5-2.5,14.4-2,17.7-3.8c10.4-5.5,9-13.8,19-20.3c5.8-3.8,8-2.1,21.5-5.1c13.2-3,24.6-5.5,32.9-12.7
			c11.2-9.6,6.5-18.4,16.5-32.9c8.2-11.8,14.7-10.8,36.7-25.3c23-15.2,37.7-24.8,46.8-43c6.6-13.5,10.5-28.1,11.4-43.1
			c0.1-4.7-0.2-9.3,1.3-16.5c2-9.7,5.4-15.3,11.4-26.6c10.3-19.4,15.5-29.2,15.2-35.5c-0.5-9.5-5.7-20.1-15.2-25.3
			c-7.2-4-18.6-5.6-25.3,0C813.5,97.8,811.5,100.1,808.8,111.6z"/>
		<path class="st1" d="M1003.8,552.2c-1.7-2.7-7.7-12.7-3.8-20.3c1-2,4.8-7.7,26.6-8.9c18.5-0.9,23.8,2.7,45.6,5.1
			c25.9,2.8,30.9-1,49.4,3.8c9.8,2.5,19.1,6.4,27.9,11.4"/>
		<path class="st1" d="M889.8,509.2c1.1-0.3,2.9-0.8,5.1-1.3c16.6-3.5,23,1.4,27.9-2.5c6.5-5.4-0.4-18.4,6.3-22.8
			c2.8-1.8,5.2-0.5,11.4,0c10.7,0.8,20.9-2,26.6-5.1c11.9-6.4,7.6-15.7,19-24.1c11.8-8.7,19.3-0.9,34.2-8.9
			c10.6-5.7,22.3-18,22.8-31.7c0.5-14.3-11.8-17-11.4-31.7c0.4-14.7,12.9-16.2,15.2-32.9c1.8-13.5-4.2-28.3-13.9-36.7
			c-10.1-8.7-16.4-3.8-22.8-11.4c-11.4-13.6,3.6-35.8-7.6-45.6c-0.8-0.7-6-2.2-16.4-5.1c-17.1-4.8-21.2-5.2-22.8-8.9
			c-2.1-4.8,1-12.4,6.3-15.2c5.7-3,12.3,0.4,16.5,2.5c9.4,4.8,8.9,10.1,16.5,12.7c7.3,2.5,9.5-1.9,17.7,0c5.5,1.3,7,3.8,19,13.9
			c16.2,13.8,17.3,12.5,19,16.5c4.2,9.9-3.6,15.3,0,29.1c1.7,6.5,3.7,6.3,8.9,16.5c4.3,8.5,9.9,19.4,10.1,31.7
			c0.3,14.4-7.1,16.6-8.9,34.2c-1,10.4,0.9,15.4,2.5,26.6c2.9,20.7,6.1,43-3.8,60.8c-9.6,17.4-32,31.3-53.2,32.9
			c-12.6,1-22-2.7-27.9,3.8c-4.4,4.9-2.6,10.8-5.1,25.3c-1.3,7.8-3.5,15.4-6.3,22.8"/>
		<path class="st1" d="M1034.2,393.9c-15.7-0.2-31.4-1.9-46.9-5c-14.7-2.9-29.1-7.2-43-12.7c-14.2-5.8-27.5-11.2-41.8-22.8
			c-11.7-9.5-21.6-21.1-29.1-34.2"/>
		<path class="st1" d="M1043.1,328.1c-17.5,12.5-38.1,19.9-59.5,21.5c-18.2,1.2-36.3-1.9-53.1-8.9c-8.2-3.4-24-10.2-38-25.3
			c-11.5-12.4-9-16.7-25.3-36.7c-14.9-18.2-23.2-22.3-27.9-24.1c-8.5-3.1-17.7-4-26.6-2.5"/>
		<path class="st1" d="M818.9,239.5c9.8-1.5,19.8-0.6,29.1,2.5c5.2,1.8,12.8,5.2,35.5,26.6c22.7,21.4,23.2,24.3,31.7,29.1
			c13.9,7.9,28.2,9.1,38,8.9"/>
		<path class="st1" d="M1001.3,255.9c-6.5,5.9-21.7,18-44.3,21.5c-13.6,2.1-27.5,0.8-40.5-3.8c-27.9-10.2-30.6-29.2-59.5-41.8
			c-10-4.3-20.8-6.9-31.7-7.6"/>
		<path class="st1" d="M788.5,273.6c8.3-0.2,16.6,1.6,24.1,5.1c14.3,6.8,21.5,18.6,32.9,38c23.7,40.1,22.6,39.6,26.6,45.6
			c25.1,37.4,65.4,52.5,87.4,60.8c22.3,8.3,45.8,13,69.6,13.9"/>
		<path class="st1" d="M711.3,349.6c12,6.2,24.8,10.9,38,13.9c7.3,1.6,19.6,3.9,38,8.9c6.9,1.9,16.1,4.5,22.8,12.7
			c2.1,2.7,3.9,5.7,5.1,8.9c8.8,22.2,13.7,45.1,20.3,59.5c8.1,18,21.3,28.6,32.9,38c19.4,15.7,32.9,17.8,41.8,34.2
			c4.3,8.2,6.5,17.3,6.3,26.6"/>
		<path class="st1" d="M744.3,301.5c10.5,2.9,20.3,7.6,29.1,13.9c12.4,9,19.3,19.2,32.9,39.3c7,10.4,10.6,15.6,13.9,22.8
			c6.6,14.2,5.7,19.8,12.7,31.7c5.2,8.7,7.8,9.3,15.2,19c11.4,14.9,15,26.3,19,34.2c6.5,12.7,20.5,28.8,54.5,41.8"/>
		<path class="st1" d="M768.3,287.6c10.4,1.7,20.3,5.6,29.1,11.4c12.2,8,18.8,17.6,24.1,25.3c9.5,14,10.3,21.1,17.7,36.7
			c9.7,20.4,20.7,34.1,27.9,43.1c8,10,22.5,27.8,46.8,44.3c17.5,11.8,36.7,20.8,57,26.6"/>
		<path class="st1" d="M725.2,325.6c6-0.8,12.2,0.1,17.7,2.5c6.8,3.2,10.5,8.2,13.9,12.7c5.2,6.9,13.1,16.6,24.1,29.1"/>
		<path class="st1" d="M724,338.2c14.1,3.9,26.3,13,34.2,25.3"/>
		<path class="st1" d="M691.1,443.3c0.9-8.4,3.5-16.6,7.6-24.1c5.4-9.8,13.3-18.1,22.8-24.1"/>
		<path class="st1" d="M669.5,520.6c6.1-51.5,40.2-95.4,88.6-114"/>
		<path class="st1" d="M642.9,480.1c-0.9-7.9-3.3-36.6,15.2-64.6c11.1-16.6,27-29.4,45.6-36.7"/>
		<path class="st1" d="M629,428.1c3.6-7.5,7-14.3,10.1-20.3c8.1-15.5,10.8-19.2,12.7-21.5c4.7-5.9,10.2-11,16.5-15.2"/>
		<path class="st1" d="M689.8,510.5c21.7-34.8,62.1-53.2,102.6-46.8"/>
		<path class="st1" d="M688.5,551c2.1-8.2,11.3-41.5,43.1-59.5c9.4-5.3,19.7-8.7,30.4-10.1"/>
		<path class="st1" d="M711.3,547.2c4.8-7.4,19.3-27.7,46.9-38c15-5.6,31.1-7.3,46.9-5.1"/>
		<path class="st1" d="M734.1,551c25.1-11.9,52.1-19.2,79.8-21.5"/>
		<path class="st1" d="M850.6,539.6c-1.1-0.6-1.5-1.6-2.5-3.8c-2.1-4.5-3.2-6.8-3.8-7.6s-3.2-4-6.3-3.8c-3.4,0.2-3.8,4.1-7.6,5.1
			c-4.7,1.2-9.4-3.2-10.1-3.8c-3.3-3-4.1-6.6-5.1-11.4c-0.5-2.4-1-4.4,0-5.1c1-0.7,2.9,0.9,7.6,3.8c5.1,3.1,7.6,4.7,10.1,5.1
			c4.8,0.7,5.6-1.9,10.1-1.3c6.7,0.9,10.7,7.6,11.4,8.9c2.6,4.6,4.1,11.8,1.3,13.9C854.1,540.5,852.2,540.5,850.6,539.6z"/>
		<path class="st1" d="M658.1,364.8c10.4,4.7,21.6,7.6,32.9,8.9c8.7,0.9,11.4,0,16.5,2.5c9.9,5,9.6,13.4,20.3,19
			c3.7,1.9,3.3,0.7,15.2,3.8c12.3,3.2,19.3,5,25.3,8.9c4,2.6,9.7,7.4,16.5,21.5c7.3,15.2,7.6,24.1,12.7,49.4c0,0,9.7,48,24.1,57
			c1.6,1,5.6,3.5,10.1,2.5c2.5-0.6,4.7-1.9,6.3-3.8l0,0c4.9,2.4,5.1,2.5,5.1,2.5c2.2,1.3,4.6,4.6,5.1,13.9"/>
		<path class="st1" d="M-375.2-2.4c-0.6,7.5-2.7,14.9-6.3,21.5c-4.7,8.5-8.5,9.3-10.1,15.2c-3,10.7,5.2,23.4,12.7,30.4
			c6.9,6.5,10.8,5.7,35.4,16.5c11.8,5.1,17.8,7.8,21.5,10.1c20.4,12.8,17,24.2,32.9,34.2c22,13.7,49.2,5.1,53.2,3.8
			c8.4-2.7,16.3-5.2,21.5-12.7c6.1-8.8,3-16.7,10.1-22.8c4.4-3.8,7.2-2.2,17.7-5.1c8.4-2.3,21.3-5.9,27.9-15.2
			c7.6-10.7,4.1-25.2,2.5-30.4"/>
		<path class="st1" d="M-370.2-46.7c-1-0.4-7.6-3.2-12.7,0c-5.6,3.5-5.2,11.7-5.1,15.2c0.4,8.9,5,15.1,8.9,20.3
			c4.2,5.6,13.3,17.6,30.4,22.8c10.8,3.3,19.4,2.2,26.6,1.3c8.1-1,15.6-2.1,19-7.6c2.4-3.9,1.8-8.3,1.3-11.4
			c-2.3-14.8-5.2-28.5-7.6-39.3"/>
		<path class="st1" d="M-361.3-48c-1.1,10.1,6.6,18.7,15.2,19c9,0.3,17.6-8.4,16.5-19"/>
		<path class="st1" d="M-275.2,28c6.2-6.5,11-14.3,13.9-22.8c8.9-26.3-3.7-49.8-6.3-54.5"/>
		<path class="st1" d="M-382.8,17.8c7.2,4.9,14.8,9.1,22.8,12.7c6.9,3.3,14.1,5.8,21.5,7.6c11.6,2.6,23.6,3.1,35.4,1.3"/>
		<path class="st1" d="M-343.6,81.2c2.4-3.1,5.4-5.7,8.9-7.6c4.3-2.3,9.1-3.6,13.9-3.8c17.4-1.3,25.7-0.7,31.7-1.3
			c13.4-1.4,22.6-9.6,31.7-17.7c33.3-29.8,26.9-90.8,26.6-93.7"/>
		<path class="st1" d="M-261.2,134.4c-0.8-13.6,0.5-31.8,12.7-44.3c3.6-3.8,5-3.6,11.4-8.9c6.3-5.1,22.2-18,30.4-38
			c7.4-18.1,5.8-35.3,3.8-45.6"/>
		<path class="st1" d="M-223.3-46.8c12.1,38,30,59.5,44.3,72.2c5.2,4.6,2.7,1.7,41.8,30.4c18.8,13.8,28.9,21.5,46.9,34.2
			c19.5,13.8,29.5,20.8,36.7,24.1c24.3,11.1,33.4,6.2,46.9,15.2c9.5,6.4,21,19.6,25.3,50.6"/>
		<path class="st1" d="M-180.2,87.5c-6.4-9.9-7.5-18-7.6-22.8c-0.1-2.8,0.2-5.5,2.5-16.5c1.9-9.1,3.8-16.5,5.1-21.5"/>
		<path class="st1" d="M-375.2,285c6.1-11.2,10.8-23.1,13.9-35.5c2.8-11.1,3.5-23,5.1-46.9c1.9-29.2,0.8-36.1,0-40.5
			c-2.1-10.7-5.9-21-11.4-30.4"/>
		<path class="st1" d="M-310.6,334.4c6.3-10.1,10.6-21.2,12.7-32.9c2.6-15.2,0.3-26.5-3.8-48.1c-2.3-12-6.2-32.5-11.4-60.8"/>
		<path class="st1" d="M-299.2,148.3c28.4,43.8,43.8,94.7,44.3,146.9"/>
		<path class="st1" d="M-208.1,397.7c2.8-34,0.2-68.1-7.6-101.3"/>
		<path class="st1" d="M-243.5,143.2c15.3,26.9,28.8,54.9,40.5,83.6c3.1,7.6,7.7,19.4,12.7,34.2c8.2,24.2,12.4,36.7,15.2,54.5
			c2.5,16.8,3.4,33.7,2.5,50.7c-0.4,12.2-1.5,22.6-2.5,30.4"/>
		<path class="st1" d="M-267.6,150.8c5.6,6.4,10.6,13.1,15.2,20.3c11.7,18.3,17,34.2,20.3,44.3c5.4,16.8,8.8,34.3,10.1,51.9"/>
		<path class="st1" d="M-51,442.1c-5.4-2-15.3-6.6-20.3-16.5c-7.2-14.1,0-30.2,6.3-44.3c7.4-16.5,17.2-27,24.1-34.2
			c4.9-5.2,14.3-12.4,32.9-26.6c23.4-17.9,30.3-22.1,40.5-24.1c7.1-1.3,14.4-1.3,21.5,0"/>
		<path class="st1" d="M-59.9,444.6c-4.6-2.6-30-17.2-34.2-44.3c-2.4-15.1,2.8-28,6.3-36.7c5.5-13.6,12.8-22.4,22.8-34.2
			c8.5-10.1,14.8-17.5,25.3-25.3c6.7-5,22.9-16.5,46.9-20.3c10.1-1.5,20.3-1.5,30.4,0"/>
		<path class="st1" d="M-63.7,443.3c-7.6-4.2-26.5-16.1-35.5-39.2c-7.3-18.7-4.6-35.4-2.5-48.1c2.1-14.8,7.3-29.1,15.2-41.8
			c17.9-28.3,44.2-39.4,53.2-43c9.3-3.8,19.1-6.3,29.1-7.6"/>
		<path class="st1" d="M-75.1,443.3c-12.3-9.1-23-20.3-31.7-32.9c-5.7-8.4-14.8-21.9-19-41.8c-1.9-9-8.2-38.1,7.6-65.9
			c8.7-15.4,20.4-23.7,31.7-31.7c14.9-10.6,31.7-18.3,49.4-22.8"/>
		<path class="st1" d="M-115.6,419.3c-8.6-15.4-14.6-32.1-17.7-49.4c-2-10.9-4.6-26.1-1.3-45.6c3.4-18.9,11.2-36.6,22.8-51.9
			c12.3-16.3,28.4-29.3,46.8-38"/>
		<path class="st1" d="M-144.8,380c-2.4-24.2-3.4-44.9-3.8-60.8c-0.5-20.4-0.1-30.7,3.8-43.1c2.5-7.9,6.2-19.5,16.5-30.4
			c13.5-14.4,30.1-18.8,38-20.3"/>
		<path class="st1" d="M-152.3,367.4c-2.9-8.2-5-16.7-6.3-25.3c-0.6-4.3-2.1-15.6,1.3-50.6c2.2-22.9,3.4-34.5,7.6-44.3
			c4.5-10.4,11-19.9,19-27.9"/>
		<path class="st1" d="M-162.5,344.6c-0.7-8.7-1.8-19.9-3.8-32.9c-4.8-31.3-9.9-43-6.3-60.8c2-9.5,5.9-18.6,11.4-26.6"/>
		<path class="st1" d="M-191.6,259.7c0.2-5.2,0.6-10.7,1.3-16.5c0.4-3.1,0.8-6,1.3-8.9"/>
		<path class="st1" d="M1068.4,387.6c3.2,3,15.7,13.8,34.2,13.9c27.8,0.2,43.3-23.8,44.3-25.3"/>
		<path class="st1" d="M1067.1,472.5c25.2,9,53.1,6.2,76-7.6"/>
		<path class="st1" d="M1069.7,467.4c15.2,0.9,30.3-3.1,43.1-11.4c14-9.3,24.3-23.2,29.1-39.3"/>
		<path class="st1" d="M1058.3,482.6c1.2,5.7,4.3,15.7,12.7,24.1c1.8,1.8,8.4,8.1,29.1,13.9c13.6,3.8,27.7,6,41.8,6.3"/>
		<path class="st1" d="M1058.3,483.9c9.8,12.9,23.6,22.2,39.2,26.6c12.4,3.3,25.6,3.3,38,0"/>
		<path class="st1" d="M1063.4,478.8c3.5,4.5,7.8,8.4,12.7,11.4c10.4,6.5,20.5,7.2,27.9,7.6c12.1,0.6,24.3-1.6,35.4-6.3"/>
		<path class="st1" d="M1055.8,487.7c0.4,20.8,16.1,38.1,36.7,40.5"/>
		<path class="st1" d="M991.2,552.3c0.6-8.9,1.1-18.2,1.3-27.9c0.1-6.5,0.1-12.9,0-19"/>
		<path class="st1" d="M1012.7,524.4c0.5-2.9,0.9-5.9,1.3-8.9c0.5-3.9,0.9-7.7,1.3-11.4"/>
		<path class="st1" d="M1026.6,523.1c0.7-4.6,1.1-9.3,1.3-13.9c0.1-3.1,0.1-6.1,0-8.9"/>
		<path class="st1" d="M1041.8,521.9c2.2-8.4,1.8-17.2-1.3-25.3"/>
		<path class="st1" d="M1055.8,496.5c1.6,5.8,2,11.8,1.3,17.7c-0.4,3.5-1.3,6.9-2.5,10.1"/>
		<path class="st1" d="M1072.2,409.1c5.5,2.6,11.6,3.9,17.7,3.8c6-0.1,10.4-1.6,16.5-3.8c7.1-2.5,10.5-4.6,19-8.9
			c4.5-2.2,10.9-5.4,19-8.9"/>
		<path class="st1" d="M1145.7,381.3c-6.8,14.6-14.9,28.6-24.1,41.8c-13.8,19.8-21.6,25.6-29.1,29.1c-6,2.8-12.4,4.5-19,5.1"/>
		<path class="st1" d="M1128,414.2c-4.8,5.7-18.3,20.1-39.3,22.8c-4.6,0.6-9.3,0.6-13.9,0"/>
		<path class="st1" d="M1112.8,350.9c-1.2-1.3-2.7-1.7-3.8-1.3c-0.6,0.3-1,0.7-1.3,1.3c-0.9,1.6-0.9,3.5,0,5.1
			c0.6,1.1,2.2,2.9,3.8,2.5c1.8-0.4,2.8-3.1,2.5-5.1c-0.3-1.6-1.2-2.9-2.5-3.8l0,0"/>
		<path class="st1" d="M949.4-26.5c9.4-1.4,18.8-3.5,27.9-6.3c11.4-3.6,22.4-8.2,32.9-13.9"/>
		<path class="st1" d="M986.1,228.1c5.1-5.2,9.4-11.2,12.7-17.7c3.2-6.4,6.8-13.7,6.3-22.8c-0.6-10.9-6.4-10.2-8.9-22.8
			s2.7-17-1.3-30.4c-0.7-2.2-1.1-3.2-5.1-11.4c-9.2-19.2-13.8-28.8-13.9-29.1c-6.1-18.4-2.1-37.6-1.3-41.8
			c1.5-7.5,3.9-13.5,2.5-22.8c-0.9-5.3-2.6-10.4-5.1-15.2c-4.2-8.1-6.8-8.1-13.9-17.7c-8.9-12-7.8-16.1-15.2-21.5
			c-3.1-2.3-9.3-6.8-15.2-5.1c-6.6,1.9-5.6,9.4-13.9,13.9c-5.4,3-7,0.5-15.2,3.8c-4.2,1.7-9.4,3.9-12.7,8.9s-5.5,13.8-1.3,19
			c4.6,5.7,14.4,4.4,19,3.8c4.9-0.7,5.6-1.8,15.2-3.8c9.1-1.8,11.7-1.4,12.7,0c1.3,1.7-0.6,3.6,0,7.6c0.5,3.4,2.3,5.2,5.1,8.9
			c1.3,1.8,3.4,5.4,7.6,12.7c4.6,7.9,6.9,11.9,7.6,15.2c1.2,5.5-0.4,5.9,0,15.2c0.2,4.1,0.5,4.3,2.5,17.7
			c1.6,10.5,2.4,15.7,2.5,17.7c0.7,9.1,0,12.4,2.5,17.7c1.8,3.9,2.9,3.4,5.1,7.6c2.9,5.5,4.2,11.6,3.8,17.7c-0.8,10-6.3,11-6.3,20.3
			c0,6,2.4,6.1,2.5,12.7c0,1.6,0.1,11.4-6.3,19c-5,5.9-8.3,3.8-15.2,10.1c-1.3,1.2-11.5,10.7-8.9,17.7c1.1,3.1,5,4.6,12.7,7.6
			c5.4,2.1,10.9,3.8,16.5,5.1"/>
		<path class="st1" d="M-601.9,249.6c5.8,7.7,13.1,14.2,21.5,19c11.3,6.4,21.5,7.9,27.9,8.9c8.4,1.2,16.9,1.2,25.3,0"/>
		<path class="st1" d="M-524.7,242c16.1,6.4,33.3,9.8,50.7,10.1c9.8,0.2,19.5-0.7,29.1-2.5"/>
		<path class="st1" d="M-571.5,195.1c2.8,5.3,6.7,10.1,11.4,13.9c8.3,6.8,16.9,8.6,24.1,10.1c32.7,6.8,49.1,10.2,60.8,10.1
			c14.1-0.1,28.1-1.8,41.8-5.1"/>
		<path class="st1" d="M-633.6,158.4c8.5,17.2,20.6,32.3,35.5,44.3c6.7,5.4,13.9,10,21.5,13.9"/>
		<path class="st1" d="M-565.2,173.6c13.6,21.3,28.4,27.1,35.5,29.1c5.1,1.4,13.1,1.4,29.1,1.3c20.6-0.1,30.9-0.2,40.5-2.5
			c11.8-2.9,23-8.1,32.9-15.2"/>
		<path class="st1" d="M-612,109c4.1,14.3,11,27.6,20.3,39.3c5.2,6.6,11.2,12.5,17.7,17.7"/>
		<path class="st1" d="M-538.6,154.6c21.9,5.8,44.5,7.9,67.1,6.3c12.8-0.9,25.6-3,38-6.3"/>
		<path class="st1" d="M-620.9,39.4c5,13.5,10.9,26.6,17.7,39.3c6.4,11.9,14.7,27.1,29.1,44.3c8.1,9.6,17,18.5,26.6,26.6"/>
		<path class="st1" d="M-451.2,112.8c-23.5,14.7-52.6,17.5-78.5,7.6"/>
		<path class="st1" d="M-471.5,76.1c-8.9,13.1-18.8,16.6-22.8,17.7c-4.7,1.3-8.6,1.3-16.5,1.3c-9.1,0-15.5,0-22.8-2.5
			c-7.9-2.8-14.8-7.6-20.3-13.9"/>
		<path class="st1" d="M-599.4-6.2c0.3,9.1,2,18,5.1,26.6c3.9,10.8,8.9,18.1,16.5,29.1c5.5,7.9,11.4,15.5,17.7,22.8"/>
		<path class="st1" d="M-484.1,59.6c-2.5,3-5.5,5.6-8.9,7.6c-12.8,7.5-26.8,3.8-31.7,2.5c-10.8-2.8-17.7-8.5-22.8-12.7
			c-4.5-3.7-13.3-10.9-19-22.8c-9.2-19.2-4.4-38.2-2.5-44.3"/>
		<path class="st1" d="M-557.6,20.4c4.1,0.9,17,3.3,29.1-3.8c3.9-2.3,12.2-7.1,13.9-16.5c0.7-3.8,0.2-7.8-1.3-11.4"/>
		<path class="st1" d="M-556.3,20.4c4.9,6,11.5,10.4,19,12.7c13.6,4.1,28.3,0.1,38-10.1"/>
	</g>

		<image style="overflow:visible;" width="3168" height="5630" xlink:href="products-no-bg/buenaonda_summer21_BeachBag_front_no-bg.png"  transform="matrix(8.397408e-02 0 0 8.397408e-02 116.9851 13.613)">
	</image>
</g>
<g id="Layer_3_copy" class="st2">
	<g class="st3">

			<rect x="-1911.7" y="-10.9" transform="matrix(-1 -4.489710e-11 4.489710e-11 -1 -895.8394 901.7592)" class="st0" width="2927.5" height="923.5"/>
		<path class="st4" d="M-1896.4,8.2c14.8-0.3,30.1-1,45.7-1.9c28.7-1.7,56-4.3,81.9-7.6"/>
		<path class="st4" d="M-1896.4,42.4c26.9-1.6,53.7-5.4,80-11.4c32.8-7.5,64.7-18.3,95.2-32.4"/>
		<path class="st4" d="M-1898.3,57.7c34.2,4.5,69,3.2,102.8-3.8c44.1-9.3,85.7-28.2,121.8-55.2"/>
		<path class="st4" d="M-1900.3,86.2c40.7-2.3,80.9-9.3,120-20.9c35-10.4,68.8-24.4,100.9-41.9"/>
		<path class="st4" d="M-1911.7,105.3c6.6,0.1,16.5,0.2,28.6,0c37.7-0.7,71.6-1.3,102.8-9.5c19.8-5.2,52.2-17.1,87.6-47.6"/>
		<path class="st4" d="M-1898.4,131.9c6.1-0.3,14.7-0.8,24.8-1.9c33.1-3.8,65.7-11.5,97.1-22.9c29.2-10.4,57.3-23.8,83.8-40"/>
		<path class="st4" d="M-1904.1,151c10.6-0.1,25.7-0.5,43.8-1.9c29.5-2.3,57.4-4.5,85.7-13.3c19.6-6.1,50.6-18.8,83.8-47.6"/>
		<path class="st4" d="M-1900.3,183.4c26.3-2,52.3-5.8,78.1-11.4c16.8-3.4,33.3-7.8,49.5-13.3c26.9-9.4,52.5-22.2,76.2-38.1"/>
		<path class="st4" d="M-1896.4,194.8c6.2-0.3,14.7-0.9,24.7-1.9c13.4-1.2,26.8-3.1,40-5.7c20.2-4.1,15.9-5.8,49.5-15.2
			c19.7-5.5,30.1-7.4,43.8-15.2c3.4-2,9.2-5.5,15.2-9.5c8.9-5.9,15.9-11.3,20.9-15.2"/>
		<path class="st4" d="M-1902.2,211.9c6.3-0.3,14.8-0.8,24.7-1.9c19.9-2.3,39.7-6.1,59-11.4c27.3-7.4,40.9-11.1,49.5-17.1
			c9.5-6.7,17.2-15.1,32.4-19c6.2-1.6,12.6-2.3,19-1.9"/>
		<path class="st4" d="M-1900.2,231c34.7-4.9,63-10.6,83.8-15.2c24.2-5.4,36.1-9.1,47.6-13.3c16.5-6.2,32.4-13.8,47.6-22.8"/>
		<path class="st4" d="M-1900.2,257.6c6.4-0.2,12.7-0.8,19-1.9c15.5-2.7,24.7-7.1,36.2-11.4c22.5-8.5,24.2-5.5,47.6-13.3
			c15.1-5.1,29.8-11.5,43.8-19.1"/>
		<path class="st4" d="M-1900.3,276.6c12.9-0.3,25.7-2.2,38.1-5.7c14.7-4.2,17.7-7.6,40-15.2c16.3-5.5,18.6-5,30.5-9.5
			c12-4.5,23.5-10.3,34.3-17.1"/>
		<path class="st4" d="M-1898.4,299.5l17.1-3.8c29.7-6.6,44.5-9.9,49.5-11.4c13.2-3.8,40-11.8,66.6-32.4c6.8-5.2,13.1-11,19-17.1"/>
		<path class="st4" d="M-1896.4,312.8c10.9-0.3,21.7-1.6,32.4-3.8c16.9-3.5,20-6.7,41.9-13.3c28.3-8.5,32.9-6.2,47.6-13.3
			c11.5-5.6,21.8-13.4,30.5-22.9"/>
		<path class="st4" d="M-1898.3,328.1c4.2,0.1,10.1,0.2,17.1,0c16.3-0.5,34.6-0.9,55.2-7.6c17.9-6,34.6-15,49.5-26.7
			c11.4-8.8,21.6-19.1,30.5-30.5"/>
		<path class="st4" d="M-1898.4,358.5c6.9,1.2,13.9,1.9,20.9,1.9c8.3,0,18.7-0.8,38.1-5.7c22.3-5.7,33.5-8.5,45.7-15.2
			c14.8-8,27.8-19,38.1-32.4c5.3-7.1,9.8-14.7,13.3-22.8"/>
		<path class="st4" d="M-1896.4,383.4c3.2,0.1,7.8,0.2,13.3,0c12.9-0.3,25.7-2.2,38.1-5.7c12.6-3.7,21.2-8.3,30.5-13.3
			c12.1-6.6,23.5-14.3,34.3-22.8c8.5-6.5,14.8-12,22.9-19.1c8.7-7.6,15.8-14.2,20.9-19"/>
		<path class="st4" d="M-1896.4,400.4c14,1.4,28.1,0.8,41.9-1.9c10.5-2.1,20.7-5.3,30.5-9.5c13.6-5.2,26.4-12.3,38.1-20.9
			c6.2-4.7,14.3-12.7,30.5-28.6c6.4-6.2,11.6-11.6,15.2-15.2"/>
		<path class="st4" d="M-1894.6,409.9c6.3,1,12.7,1.6,19,1.9c5.7,0.3,23.4,0.7,51.4-5.7c25.8-5.9,40.8-9.3,57.1-20.9
			c9.6-6.8,17.9-15.2,24.8-24.7"/>
		<path class="st4" d="M-1898.4,430.9c4.2,0.1,10.1,0.2,17.1,0c9.6-0.1,19.1-0.8,28.6-1.9c13-1.8,25.8-5,38.1-9.5
			c10.6-3.9,23.7-8.6,38.1-19.1c12.8-9.3,23.8-20.9,32.4-34.3"/>
		<path class="st4" d="M-1900.2,455.6c6.1-0.6,15.4-1.3,26.7-1.9c26.5-1.4,31.8-0.1,49.5-1.9c20.3-2,30.7-3.2,41.9-9.5
			c12.2-6.9,19.6-16.3,24.8-22.8c7.2-9.2,13-19.5,17.1-30.5"/>
		<path class="st4" d="M-1704.1,486.1c-0.2,3.2-0.2,6.3,0,9.5c0.4,6.1,1.8,16.4,9.5,32.4c5.7,11.6,12.7,22.5,20.9,32.4
			c15.4,18.8,30.8,30.1,41.9,38.1c9.7,7,19.9,13.4,30.5,19"/>
		<path class="st4" d="M-1715.5,480.4c-0.4,9.6,0.2,19.1,1.9,28.6c2.6,13.3,7.1,26.1,13.3,38.1c5.3,10.2,14.1,26.9,32.4,41.9
			c8.6,7.1,18.3,12.8,28.6,17.1"/>
		<path class="st4" d="M-1719.4,478.5c-4.6,2.9-8.6,6.8-11.4,11.4c-1.4,2.3-5.4,9.6-3.8,32.4c1.1,15.6,1.7,23.4,5.7,32.4
			c2.9,6.5,5.9,10,22.9,28.6c5.2,5.7,12.3,13.5,20.9,22.9"/>
		<path class="st4" d="M-1727,469c-7.4,7.7-13.2,16.7-17.1,26.7c-7.6,19.4-5.5,36.5-3.8,49.5c1.4,10.6,3.1,23.6,11.4,38.1
			c5,8.7,11.4,16.4,19,22.9"/>
		<path class="st4" d="M-1732.7,461.4c-9.8,8-18.2,17.7-24.7,28.6c-10.7,17.9-13.4,34-15.2,45.7c-1.7,11.1-3.6,23.9,0,40
			c1.7,7.3,4.2,14.3,7.6,20.9"/>
		<path class="st4" d="M-1746,474.7c-25.7,20.8-42.1,50.9-45.7,83.8c-1,8.9-1,17.8,0,26.7"/>
		<path class="st4" d="M-1894.6,476.6c12.4,0.2,22.8,0.1,30.5,0c19.5-0.3,24.3-1,28.6-1.9c6.5-1.4,8.6-2.8,26.7-11.4
			c30.8-14.7,36.7-16.5,47.6-24.7c5.4-4.1,10.5-8.5,15.2-13.3"/>
		<path class="st4" d="M-1896.5,493.7c8.2,0.7,16.5,0.7,24.7,0c9.7-0.9,19.3-2.8,28.6-5.7c9.9-2.9,19.4-6.7,28.6-11.4"/>
		<path class="st4" d="M-1896.4,509c14.8-1.1,29.5-3.7,43.8-7.6c7.7-2.1,15.4-4.7,22.8-7.6"/>
		<path class="st4" d="M-1896.4,522.3c10.4,1.9,19.7,7.3,26.7,15.2"/>
		<path class="st4" d="M-1881.2,528c11.6,1.3,23.3,0,34.3-3.8"/>
		<path class="st4" d="M-1822.2,573.7c-1.2-6.3-1.2-12.7,0-19c1.7-8.7,5.1-12.9,15.2-28.6c9.2-14.3,6.5-10.9,19-30.5
			c0.8-1.3,7.5-11.7,17.1-24.7c6.7-9.2,10.6-13.8,17.1-17.1c4.7-2.4,9.9-3.7,15.2-3.8"/>
		<path class="st4" d="M-1835.5,566.1c0.9-1.8,2.3-4.4,3.8-7.6c8.3-16.9,12.2-27.3,15.2-34.3c6.5-14.8,13.5-24.2,26.7-41.9
			c14-18.9,20.5-23.7,26.7-26.7c6.5-3.2,13.7-5.2,20.9-5.7"/>
		<path class="st4" d="M-1843.1,560.4c-0.1-1.9-0.1-3.8,0-5.7c0.7-12.3,5.5-21.2,9.5-28.6c11.9-21.4,17.8-32.1,20.9-36.2
			c11.3-14.5,22.2-22.7,32.4-30.5c9.7-7.3,16.4-11.1,24.7-13.3c4.4-1.1,8.8-1.8,13.3-1.9"/>
		<path class="st4" d="M-1856.5,547c4.2-11.2,9.3-22,15.2-32.3c7.3-12.6,17.9-30.6,38.1-47.6c9.7-8.1,25.5-21.2,49.5-26.7
			c3.8-0.9,7.6-1.5,11.4-1.9"/>
		<path class="st4" d="M-1660.3,425.2c2.7-0.5,5.5,0.2,7.6,1.9c2.4,2.1,2.2,5.3,1.9,13.3c-0.4,12.1-0.6,18.1,0,20.9
			c0.9,4.5,2.2,9,3.8,13.3c1.6,3.9,3,6.2,1.9,7.6c-1.2,1.7-5.2,1.1-7.6,0c-5.5-2.4-7.3-8.4-7.6-9.5c-1-3.4-0.6-5.6,0-11.4
			c1.3-13.6,1.9-20.5,0-24.8c-1.9-4.3-5.1-7.2-3.8-9.5C-1663.2,425.9-1661.8,425.2-1660.3,425.2z"/>
		<path class="st4" d="M-1635.6,505.1c-2.2,6.1-8.4,8.5-11.4,9.5c-3.6,1.3-11.3,3.2-13.3,0c-1.2-2-0.2-5.5,1.9-7.6
			c3.8-3.8,8.8-0.6,13.3-3.8c5.6-4,3.7-13.2,5.7-13.3C-1637.4,489.7-1633,498-1635.6,505.1z"/>
		<path class="st4" d="M-1647,539.4c-2.3,1-3.8,3.2-3.8,5.7c0,2.6,1.7,5.4,3.8,5.7c2.9,0.4,6-4,5.7-7.6c0-1.5-0.7-2.9-1.9-3.8
			C-1644.4,538.9-1645.8,538.9-1647,539.4z"/>
		<path class="st4" d="M-1629.9,522.3c-4.2,2.3-7.1,7.6-5.7,9.5c1.1,1.5,4.6,0.7,7.6,0c2.5-0.6,9.1-2.2,9.5-5.7
			c0-1.5-0.7-2.9-1.9-3.8C-1623.1,519.9-1627.5,521-1629.9,522.3z"/>
		<path class="st4" d="M-1367.2,512.8c-3.7,1-11.6,4-11.4,7.6c0.2,2.8,5.2,5.4,9.5,5.7c4.7,0.3,5.5-2.2,9.5-1.9
			c6.9,0.5,8.8,8.3,13.3,7.6c3.4-0.5,6.3-5.5,5.7-9.5c-0.9-6.2-9.8-8.6-13.3-9.5C-1358.2,511.6-1362.8,511.6-1367.2,512.8z"/>
		<path class="st4" d="M-1449,495.6c-8-4.2-12.1-6.4-15.2-9.5c-5.3-5.3-6.5-9.8-9.5-9.5c-3.2,0.3-6.4,6.3-5.7,11.4
			c0.4,2.9,2.1,5.6,9.5,11.4c5.4,4.3,11.1,8.1,17.1,11.4c8.8,4.9,6.1,2.6,24.8,11.4c6.5,3.1,10.6,5.2,15.2,3.8
			c2.5-0.8,2.9-1.8,7.6-3.8c6.3-2.6,8.7-2,9.5-3.8c1.4-2.8-2.4-8.7-7.6-11.4c-6.2-3.2-9.6,0.6-19.1,0
			C-1427.9,506.7-1434.9,503-1449,495.6z"/>
		<path class="st4" d="M-1553.7,38.6c1.7-0.6,1.8-9.8-1.9-17.1c-6.6-12.9-22.8-15-24.7-15.2c-7.9-0.9-19.5,0.5-20.9,5.7
			c-0.7,2.6,1.2,6.1,3.8,7.6c4.3,2.4,7.7-2.4,15.2-1.9c6.6,0.4,11.6,4.6,15.2,7.6c3.4,2.9,6.6,6.1,9.5,9.5
			C-1555.2,37.5-1554.4,38.9-1553.7,38.6z"/>
		<path class="st4" d="M-1546.1,107.2c-1.2,0.9-1.9,2.3-1.9,3.8c0.6,2.6,3.1,4.3,5.7,3.8c1.3-0.1,2.5-0.8,3.2-1.9
			c1.2-1.9,0.6-4.5-1.3-5.7C-1542.1,106-1544.4,106-1546.1,107.2z"/>
		<path class="st4" d="M-1319.5,61.5c-2.1,1.9,0.8,5.3,0,11.4c-0.8,5.6-3.6,6.2-3.8,11.4c-0.2,4.2,1.2,9.1,3.8,9.5s5.2-4.8,5.7-5.7
			c1-1.9,1.9-4.4,1.9-15.2c0-8.8-0.5-10.5-1.9-11.4C-1315.5,60.3-1317.8,60.3-1319.5,61.5z"/>
		<path class="st4" d="M-1243.3,31c-1.4,0.2-2.8,0.9-3.8,1.9c-1.2,1.2-2.9,3.8-1.9,5.7c1.2,2.3,5.1,1.9,5.7,1.9
			c3.6-0.3,7.9-2.9,7.6-5.7c-0.2-1.8-2.2-3.3-3.8-3.8C-1240.8,30.7-1242.1,30.7-1243.3,31c0.6,0.1,1.3,0.1,1.9,0"/>
		<path class="st4" d="M-1275.7,29.1c-1.9-1.5-1.9-2.8-3.8-5.7s-3.3-5.1-5.7-5.7c-2.1-0.6-4.4,0.2-5.7,1.9c-1.1,2,0.3,4.6,1.9,7.6
			c1.6,2.8,3.5,5.3,5.7,7.6c9.4,10.1,9.7,13.1,13.3,13.3c3,0,5.8-1.4,7.6-3.8c1.8-2.1,2.5-4.9,1.9-7.6c-0.7-2.8-2.9-5-5.7-5.7
			c-2.1-0.5-3,0.7-5.7,0C-1273.3,30.7-1274.6,30-1275.7,29.1z"/>
		<path class="st4" d="M-1239.6,206.2l-17.1-5.7c-6.6-2.2-8.5-2.9-9.5-1.9c-1.3,1.4-0.3,5.3,1.9,7.6c2.5,2.6,4.7,1.2,9.5,3.8
			c4.4,2.3,3.7,4.1,7.6,5.7c4.4,1.9,6.1,0,9.5,1.9c2.3,1.3,3.5,3.4,5.7,7.6c3.6,6.8,2.8,8.9,5.7,11.4c2.5,2.1,6.8,3.7,9.5,1.9
			c3.4-2.3,2.1-8.6,1.9-9.5c-0.7-3.2-2.3-5.3-5.7-9.5c-2.7-3.3-5.7-6.4-9-9.1l-0.5-0.4C-1232.8,207.9-1236.1,206.6-1239.6,206.2z"/>
		<path class="st4" d="M-972.9,720.3c-1.5,3.8-5.5,3.4-9.5,7.6c-2.4,2.5-5.2,7.1-3.8,9.5c1.7,2.9,9.2,1.5,13.3,0
			c4.8-1.7,8.9-5.1,11.4-9.5c2.8-5.1,2.4-9.7,1.9-15.2c-0.4-5.1-1.2-14-5.7-15.2c-2.6-0.7-6.1,1.2-7.6,3.8c-1.1,1.9-0.7,3.5,0,13.3
			C-972.6,719.2-972.7,719.6-972.9,720.3z"/>
		<path class="st4" d="M-957.7,773.6c5.7,4.5,8.4,6.3,11.4,5.7c3.1-0.6,6.1-3.5,5.7-5.7c-0.3-1.9-3.1-2.9-5.7-3.8
			c-6-2.1-8.8-1.1-13.3-1.9c-8.4-1.6-13-8-13.3-7.6C-973.4,760.8-963.9,768.7-957.7,773.6z"/>
		<path class="st4" d="M-1011,771.7c-1.4,1.5-2.1,3.6-1.9,5.7c0.5,3,3,6.1,5.7,5.7c2.7-0.4,4.1-4.6,3.8-7.6
			c-0.2-2.2-1.5-5.4-3.8-5.7C-1008.7,769.8-1010.1,770.5-1011,771.7z"/>
		<path class="st4" d="M-1012.9,752.7c4.8,5.4,9.8,10.5,15.2,15.2c7.8,6.9,13,11.5,20.9,15.2c7.2,3.3,14.9,5.3,22.9,5.7"/>
		<path class="st4" d="M-934.9,857.4c-0.3-0.1-1.3-0.5-1.9,0c-1.8,1.4,1.1,9.8,5.7,15.2c5.7,6.6,14.2,10.1,22.8,9.5
			c6.9-0.5,11.6-3.8,17.1-7.6c6.7-4.6,12.1-8.4,11.4-11.4C-881.6,855.1-925.3,860.7-934.9,857.4z"/>
		<path class="st4" d="M-691.1,737.4c-2.6,1.3-9.4,4.7-9.5,9.5c-0.1,3.6,3.7,3.9,5.7,9.5c2,5.6-0.6,8.4,1.9,11.4
			c2.2,2.6,6.9,3.6,9.5,1.9c2.2-1.5,1.9-4.3,1.9-15.2c0-13.9,0.6-17.8-1.9-19.1C-685.4,734.6-687.7,735.8-691.1,737.4z"/>
		<path class="st4" d="M-723.5,649.9c9.8,4.5,14.8,2.2,28.6,5.7c6.8,1.8,10.3,2.7,13.3,5.7c6.7,6.7,5.9,17.3,5.7,19
			c-1.2,12.9-10.4,14.3-11.4,26.7c-0.5,6.6,1.4,16.1,7.6,19c4.3,2,9.7,0.5,13.3-1.9c11.3-7.6,9.1-28.2,7.6-43.8
			c-1.1-11-3.2-29-15.2-40c-1.9-1.7-8.3-7.5-13.3-5.7c-3.4,1.2-4.1,5.2-7.6,5.7c-2.5,0.3-4.6-1.2-7.6-3.8
			c-11.2-9.5-11.7-12.8-15.2-13.3c-7.1-1-17.7,11.1-15.2,19C-731.8,646-727.9,647.8-723.5,649.9z"/>
		<path class="st4" d="M-997.7,552.7c2.6,5.1,6.7,13.1,11.4,22.9c11.9,24.6,16,35.2,22.9,49.5c7.9,16.3,15.8,32.7,28.6,49.5
			c10,13.1,26.9,34.8,57.1,49.5c5,2.4,45.3,21.5,76.2,11.4c4.1-1.4,12.8-4.7,15.2-5.7c18-7.1,27-10.6,32.4-15.2
			c3.6-3.1,8.1-10.3,17.1-24.7c8.8-14.1,11-19.4,17.1-20.9c6.5-1.6,13.3,2,17.1,5.7c8.6,8.4,6.6,22.1,5.7,28.6
			c-2.1,14.8-8.2,15.4-11.4,30.5c-2.6,11.9,0.9,13,0,32.4c-0.9,18.5-1.7,31.2-9.5,36.2s-15.3-1.7-26.7,3.8
			c-5.7,3-10.4,7.6-13.3,13.3"/>
		<path class="st4" d="M-738.7,691.8c-10.4-1.2-20.2-5.2-28.6-11.4c-6.2-4.6-11.4-10.5-15.2-17.1c-3.1-5.3-4.8-10.7-7.6-43.8
			c-1.7-20.9-1.5-24.3,0-28.6c4-11.9,13.3-19.1,19-22.9"/>
		<path class="st4" d="M-754,712.7c-9.3-1.1-17.9-5.1-24.8-11.4c-7.8-7.6-12.6-17.7-13.3-28.6"/>
		<path class="st4" d="M-795.9,720.3c-10.1-9.9-17.4-22.4-20.9-36.2c-4.2-17.1-0.9-31.2,3.8-51.4c3.5-15.1,8.7-29.7,15.2-43.8"/>
		<path class="st4" d="M-754,767.9c-3.7,1.1-7.6,1.7-11.4,1.9c-11.2,0.6-12.7-3.1-20.9-1.9c-4.6,0.7-12.5,3-13.3,7.6
			c-0.6,3.2,2.5,6.3,3.8,7.6c3.2,3,7.1,5,11.4,5.7c17.8,4.1,17.4,9.9,26.6,9.5c9-0.3,15-6,26.7-17.1c8.5-8.1,14.7-14.1,13.3-20.9
			c-0.9-4.6-5.2-9.5-9.5-9.5c-5.4-0.1-6.2,7.4-17.1,13.3C-747.5,765.7-750.7,767-754,767.9z"/>
		<path class="st4" d="M-729.2,714.6c-2.3,2.5-1.8,6.8,0,9.5c1.6,2.6,4.6,4.1,7.6,3.8c4.8-0.8,7.8-7.3,5.7-11.4
			c-1.9-3.7-7.1-3.8-7.6-3.8C-725.6,712.5-727.7,713.2-729.2,714.6z"/>
		<path class="st4" d="M-755.9,663.2c-1.1,3.2,1.1,7.3,3.8,7.6c2.7,0.3,5.2-2.8,5.7-5.7c0.3-1.8,0-4.6-1.9-5.7
			C-750.7,658-754.8,660-755.9,663.2z"/>
		<path class="st4" d="M-773,316.6c3.7-2.6,7-5.8,9.5-9.5c1.6-2.3,9.1-13.4,5.7-26.7c-1.3-5-4-9.6-7.6-13.3"/>
		<path class="st4" d="M-851.1,219.5c8.6,10.8,16,19.2,20.9,24.7c9.4,10.3,18.3,21.1,26.7,32.4c7.4,10.1,10.9,16.1,9.5,22.9
			c-1.1,4.6-3.8,8.6-7.6,11.4"/>
		<path class="st4" d="M-837.7,236.7c2,4.5,5.2,11.1,9.5,19c8.2,15.2,12.5,20.4,15.2,30.5c1.8,6.8,2.5,13.9,1.9,20.9"/>
		<path class="st4" d="M-913.9,194.8c11.5,5.7,22.4,12.8,32.4,20.9c10,8.2,16.3,15.2,24.7,24.7c14,15.7,21,23.6,26.7,36.2
			c4,9.1,6.6,18.7,7.6,28.6"/>
		<path class="st4" d="M-917.8,200.5c12.9,11.2,25,23.3,36.2,36.3c9,10.4,15.8,18.3,22.9,30.5c6.6,11.4,11.7,23.5,15.2,36.2"/>
		<path class="st4" d="M-925.3,204.4c3.7,4,9,9.9,15.2,17.1c14.9,17.2,24.8,28.7,34.3,43.8c7.6,12,14,24.8,19,38.1"/>
		<path class="st4" d="M-934.9,212c3.4,3.7,8,8.8,13.3,15.2c11.8,14.5,22.6,29.7,32.4,45.7c4.8,7.9,10.8,18.1,17.1,30.5"/>
		<path class="st4" d="M-948.3,223.4c5.3,4.2,10.4,8.6,15.2,13.3c10.1,9.8,19,20.6,26.7,32.4c6.9,10.8,12.7,22.3,17.1,34.3"/>
		<path class="st4" d="M-957.7,229c7,4.2,13.4,9.3,19,15.2c4.1,4.3,8.3,9.7,20.9,32.4c3.4,6.1,8,14.6,13.3,24.7"/>
		<path class="st4" d="M-965.3,234.8c2.8,3.1,6.8,7.7,11.4,13.3c12.9,15.5,19.4,23.4,24.7,34.3c3.3,6.7,5.9,13.7,7.6,20.9"/>
		<path class="st4" d="M-969.1,248.1c2.7,1.7,5.2,3.6,7.6,5.7c6.1,5.4,11.3,11.9,15.2,19.1c5.7,10,9.6,21,11.4,32.4"/>
		<path class="st4" d="M-967.2,261.4c2,1.8,3.9,3.7,5.7,5.7c5.8,6.1,10.3,13.2,13.3,20.9c2.3,6.1,3.6,12.5,3.8,19"/>
		<path class="st4" d="M-971.1,269c4.4,7,7.6,14.7,9.5,22.8c1.3,5.6,1.9,11.4,1.9,17.1"/>
		<path class="st4" d="M-984.4,276.6c4,5.2,7.3,11,9.5,17.1c2.2,6.1,3.5,12.5,3.8,19"/>
		<path class="st4" d="M-997.7,280.5c5.8,5.3,10.3,11.8,13.3,19.1c2,4.9,3.3,10,3.8,15.2"/>
		<path class="st4" d="M-1012.9,282.4c7.4,3.7,13.4,9.7,17.1,17.1c2.9,5.9,4.2,12.5,3.8,19"/>
		<path class="st4" d="M-1028.3,282.4c3.2,7.9,7,15.5,11.4,22.9c4,6.6,8.4,13,13.3,19"/>
		<path class="st4" d="M-1049.1,282.3c15.8,12.7,27.1,30.1,32.4,49.6"/>
		<path class="st4" d="M-1070.1,286.2c19.8,12.9,33,33.7,36.2,57.1"/>
		<path class="st4" d="M-1087.2,290c5.5,3.9,10.6,8.4,15.2,13.3c8.2,8.2,14.6,17.9,19,28.6c3.4,8.5,5.3,17.5,5.7,26.6"/>
		<path class="st4" d="M626.5,853.6c3.2,0.3,6.4,0.3,9.5,0c6.7-0.5,13.2-2.4,19-5.7c4.9-2.8,10-5.8,11.4-11.4
			c0.9-3.7,0.3-8.7-1.9-9.5c-3-1.1-6.8,6.2-13.3,11.4c-5.6,4.5-14.7,8.6-30.5,7.6"/>
		<path class="st4" d="M664.6,813.6c-0.5,1.2-0.5,2.6,0,3.8c1.4,2.8,6.2,3.2,9.5,1.9c3.6-1.4,6.7-5.3,5.7-7.6
			c-1.1-2.5-6.7-2-7.6-1.9C670.6,809.9,666,810.4,664.6,813.6z"/>
		<path class="st4" d="M681.7,364.2c3-3.1,6.2-6.3,9.5-9.5c6.4-6.2,12.8-11.9,19-17.1"/>
		<path class="st4" d="M506.5,368c14.9,13,31.6,23.9,49.5,32.4c15.1,7.1,40.2,18.6,74.3,19.1c12.2,0.1,24.3-1.1,36.2-3.8"/>
		<path class="st4" d="M514.1,326.1c9.7,12.2,22.1,22,36.2,28.6c21.3,9.7,40.7,8.8,66.6,7.6c18-0.8,35.8-3.4,53.3-7.6"/>
		<path class="st4" d="M521.7,312.8c6.7,6.3,14.5,11.4,22.9,15.2c21,9.5,40.5,7.8,60.9,5.7c16.9-1.7,33.5-5.6,49.5-11.4"/>
		<path class="st4" d="M531.3,295.7c22.4,6.1,45.9,6.8,68.5,1.9c12.6-2.8,24.8-7.3,36.2-13.3"/>
		<path class="st4" d="M666.5,314.7c20.4-5.7,37.6-19.4,47.6-38.1"/>
		<path class="st4" d="M647.5,270.9c21.9-7.6,40.7-22.4,53.3-41.9"/>
		<path class="st4" d="M666.5,225.2l13.3-13.3l15.2-15.2"/>
		<path class="st4" d="M538.9,282.4c2.2,0.1,5.5,0.2,9.5,0c14.3-0.6,30.2-5.6,64.7-22.9c16.1-8,31.4-17.6,45.7-28.6"/>
		<path class="st4" d="M676,166.2c1.9-2.9,3.8-6.1,5.7-9.5c2.2-3.9,4.1-7.8,5.7-11.4"/>
		<path class="st4" d="M544.6,269c5,1.3,10.1,2,15.2,1.9c7.5-0.1,17.6-1.9,36.2-13.3c12.4-7.6,23.9-16.5,34.3-26.7
			c16.2-16.2,29.7-34.8,40-55.2"/>
		<path class="st4" d="M662.7,151c7.8-9.6,10.6-22.3,7.6-34.3"/>
		<path class="st4" d="M556.1,248.1c3.8-1.2,9.1-3.1,15.2-5.7c10-4.3,30.1-13,47.6-30.5c16.8-16.5,28.1-37.8,32.4-60.9
			c3.4-19.8,1.4-40.2-5.7-59"/>
		<path class="st4" d="M676,101.5c-2.2,1.5-1.6,6.2,0,9.5s5.4,6.7,7.6,5.7c2-0.9,1.9-4.8,1.9-5.7c-0.1-3.6-1.9-8.2-5.7-9.5
			C678.6,100.9,677.2,100.9,676,101.5z"/>
		<path class="st4" d="M622.7,76.7c-1.1-0.4-2.5-1.5-3.8-5.7c-2-6.6,0-9.1-1.9-11.4c-2.4-2.7-8.7-2.8-11.4,0
			c-2.8,2.8-1.5,7.5,0,13.3c1.2,4.6,2.2,8.4,5.7,11.4c4.5,3.9,10,3.8,13.3,3.8c3.7,0,9.1-0.1,11.4-3.8c1.5-2.4,1.7-6.1,0-7.6
			c-1.2-1-4-0.7-9.5,0C624.4,77,623.7,77.1,622.7,76.7z"/>
		<path class="st4" d="M603.6,52c-0.1-9.6-0.7-19.1-1.9-28.6c-1-8.2-2.3-15.8-3.8-22.8"/>
		<path class="st4" d="M542.7,231c8.5-0.6,16.8-2.6,24.7-5.7c10.7-4.4,20.4-10.9,28.6-19c12.9-12.1,22.6-27.1,28.6-43.8
			c4.3-12.3,9.7-28,3.8-45.7c-2.1-6.2-5.3-12.1-9.5-17.1"/>
		<path class="st4" d="M630.3,133.8c-7.4,0-14.6-1.9-20.9-5.7c-10.2-6.2-14.6-15.3-17.1-20.9c-4.9-10.9-5.2-20.8-5.7-40
			c-0.5-17.7,0.9-19.8,0-30.5c-1.1-12.5-4.4-24.7-9.5-36.2"/>
		<path class="st4" d="M582.7,215.7c-17.5-10.4-33-24-45.7-40c-15.8-20.2-26.8-43.6-32.4-68.5c-4.2-17.7-4.7-32.8-5.7-62.8
			c-0.6-18.2-0.3-33.3,0-43.8"/>
		<path class="st4" d="M405.6,211.9c-0.7,5.2-0.1,10.4,1.9,15.2c4.7,11.2,15.3,15.6,19,17.1c7.9,3.1,16.5,3.7,24.7,1.9
			c9.1-1.6,17.6-5.6,24.8-11.4"/>
		<path class="st4" d="M51.5,583.2c-13.7-6.5-25.4-16.3-34.3-28.6c-27.6-38.8-11.5-85.8-9.5-91.4"/>
		<path class="st4" d="M47.7,539.4c5.7,10.3,15.3,17.8,26.6,20.9"/>
		<path class="st4" d="M41.9,461.4c-9.5,17-10.2,37.6-1.9,55.2"/>
		<path class="st4" d="M78.1,461.4c-11.7,34-4.5,71.7,19,99"/>
		<path class="st4" d="M97.2,461.3c-6,8.3-9.3,18.3-9.5,28.6c-0.1,18.1,10.8,30.6,19,40c13.7,15.1,31.6,25.7,51.4,30.5
			c12.5,3,25.4,3.6,38.1,1.9"/>
		<path class="st4" d="M123.8,457.5c-2.2,20,4,40,17.1,55.2"/>
		<path class="st4" d="M156.2,455.6c-3.3,9.1-4,19.1-1.9,28.6c3.7,15.8,14.4,24.9,20.9,30.5c18.6,15.8,39.9,18.5,49.5,19"/>
		<path class="st4" d="M188.6,449.9c-0.5,2.9-3.2,23.1,11.4,40c14,16.2,33.1,17.1,36.2,17.1"/>
		<path class="st4" d="M207.6,446.1c0.6,3.4,3.7,20,19,30.5c6.8,4.6,14.7,7.2,22.9,7.6"/>
		<path class="st4" d="M236.2,436.6c1.8,14.5,11.2,26.9,24.7,32.4"/>
		<path class="st4" d="M266.6,423.3c4.4,7.5,11.1,13.5,19,17.1"/>
		<path class="st4" d="M297.1,406.1c4.4,6.7,11.2,11.5,19,13.3c6.4,1.4,13.1,0.7,19.1-1.9"/>
		<path class="st4" d="M323.7,385.2c5.3,4.4,11,8.2,17.1,11.4c6.1,3.2,12.4,5.7,19,7.6"/>
		<path class="st4" d="M392.3,383.3c-3.2,1.7-3.3,12.4,1.9,15.2c1.8,1,4,1,5.7,0c3.1-2.3,2.2-9.8-1.9-13.3
			C397.7,384.9,394.4,382.1,392.3,383.3z"/>
		<path class="st4" d="M443.7,328c-0.2-2.8-4.3-5.1-7.6-5.7c-2.4-0.4-6.1-0.3-17.1,7.6c-8.6,6.1-12.9,9.2-15.2,13.3
			c-0.4,0.7-6.8,12.2-1.9,22.9c0.4,1,3.5,7.8,7.6,7.6c4.4-0.2,7.2-8.3,7.6-9.5c2.5-7.3-0.6-10,1.9-15.2c0.7-1.5,1.6-2.6,11.4-9.5
			C440.9,332.1,443.9,330.5,443.7,328z"/>
		<path class="st4" d="M342.8,368.1c2,0.5,3.9,1.1,5.7,1.9c4.2,1.9,8.1,4.5,11.4,7.6c7,6.4,6.9,9.7,11.4,11.4c3.1,1,6.4,1,9.5,0"/>
		<path class="st4" d="M358,350.9c3.4,6.5,8.7,11.8,15.2,15.2c4.7,2.4,9.9,3.7,15.2,3.8"/>
		<path class="st4" d="M369.4,337.6c6,7.3,15.7,10.3,24.7,7.6"/>
		<path class="st4" d="M382.8,312.8c7.1,9.3,19.3,13.2,30.4,9.5"/>
		<path class="st4" d="M392.3,288.1c2.1,3.5,4.7,6.7,7.6,9.5c4.2,4.4,9.5,7.6,15.2,9.5c6.2,1.8,12.8,1.8,19.1,0"/>
		<path class="st4" d="M398,251.9c4,6.5,17.8,27.5,43.8,34.3c6.8,1.8,13.9,2.4,20.9,1.9"/>
		<path class="st4" d="M439.9,261.4c1.5,2.2,3.5,4.2,5.7,5.7c5.3,3.6,10.8,3.7,15.2,3.8c4.5,0.1,9-0.5,13.3-1.9"/>
		<path class="st4" d="M417,116.7c0.5,3.8,1.3,9.8,1.9,17.1c1.5,18.7,0.2,23.5,1.9,34.3c1.6,10,4.8,19.6,9.5,28.6
			c4.9,9.3,11.1,21.3,24.8,28.6c6.5,3.4,13.6,5.4,20.9,5.7"/>
		<path class="st4" d="M418.9,160.5c3.9,7.9,8.4,15.5,13.4,22.8c7.3,10.7,14.4,21,26.7,30.5c5.9,4.5,12.3,8.4,19,11.4"/>
		<path class="st4" d="M436.1,93.9c-4.6,10.3-7.8,21.2-9.5,32.4c-1.4,9.4-2.9,19.5,0,32.4c1.8,8.1,5,15.8,9.5,22.8
			c2.5,3.9,6.4,9,28.6,26.7c7.1,5.7,13.1,10.2,17.1,13.3"/>
		<path class="st4" d="M447.5,78.6c-3,8.1-5.6,16.4-7.6,24.7c-4.9,20.2-8.6,35.4-3.8,53.3c2.4,9.8,7,18.9,13.3,26.7
			c3.5,4.2,6.1,6.1,20.9,19c6.5,5.7,11.8,10.3,15.2,13.3"/>
		<path class="st4" d="M563.7-3.2C571,19,576.1,42,578.9,65.3c1.3,11,3.3,32.9,13.3,59c5.2,13.5,10.8,23.8,20.9,26.7
			c6.7,1.9,13.1-0.1,17.1-1.9"/>
		<path class="st4" d="M556-1.4c4,11.2,7.2,22.6,9.5,34.3c3.4,17,2.5,22.1,5.7,49.5c4.1,35.7,7.9,46.9,11.4,55.2
			c7.7,18.1,15.5,25,22.9,28.6c4.8,2.3,9.9,3.6,15.2,3.8"/>
		<path class="st4" d="M542.7,0.5c1.6,5.8,3.6,13.6,5.7,22.8c4.2,17.6,7.4,35.4,9.5,53.3c3.8,35.2-1.9,36.1,3.8,57.1
			c3.1,11.4,7.4,26.3,20.9,38.1c7.7,6.5,16.8,11.1,26.7,13.3"/>
		<path class="st4" d="M523.7-3.2c1.3,9.8,3.3,25,5.7,43.8c3.2,25.3,3.8,31,5.7,43.8c4.3,28.5,6.5,42.9,11.4,55.2
			c5.1,12.6,11.3,27.7,26.7,40c9.5,7.5,20.6,12.7,32.4,15.2"/>
		<path class="st4" d="M512.3-1.4c-2.6,22.8-2.6,45.8,0,68.5c2.2,22.2,7.3,43.9,15.2,64.7c7.9,20.5,14.4,36.7,30.5,51.4
			c10.4,9.5,22.8,16.6,36.2,20.9"/>
		<path class="st4" d="M483.7,0.6c2.6,20.4,3.5,36.8,3.8,47.6c0.9,32.2-2.1,41.6,1.9,64.7c2.3,13.2,4.7,26.7,13.3,41.9
			c7.5,13.2,15.8,21.1,32.4,36.2c12,11,24.7,21.2,38.1,30.5"/>
		<path class="st4" d="M474.2,32.9c-1.4,19.6-1.4,39.4,0,59c2.1,29.4,3.2,44.2,11.4,60.9s19,27.2,34.3,41.9
			c11.7,11.3,24.5,21.5,38.1,30.5"/>
		<path class="st4" d="M462.7,53.9c0.5,3.9,1.3,9.9,1.9,17.1c2.5,29.6-0.9,34.8,1.9,51.4c2.7,15.8,8.5,27.1,15.2,40
			c4.8,9.4,9.7,18.6,19,28.6c6.2,6.6,13.2,12.4,20.9,17.1"/>
		<path class="st4" d="M458.9,65.3c0.6,13.5,0.4,24.6,0,32.4c-0.8,17-2.5,23.2,0,34.3c1.9,8.5,5,14.3,9.5,22.8
			c5.6,10.6,11,17.7,20.9,30.5c4.1,5.3,9.8,12.5,17.1,20.9"/>
		<path class="st4" d="M455.1,71c-1.3,7.2-2.8,17.7-3.8,30.5c-1.2,15.9-1.8,24.1,0,34.3c1.9,10.8,5.8,21.1,11.4,30.5
			c4.3,7.1,9.2,12.3,19.1,22.9c6.9,7.4,12.9,13.2,17.1,17.1"/>
		<path class="st4" d="M453.2,72.9c-7.2,16.9-11,35-11.4,53.3c-0.2,12.4-0.3,23.6,5.7,36.2c3.7,7.8,8.9,13.6,19.1,24.7
			c9.1,10,17.2,17.7,22.8,22.9"/>
		<path class="st4" d="M758.8,290.9c17.8,6.9,57,18.9,100.9,5.7c22.1-6.6,37.2-17.2,53.3-28.6c29.1-20.8,54.2-46.6,74.3-76.2"/>
		<path class="st4" d="M736.9,209.9c34.2-7.7,66.5-21.9,95.2-41.9C915.1,110,938.4,21.7,944.5-5.2"/>
		<path class="st4" d="M735,114.8c19.5-4.7,38.1-12.4,55.2-22.9c50.2-30.9,72-77.2,80-97.1"/>
		<path class="st4" d="M870.2,200.5c23.6-11.4,45.4-26.1,64.7-43.8c26.4-24.2,47.7-53.3,62.8-85.7"/>
		<path class="st4" d="M759.8,400.4c20.1,4.4,90.7,17.2,160-22.8c26.3-15.3,49-36.1,66.6-60.9"/>
		<path class="st4" d="M866.4,469c46.5-17.1,87.9-46,120-83.8"/>
		<path class="st4" d="M853.1,512.8c51.5,4.7,102.3-15.1,137.1-53.3"/>
		<path class="st4" d="M-616.8,238.5c31.3,29.4,91.3,77.2,178.9,99c55.9,13.9,100.6,11.7,139,9.5c55.8-3.2,145.3-15.7,249.4-64.7"/>
		<path class="st4" d="M-554-7.1c2.2,23.5,12.3,100.8,76.2,163.8c29.9,29.3,66.5,50.8,106.6,62.8"/>
		<path class="st4" d="M-677.8-3.2c6,49.7,22.2,97.7,47.6,140.9c46.3,78.4,110.3,118.6,140.9,135.2"/>
		<path class="st4" d="M-731.1-10.9c3.6,26.4,9.4,52.5,17.1,78.1c9.3,30.3,21.4,59.6,36.2,87.6"/>
		<path class="st4" d="M-858.7-3.2c15.5,39.8,34.6,78,57.1,114.3c23.7,38.1,51.2,73.8,81.9,106.6"/>
		<path class="st4" d="M-944.4-10.9c7.2,41.1,23.5,80.2,47.6,114.3c21,29.5,47.5,54.7,78,74.2"/>
		<path class="st4" d="M-1869.8,537.5c22.9,22.8,50.1,40.9,80,53.3c50.3,20.5,90.7,16.4,133.3,17.1c0,0,107.5,1.9,203.7,40
			c43.1,17,121.4,59.6,190.4,180.9"/>
		<path class="st4" d="M-1900.3,590.8c29.9,16.5,75.4,36.8,133.3,43.8c49.4,6,66.9-2.7,112.3,0c77.5,4.7,134,36.4,180.9,62.8
			c64.9,36.7,121.8,85.9,167.6,144.7"/>
		<path class="st4" d="M-1906,668.9c26.8,6.8,54.2,10.6,81.9,11.4c21.7,0.5,43.3-0.7,64.7-3.8c18.9-2.3,63,1.8,200,59
			c72.4,30.3,140.8,69.3,203.7,116.2"/>
		<path class="st4" d="M-1767,756.5c66.9-11.7,109.7,0.7,137.1,15.2c18.3,9.7,60.2,36.5,100.9,70.5c12.6,10.5,25.8,22.2,47.6,30.5
			c25.9,9.8,50.1,9.5,66.6,7.6"/>
		<path class="st4" d="M-1900.3,746.9c15,1.1,30.9,1.8,47.6,1.9c20.9,0.2,40.7-0.6,59-1.9"/>
		<path class="st4" d="M-1443.3,905c49.7-32.3,104.4-56.1,161.9-70.5c25.6-6.3,42.9-8.5,80-13.3c208.2-26.8,231.6-30.4,285.7-32.4
			c0,0,107.3-4,180.9,32.4c19.8,9.8,29.1,21.2,34.3,30.5c7.6,13.9,10.3,30,7.6,45.7"/>
		<path class="st4" d="M-1308.1,541.3c-5.6-12.5-15.8-29.6-34.3-40c-23.4-13.1-33.9-0.7-72.4-11.4c-25.5-7.1-49.9-14-70.5-34.3
			c-6.3-6.2-12.3-13.7-22.8-15.2c-13.1-1.9-29.7,6.1-32.4,17.1c-2.1,8.5,5.5,12.6,22.9,41.9c12.9,22,13.6,28,13.3,32.4
			c-0.8,14.2-10.9,18.3-9.5,28.6c1.3,9.7,12,17.1,30.5,24.7c31.2,12.9,56.2,14.8,72.4,17.1c15.6,2.2,87.6,14.1,133.3,62.8
			c13,13.8,11,17,30.5,38.1c24.9,27,40.9,44.3,66.6,49.5c10.6,2.1,36.6,7.4,55.2-5.7c6.2-4.3,15.1-13.1,28.6-13.3
			c3.9,0.1,7.7,0.7,11.4,1.9c50.8,8.9,61.4,17.1,87.6,17.1c16.6,0,35.8-0.1,45.7-13.3c11-14.8,3.3-36.4,1.9-40
			c-8.6-22.6-30.7-32-36.2-34.3c-20.2-8.6-28.9-1.8-66.6-7.6c-17.2-2.7-25.8-4-34.3-7.6c-44.2-18.8-40.7-66.2-74.2-72.4
			c-5.5-1-4.2,0.5-49.5,0c-12.6-0.2-15.2-0.3-19-1.9c-13.9-5.8-15.6-18.9-32.4-32.4c-4.7-3.8-9.8-6.9-15.2-9.5"/>
		<path class="st4" d="M51.5,632.7c105.2,57.7,185.8,151.8,226.6,264.6"/>
		<path class="st4" d="M-36.1,661.2c10,7.6,24.5,18.8,41.9,32.4c56.1,43.9,84.1,65.9,104.7,85.7c23.9,23.1,55.4,59.2,83.8,114.3"/>
		<path class="st4" d="M-110.4,674.6C-36.5,738.4,26,814.4,74.3,899.3"/>
		<path class="st4" d="M-199.8,663.2c78.1,54.6,130.9,138.3,146.6,232.3"/>
		<path class="st4" d="M114.3,868.8l11.4,28.6"/>
		<path class="st4" d="M-163.7,855.5l17.1,45.7"/>
		<path class="st4" d="M-239.9,667c13.4,8.9,45.4,32.6,62.8,76.2c8.2,20.6,12.1,42.6,11.4,64.7"/>
		<path class="st4" d="M-276.1,750.8c37.6,39.1,56.3,92.6,51.4,146.6"/>
		<path class="st4" d="M-335.1,647.9c3.2,6.7,7,13.1,11.4,19c8.4,11.2,14.3,14.8,20.9,22.9c5.1,6.3,11.5,16.4,15.2,32.4"/>
		<path class="st4" d="M-407.4,783.1c18.9,34.9,31.2,73,36.2,112.3"/>
		<path class="st4" d="M-472.2,596.5c14.2,24.6,49.9,94.3,38.1,184.7c-5.3,39.8-18.9,78.1-40,112.3"/>
		<path class="st4" d="M-649.3,518.5c39,17.1,72.1,45.5,94.9,81.5c63.3,99.9,33.6,232.2-66.3,295.5"/>
		<path class="st4" d="M-241.7,444.2c59.5,9,192.9,20.4,331.3-49.5c46.2-23.2,88.6-53.4,125.7-89.5
			C328.8,193.9,357.2,57.3,365.6-1.4"/>
		<path class="st4" d="M116.2,299.5c49.3-20.7,93.5-51.9,129.5-91.4C320.4,125.6,335.2,32.2,339-3.2"/>
		<path class="st4" d="M266.6,112.9c9-14.5,16.7-29.8,22.8-45.7c8.8-22.6,14.6-46.3,17.1-70.4"/>
		<path class="st4" d="M163.8,181.4c23-21.4,42.4-46.5,57.1-74.3c18.5-34.8,29.5-73,32.4-112.3"/>
		<path class="st4" d="M64.8,181.4c24.7-23,45.3-50,60.9-80c18.1-34.9,29.1-73.1,32.4-112.3"/>
		<path class="st4" d="M51.5,65.3c5.1-8.1,10.2-17,15.2-26.6c6.4-12.4,12.1-25.1,17.1-38.1"/>
		<path class="st4" d="M-352.2,118.6c27.8,30.5,62.4,53.9,100.9,68.5c17.8,6.7,49.5,18.1,91.4,15.2c6-0.4,28.7-2.2,59-13.3
			c58.1-21.3,98.4-60,121.9-87.6"/>
		<path class="st4" d="M-297,221.4c30.3,6.4,94.6,17.6,165.7,9.5c36.4-4.1,67-12.5,83.8-17.1c24.1-6.6,36.4-10.1,47.6-17.1
			c11.7-7.3,38.5-27.7,51.4-80"/>
		<path class="st4" d="M-409.3-3.2c20.2,37.2,48.2,69.6,81.9,95.2c19,14.4,77.1,58.1,150.4,57.1C-93.8,147.9-15.3,89.3,28.6,2.5"/>
		<path class="st4" d="M-392.2,40.5c-7.8-5.3-14.9-11.7-20.9-19c-6.2-7.5-11.4-15.8-15.2-24.7"/>
		<path class="st4" d="M-314.1,101.5c31.8-2.7,88.2-12.1,144.7-49.5c21.8-14.5,41.7-31.8,59-51.4"/>
		<path class="st4" d="M-220.8,124.3c40.6-7.3,78.7-25,110.4-51.4C-87,53.3-67.6,29.4-53.2,2.5"/>
		<path class="st4" d="M-310.3,621.3c63.3,4.7,151.9,2.4,249.4-30.5c28.1-9.4,55.5-20.9,81.9-34.3"/>
		<path class="st4" d="M-986.3-8.9c8.8,29.1,37.7,116.9,97.1,178.9c22.4,23.5,38,39.8,64.7,49.5c19.6,7.2,35.3,7.2,68.5,20.9
			c15,6.2,24.2,10,34.3,17.1c28,19.9,38.7,48.9,43.8,60.9c17.1,40.4,46.1,66.3,93.3,108.5c66.1,59.1,152.5,63.3,257.1,68.5
			c106.9,5.3,209-14.4,213.3-15.2c17.6-3.5,34.3-7.5,62.8-11.4c65.3-9.1,88.7-3.7,146.6-7.6s98-6.6,146.6-26.7
			c21.7-9,68.7-29,108.5-76.2c13.8-16.4,34.6-40.9,43.8-78.1c4.4-17.7,1.3-18.7,5.7-76.2c4.8-62.3,9.4-73.9,13.3-81.9
			c11.7-23.4,22.6-24.6,40-49.5c12.8-18.4,24.9-43.5,30.5-78.1"/>
		<path class="st4" d="M-1033.9,427.1c21.5-13.5,45.4-22.6,70.5-26.7c34.2-5.4,61.7,0.2,81.9,4.6c25.2,5.4,43.3,13.4,51.4,16.4
			c65.6,24.3,105.6,48.7,152.3,74.3c0,0,85.9,47.2,175.2,85.7c111,47.9,224.8,97.1,365.6,87.6C-93.8,666-25.7,656,55.3,619.4"/>
		<path class="st4" d="M-167.6,400.4c-58.1,17-118.5,24.7-178.9,22.9c-55.1-1.6-109.6-11.2-161.8-28.6
			c-30.2-10.1-59.5-22.9-87.6-38.1"/>
		<path class="st4" d="M-1397.6,149.1c-9.1-22.2-19.8-45.8-32.4-70.4c-14.4-28.1-30.3-55.4-47.6-81.9"/>
		<path class="st4" d="M-1350,465.2c7.9-6.9,14.4-15.3,19-24.7c16.7-34.2,3-72.1-5.7-95.2c-38.2-101.2-57.3-151.8-66.6-169.5
			C-1435.1,115.5-1470,57.1-1508,0.6"/>
		<path class="st4" d="M-1437.6,472.8c6.9-4.4,13.3-9.5,19.1-15.2c39-39.1,36.8-96.7,36.2-112.3c-1.8-46-19.7-79.9-26.7-93.3
			c-33.9-65.1-72.9-147.1-121.8-255.1"/>
		<path class="st4" d="M-1473.7,132c-6.8,7.5-15.3,13.4-24.8,17.1c-10.9,4.3-22.7,5.7-34.3,3.8c-6.2-1.1-20.2-3.6-30.5-15.2
			c-7.1-8-9.1-16.6-11.4-26.7c-1.8-7.6-4-17-1.9-28.6c0.5-2.4,0.8-3.3,9.5-32.4c1.1-3.5,2.6-8.8,0-13.3c-1.8-2.8-4.5-4.8-7.6-5.7
			c-9.9-3-21.2,7.3-28.6,13.3c-26.7,21.9-33.5,14.2-47.6,28.6c-23.9,24.4-30.4,72.5-17.1,106.6c5.3,13.6,14.1,25.6,11.4,43.8
			c-1.9,12.9-8.1,19.2-15.2,30.5c-3.2,5.1-24.3,39.7-22.8,80c0.5,13.3,1.7,47.8,24.7,66.6c11.2,9.2,22.7,10.8,26.7,22.9
			c3.3,10.1-2.7,15.2-1.9,30.5c1,11.6,4.9,22.7,11.4,32.4c15.4,21.6,42.1,25.2,53.3,26.7c19.6,2.5,39.4-0.9,57.1-9.5"/>
		<path class="st4" d="M-1629.9,507.1c-6.9,8-18.1,18.4-30.5,17.1c-9.7-1-13.2-8.5-30.5-24.8c-23.6-22.2-28.3-18.6-38.1-32.4
			c-11.3-15.8-13.6-32.4-15.2-45.7c-2.7-21.5,1.2-30.1,3.8-57.1c1.6-16.9,5.1-52.9-1.9-93.3c-5.3-30.9-12.3-38.6-7.6-57.1
			c3.7-14.7,9.5-15.3,26.7-41.9c14.8-22.9,27.9-43.3,32.4-70.4c3.5-21.7-2.1-25.2,1.9-45.7c4.7-23.8,16.8-41.7,26.7-53.3"/>
		<path class="st4" d="M-913.9,173.8c1.7,5.3,3.4,13.4,0,20.9c-3.6,8.1-10,9.2-24.7,19c-16.4,10.9-27.7,18.4-30.5,30.5
			c-2.3,9.9,3.3,13.4,0,20.9c-1.4,3.1-5.9,10.2-32.4,15.2c-26.5,5-30.5-0.5-60.9,3.8c-5.8,0.8-4.6,0.9-33.2,5.6
			c-11,1.8-19.7,3.3-23.9,3.9c-19.5,2.8-39.3,3.4-59,1.9c-52.8-4.4-52.8-28.5-100.9-32.4c-8.3-0.7-25.2-1.3-38.1-13.3
			c-5-4.8-8.9-10.7-11.4-17.1c-12.1-28.5-18.2-42.8-26.7-68.5c-17.7-54.1-26.7-55.8-24.8-78.1c0.8-8.6,4.3-19.7,11.4-41.9
			c6.4-20,12.6-36.3,17.1-47.6"/>
		<path class="st4" d="M-1671.8,838.4c18.3,8.4,36.2,18,53.3,28.6c15.1,9.4,29.8,19.5,43.8,30.5"/>
		<path class="st4" d="M-1898.4,807.9c67.3-4.9,134.9,1.5,200,19"/>
		<path class="st4" d="M-1900.3,912.6c18-13.2,37.1-24.6,57.1-34.3c23.8-11.4,33.7-12.9,38.1-13.3c14.2-1.5,24.8,1.2,51.4,9.5
			c17.7,5.5,38.9,12.5,62.8,20.9"/>
		<path class="st4" d="M-1172.9,903.1c37.1-30.9,71.9-39.2,89.5-41.9c20.7-3.2,64.3-6,108.5,13.3c29.2,12.7,41.2,27.4,62.8,22.8
			c8.5-1.8,18-6.5,45.7-13.3c10.8-2.7,18.8-4.3,22.9,0c5,5.3,1.1,16.2,0,19"/>
		<path class="st4" d="M478,236.7c-6.8,28.6-2.2,33-7.6,43.8c-6.1,12.2-13.2,9.1-38.1,28.6c-15.9,12.4-26.3,20.5-34.3,34.3
			c-12.4,21.5-4.2,31-17.1,47.6c-6.6,8.5-15.8,13.2-34.3,22.9c-27.7,14.4-35.5,13.1-51.4,22.8c-16.6,10.2-25.3,22.3-38.1,40
			c-28.7,39.7-23.4,58.4-49.5,80c-6.7,5.5-19.4,16-38.1,19c-14.7,2.4-29.7-0.9-59-7.6c-24.6-5.6-28.3-8.2-36.2-5.7
			c-16,5-29,24.2-28.6,41.9c0.8,29.5,38.9,50,64.7,55.2c20.9,4.2,43,0.3,55.2-1.9c11.1-2,14.7-3.7,36.2-7.6
			c20.4-3.8,21.7-3.1,26.7-5.7c15.7-8.3,13.5-20.7,28.6-30.5c8.8-5.7,12-3.1,32.4-7.6c19.9-4.5,36.9-8.3,49.5-19
			c16.9-14.5,9.7-27.7,24.7-49.5c12.3-17.7,22-16.2,55.2-38.1c34.7-22.8,56.7-37.3,70.4-64.7c9.9-20.2,15.8-42.2,17.1-64.7
			c0.2-7-0.3-14,1.9-24.7c2.9-14.6,8.1-23,17.1-40c15.5-29.2,23.3-43.9,22.9-53.3c-0.7-14.3-8.5-30.3-22.9-38.1
			c-10.9-6-28-8.5-38.1,0C484.9,216,482.1,219.5,478,236.7z"/>
		<path class="st4" d="M771.2,899.3c-2.5-4-11.5-19.1-5.7-30.5c1.6-3.1,7.2-11.6,40-13.3c27.8-1.4,35.7,4.1,68.5,7.6
			c38.9,4.2,46.5-1.5,74.2,5.7c14.7,3.8,28.8,9.6,41.9,17.1"/>
		<path class="st4" d="M599.8,834.5c1.6-0.5,4.3-1.2,7.6-1.9c25-5.3,34.6,2.1,41.9-3.8c9.8-8.1-0.6-27.6,9.5-34.3
			c4.1-2.7,7.8-0.7,17.1,0c16.1,1.2,31.4-3,40-7.6c17.9-9.6,11.5-23.6,28.6-36.2c17.7-13.1,29.1-1.4,51.4-13.3
			c16-8.5,33.5-27,34.3-47.6c0.8-21.5-17.7-25.5-17.1-47.6c0.5-22.1,19.4-24.4,22.9-49.5c2.7-20.2-6.3-42.6-20.9-55.2
			c-15.2-13.1-24.7-5.7-34.3-17.1c-17.1-20.4,5.5-53.8-11.4-68.5c-1.2-1.1-9-3.3-24.7-7.6c-25.8-7.1-31.8-7.8-34.3-13.3
			c-3.2-7.2,1.6-18.7,9.5-22.9c8.6-4.5,18.5,0.6,24.7,3.8c14.1,7.2,13.4,15.2,24.8,19.1c11,3.8,14.2-2.9,26.7,0
			c8.3,1.9,10.5,5.7,28.6,20.9c24.4,20.7,26,18.7,28.6,24.7c6.4,15-5.4,23,0,43.8c2.6,9.7,5.5,9.4,13.3,24.8
			c6.5,12.8,14.9,29.2,15.2,47.6c0.5,21.7-10.6,25-13.3,51.4c-1.6,15.6,1.4,23.1,3.8,40c4.4,31.2,9.1,64.6-5.7,91.4
			c-14.5,26.2-48.1,47.1-80,49.5c-18.9,1.4-33-4-41.9,5.7c-6.7,7.4-3.9,16.3-7.6,38.1c-2,11.7-5.2,23.2-9.5,34.3"/>
		<path class="st4" d="M816.9,661.2c-23.7-0.4-47.2-2.9-70.5-7.5c-22.1-4.4-43.8-10.8-64.7-19.1c-21.4-8.7-41.3-16.8-62.8-34.3
			c-17.6-14.4-32.4-31.8-43.8-51.4"/>
		<path class="st4" d="M830.2,562.3c-26.3,18.8-57.3,30-89.5,32.4c-27.3,1.8-54.6-2.8-79.9-13.3c-12.4-5.2-36.1-15.3-57.1-38.1
			c-17.2-18.7-13.5-25.1-38.1-55.2c-22.3-27.4-34.9-33.5-41.9-36.2c-12.8-4.7-26.6-6-40-3.8"/>
		<path class="st4" d="M493.2,429c14.7-2.2,29.7-0.9,43.8,3.8c7.9,2.7,19.2,7.8,53.3,40s34.9,36.6,47.6,43.8
			c20.9,11.8,42.4,13.7,57.1,13.3"/>
		<path class="st4" d="M767.4,453.7c-9.7,8.8-32.6,27.1-66.6,32.4c-20.5,3.1-41.4,1.2-60.9-5.7c-41.9-15.3-46.1-44-89.5-62.8
			c-15.1-6.5-31.2-10.4-47.6-11.4"/>
		<path class="st4" d="M447.5,480.4c12.5-0.3,24.9,2.3,36.2,7.6c21.5,10.2,32.3,28,49.5,57.1c35.6,60.3,34,59.5,40,68.5
			c37.7,56.3,98.4,79,131.4,91.4c33.6,12.5,68.9,19.6,104.7,20.9"/>
		<path class="st4" d="M331.3,594.6c18.1,9.3,37.3,16.4,57.1,20.9c10.9,2.5,29.5,5.8,57.1,13.3c10.3,2.8,24.3,6.8,34.3,19
			c3.2,4,5.8,8.5,7.6,13.3c13.2,33.4,20.6,67.7,30.5,89.5c12.2,27.1,32,43,49.5,57.1c29.2,23.5,49.4,26.8,62.8,51.4
			c6.5,12.3,9.8,26.1,9.5,40"/>
		<path class="st4" d="M380.9,522.3c15.7,4.3,30.6,11.4,43.8,20.9c18.6,13.6,29,28.9,49.5,59c10.6,15.6,15.9,23.4,20.9,34.3
			c9.9,21.3,8.5,29.8,19,47.6c7.8,13.1,11.7,14,22.9,28.6c17.2,22.4,22.6,39.5,28.6,51.4c9.7,19.1,30.9,43.3,81.9,62.8"/>
		<path class="st4" d="M417,501.3c15.6,2.6,30.5,8.5,43.8,17.1c18.3,12.1,28.3,26.5,36.2,38.1c14.3,21.1,15.4,31.7,26.7,55.2
			c14.6,30.7,31.1,51.3,41.9,64.7c12,15,33.8,41.9,70.4,66.6c26.3,17.8,55.2,31.3,85.7,40"/>
		<path class="st4" d="M352.3,558.5c9.1-1.2,18.3,0.1,26.7,3.8c10.3,4.8,15.8,12.3,20.9,19.1c7.9,10.3,19.6,25,36.2,43.8"/>
		<path class="st4" d="M350.4,577.5c21.2,5.9,39.5,19.5,51.4,38.1"/>
		<path class="st4" d="M300.9,735.5c1.4-12.7,5.3-25,11.4-36.2c8.2-14.8,20-27.2,34.3-36.2"/>
		<path class="st4" d="M268.5,851.7c9.2-77.4,60.5-143.4,133.3-171.4"/>
		<path class="st4" d="M228.5,790.8c-1.4-11.9-4.9-55,22.9-97.1c16.6-25,40.6-44.3,68.5-55.2"/>
		<path class="st4" d="M207.6,712.7c5.4-11.3,10.5-21.4,15.2-30.5c12.1-23.3,16.3-28.9,19-32.4c7.1-8.8,15.4-16.5,24.8-22.9"/>
		<path class="st4" d="M299,836.5c32.6-52.3,93.3-80,154.2-70.4"/>
		<path class="st4" d="M297,897.4c3.1-12.3,17-62.4,64.7-89.5c14.1-8,29.7-13.1,45.8-15.2"/>
		<path class="st4" d="M331.4,891.7c7.2-11.1,29-41.6,70.5-57.1c22.5-8.4,46.7-11,70.4-7.6"/>
		<path class="st4" d="M365.6,897.4c37.7-17.9,78.3-28.9,120-32.4"/>
		<path class="st4" d="M540.8,880.3c-1.6-1-2.3-2.3-3.8-5.7c-3.2-6.8-4.8-10.2-5.7-11.4s-4.8-5.9-9.5-5.7c-5.1,0.2-5.7,6.1-11.4,7.6
			c-7,1.8-14.2-4.8-15.2-5.7c-4.9-4.6-6.1-10-7.6-17.1c-0.8-3.6-1.5-6.6,0-7.6c1.5-1.1,4.4,1.4,11.4,5.7c7.6,4.6,11.4,7,15.2,7.6
			c7.2,1.1,8.5-2.8,15.2-1.9c10.1,1.3,16,11.4,17.1,13.3c3.9,6.9,6.1,17.8,1.9,20.9C546.1,881.6,543.2,881.6,540.8,880.3z"/>
		<path class="st4" d="M251.4,617.5c15.7,7,32.4,11.5,49.5,13.3c13.1,1.3,17.1,0,24.7,3.8c14.9,7.5,14.4,20.1,30.5,28.6
			c5.5,2.9,4.9,1.1,22.8,5.7c18.5,4.8,29.1,7.5,38.1,13.3c6.1,3.9,14.6,11.1,24.7,32.4c10.9,22.9,11.4,36.3,19.1,74.3
			c0,0,14.6,72.2,36.2,85.7c2.4,1.5,8.3,5.3,15.2,3.8c3.7-0.9,7-2.9,9.5-5.7l0,0c7.4,3.7,7.6,3.8,7.6,3.8c3.4,1.9,6.9,7,7.6,20.9"/>
		<path class="st4" d="M-1302.4,65.3c-0.8,11.3-4.1,22.4-9.5,32.4c-7.1,12.8-12.7,14-15.2,22.9c-4.5,16.1,7.8,35.2,19.1,45.7
			c10.4,9.7,16.2,8.5,53.3,24.7c17.8,7.7,26.7,11.7,32.4,15.2c30.6,19.3,25.5,36.4,49.5,51.4c33,20.6,74,7.6,80,5.7
			c12.7-4,24.6-7.8,32.4-19.1c9.2-13.2,4.5-25.1,15.2-34.3c6.6-5.7,10.9-3.2,26.7-7.6c12.6-3.5,32-8.8,41.9-22.8
			c11.4-16.1,6.1-37.9,3.8-45.7"/>
		<path class="st4" d="M-1294.8-1.4c-1.5-0.6-11.4-4.9-19,0c-8.4,5.3-7.9,17.6-7.6,22.9c0.6,13.3,7.5,22.7,13.3,30.5
			c6.4,8.5,20,26.5,45.7,34.3c16.2,4.9,29.1,3.3,40,1.9c12.2-1.5,23.4-3.1,28.6-11.4c3.6-5.8,2.6-12.4,1.9-17.1
			c-3.5-22.2-7.8-42.9-11.4-59"/>
		<path class="st4" d="M-1281.4-3.2c-1.7,15.3,9.9,28.1,22.8,28.6c13.5,0.5,26.5-12.6,24.7-28.6"/>
		<path class="st4" d="M-1151.9,111c9.4-9.8,16.5-21.5,20.9-34.3c13.4-39.6-5.6-74.9-9.5-81.9"/>
		<path class="st4" d="M-1313.7,95.8c10.8,7.3,22.3,13.7,34.3,19c10.4,4.9,21.2,8.7,32.4,11.4c17.5,3.9,35.5,4.6,53.3,1.9"/>
		<path class="st4" d="M-1254.8,191c3.7-4.6,8.2-8.5,13.3-11.4c6.5-3.5,13.6-5.4,20.9-5.7c26.1-1.9,38.7-1,47.6-1.9
			c20.2-2.1,34-14.4,47.6-26.7c50.1-44.9,40.5-136.5,40-140.9"/>
		<path class="st4" d="M-1131,271c-1.2-20.4,0.8-47.8,19-66.6c5.4-5.6,7.5-5.5,17.1-13.3c9.4-7.7,33.4-27.1,45.7-57.1
			c11.2-27.2,8.7-53.1,5.7-68.5"/>
		<path class="st4" d="M-1073.9-1.4c18.2,57.1,45.1,89.4,66.6,108.5c7.9,7,4.1,2.5,62.8,45.7c28.3,20.8,43.4,32.3,70.5,51.4
			c29.4,20.7,44.3,31.2,55.2,36.2c36.6,16.7,50.3,9.3,70.5,22.9c14.3,9.6,31.6,29.5,38.1,76.2"/>
		<path class="st4" d="M-1009.1,200.5c-9.6-14.8-11.3-27.1-11.4-34.3c-0.1-4.1,0.3-8.3,3.8-24.7c2.9-13.7,5.7-24.9,7.6-32.4"/>
		<path class="st4" d="M-1302.4,497.5c9.2-16.8,16.2-34.7,20.9-53.3c4.2-16.6,5.3-34.6,7.6-70.5c2.8-43.9,1.3-54.3,0-60.9
			c-3.1-16.1-8.9-31.5-17.1-45.7"/>
		<path class="st4" d="M-1205.3,571.8c9.5-15.1,15.9-31.9,19-49.5c3.9-22.9,0.5-39.8-5.7-72.4c-3.4-18-9.3-48.8-17.1-91.4"/>
		<path class="st4" d="M-1188.1,291.9c42.7,65.8,65.8,142.4,66.6,220.9"/>
		<path class="st4" d="M-1051,667c4.2-51.1,0.3-102.5-11.4-152.3"/>
		<path class="st4" d="M-1104.3,284.3c23,40.5,43.4,82.5,60.9,125.7c4.6,11.5,11.5,29.2,19,51.4c12.3,36.4,18.6,55.1,22.9,81.9
			c3.8,25.2,5.1,50.7,3.8,76.2c-0.6,18.3-2.3,33.9-3.8,45.7"/>
		<path class="st4" d="M-1140.5,295.7c8.4,9.6,16,19.8,22.8,30.5c17.6,27.5,25.6,51.5,30.5,66.6c8.2,25.3,13.3,51.5,15.2,78.1"/>
		<path class="st4" d="M-814.9,733.6c-8.1-3-22.9-9.9-30.5-24.8c-10.9-21.3,0-45.3,9.5-66.6c11.1-24.7,25.9-40.6,36.2-51.4
			c7.4-7.8,21.5-18.6,49.5-40c35.1-26.9,45.6-33.3,60.9-36.2c10.7-2,21.7-2,32.4,0"/>
		<path class="st4" d="M-828.2,737.4c-6.9-3.8-45.1-25.9-51.4-66.6c-3.5-22.7,4.3-42.1,9.5-55.2c8.2-20.5,19.2-33.6,34.3-51.4
			c12.9-15.2,22.2-26.4,38.1-38.1c10.1-7.4,34.4-24.9,70.5-30.5c15.1-2.3,30.6-2.3,45.7,0"/>
		<path class="st4" d="M-834,735.5c-11.4-6.4-39.8-24.2-53.3-59c-11-28.1-6.9-53.2-3.8-72.4c3.2-22.3,11-43.7,22.9-62.8
			c26.9-42.6,66.4-59.3,80-64.7c14.1-5.7,28.8-9.5,43.8-11.4"/>
		<path class="st4" d="M-851.1,735.5c-18.5-13.7-34.6-30.5-47.6-49.5c-8.6-12.6-22.2-33-28.6-62.8c-2.9-13.6-12.3-57.3,11.4-99
			c13-23.1,30.6-35.6,47.6-47.6c22.4-15.9,47.6-27.5,74.2-34.3"/>
		<path class="st4" d="M-912,699.4c-12.9-23.1-22-48.2-26.7-74.3c-2.9-16.4-6.9-39.3-1.9-68.5c5.2-28.4,16.9-55.1,34.3-78.1
			c18.5-24.5,42.7-44.1,70.4-57.1"/>
		<path class="st4" d="M-955.8,640.3c-3.6-36.4-5.1-67.5-5.7-91.4c-0.8-30.6-0.1-46.1,5.7-64.7c3.7-11.8,9.4-29.3,24.8-45.7
			c20.3-21.6,45.3-28.2,57.1-30.5"/>
		<path class="st4" d="M-967.3,621.3c-4.4-12.4-7.6-25.1-9.5-38.1c-1-6.4-3.2-23.4,1.9-76.2c3.3-34.4,5.1-51.9,11.4-66.6
			c6.8-15.7,16.5-29.9,28.6-41.9"/>
		<path class="st4" d="M-982.5,587c-1-13.1-2.7-30-5.7-49.5c-7.2-47.1-14.9-64.7-9.5-91.4c3-14.3,8.8-27.9,17.1-40"/>
		<path class="st4" d="M-1026.3,459.4c0.3-7.8,0.9-16,1.9-24.7c0.6-4.6,1.2-9.1,1.9-13.3"/>
		<path class="st4" d="M868.3,651.8c4.8,4.5,23.5,20.7,51.4,20.9c41.7,0.3,65.1-35.7,66.6-38.1"/>
		<path class="st4" d="M866.4,779.3c37.9,13.5,79.8,9.3,114.3-11.4"/>
		<path class="st4" d="M870.2,771.7c22.9,1.3,45.5-4.7,64.7-17.1c21-14,36.5-34.9,43.8-59"/>
		<path class="st4" d="M853.1,794.6c1.8,8.6,6.4,23.6,19,36.2c2.7,2.7,12.6,12.1,43.8,20.9c20.5,5.8,41.6,9,62.8,9.5"/>
		<path class="st4" d="M853.1,796.5c14.8,19.4,35.5,33.4,59,40c18.7,5,38.4,5,57.1,0"/>
		<path class="st4" d="M860.7,788.9c5.3,6.8,11.8,12.6,19.1,17.1c15.7,9.8,30.8,10.8,41.9,11.4c18.3,0.9,36.5-2.3,53.3-9.5"/>
		<path class="st4" d="M849.3,802.2c0.5,31.3,24.2,57.3,55.2,60.9"/>
		<path class="st4" d="M752.2,899.3c1-13.3,1.6-27.3,1.9-41.9c0.2-9.8,0.2-19.3,0-28.6"/>
		<path class="st4" d="M784.5,857.4c0.7-4.3,1.3-8.8,1.9-13.3c0.8-5.9,1.4-11.6,1.9-17.1"/>
		<path class="st4" d="M805.5,855.5c1-6.9,1.7-13.9,1.9-20.9c0.2-4.7,0.2-9.1,0-13.3"/>
		<path class="st4" d="M828.3,853.6c3.3-12.6,2.7-25.9-1.9-38.1"/>
		<path class="st4" d="M849.3,815.5c2.4,8.7,3,17.7,1.9,26.7c-0.7,5.2-1.9,10.3-3.8,15.2"/>
		<path class="st4" d="M874,684.1c8.3,3.9,17.5,5.9,26.7,5.7c9-0.2,15.7-2.4,24.7-5.7c10.7-3.8,15.8-7,28.6-13.3
			c6.7-3.3,16.4-8,28.6-13.3"/>
		<path class="st4" d="M984.5,642.2c-10.3,21.9-22.4,43-36.2,62.8c-20.7,29.7-32.5,38.5-43.8,43.8c-9,4.2-18.7,6.8-28.6,7.6"/>
		<path class="st4" d="M957.8,691.7c-7.2,8.5-27.5,30.2-59,34.3c-7,0.9-14,0.9-20.9,0"/>
		<path class="st4" d="M935,596.5c-1.8-1.9-4-2.6-5.7-1.9c-0.8,0.4-1.5,1.1-1.9,1.9c-1.3,2.4-1.3,5.2,0,7.6c0.9,1.7,3.2,4.3,5.7,3.8
			c2.8-0.5,4.2-4.6,3.8-7.6c-0.4-2.4-1.8-4.4-3.8-5.7l0,0"/>
		<path class="st4" d="M689.3,29.1c14.2-2.1,28.2-5.3,41.9-9.5c17.1-5.3,33.7-12.4,49.5-20.9"/>
		<path class="st4" d="M744.5,411.8c7.7-7.8,14.2-16.8,19.1-26.7c4.8-9.6,10.3-20.6,9.5-34.3c-0.9-16.4-9.7-15.3-13.3-34.3
			c-3.7-19,4.1-25.6-1.9-45.7c-1-3.3-1.7-4.8-7.6-17.1c-13.9-28.9-20.8-43.4-20.9-43.8c-9.2-27.6-3.2-56.5-1.9-62.8
			c2.3-11.2,5.8-20.3,3.8-34.3c-1.3-8-3.9-15.7-7.6-22.8c-6.3-12.2-10.2-12.2-20.9-26.7c-13.3-18-11.8-24.3-22.8-32.4
			c-4.7-3.4-14-10.2-22.9-7.6c-9.9,2.9-8.5,14.1-20.9,20.9c-8.1,4.5-10.6,0.7-22.8,5.7c-6.3,2.6-14.1,5.8-19.1,13.3
			c-5,7.5-8.2,20.7-1.9,28.6c6.9,8.6,21.6,6.6,28.6,5.7c7.4-1,8.4-2.7,22.9-5.7c13.7-2.8,17.5-2.1,19,0c1.9,2.6-0.9,5.4,0,11.4
			c0.8,5.2,3.5,7.8,7.6,13.3c2,2.7,5.1,8.1,11.4,19c6.9,11.9,10.3,17.9,11.4,22.9c1.8,8.2-0.6,8.8,0,22.8c0.3,6.1,0.8,6.5,3.8,26.7
			c2.4,15.8,3.6,23.7,3.8,26.7c1.1,13.7,0,18.7,3.8,26.7c2.8,5.8,4.3,5.2,7.6,11.4c4.3,8.2,6.3,17.4,5.8,26.7
			c-1.2,15.1-9.5,16.5-9.5,30.5c0,9.1,3.6,9.1,3.8,19c0,2.4,0.2,17.2-9.5,28.6c-7.5,8.8-12.5,5.7-22.8,15.2
			c-1.9,1.7-17.3,16.1-13.3,26.7c1.7,4.6,7.5,6.9,19.1,11.4c8.1,3.1,16.3,5.7,24.7,7.6"/>
		<path class="st4" d="M-1643.2,444.2c8.7,11.6,19.7,21.4,32.4,28.6c17,9.6,32.3,12,41.9,13.3c12.6,1.8,25.4,1.8,38.1,0"/>
		<path class="st4" d="M-1527.1,432.8c24.3,9.6,50.1,14.8,76.2,15.2c14.7,0.2,29.4-1,43.8-3.8"/>
		<path class="st4" d="M-1597.5,362.3c4.3,8,10.1,15.2,17.1,20.9c12.5,10.2,25.4,13,36.2,15.2c49.2,10.2,73.8,15.3,91.4,15.2
			c21.2-0.1,42.3-2.7,62.8-7.6"/>
		<path class="st4" d="M-1690.8,307.1c12.7,25.8,30.9,48.6,53.3,66.6c10.1,8,20.9,15.1,32.4,20.9"/>
		<path class="st4" d="M-1588,330c20.5,32,42.7,40.8,53.3,43.8c7.7,2.1,19.7,2.1,43.8,1.9c31-0.2,46.5-0.3,60.9-3.8
			c17.8-4.4,34.6-12.2,49.5-22.9"/>
		<path class="st4" d="M-1658.4,232.8c6.2,21.5,16.6,41.5,30.5,59c7.9,9.9,16.8,18.8,26.7,26.7"/>
		<path class="st4" d="M-1548,301.4c32.9,8.7,67,11.9,100.9,9.5c19.3-1.4,38.4-4.6,57.1-9.5"/>
		<path class="st4" d="M-1671.8,128.1c7.5,20.3,16.4,40,26.7,59c9.6,17.8,22.1,40.8,43.8,66.6c12.2,14.5,25.5,27.8,40,40"/>
		<path class="st4" d="M-1416.6,238.6c-35.4,22-79.1,26.3-118,11.4"/>
		<path class="st4" d="M-1447.1,183.4c-13.3,19.6-28.3,25-34.3,26.7c-7,1.9-12.9,1.9-24.8,1.9c-13.7,0-23.3-0.1-34.3-3.8
			c-11.8-4.2-22.3-11.4-30.5-20.9"/>
		<path class="st4" d="M-1639.4,59.6c0.5,13.6,3,27.1,7.6,40c5.8,16.3,13.4,27.3,24.7,43.8c8.2,11.9,17.1,23.4,26.7,34.3"/>
		<path class="st4" d="M-1466.1,158.6c-3.7,4.6-8.3,8.4-13.3,11.4c-19.2,11.3-40.3,5.7-47.6,3.8c-16.2-4.3-26.5-12.7-34.3-19.1
			c-6.8-5.5-20-16.3-28.6-34.3c-13.8-28.9-6.6-57.5-3.8-66.6"/>
		<path class="st4" d="M-1576.6,99.6c6.2,1.4,25.5,5,43.8-5.7c5.8-3.4,18.3-10.7,20.9-24.7c1-5.8,0.3-11.7-1.9-17.1"/>
		<path class="st4" d="M-1574.7,99.6c7.4,9.1,17.3,15.7,28.6,19c20.4,6.1,42.5,0.2,57.1-15.2"/>
	</g>

		<image style="display:inline;overflow:visible;" width="2018" height="3675" xlink:href="products-no-bg/buenaonda_summer21_Pants_back_no-bg.png"  transform="matrix(0.1273 0 0 0.1273 120.0505 21.7357)">
	</image>
</g>
</svg>
