<svg id="Layer_3" data-name="Layer 3" xmlns="http://www.w3.org/2000/svg" viewBox="0 0 1947 613"><defs><style>.cls-1{fill:none;stroke:#fff;stroke-linecap:round;stroke-miterlimit:10;stroke-width:2px;}</style></defs><path class="cls-1" d="M1852,5.33c17.22,2.18,35.4,3.92,54.46,5.07q15.58.93,30.39,1.26"/><path class="cls-1" d="M1820.36,5.33a324.91,324.91,0,0,0,63.32,21.53,326.1,326.1,0,0,0,53.19,7.6"/><path class="cls-1" d="M1788.7,5.33a205.74,205.74,0,0,0,81,36.73,204.62,204.62,0,0,0,68.39,2.53"/><path class="cls-1" d="M1792.5,21.79a348.56,348.56,0,0,0,67.12,27.86,349,349,0,0,0,79.78,13.93"/><path class="cls-1" d="M1801.37,38.26c23.56,20.32,45.1,28.2,58.25,31.66,20.74,5.44,43.31,5.86,68.38,6.33,8,.15,14.58.08,19,0"/><path class="cls-1" d="M1801.37,50.92a302,302,0,0,0,55.72,26.59,287.64,287.64,0,0,0,64.58,15.2c6.72.73,12.39,1.08,16.47,1.27"/><path class="cls-1" d="M1800.1,64.85c22.1,19.16,42.69,27.61,55.72,31.66,18.85,5.85,37.41,7.32,57,8.86,12,.95,22.07,1.21,29.12,1.27"/><path class="cls-1" d="M1803.9,86.38a224.51,224.51,0,0,0,50.66,25.33,262.76,262.76,0,0,0,32.92,8.86,379.92,379.92,0,0,0,51.92,7.6"/><path class="cls-1" d="M1807.7,94c3.34,2.64,8,6.21,13.93,10.13,4,2.68,7.89,5,10.13,6.33,9.1,5.2,16,6.45,29.13,10.13,22.37,6.25,19.51,7.37,32.92,10.13a262.15,262.15,0,0,0,26.6,3.8c6.71.68,12.36,1.05,16.46,1.27"/><path class="cls-1" d="M1817.83,113a41.68,41.68,0,0,1,12.66,1.27c10.1,2.64,15.19,8.2,21.53,12.66,5.71,4,14.78,6.48,32.93,11.4a260.63,260.63,0,0,0,39.26,7.6c6.63.73,12.27,1.08,16.46,1.26"/><path class="cls-1" d="M1820.36,125.64A193.07,193.07,0,0,0,1852,140.83c7.62,2.84,15.59,5.25,31.66,8.87,13.8,3.1,32.66,6.88,55.72,10.13"/><path class="cls-1" d="M1841.89,147.16A185.85,185.85,0,0,0,1871,159.83c15.54,5.2,16.69,3.21,31.66,8.86,7.62,2.88,13.75,5.82,24.06,7.6a90.63,90.63,0,0,0,12.66,1.27"/><path class="cls-1" d="M1844.42,158.56a124.23,124.23,0,0,0,22.8,11.4c7.88,3,9.4,2.64,20.26,6.33,14.85,5.05,16.81,7.31,26.59,10.13a99.85,99.85,0,0,0,25.33,3.8"/><path class="cls-1" d="M1836.83,162.36a112.79,112.79,0,0,0,12.66,11.4c17.73,13.69,35.52,19,44.32,21.53,3.33,1,13.19,3.17,32.93,7.59l11.4,2.54"/><path class="cls-1" d="M1835.56,178.82a68.16,68.16,0,0,0,20.26,15.2c9.77,4.74,12.85,3.19,31.66,8.86,14.54,4.39,16.65,6.51,27.86,8.87a120.49,120.49,0,0,0,21.53,2.53"/><path class="cls-1" d="M1836.83,181.36a114.3,114.3,0,0,0,20.26,20.26A111.35,111.35,0,0,0,1890,219.35c13.75,4.47,25.86,4.72,36.73,5.06,4.69.15,8.61.09,11.4,0"/><path class="cls-1" d="M1834.29,195.29a75.24,75.24,0,0,0,8.87,15.19A80.77,80.77,0,0,0,1868.49,232c8.1,4.46,15.53,6.35,30.39,10.13,12.92,3.29,19.8,3.83,25.33,3.8a81.35,81.35,0,0,0,13.93-1.27"/><path class="cls-1" d="M1830.49,208c3.43,3.24,8.16,7.62,13.93,12.66,5.39,4.7,9.56,8.34,15.2,12.67a160.3,160.3,0,0,0,22.8,15.19c6.16,3.33,11.86,6.4,20.26,8.87a101.56,101.56,0,0,0,25.32,3.8c3.65.13,6.71.08,8.87,0"/><path class="cls-1" d="M1833,221.88c2.4,2.44,5.88,6,10.13,10.13,10.74,10.57,16.11,15.86,20.26,19a107.28,107.28,0,0,0,25.33,13.93,103.21,103.21,0,0,0,20.26,6.33,95.06,95.06,0,0,0,27.86,1.26"/><path class="cls-1" d="M1834.29,245.94a70.94,70.94,0,0,0,16.47,16.46c10.89,7.75,20.82,10,38,13.93,18.66,4.26,30.39,4,34.19,3.8a111.37,111.37,0,0,0,12.66-1.26"/><path class="cls-1" d="M1835.56,249.74a85.07,85.07,0,0,0,21.53,22.79c9.56,6.92,18.26,10.09,25.33,12.67a122.56,122.56,0,0,0,25.32,6.33,173.35,173.35,0,0,0,19,1.27c4.66.11,8.58.07,11.4,0"/><path class="cls-1" d="M1833,264.94a75.61,75.61,0,0,0,11.39,20.26c3.46,4.38,8.36,10.58,16.47,15.19,7.44,4.24,14.35,5,27.86,6.34,11.78,1.17,15.27.34,32.92,1.26,7.52.39,13.67.9,17.73,1.27"/><path class="cls-1" d="M1740.58,416.9a178.6,178.6,0,0,0,20.26-12.66c7.35-5.31,17.61-12.83,27.86-25.33a107.36,107.36,0,0,0,13.93-21.53c5.12-10.63,6.07-17.47,6.34-21.53a48.71,48.71,0,0,0,0-6.33"/><path class="cls-1" d="M1765.91,409.3a76.7,76.7,0,0,0,19-11.4c12.15-9.95,18-21.09,21.52-27.86a92.42,92.42,0,0,0,8.87-25.32,84.83,84.83,0,0,0,1.26-19"/><path class="cls-1" d="M1796.3,409.3c5.73-6.22,10.48-11.42,13.93-15.2,11.25-12.33,13.25-14.66,15.2-19,2.69-6,3.06-11.16,3.8-21.53,1.07-15.14-1.63-20-2.53-21.53a23.51,23.51,0,0,0-7.6-7.6"/><path class="cls-1" d="M1817.83,409.3a57.53,57.53,0,0,0,12.66-15.2c5.52-9.61,6.7-18.24,7.6-25.32,1.1-8.63,2.54-20-2.53-32.93a54.5,54.5,0,0,0-11.4-17.73"/><path class="cls-1" d="M1849.49,403a59.49,59.49,0,0,0,5.07-13.93c2.41-10.67,1.16-19.18,0-26.59-1.22-7.76-3-18.52-10.14-30.4a73,73,0,0,0-16.46-19"/><path class="cls-1" d="M1867.22,395.37a82.29,82.29,0,0,0,0-17.73,83.43,83.43,0,0,0-30.39-55.72"/><path class="cls-1" d="M1836.83,289a90.29,90.29,0,0,0,10.13,8.86c7.26,5.46,11.2,6.68,31.66,16.46,12,5.72,13.42,6.64,17.73,7.6,2.83.63,6,1.07,19,1.27,5.1.08,12,.12,20.26,0"/><path class="cls-1" d="M1882.42,323.19a110.22,110.22,0,0,0,19,7.6,94.79,94.79,0,0,0,19,3.8,91.28,91.28,0,0,0,16.46,0"/><path class="cls-1" d="M1892.55,334.59a151.73,151.73,0,0,0,15.19,5.06,154,154,0,0,0,29.13,5.07"/><path class="cls-1" d="M1919.14,363.71a31,31,0,0,1,17.73-10.13"/><path class="cls-1" d="M1903.94,354.85a52.94,52.94,0,0,0,22.8,2.53"/><path class="cls-1" d="M1831.76,305.46a24.26,24.26,0,0,1,10.13,2.53c4.36,2.21,6.92,5.29,11.4,11.4,6.38,8.7,10.84,15.6,11.4,16.46,8.34,13,6.54,10.76,12.66,20.26,6.71,10.41,9,13.23,10.13,19a33.11,33.11,0,0,1,0,12.66"/><path class="cls-1" d="M1834.29,305.46a37.47,37.47,0,0,1,13.93,3.8c4.07,2,8.4,5.19,17.73,17.73,8.76,11.76,13.43,18,17.73,27.86,2,4.65,4.62,11.54,10.13,22.79,1,2.14,1.93,3.89,2.54,5.07"/><path class="cls-1" d="M1834.29,301.66a39,39,0,0,1,8.87,1.27c5.52,1.45,10,4,16.46,8.86,6.76,5.14,14,10.61,21.53,20.26,2.1,2.69,6,9.81,13.93,24.06,2.7,4.88,5.89,10.8,6.33,19a33.77,33.77,0,0,1,0,3.8"/><path class="cls-1" d="M1834.29,297.86a67.75,67.75,0,0,1,7.6,1.27c16,3.63,26.51,12.31,32.93,17.73,13.42,11.32,20.49,23.29,25.32,31.66A140,140,0,0,1,1910.28,370"/><path class="cls-1" d="M1782.37,290.26c.87,1.53-1.25,3.5-2.53,6.33s-.88,7.45,0,16.47c.38,3.9.68,5.33,0,7.6-.22.73-1.43,4.76-5.07,6.33-1.62.7-4.23,1.12-5.06,0-.7-.95.22-2.49,1.27-5.07a57.81,57.81,0,0,0,2.53-8.86c.39-1.86.27-5.91,0-13.93-.18-5.34-.31-7.45,1.26-8.87a6.24,6.24,0,0,1,5.07-1.26A3.51,3.51,0,0,1,1782.37,290.26Z"/><path class="cls-1" d="M1765.91,332.05c1.37.12.06,6.2,3.8,8.87,3,2.15,6.34,0,8.86,2.53,1.38,1.39,2.1,3.77,1.27,5.07-1.34,2.1-6.46.88-8.86,0-2-.72-6.13-2.26-7.6-6.34C1761.66,337.43,1764.59,331.94,1765.91,332.05Z"/><path class="cls-1" d="M1768.44,365a3.15,3.15,0,0,0-1.26,2.53c-.16,2.39,1.88,5.33,3.8,5.07,1.4-.19,2.53-2.07,2.53-3.8A4.16,4.16,0,0,0,1771,365,2.93,2.93,0,0,0,1768.44,365Z"/><path class="cls-1" d="M1753.25,353.58a3.3,3.3,0,0,0-1.27,2.53c.25,2.37,4.65,3.41,6.33,3.8,2,.47,4.34,1,5.07,0,.92-1.29-1-4.83-3.8-6.33C1758,352.74,1755.09,352,1753.25,353.58Z"/><path class="cls-1" d="M1576,347.25c-2.34.62-8.3,2.2-8.87,6.33-.37,2.66,1.56,6,3.8,6.33,3,.48,4.3-4.73,8.87-5.06,2.65-.19,3.21,1.49,6.33,1.26,2.87-.2,6.23-1.91,6.33-3.8.12-2.4-5.15-4.4-7.6-5.06A17.36,17.36,0,0,0,1576,347.25Z"/><path class="cls-1" d="M1621.55,343.45c-6.26.41-8.53-2.15-12.67,0-3.46,1.8-6,5.71-5.06,7.6.57,1.21,2.15.78,6.33,2.53,3.16,1.32,3.38,2,5.06,2.53,3.09.91,5.79-.46,10.13-2.53,12.38-5.89,10.65-4.35,16.47-7.6a86.13,86.13,0,0,0,11.39-7.6c4.94-3.88,6.06-5.64,6.34-7.59.47-3.42-1.64-7.41-3.8-7.6-2-.17-2.83,2.82-6.33,6.33-2.11,2.1-4.81,3.54-10.14,6.33C1629.91,340.76,1625.23,343.21,1621.55,343.45Z"/><path class="cls-1" d="M1711.46,29.39a58.19,58.19,0,0,1,6.33-6.33c2.41-2,5.77-4.77,10.13-5.06,5-.35,7.25,2.86,10.13,1.26,1.76-1,3-3.32,2.53-5.06-.95-3.45-8.7-4.4-13.93-3.8-1.31.15-12.07,1.55-16.46,10.13-2.5,4.89-2.39,11-1.27,11.4C1709.39,32.08,1709.94,31.19,1711.46,29.39Z"/><path class="cls-1" d="M1700.06,77.51a2.75,2.75,0,0,0,1.27,5.07,3.29,3.29,0,0,0,3.79-2.53,3.12,3.12,0,0,0-1.26-2.54A3.29,3.29,0,0,0,1700.06,77.51Z"/><path class="cls-1" d="M1549.36,47.12c-.9.64-1.29,1.74-1.26,7.6,0,7.21.62,8.88,1.26,10.13.31.6,2.1,4.06,3.8,3.8s2.64-3.56,2.53-6.33c-.13-3.49-2-3.86-2.53-7.6-.54-4.08,1.38-6.32,0-7.6A3.29,3.29,0,0,0,1549.36,47.12Z"/><path class="cls-1" d="M1501.24,26.86a7,7,0,0,0,1.27,0,4.55,4.55,0,0,0-2.54,0c-1.08.33-2.42,1.33-2.53,2.53-.16,1.87,2.69,3.6,5.07,3.8.42,0,3,.26,3.8-1.26.65-1.29-.44-3-1.27-3.8a4.78,4.78,0,0,0-2.53-1.27"/><path class="cls-1" d="M1521.5,26.86c-1.81.44-2.38-.3-3.8,0a5.36,5.36,0,0,0-3.8,3.8,5.91,5.91,0,0,0,1.27,5.06,6.35,6.35,0,0,0,5.07,2.54c2.4-.16,2.61-2.13,8.86-8.87a23.46,23.46,0,0,0,3.8-5.06c1.09-2,2-3.76,1.27-5.07a3.63,3.63,0,0,0-3.8-1.26c-1.61.38-2.55,1.84-3.8,3.79s-1.25,2.77-2.53,3.8A6.79,6.79,0,0,1,1521.5,26.86Z"/><path class="cls-1" d="M1493.64,145.9l-.31.27a47.42,47.42,0,0,0-6,6.06c-2.24,2.79-3.36,4.19-3.8,6.33-.12.62-1,4.82,1.27,6.33,1.78,1.2,4.67.15,6.33-1.26,1.94-1.65,1.4-3.11,3.8-7.6,1.49-2.79,2.24-4.18,3.8-5.07,2.27-1.29,3.39,0,6.33-1.26,2.59-1.09,2.15-2.25,5.07-3.8,3.19-1.7,4.65-.8,6.33-2.53,1.49-1.55,2.15-4.15,1.26-5.07-.66-.68-1.94-.2-6.33,1.27l-11.4,3.8A12.4,12.4,0,0,0,1493.64,145.9Z"/><path class="cls-1" d="M1322.68,481.48c.44-6.53.75-7.57,0-8.86-1-1.71-3.31-3-5.06-2.53-3,.83-3.51,6.73-3.8,10.13-.32,3.68-.58,6.75,1.27,10.13a14.14,14.14,0,0,0,7.59,6.33c2.77,1,7.73,1.92,8.87,0,.93-1.58-.93-4.65-2.53-6.33-2.66-2.79-5.34-2.52-6.34-5.07C1322.51,484.84,1322.48,484.55,1322.68,481.48Z"/><path class="cls-1" d="M1322.68,511.88c-.22-.27-3.25,4-8.86,5.06-3,.57-4.9-.1-8.87,1.27-1.76.6-3.58,1.26-3.79,2.53-.25,1.48,1.75,3.4,3.79,3.8s3.83-.8,7.6-3.8C1316.67,517.46,1323,512.21,1322.68,511.88Z"/><path class="cls-1" d="M1345.48,518.21c-1.53.21-2.39,2.35-2.53,3.8-.21,2,.72,4.8,2.53,5.06s3.5-1.78,3.8-3.8a4.8,4.8,0,0,0-1.27-3.8A3.29,3.29,0,0,0,1345.48,518.21Z"/><path class="cls-1" d="M1310,530.87a41.54,41.54,0,0,0,15.2-3.8c5.28-2.48,8.72-5.52,13.93-10.13a116,116,0,0,0,10.13-10.13"/><path class="cls-1" d="M1260.63,580.26c-.48,2,3.17,4.54,7.6,7.6,3.71,2.56,6.82,4.7,11.4,5.06a18.48,18.48,0,0,0,15.19-6.33c3.07-3.63,5-9.18,3.8-10.13-.39-.31-1.06-.07-1.26,0C1291,578.63,1261.92,574.9,1260.63,580.26Z"/><path class="cls-1" d="M1130.2,495.41c-1.64.85-1.28,3.4-1.27,12.67,0,7.3-.21,9.15,1.27,10.13,1.73,1.15,4.86.47,6.33-1.27,1.67-2-.08-3.86,1.27-7.6s3.86-3.93,3.79-6.33c-.09-3.2-4.62-5.47-6.33-6.33C1133,495.56,1131.45,494.77,1130.2,495.41Z"/><path class="cls-1" d="M1163.12,433.36c1.67-5.26-5.38-13.33-10.13-12.66-2.32.32-2.69,2.54-10.13,8.86-2,1.72-3.42,2.77-5.06,2.54-2.36-.34-2.82-3-5.07-3.8-3.34-1.22-7.6,2.65-8.86,3.8-8,7.27-9.39,19.27-10.14,26.59-1,10.37-2.44,24.06,5.07,29.13,2.39,1.61,6,2.58,8.86,1.26,4.16-1.93,5.42-8.24,5.07-12.66-.65-8.2-6.78-9.18-7.6-17.73-.11-1.16-.67-8.21,3.8-12.66,2-2,4.32-2.63,8.87-3.8,9.15-2.37,12.49-.82,19-3.8C1159.73,437.08,1162.32,435.89,1163.12,433.36Z"/><path class="cls-1" d="M1179.59,551.13a21,21,0,0,0-8.87-8.86c-7.55-3.67-12.55.77-17.73-2.53s-5.73-11.73-6.33-24.06c-.63-12.9,1.71-13.6,0-21.53-2.15-10-6.2-10.42-7.6-20.26-.61-4.32-1.91-13.42,3.8-19,2.54-2.48,7.08-4.87,11.4-3.8,4.09,1,5.53,4.54,11.4,13.93,6,9.59,9,14.38,11.39,16.46,3.57,3.07,9.56,5.42,21.53,10.13,1.65.65,7.37,2.9,10.13,3.8,20.53,6.69,47.35-6,50.66-7.59,20.09-9.76,31.35-24.22,38-32.93,8.49-11.16,13.76-22.08,19-32.93,4.58-9.5,7.26-16.56,15.2-32.92,3.16-6.51,5.84-11.79,7.6-15.2"/><path class="cls-1" d="M1188.45,384c3.84,2.47,10,7.29,12.66,15.2,1,2.87,1.16,5.1,0,19-1.84,22-3,25.58-5.06,29.12a38.41,38.41,0,0,1-10.13,11.4,39.66,39.66,0,0,1-19,7.6"/><path class="cls-1" d="M1202.38,453.62a29.29,29.29,0,0,1-8.86,19,29,29,0,0,1-16.47,7.6"/><path class="cls-1" d="M1206.18,397.9A148.8,148.8,0,0,1,1216.31,427c3.14,13.41,5.34,22.81,2.53,34.19a52,52,0,0,1-13.93,24.06"/><path class="cls-1" d="M1170.72,514.41c-7.26-3.94-7.83-8.91-11.4-8.87-2.84,0-5.72,3.25-6.33,6.34-.89,4.54,3.2,8.54,8.87,13.93,7.77,7.39,11.74,11.16,17.73,11.39,6.16.24,5.88-3.61,17.72-6.33a14.67,14.67,0,0,0,7.6-3.8c.88-.88,2.91-2.93,2.54-5.06-.55-3.07-5.79-4.63-8.87-5.07-5.48-.78-6.48,1.66-13.93,1.27a34.74,34.74,0,0,1-7.6-1.27A31.14,31.14,0,0,1,1170.72,514.41Z"/><path class="cls-1" d="M1156.79,480.22c-.36,0-3.81.1-5.06,2.53-1.41,2.73.62,7.06,3.79,7.6a5.4,5.4,0,0,0,5.07-2.53c1.2-1.81,1.55-4.67,0-6.34A5,5,0,0,0,1156.79,480.22Z"/><path class="cls-1" d="M1173.25,444.76c-1.27.72-1.46,2.62-1.26,3.8.31,1.92,2,4,3.8,3.8s3.24-2.93,2.53-5.07S1174.86,443.85,1173.25,444.76Z"/><path class="cls-1" d="M1184.65,183.89a19.9,19.9,0,0,0-5.06,8.86c-2.28,8.84,2.73,16.17,3.79,17.73a24.46,24.46,0,0,0,6.34,6.33"/><path class="cls-1" d="M1208.71,213a13.49,13.49,0,0,1-5.06-7.6c-.91-4.52,1.42-8.5,6.33-15.2a267.35,267.35,0,0,1,17.73-21.53c3.3-3.69,8.18-9.3,13.93-16.46"/><path class="cls-1" d="M1215,210.48a41.3,41.3,0,0,1,1.27-13.93c1.82-6.69,4.66-10.12,10.13-20.26,2.84-5.27,5-9.7,6.33-12.66"/><path class="cls-1" d="M1222.64,209.22a62.37,62.37,0,0,1,5.07-19c3.75-8.37,8.41-13.6,17.73-24.06,5.64-6.34,9.8-11,16.46-16.46a113.83,113.83,0,0,1,21.53-13.93"/><path class="cls-1" d="M1236.57,208a103.28,103.28,0,0,1,10.13-24.06c4.68-8.06,9.23-13.37,15.2-20.26A239.21,239.21,0,0,1,1286,139.57"/><path class="cls-1" d="M1245.44,208a144,144,0,0,1,12.66-25.33c6.3-10,12.91-17.65,22.79-29.12,4.14-4.81,7.67-8.72,10.13-11.4"/><path class="cls-1" d="M1255.57,208c4.2-8.2,8.17-15,11.39-20.26a272.25,272.25,0,0,1,21.53-30.39c3.52-4.26,6.61-7.7,8.87-10.14"/><path class="cls-1" d="M1267,208a118.55,118.55,0,0,1,11.4-22.79,124.14,124.14,0,0,1,17.73-21.53,128.34,128.34,0,0,1,10.13-8.87"/><path class="cls-1" d="M1277.09,206.68c3.53-6.77,6.59-12.37,8.87-16.46,8.4-15.06,11.21-18.64,13.93-21.53a58.79,58.79,0,0,1,12.66-10.13"/><path class="cls-1" d="M1288.49,208a68.09,68.09,0,0,1,5.07-13.93c3.56-7.2,7.91-12.49,16.46-22.79,3.11-3.75,5.76-6.79,7.6-8.87"/><path class="cls-1" d="M1297.36,209.22a63.19,63.19,0,0,1,7.59-21.53A47.32,47.32,0,0,1,1315.09,175a44,44,0,0,1,5.06-3.79"/><path class="cls-1" d="M1303.69,210.48a39.44,39.44,0,0,1,2.53-12.66,43.2,43.2,0,0,1,8.87-13.93,49.8,49.8,0,0,1,3.79-3.8"/><path class="cls-1" d="M1313.82,211.75a48.78,48.78,0,0,1,1.27-11.4,49.48,49.48,0,0,1,6.33-15.19"/><path class="cls-1" d="M1321.42,214.28a41.8,41.8,0,0,1,2.53-12.66,42.24,42.24,0,0,1,6.33-11.4"/><path class="cls-1" d="M1327.75,215.55a35.35,35.35,0,0,1,2.53-10.13,36,36,0,0,1,8.87-12.67"/><path class="cls-1" d="M1335.35,218.08a25.3,25.3,0,0,1,2.53-12.66,25.64,25.64,0,0,1,11.4-11.4"/><path class="cls-1" d="M1343,221.88a111.44,111.44,0,0,0,8.86-12.66,110.09,110.09,0,0,0,7.6-15.2"/><path class="cls-1" d="M1351.81,227A63.67,63.67,0,0,1,1373.34,194"/><path class="cls-1" d="M1363.21,234.54a54,54,0,0,1,24.06-38"/><path class="cls-1" d="M1372.07,244.67a54.2,54.2,0,0,1,3.8-17.72,58.53,58.53,0,0,1,12.66-19,70.47,70.47,0,0,1,10.14-8.86"/><path class="cls-1" d="M262.74,568.86c-10.46.65-16.55-2.09-20.26-5.06-4.33-3.46-6.85-8.36-8.87-7.6-1.49.56-1.88,3.88-1.26,6.33.94,3.77,4.33,5.72,7.6,7.6a30.16,30.16,0,0,0,12.66,3.8,34.67,34.67,0,0,0,6.33,0"/><path class="cls-1" d="M228.55,544.8c-.64-.06-4.35-.39-5.07,1.27-.65,1.51,1.42,4.14,3.8,5.06,2.18.85,5.39.59,6.33-1.26a3.17,3.17,0,0,0,0-2.54C232.69,545.17,229.64,544.9,228.55,544.8Z"/><path class="cls-1" d="M203.22,230.74c4.14,3.48,8.38,7.27,12.66,11.4q3.31,3.2,6.34,6.33"/><path class="cls-1" d="M232.35,282.66a103.72,103.72,0,0,0,24.06,2.54c22.63-.27,39.35-7.94,49.39-12.67A143.07,143.07,0,0,0,338.72,251"/><path class="cls-1" d="M229.81,242.14a188.27,188.27,0,0,0,35.46,5.07c17.25.78,30.17,1.37,44.32-5.07a66.28,66.28,0,0,0,24.07-19"/><path class="cls-1" d="M240,220.61a135.85,135.85,0,0,0,32.92,7.6c13.6,1.38,26.54,2.54,40.52-3.8a57,57,0,0,0,15.2-10.13"/><path class="cls-1" d="M252.61,195.29a94.36,94.36,0,0,0,24.06,8.86,96.21,96.21,0,0,0,45.59-1.27"/><path class="cls-1" d="M200.69,190.22a51.5,51.5,0,0,0,31.66,25.33"/><path class="cls-1" d="M209.55,158.56A69.14,69.14,0,0,0,245,186.42"/><path class="cls-1" d="M213.35,137l10.13,10.13,8.87,8.87"/><path class="cls-1" d="M237.41,159.83a187,187,0,0,0,30.39,19c23,11.45,33.58,14.77,43.06,15.2,2.67.12,4.87.07,6.33,0"/><path class="cls-1" d="M218.42,102.84c1.08,2.41,2.33,5,3.8,7.6q1.89,3.42,3.8,6.33"/><path class="cls-1" d="M229.81,123.1a143.82,143.82,0,0,0,26.6,36.73,127,127,0,0,0,22.79,17.73c12.38,7.58,19.09,8.77,24.06,8.86a36.2,36.2,0,0,0,10.13-1.26"/><path class="cls-1" d="M229.81,83.85a26.08,26.08,0,0,0,5.07,22.79"/><path class="cls-1" d="M246.28,67.38a75,75,0,0,0-3.8,39.26A75.85,75.85,0,0,0,264,147.16c11.61,11.65,25,17.4,31.65,20.27,4.1,1.76,7.62,3,10.14,3.8"/><path class="cls-1" d="M223.48,73.72c-2.51.88-3.76,3.91-3.8,6.33,0,.58-.05,3.22,1.27,3.8,1.47.63,4-1.6,5.07-3.8s1.47-5.35,0-6.33A3,3,0,0,0,223.48,73.72Z"/><path class="cls-1" d="M258.94,57.25c-3.7-.45-5.55-.67-6.33,0-1.12,1-1,3.47,0,5.07,1.57,2.46,5.14,2.5,7.6,2.53,2.2,0,5.85.07,8.86-2.53,2.33-2,3-4.51,3.8-7.6,1-3.9,1.84-7,0-8.86s-6-1.82-7.6,0c-1.29,1.51.1,3.17-1.26,7.59-.86,2.79-1.84,3.52-2.54,3.8S260.31,57.42,258.94,57.25Z"/><path class="cls-1" d="M277.94,6.6c-1,4.66-1.87,9.73-2.54,15.19a175.74,175.74,0,0,0-1.26,19"/><path class="cls-1" d="M264,72.45a35.86,35.86,0,0,0-6.34,11.4c-3.9,11.75-.3,22.19,2.54,30.39a74.27,74.27,0,0,0,19,29.13,58.33,58.33,0,0,0,19,12.66,55.38,55.38,0,0,0,16.46,3.8"/><path class="cls-1" d="M291.87,6.6a74.76,74.76,0,0,0-6.34,24.06c-.62,7.1.31,8.51,0,20.26-.33,12.77-.57,19.31-3.8,26.59-1.66,3.77-4.61,9.83-11.39,13.93a27.08,27.08,0,0,1-13.93,3.8"/><path class="cls-1" d="M343.79,6.6c.23,6.94.4,17,0,29.12-.67,20-1,30-3.8,41.79a114.29,114.29,0,0,1-21.53,45.59,111.54,111.54,0,0,1-30.39,26.6"/><path class="cls-1" d="M359,162.36a35.72,35.72,0,0,0,16.47,7.6,28.62,28.62,0,0,0,16.46-1.27c2.5-1,9.54-3.91,12.66-11.39a19.68,19.68,0,0,0,1.27-10.14"/><path class="cls-1" d="M670.51,314.32c1.32,3.7,12,35-6.33,60.79a59.66,59.66,0,0,1-22.8,19"/><path class="cls-1" d="M626.19,378.91A29,29,0,0,0,643.91,365"/><path class="cls-1" d="M649,349.78a40.09,40.09,0,0,0-1.27-36.72"/><path class="cls-1" d="M611,378.91a67.27,67.27,0,0,0,12.66-65.85"/><path class="cls-1" d="M545.14,380.17a68.82,68.82,0,0,0,25.33-1.26,67.42,67.42,0,0,0,34.19-20.26c5.47-6.26,12.71-14.53,12.66-26.6a33.78,33.78,0,0,0-6.33-19"/><path class="cls-1" d="M581.86,347.25a48.1,48.1,0,0,0,11.4-36.73"/><path class="cls-1" d="M526.14,361.18c6.37-.38,20.55-2.18,32.93-12.66,4.37-3.71,11.49-9.73,13.93-20.27a34.08,34.08,0,0,0-1.27-19"/><path class="cls-1" d="M518.54,343.45c2.06-.06,14.78-.63,24.07-11.4,9.72-11.26,7.89-24.67,7.59-26.59"/><path class="cls-1" d="M509.68,328.25a29.84,29.84,0,0,0,15.2-5.06c10.17-6.95,12.28-18,12.66-20.26"/><path class="cls-1" d="M502.08,318.12a26.8,26.8,0,0,0,16.46-21.53"/><path class="cls-1" d="M485.62,299.13a28.09,28.09,0,0,0,12.66-11.4"/><path class="cls-1" d="M452.69,283.93a20.6,20.6,0,0,0,12.67,1.27A21,21,0,0,0,478,276.33"/><path class="cls-1" d="M436.23,275.07A66.47,66.47,0,0,0,448.89,270a65.05,65.05,0,0,0,11.4-7.6"/><path class="cls-1" d="M410.9,262.4c-2.74,2.37-3.29,7.34-1.26,8.87a3.75,3.75,0,0,0,3.8,0c3.46-1.89,3.41-9,1.26-10.13C413.3,260.38,411.11,262.23,410.9,262.4Z"/><path class="cls-1" d="M389.38,232c6.51,4.57,7.11,5.31,7.59,6.33,1.67,3.5-.39,5.26,1.27,10.13.27.78,2.12,6.23,5.07,6.33,2.72.1,4.77-4.42,5.06-5.06,3.22-7.1-1-14.75-1.27-15.2-1.55-2.72-4.41-4.77-10.13-8.86-7.33-5.26-9.78-5.36-11.39-5.07-2.22.41-4.94,1.94-5.07,3.8C380.39,226.06,382.37,227.09,389.38,232Z"/><path class="cls-1" d="M422.3,264.94a9.9,9.9,0,0,0,6.33,0c3-1.17,2.92-3.33,7.6-7.6a27,27,0,0,1,7.6-5.07,23.65,23.65,0,0,1,3.8-1.26"/><path class="cls-1" d="M417.24,252.27a23.24,23.24,0,0,0,10.13-2.53,23.82,23.82,0,0,0,10.13-10.13"/><path class="cls-1" d="M413.44,235.81a15.52,15.52,0,0,0,16.46-5.07"/><path class="cls-1" d="M400.77,220.61A18.26,18.26,0,0,0,421,214.28"/><path class="cls-1" d="M386.84,210.48a22.63,22.63,0,0,0,12.67,0,24.64,24.64,0,0,0,10.13-6.33,30.25,30.25,0,0,0,5.06-6.33"/><path class="cls-1" d="M367.85,197.82a43.82,43.82,0,0,0,13.93-1.27c17.29-4.47,26.49-18.44,29.12-22.79"/><path class="cls-1" d="M360.25,185.16a27.55,27.55,0,0,0,8.86,1.26c2.94-.06,6.6-.15,10.13-2.53a14.31,14.31,0,0,0,3.8-3.8"/><path class="cls-1" d="M359,159.83a33.2,33.2,0,0,0,13.93-3.8c9.07-4.85,13.23-12.82,16.47-19a63,63,0,0,0,6.33-19c1.12-7.2.24-10.38,1.26-22.8.41-4.86.91-8.83,1.27-11.39"/><path class="cls-1" d="M357.72,156a64,64,0,0,0,12.66-7.6c8.18-6.3,12.9-13.14,17.73-20.26A130,130,0,0,0,397,113"/><path class="cls-1" d="M355.18,153.5c2.72-2.06,6.68-5.09,11.4-8.87,14.72-11.77,17.31-15.14,19-17.73a47.32,47.32,0,0,0,6.33-15.19c1.93-8.57.93-15.29,0-21.53a82.21,82.21,0,0,0-6.33-21.53"/><path class="cls-1" d="M352.65,149.7c2.29-2,5.81-5.11,10.13-8.87,9.89-8.58,11.61-9.87,13.93-12.66a45.3,45.3,0,0,0,8.87-17.73c3.15-11.93.72-22-2.54-35.46A138.83,138.83,0,0,0,378,58.52"/><path class="cls-1" d="M256.41,105.37c2.66,1.18,6.92,2.53,11.39,1.27,6.74-1.9,10.49-8.74,13.93-17.73,6.68-17.41,8-31.94,8.87-39.26A234.58,234.58,0,0,1,300.73,4.07"/><path class="cls-1" d="M262.74,119.3a25.82,25.82,0,0,0,10.13-2.53c4.87-2.37,10.06-6.93,15.2-19,2.36-5.56,4.86-13,7.59-36.73,2.11-18.25,1.54-21.62,3.8-32.92a163.44,163.44,0,0,1,6.34-22.8"/><path class="cls-1" d="M270.34,129.44a41.3,41.3,0,0,0,17.73-8.87c9-7.85,11.87-17.77,13.93-25.33,3.82-14,0-14.58,2.53-38a308,308,0,0,1,6.33-35.46c1.4-6.13,2.74-11.31,3.8-15.19"/><path class="cls-1" d="M272.87,135.77a52.12,52.12,0,0,0,21.53-10.13c10.2-8.19,14.37-18.23,17.73-26.6,3.27-8.16,4.76-17.79,7.6-36.72,1.27-8.48,1.66-12.32,3.79-29.13,1.59-12.49,2.93-22.62,3.8-29.12"/><path class="cls-1" d="M280.47,142.1a66.11,66.11,0,0,0,24.06-13.93c10.66-9.78,15-20.56,20.26-34.19a165.86,165.86,0,0,0,10.13-43.06,200.22,200.22,0,0,0,0-45.59"/><path class="cls-1" d="M294.4,153.5a241.47,241.47,0,0,0,25.33-20.27c11-10.06,16.54-15.27,21.52-24.06,5.74-10.11,7.36-19.09,8.87-27.86,2.64-15.38.63-21.65,1.26-43.05.22-7.17.79-18.12,2.54-31.66"/><path class="cls-1" d="M304.53,156a176.26,176.26,0,0,0,25.33-20.26c10.13-9.77,17.35-16.72,22.79-27.86s6.2-21,7.6-40.53a275.75,275.75,0,0,0,0-39.25"/><path class="cls-1" d="M328.59,144.63a68,68,0,0,0,13.93-11.4c6.21-6.63,9.44-12.77,12.66-19,4.45-8.58,8.34-16.11,10.13-26.59,1.89-11.06-.41-14.5,1.27-34.2.41-4.82.91-8.77,1.27-11.39"/><path class="cls-1" d="M338.72,143.37c4.85-5.61,8.68-10.43,11.4-13.93,6.59-8.53,10.19-13.22,13.93-20.27,3-5.71,5.07-9.54,6.33-15.19,1.64-7.36.55-11.47,0-22.8-.25-5.15-.43-12.52,0-21.53"/><path class="cls-1" d="M343.79,143.37c2.83-2.65,6.82-6.51,11.39-11.4,6.52-7,9.79-10.46,12.67-15.2a59.79,59.79,0,0,0,7.6-20.26c1.21-6.77.82-12.21,0-22.79-.66-8.49-1.7-15.45-2.54-20.27"/><path class="cls-1" d="M350.12,145.9c3.77-3.42,9.15-8.53,15.19-15.2,6.76-7.44,10.19-11.27,12.67-16.46,4-8.34,3.94-15.84,3.8-24.06a95.78,95.78,0,0,0-7.6-35.46"/><path class="cls-1" d="M19,133.87a199.77,199.77,0,0,0,49.39,50.65c10.7,7.58,20.78,14.59,35.46,19,29.21,8.76,55.25.77,67.12-3.8"/><path class="cls-1" d="M47.46,2.8C51.47,20.65,67,79.37,122.17,118a179.42,179.42,0,0,0,63.32,27.86"/><path class="cls-1" d="M96.85,2.8c5.29,13.25,19.79,44,53.18,64.58a126.21,126.21,0,0,0,36.73,15.2"/><path class="cls-1" d="M12,53.45a180.9,180.9,0,0,0,41.79,57,179.94,179.94,0,0,0,43.06,29.13"/><path class="cls-1" d="M19.6,216.81a142.05,142.05,0,0,0,44.32,40.53c46.08,26.65,93,18.12,106.38,15.19"/><path class="cls-1" d="M19.6,262.4a191.06,191.06,0,0,0,79.78,55.72"/><path class="cls-1" d="M17.07,311.79a109.83,109.83,0,0,0,91.17,35.46"/><path class="cls-1" d="M708.5,194c69.23,32.64,128.8,40.94,165.89,43.06,25.53,1.45,55.28,2.92,92.45-6.34,58.29-14.52,98.17-46.28,119-65.85"/><path class="cls-1" d="M922.51,152.23a171.82,171.82,0,0,0,70.92-41.79c42.48-41.85,49.21-93.28,50.65-108.91"/><path class="cls-1" d="M1001,187.69c20.37-11.05,62.93-37.78,93.71-89.91A241.76,241.76,0,0,0,1126.4,4.07"/><path class="cls-1" d="M1126.4,109.17a332.11,332.11,0,0,0,24.06-58.25A332.45,332.45,0,0,0,1161.86-1"/><path class="cls-1" d="M1154.26,151a456.61,456.61,0,0,0,54.45-70.91,456.66,456.66,0,0,0,38-76"/><path class="cls-1" d="M1220.11,124.37A187.26,187.26,0,0,0,1272,75a187.6,187.6,0,0,0,31.66-76"/><path class="cls-1" d="M1515.17,557.47c45.88-80.64,97.95-109,126.64-120.31,64-25.3,135.5-26.59,135.5-26.59,28.3-.52,55.2,2.25,88.64-11.4a165.36,165.36,0,0,0,53.19-35.46"/><path class="cls-1" d="M1544.3,566.33a374.89,374.89,0,0,1,111.44-96.24c31.2-17.56,68.77-38.69,120.3-41.79,30.2-1.82,41.86,4,74.72,0,38.49-4.65,68.78-18.18,88.64-29.13"/><path class="cls-1" d="M1577.22,572.66a640.06,640.06,0,0,1,135.5-77.25c91.09-38.06,120.42-40.78,133-39.25a257.34,257.34,0,0,0,43.06,2.53,249.61,249.61,0,0,0,54.45-7.6"/><path class="cls-1" d="M1616.48,591.66c11,1.23,27.12,1.44,44.32-5.07,14.52-5.49,23.3-13.3,31.66-20.26,27.11-22.56,54.94-40.39,67.12-46.86,18.2-9.65,46.72-17.93,91.18-10.13"/><path class="cls-1" d="M1868.49,503c12.2.88,25.32,1.38,39.25,1.27,11.11-.09,21.69-.55,31.66-1.27"/><path class="cls-1" d="M1136.53,603.05a46.61,46.61,0,0,1,5.06-30.39c3.42-6.15,9.63-13.76,22.8-20.26,48.92-24.16,120.3-21.53,120.3-21.53,36,1.33,51.54,3.71,190,21.53,24.66,3.18,36.14,4.64,53.18,8.86a356.35,356.35,0,0,1,107.65,46.86"/><path class="cls-1" d="M1525.3,361.18a51.63,51.63,0,0,0-10.13,6.33c-11.13,8.93-12.3,17.66-21.53,21.53-2.54,1.07-4.28,1.17-12.66,1.27-30.14.35-29.26-.67-32.93,0-22.31,4.07-20,35.59-49.38,48.12-5.63,2.4-11.35,3.29-22.8,5.06-25.1,3.9-30.87-.62-44.32,5.07-3.62,1.53-18.33,7.75-24.06,22.79-.92,2.42-6.07,16.76,1.26,26.6,6.59,8.82,19.36,8.84,30.4,8.86,17.42,0,24.47-5.45,58.25-11.4a28.45,28.45,0,0,1,7.6-1.26c8.94.13,14.9,6,19,8.86,12.41,8.7,29.66,5.22,36.73,3.8,17.13-3.45,27.74-14.94,44.32-32.92,12.94-14,11.63-16.12,20.26-25.33,30.38-32.4,78.3-40.31,88.65-41.79,10.74-1.54,27.39-2.82,48.12-11.4,12.26-5.07,19.37-10,20.26-16.46.94-6.82-5.8-9.53-6.33-19-.17-2.94.25-6.93,8.86-21.53,11.52-19.51,16.58-22.22,15.2-27.86-1.8-7.34-12.82-12.63-21.53-11.39-7,1-11,6-15.19,10.13-13.66,13.5-29.91,18.05-46.86,22.79-25.57,7.16-32.56-1.12-48.12,7.6-12.3,6.89-19.06,18.28-22.8,26.59"/><path class="cls-1" d="M490.68,603.05a328.1,328.1,0,0,1,150.7-176"/><path class="cls-1" d="M546.4,600.52c18.86-36.6,39.82-60.67,55.72-76,13.71-13.2,32.36-27.8,69.65-57C683.35,458.5,693,451.08,699.63,446"/><path class="cls-1" d="M626.19,604.32A570.56,570.56,0,0,1,749,454.89"/><path class="cls-1" d="M711,601.79a235.85,235.85,0,0,1,97.51-154.5"/><path class="cls-1" d="M592,603.05l7.6-19"/><path class="cls-1" d="M773.08,605.59l11.4-30.4"/><path class="cls-1" d="M785.75,543.54a107.88,107.88,0,0,1,7.59-43.06c11.62-29,32.85-44.77,41.79-50.66"/><path class="cls-1" d="M825,603.05a124.51,124.51,0,0,1,34.2-97.51"/><path class="cls-1" d="M866.79,486.55c2.46-10.59,6.71-17.33,10.13-21.53,4.39-5.38,8.36-7.72,13.93-15.2a73.23,73.23,0,0,0,7.6-12.66"/><path class="cls-1" d="M874.39,603.05a358,358,0,0,1,19-77.24,361.9,361.9,0,0,1,65.85-111.44"/><path class="cls-1" d="M922.51,601.79a212.39,212.39,0,0,1,24.06-74.72"/><path class="cls-1" d="M990.9,600.52a190.73,190.73,0,0,1-26.6-74.71c-7.87-60.12,15.89-106.46,25.33-122.84"/><path class="cls-1" d="M1039,604.32c-25.44-45.86-33.67-85.17-36.73-108.91-3.91-30.39-.95-47.55,1.27-57A139.74,139.74,0,0,1,1030.15,384"/><path class="cls-1" d="M1088.41,601.79a142.42,142.42,0,0,1,19-250.74"/><path class="cls-1" d="M432.43,5.33c5.62,39,24.53,129.87,100,203.89a336.68,336.68,0,0,0,83.58,59.51c92.06,46.48,180.78,38.93,220.35,32.93"/><path class="cls-1" d="M450.16,4.07c2.5,23.57,12.34,85.69,62.05,140.56a244.24,244.24,0,0,0,86.12,60.79"/><path class="cls-1" d="M471.69,4.07a183.31,183.31,0,0,0,11.4,46.85,182.93,182.93,0,0,0,15.19,30.39"/><path class="cls-1" d="M507.15,2.8a188.91,188.91,0,0,0,21.53,74.71,188,188,0,0,0,38,49.39"/><path class="cls-1" d="M570.47-1A197.09,197.09,0,0,0,592,73.72a197.08,197.08,0,0,0,40.53,53.18"/><path class="cls-1" d="M619.85,6.6a250.87,250.87,0,0,0,11.4,25.33c3.33,6.42,6.75,12.33,10.13,17.72"/><path class="cls-1" d="M661.64,73.72c15.62,18.35,42.41,44.1,81.05,58.25,20.14,7.37,35.28,8.59,39.26,8.86,27.86,1.9,48.92-5.7,60.78-10.13a174.57,174.57,0,0,0,67.12-45.59"/><path class="cls-1" d="M641.38,83.85c8.61,34.74,26.38,48.3,34.19,53.18,7.43,4.65,15.61,7,31.66,11.4,11.18,3.09,31.54,8.64,55.72,11.4,47.24,5.38,90-2.06,110.18-6.33"/><path class="cls-1" d="M656.58,7.86c29.21,57.76,81.39,96.76,136.76,97.51,48.72.67,87.36-28.43,100-38A198.25,198.25,0,0,0,947.84,4.07"/><path class="cls-1" d="M960.5,4.07a68.06,68.06,0,0,1-10.13,16.46,67.8,67.8,0,0,1-13.93,12.66"/><path class="cls-1" d="M749,6.6a199.64,199.64,0,0,0,39.26,34.19c37.6,24.9,75.06,31.14,96.24,32.93"/><path class="cls-1" d="M711,7.86a157.92,157.92,0,0,0,38,46.86,159.42,159.42,0,0,0,73.45,34.19"/><path class="cls-1" d="M603.39,164.89c18.85,40.62,43.85,61.18,58.25,70.92,28.87,19.52,61.14,26.68,72.19,29.13,26.51,5.87,46.63,5.38,79.78,19,9.86,4.05,13.71,6.41,21.52,10.13,12.86,6.13,64.34,30.66,127.91,26.6,43.07-2.76,75-17.57,88.64-24.07,28.51-13.55,56.31-33.48,69.65-43,22.6-16.21,21.41-17.7,32.93-24.06,25.57-14.13,48.68-16.3,81-19,31.4-2.61,57.71-4.56,89.92,5.07,39,11.64,47.41,28.5,49.38,32.92a46,46,0,0,1,3.8,20.26"/><path class="cls-1" d="M670.51,315.59a67.9,67.9,0,0,0,12.66,24.06,69.1,69.1,0,0,0,20.26,16.46C748.93,381.5,808.54,389,808.54,389c42.13,5.33,71,9,110.17,2.53,50.59-8.32,87.28-28.34,111.44-41.79,35.82-19.93,35.91-27.09,83.58-53.19,32.71-17.9,55.61-27.08,72.19-32.92,14.36-5.06,31.45-11,54.45-15.2,36.4-6.64,81.92-14.95,108.91,10.13,9.45,8.79,14.07,19.3,16.46,26.6"/><path class="cls-1" d="M661.64,376.38a409.5,409.5,0,0,0,54.46,22.79C781,421,839.87,422.54,882,419.43"/><path class="cls-1" d="M353.92,2.8c3.7,23,11.73,39.71,20.26,51.92C385.74,71.26,393,72.08,400.77,87.65c2.64,5.27,5.7,13,8.87,54.45,2.92,38.22.87,38.86,3.8,50.65,6.14,24.75,19.92,41,29.12,51.92,26.5,31.34,57.73,44.68,72.19,50.66,32.31,13.37,59,15.16,97.51,17.73s54.06-1,97.51,5.06c19,2.64,30.1,5.28,41.78,7.6,2.83.56,70.74,13.67,141.84,10.13,69.61-3.46,127.05-6.31,171-45.59,31.41-28.09,50.67-45.32,62.05-72.18,3.4-8,10.49-27.28,29.12-40.52,6.69-4.75,12.83-7.29,22.8-11.4,22.14-9.14,32.57-9.17,45.59-13.93,17.73-6.49,28.08-17.29,43-32.93,39.55-41.28,58.74-99.64,64.59-119"/><path class="cls-1" d="M638.85,418.17c53.87,24.36,99.16,31,127.9,32.92,93.61,6.32,169.33-26.38,243.14-58.25,59.35-25.63,116.51-57,116.51-57,31.06-17,57.71-33.24,101.31-49.39,5.36-2,17.41-7.27,34.18-10.88,13.45-2.89,31.71-6.65,54.46-3.05a125.43,125.43,0,0,1,46.86,17.73"/><path class="cls-1" d="M1071.94,243.41a366.87,366.87,0,0,1-58.25,25.32,377,377,0,0,1-107.64,19,383.27,383.27,0,0,1-119-15.2"/><path class="cls-1" d="M1658.27,4.07a597.92,597.92,0,0,0-31.66,54.45c-8.39,16.36-15.5,32.08-21.53,46.85"/><path class="cls-1" d="M1678.53,6.6a1279,1279,0,0,0-69.65,116.5c-6.18,11.72-18.89,45.38-44.32,112.71-5.8,15.34-14.92,40.57-3.8,63.32a53.68,53.68,0,0,0,12.66,16.46"/><path class="cls-1" d="M1693.73,4.07c-32.52,71.85-58.45,126.39-81,169.69-4.66,8.92-16.53,31.46-17.73,62.05-.41,10.41-1.91,48.71,24.06,74.71a73.73,73.73,0,0,0,12.67,10.14"/><path class="cls-1" d="M1688.66,340.92a67.41,67.41,0,0,0,38,6.33c7.45-1,25.25-3.38,35.46-17.73a45,45,0,0,0,7.6-21.53c.52-10.12-3.49-13.53-1.27-20.26,2.65-8,10.31-9.11,17.73-15.2,15.31-12.56,16.14-35.46,16.46-44.32,1-26.78-13.07-49.8-15.19-53.19-4.72-7.52-8.87-11.71-10.13-20.26-1.8-12.1,4.1-20.09,7.6-29.12,8.79-22.72,4.52-54.71-11.4-70.92-9.39-9.56-13.93-4.46-31.66-19-4.89-4-12.43-10.85-19-8.86a8.93,8.93,0,0,0-5.06,3.8c-1.72,3-.72,6.5,0,8.86,5.83,19.36,6,19.95,6.33,21.53,1.37,7.69-.09,13.94-1.27,19-1.56,6.68-2.89,12.39-7.59,17.73-6.86,7.76-16.16,9.4-20.27,10.13a43.26,43.26,0,0,1-22.79-2.54A44.32,44.32,0,0,1,1655.74,94"/><path class="cls-1" d="M1781.11,7.86c6.55,7.74,14.6,19.62,17.73,35.46,2.68,13.64-1.09,16,1.26,30.4,3,18.07,11.68,31.6,21.53,46.85,11.42,17.69,15.25,18.06,17.73,27.86,3.12,12.35-1.52,17.48-5.07,38-4.65,26.9-2.35,50.81-1.26,62.05,1.73,18,4.32,23.7,2.53,38-1.11,8.85-2.62,19.87-10.13,30.4-6.53,9.15-9.63,6.78-25.33,21.52-11.5,10.81-13.79,15.79-20.26,16.47-8.25.86-15.67-6.06-20.26-11.4"/><path class="cls-1" d="M1574.69,4.07c3,7.5,7.13,18.34,11.4,31.65,4.72,14.77,7.09,22.15,7.6,27.86,1.31,14.8-4.68,15.93-16.47,51.93-5.61,17.12-9.65,26.61-17.73,45.58a31.7,31.7,0,0,1-7.59,11.4c-8.59,8-19.82,8.42-25.33,8.87-32,2.56-32,18.59-67.12,21.52a178.19,178.19,0,0,1-39.26-1.26c-2.79-.42-8.56-1.38-15.9-2.6-19-3.15-18.26-3.19-22.09-3.73-20.25-2.88-22.89.78-40.52-2.54s-20.62-8.08-21.53-10.13c-2.21-5,1.51-7.36,0-13.93-1.84-8-9.34-13-20.26-20.26-9.8-6.51-14.08-7.28-16.46-12.66-2.23-5-1.15-10.38,0-13.93"/><path class="cls-1" d="M1722.85,603.05A329,329,0,0,1,1752,582.79a325.51,325.51,0,0,1,35.46-19"/><path class="cls-1" d="M1805.17,556.2a399.74,399.74,0,0,1,133-12.66"/><path class="cls-1" d="M1800.1,601.79c15.94-5.63,30-10.25,41.79-13.93,17.7-5.56,24.76-7.34,34.19-6.33,2.92.31,9.47,1.25,25.33,8.86a241.91,241.91,0,0,1,38,22.8"/><path class="cls-1" d="M1236.57,606.85c-.71-1.86-3.3-9.15,0-12.66,2.69-2.86,8-1.79,15.2,0,18.39,4.56,24.73,7.67,30.39,8.86,14.42,3.06,22.39-6.73,41.79-15.19,29.42-12.84,58.43-11,72.18-8.87,11.7,1.82,34.85,7.33,59.52,27.86"/><path class="cls-1" d="M351.38,148.43c-6.72-5.63-18.07-4-25.32,0-9.52,5.2-14.75,15.85-15.2,25.33-.29,6.24,4.87,16.06,15.2,35.46,6,11.3,9.43,16.85,11.39,26.59,1.44,7.12,1.16,11.79,1.27,16.46a113.51,113.51,0,0,0,11.4,43.06c9.11,18.23,23.8,27.89,46.85,43.05,22.08,14.53,28.58,13.53,36.73,25.33,10,14.53,5.22,23.31,16.46,32.93,8.37,7.16,19.69,9.69,32.93,12.66,13.54,3,15.69,1.29,21.52,5.07,10,6.46,8.56,14.74,19,20.26,3.32,1.75,4.19,1.3,17.73,3.8,14.27,2.63,16.69,3.76,24.06,5.06,8.12,1.44,22.85,4.05,36.72,1.27,17.18-3.45,42.56-17.08,43.06-36.73.3-11.77-8.37-24.54-19-27.86-5.26-1.63-7.71.06-24.07,3.8-19.52,4.48-29.48,6.68-39.25,5.07-12.45-2.05-20.88-9-25.33-12.66-17.38-14.32-13.86-26.76-32.93-53.19-8.47-11.75-14.27-19.79-25.32-26.6-10.58-6.5-15.79-5.63-34.19-15.19-12.29-6.39-18.44-9.58-22.8-15.2-8.59-11.06-3.12-17.39-11.4-31.66-5.31-9.15-12.19-14.52-22.79-22.79-16.58-12.94-21.28-10.91-25.33-19-3.6-7.19-.56-10.13-5.06-29.12C355,152.18,353.09,149.86,351.38,148.43Z"/><path class="cls-1" d="M17.07,595.46a112.88,112.88,0,0,1,27.86-11.4c18.46-4.79,23.5-1,49.38-3.8,21.83-2.37,27.07-6,45.59-5.07,21.84,1.15,25.55,6.82,26.6,8.87,3.86,7.57-2.12,17.6-3.8,20.26"/><path class="cls-1" d="M191.82,606.85a116.26,116.26,0,0,1-6.33-22.79c-2.47-14.5-.63-20.43-5.06-25.33-5.88-6.48-15.26-2.85-27.86-3.8C131.4,553.34,109,539.4,99.38,522c-9.87-17.84-6.73-40.06-3.8-60.79C97.17,450,99.16,445,98.11,434.63c-1.78-17.59-9.17-19.75-8.86-34.19.25-12.24,5.82-23.18,10.13-31.66,5.19-10.2,7.16-10,8.86-16.47,3.62-13.84-4.25-19.17,0-29.12,1.71-4,2.8-2.71,19-16.46,12-10.15,13.5-12.67,19-13.93,8.28-1.91,10.39,2.5,17.73,0,7.57-2.58,7.07-7.86,16.47-12.67,4.15-2.12,10.77-5.51,16.46-2.53,5.29,2.77,8.46,10.38,6.33,15.2-1.63,3.69-5.65,4.11-22.79,8.86C170,304.54,164.81,306,164,306.73c-11.24,9.8,3.8,32-7.59,45.58-6.36,7.58-12.71,2.7-22.8,11.4-9.75,8.41-15.75,23.28-13.93,36.73,2.27,16.68,14.84,18.24,15.2,32.92s-11.9,17.33-11.4,31.66c.48,13.69,12.18,26,22.79,31.66,14.86,7.95,22.43.18,34.2,8.86,11.36,8.39,7.08,17.69,19,24.07,5.73,3.06,15.91,5.84,26.6,5.06,6.2-.45,8.63-1.82,11.39,0,6.73,4.42-.2,17.44,6.33,22.8,4.82,3.95,11.22-1,27.86,2.53,2.19.46,4,.94,5.07,1.26"/><path class="cls-1" d="M293.13,371.31A125.17,125.17,0,0,1,264,405.5c-14.31,11.64-27.59,17-41.79,22.8A246.59,246.59,0,0,1,179.16,441,260.59,260.59,0,0,1,132.3,446"/><path class="cls-1" d="M353.92,304.19a52.06,52.06,0,0,0-26.6,2.54c-4.68,1.8-13,5.86-27.86,24.06-16.32,20-13.87,24.29-25.32,36.72-14,15.14-29.75,21.9-38,25.33A118.4,118.4,0,0,1,183,401.7a117.21,117.21,0,0,1-59.52-21.53"/><path class="cls-1" d="M213.35,358.65c9.81.21,24.09-1,38-8.87,8.45-4.79,9-7.69,31.66-29.12s30.22-24.79,35.46-26.6a62.77,62.77,0,0,1,29.13-2.53"/><path class="cls-1" d="M341.25,276.33a95.89,95.89,0,0,0-31.66,7.6c-28.87,12.56-31.65,31.63-59.51,41.79a83.64,83.64,0,0,1-40.53,3.8c-22.66-3.5-37.87-15.67-44.32-21.53"/><path class="cls-1" d="M137.37,489.08A222.32,222.32,0,0,0,207,475.15c21.94-8.23,62.28-23.36,87.38-60.78,4-6,2.89-5.48,26.59-45.59,11.46-19.39,18.64-31.19,32.93-38A54.46,54.46,0,0,1,378,325.72"/><path class="cls-1" d="M250.08,604.32a54.92,54.92,0,0,1,6.33-26.59c8.93-16.36,22.4-18.53,41.79-34.19,11.62-9.39,24.79-20,32.92-38,6.55-14.46,11.46-37.28,20.26-59.51a32.46,32.46,0,0,1,5.07-8.87c6.65-8.15,15.92-10.81,22.79-12.66,18.4-5,30.73-7.22,38-8.87a161.77,161.77,0,0,0,38-13.93"/><path class="cls-1" d="M245,556.2c33.92-13,48-29.11,54.45-41.79,4-7.89,7.59-19.3,19-34.19,7.41-9.67,10-10.26,15.2-19,7-11.87,6.08-17.48,12.66-31.66,3.36-7.24,6.88-12.43,13.93-22.79,13.64-20.07,20.54-30.22,32.92-39.26a90.28,90.28,0,0,1,29.13-13.93"/><path class="cls-1" d="M195.62,527.07a199.22,199.22,0,0,0,57-26.59C277,484,291.48,466.12,299.46,456.16c7.16-8.94,18.13-22.63,27.86-43.06,7.46-15.65,8.2-22.67,17.73-36.72,5.24-7.72,11.88-17.29,24.06-25.33a76.07,76.07,0,0,1,29.13-11.4"/><path class="cls-1" d="M385.58,422c11-12.47,18.82-22.25,24.06-29.12,3.44-4.51,7.08-9.48,13.93-12.67a32.88,32.88,0,0,1,17.73-2.53"/><path class="cls-1" d="M408.37,415.63a59.6,59.6,0,0,1,34.19-25.32"/><path class="cls-1" d="M445.1,447.29a66.07,66.07,0,0,1,22.79,24.06,65.41,65.41,0,0,1,7.6,24.06"/><path class="cls-1" d="M408.37,458.69a139.8,139.8,0,0,1,88.65,114"/><path class="cls-1" d="M462.82,430.83a97.39,97.39,0,0,1,45.59,36.72c18.49,28,16.13,56.66,15.2,64.59"/><path class="cls-1" d="M498.28,423.23a74.54,74.54,0,0,1,16.47,15.2c1.84,2.31,4.59,6.06,12.66,21.53,3.13,6,6.54,12.76,10.13,20.26"/><path class="cls-1" d="M374.18,515.68a102.24,102.24,0,0,1,102.57,46.85"/><path class="cls-1" d="M404.57,533.4A84.57,84.57,0,0,1,435,543.54c31.73,18,41,51.34,43.06,59.51"/><path class="cls-1" d="M361.52,556.2a95.73,95.73,0,0,1,46.85,5.06c27.58,10.35,42.07,30.6,46.86,38"/><path class="cls-1" d="M352.65,581.53a230.44,230.44,0,0,1,79.78,21.52"/><path class="cls-1" d="M310.86,591.66c-2.82-2.12-1.33-9.34,1.27-13.93.72-1.28,4.69-8,11.39-8.87,4.5-.6,5.33,2,10.14,1.27,2.52-.41,5.06-2,10.13-5.07,4.67-2.86,6.56-4.5,7.59-3.8s.51,2.7,0,5.07c-1,4.76-1.78,8.36-5.06,11.4-.69.64-5.45,5-10.13,3.8-3.84-1-4.21-4.91-7.6-5.07-3.13-.15-5.72,3-6.33,3.8s-1.7,3.07-3.8,7.6c-1,2.24-1.44,3.15-2.53,3.8A5,5,0,0,1,310.86,591.66Z"/><path class="cls-1" d="M318.46,603.05c.47-9.28,2.83-12.65,5.06-13.93,0,0,.16-.09,5.07-2.53h0a12.06,12.06,0,0,0,6.33,3.8c4.58,1,8.51-1.52,10.13-2.53,14.38-9,24.06-57,24.06-57,5.1-25.27,5.4-34.15,12.67-49.39,6.73-14.12,12.42-18.94,16.46-21.52,6-3.86,13-5.66,25.33-8.87,11.92-3.09,11.53-1.87,15.19-3.8,10.69-5.6,10.33-14,20.27-19,5.06-2.54,7.75-1.66,16.46-2.54a109.48,109.48,0,0,0,32.92-8.86"/><path class="cls-1" d="M1322.68,95.24c-1.55,5.22-5.07,19.66,2.54,30.4,6.59,9.31,19.45,12.87,27.86,15.19,10.5,2.91,13.32,1.3,17.73,5.07,7.13,6.1,4,14,10.13,22.79,5.17,7.46,13.09,10,21.52,12.67,4,1.27,31.21,9.93,53.19-3.8,15.95-10,12.55-21.35,32.93-34.19,3.76-2.37,9.68-5,21.53-10.14,24.7-10.79,28.54-10,35.45-16.46,7.5-7,15.69-19.65,12.67-30.39-1.66-5.88-5.42-6.71-10.13-15.2a53,53,0,0,1-6.34-21.53"/><path class="cls-1" d="M1475.91,6.6c-2.41,10.75-5.24,24.47-7.59,39.26-.5,3.11-1.14,7.51,1.26,11.39,3.43,5.54,10.9,6.58,19,7.6,7.23.91,15.82,2,26.59-1.27,17.12-5.16,26.16-17.17,30.39-22.79,3.89-5.16,8.47-11.4,8.87-20.26.16-3.48.53-11.65-5.07-15.2-5.1-3.24-11.69-.43-12.66,0"/><path class="cls-1" d="M1496.18,4.07c-1.14,10.64,7.45,19.33,16.46,19,8.61-.32,16.33-8.85,15.19-19"/><path class="cls-1" d="M1434.12,2.8c-2.62,4.64-15.25,28.13-6.33,54.45a62,62,0,0,0,13.93,22.8"/><path class="cls-1" d="M1469.58,91.44A95.64,95.64,0,0,0,1505,90.18a112.64,112.64,0,0,0,21.53-7.6,148.28,148.28,0,0,0,22.79-12.66"/><path class="cls-1" d="M1397.4,9.13c-.35,2.95-6.71,63.87,26.59,93.71,9.08,8.13,18.25,16.35,31.66,17.73,5.95.61,14.29,0,31.66,1.27a31.8,31.8,0,0,1,13.93,3.8,30.34,30.34,0,0,1,8.87,7.59"/><path class="cls-1" d="M1369.54,49.65c-2,10.25-3.63,27.52,3.8,45.59,8.19,20,24.12,32.9,30.39,38,6.44,5.24,7.78,5.12,11.4,8.87,12.12,12.54,13.47,30.72,12.66,44.32"/><path class="cls-1" d="M1147.93,232c4.31-31,15.78-44.25,25.32-50.65,13.44-9,22.54-4.12,46.86-15.2,7.26-3.31,17.18-10.27,36.72-24.06,18-12.69,28.07-20.37,46.86-34.19,39.07-28.75,36.55-25.76,41.79-30.4,14.35-12.69,32.23-34.2,44.32-72.18"/><path class="cls-1" d="M1346.74,78.78c1.3,5,3.12,12.43,5.07,21.53,2.34,10.92,2.59,13.71,2.53,16.46-.1,4.79-1.2,12.94-7.6,22.8"/><path class="cls-1" d="M1534.17,183.89a98.08,98.08,0,0,0-11.4,30.39c-.85,4.4-1.86,11.34,0,40.52,1.52,23.87,2.28,35.8,5.06,46.86a150.75,150.75,0,0,0,13.93,35.46"/><path class="cls-1" d="M1479.71,244.67c-5.21,28.33-9.1,48.83-11.39,60.79-4.15,21.63-6.41,32.9-3.8,48.12a92.06,92.06,0,0,0,12.66,32.93"/><path class="cls-1" d="M1421.46,347.25a275.39,275.39,0,0,1,44.32-146.9"/><path class="cls-1" d="M1382.2,348.52a325.58,325.58,0,0,0-7.6,101.3"/><path class="cls-1" d="M1341.68,448.56c-1-7.84-2.12-18.19-2.53-30.39a254.73,254.73,0,0,1,2.53-50.66c2.82-17.79,7-30.25,15.2-54.45,5-14.76,9.58-26.57,12.66-34.19a711.54,711.54,0,0,1,40.52-83.58"/><path class="cls-1" d="M1388.53,319.39a221.23,221.23,0,0,1,10.14-51.92c3.26-10.09,8.53-26,20.26-44.32a171.5,171.5,0,0,1,15.19-20.27"/><path class="cls-1" d="M1112.47,348.52a58.86,58.86,0,0,1,21.53,0c10.18,1.93,17.15,6.2,40.52,24.06,18.64,14.24,28,21.37,32.93,26.59,6.84,7.21,16.66,17.73,24.06,34.19,6.36,14.16,13.55,30.17,6.33,44.32-5,9.88-14.85,14.48-20.26,16.47"/><path class="cls-1" d="M1128.93,335.85a100.07,100.07,0,0,1,30.39,0c24,3.72,40.14,15.31,46.86,20.26,10.55,7.78,16.78,15.19,25.33,25.33,10,11.84,17.33,20.58,22.79,34.19,3.5,8.74,8.68,21.63,6.33,36.73-4.21,27.11-29.6,41.77-34.19,44.32"/><path class="cls-1" d="M1170.72,315.59a117.9,117.9,0,0,1,29.13,7.6c9,3.63,35.31,14.7,53.18,43.05a107.93,107.93,0,0,1,15.2,41.79c2.06,12.73,4.77,29.44-2.53,48.13-9,23.16-27.88,35-35.46,39.25"/><path class="cls-1" d="M1203.65,300.39a148.78,148.78,0,0,1,49.38,22.8c11.28,8,23,16.3,31.66,31.66,15.75,27.75,9.53,56.83,7.6,65.85-4.25,19.86-13.31,33.44-19,41.79a137.22,137.22,0,0,1-31.66,32.92"/><path class="cls-1" d="M1231.51,286.46a125.48,125.48,0,0,1,46.85,38,122.5,122.5,0,0,1,22.8,51.93c3.29,19.44.69,34.7-1.27,45.58a158.84,158.84,0,0,1-17.73,49.39"/><path class="cls-1" d="M1256.83,277.6c7.88,1.5,24.5,5.91,38,20.26,10.24,10.88,14,22.52,16.47,30.39,3.86,12.39,4.33,22.71,3.8,43.06-.42,15.93-1.43,36.55-3.8,60.79"/><path class="cls-1" d="M1297.36,271.27a89.34,89.34,0,0,1,19,27.86c4.2,9.81,5.39,21.45,7.6,44.32,3.39,35.08,1.91,46.37,1.27,50.65a135.85,135.85,0,0,1-6.34,25.33"/><path class="cls-1" d="M1327.75,276.33a72.78,72.78,0,0,1,11.4,26.6c3.56,17.78-1.56,29.44-6.34,60.78-2,13-3.11,24.24-3.79,32.93"/><path class="cls-1" d="M1355.61,286.46c.47,2.85.9,5.81,1.27,8.87.69,5.79,1.08,11.29,1.26,16.46"/><path class="cls-1" d="M19.6,428.3c1,1.56,16.57,25.52,44.32,25.32,18.53-.13,31-10.94,34.19-13.93"/><path class="cls-1" d="M23.4,516.94a89.33,89.33,0,0,0,76,7.6"/><path class="cls-1" d="M24.66,468.82a72.09,72.09,0,0,0,29.13,39.26,71.58,71.58,0,0,0,43.06,11.39"/><path class="cls-1" d="M24.66,579a169.61,169.61,0,0,0,41.79-6.33c20.75-5.88,27.35-12.15,29.13-13.93,8.38-8.36,11.43-18.33,12.66-24.06"/><path class="cls-1" d="M31,562.53a73.58,73.58,0,0,0,38,0,74.51,74.51,0,0,0,39.25-26.59"/><path class="cls-1" d="M27.2,543.54a80.05,80.05,0,0,0,35.45,6.33c7.36-.41,17.42-1.1,27.86-7.6a49.58,49.58,0,0,0,12.67-11.4"/><path class="cls-1" d="M74.05,580.26a41.52,41.52,0,0,0,36.73-40.52"/><path class="cls-1" d="M174.09,557.47q-.17,9.21,0,19c.18,9.68.63,19,1.27,27.86"/><path class="cls-1" d="M151.3,556.2c.35,3.7.76,7.5,1.27,11.4.39,3,.81,6,1.26,8.86"/><path class="cls-1" d="M138.64,552.4c-.1,2.79-.11,5.76,0,8.86a124.58,124.58,0,0,0,1.26,13.93"/><path class="cls-1" d="M126,548.6a41.66,41.66,0,0,0-1.26,25.33"/><path class="cls-1" d="M112,576.46a45,45,0,0,1-2.53-10.13,45.45,45.45,0,0,1,1.27-17.73"/><path class="cls-1" d="M22.13,443.49c8.07,3.52,14.54,6.65,19,8.87,8.5,4.23,11.91,6.31,19,8.86,6.05,2.18,10.48,3.66,16.46,3.8a40,40,0,0,0,17.73-3.8"/><path class="cls-1" d="M93.05,509.34a56.14,56.14,0,0,1-19-5.06c-7.48-3.53-15.36-9.37-29.12-29.13a283.75,283.75,0,0,1-24.07-41.79"/><path class="cls-1" d="M91.78,489.08a54.4,54.4,0,0,1-13.93,0c-21-2.72-34.49-17.12-39.26-22.79"/><path class="cls-1" d="M55.06,401.7h0a5.68,5.68,0,0,0-2.54,3.8c-.27,2,.7,4.72,2.54,5.07,1.65.31,3.18-1.44,3.8-2.54a5.23,5.23,0,0,0,0-5.06,2.81,2.81,0,0,0-1.27-1.27c-1.11-.47-2.6,0-3.8,1.27"/><path class="cls-1" d="M156.37,5.33a181.86,181.86,0,0,0,32.92,13.93,181.79,181.79,0,0,0,27.86,6.33"/><path class="cls-1" d="M203.22,297.86a117.09,117.09,0,0,0,16.46-5.06c7.66-3,11.52-4.55,12.67-7.6,2.61-7-7.61-16.57-8.87-17.73-6.86-6.32-10.2-4.28-15.19-10.13-6.47-7.57-6.37-17.42-6.34-19,.16-6.58,2.51-6.62,2.54-12.66,0-9.3-5.53-10.24-6.33-20.26A34,34,0,0,1,202,187.69c2.22-4.17,3.23-3.73,5.07-7.6,2.53-5.32,1.82-8.65,2.53-17.73.16-2,.95-7.25,2.54-17.73,2-13.44,2.35-13.65,2.53-17.73.41-9.32-1.22-9.73,0-15.19.73-3.31,3-7.27,7.6-15.2,4.18-7.24,6.27-10.87,7.59-12.66,2.75-3.71,4.56-5.44,5.07-8.87.61-4-1.28-5.88,0-7.6,1-1.38,3.53-1.84,12.66,0,9.62,2,10.27,3.14,15.2,3.8,4.61.62,14.42,1.93,19-3.8,4.2-5.24,2.07-14-1.26-19S272,41.25,267.8,39.52c-8.14-3.33-9.79-.84-15.19-3.8-8.3-4.53-7.36-12-13.93-13.93-5.92-1.72-12.07,2.78-15.2,5.07-7.37,5.39-6.33,9.54-15.19,21.53C201.17,58,198.53,58,194.36,66.12a49.91,49.91,0,0,0-5.07,15.19c-1.36,9.32,1,15.32,2.53,22.8.89,4.23,4.88,23.41-1.26,41.79-.09.27-4.71,9.89-13.93,29.12-3.93,8.2-4.41,9.18-5.07,11.4-4,13.35,1.19,17.77-1.26,30.39s-8.27,11.92-8.87,22.8c-.5,9.06,3.16,16.41,6.33,22.79a69.08,69.08,0,0,0,12.67,17.73"/><path class="cls-1" d="M1693.73,329.52a89.84,89.84,0,0,0,25.32,0c6.4-.91,16.56-2.45,27.86-8.86a70.65,70.65,0,0,0,21.53-19"/><path class="cls-1" d="M1611.41,301.66a142.74,142.74,0,0,0,29.13,2.53,144.44,144.44,0,0,0,50.66-10.13"/><path class="cls-1" d="M1600,276.33a182.41,182.41,0,0,0,41.79,5.07c11.69.05,28.06-3.34,60.78-10.13,7.18-1.49,15.76-3.37,24.06-10.13a46.14,46.14,0,0,0,11.4-13.93"/><path class="cls-1" d="M1743.12,268.73a127.65,127.65,0,0,0,21.52-13.93,131.43,131.43,0,0,0,35.46-44.32"/><path class="cls-1" d="M1593.69,238.34a96.52,96.52,0,0,0,32.92,15.2c9.59,2.33,19.9,2.4,40.52,2.53,16,.1,24,.15,29.13-1.27,7.09-2,21.84-7.84,35.46-29.12"/><path class="cls-1" d="M1740.58,218.08a111.92,111.92,0,0,0,17.73-17.73,113.93,113.93,0,0,0,20.26-39.26"/><path class="cls-1" d="M1600,206.68a204.78,204.78,0,0,0,38,6.34,206.53,206.53,0,0,0,67.11-6.34"/><path class="cls-1" d="M1714,201.62a218.18,218.18,0,0,0,26.59-26.6c14.46-17.19,22.77-32.47,29.13-44.32a316.46,316.46,0,0,0,17.73-39.26"/><path class="cls-1" d="M1696.26,172.49a88.75,88.75,0,0,1-78.51-7.6"/><path class="cls-1" d="M1720.32,130.7a47.43,47.43,0,0,1-20.26,13.93c-7.27,2.49-13.65,2.51-22.79,2.53-7.86,0-11.8,0-16.47-1.26-4-1.1-13.92-4.67-22.79-17.73"/><path class="cls-1" d="M1726.65,124.37a248.44,248.44,0,0,0,17.73-22.79c7.55-11,12.6-18.31,16.46-29.13a88.42,88.42,0,0,0,5.07-26.59"/><path class="cls-1" d="M1735.52,42.06c1.83,6.11,6.64,25.12-2.54,44.32-5.7,11.93-14.5,19.12-19,22.79-5.14,4.21-12,9.83-22.79,12.67-4.84,1.27-18.87,5-31.66-2.54a33.45,33.45,0,0,1-8.87-7.59"/><path class="cls-1" d="M1682.33,40.79a20.8,20.8,0,0,0-1.27,11.4c1.74,9.32,10.06,14.19,13.93,16.46,12.16,7.12,25,4.74,29.13,3.8"/><path class="cls-1" d="M1665.87,75a37.51,37.51,0,0,0,38,10.13,38.74,38.74,0,0,0,19-12.66"/></svg>
