<?xml version="1.0" encoding="utf-8"?>
<!-- Generator: Adobe Illustrator 25.2.3, SVG Export Plug-In . SVG Version: 6.00 Build 0)  -->
<svg version="1.1" xmlns="http://www.w3.org/2000/svg" xmlns:xlink="http://www.w3.org/1999/xlink" x="0px" y="0px"
	 viewBox="0 0 500 500" style="enable-background:new 0 0 500 500;" xml:space="preserve">
<style type="text/css">
	.st0{display:none;}
	.st1{display:inline;opacity:0.5;}
	.st2{fill:none;stroke:#3993FA;stroke-width:2;stroke-linecap:round;stroke-miterlimit:10;}
</style>
<g id="Layer_3" class="st0">
	<g class="st1">
		<path class="st2" d="M1351.4-53.7c17.2,2.2,35.4,3.9,54.5,5.1c10.4,0.6,20.5,1,30.4,1.3"/>
		<path class="st2" d="M1319.8-53.7c20.3,9.3,41.5,16.6,63.3,21.5c17.5,4,35.3,6.5,53.2,7.6"/>
		<path class="st2" d="M1288.1-53.7c24,18,51.6,30.5,81,36.7c22.5,4.7,45.6,5.5,68.4,2.5"/>
		<path class="st2" d="M1291.9-37.2c21.3,11.6,43.8,20.9,67.1,27.9c26,7.7,52.7,12.4,79.8,13.9"/>
		<path class="st2" d="M1300.8-20.8c23.6,20.3,45.1,28.2,58.2,31.7c20.7,5.4,43.3,5.9,68.4,6.3c8,0.2,14.6,0.1,19,0"/>
		<path class="st2" d="M1300.8-8.1c17.6,10.7,36.3,19.7,55.7,26.6c20.9,7.5,42.5,12.6,64.6,15.2c6.7,0.7,12.4,1.1,16.5,1.3"/>
		<path class="st2" d="M1299.5,5.8c22.1,19.2,42.7,27.6,55.7,31.7c18.8,5.8,37.4,7.3,57,8.9c12,0.9,22.1,1.2,29.1,1.3"/>
		<path class="st2" d="M1303.3,27.3c15.7,10.5,32.8,19.1,50.7,25.3c10.8,3.7,21.8,6.6,32.9,8.9c17.1,3.7,34.5,6.3,51.9,7.6"/>
		<path class="st2" d="M1307.1,35c3.3,2.6,8,6.2,13.9,10.1c4,2.7,7.9,5,10.1,6.3c9.1,5.2,16,6.4,29.1,10.1
			c22.4,6.2,19.5,7.4,32.9,10.1c8.8,1.7,17.7,3,26.6,3.8c6.7,0.7,12.4,1.1,16.5,1.3"/>
		<path class="st2" d="M1317.2,54c4.3-0.2,8.5,0.2,12.7,1.3c10.1,2.6,15.2,8.2,21.5,12.7c5.7,4,14.8,6.5,32.9,11.4
			c12.9,3.5,26,6.1,39.3,7.6c6.6,0.7,12.3,1.1,16.5,1.3"/>
		<path class="st2" d="M1319.8,66.6c10.1,6,20.7,11.1,31.6,15.2c7.6,2.8,15.6,5.2,31.7,8.9c13.8,3.1,32.7,6.9,55.7,10.1"/>
		<path class="st2" d="M1341.3,88.1c9.3,5,19.1,9.3,29.1,12.7c15.5,5.2,16.7,3.2,31.7,8.9c7.6,2.9,13.8,5.8,24.1,7.6
			c4.2,0.7,8.4,1.1,12.7,1.3"/>
		<path class="st2" d="M1343.8,99.5c7.2,4.6,14.8,8.4,22.8,11.4c7.9,3,9.4,2.6,20.3,6.3c14.8,5.1,16.8,7.3,26.6,10.1
			c8.2,2.3,16.8,3.6,25.3,3.8"/>
		<path class="st2" d="M1336.2,103.3c3.9,4.1,8.2,7.9,12.7,11.4c17.7,13.7,35.5,19,44.3,21.5c3.3,1,13.2,3.2,32.9,7.6l11.4,2.5"/>
		<path class="st2" d="M1335,119.8c5.7,6.3,12.6,11.4,20.3,15.2c9.8,4.7,12.8,3.2,31.7,8.9c14.5,4.4,16.7,6.5,27.9,8.9
			c7.1,1.5,14.3,2.3,21.5,2.5"/>
		<path class="st2" d="M1336.2,122.3c5.9,7.6,12.7,14.4,20.3,20.3c9.9,7.7,21,13.7,32.9,17.7c13.8,4.5,25.9,4.7,36.7,5.1
			c4.7,0.1,8.6,0.1,11.4,0"/>
		<path class="st2" d="M1333.7,136.3c2.4,5.4,5.3,10.5,8.9,15.2c6.9,8.9,15.5,16.2,25.3,21.5c8.1,4.5,15.5,6.4,30.4,10.1
			c12.9,3.3,19.8,3.8,25.3,3.8c4.7,0,9.3-0.4,13.9-1.3"/>
		<path class="st2" d="M1329.9,149c3.4,3.2,8.2,7.6,13.9,12.7c5.4,4.7,9.6,8.3,15.2,12.7c7.2,5.7,14.8,10.8,22.8,15.2
			c6.2,3.3,11.9,6.4,20.3,8.9c8.2,2.3,16.8,3.6,25.3,3.8c3.7,0.1,6.7,0.1,8.9,0"/>
		<path class="st2" d="M1332.4,162.9c2.4,2.4,5.9,6,10.1,10.1c10.7,10.6,16.1,15.9,20.3,19c7.8,5.8,16.3,10.5,25.3,13.9
			c6.5,2.8,13.3,4.9,20.3,6.3c9.2,1.8,18.6,2.2,27.9,1.3"/>
		<path class="st2" d="M1333.7,186.9c4.5,6.4,10.1,11.9,16.5,16.5c10.9,7.8,20.8,10,38,13.9c18.7,4.3,30.4,4,34.2,3.8
			c4.2-0.2,8.5-0.6,12.7-1.3"/>
		<path class="st2" d="M1335,190.7c5.7,8.9,13,16.6,21.5,22.8c9.6,6.9,18.3,10.1,25.3,12.7c8.2,3,16.7,5.1,25.3,6.3
			c6.3,0.8,12.6,1.2,19,1.3c4.7,0.1,8.6,0.1,11.4,0"/>
		<path class="st2" d="M1332.4,205.9c2.7,7.3,6.6,14.1,11.4,20.3c3.5,4.4,8.4,10.6,16.5,15.2c7.4,4.2,14.3,5,27.9,6.3
			c11.8,1.2,15.3,0.3,32.9,1.3c7.5,0.4,13.7,0.9,17.7,1.3"/>
		<path class="st2" d="M1240,357.9c7-3.8,13.8-8,20.3-12.7c7.3-5.3,17.6-12.8,27.9-25.3c5.5-6.6,10.2-13.8,13.9-21.5
			c5.1-10.6,6.1-17.5,6.3-21.5c0.1-2.1,0.1-4.2,0-6.3"/>
		<path class="st2" d="M1265.3,350.3c6.9-2.9,13.3-6.7,19-11.4c12.2-10,18-21.1,21.5-27.9c4.2-8,7.2-16.5,8.9-25.3
			c1.1-6.3,1.6-12.6,1.3-19"/>
		<path class="st2" d="M1295.7,350.3c5.7-6.2,10.5-11.4,13.9-15.2c11.2-12.3,13.2-14.7,15.2-19c2.7-6,3.1-11.2,3.8-21.5
			c1.1-15.1-1.6-20-2.5-21.5c-1.9-3.1-4.5-5.7-7.6-7.6"/>
		<path class="st2" d="M1317.2,350.3c5.1-4.3,9.3-9.4,12.7-15.2c5.5-9.6,6.7-18.2,7.6-25.3c1.1-8.6,2.5-20-2.5-32.9
			c-2.6-6.6-6.5-12.6-11.4-17.7"/>
		<path class="st2" d="M1348.9,344c2.3-4.4,4-9.1,5.1-13.9c2.4-10.7,1.2-19.2,0-26.6c-1.2-7.8-3-18.5-10.1-30.4
			c-4.3-7.2-9.9-13.7-16.5-19"/>
		<path class="st2" d="M1366.6,336.3c0.6-5.9,0.6-11.8,0-17.7c-2.4-21.9-13.3-41.9-30.4-55.7"/>
		<path class="st2" d="M1336.2,230c3.2,3.2,6.5,6.2,10.1,8.9c7.3,5.5,11.2,6.7,31.7,16.5c12,5.7,13.4,6.6,17.7,7.6
			c2.8,0.6,6,1.1,19,1.3c5.1,0.1,12,0.1,20.3,0"/>
		<path class="st2" d="M1381.8,264.2c6.1,3.1,12.4,5.7,19,7.6c6.2,1.9,12.6,3.2,19,3.8c5.5,0.5,11,0.5,16.5,0"/>
		<path class="st2" d="M1391.9,275.6c5,2,10,3.6,15.2,5.1c9.5,2.6,19.3,4.3,29.1,5.1"/>
		<path class="st2" d="M1418.5,304.7c4.6-5.3,10.8-8.9,17.7-10.1"/>
		<path class="st2" d="M1403.3,295.8c7.3,2.5,15.1,3.4,22.8,2.5"/>
		<path class="st2" d="M1331.2,246.4c3.5,0.1,7,1,10.1,2.5c4.4,2.2,6.9,5.3,11.4,11.4c6.4,8.7,10.8,15.6,11.4,16.5
			c8.3,13,6.5,10.8,12.7,20.3c6.7,10.4,9,13.2,10.1,19c0.8,4.2,0.8,8.5,0,12.7"/>
		<path class="st2" d="M1333.7,246.4c4.8,0.4,9.6,1.6,13.9,3.8c4.1,2,8.4,5.2,17.7,17.7c8.8,11.8,13.4,18,17.7,27.9
			c2,4.6,4.6,11.5,10.1,22.8c1,2.1,1.9,3.9,2.5,5.1"/>
		<path class="st2" d="M1333.7,242.6c3,0.1,6,0.5,8.9,1.3c5.5,1.5,10,4,16.5,8.9c6.8,5.1,14,10.6,21.5,20.3c2.1,2.7,6,9.8,13.9,24.1
			c2.7,4.9,5.9,10.8,6.3,19c0.1,1.3,0.1,2.5,0,3.8"/>
		<path class="st2" d="M1333.7,238.8c2.6,0.3,5.1,0.7,7.6,1.3c16,3.6,26.5,12.3,32.9,17.7c13.4,11.3,20.5,23.3,25.3,31.7
			c4,6.9,7.4,14,10.1,21.5"/>
		<path class="st2" d="M1281.8,231.2c0.9,1.5-1.2,3.5-2.5,6.3s-0.9,7.5,0,16.5c0.4,3.9,0.7,5.3,0,7.6c-0.2,0.7-1.4,4.8-5.1,6.3
			c-1.6,0.7-4.2,1.1-5.1,0c-0.7-1,0.2-2.5,1.3-5.1c1.1-2.9,1.9-5.8,2.5-8.9c0.4-1.9,0.3-5.9,0-13.9c-0.2-5.3-0.3-7.5,1.3-8.9
			c1.4-1.1,3.3-1.6,5.1-1.3C1280.2,230,1281.1,230.5,1281.8,231.2z"/>
		<path class="st2" d="M1265.3,273c1.4,0.1,0.1,6.2,3.8,8.9c3,2.1,6.3,0,8.9,2.5c1.4,1.4,2.1,3.8,1.3,5.1c-1.3,2.1-6.5,0.9-8.9,0
			c-2-0.7-6.1-2.3-7.6-6.3C1261.1,278.4,1264,272.9,1265.3,273z"/>
		<path class="st2" d="M1267.8,306c-0.8,0.6-1.3,1.5-1.3,2.5c-0.2,2.4,1.9,5.3,3.8,5.1c1.4-0.2,2.5-2.1,2.5-3.8c0-1.7-1-3.1-2.5-3.8
			C1269.6,305.6,1268.6,305.6,1267.8,306z"/>
		<path class="st2" d="M1252.6,294.5c-0.8,0.6-1.2,1.5-1.3,2.5c0.2,2.4,4.7,3.4,6.3,3.8c2,0.5,4.3,1,5.1,0c0.9-1.3-1-4.8-3.8-6.3
			C1257.4,293.7,1254.5,293,1252.6,294.5z"/>
		<path class="st2" d="M1075.4,288.2c-2.3,0.6-8.3,2.2-8.9,6.3c-0.4,2.7,1.6,6,3.8,6.3c3,0.5,4.3-4.7,8.9-5.1
			c2.7-0.2,3.2,1.5,6.3,1.3c2.9-0.2,6.2-1.9,6.3-3.8c0.1-2.4-5.2-4.4-7.6-5.1C1081.3,287.5,1078.3,287.5,1075.4,288.2z"/>
		<path class="st2" d="M1120.9,284.4c-6.3,0.4-8.5-2.1-12.7,0c-3.5,1.8-6,5.7-5.1,7.6c0.6,1.2,2.2,0.8,6.3,2.5
			c3.2,1.3,3.4,2,5.1,2.5c3.1,0.9,5.8-0.5,10.1-2.5c12.4-5.9,10.7-4.4,16.5-7.6c4-2.2,7.8-4.8,11.4-7.6c4.9-3.9,6.1-5.6,6.3-7.6
			c0.5-3.4-1.6-7.4-3.8-7.6c-2-0.2-2.8,2.8-6.3,6.3c-2.1,2.1-4.8,3.5-10.1,6.3C1129.3,281.7,1124.6,284.2,1120.9,284.4z"/>
		<path class="st2" d="M1210.8-29.6c1.9-2.3,4.1-4.4,6.3-6.3c2.4-2,5.8-4.8,10.1-5.1c5-0.3,7.2,2.9,10.1,1.3c1.8-1,3-3.3,2.5-5.1
			c-0.9-3.5-8.7-4.4-13.9-3.8c-1.3,0.1-12.1,1.5-16.5,10.1c-2.5,4.9-2.4,11-1.3,11.4C1208.8-26.9,1209.3-27.8,1210.8-29.6z"/>
		<path class="st2" d="M1199.5,18.5c-1.3,0.8-1.7,2.5-0.9,3.8c0.5,0.7,1.3,1.2,2.1,1.3c1.7,0.3,3.4-0.8,3.8-2.5c0-1-0.5-1.9-1.3-2.5
			C1202.1,17.7,1200.6,17.7,1199.5,18.5z"/>
		<path class="st2" d="M1048.8-11.9c-0.9,0.6-1.3,1.7-1.3,7.6c0,7.2,0.6,8.9,1.3,10.1c0.3,0.6,2.1,4.1,3.8,3.8s2.6-3.6,2.5-6.3
			c-0.1-3.5-2-3.9-2.5-7.6c-0.5-4.1,1.4-6.3,0-7.6C1051.4-12.7,1049.9-12.7,1048.8-11.9z"/>
		<path class="st2" d="M1000.6-32.2c0.4,0,0.8,0,1.3,0c-0.8-0.2-1.7-0.2-2.5,0c-1.1,0.3-2.4,1.3-2.5,2.5c-0.2,1.9,2.7,3.6,5.1,3.8
			c0.4,0,3,0.3,3.8-1.3c0.7-1.3-0.4-3-1.3-3.8c-0.7-0.7-1.6-1.1-2.5-1.3"/>
		<path class="st2" d="M1020.9-32.2c-1.8,0.4-2.4-0.3-3.8,0c-1.9,0.5-3.3,1.9-3.8,3.8c-0.4,1.8,0.1,3.7,1.3,5.1
			c1.2,1.6,3.1,2.5,5.1,2.5c2.4-0.2,2.6-2.1,8.9-8.9c1.5-1.5,2.8-3.2,3.8-5.1c1.1-2,2-3.8,1.3-5.1c-0.9-1.1-2.4-1.6-3.8-1.3
			c-1.6,0.4-2.6,1.8-3.8,3.8s-1.2,2.8-2.5,3.8C1022.7-32.8,1021.8-32.4,1020.9-32.2z"/>
		<path class="st2" d="M993,86.9l-0.3,0.3c-2.2,1.8-4.2,3.9-6,6.1c-2.2,2.8-3.4,4.2-3.8,6.3c-0.1,0.6-1,4.8,1.3,6.3
			c1.8,1.2,4.7,0.1,6.3-1.3c1.9-1.6,1.4-3.1,3.8-7.6c1.5-2.8,2.2-4.2,3.8-5.1c2.3-1.3,3.4,0,6.3-1.3c2.6-1.1,2.2-2.2,5.1-3.8
			c3.2-1.7,4.7-0.8,6.3-2.5c1.5-1.6,2.2-4.1,1.3-5.1c-0.7-0.7-1.9-0.2-6.3,1.3l-11.4,3.8C997.1,84.6,994.9,85.4,993,86.9z"/>
		<path class="st2" d="M822.1,422.5c0.4-6.5,0.8-7.6,0-8.9c-1-1.7-3.3-3-5.1-2.5c-3,0.8-3.5,6.7-3.8,10.1c-0.3,3.7-0.6,6.8,1.3,10.1
			c1.7,3,4.4,5.2,7.6,6.3c2.8,1,7.7,1.9,8.9,0c0.9-1.6-0.9-4.6-2.5-6.3c-2.7-2.8-5.3-2.5-6.3-5.1
			C821.9,425.8,821.9,425.5,822.1,422.5z"/>
		<path class="st2" d="M822.1,452.9c-0.2-0.3-3.2,4-8.9,5.1c-3,0.6-4.9-0.1-8.9,1.3c-1.8,0.6-3.6,1.3-3.8,2.5
			c-0.2,1.5,1.8,3.4,3.8,3.8s3.8-0.8,7.6-3.8C816.1,458.4,822.4,453.2,822.1,452.9z"/>
		<path class="st2" d="M844.9,459.2c-1.5,0.2-2.4,2.3-2.5,3.8c-0.2,2,0.7,4.8,2.5,5.1s3.5-1.8,3.8-3.8c0.2-1.4-0.3-2.8-1.3-3.8
			C846.8,459.7,845.9,459.2,844.9,459.2z"/>
		<path class="st2" d="M809.4,471.8c5.3-0.3,10.4-1.6,15.2-3.8c5.3-2.5,8.7-5.5,13.9-10.1c3.6-3.2,7-6.5,10.1-10.1"/>
		<path class="st2" d="M760,521.2c-0.5,2,3.2,4.5,7.6,7.6c3.7,2.6,6.8,4.7,11.4,5.1c5.8,0.4,11.4-2,15.2-6.3c3.1-3.6,5-9.2,3.8-10.1
			c-0.4-0.3-1.1-0.1-1.3,0C790.4,519.6,761.3,515.9,760,521.2z"/>
		<path class="st2" d="M629.6,436.4c-1.6,0.9-1.3,3.4-1.3,12.7c0,7.3-0.2,9.2,1.3,10.1c1.7,1.2,4.9,0.5,6.3-1.3
			c1.7-2-0.1-3.9,1.3-7.6s3.9-3.9,3.8-6.3c-0.1-3.2-4.6-5.5-6.3-6.3C632.4,436.5,630.8,435.7,629.6,436.4z"/>
		<path class="st2" d="M662.5,374.3c1.7-5.3-5.4-13.3-10.1-12.7c-2.3,0.3-2.7,2.5-10.1,8.9c-2,1.7-3.4,2.8-5.1,2.5
			c-2.4-0.3-2.8-3-5.1-3.8c-3.3-1.2-7.6,2.6-8.9,3.8c-8,7.3-9.4,19.3-10.1,26.6c-1,10.4-2.4,24.1,5.1,29.1c2.4,1.6,6,2.6,8.9,1.3
			c4.2-1.9,5.4-8.2,5.1-12.7c-0.7-8.2-6.8-9.2-7.6-17.7c-0.1-1.2-0.7-8.2,3.8-12.7c2-2,4.3-2.6,8.9-3.8c9.2-2.4,12.5-0.8,19-3.8
			C659.1,378,661.7,376.9,662.5,374.3z"/>
		<path class="st2" d="M679,492.1c-2-3.8-5.1-6.9-8.9-8.9c-7.6-3.7-12.6,0.8-17.7-2.5s-5.7-11.7-6.3-24.1c-0.6-12.9,1.7-13.6,0-21.5
			c-2.2-10-6.2-10.4-7.6-20.3c-0.6-4.3-1.9-13.4,3.8-19c2.5-2.5,7.1-4.9,11.4-3.8c4.1,1,5.5,4.5,11.4,13.9c6,9.6,9,14.4,11.4,16.5
			c3.6,3.1,9.6,5.4,21.5,10.1c1.7,0.6,7.4,2.9,10.1,3.8c20.5,6.7,47.3-6,50.7-7.6c20.1-9.8,31.3-24.2,38-32.9
			c8.5-11.2,13.8-22.1,19-32.9c4.6-9.5,7.3-16.6,15.2-32.9c3.2-6.5,5.8-11.8,7.6-15.2"/>
		<path class="st2" d="M687.8,325c3.8,2.5,10,7.3,12.7,15.2c1,2.9,1.2,5.1,0,19c-1.8,22-3,25.6-5.1,29.1c-2.6,4.4-6,8.3-10.1,11.4
			c-5.6,4.2-12.1,6.8-19,7.6"/>
		<path class="st2" d="M701.8,394.6c-0.5,7.2-3.7,14-8.9,19c-4.5,4.2-10.3,6.9-16.5,7.6"/>
		<path class="st2" d="M705.6,338.9c4.4,9.3,7.8,19.1,10.1,29.1c3.1,13.4,5.3,22.8,2.5,34.2c-2.4,9.1-7.2,17.5-13.9,24.1"/>
		<path class="st2" d="M670.1,455.4c-7.3-3.9-7.8-8.9-11.4-8.9c-2.8,0-5.7,3.2-6.3,6.3c-0.9,4.5,3.2,8.5,8.9,13.9
			c7.8,7.4,11.7,11.2,17.7,11.4c6.2,0.2,5.9-3.6,17.7-6.3c2.9-0.5,5.5-1.8,7.6-3.8c0.9-0.9,2.9-2.9,2.5-5.1
			c-0.6-3.1-5.8-4.6-8.9-5.1c-5.5-0.8-6.5,1.7-13.9,1.3c-2.6-0.1-5.1-0.6-7.6-1.3C674.2,457.3,672.1,456.5,670.1,455.4z"/>
		<path class="st2" d="M656.2,421.2c-0.4,0-3.8,0.1-5.1,2.5c-1.4,2.7,0.6,7.1,3.8,7.6c2,0.2,4-0.8,5.1-2.5c1.2-1.8,1.6-4.7,0-6.3
			C658.9,421.5,657.6,421.1,656.2,421.2z"/>
		<path class="st2" d="M672.6,385.7c-1.3,0.7-1.5,2.6-1.3,3.8c0.3,1.9,2,4,3.8,3.8s3.2-2.9,2.5-5.1S674.2,384.8,672.6,385.7z"/>
		<path class="st2" d="M684,124.9c-2.4,2.5-4.2,5.5-5.1,8.9c-2.3,8.8,2.7,16.2,3.8,17.7c1.7,2.5,3.9,4.6,6.3,6.3"/>
		<path class="st2" d="M708.1,154c-2.5-1.9-4.3-4.6-5.1-7.6c-0.9-4.5,1.4-8.5,6.3-15.2c5.5-7.5,11.4-14.7,17.7-21.5
			c3.3-3.7,8.2-9.3,13.9-16.5"/>
		<path class="st2" d="M714.4,151.4c-0.4-4.7,0.1-9.4,1.3-13.9c1.8-6.7,4.7-10.1,10.1-20.3c2.8-5.3,5-9.7,6.3-12.7"/>
		<path class="st2" d="M722,150.2c0.7-6.6,2.4-13,5.1-19c3.8-8.4,8.4-13.6,17.7-24.1c5.6-6.3,9.8-11,16.5-16.5
			c6.6-5.4,13.9-10.1,21.5-13.9"/>
		<path class="st2" d="M736,149c2.3-8.4,5.7-16.5,10.1-24.1c4.7-8.1,9.2-13.4,15.2-20.3c7.4-8.6,15.5-16.7,24.1-24.1"/>
		<path class="st2" d="M744.8,149c3.4-8.8,7.6-17.3,12.7-25.3c6.3-10,12.9-17.6,22.8-29.1c4.1-4.8,7.7-8.7,10.1-11.4"/>
		<path class="st2" d="M755,149c4.2-8.2,8.2-15,11.4-20.3c6.5-10.6,13.7-20.8,21.5-30.4c3.5-4.3,6.6-7.7,8.9-10.1"/>
		<path class="st2" d="M766.4,149c3-8,6.8-15.6,11.4-22.8c5.1-7.8,11-15,17.7-21.5c3.2-3.1,6.6-6.1,10.1-8.9"/>
		<path class="st2" d="M776.5,147.6c3.5-6.8,6.6-12.4,8.9-16.5c8.4-15.1,11.2-18.6,13.9-21.5c3.7-3.9,8-7.4,12.7-10.1"/>
		<path class="st2" d="M787.9,149c1.2-4.8,2.9-9.5,5.1-13.9c3.6-7.2,7.9-12.5,16.5-22.8c3.1-3.8,5.8-6.8,7.6-8.9"/>
		<path class="st2" d="M796.8,150.2c1.2-7.6,3.8-14.9,7.6-21.5c2.6-4.8,6.1-9.1,10.1-12.7c1.6-1.4,3.3-2.6,5.1-3.8"/>
		<path class="st2" d="M803.1,151.4c0.1-4.3,1-8.6,2.5-12.7c2-5.2,5-9.9,8.9-13.9c1.2-1.3,2.5-2.6,3.8-3.8"/>
		<path class="st2" d="M813.2,152.7c0-3.8,0.4-7.7,1.3-11.4c1.2-5.4,3.4-10.5,6.3-15.2"/>
		<path class="st2" d="M820.8,155.2c0.2-4.3,1-8.6,2.5-12.7c1.5-4.1,3.6-8,6.3-11.4"/>
		<path class="st2" d="M827.1,156.5c0.3-3.5,1.2-6.9,2.5-10.1c2-4.8,5-9.1,8.9-12.7"/>
		<path class="st2" d="M834.7,159.1c-0.3-4.4,0.6-8.7,2.5-12.7c2.5-4.9,6.5-8.9,11.4-11.4"/>
		<path class="st2" d="M842.4,162.9c3.2-4,6.2-8.2,8.9-12.7c2.9-4.9,5.5-9.9,7.6-15.2"/>
		<path class="st2" d="M851.2,168c3.5-13,11-24.6,21.5-33"/>
		<path class="st2" d="M862.6,175.5c2.1-15.6,10.9-29.4,24.1-38"/>
		<path class="st2" d="M871.5,185.6c0.3-6.1,1.5-12.1,3.8-17.7c2.9-7.1,7.2-13.6,12.7-19c3.1-3.3,6.5-6.2,10.1-8.9"/>
		<path class="st2" d="M-237.9,509.8c-10.5,0.7-16.6-2.1-20.3-5.1c-4.3-3.5-6.8-8.4-8.9-7.6c-1.5,0.6-1.9,3.9-1.3,6.3
			c0.9,3.8,4.3,5.7,7.6,7.6c3.9,2.2,8.2,3.5,12.7,3.8c2.1,0.2,4.2,0.2,6.3,0"/>
		<path class="st2" d="M-272.1,485.8c-0.6-0.1-4.3-0.4-5.1,1.3c-0.6,1.5,1.4,4.1,3.8,5.1c2.2,0.8,5.4,0.6,6.3-1.3
			c0.4-0.8,0.4-1.7,0-2.5C-267.9,486.1-271,485.9-272.1,485.8z"/>
		<path class="st2" d="M-297.4,171.7c4.1,3.5,8.4,7.3,12.7,11.4c2.2,2.1,4.3,4.2,6.3,6.3"/>
		<path class="st2" d="M-268.3,223.6c7.9,1.8,16,2.6,24.1,2.5c22.6-0.3,39.4-7.9,49.4-12.7c11.9-5.6,23-12.9,32.9-21.5"/>
		<path class="st2" d="M-270.8,183.1c11.6,2.8,23.5,4.5,35.5,5.1c17.2,0.8,30.2,1.4,44.3-5.1c9.4-4.4,17.6-10.9,24.1-19"/>
		<path class="st2" d="M-260.6,161.6c10.6,3.9,21.7,6.4,32.9,7.6c13.6,1.4,26.5,2.5,40.5-3.8c5.6-2.5,10.7-6,15.2-10.1"/>
		<path class="st2" d="M-248,136.3c7.6,4,15.7,7,24.1,8.9c15.1,3.2,30.7,2.8,45.6-1.3"/>
		<path class="st2" d="M-299.9,131.2c6.6,12.4,18.1,21.6,31.7,25.3"/>
		<path class="st2" d="M-291.1,99.5c8.4,13,20.9,22.8,35.5,27.9"/>
		<path class="st2" d="M-287.3,78l10.1,10.1l8.9,8.9"/>
		<path class="st2" d="M-263.2,100.8c9.5,7.3,19.7,13.7,30.4,19c23,11.4,33.6,14.8,43.1,15.2c2.7,0.1,4.9,0.1,6.3,0"/>
		<path class="st2" d="M-282.2,43.8c1.1,2.4,2.3,5,3.8,7.6c1.3,2.3,2.5,4.4,3.8,6.3"/>
		<path class="st2" d="M-270.8,64.1c6.9,13.6,15.8,26,26.6,36.7c6.9,6.8,14.5,12.7,22.8,17.7c12.4,7.6,19.1,8.8,24.1,8.9
			c3.4,0.1,6.8-0.4,10.1-1.3"/>
		<path class="st2" d="M-270.8,24.8c-2,8-0.1,16.4,5.1,22.8"/>
		<path class="st2" d="M-254.3,8.3c-4.7,12.5-6.1,26.1-3.8,39.3c2.8,15.4,10.3,29.6,21.5,40.5c11.6,11.6,25,17.4,31.6,20.3
			c4.1,1.8,7.6,3,10.1,3.8"/>
		<path class="st2" d="M-277.1,14.7c-2.5,0.9-3.8,3.9-3.8,6.3c0,0.6,0,3.2,1.3,3.8c1.5,0.6,4-1.6,5.1-3.8s1.5-5.3,0-6.3
			C-275.4,14.3-276.3,14.3-277.1,14.7z"/>
		<path class="st2" d="M-241.7-1.8c-3.7-0.5-5.6-0.7-6.3,0c-1.1,1-1,3.5,0,5.1c1.6,2.5,5.1,2.5,7.6,2.5c2.2,0,5.9,0.1,8.9-2.5
			c2.3-2,3-4.5,3.8-7.6c1-3.9,1.8-7,0-8.9s-6-1.8-7.6,0c-1.3,1.5,0.1,3.2-1.3,7.6c-0.9,2.8-1.8,3.5-2.5,3.8S-240.3-1.6-241.7-1.8z"
			/>
		<path class="st2" d="M-222.7-52.4c-1,4.7-1.9,9.7-2.5,15.2c-0.8,6.3-1.2,12.6-1.3,19"/>
		<path class="st2" d="M-236.6,13.4c-2.8,3.4-4.9,7.2-6.3,11.4c-3.9,11.8-0.3,22.2,2.5,30.4c3.9,11.1,10.5,21.1,19,29.1
			c5.4,5.4,11.9,9.7,19,12.7c5.3,2.1,10.8,3.4,16.5,3.8"/>
		<path class="st2" d="M-208.7-52.4c-3.4,7.6-5.6,15.7-6.3,24.1c-0.6,7.1,0.3,8.5,0,20.3c-0.3,12.8-0.6,19.3-3.8,26.6
			c-1.7,3.8-4.6,9.8-11.4,13.9c-4.2,2.5-9,3.8-13.9,3.8"/>
		<path class="st2" d="M-156.8-52.4c0.2,6.9,0.4,17,0,29.1c-0.7,20-1,30-3.8,41.8c-3.7,16.6-11,32.2-21.5,45.6
			c-8.4,10.6-18.7,19.7-30.4,26.6"/>
		<path class="st2" d="M-141.6,103.3c4.7,3.9,10.4,6.5,16.5,7.6c5.5,1.2,11.2,0.8,16.5-1.3c2.5-1,9.5-3.9,12.7-11.4
			c1.3-3.2,1.7-6.7,1.3-10.1"/>
		<path class="st2" d="M169.9,255.3c1.3,3.7,12,35-6.3,60.8c-5.9,8.2-13.7,14.7-22.8,19"/>
		<path class="st2" d="M125.6,319.9c7.5-2.1,13.9-7.1,17.7-13.9"/>
		<path class="st2" d="M148.4,290.8c5.5-11.7,5.1-25.4-1.3-36.7"/>
		<path class="st2" d="M110.4,319.9c15.6-18.1,20.5-43.2,12.7-65.9"/>
		<path class="st2" d="M44.5,321.1c8.4,1.2,17,0.7,25.3-1.3c13.2-3.2,25.1-10.2,34.2-20.3c5.5-6.3,12.7-14.5,12.7-26.6
			c-0.1-6.8-2.3-13.5-6.3-19"/>
		<path class="st2" d="M81.2,288.2c8.7-10.1,12.9-23.4,11.4-36.7"/>
		<path class="st2" d="M25.5,302.1c6.4-0.4,20.5-2.2,32.9-12.7c4.4-3.7,11.5-9.7,13.9-20.3c1.4-6.3,1-12.9-1.3-19"/>
		<path class="st2" d="M17.9,284.4c2.1-0.1,14.8-0.6,24.1-11.4c9.7-11.3,7.9-24.7,7.6-26.6"/>
		<path class="st2" d="M9.1,269.2c5.4-0.3,10.7-2,15.2-5.1c10.2-7,12.3-18,12.7-20.3"/>
		<path class="st2" d="M1.5,259.1c9-3.7,15.3-11.9,16.5-21.5"/>
		<path class="st2" d="M-15,240.1c5.3-2.4,9.7-6.4,12.7-11.4"/>
		<path class="st2" d="M-47.9,224.9c4,1.8,8.4,2.2,12.7,1.3c5.2-1.2,9.7-4.4,12.6-8.9"/>
		<path class="st2" d="M-64.4,216c4.4-1.3,8.6-3,12.7-5.1c4.1-2.1,7.9-4.7,11.4-7.6"/>
		<path class="st2" d="M-89.7,203.4c-2.7,2.4-3.3,7.3-1.3,8.9c1.2,0.7,2.6,0.7,3.8,0c3.5-1.9,3.4-9,1.3-10.1
			C-87.3,201.4-89.5,203.2-89.7,203.4z"/>
		<path class="st2" d="M-111.2,173c6.5,4.6,7.1,5.3,7.6,6.3c1.7,3.5-0.4,5.3,1.3,10.1c0.3,0.8,2.1,6.2,5.1,6.3
			c2.7,0.1,4.8-4.4,5.1-5.1c3.2-7.1-1-14.8-1.3-15.2c-1.5-2.7-4.4-4.8-10.1-8.9c-7.3-5.3-9.8-5.4-11.4-5.1c-2.2,0.4-4.9,1.9-5.1,3.8
			C-120.2,167-118.2,168.1-111.2,173z"/>
		<path class="st2" d="M-78.3,205.9c2.1,0.7,4.3,0.7,6.3,0c3-1.2,2.9-3.3,7.6-7.6c2.2-2.1,4.8-3.8,7.6-5.1c1.2-0.5,2.5-0.9,3.8-1.3"
			/>
		<path class="st2" d="M-83.4,193.2c3.5-0.1,7-0.9,10.1-2.5c4.3-2.3,7.9-5.8,10.1-10.1"/>
		<path class="st2" d="M-87.2,176.8c6,1.8,12.5-0.2,16.5-5.1"/>
		<path class="st2" d="M-99.8,161.6c7.4,2.4,15.5-0.1,20.2-6.3"/>
		<path class="st2" d="M-113.8,151.4c4.1,1.2,8.5,1.2,12.7,0c3.8-1.2,7.3-3.4,10.1-6.3c2-1.9,3.7-4,5.1-6.3"/>
		<path class="st2" d="M-132.8,138.8c4.7,0.3,9.4-0.1,13.9-1.3c17.3-4.5,26.5-18.4,29.1-22.8"/>
		<path class="st2" d="M-140.4,126.1c2.9,0.9,5.9,1.3,8.9,1.3c2.9-0.1,6.6-0.1,10.1-2.5c1.5-1,2.8-2.3,3.8-3.8"/>
		<path class="st2" d="M-141.6,100.8c4.9-0.2,9.6-1.5,13.9-3.8c9.1-4.9,13.2-12.8,16.5-19c3.1-6,5.2-12.4,6.3-19
			c1.1-7.2,0.2-10.4,1.3-22.8c0.4-4.9,0.9-8.8,1.3-11.4"/>
		<path class="st2" d="M-142.9,97c4.5-2,8.7-4.6,12.7-7.6c8.2-6.3,12.9-13.1,17.7-20.3c3.3-4.8,6.3-9.9,8.9-15.1"/>
		<path class="st2" d="M-145.4,94.5c2.7-2.1,6.7-5.1,11.4-8.9c14.7-11.8,17.3-15.1,19-17.7c3-4.7,5.1-9.8,6.3-15.2
			c1.9-8.6,0.9-15.3,0-21.5c-1.1-7.4-3.2-14.7-6.3-21.5"/>
		<path class="st2" d="M-148,90.7c2.3-2,5.8-5.1,10.1-8.9c9.9-8.6,11.6-9.9,13.9-12.7c4.2-5.2,7.3-11.2,8.9-17.7
			c3.1-11.9,0.7-22-2.5-35.5c-1.3-5.6-3-11.1-5-16.5"/>
		<path class="st2" d="M-244.2,46.3c2.7,1.2,6.9,2.5,11.4,1.3c6.7-1.9,10.5-8.7,13.9-17.7c6.7-17.4,8-31.9,8.9-39.3
			c1.9-15.5,5.2-30.8,10.1-45.6"/>
		<path class="st2" d="M-237.9,60.3c3.5-0.1,7-1,10.1-2.5c4.9-2.4,10.1-6.9,15.2-19c2.4-5.6,4.9-13,7.6-36.7
			c2.1-18.2,1.5-21.6,3.8-32.9c1.6-7.7,3.7-15.4,6.3-22.8"/>
		<path class="st2" d="M-230.3,70.4c6.5-1.5,12.6-4.5,17.7-8.9c9-7.8,11.9-17.8,13.9-25.3c3.8-14,0-14.6,2.5-38
			c1.4-11.9,3.5-23.8,6.3-35.5c1.4-6.1,2.7-11.3,3.8-15.2"/>
		<path class="st2" d="M-227.7,76.7c7.9-1.7,15.2-5.1,21.5-10.1c10.2-8.2,14.4-18.2,17.7-26.6c3.3-8.2,4.8-17.8,7.6-36.7
			c1.3-8.5,1.7-12.3,3.8-29.1c1.6-12.5,2.9-22.6,3.8-29.1"/>
		<path class="st2" d="M-220.1,83.1c8.9-2.9,17.1-7.6,24.1-13.9c10.7-9.8,15-20.6,20.3-34.2c5.3-13.8,8.7-28.3,10.1-43.1
			c1.7-15.1,1.7-30.4,0-45.6"/>
		<path class="st2" d="M-206.2,94.5c8.9-6.2,17.4-13,25.3-20.3c11-10.1,16.5-15.3,21.5-24.1c5.7-10.1,7.4-19.1,8.9-27.9
			c2.6-15.4,0.6-21.7,1.3-43c0.2-7.2,0.8-18.1,2.5-31.7"/>
		<path class="st2" d="M-196.1,97c9-6,17.5-12.7,25.3-20.3c10.1-9.8,17.4-16.7,22.8-27.9s6.2-21,7.6-40.5c0.9-13.1,0.9-26.2,0-39.2"
			/>
		<path class="st2" d="M-172,85.6c5.1-3.2,9.8-7,13.9-11.4c6.2-6.6,9.4-12.8,12.7-19c4.5-8.6,8.3-16.1,10.1-26.6
			c1.9-11.1-0.4-14.5,1.3-34.2c0.4-4.8,0.9-8.8,1.3-11.4"/>
		<path class="st2" d="M-161.9,84.3c4.9-5.6,8.7-10.4,11.4-13.9c6.6-8.5,10.2-13.2,13.9-20.3c3-5.7,5.1-9.5,6.3-15.2
			c1.6-7.4,0.5-11.5,0-22.8c-0.2-5.2-0.4-12.5,0-21.5"/>
		<path class="st2" d="M-156.8,84.3c2.8-2.6,6.8-6.5,11.4-11.4c6.5-7,9.8-10.5,12.7-15.2c3.7-6.2,6.3-13.1,7.6-20.3
			c1.2-6.8,0.8-12.2,0-22.8c-0.7-8.5-1.7-15.5-2.5-20.3"/>
		<path class="st2" d="M-150.5,86.9c3.8-3.4,9.1-8.5,15.2-15.2c6.8-7.4,10.2-11.3,12.7-16.5c4-8.3,3.9-15.8,3.8-24.1
			c-0.3-12.2-2.8-24.2-7.6-35.5"/>
		<path class="st2" d="M-481.6,74.8c13.3,19.7,30,36.8,49.4,50.6c10.7,7.6,20.8,14.6,35.5,19c29.2,8.8,55.2,0.8,67.1-3.8"/>
		<path class="st2" d="M-453.1-56.2c4,17.9,19.5,76.6,74.7,115.2c19.1,13.3,40.6,22.8,63.3,27.9"/>
		<path class="st2" d="M-403.8-56.2c5.3,13.2,19.8,44,53.2,64.6c11.4,7,23.8,12.1,36.7,15.2"/>
		<path class="st2" d="M-488.6-5.6c10,21.6,24.2,40.9,41.8,57c12.9,11.7,27.4,21.6,43.1,29.1"/>
		<path class="st2" d="M-481,157.8c11.7,16.5,26.8,30.3,44.3,40.5c46.1,26.6,93,18.1,106.4,15.2"/>
		<path class="st2" d="M-481,203.4c21.3,25.1,48.8,44.3,79.8,55.7"/>
		<path class="st2" d="M-483.5,252.8c23.2,25.4,56.9,38.6,91.2,35.5"/>
		<path class="st2" d="M207.9,135c69.2,32.6,128.8,40.9,165.9,43.1c25.5,1.4,55.3,2.9,92.5-6.3c58.3-14.5,98.2-46.3,119-65.9"/>
		<path class="st2" d="M421.9,93.2c26.7-8,51-22.3,70.9-41.8C535.3,9.6,542-41.9,543.5-57.5"/>
		<path class="st2" d="M500.4,128.7c20.4-11.1,62.9-37.8,93.7-89.9C611,10,621.8-21.9,625.8-55"/>
		<path class="st2" d="M625.8,50.1c9.8-18.6,17.9-38.1,24.1-58.2c5.2-17,9-34.3,11.4-51.9"/>
		<path class="st2" d="M653.7,92c20.4-21.8,38.7-45.5,54.4-70.9c15-24.1,27.7-49.5,38-76"/>
		<path class="st2" d="M719.5,65.3c20.3-13,37.9-29.7,51.9-49.4c16.1-22.7,26.9-48.6,31.7-76"/>
		<path class="st2" d="M1014.6,498.4c45.9-80.6,97.9-109,126.6-120.3c64-25.3,135.5-26.6,135.5-26.6c28.3-0.5,55.2,2.2,88.6-11.4
			c19.9-8.2,37.9-20.3,53.2-35.5"/>
		<path class="st2" d="M1043.7,507.3c30.4-39.1,68.3-71.8,111.4-96.2c31.2-17.6,68.8-38.7,120.3-41.8c30.2-1.8,41.9,4,74.7,0
			c38.5-4.6,68.8-18.2,88.6-29.1"/>
		<path class="st2" d="M1076.6,513.6c41.8-31.2,87.4-57.1,135.5-77.3c91.1-38.1,120.4-40.8,133-39.2c14.3,2,28.7,2.9,43.1,2.5
			c18.4-0.5,36.6-3.1,54.4-7.6"/>
		<path class="st2" d="M1115.9,532.6c11,1.2,27.1,1.4,44.3-5.1c14.5-5.5,23.3-13.3,31.7-20.3c27.1-22.6,54.9-40.4,67.1-46.9
			c18.2-9.6,46.7-17.9,91.2-10.1"/>
		<path class="st2" d="M1367.9,444c12.2,0.9,25.3,1.4,39.2,1.3c11.1-0.1,21.7-0.5,31.7-1.3"/>
		<path class="st2" d="M635.9,544c-1.8-10.4,0-21.1,5.1-30.4c3.4-6.2,9.6-13.8,22.8-20.3c48.9-24.2,120.3-21.5,120.3-21.5
			c36,1.3,51.5,3.7,190,21.5c24.7,3.2,36.1,4.6,53.2,8.9c38.2,9.6,74.6,25.4,107.7,46.9"/>
		<path class="st2" d="M1024.7,302.1c-3.6,1.7-7,3.8-10.1,6.3c-11.1,8.9-12.3,17.7-21.5,21.5c-2.5,1.1-4.3,1.2-12.7,1.3
			c-30.1,0.4-29.3-0.7-32.9,0c-22.3,4.1-20,35.6-49.4,48.1c-5.6,2.4-11.3,3.3-22.8,5.1c-25.1,3.9-30.9-0.6-44.3,5.1
			c-3.6,1.5-18.3,7.8-24.1,22.8c-0.9,2.4-6.1,16.8,1.3,26.6c6.6,8.8,19.4,8.8,30.4,8.9c17.4,0,24.5-5.5,58.2-11.4
			c2.5-0.8,5-1.2,7.6-1.3c8.9,0.1,14.9,6,19,8.9c12.4,8.7,29.7,5.2,36.7,3.8c17.1-3.5,27.7-14.9,44.3-32.9
			c12.9-14,11.6-16.1,20.3-25.3c30.4-32.4,78.3-40.3,88.7-41.8c10.7-1.5,27.4-2.8,48.1-11.4c12.3-5.1,19.4-10,20.3-16.5
			c0.9-6.8-5.8-9.5-6.3-19c-0.2-2.9,0.2-6.9,8.9-21.5c11.5-19.5,16.6-22.2,15.2-27.9c-1.8-7.3-12.8-12.6-21.5-11.4
			c-7,1-11,6-15.2,10.1c-13.7,13.5-29.9,18-46.9,22.8c-25.6,7.2-32.6-1.1-48.1,7.6c-12.3,6.9-19.1,18.3-22.8,26.6"/>
		<path class="st2" d="M-9.9,544c27.2-75,80.7-137.6,150.7-176"/>
		<path class="st2" d="M45.8,541.5c18.9-36.6,39.8-60.7,55.7-76c13.7-13.2,32.4-27.8,69.7-57c11.6-9,21.2-16.4,27.9-21.5"/>
		<path class="st2" d="M125.6,545.3c32.1-56.4,73.7-107,122.8-149.4"/>
		<path class="st2" d="M210.4,542.8c10.4-62.5,45.6-118.2,97.5-154.5"/>
		<path class="st2" d="M91.4,544l7.6-19"/>
		<path class="st2" d="M272.5,546.6l11.4-30.4"/>
		<path class="st2" d="M285.1,484.5c-0.4-14.7,2.1-29.4,7.6-43.1c11.6-29,32.8-44.8,41.8-50.7"/>
		<path class="st2" d="M324.4,544c-3.3-35.9,9.2-71.5,34.2-97.5"/>
		<path class="st2" d="M366.2,427.5c2.5-10.6,6.7-17.3,10.1-21.5c4.4-5.4,8.4-7.7,13.9-15.2c3-4,5.5-8.2,7.6-12.7"/>
		<path class="st2" d="M373.8,544c3.4-26.4,9.8-52.3,19-77.2c15.1-40.8,37.4-78.6,65.8-111.4"/>
		<path class="st2" d="M421.9,542.8c3.3-26.2,11.5-51.5,24.1-74.7"/>
		<path class="st2" d="M490.3,541.5c-14-22.8-23.1-48.2-26.6-74.7c-7.9-60.1,15.9-106.5,25.3-122.8"/>
		<path class="st2" d="M538.4,545.3c-25.4-45.9-33.7-85.2-36.7-108.9c-3.9-30.4-1-47.5,1.3-57c4.8-19.9,13.9-38.4,26.6-54.4"/>
		<path class="st2" d="M587.8,542.8c-66.4-42.1-86.2-130.1-44.1-196.5c15.2-24,37.1-42.8,63.1-54.2"/>
		<path class="st2" d="M-68.2-53.7c5.6,39,24.5,129.9,100,203.9c24.7,24,52.8,44.1,83.6,59.5c92.1,46.5,180.8,38.9,220.3,32.9"/>
		<path class="st2" d="M-50.4-55c2.5,23.6,12.3,85.7,62.1,140.6c23.9,26.3,53.3,47,86.1,60.8"/>
		<path class="st2" d="M-28.9-55c1.7,16.1,5.6,31.8,11.4,46.8c4.1,10.6,9.2,20.8,15.2,30.4"/>
		<path class="st2" d="M6.5-56.2c1.9,26.1,9.3,51.6,21.5,74.7c9.8,18.5,22.7,35.2,38,49.4"/>
		<path class="st2" d="M69.9-60C72-33.9,79.3-8.5,91.4,14.7c10.4,19.9,24.1,37.9,40.5,53.2"/>
		<path class="st2" d="M119.2-52.4c3.3,8.6,7.1,17.1,11.4,25.3c3.3,6.4,6.8,12.3,10.1,17.7"/>
		<path class="st2" d="M161,14.7c15.6,18.3,42.4,44.1,81,58.2c20.1,7.4,35.3,8.6,39.3,8.9c27.9,1.9,48.9-5.7,60.8-10.1
			c25.6-9.7,48.6-25.3,67.1-45.6"/>
		<path class="st2" d="M140.8,24.8c8.6,34.7,26.4,48.3,34.2,53.2c7.4,4.6,15.6,7,31.7,11.4c11.2,3.1,31.5,8.6,55.7,11.4
			c47.2,5.4,90-2.1,110.2-6.3"/>
		<path class="st2" d="M156-51.2c29.2,57.8,81.4,96.8,136.8,97.5c48.7,0.7,87.4-28.4,100-38c22.5-17,41-38.6,54.5-63.3"/>
		<path class="st2" d="M459.9-55c-2.6,5.9-6,11.5-10.1,16.5c-4,4.8-8.7,9.1-13.9,12.7"/>
		<path class="st2" d="M248.4-52.4c11.5,13.1,24.7,24.6,39.3,34.2c37.6,24.9,75.1,31.1,96.2,32.9"/>
		<path class="st2" d="M210.4-51.2c9.5,17.9,22.4,33.8,38,46.9c21.1,17.5,46.4,29.3,73.5,34.2"/>
		<path class="st2" d="M102.8,105.9c18.8,40.6,43.8,61.2,58.2,70.9c28.9,19.5,61.1,26.7,72.2,29.1c26.5,5.9,46.6,5.4,79.8,19
			c9.9,4,13.7,6.4,21.5,10.1c12.9,6.1,64.3,30.7,127.9,26.6c43.1-2.8,75-17.6,88.6-24.1c28.5-13.5,56.3-33.5,69.7-43
			c22.6-16.2,21.4-17.7,32.9-24.1c25.6-14.1,48.7-16.3,81-19c31.4-2.6,57.7-4.6,89.9,5.1c39,11.6,47.4,28.5,49.4,32.9
			c2.8,6.4,4.1,13.3,3.8,20.3"/>
		<path class="st2" d="M169.9,256.6c2.6,8.8,6.9,17,12.7,24.1c5.6,6.7,12.5,12.3,20.3,16.5c45.5,25.4,105.1,32.9,105.1,32.9
			c42.1,5.3,71,9,110.2,2.5c50.6-8.3,87.3-28.3,111.4-41.8c35.8-19.9,35.9-27.1,83.6-53.2c32.7-17.9,55.6-27.1,72.2-32.9
			c14.4-5.1,31.4-11,54.4-15.2c36.4-6.6,81.9-14.9,108.9,10.1c9.4,8.8,14.1,19.3,16.5,26.6"/>
		<path class="st2" d="M161,317.4c17.6,8.9,35.8,16.5,54.5,22.8c64.9,21.8,123.8,23.4,165.9,20.3"/>
		<path class="st2" d="M-146.7-56.2c3.7,23,11.7,39.7,20.3,51.9c11.6,16.5,18.8,17.4,26.6,32.9c2.6,5.3,5.7,13,8.9,54.5
			c2.9,38.2,0.9,38.9,3.8,50.6c6.1,24.8,19.9,41,29.1,51.9c26.5,31.3,57.7,44.7,72.2,50.7c32.3,13.4,59,15.2,97.5,17.7
			s54.1-1,97.5,5.1c19,2.6,30.1,5.3,41.8,7.6c2.8,0.6,70.7,13.7,141.8,10.1c69.6-3.5,127-6.3,171-45.6
			c31.4-28.1,50.7-45.3,62.1-72.2c3.4-8,10.5-27.3,29.1-40.5c6.7-4.8,12.8-7.3,22.8-11.4c22.1-9.1,32.6-9.2,45.6-13.9
			c17.7-6.5,28.1-17.3,43-32.9c39.6-41.3,58.7-99.6,64.6-119"/>
		<path class="st2" d="M138.2,359.1c53.9,24.4,99.2,31,127.9,32.9c93.6,6.3,169.3-26.4,243.1-58.2c59.3-25.6,116.5-57,116.5-57
			c31.1-17,57.7-33.2,101.3-49.4c5.4-2,17.4-7.3,34.2-10.9c13.4-2.9,31.7-6.6,54.5-3c16.7,2.7,32.6,8.7,46.9,17.7"/>
		<path class="st2" d="M571.3,184.4c-18.6,10.1-38.1,18.6-58.2,25.3c-34.8,11.5-71,17.9-107.6,19c-40.2,1.2-80.4-3.9-119-15.2"/>
		<path class="st2" d="M1157.7-55c-11.5,17.6-22.1,35.8-31.7,54.5c-8.4,16.4-15.5,32.1-21.5,46.8"/>
		<path class="st2" d="M1177.9-52.4c-25.3,37.6-48.5,76.5-69.7,116.5c-6.2,11.7-18.9,45.4-44.3,112.7c-5.8,15.3-14.9,40.6-3.8,63.3
			c3.1,6.3,7.4,11.8,12.7,16.5"/>
		<path class="st2" d="M1193.1-55c-32.5,71.8-58.4,126.4-81,169.7c-4.7,8.9-16.5,31.5-17.7,62.1c-0.4,10.4-1.9,48.7,24.1,74.7
			c3.8,3.8,8.1,7.2,12.7,10.1"/>
		<path class="st2" d="M1188.1,281.9c11.8,5.8,25,8,38,6.3c7.4-1,25.2-3.4,35.5-17.7c4.3-6.4,7-13.8,7.6-21.5
			c0.5-10.1-3.5-13.5-1.3-20.3c2.7-8,10.3-9.1,17.7-15.2c15.3-12.6,16.1-35.5,16.5-44.3c1-26.8-13.1-49.8-15.2-53.2
			c-4.7-7.5-8.9-11.7-10.1-20.3c-1.8-12.1,4.1-20.1,7.6-29.1c8.8-22.7,4.5-54.7-11.4-70.9c-9.4-9.6-13.9-4.5-31.7-19
			c-4.9-4-12.4-10.8-19-8.9c-2.1,0.6-3.9,2-5.1,3.8c-1.7,3-0.7,6.5,0,8.9c5.8,19.4,6,20,6.3,21.5c1.4,7.7-0.1,13.9-1.3,19
			c-1.6,6.7-2.9,12.4-7.6,17.7c-6.9,7.8-16.2,9.4-20.3,10.1c-7.7,1.2-15.6,0.3-22.8-2.5c-6.3-2.5-11.9-6.4-16.5-11.4"/>
		<path class="st2" d="M1280.5-51.2c6.6,7.7,14.6,19.6,17.7,35.5c2.7,13.6-1.1,16,1.3,30.4c3,18.1,11.7,31.6,21.5,46.8
			c11.4,17.7,15.2,18.1,17.7,27.9c3.1,12.4-1.5,17.5-5.1,38c-4.7,26.9-2.3,50.8-1.3,62.1c1.7,18,4.3,23.7,2.5,38
			c-1.1,8.9-2.6,19.9-10.1,30.4c-6.5,9.1-9.6,6.8-25.3,21.5c-11.5,10.8-13.8,15.8-20.3,16.5c-8.2,0.9-15.7-6.1-20.3-11.4"/>
		<path class="st2" d="M1074.1-55c3,7.5,7.1,18.3,11.4,31.7c4.7,14.8,7.1,22.2,7.6,27.9c1.3,14.8-4.7,15.9-16.5,51.9
			c-5.6,17.1-9.7,26.6-17.7,45.6c-1.7,4.3-4.3,8.2-7.6,11.4c-8.6,8-19.8,8.4-25.3,8.9c-32,2.6-32,18.6-67.1,21.5
			c-13.1,1-26.3,0.6-39.3-1.3c-2.8-0.4-8.6-1.4-15.9-2.6c-19-3.1-18.3-3.2-22.1-3.7c-20.2-2.9-22.9,0.8-40.5-2.5
			s-20.6-8.1-21.5-10.1c-2.2-5,1.5-7.4,0-13.9c-1.8-8-9.3-13-20.3-20.3c-9.8-6.5-14.1-7.3-16.5-12.7c-2.2-5-1.2-10.4,0-13.9"/>
		<path class="st2" d="M1222.2,544c9.3-7.3,19.1-14,29.2-20.3c11.4-7.1,23.3-13.4,35.5-19"/>
		<path class="st2" d="M1304.6,497.2c43.3-11.7,88.3-15.9,133-12.7"/>
		<path class="st2" d="M1299.5,542.8c15.9-5.6,30-10.2,41.8-13.9c17.7-5.6,24.8-7.3,34.2-6.3c2.9,0.3,9.5,1.2,25.3,8.9
			c13.3,6.4,26.1,14.1,38,22.8"/>
		<path class="st2" d="M736,547.8c-0.7-1.9-3.3-9.2,0-12.7c2.7-2.9,8-1.8,15.2,0c18.4,4.6,24.7,7.7,30.4,8.9
			c14.4,3.1,22.4-6.7,41.8-15.2c29.4-12.8,58.4-11,72.2-8.9c11.7,1.8,34.8,7.3,59.5,27.9"/>
		<path class="st2" d="M-149.2,89.4c-6.7-5.6-18.1-4-25.3,0c-9.5,5.2-14.8,15.9-15.2,25.3c-0.3,6.2,4.9,16.1,15.2,35.5
			c6,11.3,9.4,16.9,11.4,26.6c1.4,7.1,1.2,11.8,1.3,16.5c0.9,15,4.8,29.6,11.4,43.1c9.1,18.2,23.8,27.9,46.9,43
			c22.1,14.5,28.6,13.5,36.7,25.3c10,14.5,5.2,23.3,16.5,32.9c8.4,7.2,19.7,9.7,32.9,12.7c13.5,3,15.7,1.3,21.5,5.1
			c10,6.5,8.6,14.7,19,20.3c3.3,1.8,4.2,1.3,17.7,3.8c14.3,2.6,16.7,3.8,24.1,5.1c8.1,1.4,22.8,4,36.7,1.3
			c17.2-3.5,42.6-17.1,43.1-36.7c0.3-11.8-8.4-24.5-19-27.9c-5.3-1.6-7.7,0.1-24.1,3.8C82,329.4,72,331.6,62.2,330
			c-12.5-2-20.9-9-25.3-12.7C19.5,303,23.1,290.6,4,264.2c-8.5-11.8-14.3-19.8-25.3-26.6c-10.6-6.5-15.8-5.6-34.2-15.2
			c-12.3-6.4-18.4-9.6-22.8-15.2c-8.6-11.1-3.1-17.4-11.4-31.7c-5.3-9.1-12.2-14.5-22.8-22.8c-16.6-12.9-21.3-10.9-25.3-19
			c-3.6-7.2-0.6-10.1-5.1-29.1C-145.6,93.1-147.5,90.8-149.2,89.4z"/>
		<path class="st2" d="M-483.5,536.4c8.7-5,18.1-8.9,27.9-11.4c18.5-4.8,23.5-1,49.4-3.8c21.8-2.4,27.1-6,45.6-5.1
			c21.8,1.2,25.6,6.8,26.6,8.9c3.9,7.6-2.1,17.6-3.8,20.3"/>
		<path class="st2" d="M-308.8,547.8c-2.9-7.4-5-15-6.3-22.8c-2.5-14.5-0.6-20.4-5.1-25.3c-5.9-6.5-15.3-2.8-27.9-3.8
			c-21.2-1.6-43.6-15.5-53.2-32.9c-9.9-17.8-6.7-40.1-3.8-60.8c1.6-11.2,3.6-16.2,2.5-26.6c-1.8-17.6-9.2-19.8-8.9-34.2
			c0.2-12.2,5.8-23.2,10.1-31.7c5.2-10.2,7.2-10,8.9-16.5c3.6-13.8-4.2-19.2,0-29.1c1.7-4,2.8-2.7,19-16.5
			c12-10.1,13.5-12.7,19-13.9c8.3-1.9,10.4,2.5,17.7,0c7.6-2.6,7.1-7.9,16.5-12.7c4.1-2.1,10.8-5.5,16.5-2.5
			c5.3,2.8,8.5,10.4,6.3,15.2c-1.6,3.7-5.6,4.1-22.8,8.9c-10.4,2.9-15.6,4.3-16.4,5.1c-11.2,9.8,3.8,32-7.6,45.6
			c-6.4,7.6-12.7,2.7-22.8,11.4c-9.8,8.4-15.8,23.3-13.9,36.7c2.3,16.7,14.8,18.2,15.2,32.9s-11.9,17.3-11.4,31.7
			c0.5,13.7,12.2,26,22.8,31.7c14.9,8,22.4,0.2,34.2,8.9c11.4,8.4,7.1,17.7,19,24.1c5.7,3.1,15.9,5.8,26.6,5.1
			c6.2-0.5,8.6-1.8,11.4,0c6.7,4.4-0.2,17.4,6.3,22.8c4.8,4,11.2-1,27.9,2.5c2.2,0.5,4,0.9,5.1,1.3"/>
		<path class="st2" d="M-207.5,312.3c-7.6,13.1-17.4,24.6-29.1,34.2c-14.3,11.6-27.6,17-41.8,22.8c-13.9,5.5-28.3,9.8-43,12.7
			c-15.4,3.1-31.1,4.8-46.9,5"/>
		<path class="st2" d="M-146.7,245.2c-8.9-1.5-18.1-0.6-26.6,2.5c-4.7,1.8-13,5.9-27.9,24.1c-16.3,20-13.9,24.3-25.3,36.7
			c-14,15.1-29.8,21.9-38,25.3c-16.8,7-35,10-53.1,8.9c-21.4-1.6-42-9-59.5-21.5"/>
		<path class="st2" d="M-287.3,299.6c9.8,0.2,24.1-1,38-8.9c8.5-4.8,9-7.7,31.7-29.1s30.2-24.8,35.5-26.6c9.4-3.1,19.4-4,29.1-2.5"
			/>
		<path class="st2" d="M-159.4,217.3c-10.9,0.7-21.6,3.3-31.7,7.6c-28.9,12.6-31.6,31.6-59.5,41.8c-13,4.6-26.9,5.9-40.5,3.8
			c-22.7-3.5-37.9-15.7-44.3-21.5"/>
		<path class="st2" d="M-363.2,430c23.8-0.9,47.3-5.6,69.6-13.9c21.9-8.2,62.3-23.4,87.4-60.8c4-6,2.9-5.5,26.6-45.6
			c11.5-19.4,18.6-31.2,32.9-38c7.5-3.5,15.8-5.2,24.1-5.1"/>
		<path class="st2" d="M-250.5,545.3c-0.2-9.3,2-18.4,6.3-26.6c8.9-16.4,22.4-18.5,41.8-34.2c11.6-9.4,24.8-20,32.9-38
			c6.5-14.5,11.5-37.3,20.3-59.5c1.2-3.2,2.9-6.2,5.1-8.9c6.6-8.1,15.9-10.8,22.8-12.7c18.4-5,30.7-7.2,38-8.9
			c13.2-3,26-7.7,38-13.9"/>
		<path class="st2" d="M-255.6,497.2c33.9-13,48-29.1,54.5-41.8c4-7.9,7.6-19.3,19-34.2c7.4-9.7,10-10.3,15.2-19
			c7-11.9,6.1-17.5,12.7-31.7c3.4-7.2,6.9-12.4,13.9-22.8c13.6-20.1,20.5-30.2,32.9-39.3c8.8-6.4,18.7-11.1,29.1-13.9"/>
		<path class="st2" d="M-305,468c20.3-5.8,39.5-14.8,57-26.6c24.4-16.5,38.9-34.4,46.8-44.3c7.2-8.9,18.1-22.6,27.9-43.1
			c7.5-15.6,8.2-22.7,17.7-36.7c5.2-7.7,11.9-17.3,24.1-25.3c8.8-5.8,18.7-9.7,29.1-11.4"/>
		<path class="st2" d="M-115,363c11-12.5,18.8-22.2,24.1-29.1c3.4-4.5,7.1-9.5,13.9-12.7c5.6-2.5,11.7-3.3,17.7-2.5"/>
		<path class="st2" d="M-92.2,356.6c7.9-12.4,20.1-21.4,34.2-25.3"/>
		<path class="st2" d="M-55.5,388.3c9.5,6,17.4,14.2,22.8,24.1c4.1,7.5,6.7,15.6,7.6,24.1"/>
		<path class="st2" d="M-92.2,399.7c48.4,18.6,82.5,62.5,88.6,114"/>
		<path class="st2" d="M-37.8,371.8c18.6,7.3,34.5,20.1,45.6,36.7c18.5,28,16.1,56.7,15.2,64.6"/>
		<path class="st2" d="M-2.3,364.2c6.2,4.2,11.8,9.3,16.5,15.2c1.8,2.3,4.6,6.1,12.7,21.5c3.1,6,6.5,12.8,10.1,20.3"/>
		<path class="st2" d="M-126.4,456.6c40.5-6.4,80.9,12.1,102.6,46.8"/>
		<path class="st2" d="M-96,474.4c10.7,1.4,21,4.8,30.4,10.1c31.7,18,41,51.3,43.1,59.5"/>
		<path class="st2" d="M-139.1,497.2c15.8-2.2,31.9-0.5,46.9,5.1c27.6,10.3,42.1,30.6,46.9,38"/>
		<path class="st2" d="M-148,522.5c27.7,2.3,54.7,9.6,79.8,21.5"/>
		<path class="st2" d="M-189.8,532.6c-2.8-2.1-1.3-9.3,1.3-13.9c0.7-1.3,4.7-8,11.4-8.9c4.5-0.6,5.3,2,10.1,1.3
			c2.5-0.4,5.1-2,10.1-5.1c4.7-2.9,6.6-4.5,7.6-3.8s0.5,2.7,0,5.1c-1,4.8-1.8,8.4-5.1,11.4c-0.7,0.6-5.5,5-10.1,3.8
			c-3.8-1-4.2-4.9-7.6-5.1c-3.1-0.2-5.7,3-6.3,3.8c-0.6,0.8-1.7,3.1-3.8,7.6c-1,2.2-1.4,3.2-2.5,3.8
			C-186.2,533.6-188.2,533.6-189.8,532.6z"/>
		<path class="st2" d="M-182.1,544c0.5-9.3,2.8-12.7,5.1-13.9c0,0,0.2-0.1,5.1-2.5l0,0c1.7,1.9,3.9,3.2,6.3,3.8
			c4.6,1,8.5-1.5,10.1-2.5c14.4-9,24.1-57,24.1-57c5.1-25.3,5.4-34.1,12.7-49.4c6.7-14.1,12.4-18.9,16.5-21.5c6-3.9,13-5.7,25.3-8.9
			c11.9-3.1,11.5-1.9,15.2-3.8c10.7-5.6,10.3-14,20.3-19c5.1-2.5,7.8-1.7,16.5-2.5c11.4-1.2,22.5-4.2,32.9-8.9"/>
		<path class="st2" d="M822.1,36.2c-1.6,5.2-5.1,19.7,2.5,30.4c6.6,9.3,19.4,12.9,27.9,15.2c10.5,2.9,13.3,1.3,17.7,5.1
			c7.1,6.1,4,14,10.1,22.8c5.2,7.5,13.1,10,21.5,12.7c4,1.3,31.2,9.9,53.2-3.8c15.9-10,12.6-21.4,32.9-34.2c3.8-2.4,9.7-5,21.5-10.1
			c24.7-10.8,28.5-10,35.4-16.5c7.5-7,15.7-19.7,12.7-30.4c-1.7-5.9-5.4-6.7-10.1-15.2c-3.6-6.6-5.8-14-6.3-21.5"/>
		<path class="st2" d="M975.3-52.4c-2.4,10.8-5.2,24.5-7.6,39.3c-0.5,3.1-1.1,7.5,1.3,11.4c3.4,5.5,10.9,6.6,19,7.6
			c7.2,0.9,15.8,2,26.6-1.3c17.1-5.2,26.2-17.2,30.4-22.8c3.9-5.2,8.5-11.4,8.9-20.3c0.2-3.5,0.5-11.7-5.1-15.2
			c-5.1-3.2-11.7-0.4-12.7,0"/>
		<path class="st2" d="M995.6-55c-1.1,10.6,7.4,19.3,16.5,19c8.6-0.3,16.3-8.8,15.2-19"/>
		<path class="st2" d="M933.5-56.2c-2.6,4.6-15.2,28.1-6.3,54.5c2.9,8.5,7.7,16.3,13.9,22.8"/>
		<path class="st2" d="M969,32.4c11.8,1.8,23.8,1.4,35.4-1.3c7.4-1.8,14.6-4.3,21.5-7.6c8-3.5,15.6-7.8,22.8-12.7"/>
		<path class="st2" d="M896.8-49.9c-0.3,3-6.7,63.9,26.6,93.7c9.1,8.1,18.2,16.3,31.7,17.7c5.9,0.6,14.3,0,31.7,1.3
			c4.9,0.2,9.6,1.5,13.9,3.8c3.4,1.9,6.4,4.5,8.9,7.6"/>
		<path class="st2" d="M868.9-9.4c-2,10.2-3.6,27.5,3.8,45.6c8.2,20,24.1,32.9,30.4,38c6.4,5.2,7.8,5.1,11.4,8.9
			c12.1,12.5,13.5,30.7,12.7,44.3"/>
		<path class="st2" d="M647.3,173c4.3-31,15.8-44.2,25.3-50.6c13.4-9,22.5-4.1,46.9-15.2c7.3-3.3,17.2-10.3,36.7-24.1
			c18-12.7,28.1-20.4,46.9-34.2c39.1-28.8,36.6-25.8,41.8-30.4c14.3-12.7,32.2-34.2,44.3-72.2"/>
		<path class="st2" d="M846.1,19.8c1.3,5,3.1,12.4,5.1,21.5c2.3,10.9,2.6,13.7,2.5,16.5c-0.1,4.8-1.2,12.9-7.6,22.8"/>
		<path class="st2" d="M1033.6,124.9c-5.5,9.4-9.3,19.7-11.4,30.4c-0.8,4.4-1.9,11.3,0,40.5c1.5,23.9,2.3,35.8,5.1,46.9
			c3.1,12.4,7.8,24.3,13.9,35.5"/>
		<path class="st2" d="M979.1,185.6c-5.2,28.3-9.1,48.8-11.4,60.8c-4.2,21.6-6.4,32.9-3.8,48.1c2.1,11.7,6.4,22.9,12.7,32.9"/>
		<path class="st2" d="M920.8,288.2c0.6-52.2,15.9-103.1,44.3-146.9"/>
		<path class="st2" d="M881.6,289.5c-7.8,33.2-10.4,67.3-7.6,101.3"/>
		<path class="st2" d="M841.1,389.5c-1-7.8-2.1-18.2-2.5-30.4c-0.8-16.9,0-33.9,2.5-50.7c2.8-17.8,7-30.2,15.2-54.5
			c5-14.8,9.6-26.6,12.7-34.2c11.7-28.7,25.2-56.6,40.5-83.6"/>
		<path class="st2" d="M887.9,260.4c1.3-17.6,4.7-35.1,10.1-51.9c3.3-10.1,8.5-26,20.3-44.3c4.6-7.1,9.6-13.9,15.2-20.3"/>
		<path class="st2" d="M611.9,289.5c7.1-1.3,14.4-1.3,21.5,0c10.2,1.9,17.2,6.2,40.5,24.1c18.6,14.2,28,21.4,32.9,26.6
			c6.8,7.2,16.7,17.7,24.1,34.2c6.4,14.2,13.6,30.2,6.3,44.3c-5,9.9-14.8,14.5-20.3,16.5"/>
		<path class="st2" d="M628.3,276.8c10.1-1.5,20.3-1.5,30.4,0c24,3.7,40.1,15.3,46.9,20.3c10.6,7.8,16.8,15.2,25.3,25.3
			c10,11.8,17.3,20.6,22.8,34.2c3.5,8.7,8.7,21.6,6.3,36.7c-4.2,27.1-29.6,41.8-34.2,44.3"/>
		<path class="st2" d="M670.1,256.6c10,1.3,19.8,3.8,29.1,7.6c9,3.6,35.3,14.7,53.2,43c7.9,12.7,13.1,27,15.2,41.8
			c2.1,12.7,4.8,29.4-2.5,48.1c-9,23.2-27.9,35-35.5,39.2"/>
		<path class="st2" d="M703,241.4c17.7,4.5,34.5,12.2,49.4,22.8c11.3,8,23,16.3,31.7,31.7c15.8,27.8,9.5,56.8,7.6,65.9
			c-4.2,19.9-13.3,33.4-19,41.8c-8.6,12.7-19.3,23.8-31.7,32.9"/>
		<path class="st2" d="M730.9,227.4c18.5,8.7,34.6,21.7,46.8,38c11.6,15.3,19.4,33.1,22.8,51.9c3.3,19.4,0.7,34.7-1.3,45.6
			c-3.1,17.3-9.1,34-17.7,49.4"/>
		<path class="st2" d="M756.2,218.6c7.9,1.5,24.5,5.9,38,20.3c10.2,10.9,14,22.5,16.5,30.4c3.9,12.4,4.3,22.7,3.8,43.1
			c-0.4,15.9-1.4,36.5-3.8,60.8"/>
		<path class="st2" d="M796.8,212.2c8,8,14.5,17.5,19,27.9c4.2,9.8,5.4,21.5,7.6,44.3c3.4,35.1,1.9,46.4,1.3,50.6
			c-1.3,8.6-3.4,17.1-6.3,25.3"/>
		<path class="st2" d="M827.1,217.3c5.5,8,9.4,17.1,11.4,26.6c3.6,17.8-1.6,29.4-6.3,60.8c-2,13-3.1,24.2-3.8,32.9"/>
		<path class="st2" d="M855,227.4c0.5,2.9,0.9,5.8,1.3,8.9c0.7,5.8,1.1,11.3,1.3,16.5"/>
		<path class="st2" d="M-481,369.3c1,1.6,16.6,25.5,44.3,25.3c18.5-0.1,31-10.9,34.2-13.9"/>
		<path class="st2" d="M-477.2,457.9c22.9,13.8,50.8,16.6,76,7.6"/>
		<path class="st2" d="M-475.9,409.8c4.8,16.1,15.1,30,29.1,39.3c12.8,8.3,27.9,12.3,43.1,11.4"/>
		<path class="st2" d="M-475.9,520c14.1-0.4,28.2-2.5,41.8-6.3c20.8-5.9,27.3-12.2,29.1-13.9c8.4-8.4,11.4-18.3,12.7-24.1"/>
		<path class="st2" d="M-469.6,503.5c12.4,3.3,25.6,3.3,38,0c15.6-4.4,29.4-13.7,39.2-26.6"/>
		<path class="st2" d="M-473.4,484.5c11.2,4.8,23.3,6.9,35.4,6.3c7.4-0.4,17.4-1.1,27.9-7.6c4.8-3,9.1-6.9,12.7-11.4"/>
		<path class="st2" d="M-426.6,521.2c20.7-2.4,36.4-19.7,36.7-40.5"/>
		<path class="st2" d="M-326.5,498.4c-0.1,6.1-0.1,12.5,0,19c0.2,9.7,0.6,19,1.3,27.9"/>
		<path class="st2" d="M-349.3,497.2c0.4,3.7,0.8,7.5,1.3,11.4c0.4,3,0.8,6,1.3,8.9"/>
		<path class="st2" d="M-362,493.4c-0.1,2.8-0.1,5.8,0,8.9c0.2,4.7,0.6,9.3,1.3,13.9"/>
		<path class="st2" d="M-374.6,489.6c-3,8.1-3.5,17-1.3,25.3"/>
		<path class="st2" d="M-388.6,517.4c-1.2-3.3-2.1-6.7-2.5-10.1c-0.7-5.9-0.3-12,1.3-17.7"/>
		<path class="st2" d="M-478.5,384.5c8.1,3.5,14.5,6.6,19,8.9c8.5,4.2,11.9,6.3,19,8.9c6,2.2,10.5,3.7,16.5,3.8
			c6.1,0.1,12.2-1.2,17.7-3.8"/>
		<path class="st2" d="M-407.6,450.3c-6.6-0.6-13-2.3-19-5.1c-7.5-3.5-15.4-9.4-29.1-29.1c-9.2-13.2-17.2-27.2-24.1-41.8"/>
		<path class="st2" d="M-408.8,430c-4.6,0.6-9.3,0.6-13.9,0c-21-2.7-34.5-17.1-39.3-22.8"/>
		<path class="st2" d="M-445.5,342.7L-445.5,342.7c-1.3,0.9-2.3,2.2-2.5,3.8c-0.3,2,0.7,4.7,2.5,5.1c1.6,0.3,3.2-1.4,3.8-2.5
			c0.9-1.6,0.9-3.5,0-5.1c-0.3-0.6-0.7-1-1.3-1.3c-1.1-0.5-2.6,0-3.8,1.3"/>
		<path class="st2" d="M-344.2-53.7c10.5,5.7,21.5,10.4,32.9,13.9c9.1,2.8,18.4,5,27.9,6.3"/>
		<path class="st2" d="M-297.4,238.8c5.6-1.3,11.1-3,16.5-5.1c7.7-3,11.5-4.5,12.7-7.6c2.6-7-7.6-16.6-8.9-17.7
			c-6.9-6.3-10.2-4.3-15.2-10.1c-6.5-7.6-6.4-17.4-6.3-19c0.2-6.6,2.5-6.6,2.5-12.7c0-9.3-5.5-10.2-6.3-20.3
			c-0.3-6.1,1-12.3,3.8-17.7c2.2-4.2,3.2-3.7,5.1-7.6c2.5-5.3,1.8-8.6,2.5-17.7c0.2-2,0.9-7.2,2.5-17.7c2-13.4,2.3-13.6,2.5-17.7
			c0.4-9.3-1.2-9.7,0-15.2c0.7-3.3,3-7.3,7.6-15.2c4.2-7.2,6.3-10.9,7.6-12.7c2.8-3.7,4.6-5.4,5.1-8.9c0.6-4-1.3-5.9,0-7.6
			c1-1.4,3.5-1.8,12.7,0c9.6,2,10.3,3.1,15.2,3.8c4.6,0.6,14.4,1.9,19-3.8c4.2-5.2,2.1-14-1.3-19s-8.5-7.1-12.7-8.9
			c-8.1-3.3-9.8-0.8-15.2-3.8c-8.3-4.5-7.4-12-13.9-13.9c-5.9-1.7-12.1,2.8-15.2,5.1c-7.4,5.4-6.3,9.5-15.2,21.5
			c-7.1,9.6-9.8,9.6-13.9,17.7c-2.5,4.8-4.2,9.9-5.1,15.2c-1.4,9.3,1,15.3,2.5,22.8c0.9,4.2,4.9,23.4-1.3,41.8
			c-0.1,0.3-4.7,9.9-13.9,29.1c-3.9,8.2-4.4,9.2-5.1,11.4c-4,13.4,1.2,17.8-1.3,30.4c-2.4,12.6-8.3,11.9-8.9,22.8
			c-0.5,9.1,3.2,16.4,6.3,22.8c3.3,6.5,7.5,12.5,12.7,17.7"/>
		<path class="st2" d="M1193.1,270.5c8.4,1.2,16.9,1.2,25.3,0c6.4-0.9,16.6-2.5,27.9-8.9c8.4-4.8,15.7-11.3,21.5-19"/>
		<path class="st2" d="M1110.8,242.6c9.6,1.8,19.4,2.7,29.1,2.5c17.4-0.3,34.5-3.7,50.7-10.1"/>
		<path class="st2" d="M1099.4,217.3c13.7,3.3,27.7,5,41.8,5.1c11.7,0,28.1-3.3,60.8-10.1c7.2-1.5,15.8-3.4,24.1-10.1
			c4.7-3.8,8.6-8.6,11.4-13.9"/>
		<path class="st2" d="M1242.5,209.7c7.6-3.9,14.8-8.6,21.5-13.9c14.9-12,27-27.1,35.5-44.3"/>
		<path class="st2" d="M1093.1,179.3c9.9,7.1,21.1,12.3,32.9,15.2c9.6,2.3,19.9,2.4,40.5,2.5c16,0.1,24,0.1,29.1-1.3
			c7.1-2,21.8-7.8,35.5-29.1"/>
		<path class="st2" d="M1240,159.1c6.6-5.2,12.5-11.2,17.7-17.7c9.3-11.6,16.1-25,20.3-39.3"/>
		<path class="st2" d="M1099.4,147.6c12.4,3.3,25.2,5.4,38,6.3c22.6,1.6,45.2-0.6,67.1-6.3"/>
		<path class="st2" d="M1213.4,142.6c9.6-8.1,18.5-17,26.6-26.6c14.5-17.2,22.8-32.5,29.1-44.3c6.8-12.7,12.7-25.8,17.7-39.3"/>
		<path class="st2" d="M1195.7,113.5c-25.9,9.9-55,7.1-78.5-7.6"/>
		<path class="st2" d="M1219.7,71.7c-5.4,6.3-12.4,11.1-20.3,13.9c-7.3,2.5-13.7,2.5-22.8,2.5c-7.9,0-11.8,0-16.5-1.3
			c-4-1.1-13.9-4.7-22.8-17.7"/>
		<path class="st2" d="M1226,65.3c6.3-7.2,12.3-14.9,17.7-22.8c7.6-11,12.6-18.3,16.5-29.1c3-8.6,4.8-17.5,5.1-26.6"/>
		<path class="st2" d="M1234.9-17c1.8,6.1,6.6,25.1-2.5,44.3c-5.7,11.9-14.5,19.1-19,22.8c-5.1,4.2-12,9.8-22.8,12.7
			c-4.8,1.3-18.9,5-31.7-2.5c-3.4-2-6.4-4.6-8.9-7.6"/>
		<path class="st2" d="M1181.7-18.2c-1.5,3.6-1.9,7.6-1.3,11.4c1.7,9.3,10.1,14.2,13.9,16.5c12.2,7.1,25,4.7,29.1,3.8"/>
		<path class="st2" d="M1165.3,16c9.7,10.3,24.4,14.2,38,10.1c7.5-2.2,14.1-6.6,19-12.7"/>
	</g>
</g>
<g id="Layer_2" class="st0">

		<image style="display:inline;overflow:visible;" width="3675" height="3675" xlink:href="products-no-bg/BUENA ONDA Paradise Chill-Outs-Front_no-bg.png"  transform="matrix(0.1266 0 0 0.1266 17.3032 17.3032)">
	</image>
</g>
<g id="Layer_4">

		<image style="overflow:visible;" width="2018" height="3675" xlink:href="products-no-bg/buenaonda_summer21_Pants_back_no-bg.png"  transform="matrix(0.1273 0 0 0.1273 121.5151 16.0148)">
	</image>
</g>
</svg>
